<svg height="44" viewBox="0 0 44 44" width="44" xmlns="http://www.w3.org/2000/svg"><path d="m20.9849946 15.3531599c.0321269-1.5551525.6628756-3.0393238 1.7631297-4.1486989l5.2518757-5.204461v4.3345725c-.038582 1.5985398-.6625825 3.1286014-1.755627 4.3048327l-5.2518757 5.204461v-4.4609666zm6.9849947 20.6468401-5.2518757-5.204461c-1.1854628-1.086468-2.7298195-1.7076205-4.3440514-1.7472119h-4.3740622l5.2518757 5.204461c1.1209237 1.0927097 2.6219064 1.7180164 4.1939978 1.7472119h4.5016077zm-10.0010718-9.9256506 3.0010718 3.0408922v-6.9591078c-.0687662-1.4619045-.6620956-2.8514184-1.6730976-3.9182156l-3.0010718-2.9739777v6.9219331c.0757899 1.4515196.6686325 2.8293556 1.6730976 3.8884758z" fill="#ff6701" fill-rule="evenodd"/></svg>