<svg height="44" viewBox="0 0 44 44" width="44" xmlns="http://www.w3.org/2000/svg"><path d="m24.8615645 19.6503661-2.5016204.452262c-.4089884.0810302-.6867343.468468-.6214945.8724887.0820266.4036438.4742281.6783929.8832166.6135687l2.5016204-.452262c.5886839-.1130654.9644802.2423371 1.1117465.6139457.1472664.3712317.1144558.8721118-.3925831 1.1951022l-3.6786067 2.3581693c-.3433671.226131-.7523556.226131-1.112128.0486182-.3556121-.187587-.5761636-.5549202-.5722786-.9531421v-5.7979985c0-.9693481-.5066573-1.8090479-1.3734686-2.2775159-.8500245-.4688449-1.8633391-.4209805-2.681316.0964826l-9.2545077 5.92727c-1.04650677.6625638-1.43908988 1.8738721-.98126701 3.0207331.45782287 1.1468609 1.58597472 1.7604297 2.81255848 1.5505047l8.07713993-1.4370624c.4086069-.0810302.6867343-.468468.6214945-.8724887-.0820265-.4036438-.4742281-.6783929-.8832166-.6135687l-8.0771399 1.4374393c-.60508922.1130655-.96486169-.2423371-1.11174653-.6135688-.14726636-.3716086-.11445572-.8724887.39220159-1.1954791l9.25450774-5.92727c.3433672-.226131.7523556-.226131 1.112128-.0486182.3556121.187587.5761636.5549202.5722786.9531421v5.7983754c0 .9693481.5066573 1.8090479 1.3734686 2.2775159.386391.2083193.8188375.3192602 1.2590129.3229904.490252 0 .9808855-.1451007 1.4223031-.4198499l3.6789882-2.3581693c1.0465068-.6621869 1.4387084-1.8738721.9808855-3.0203561-.4578229-1.146861-1.5859747-1.7608067-2.812177-1.5508817zm12.9499014 1.5508817c-.4578229-1.146861-1.5859747-1.7608066-2.8125585-1.5508817l-2.5016205.452262c-.4086069.0810302-.6867343.468468-.621113.8724887.0816451.4036438.4742282.6783929.8828351.6135687l2.5016205-.452262c.5886839-.1130654.9648617.2423371 1.1117465.6139457.1472663.3712317.1144557.8721118-.3922016 1.1951022l-3.6789883 2.3581693c-.3433671.226131-.751974.226131-1.1117465.0486182-.3556121-.187587-.5761636-.5549202-.5722786-.9531421v-7.6398354c0-.4198498-.3433671-.7590463-.7687609-.7590463-.4250122 0-.7683793.3391965-.7683793.7590463v7.6398354c0 .9693481.5070388 1.8090479 1.3734686 2.2775159.3863909.2083193.8188374.3192602 1.2590128.3229904.4906335 0 .981267-.1451007 1.4226846-.4198498l3.6789883-2.3581693c1.0625305-.678393 1.4551136-1.8897013.9972908-3.0203562z" fill="#fff"/></svg>