<svg height="44" viewBox="0 0 44 44" width="44" xmlns="http://www.w3.org/2000/svg"><path d="m.24440615 21.6637h15.31462155c.0653699.001001.1276625.0283723.1731378.0760765.0454752.0477041.070397.111822.0692683.178211v2.8282063c.0011797.0663862-.0237311.1305144-.0692224.1782002s-.1078141.0749995-.1731837.0758998h-15.31462155c-.0656338-.000632-.12831548-.0277944-.17418171-.0754798-.04586624-.0476854-.07113746-.1119644-.07022444-.1786202v-2.8282063c-.00086202-.0666583.02442011-.1309268.0702702-.1786306.04585008-.0477038.1085015-.074924.17413595-.0756569zm14.97065235-6.2369063c.0484367.1298915-.0143236.2752712-.1412062.3270938-.1542338.059575-2.4166523.9531625-2.5413969 1.0007812-.1266406.0454354-.2657051-.0210483-.3119262-.149125-.0463507-.125575-.9839384-2.7646187-1.0898461-3.0602437h-6.44997541c-.10609846.2956562-1.05345231 2.9394562-1.09709538 3.0602437-.0212079.0621318-.06616604.1129669-.12472309.141027-.05855706.0280602-.12577521.0309792-.18647691.008098-.13268923-.0536812-2.40505846-.9478375-2.53939077-1.0007812-.12741397-.0513017-.19116702-.1965565-.14356308-.3270938.16020308-.4545125 4.44699692-12.36717495 4.66657231-12.98678745.42398769-1.2010125.97036308-2.4397125 2.64568-2.4397125 1.67603077 0 2.20284303 1.2192125 2.64313233 2.4397125.1868307.5161125 4.5402215 12.62346875 4.6702154 12.98678745zm-9.50769235-4.8216875h4.39718765l-2.18871995-6.6509687h-.02715693z" fill="#ee3524" transform="translate(14 9)"/></svg>