<svg height="44" viewBox="0 0 44 44" width="44" xmlns="http://www.w3.org/2000/svg"><path d="m31.3426854 8h-18.6853708c-2.5811623 0-4.6573146 2.0761523-4.6573146 4.6573146v18.6853708c0 2.5811623 2.0761523 4.6573146 4.6573146 4.6573146h18.6853708c2.5811623 0 4.6573146-2.0761523 4.6573146-4.6573146v-18.6853708c0-2.5811623-2.0761523-4.6573146-4.6573146-4.6573146m3.1983968 22.8376754c-.0561123.0561122-.1122245.0561122-.1683367.0561122-3.5911824-2.1883768-7.8557114-3.4228457-12.3446894-3.4228457-4.4889779 0-8.753507 1.2344689-12.40080159 3.4228457-.05611223.0561122-.16833667 0-.16833667-.0561122-.05611223-.0561123-.05611223-.1683367.05611222-.1683367 3.25450904-2.5250501 6.11623244-5.7234469 8.24849704-9.5390782 2.1883767-3.759519 3.5350701-7.7995992 4.0961923-11.89579156 0-.05611223.0561123-.11222445.1683367-.11222445.0561122 0 .1122245.05611222.1683367.11222445.5611222 4.09619236 1.9078156 8.13627256 4.0961924 11.89579156 2.1883767 3.7595191 4.9939879 6.9579159 8.3046092 9.482966 0 .0561122 0 .1683366-.0561122.2244489" fill="#fff"/></svg>