<svg height="44" viewBox="0 0 44 44" width="44" xmlns="http://www.w3.org/2000/svg"><path d="m.47122516 27.4348992h20.49729674v-26.97000839h-20.49729674zm20.96593374.4697113h-21.4371589v-27.9046105h21.4371589zm-20.16062064-26.6935504h9.55324104l.0015139 25.0168321-9.06504297-.0083714-.02605593-15.4493876c.09056576-4.99100243 4.19676933-8.9708725 9.1881651-8.90547736 5.0026754-.03886523 9.1118561 3.94194695 9.2317311 8.94333696v15.8847763h-18.88355224zm9.54138164 16.1381711c.8152399-.0258146 1.6059133.2810776 2.1902618.8501289s.9121021 1.3513077.9079173 2.1669455c.0029066.812062-.326481 1.589973-.9116483 2.1530293-.5851673.5630564-1.3751827.862251-2.1865308.828083-.83752332.051825-1.65977386-.2413362-2.27559686-.8113302-.61582301-.569994-.97157103-1.3671657-.98454066-2.2061907-.03339485-1.8535568 1.45408135-2.9806658 3.26013752-2.9806658z" fill="#fff" fill-rule="evenodd" transform="translate(11 8)"/></svg>