<svg height="44" viewBox="0 0 44 44" width="44" xmlns="http://www.w3.org/2000/svg"><path d="m7.00000131 21.9981836c.00338109-8.2827767 6.73531889-15.00040284 15.02997299-14.99818305 8.2550399.00227024 14.9759261 6.75036795 14.9700218 15.03067265-.0059043 8.273494-6.7424343 14.9723023-15.053691 14.9693258-8.2263259-.0029261-14.94973533-6.7513265-14.94630379-15.0018154zm27.94200659 1.1609378c.5663643-5.8125126-3.0498808-11.8030731-9.3498683-13.64652303-6.1068659-1.78694983-12.6872567 1.22682573-15.3846278 7.03706863-2.70413711 5.8249233-.74107266 12.730931 4.6342414 16.2911643 5.1566265 3.4154578 11.3408667 2.4078237 14.9066567-.4451438-.8124542-1.2021975-1.62573-2.4055057-2.443597-3.6157677.6748623-.6102981 1.3291366-1.2020043 1.9999393-1.808729.8160305 1.2140288 1.6195922 2.4094655 2.4400689 3.6300618.1889653-.2271596.3467103-.4168455.5089498-.61194-.7916728-1.1811427-1.5731966-2.3470739-2.3567985-3.5161922.6628767-.6120849 1.3057454-1.205771 1.9678973-1.8172282.635716.9529691 1.2601231 1.8889882 1.9125126 2.8669718.1032785-.2355138.1703104-.4167006.2602018-.5857664.0947727-.1781928.0658721-.3163042-.0462505-.4826658-.4901016-.727065-.9640614-1.4649473-1.4452222-2.1980004-.223617-.3407393-.4503271-.6794504-.6821116-1.0288821-.0721065.0580455-.1236249.0955674-.1707454.1379666-2.1952357 1.9773601-4.3909546 3.9540442-6.584547 5.9332394-1.4005665 1.2637198-2.9335053 2.3092139-4.7585429 2.8649436-1.653374.5034307-3.28529.4929033-4.8668958-.2746294-1.1651089-.5653877-2.0958235-1.4168497-2.8152932-2.4778934-1.7240789-2.5427479-2.1637737-5.3323097-1.43343-8.2934001.5859375-2.3754688 1.9476476-4.1816866 4.1832377-5.2560586 1.688944-.8116221 3.4175658-.9266989 5.1529536-.1341999 1.2142109.5545706 2.13178 1.4573174 2.8725144 2.5477218.7730663 1.1379709 1.5326971 2.2850204 2.2985624 3.4278686.2676445.3994125.5363039.7981007.8118259 1.207944-.6641333.6006883-1.3160878 1.1904146-1.9765481 1.7878191-.0480871-.0673656-.076746-.1054669-.1032785-.1449688-1.3976667-2.0752454-2.789679-4.1543058-4.1982679-6.2220661-.2193158-.3219543-.4824174-.6300973-.7796874-.8800501-.852712-.7168758-1.9232899-.7527075-2.8306617-.105805-.2780834.1982334-.5285229.4481862-.7501584.7095356-.4569481.5388761-.7679435 1.167235-1.0144199 1.826017-.6402107 1.7109885-.8307708 3.4811814-.6636501 5.2919869.1026502 1.1117489.3439072 2.193944.8624744 3.1923064.2064603.3974809.4438994.7882494.7241576 1.1362806.9237069 1.1470978 2.0327545 1.4211476 3.4002158.8668667 1.0845449-.4396387 1.984909-1.1601845 2.8418739-1.9310493 2.9266426-2.6325686 5.8419762-5.2776446 8.7619977-7.9176017.4815474-.4353408.964738-.8688466 1.4590442-1.3138939.880936 1.3113828 1.7485333 2.6029664 2.6552768 3.9526921zm-5.5177655-2.5967861c-.6916222.625935-1.3702101 1.2400485-2.0621354 1.8662361-.5041416-.7548604-.9990379-1.4954744-1.4935301-2.2362905-1.6623183-2.4903019-3.3245354-4.9807553-4.9868537-7.4710572-.5539545-.8299322-1.2417371-1.502244-2.1955089-1.8598707-.5372828-.2014207-1.0951779-.250475-1.6862143-.206119.0264726-.0357677.0350611-.060017.0514296-.0676959 1.5421811-.72434679 3.1207873-.90828782 4.7407695-.2858892.6921779.265934 1.2613391.7123232 1.6747968 1.3302761 1.9828692 2.9637695 3.9584129 5.9323888 5.9572465 8.9304103zm-7.3737373-10.87585983c1.1977419-.16352715 2.3196966-.0149988 3.4034303.42600603 1.1196886.4557017 2.0104037 1.1943673 2.6846844 2.1965687 1.2637097 1.87797 2.5288797 3.7549838 3.7931937 5.6326016.0369117.0549117.0702481.1122393.1186916.1899008-.6749353.6039784-1.3475542 1.2058428-2.0411216 1.8264306-.2388938-.3515657-.4687736-.6888373-.6976463-1.0267632-1.7442165-2.5752128-3.4928644-5.1474056-5.2293259-7.7278025-.4815643-.7155634-1.0787484-1.25501675-1.935825-1.46333895-.0221571-.00538548-.0414942-.02259886-.0960812-.05360308z" fill="#18622c" fill-rule="evenodd"/></svg>