<svg height="44" viewBox="0 0 44 44" width="44" xmlns="http://www.w3.org/2000/svg"><path d="m22 22.3846154c-4.418278 0-8-3.4439635-8-7.6923077s3.581722-7.6923077 8-7.6923077 8 3.4439635 8 7.6923077-3.581722 7.6923077-8 7.6923077zm0 6.9230769c-4.418278 0-8-1.033189-8-2.3076923s3.581722-2.3076923 8-2.3076923 8 1.033189 8 2.3076923-3.581722 2.3076923-8 2.3076923zm0 4.6153846c-4.418278 0-8-.6887927-8-1.5384615 0-.8496689 3.581722-1.5384616 8-1.5384616s8 .6887927 8 1.5384616c0 .8496688-3.581722 1.5384615-8 1.5384615zm0 3.0769231c-4.418278 0-8-.3443963-8-.7692308 0-.4248344 3.581722-.7692307 8-.7692307s8 .3443963 8 .7692307c0 .4248345-3.581722.7692308-8 .7692308z" fill="#f58032" fill-rule="evenodd"/></svg>