<svg height="44" viewBox="0 0 44 44" width="44" xmlns="http://www.w3.org/2000/svg"><g fill="none" fill-rule="evenodd" transform="translate(7 7)"><path d="m15.768061 21.2892694c2.9785207-4.2697058 3.1871006-8.4910588.0268048-12.62029408-1.523432-1.99076471-3.6667456-3.10058824-6.16384619-3.50329412-2.45485207-.39582353-4.71390533.19129412-6.8447929 1.44264706-.05147929-.07429412-.10295858-.14858824-.15443787-.22288236.57976331-.67182353 1.10307692-1.40329411 1.74834319-2.00611764 4.34964497-4.0632353 9.44396447-5.40388236 15.13402367-3.58005883 5.592071 1.79258824 8.9036095 5.79705883 10.0871006 11.48364707.4460947 2.1432353.4879882 4.359-.3582249 6.4304118-1.8573372 4.5472941-7.7774556 6.2535882-12.1258579 3.5530588-.4661539-.2894118-.8918344-.6435883-1.3491125-.9771177" fill="#1caae2"/><path d="m27.0544516 23.5175636c-1.7430178 2.1998823-3.7750296 3.9522352-6.4957989 5.0168823-1.9915384.7791177-3.9756213 1.2307059-6.0671005 1.1602941-9.91402372-.3349412-16.07431957-9.4457647-14.13568052-17.8334117.64899408-2.80835298 2.59473373-4.38582357 5.44384615-5.20517651 2.31124261-.66476471 4.33970417-.35876471 6.39692307.582.4627811.2117647.8939645.51123529 1.2981657.82358823.3449112.26611765.4963314.57705882.1643787 1.03517647-3.0312426 4.18323531-2.7330178 9.94182351 2.0808284 13.69747061 2.9827811 2.3274706 6.5904142 2.6521765 10.176213.9601765.3310651-.156353.6660355-.3045883.9992308-.456353.0463313.0730588.0924852.1462941.1389941.219353" fill="#0852a0"/></g></svg>