<svg height="44" viewBox="0 0 44 44" width="44" xmlns="http://www.w3.org/2000/svg"><g fill="#fff" fill-rule="evenodd" transform="translate(7 11)"><path d="m23.617 21.876 6.31-10.844-6.31-10.846h-2.3l6.309 10.846-6.309 10.844z"/><path d="m25.29 11.0323529-6.3113043-10.84599996s-12.63652179-.00431372-12.63695657 0c4.64173917.92011765 8.13826087 4.99615686 8.13826087 9.87282356 0 .3386274-.0173913.6733725-.0508696 1.0038039 2.9078261 1.7755294 4.8421739 4.9172157 4.8421739 8.4997647 0 .7838039-.0813043 1.5809804-.2565217 2.3130196z"/><path d="m19.0147826 21.8757647c-.8330435-6.1207451-6.1286956-10.8434118-12.51608695-10.8434118 2.40826087 0 3.96173915-1.69399996 3.96347825-3.9578431 0-1.2712549-1.33869564-4.98796078-4.12043477-6.88815686l-6.2973913 10.84599996 6.31130434 10.8455687z"/></g></svg>