<svg height="44" viewBox="0 0 44 44" width="44" xmlns="http://www.w3.org/2000/svg"><g fill="none" fill-rule="evenodd" transform="translate(8 8)"><path d="m4.10736036 13.2470888c-.868-3.222009-.51421622-6.28417938 1.23893694-9.15009867.57828829-.94521973 1.25672072-1.81874439 2.11576576-2.53732735.1867928.24484305.34205406.01921076.48331532-.05085202 4.84425222-2.40222421 9.52807212-1.7735426 14.10834232.73992825.2999279.16460987.6287388.33512108.7942162.74444843-.3974234.01130045-.6968468-.17440358-.998036-.31591031-2.1810991-1.02520179-4.4624685-1.52267265-6.8825766-1.37400897-.6496757.03980269-1.2623964.30963229-1.9205225.26129148-.5919099-.54945291-.6011171.05034978-.7490631.37655606-1.2063964.32143497-2.221081.98753363-3.17951347 1.75470852-.05322523-.36173992.11427027-.69585651.13243243-1.04855606.00731531-.14163229.07239639-.32068161-.07189189-.4027982-.19436036-.11086996-.30371172.08199103-.40700901.19876233-.87581982.98841255-1.44263063 2.13628699-1.75403604 3.41336323-.02888288.11840358-.06836036.23429596-.10291892.35131838-.19625225.01494171-.26675675.17013453-.364.30712108-.49756757.70025112-.87443243 1.46478924-1.21875675 2.24640359-.63163964 1.43452913-.95654055 2.95255603-1.22468469 4.48565023zm9.78142164-.3747103c-1.4771892-1.2897579-2.8018919-2.703444-3.6732973-4.48514801 1.1052432-.85443946 2.2888108-1.58243946 3.5508288-2.18437668 1.370991 1.80292377 3.1011892 3.21799103 4.9309009 4.52545289-.9757117.4107085-2.0455135.5510852-2.999027 1.0204305-.6387027.3145292-1.3636757.4986009-1.8094054 1.1236413zm-.1994685 11.6906152c-1.0129189-.296574-1.8737297-.8624753-2.6906486-1.5060986.1053153-.816018.415081-1.548287.8468108-2.2492915.4326126-.7025112 1.0771171-1.2063857 1.5973874-1.8242691 1.4551171 1.008879 3.0111351 1.8316772 4.6516576 2.4984036-1.6347207.7914081-3.1039639 1.8173632-4.4052072 3.0812556zm12.5804-17.2973076c-.1686306.6666009-.7214414.81539013-1.2864865.91458296-.6085585.10697758-1.2168648.00514798-1.8056216-.13786547-2.2610631-.54995516-4.3183063-1.55343498-6.2436216-2.83992825 2.3792432-.50111211 4.7333874-.53852915 7.0437657.35332735.774919.2990852 1.446919.74947085 2.051946 1.30620628.1164144.1072287.289964.19323767.240018.40367713zm-25.37160719 2.70040538c-.09976577 1.30947082-.27873874 2.60776682-.15463063 3.93481612.46313513 4.9537399 2.632 8.9222063 6.74005405 11.8036951.08324324.0583856.15904504.1270673.23825225.1909776-.00214414.6899551-.42012612.4709775-.76381982.3274619-1.44527928-.604574-2.57625225-1.6283947-3.60884684-2.7637131-1.85783784-2.0424932-2.96951352-4.4523766-3.25266667-7.1819372-.22273874-2.1455784-.1003964-4.2878923.80165766-6.31130042zm26.75758199 6.78590672c-2.7326487 1.4253632-5.3873514.7226009-8.0288108-.2954439-.1104865-.0424395-.2023063-.1330942-.3028289-.2012736.6660721-.3872287 1.4281262-.4349417 2.1578919-.5563587 1.5513514-.2580269 3.115946-.3498117 4.6795316-.0732018.3729549.0661704.7383423.1879641 1.0443243.4100807.2335856.1695067.5524324.3223139.4498919.7161973zm-18.9460865 4.4153363c-1.13135135-1.0852197-2.08372973-2.3091838-2.86533333-3.6653632.12625225-.078852.12082883-.2070493.12524324-.3314798.0694955-1.9842332.56466667-3.852574 1.5341982-5.5918386.67162162 1.6526278 1.69034234 3.0956951 2.74954959 4.5144036-.85425229 1.5889686-1.54340545 3.2277848-1.5436577 5.074278z" fill="#b0b1b3"/><path d="m13.7386541 2.64445561c.9295495 1.01791928 2.006036 1.85917488 3.1952792 2.55804484 1.9253153 1.28649327 3.9826847 2.28984753 6.2437478 2.83980269.5887567.14313901 1.1969369.24496861 1.8054955.13799103.5651711-.09919282 1.1178558-.24810762 1.2864865-.91458296.2588108.04909417.282018.28916592.3677837.46808969.4618739.96493273.7972433 1.97243049 1.0323424 3.0160897.0309429.1371121.1089309.7989835.233964 1.9856143-1.6537658.6316951-3.2936577.3690225-4.9307748-.0759641-1.5291532-.4157309-2.8871532-1.2070134-4.2758018-1.9312466-1.8297117-1.30746191-3.5599099-2.72252918-4.9309009-4.52545294-.8415135-1.3004305-1.6140361-2.62421525-1.4684865-4.26165023.1479459-.32620628.157027-.92613453.7490631-.37655605.0729009.45955157.4025945.76303139.6918018 1.07982063zm.1501279 10.22792289c1.4871531 1.3326995 3.1600901 2.3841435 4.9615495 3.2390852.1473153.0699372.3153153.0968072.4737298.1437668.1005225.0681794.1923423.1588341.3028288.2013991 2.6414594 1.0179193 5.2961622 1.7206816 8.0288108.2953184-.3138018 1.6369327-.9730631 3.1342421-1.8342523 4.5538296-.1656036.2729686-.3941441.4019193-.6856216.4890583-2.0532072.6127354-4.0951892.482278-6.1333874-.0721973-.3021982-.0822422-.6052792-.1607175-.9079819-.2409507-1.6405226-.6666009-3.1965406-1.4895247-4.6515316-2.4984036-1.1424504-.8767892-2.156-1.8944574-3.1896036-2.890278-1.05933331-1.418583-2.07792791-2.8617758-2.74954953-4.5144036-.62104504-1.74403588-.89814414-3.52561436-.58888288-5.37072647.03443243-.11702242.07390991-.2329148.10279279-.35131838.31153153-1.27707624.87821622-2.42482511 1.75403604-3.41336323.10342342-.11664574.21264865-.30950673.40700901-.19876233.14428829.08224215.07920721.26129148.07201802.4027982-.01828829.35282512-.18578379.68681615-.13255856 1.04855606-.16585586 1.68715695.25868468 3.23732735 1.09742341 4.69144394.8712793 1.78170401 2.195982 3.19539011 3.6731712 4.48514801zm-.1994685 11.6906152c1.476937.8307085 3.0932433 1.1270314 4.7598739 1.2099014.8193153.0406816 1.6353513-.019713 2.440036-.1986368.1745586-.0389238.3587027-.0842511.5965766.0544933-.9589369.6671031-1.9742523 1.1364484-3.0274054 1.5167713-1.8384144.6642152-3.7497297.9733453-5.6913153.7556233-1.4455316-.1622242-2.77452254-.7793543-4.05684687-1.4601435-.33234234-.1764126-.65913513-.3633722-.98845045-.545435-.07920721-.0639103-.15500901-.1325919-.23825225-.1909776-4.10805405-2.8813632-6.27691892-6.8499551-6.74005405-11.803695-.12410811-1.3270494.05486486-2.6253453.15463063-3.93481618.55445045-2.37259192 1.47201801-4.56613453 3.16500901-6.37998206 1.12441441-1.2046278 2.42994594-2.14670852 4.03275675-2.84783856-.09245045.46344394-.45935135.56690583-.63390991.82141704-.85891892.71858296-1.53735135 1.59210762-2.11563964 2.53732735-1.75315315 2.86591928-2.10693693 5.92808971-1.23906306 9.15009861.29563964 1.5329687.95565766 2.9185292 1.73700901 4.2549956.7816036 1.3560538 1.73398198 2.5800179 2.86533333 3.6652376.69798198.7080359 1.4192973 1.3879462 2.2890631 1.8895606.8169189.6436233 1.6777297 1.2095246 2.6906486 1.5060986z" fill="#073465"/></g></svg>