<svg height="44" viewBox="0 0 44 44" width="44" xmlns="http://www.w3.org/2000/svg"><g fill="none" transform="translate(8 8)"><path d="m2 28h24c1.1045695 0 2-.8954305 2-2v-24c0-1.1045695-.8954305-2-2-2h-24c-1.1045695 0-2 .8954305-2 2v24c0 1.1045695.8954305 2 2 2z" fill="#00925c"/><path d="m15.8230968 3.08696774c.7606451.31561291 3.8270967 1.992 4.2114838 2.51445161-1.6273548.21587097-4.7265806 1.13587097-6.2966451 1.96258065 1.7989677-.39419355 4.3054193-.60425806 6.0307097-.69509677-.6704517.99109677-1.0384517 1.49806451-2.1260646 2.67806451 1.8643871-1.11948387 2.383742-1.19716129 4.1091613-2.20787097.6459355.96167742.8136775 3.18516133.8380646 4.94735483.564258-1.1194839 1.2470967-5.32761289.9609032-6.09212902 1.0384516-.68025806 1.0384516-.95019355 1.3083871-1.41058064-1.0467097.09329032-1.6354839.11032258-2.207871.28619354-1.4390968-.88477419-4.4076129-1.79496774-6.828129-1.98296774zm-4.0885162 5.33574194c-.4660645.06877419-1.78270963.65909677-2.65767737 1.34929032 0 0-.58064517-.07109677-1.55380646-.04090323-.97303225.04258065-2.24877419.28787093-2.73935483.49058063.94864516.0441291 2.24064516.2812903 2.73935483.7769032 0 0-1.44735483 1.3042581-2.86206451 4.1500646 0 0 2.60038709-2.4221936 3.72064516-3.0256775 0 0 .57251613 1.9691613.98129032 2.943871 0 0 .36387097-2.2708387.96077416-3.5776774 0 0 .1676129-.103871 1.0018065-.184.8258064-.0735484 1.9912258-.1267097 4.2317419.2658064 0 0-2.0565161-1.3059354-4.5997419-1.65587093.0981935-.34838709.4580645-1.09587096.7770322-1.49238709zm-7.31883866 7.72748382c-.16361291 1.3992259-.2167742 2.4188388-.0203871 3.5367742-.63780645.1734194-1.09174194.3189678-1.61509678.551871.73587097.4522581 1.34116129.808 2.16696775 1.1856774.43341935.9420645.87909677 1.5674839 1.61509677 2.2896774-.17174193-.6157419-.20851613-1.1098064-.14309677-1.7581935.92412903.2691613 1.69277419.4163871 2.73935484.4498065-.99754839-.368-1.70903226-.799742-2.49406452-1.5332904.23716129-.6427096.50709677-1.1571613.9403871-1.7990967-.80129033.1147096-1.39006452.212-2.08516129.3474838-.56425807-.9899355-.81780646-1.9491613-1.104-3.2707097zm12.22516126 4.3545807c-.7032258.4947097-1.3165161.8805161-2.1261935 1.2673548-.0407742-.3793548-.0654194-.6990967-.0818065-1.1243871-.4579355.6085162-.8421935 1.0753549-1.3492903 1.6354839-.8585806.2339355-1.5372903.323871-2.3713548.3270968.5069677.264129 1.0221935.4243871 1.5536774.5314839-.5314839.4865806-.9975484.8349677-1.5129032 1.1652903.8749677-.2076129 2.0116129-.583871 2.8621935-1.0833549.4415484.0145807.8830968-.0050322 1.1855484-.0615484-.0735484-.2632258-.1308387-.460258-.2043871-.7972903.8098064-.6237419 1.3821935-1.184 2.0445161-1.860129z" fill="#fff"/></g></svg>