<svg height="44" viewBox="0 0 44 44" width="44" xmlns="http://www.w3.org/2000/svg"><path d="m22 37c-8.2842712 0-15-6.7157288-15-15s6.7157288-15 15-15 15 6.7157288 15 15-6.7157288 15-15 15zm3.8214406-11.5216474c-.9252746.9293369-2.217236 1.5071719-3.6477326 1.5071719-.9813355 0-1.8974463-.2722327-2.6750219-.7428365-.0710195-.0389092-.1424433-.0811158-.2142713-.1295215-.0111852-.008837-.6398491-.4517427-.7824271-.6022356-.1731689-.1826755-.6044067-.8023214-.6044067-.8023214-.003369-.0051439-.0060643-.010156-.0092985-.0152999-.5107473-.7768655-.8083014-1.7007947-.8083014-2.6933096 0-2.753454 2.2805741-4.9855245 5.0938616-4.9855245 1.4066438 0 2.6801429.5580506 3.6019137 1.460217l2.1778855-2.1315659c-1.4791456-1.4476869-3.5226736-2.3431266-5.7797992-2.3431266-4.514251 0-8.1738427 3.5816269-8.1738427 8 0 4.4182412 3.6594569 8 8.1738427 8 2.2809784 0 4.3433731-.9148284 5.8261573-2.3895539l-2.1784246-2.1320935z" fill="#fff" fill-rule="evenodd"/></svg>