<svg height="44" viewBox="0 0 44 44" width="44" xmlns="http://www.w3.org/2000/svg"><g fill="none" fill-rule="evenodd" transform="translate(8 8)"><path d="m13.3665158 0h1.3303168c.3495565.04510407.6986697.09438914 1.0487964.13467873 1.8762534.21576471 3.6280271.81447059 5.2486696 1.77153846 2.5869593 1.52771041 4.5116109 3.65963801 5.7468417 6.40838914 1.0633031 2.36619007 1.3863801 4.84558367 1.1010588 7.40352937-.1987873 1.7821177-.7560634 3.4637648-1.6262805 5.0373394-.8422806 1.5232127-1.9147693 2.8652489-3.2708688 3.951991-.7426969.595285-1.5457647 1.1282986-2.3704344 1.6049954-1.4717104.8507059-3.0779729 1.3343077-4.7648145 1.5464616-.3710317.0466878-.742.0940724-1.1129683.1410769h-1.3936652c-.1100995-.025086-.2196923-.0686063-.330552-.0724706-1.2626606-.043647-2.4791403-.320543-3.66134843-.746181-2.49694118-.8989774-4.5759095-2.3780995-6.23722172-4.4602353-1.63115837-2.0443801-2.60292308-4.3543167-2.94190045-6.9391855-.04738462-.3612127-.08824435-.7233756-.1321448-1.085095v-1.3303168c.02958371-.2901357.05359276-.5809683.08970136-.8702805.16495927-1.320181.48037104-2.59646154.98709502-3.83460634.74599095-1.82297738 1.83932127-3.40073303 3.24438914-4.76164706.98006335-.94927602 2.0839095-1.7399276 3.30925792-2.35516742 1.4498552-.72793665 2.96704976-1.22940271 4.58420816-1.41051584.3841448-.04301357.7679095-.08944796 1.1518642-.13429864" fill="#1e5d9f"/><path d="m22.0026154 11.4957104c-.0297104-.0040543-.0593575-.0081719-.0890679-.0122262-.2393937.5549321-.4877194 1.1061267-.7162172 1.6654932-.5045068 1.2354208-.9972941 2.4756561-1.5020543 3.7109502-.0295203.0722805-.1230226.1701538-.1853574.1691403-.5995928-.0098824-1.2070408.0142534-1.796181-.0762715-.6051041-.0929955-.8964435-.6229683-.7395295-1.2090679.0891313-.3330226.2101267-.6590769.3374571-.9800633.6715565-1.6928598 1.3509049-3.3826154 2.0249321-5.07452493.2687873-.67466063.5448597-1.34704072.791095-2.03.1681267-.46624434.1897919-.94845249-.1920724-1.33050679-.330362-.33048868-.7444706-.48018099-1.2145158-.32586425-.4037828.13246154-.6558462.44483258-.8693937.7921086-1.5842805 2.576-3.1680543 5.15225337-4.7517647 7.72857017-.3802172.6185972-.7577104 1.2389049-1.1404615 1.8559185-.2360362.3804706-.5589865.4910769-.9087331.3212398-.3572217-.1735113-.474923-.4827782-.3154117-.9039819.1825068-.4817647.3838914-.9564344.5802081-1.4329411.9455385-2.2949231 1.8882896-4.59098647 2.8400362-6.88337561.3930136-.94667873-.2098733-1.89620814-1.2151493-1.79611764-.1776923.0176742-.3586787.00247058-.5382082.00247058h-1.9818552c.7254661-1.74094117 1.4337647-3.44064253 2.1420634-5.14040724-.2424344.17604525-.4201901.38952942-.6024434.59908598-2.02018105 2.32342986-4.04264258 4.64489592-6.05680548 6.97358371-.09147511.10579185-.15038914.27404525-.15482353.41537556-.02838009.896-.04466063 1.79257016-.05067873 2.68901356-.01146607 1.7100905-.01374661 3.4202444-.01780091 5.1304616-.00006335.0555565.0219819.1113031.04719457.2311583.06366516-.1208054.10059729-.1797194.12714027-.2429411.70101358-1.6680905 1.40506788-3.3349774 2.09569231-5.0073123.08133937-.1969502.17655204-.2796832.3901629-.2725882.43241629.0142534.8660362-.0050045 1.29832579.0112127.22761086.0084887.47523981.0145068.67630771.1050316.6363982.2865883.8566606.9639729.5539185 1.6954571-.6555927 1.5839638-1.32803616 3.1608959-1.99237101 4.7411855-.40352941.9597918-.81352036 1.9169231-1.20393665 2.8819728-.26973755.6666788-.03465158 1.2688055.57108597 1.5401901.58008145.2598552 1.1981086.0634117 1.59080543-.5307331.47612666-.7204615.93952036-1.4494751 1.40114026-2.1793122 1.0474027-1.6562443 2.090181-3.3154027 3.1352398-4.9730407.5226245-.828914 1.0435385-1.6588416 1.5703439-2.4850317.277276-.4347602.6441901-.5079276 1.0112941-.2458552.2170317.1549502.2755657.5622172.127077.931095-.7976199 1.9815385-1.5986607 3.96162-2.396534 5.9430317-.3028054.751819-.6161267 1.5000272-.8958733 2.2603982-.2985611.8113032.1056652 1.5256833.9628326 1.6131041.7627783.0778552 1.537086.0418733 2.3063891.0553031.1196019.0021539.2391403.0003168.3958643.0003168-.6519819 1.5656561-1.2795113 3.0727149-1.9409321 4.6611131.1088959-.0693665.1455746-.0832398.1690135-.109086 2.0805521-2.2953031 4.1625611-4.5893393 6.2332308-6.8934479.1185249-.1318914.2056923-.3482896.2033484-.5238914-.0261629-1.9622172-.0769049-3.9240543-.1119366-5.8861448-.0129864-.7262263-.0020905-1.4528326-.0020905-2.1792489" fill="#fff"/></g></svg>