<svg height="44" viewBox="0 0 44 44" width="44" xmlns="http://www.w3.org/2000/svg"><g fill="none" transform="translate(7 12)"><path d="m8.90676645 15.4097476 1.22435615 1.8239781c-2.1981358 2.228036-5.75896327 2.2284269-7.957574.0008737-2.19861074-2.2275532-2.20425479-5.8413647-.01261307-8.07598016 2.19164172-2.2346155 5.75245252-2.24568061 7.95753677-.02472781l-1.31986585 1.70358047c-.97584332-1.1326355-2.54622844-1.52355626-3.9277304-.97774191-1.38150197.54581431-2.27810985 1.91141351-2.24252893 3.41553511.03558093 1.5041216.99572682 2.8244812 2.40144547 3.3023852 1.40571866.477904 2.95581029.0109532 3.87697386-1.1679027zm2.35268125-7.70685141h2.3766039v11.07659141h-2.3766039zm12.960031.05806429h2.3765419v11.07646572h-2.3765419zm-4.0662864 11.13119332c-2.0429936 0-2.5316129-1.7723357-2.5815433-2.7691976h-.0149677v-6.33040572h-2.0891303v-2.03041143h2.0891303v-2.14937905l2.1178735-1.30683143-.0573419 1.64711905v1.80908619h2.1452645v2.03041143h-2.1452645v5.61819766c-.0266254.1599645-.0266254.3233283 0 .4832928v.1265053c.1015662.6108375.5748632 1.0883805 1.1773271 1.1878889.6024639.0995083 1.2005422-.2010766 1.4877206-.7477056l.0025807-.0024776s.0423329 2.4339071-2.131649 2.4339071z" fill="#1b2452"/><path d="m19.3154426.84891143c-3.8854667-.00237683-7.5144063 1.96842446-9.66806712 5.25052524h3.36140392c3.5051898-3.48025649 9.1080953-3.48025649 12.6132851 0h3.3614658c-2.1536578-3.28211485-5.7826112-5.25291942-9.6680877-5.25052524z" fill="#ed1c24"/><g fill="#1b2452"><path d="m29.7688103 5.90272v-1.22714952h.5808929c.0835367-.00315742.1670447.00699323.2474839.03008238.0570598.02040261.1056022.05986429.1376774.11192238.0651962.11514504.0697553.25564156.0121652.37489047-.0261258.04883206-.0639767.09017946-.1100439.12020905-.0379646.02274007-.0793249.03905375-.1224568.04830048.0322887.01053172.0628828.02580759.0908078.04534095.0209397.01931934.0396411.04099835.0557419.06461714.0185798.02380482.034923.04932267.0488155.07621953l.1687174.35556714-.3938064-.00000524-.1864929-.37501619c-.0144261-.0355796-.0359328-.06775444-.0631742-.09451095-.0245404-.01886628-.0545517-.02894277-.0853368-.02865238h-.0307819v.49818476zm.3502091-.72989714h.1470503c.031257-.00254438.0621974-.00815793.0923871-.01676191.0229916-.00501226.0432115-.01878719.0564903-.03848428.0146232-.02076307.0223399-.04571842.0220284-.0712381.0021114-.03413594-.0106099-.0674987-.0348129-.0913-.0384377-.02547173-.0843657-.03668513-.1300129-.03174286h-.1531355z"/><path d="m30.2313806 4.06643762c-.4935258.00001059-.9384495.3017372-1.1273035.76448496s-.0844468.99538623.2645368 1.34954654c.3489836.3541603.873817.46009649 1.3297708.2684106s.7532356-.64324453.753223-1.14411448c.000011-.3284383-.1285466-.64342696-.3573875-.87566251-.228841-.23223554-.5392171-.36269151-.8628396-.36266511zm0 2.24901286c-.4026391.0001864-.7657413-.24580213-.9199885-.62325884-.1542473-.37745672-.0692623-.81204579.2153255-1.10111424s.7127322-.37568753 1.0847853-.21946595c.3720532.15622158.6147436.52451775.6149023.93314855-.0002444.55775169-.4454514 1.00997054-.9950246 1.01069571z"/></g></g></svg>