<svg height="44" viewBox="0 0 44 44" width="44" xmlns="http://www.w3.org/2000/svg"><path d="m12.1220851 4.9611783c-.5500809.49351814-1.0934705 1.12042909-1.596587 1.90734064-.58364464.89369664-1.12701634 2.00075103-1.60331414 3.34126056.20796655-2.01409028.77817493-3.65468065 1.60331414-4.94183306.4561702-.72025056.9995419-1.3271349 1.596587-1.83399229 1.0398149-.87363463 2.2473234-1.44718845 3.535342-1.75395659 1.1337255-.27343761 2.3345248-.3334821 3.5353253-.21342854.3152954.03333051.6373001.0600091.9593048.12670551 2.6833661.44684832 5.245985 1.78063516 7.0304111 3.68801119 1.5362402 1.65396504 2.5293368 3.37121263 2.3951712 5.71871428h-2.3345427-5.7826476c.1037777-1.98443604-.2216308-3.46455224-1.3083921-4.95844587-.2884587-.38011653-.6104634-.72690251-.9593047-1.04704532-.9995431-.88697391-2.2338883-1.4405011-3.5353253-1.45387577-1.1672714-.00665194-2.3881982.41348242-3.535342 1.42054526zm-1.5965871-1.4271972c-2.53578218 2.75433209-3.84392832 7.8765857-2.3680706 15.4660189h-8.12388153c0-.1000269 0-.493876-.03354587-.553885v-5.5687087c.78488411-8.01629031 5.17889321-11.63091775 10.525498-12.59792738.5232441-.10006231 1.0532154-.16672335 1.596587-.21342854 1.153853-.09337499 2.3412519-.08668766 3.5353421.01333929 1.1806718.10002694 2.3680706.28677691 3.5353252.56021454.0603826.03333051.1274744.03333051.1542932.06000907-.0268188-.02667856-.0939106-.02667856-.1542932-.02667856-1.1873821-.15338407-2.3814723-.14004479-3.5353252.07338374-1.2544728.2333844-2.4552721.693572-3.5353421 1.42047451-.5702084.38015191-1.1068708.83368754-1.596587 1.36718813zm18.4816692 12.130962c.6440093.2534287.9928328.7602861.9928328 1.5539028 0 .5468575-.221367.9870185-.704374 1.3404918-.4494611.3134378-1.0867612.4735092-1.8850637.4735092-.0939106 0-.1610023 0-.2280941 0-.221367 0-.3823693-.0333482-.5098258-.0333482-.1274564 0-.3152955 0-.5769354 0h-2.3009789v-.3134555h.4159152c.2213849 0 .3555505-.0666787.3555505-.1934019.0268367-.0333482.0268367-.0933573.0268367-.1267055v-.1600714-4.2281991-.1267232c0-.0600091 0-.0933573-.0268367-.1267055 0-.1267232-.1341656-.1934019-.3555505-.1934019h-.4159152v-.3468037h3.3877402 2.2406142l.0335459 1.4338669h-.4159153v-.3201252c0-.1267055-.1610023-.2534287-.4830069-.3801342-.2817675-.1267055-.6708461-.2267501-1.0867613-.2867769-.1274743-.0333482-.187839-.0333482-.2884767-.0333482-.2817496-.0333305-.5433716-.0666787-.6976648-.0666787-.1274564 0-.2616221.0333482-.2884588.0666787-.0670917.0333482-.1006376.093375-.1006376.1934196v1.64726c.4159331-.093375.7714657-.1267055 1.0867612-.1267055h.0670918c.5098437 0 1.0867612.1267055 1.7576072.3534556zm-1.0196873 2.6076177c.187839-.2867769.2884587-.6402325.2884587-1.053715 0-.6002147-.1610023-1.0136971-.4829891-1.2071167-.1945482-.1267055-.3823872-.1867323-.6104813-.253411-.1542931-.0333482-.3152955-.0333482-.5098258-.0333482-.2213849 0-.4159331 0-.5769354.0333482v2.700975c.2280941.1600714.4830069.2267501.8318483.2600983h.2549129c.3555506-.0666964.6104813-.1934019.8050117-.4468306zm-5.5679718-2.0074027c.3823693.2600983.5769175.6402325.5769175 1.1470899-.0335459.4801789-.2549129.8603131-.670846 1.1737685-.4494611.3201075-1.0867612.4468307-1.8850637.4468307-.1006197 0-.1945303 0-.2884588 0-.0335458 0-.0670738 0-.1006197 0-.0939106 0-.2213849 0-.3488414-.0333483-.0939105 0-.2884587 0-.5098436 0h-.1274565-2.3345259v-.3134554h.4427519c.2280941 0 .3555505-.0666788.3555505-.193402.0268367-.0333482.0268367-.0933572.0268367-.1267055v-.1600714-4.2281991-.1267232c0-.0600091 0-.0933573-.0268367-.1267055 0-.1267232-.1274564-.1934019-.3555505-.1934019h-.4427519v-.3468037h2.2003603.261622c.2549308-.0333482.5702263-.0333482.9257589-.0333482h.0335459c1.0196874-.0333482 1.6905155.1267232 2.0796119.4135001.3488414.3201074.5433896.6402325.5433896.9870185 0 .2534287-.0670918.4801789-.2280941.6669111-.1610023.193402-.3823872.3201252-.6373001.4134825-.2884588.093375-.5433717.1600537-.8318484.1600537v.0333482c.5098437.0266786.9593048.1600714 1.3416921.440161zm-3.3542122-2.4742248v1.8073137h.1274564.7312286.1006198.1274564.0939285c.2884588-.0266786.4762978-.1267055.6373001-.3134378.1610024-.1600714.2549129-.4134824.2549129-.6669111 0-.2267501-.0603826-.4134824-.1542931-.5735538-.1006198-.1600537-.2280941-.2867592-.3890964-.3801342-.1274565-.0666964-.2884588-.1000269-.442752-.1000269-.0670738-.0333483-.1610023-.0333483-.2280762-.0333483-.2884588 0-.5098437.0666788-.7312286.1600538-.033528.0333482-.1006197.0666964-.1274564.1000446zm1.8515178 4.5416546c.2213849-.2534287.3555505-.6002147.3555505-1.0470453 0-.7936343-.3890785-1.240465-1.1203071-1.3004741-.0670739-.0333482-.1610023-.0333482-.2280762-.0333482h-.7312286-.1274565v2.4808945c.0268368.0266786.0939285.0600268.1274565.093375.2549308.1267055.5098437.1934019.8318483.1934019.0268368 0 .0939106 0 .1274565-.0333482.3152955-.0333482.5702263-.1600537.7647566-.3534556zm-5.4069706.3201071h.1475839.4293335v1.7473047h-.4293335-.0201276v-.3801342c0-.193402-.187839-.3801343-.5433716-.5068398-.3488414-.1600714-.7647745-.2867768-1.2477815-.3801518-.4762799-.0666788-.892213-.1333752-1.2142177-.1333752-.1610023 0-.3152954.0333482-.5098436.0333482-.2213671.0333483-.4494611.0666788-.704374.1267056-.3421322.073366-.6373002.153384-.8922131.2534286-.1006376.0400179-.2012573.0867054-.2884587.1267056-.35555058.1333928-.51655291.2867769-.54338961.4801788l-.03354587.3801342h-.4494611l.12745646-1.7473046c.35555054 0 .73793782-.2867592 1.08676122-.8869916.0335459-.0600091.0670918-.1133663.1006377-.173393.3085863-.5668665.5634992-1.2070991.7647566-1.8940191.221367-.8002863.3555505-1.3671704.3555505-1.7539743 0-.1533841-.0335459-.2801073-.1006376-.3468037-.0603647-.0333305-.2213671-.0666787-.4762978-.0666787h-.4494611v-.3468037h1.5026764 3.5353421.3018771v.3468037h-.3018771-.147584c-.2213849 0-.3152955.0666787-.3488414.1934019v.1267055.1267232 4.2615473c0 .2534287.1274565.4134824.3488414.4134824zm-1.8850637-.4134824v-4.2615473c0-.2200805 0-.3134555-.0335459-.3801519-.0268367-.0333305-.1274564-.0333305-.2549129-.0333305h-.7312286c-.1610023 0-.2884587.0333305-.3890785.100027-.0268367.0266785-.0603826.0600267-.0939284.1267231-.033528.0933573-.0670739.1533841-.0670739.2800896-.0268367.0666965-.0603826.193402-.0939106.4134824-.1274743.4801789-.2884766.9536881-.4159331 1.4338669-.1610023.5068574-.3152954.953688-.4762978 1.3338222-.1006197.2267502-.1945482.4801789-.2884587.7335899-.1006198.2200805-.1610024.3468036-.1610024.3801519-.0335459.1934019.0939106.2867592.3220047.2867592h1.1806718 1.1806897c.1610023 0 .2884587-.0666788.3220046-.1600538 0-.0333482 0-.0600267 0-.1267055z" fill="#fff" fill-rule="evenodd" transform="translate(7 12)"/></svg>