<svg height="44" viewBox="0 0 44 44" width="44" xmlns="http://www.w3.org/2000/svg"><path d="m16 19c0-3.3137085 2.6862915-6 6-6s6 2.6862915 6 6-2.6862915 6-6 6-6-2.6862915-6-6zm-10 8h32v4h-32zm2.18200342-13.999998c2.34736208.0003503 4.46463158 1.4550607 5.36883008 3.6887569.9041986 2.2336962.4182211 4.8088653-1.232309 6.5299411-1.6505301 1.7210757-4.14232423 2.2509518-6.3185245 1.3436242v-11.1248289c.69316642-.2895674 1.43411332-.4381278 2.18200342-.4374933zm27.63599318 0c.7478901-.0006345 1.488837.1479259 2.1820034.4374933v11.1248289c-2.1762003.9073276-4.6679944.3774515-6.3185245-1.3436242-1.6505301-1.7210758-2.1365076-4.2962449-1.232309-6.5299411.9041985-2.2336962 3.021468-3.6884066 5.3688301-3.6887569z" fill="#f5a04c"/></svg>