<svg height="44" viewBox="0 0 44 44" width="44" xmlns="http://www.w3.org/2000/svg"><g fill="none" fill-rule="evenodd" transform="translate(8 8)"><path d="m0 0h28v14c-4.6791992-6.22222222-9.3500434-9.33333333-14.0125326-9.33333333-4.6624891 0-9.32497825 3.11111111-13.9874674 9.33333333z" fill="#000"/><path d="m0 25.6666667c4.66484375-1.2444445 9.33090278-1.8666667 13.9981771-1.8666667 4.6672743 0 9.3345486.6222222 14.0018229 1.8666667v2.3333333h-28zm0-4.6666667c4.33801719-3.1111111 9.00407621-4.6666667 13.9981771-4.6666667 4.9941009 0 9.6613752 1.5555556 14.0018229 4.6666667v2.3333333c-4.6666667-1.8666666-9.3333333-2.8-14-2.8-4.66666667 0-9.33333333.9333334-14 2.8zm0-5.1333333c4.31210937-4.6666667 8.9781684-7.00000003 13.9981771-7.00000003s9.687283 2.33333333 14.0018229 7.00000003v2.8c-5.4223848-4.0444445-10.0890515-6.0666667-14-6.0666667s-8.5776152 2.0222222-14 6.0666667z" fill="#e92314"/></g></svg>