<svg height="44" viewBox="0 0 44 44" width="44" xmlns="http://www.w3.org/2000/svg"><path d="m25.9213669 12.079171c-.1372193.1188552-.2851366.2375656-.4485214.36652-1.4548212.979618-3.0821441 1.6745985-4.7958014 2.0481421-4.5708648 1.2669807-7.8870496 1.4563959-11.66257927 2.4122-.75540673.1912657-1.49524737.4394533-2.21317793.7424345.71275448.3636138 1.46782758.7062952 2.24833241 1.0104234 1.46904369-.4551805 2.96870459-.8049202 4.48755039-1.0465531.8452331-.1473282 3.4463462-.6195627 5.3353324-1.0330551 3.3934165-.7477835 8.3717007-2.3724207 7.0488745-4.5000731zm-2.1882386-4.41808134c-.8359014-.37954181-1.7009906-.69119967-2.5868911-.93195587-.493543.403655-1.0488955.72515924-1.6447103.95215449 1.051371.22499075 2.0880146.51400312 3.1041379.86542206.1823573.09391587.9972828-.69912137 1.1274538-.88561103zm-16.65266209 4.70079444c4.43827999-1.345931 9.10356279-1.7594234 13.82102209-3.06375031-1.540387-.53967385-3.1863072-.70859321-4.8042014-.49305103-2.9156379.35422355-5.7958087.95613311-8.60928552 1.79920274-1.04317379.3201848-6.54769379 1.9305131-4.95931172 4.1858552 0 .028589.94558896-1.3376662 4.55177655-2.4282759zm-3.06391449 7.7450897c-.00706758.4199228.23770069.7948621.78049518 1.2498331.07005744-.2222663.18085992-.4295568.32675034-.6112883-.37772-.196-.74607448-.4139752-1.10725517-.6385448zm2.08616414-.2149531c.38135139-.2313574.78105729-.4310086 1.19508828-.5969407-.63258115-.2686005-1.27805517-.561857-1.93642207-.8797697-.27922732.1730291-.53874263.3760071-.77393931.6053311.50131586.2998703 1.00142483.5950965 1.5152731.8713793zm17.06961104-9.7540317c-1.2964528.5722637-2.642733 1.0242256-4.0218717 1.3501889-1.5063904.3913435-5.1855711.9379228-9.1344497 1.8247504-1.25567447.2808883-4.64033378 1.1083365-6.30463447 2.5708248.39528307.3032272.8208496.5647853 1.26991587.7805048.93198896-.5799541 1.9494945-1.009522 3.01512689-1.2729186 2.10946891-.5647875 4.25090571-1.0025791 6.41278211-1.3110179 2.878859-.4731684 5.7173195-1.1657932 8.4905558-2.0718166.6912022-.2435424 1.3410416-.591478 1.9269311-1.0317131-.5090123-.3563995-1.0659972-.6388091-1.6543173-.8387931zm1.3116262-.8297559c.4249357.19042231.8338973.41465347 1.2229435.67053242.2785806-.54756414.1081379-.90337655-.4698111-1.41127724-.2261352.27101455-.4783846.51912442-.7531034.74074482zm-20.67818344 8.2915338c-.39377656-.2322262-.66469104-.3931683-.99728276-.6296621-.18064828.4038759.15327586.8457931.51494896 1.057869.15084276-.1555931.32431724-.2844317.48234345-.4282069zm18.89966204-12.67701931c-.1423642.34736526-.3565242.66072666-.6284455.91954896.674284.19449955 1.3380813.42366731 1.9887435.68658897-.07896-.61178069-.7727325-1.20702207-1.360298-1.60614759zm-20.89545377 3.91140689c4.65275035-3.15585103 9.79553927-4.99068138 18.51415997-3.43443172.4597721-.21975041.784709-.64849015.8719876-1.15054897-2.4393074-.8313251-5.0157146-1.18584319-7.5888979-1.04424551-2.7501407.07481793-7.68744829 1.1315862-10.32234484 2.7418662l.79944827-1.0341462c3.19633687-1.59423548 6.68943147-2.50594102 10.25718207-2.67714759 2.3297657-.09785665 4.6583826.2191041 6.8772345.93609793-.2602069-.53453931-.8915683-.80070345-1.8022442-1.22355172-2.9248317-1.35848276-8.385942-1.48496552-12.86106616.54888689.58620366-.40745248 1.2034514-.76831643 1.84606897-1.07927448 2.17475939-.9493737 4.53419099-1.40074887 6.90580409-1.3211269 2.5996535-.0041795 5.1071597.96263562 7.0310994 2.71096966.2513933.30149544.4334965.65452839.5334386 1.03414621 1.0807321.46323584 2.0022706 1.23262497 2.6509917 2.21330344.1953792.42643629.2582763.90169635.1805517 1.36427587.4493279.26317669.8360324.62094185 1.1332952 1.04848413.2086946.31600712.3457528.67383277.4015683 1.04839725.11777.54143613-.0115205 1.10719973-.3527807 1.54373653.4446058.2807537.7691007.7166216.9105503 1.223069.0899494 1.1512547-.4182021 2.2679139-1.3453227 2.9563365-1.517763 1.1688938-3.2543546 2.0218202-5.107229 2.5084138-3.6476759.9486304-6.8665365 1.3525062-9.4273103 1.8395904 1.71534.4554941 3.4839485.6792488 5.25868.6652993 3.5718263-.1094378 7.0736273-1.0186085 10.2475655-2.6605697 0 0-.1116717.3510718-.2173862.6510676-3.4604078 1.910795-7.3420772 2.9300542-11.2948331 2.9658276-2.1567157-.0819071-4.2927243-.4525084-6.35097934-1.1019062-.60439061.1597232-1.19479556.3683183-1.76538069.6237241 2.44432263 1.1540038 5.09589233 1.8042808 7.79678343 1.9121007 3.6019482.0761395 7.185025-.5398916 10.5547159-1.814651-.1645917.1693324-.2513242.4437807-.4205407.6041145-2.455124 1.1419943-5.0874411 1.8557812-7.78316 2.1105048-2.1623305.1090221-4.3300581-.0262983-6.4620428-.4033931-1.65984576-.3538876-3.27133911-.9052777-4.80005928-1.6423931-.25651875.1905482-.42543905.4764187-.46860414.7930372 5.99103452 3.2354483 11.60480272 3.3060662 17.98667862 1.2568911l-.5845241.5785669c-7.0299311 2.945011-12.5260511 1.8056524-16.77844969-.3166897-.14718354-.0627424-.29024716-.1347402-.42833242-.2155614.38903587.7115283 3.64183451 3.1624166 7.27162901 3.4694607 2.4989214.1965674 5.0111492-.1380444 7.371502-.9818345l-1.060302.5738262c-2.0033525.9833808-4.2341058 1.4104908-6.4590207 1.2366731-2.9362257-.1278133-5.72859427-1.3071846-7.867469-3.3228662-.47505804-.4702748-.79063078-1.0777211-.90227586-1.7367917-.86599972-.423765-1.59546439-1.0823932-2.10518483-1.9007558-.26211067-.600451-.2806497-1.2792563-.05170344-1.8931187-.45181206-.290517-.84262966-.6663599-1.15056828-1.1064827-.33088196-.6455867-.28021687-1.4207785.13188-2.0178055-.25352623-.2664091-.45765421-.575782-.60284966-.913669-.10608615-.3574018-.14101214-.7321468-.10279862-1.1029973.11019422-.6781932.41382256-1.3101586.87442069-1.82.94923862-1.1298965 2.4342138-2.0071075 4.98959035-2.8809103 1.76236384-.59225205 3.56061795-1.07179506 5.38386895-1.43572413 2.1978455-.5256469 4.8245062-.69438069 7.0294097-1.48911725-6.1437376-1.2549342-12.53364539.04344269-17.7004221 3.59658069z" fill="#fff" fill-rule="evenodd" transform="translate(8 8)"/></svg>