<svg height="44" viewBox="0 0 44 44" width="44" xmlns="http://www.w3.org/2000/svg"><path d="m14.96625.88422222v-.00127778c7.97125 0 14.40875 6.28538889 14.41 14.04405556 0 2.7485-.865 5.3027778-2.21 7.4622222h-6.91625c2.11375-1.6687778 3.45875-4.2217778 3.45875-7.1683333 0-4.9105-3.93875-8.93550001-8.7425-8.93550001s-8.74125 4.02500001-8.74125 8.93550001c0 2.9465555 1.345 5.4995555 3.4575 7.1683333h-6.91625c-1.44125-2.1594444-2.21-4.7137222-2.21-7.4622222 0-7.75866667 6.43625-14.04277778 14.41-14.04277778zm-4.7075 16.39899998h9.415c-.6725 2.0623334-2.4975 3.5356111-4.7075 3.5356111-2.20875 0-4.035-1.4732777-4.7075-3.5356111z" fill="#fff" transform="translate(7 10)"/></svg>