<svg height="44" viewBox="0 0 44 44" width="44" xmlns="http://www.w3.org/2000/svg"><path d="m30 5.4441297c-.3862435-.56086963-.8679785-1.0626948-1.5051465-1.45824793l-.303776.18866588c-.6843965.10269156-1.4156202.14567872-2.1012174.16836639.303776-.44778294.8428884-.63644882 1.270336-.83944376-.4958873-.36777906-.9017224-.45733565-1.5212814-.55883311-.359008.35942044-1.0073836.53614544-1.4684507.63644882l-.055232-.04298716c-.012007-.40121352-.1056613-.89556589.5018907-.99467518-.583538-.27941656-1.550098-.16836639-2.1468438 0-.1692981.43584206-.6483756.82630879-.6171575 1.33976657-.3458004.35942044-.5931437.83824967-.9545531 1.09617265-.0096055-.86093734.3566066-1.65500577.5150984-2.37981709-.5054928.18866588-1.0193906.45614156-1.5128765.69257095-.7984626-.45852973-1.6389495-.91705947-2.4914434-1.26215086-.079246-.03462855-.248544-.06806301-.2149246.07642162.730023.52539866.4478595 1.50813296.5259047 2.25802013l-.4610671-.37852585c-.2245301-.57077399-.8741064-.98392839-.9845704-1.61082451-.7648432.14567872-1.2535263.34747957-1.9619367.64958379l-.0984571.05492804c.5271054 0 .9761656.4131544 1.2355159.8263088-.797262.04537534-1.5056724-.26866977-2.2909273-.34509139-.079246-.0788098-.1452842-.16836639-.2713573-.15642551-.3938281.14567872-.7288222.42509528-1.0782247.69376504-.7744486.75824579-1.562105 1.59888364-1.9319193 2.60311152.2593503.04537534.5847388.03462855.7756494.19105406-.4250462.25672889-.7972619.69257095-1.21390326.93855305-.14528418.58152079-.12367165 1.24065728-.15729113 1.87830019-.32538852.49077015-.76364244.92661215-.97736626 1.47350445-.69640348 2.2460792-.87650783 4.7381406-.7744487 7.286324-.22573078.2113536-.51870052.3486737-.73002295.5146519l.02281322 2.2795137h.055232c.10325982-.4812174.67599165-.7486931 1.02299269-1.0722909h.11286539c-.055232.5134578-.12367165 1.0269156-.13447791 1.5535083l-.65197774.5361455c-.64957635.5695799-.09965774 1.428129-.15729113 2.1433877.04682713.191054.07804522.4704706.21612522.5158459.07684452-.2794165.32418782-.4812174.48027826-.7260054.28096278-.0692571.52710539-.2913574.78525495-.3247919-.14288278.557639-.33499408 1.1057254-.56192556 1.6418708-.10686191.0704512-.23413565.1671723-.34219826.2794166-.11406609.122991-.20531896.2638934-.22693148.4155425.22639256 1.1889888.58164343 2.4470661 1.06575259 3.774232h-3.55874184c-1.78303748 0-2.42960996-.1856512-3.08146181-.5342654s-1.163429-.8601913-1.51204318-1.5120432c-.34861419-.6518518-.53426541-1.2984243-.53426541-3.0814618v-19.7444592c0-1.78303748.18565122-2.42960996.53426541-3.08146181.34861418-.65185185.86019133-1.163429 1.51204318-1.51204318.65185185-.34861419 1.29842433-.53426541 3.08146181-.53426541h19.7444592c1.7830375 0 2.42961.18565122 3.0814618.53426541.6518519.34861418 1.163429.86019133 1.5120432 1.51204318s.5342654 1.29842433.5342654 3.08146181zm0 9.2790056v2.2559696l-.40651.1286083zm0 5.5933024v.7749472c-1.374381-.729348-2.9254612-1.1914818-4.5501106-1.2838391-.012007.3247919-.079246.6161494-.1368794.9182536 1.5068731.6364488 2.954912 1.4508167 4.2588675 2.6031115l-.0540313.9397471c-1.3735958-1.1522947-2.8096278-2.3917579-4.4749927-2.9529792-.2233294.3247919-.469472.6830182-.7852549.9946752-.9317399-.5910735-1.8766873-1.1379658-2.9441058-1.3970828-.4610671.1014974-.485081-.3785259-.5619255-.6698833l-.0768445-.6471956c.6171575-.1791132.9209335-.7928744 1.0998372-1.3421548.2257307.1014975.5054928.2471762.7528361.1134384.2365371-.1552314.2149246-.4131544.248544-.6483897-.2377377-.8048152-1.2271109-.7701867-1.9115074-.8609374-.9209336-.0668689-1.8658811-.0441812-2.5947033.4036017-.2269315.1659782-.1128654.5015169-.1020592.7236173.0780453.1803072.248544.2256826.426247.2686697.2149245-.0083586.4154407-.0656748.595545-.1540373-.0456264.6137612.303776 1.1379657.8308814 1.4400699.0564327-.0107467.0804466.0346286.1116647.0573163l-.1897099 1.0173628c-.2689558.4907701-.9329405.2674757-1.3483812.5134578-.7864557.2006068-1.5296863.5242046-2.2140828.9612407-.4046344-.2221003-.7192167-.6042084-1.0241934-.9612407-1.1334567.4131544-2.1672556 1.0496032-3.1554281 1.7994904l-1.0241934.8263088c-.1008585-.2913575-.0336195-.692571-.055232-1.0376624 1.1442629-1.1403539 2.6067102-1.5415674 3.9418838-2.2353324l-.055232-.9636289c-.4850811-.1337379-1.0566122-.0083586-1.5621051.0226876-1.1802838.2137418-2.2465015.692571-3.2358747 1.3421548.0336194-.3474796-.1236717-.8382497.2353363-1.0173629 1.4048139-.7928743 2.966919-1.2287164 4.7211353-1.1737883.0336195-.0895566.0216125-.3009102-.0576334-.4024076-.1224709-.2221004-.0540313-.5695799-.347001-.6698833-.8164731-.801233-1.3207652-1.7373978-1.4816585-2.8049124h.0144084c.0876508.053734.205319.0334345.3109802.0334345 0 0 .0360208-.0298522.0360208-.0334345 0 .0035823.0180105-.0119409.0180105-.0119409-.3253885-1.1176662-.3253885-2.4347451 0-3.5404704-.6843965-.2913575-1.4936654-.8621315-1.751815-1.58813688-.2929697-.48241149-.5391123-.98392839-.6195589-1.5535083.2617516-.69257095.6423721-1.32901978 1.0458059-1.9559159.2245301-.13373784.4934859-.16836639.7312236-.26747568.5391124-.34509139 1.1118442-.86093734 1.8310609-.53614545.469472.10030338.8981203.32240372 1.3820007.40240761 0 .2459821.0540313.52539865.3121809.61614933.7312236.12179696.8236772.99467518 1.2499241 1.47350441.2917691.22329443.7516355.07761571 1.1562699.1576196.5511193.15642551 1.1214498.22210034 1.5957246.5695799.887314-.62570203 2.0892104-.74869308 3.2010546-.59226757.1128653-.45852974.3049766-.90631268.4622678-1.31946708.2809628.01194088.1224709-.32240372.3806205-.36777906.5967457-.37971993 1.2367165-.94929984 2.0699993-.66988328.6291645.29016335 1.4600459.22210034 1.921113.80362112l-.0336194.02268767c.5847387.52539866.7084104 1.28603262 1.1118441 1.91054057-.303776.79406842.012007 1.85441839-.8080681 2.41325159l-.6183583.5361454.0228132.0238818c-.2353363.1337378-.5054929.1791131-.7516355.2674756.371015.9731816.1464849 2.1696577-.3265892 3.0282068.2701565-.0537339.5955451-.122991.8092689-.4012135.0648376.1815014.0144083.3868845-.0444257.5791326-.024014.068063-.0468272.136126-.0660383.2018009.1572911.7809334-.5054929 1.3517074-.9677607 1.875912-.2149245.8072034-.8536946 1.7338156-1.7530156 1.8783002-.012007.1003034.0096055.2459821.0792459.3462855 1.7024563.0197508 3.2731081.4831545 4.7194087 1.2002687zm-2.5709369 9.3867509c-.2913549.1055233-.6294911.1838207-1.0883448.233423-.2510831-.0345659-.4808842-.1329342-.6386829-.3375454-.6964034-1.0257214-.220928-2.1553286.1716995-3.1034343.248544.7009296.4070358 1.4520108.4838804 2.2233916.1245056.4002053.786265.6325472 1.0714478.9841651zm-3.234119.2968114h-.6392903c-.4432314-.2063985-.8497177-.4780051-.7605025-.9812605.3157829-.4107662.6651854-.6686892 1.0001794-1.0710968.0776129.6736213.1814569 1.4053065.3996134 2.0523573zm-2.9880531 0h-.8364701l-.1399555-.6337809c.5415137-.2459821.8020647-.5588331 1.2511248-1.0722909.0141272.6085638-.0426533 1.1960639-.2746992 1.7060718zm-2.4469755 0h-.2688773c-.5826914-.536463-1.1139257-1.205428-1.1338375-1.9735475.3494024.2209063.8200751.1994127 1.1574706.4239012.0573091.4922184.2421175 1.0464868.2452442 1.5496463zm-1.3799016-5.2489305c-.4850811-.6054025-.6423722-1.4436522-.5187005-2.2007039 1.8430678-.9492998 4.2912862-.8263088 6.2003923-.2125476.2269315.1683664.5187005.1683664.7084104.4239012-.153689.8955659-.4262469 1.7553091-1.077024 2.4144456-.1584918-.3594204-.4382539-.7045118-.5967457-1.0400505-.2809628-.0119409-.0540313.2352353-.1572911.3701672-.0648376.3892727-.2125232.7355581-.1897099 1.1594593-.3806206.1803073-.8308814.3140451-1.3267687.2913575-.0216126-.1576196-.0528306-.37972-.0756439-.5588331-.1921113-.3224038-.1704987-.7355582-.2473433-1.1057254l-.0792459-.0764216c-.2461426.1659782-.1680974.5122637-.291769.7463049-.1464849.2901633-.4046345.5265927-.4394546.8609373-.4274477-.0238817-.8296807-.122991-1.1550692-.4250952l.055232-1.2406573c-.0324188-.0429872-.0768446-.053734-.134478-.053734zm-4.9336584 2.1457759c-.0996578-.5050992-.2461426-1.0173628-.1921113-1.5535083.3373954.1659782.7312236.37972 1.0566121.692571l.0228133.2686697c.4166413.8024271 1.2259102 1.4508168 1.3255679 2.3905639-.8633001-.2364294-1.7073892-1.0615441-2.212882-1.7982963zm2.6175165-1.0173628 1.1802838.748693-.1332772 1.6657526c-.5054929-.7486931-.8777085-1.5415674-1.0470066-2.4144456zm12.2723102 1.4185763c-.3830219-.5922675-.359008-1.3409606-.5391123-2.012038.5391123.5134578 1.6401502.5934617 1.5272848 1.5881368.0216126.5242046.4622679.9146713.8428884 1.2860327-.7420299.1456787-1.3940077-.2913575-1.8310609-.8621315zm-17.96720968-11.6101162c.02161252-.6149552.2461426-1.1296071.51509843-1.6430649l1.02299265-.3140451-.4814789.7164528c.1128654 1.1606533-.4178421 2.1123414-.4058351 3.2526953zm.43825391-3.4867365.02161252-.9182536c.29176905-.2985219.49228525-.68063.86570155-.9039245v1.3087203zm4.22404727-5.74356257c-1.0686191.23284713-1.3928069 1.37320103-1.5633057 2.2807078.181305.96004663 1.2715367.65913649 1.8094483 1.20602873.7084105-.71525862 1.5621051-1.18334106 2.4518205-1.53082063-.0816473-1.26215086-1.4972674-1.48544529-2.3713739-1.92128735zm.8440891 5.66714097-.1692981.040599c.1584918.3247919.5271054.5695799.8428883.7260054.0696404.3331505.359008.5349513.5955451.7809334.3157829.1791132.6855972.1564255 1.0446052.0800039.1789036.0119409.291769-.4812174.4034337-.1110501-.0084048.4907701.2713572 1.0949785-.0204118 1.563061.0900522.9719875-1.0458059.8286969-1.4840598 1.4424581-.315783.3140451-.3470011.8848191-.1704988 1.2633449.4046344-.1898599.7768501-.434648 1.1922908-.557639.1128654-.5015169.5631262-.883625 1.0241934-1.0722909.055232-1.2394632.4250462-2.391758.4598664-3.5989808-.1248724-.257923-.3938282-.4800233-.6507771-.5910735-1.0566121.0883625-2.0447846-.0561221-3.0677773.0346286zm3.2010546-2.0466666c-.3698143.2018008-.7960612.5349514-.9653593.9385531l1.5392918.0334344c.2809628-.4477829.5727318-.9266122.9425461-1.2967794-.5162992-.15403733-1.0349997.16836639-1.5164786.3247919zm4.5062107-.36777906c-.2569488-.03462855-.5847387-.06806301-.832082.02029949-.110464.04418126-.0216126.1779191.0228132.2459821.7984626-.05612213.4706727.81556197.9773662 1.09497857.3818212-.0871684.8753072-.0226877 1.2139033-.1564255.0576334-.2018009-.0888514-.3247919-.1921113-.4585298-.5847388-.0310462-.5499186-.85735503-1.1898894-.74630486zm-.4046344 2.99238416-.1320765.0573162c.1789036 1.0615441.2005162 2.1792103.303776 3.275383.3686135.3009101 1.0313975.6603306 1.077024 1.2609568.5150984.1803072 1.0001795.4477829 1.4264264.8609373.2689558-.312851.5162991-.6245079.6399708-.9946752-.5271054-.570774-1.7410087-.2913574-1.751815-1.318273l-.6964034-.4585297c-.1248724-.6364488-.0804466-1.3290198-.2497447-1.9559159l.1344779-.1337378c.0804466.1898599.2713572.3570322.4394546.4812174.4826796.0656748 1.0902316.2567289 1.506873-.1564255.2689559-.1910541.2353364-.638837.6171576-.6495838.1572911-.1552315.4166414-.2006068.595545-.3689732 0-.1337378.2365371-.2340412.1128654-.3474795l-2.9104862-.053734c-.4046345.0776157-.8320821.1098561-1.1130449.5015169zm3.4832181-5.76386207c-.5391124.31165693-.7084104.83705559-.8657016 1.37439512.9773663.47763514 2.0339785 1.41857637 2.4037927 2.46817955h.0468271c.2461426-.5361454.9089266-.2018008 1.2127026-.5361454.1921114-.84899646.2581496-1.87710611-.1572911-2.63654598-.5283061-.38091402-1.0662177-.71525862-1.6401502-.9827343zm-9.5503332 12.46866537c.0108062.1910541-.1464849.638837.1332772.7045118l.7540369-.3450914c.1909106-.0453753.4286483-.1110501.5162991-.2686697-.4154407-.2364294-.923335-.0214936-1.4036132-.0907507zm7.1237273.1910541c-.0792459-.0107468-.2017169.0226876-.1704988.1337378l1.3507826.5695799.1692981-.7033177z" fill="#fff" fill-rule="evenodd" transform="translate(7 7)"/></svg>