<svg height="44" viewBox="0 0 44 44" width="44" xmlns="http://www.w3.org/2000/svg" xmlns:xlink="http://www.w3.org/1999/xlink"><defs><path id="a" d="m5.1277704 0h19.7444592c1.7830375 0 2.42961.18565122 3.0814618.53426541.6518519.34861418 1.163429.86019133 1.5120432 1.51204318s.5342654 1.29842433.5342654 3.08146181v19.7444592c0 1.7830375-.1856512 2.42961-.5342654 3.0814618-.3486142.6518519-.8601913 1.163429-1.5120432 1.5120432-.6518518.3486142-1.2984243.5342654-3.0814618.5342654h-19.7444592c-1.78303748 0-2.42960996-.1856512-3.08146181-.5342654s-1.163429-.8601913-1.51204318-1.5120432c-.34861419-.6518518-.53426541-1.2984243-.53426541-3.0814618v-19.7444592c0-1.78303748.18565122-2.42960996.53426541-3.08146181.34861418-.65185185.86019133-1.163429 1.51204318-1.51204318.65185185-.34861419 1.29842433-.53426541 3.08146181-.53426541z"/><mask id="b" fill="#fff"><use fill="#fff" fill-rule="evenodd" xlink:href="#a"/></mask></defs><g fill="none" fill-rule="evenodd" transform="translate(7 7)"><use fill="#fff" xlink:href="#a"/><g mask="url(#b)"><g transform="translate(7 2)"><path d="m29.7313608 29.9798142v-9.9798142c-.2319579-.4554181-.3631457-.9247309-.3935633-1.4079385l.0576334-.0561221c.359008.1110502.6735903.2901634.9977781.4812174-.1464849-.8716841-.3133816-1.7326215-.7516355-2.4920613-.4046344-.1683664-.8116703-.3009102-1.1922908-.5039051-.4382539-.2901633-.7192167-.815562-.7840542-1.2967794.3914267.3821081 1.077024.2471762 1.3808.6495838-.5271054-1.5535083-.5391124-3.330311-1.404814-4.7500815-.4382539-1.05079731-1.5849182-1.53082062-2.3713739-2.30339547-.303776-.36777905-.4262469-.88123683-.9773662-.93855305-.4490602-.11105017-.4838804-.61495524-.5619256-.93735896.2809628.03224037.5162991.22329443.7540369.26747568-.6531784-1.72187469-1.2259103-3.63122116-2.9897322-4.72619973l-.303776.18866588c-.6843965.10269156-1.4156202.14567872-2.1012174.16836639.303776-.44778294.8428884-.63644882 1.270336-.83944376-.4958873-.36777906-.9017224-.45733565-1.5212814-.55883311-.359008.35942044-1.0073836.53614544-1.4684507.63644882l-.055232-.04298716c-.012007-.40121352-.1056613-.89556589.5018907-.99467518-.583538-.27941656-1.550098-.16836639-2.1468438 0-.1692981.43584206-.6483756.82630879-.6171575 1.33976657-.3458004.35942044-.5931437.83824967-.9545531 1.09617265-.0096055-.86093734.3566066-1.65500577.5150984-2.37981709-.5054928.18866588-1.0193906.45614156-1.5128765.69257095-.7984626-.45852973-1.6389495-.91705947-2.4914434-1.26215086-.079246-.03462855-.248544-.06806301-.2149246.07642162.730023.52539866.4478595 1.50813296.5259047 2.25802013l-.4610671-.37852585c-.2245301-.57077399-.87410643-.98392839-.98457043-1.61082451-.76484313.14567872-1.25352626.34747957-1.96193669.64958379l-.09845704.05492804c.52710539 0 .97616556.4131544 1.23551582.8263088-.79726191.04537534-1.50567235-.26866977-2.2909273-.34509139-.07924591-.0788098-.14528417-.16836639-.27135722-.15642551-.39382817.14567872-.72882226.42509528-1.07822469.69376504-.77444869.75824579-1.56210504 1.59888364-1.9319193 2.60311152.25935026.04537534.58473878.03462855.77564939.19105406-.42504626.25672889-.79726191.69257095-1.2139033.93855305-.14528418.58152079-.12367165 1.24065728-.15729113 1.87830019-.32538852.49077011-.76364244.92661218-.97736626 1.47350441-.69640348 2.24607924-.87650782 4.73814064-.77444869 7.28632404-.22573079.2113536-.51870053.3486737-.73002296.5146519l.02281322 2.2795137h.055232c.10325982-.4812174.67599165-.7486931 1.02299269-1.0722909h.11286539c-.055232.5134578-.12367165 1.0269156-.13447791 1.5535083l-.65197774.5361455c-.64957635.5695799-.09965774 1.428129-.15729113 2.1433877.04682713.191054.07804522.4704706.21612522.5158459.07684452-.2794165.32418782-.4812174.48027826-.7260054.28096278-.0692571.52710539-.2913574.78525495-.3247919-.14288278.557639-.33499408 1.1057254-.56192556 1.6418708-.10686191.0704512-.23413565.1671723-.34219826.2794166-.11406609.122991-.20531896.2638934-.22693148.4155425.33619478 1.7656579.9565542 3.6836733 1.86107826 5.7540462h11.35932299z" fill="#f60"/><path d="m10.3800139 22.7510695c-.48508105-.6054025-.64237218-1.4436522-.51870053-2.2007039 1.84306783-.9492998 4.29128623-.8263088 6.20039233-.2125476.2269315.1683664.5187005.1683664.7084104.4239012-.153689.8955659-.4262469 1.7553091-1.077024 2.4144456-.1584918-.3594204-.4382539-.7045118-.5967457-1.0400505-.2809628-.0119409-.0540313.2352353-.1572911.3701672-.0648376.3892727-.2125232.7355581-.1897099 1.1594593-.3806206.1803073-.8308814.3140451-1.3267687.2913575-.0216126-.1576196-.0528306-.37972-.0756439-.5588331-.1921113-.3224038-.1704987-.7355582-.2473433-1.1057254l-.0792459-.0764216c-.2461426.1659782-.1680974.5122637-.291769.7463049-.1464849.2901633-.4046345.5265927-.4394546.8609373-.4274477-.0238817-.8296807-.122991-1.1550692-.4250952l.055232-1.2406573c-.0324188-.0429872-.0768446-.053734-.134478-.053734zm-4.93365843 2.1457759c-.09965774-.5050992-.24614261-1.0173628-.19211131-1.5535083.33739548.1659782.73122365.37972 1.05661217.692571l.02281322.2686697c.41664139.8024271 1.22591026 1.4508168 1.325568 2.3905639-.86330017-.2364294-1.70738922-1.0615441-2.21288208-1.7982963zm2.61751651-1.0173628 1.18028383.748693-.13327722 1.6657526c-.50549287-.7486931-.87770852-1.5415674-1.04700661-2.4144456zm3.68373422 4.3464797c-.6735902-.5695799-1.3675923-1.319467-1.3904055-2.1995098.3494024.2209063.8200751.1994127 1.1574706.4239012.0660382.5671917.3013746 1.2167755.2329349 1.7756086zm1.4828592-.8597432c.5415137-.2459821.8020647-.5588331 1.2511248-1.0722909.0228132.9827343-.1392807 1.9105406-.9257363 2.5457953zm4.102777.9946752c-.4946866-.3140451-1.684576-.515846-1.5380911-1.3421548.3157829-.4107662.6651854-.6686892 1.0001794-1.0710968.0924536.8024271.2221287 1.6872462.5379117 2.4132516zm1.368793-.7618281c-.6964034-1.0257214-.220928-2.1553286.1716995-3.1034343.248544.7009296.4070358 1.4520108.4838804 2.2233916.1344779.4322598.8957189.6686892 1.132256 1.0710968-.4946866.1576196-1.3808.3367328-1.7878359-.1910541zm1.6341468-2.3010073c-.3830219-.5922675-.359008-1.3409606-.5391123-2.012038.5391123.5134578 1.6401502.5934617 1.5272848 1.5881368.0216126.5242046.4622679.9146713.8428884 1.2860327-.7420299.1456787-1.3940077-.2913575-1.8310609-.8621315zm2.718375-1.0710968c.2701565-.2364294.6063513-.5158459.9209335-.6149552l1.1238512.938553v.0788098c-.730023-.0226876-1.5284856.2340413-2.0447847-.4024076zm-20.68558468-10.5390194c.02161252-.6149552.2461426-1.1296071.51509843-1.6430649l1.02299269-.3140451-.48147895.7164528c.11286539 1.1606533-.41784209 2.1123414-.40583513 3.2526953zm.43825391-3.4867365.02161252-.91825356c.29176904-.29852196.49228522-.68063007.86570156-.9039245v1.30872029zm18.22535927 2.0335316c.0648376.1815014.0144083.3868845-.0444257.5791326-.024014.068063-.0468272.136126-.0660383.2018009.1572911.7809334-.5054929 1.3517074-.9677607 1.875912-.2149245.8072034-.8536946 1.7338156-1.7530156 1.8783002-.012007.1003034.0096055.2459821.0792459.3462855 1.8526734.0214935 3.5492563.5683858 5.0993544 1.3958887l.0228132.8036211c-1.4708522-.8585492-3.1674351-1.4066355-4.9528695-1.508133-.012007.3247919-.079246.6161494-.1368794.9182536 1.5068731.6364488 2.954912 1.4508167 4.2588675 2.6031115l-.0540313.9397471c-1.3735958-1.1522947-2.8096278-2.3917579-4.4749927-2.9529792-.2233294.3247919-.469472.6830182-.7852549.9946752-.9317399-.5910735-1.8766873-1.1379658-2.9441058-1.3970828-.4610671.1014974-.485081-.3785259-.5619255-.6698833l-.0768445-.6471956c.6171575-.1791132.9209335-.7928744 1.0998372-1.3421548.2257307.1014975.5054928.2471762.7528361.1134384.2365371-.1552314.2149246-.4131544.248544-.6483897-.2377377-.8048152-1.2271109-.7701867-1.9115074-.8609374-.9209336-.0668689-1.8658811-.0441812-2.5947033.4036017-.2269315.1659782-.1128654.5015169-.1020592.7236173.0780453.1803072.248544.2256826.426247.2686697.2149245-.0083586.4154407-.0656748.595545-.1540373-.0456264.6137612.303776 1.1379657.8308814 1.4400699.0564327-.0107467.0804466.0346286.1116647.0573163l-.1897099 1.0173628c-.2689558.4907701-.9329405.2674757-1.3483812.5134578-.7864557.2006068-1.5296863.5242046-2.21408279.9612407-.40463443-.2221003-.71921669-.6042084-1.02419339-.9612407-1.13345669.4131544-2.16725564 1.0496032-3.15542816 1.7994904l-1.02419339.8263088c-.10085844-.2913575-.03361948-.692571-.055232-1.0376624 1.14426295-1.1403539 2.60671025-1.5415674 3.94188382-2.2353324l-.055232-.9636289c-.48508105-.1337379-1.05661218-.0083586-1.56210504.0226876-1.18028383.2137418-2.24650156.692571-3.23587478 1.3421548.03361948-.3474796-.12367165-.8382497.23533635-1.0173629 1.40481391-.7928743 2.96691895-1.2287164 4.72113529-1.1737883.03361948-.0895566.02161252-.3009102-.05763339-.4024076-.12247096-.2221004-.0540313-.5695799-.34700104-.6698833-.81647304-.801233-1.32076522-1.7373978-1.48165843-2.8049124h.01440834c.08765079.053734.20531896.0334345.31098018.0334345 0 0 .03602087-.0298522.03602087-.0334345 0 .0035823.01801043-.0119409.01801043-.0119409-.32538852-1.1176662-.32538852-2.4347451 0-3.54047044-.68439652-.29135743-1.49366539-.86213143-1.75181495-1.58813684-.29296974-.48241149-.53911235-.98392839-.61955896-1.5535083.26175166-.69257095.64237218-1.32901978 1.04580592-1.9559159.22453008-.13373784.49348591-.16836639.73122365-.26747568.53911234-.34509139 1.11184417-.86093734 1.83106086-.53614545.469472.10030338.89812035.32240372 1.38200069.40240761 0 .2459821.05403131.52539865.31218087.61614933.73122365.12179696.82367725.99467518 1.24992415 1.47350441.2917691.22329443.7516355.07761571 1.1562699.1576196.5511193.15642551 1.1214498.22210034 1.5957246.5695799.887314-.62570203 2.0892104-.74869308 3.2010546-.59226757.1128653-.45852974.3049766-.90631268.4622678-1.31946708.2809628.01194088.1224709-.32240372.3806205-.36777906.5967457-.37971993 1.2367165-.94929984 2.0699993-.66988328.6291645.29016335 1.4600459.22210034 1.921113.80362112l-.0336194.02268767c.5847387.52539866.7084104 1.28603262 1.1118441 1.91054057-.303776.79406842.012007 1.85441843-.8080681 2.41325155l-.6183583.53614544.0228132.02388176c-.2353363.13373784-.5054929.17911318-.7516355.26747568.371015.97318156.1464849 2.16965766-.3265892 3.02820676.2701565-.0537339.5955451-.122991.8092689-.4012135zm-14.00131198-7.77709417c-1.06861912.23284713-1.39280695 1.37320103-1.56330573 2.2807078.18130504.96004663 1.27153669.65913649 1.80944834 1.20602873.70841043-.71525862 1.56210504-1.18334106 2.45182052-1.53082063-.08164731-1.26215086-1.49726748-1.48544529-2.37137391-1.92128735zm.84408904 5.66714097-.16929808.040599c.15849182.3247919.52710539.5695799.84288834.7260054.06964035.3331505.359008.5349513.59554505.7809334.31578295.1791132.68559721.1564255 1.04460523.0800039.1789036.0119409.291769-.4812174.4034337-.1110501-.0084048.4907701.2713572 1.0949785-.0204118 1.563061.0900522.9719875-1.04580592.8286969-1.48405983 1.4424581-.31578295.3140451-.34700104.8848191-.17049878 1.2633449.40463443-.1898599.77685008-.434648 1.19229081-.557639.1128654-.5015169.5631262-.883625 1.0241934-1.0722909.055232-1.2394632.4250462-2.391758.4598664-3.5989808-.1248724-.257923-.3938282-.4800233-.6507771-.5910735-1.05661212.0883625-2.04478464-.0561221-3.06777734.0346286zm3.20105464-2.0466666c-.3698143.20180085-.7960612.53495136-.9653593.93855305l1.5392918.03343446c.2809628-.44778294.5727318-.92661217.9425461-1.29677941-.5162992-.15403733-1.0349997.16836639-1.5164786.3247919zm4.5062107-.36777906c-.2569488-.03462855-.5847387-.06806301-.832082.02029949-.110464.04418126-.0216126.1779191.0228132.2459821.7984626-.05612213.4706727.81556201.9773662 1.09497856.3818212-.08716841.8753072-.02268767 1.2139033-.1564255.0576334-.20180085-.0888514-.3247919-.1921113-.45852974-.5847388-.03104628-.5499186-.85735508-1.1898894-.74630491zm-.4046344 2.99238416-.1320765.0573162c.1789036 1.0615441.2005162 2.1792103.303776 3.275383.3686135.3009101 1.0313975.6603306 1.077024 1.2609568.5150984.1803072 1.0001795.4477829 1.4264264.8609373.2689558-.312851.5162991-.6245079.6399708-.9946752-.5271054-.570774-1.7410087-.2913574-1.751815-1.318273l-.6964034-.4585297c-.1248724-.6364488-.0804466-1.3290198-.2497447-1.9559159l.1344779-.1337378c.0804466.1898599.2713572.3570322.4394546.4812174.4826796.0656748 1.0902316.2567289 1.506873-.1564255.2689559-.1910541.2353364-.638837.6171576-.6495838.1572911-.1552315.4166414-.2006068.595545-.3689732 0-.1337378.2365371-.2340412.1128654-.3474795l-2.9104862-.053734c-.4046345.0776157-.8320821.1098561-1.1130449.5015169zm3.4832181-5.76386207c-.5391124.31165693-.7084104.83705559-.8657016 1.37439512.9773663.47763514 2.0339785 1.41857637 2.4037927 2.4681796h.0468271c.2461426-.53614545.9089266-.20180085 1.2127026-.53614545.1921114-.84899646.2581496-1.87710611-.1572911-2.63654598-.5283061-.38091402-1.0662177-.71525862-1.6401502-.9827343zm-9.55033321 12.46866537c.01080626.1910541-.14648487.638837.13327722.7045118l.75403686-.3450914c.19091063-.0453753.42864833-.1110501.51629913-.2686697-.4154407-.2364294-.92333495-.0214936-1.40361321-.0907507zm7.12372731.1910541c-.0792459-.0107468-.2017169.0226876-.1704988.1337378l1.3507826.5695799.1692981-.7033177zm6.3588841-2.4908673.4610672-2.704609c.2701565.5922676.8212758 1.1511007.5631262 1.9009879l-.1032598.5122637zm2.3257475 3.5404705c.012007-.4131544-.043225-.9266122.0444257-1.3409607.193312.2686698.2701566.6042085.5739326.8048152.4034337-.2352353.4730741.4358421.6747909.6698833.110464.2901634.2905684.5588331.3482018.883625-.7756494.2340412-1.2030971-.5361454-1.641351-1.0173628zm.1572911 3.2741889c.4622679-.0991093.9341413-.4012136 1.3735959-.0573162.3698142.3259859.6051506.7725748.997778 1.0185569-.3133815.2113535-.528306-.1564255-.8633001-.0776157-.3722157.0322404-.8224765.0656748-1.1262525-.1337379-.165696-.2125476-.2125232-.5158459-.3818213-.7498871z" fill="#fff"/></g></g></g></svg>