<svg height="44" viewBox="0 0 44 44" width="44" xmlns="http://www.w3.org/2000/svg"><g fill="none" transform="translate(7 7)"><path d="m30 0h-30v30h30zm-2 28h-26v-26h26z" fill="#e98a42"/><path d="m25.6 8.3c-3.4 0-21.6-1-21.6.2 0 .1 14.5.1 16.5.3.6.4 6.3.6 5.1-.5" fill="#deb630"/><path d="m18.1 19.1c.1-.6 0-1.3 0-1.9-.1-1.4.1-3.3-.7-4.5s-2-1-3.1-1c-1.1.1-1.9 1.6-2 1.9-.2.5-.2 1-.2 1.6 0 .3-.1.7-.2 1 0 .2.1.6 0 .8.1.3.2 1-.1 1.1.4.5-.1 1.2.2 1.7.1.2 0 .5 0 .6-.1.3.1 1.6.5 1 .2-.3 0-1.1 0-1.5 0-1.6-.1-3.2.1-4.8.1-1.1.2-2 1.2-2.7.3-.2.7-.3 1-.3s.9.1 1.1 0c.2.2.5.2.7.4.2.1.4.5.4.6.1.3.4 1 .4 1.4.1.6 0 1.4.1 2 0 .7.1 1.2.1 1.7 0 .3.1.5 0 .8 0 0-.1 2.3.1 2.4h.5c.1-.4.1-.7 0-1.1-.2-.2 0-1-.1-1.2" fill="#008652"/><path d="m25.5 19.2c.1-.6 0-1.3 0-1.9-.1-1.4.1-3.3-.7-4.5s-2-1.1-3.1-1c-1.4.2-1.9 1.5-2 1.9-.2.5-.2 1-.2 1.6 0 .3-.1.7-.2 1 0 .2.1.6 0 .8.1.3.2 1-.1 1.1.1.1.1.2.2.3.2.4-.1 1.1.1 1.4.1.2 0 .5 0 .6-.1.3.1 1.7.5 1 .2-.4 0-1.3 0-1.8 0-1.5-.1-3.1.1-4.6.1-1.1.3-2 1.3-2.6.3-.2.5-.2.9-.3.3 0 .9.1 1.1 0 .1.2.3.2.5.3.3.2.5.5.6.7.1.3.3.7.3 1 0 .2.2 2 .2 2 0 .1-.1.1 0 .2 0 .2-.1.8 0 .9-.1.2-.1.5.1.8 0 .2 0 .7-.1.9s.1.2.1.2c0-.1-.1.1-.1.2 0 .2.1 1.1 0 1.3 0 .1 0 .8.2.9.2 0 .3-.1.5 0 .1-.4.1-.7 0-1.1-.2-.3 0-1-.2-1.3" fill="#e98a42"/><path d="m10.5 19.1c.2-1 0-2.4-.1-3.5-.1-1.5-.3-3.1-1.8-3.8-.9-.4-2.3-.3-3.1.4-.4.2-.8 1.1-.9 1.4-.2.5-.2.9-.3 1.5 0 .3-.1.7-.1 1 0 .2.1.6 0 .8.1.3.2 1-.1 1.1.4.5-.1 1.2.2 1.7.1.2 0 .5 0 .6-.1.3.1 1.6.5 1 .2-.3 0-1.1 0-1.5 0-1.6-.1-3.2.1-4.8.1-1.1.2-2 1.2-2.7.3-.2.7-.3 1-.3s.9.1 1.1 0c.3.3.7.3 1 .8.1.2.2.6.3.9.1.4.2.8.2 1.2.1.8.3 1.9.1 2.6.1-.1.1.8.1.9 0 .2.1.6-.1.6 0 .3.1 1.3 0 1.5 0 .1 0 .8.2.9h.5c0-.3.1-.7.1-1-.1-.2.1-1-.1-1.3" fill="#006ca5"/></g></svg>