<svg height="44" viewBox="0 0 44 44" width="44" xmlns="http://www.w3.org/2000/svg"><g fill="none" fill-rule="evenodd" transform="translate(7 9)"><path d="m13.2360938.5770149c1.7660035-.99030369 4.0241835-.40261348 5.0437861 1.31264282l11.0769231 18.63447768c1.0196026 1.7152563.4145251 3.908546-1.3514784 4.8988497-1.7660036.9903037-4.0241835.4026135-5.0437861-1.3126428l-11.0769231-18.63447768c-1.0196026-1.7152563-.4145251-3.90854603 1.3514784-4.89884972z" fill="#0856a5"/><ellipse cx="15.264" cy="22.032" fill="#faae3c" rx="3.692" ry="3.586"/><path d="m17.0769231.5770149c1.7660035.99030369 2.371081 3.18359342 1.3514784 4.89884972l-11.07692309 18.63447768c-1.01960261 1.7152563-3.27778257 2.3029465-5.0437861 1.3126428s-2.37108103-3.1835934-1.35147842-4.8988497l11.07692311-18.63447768c1.0196026-1.7152563 3.2777825-2.30294651 5.0437861-1.31264282z" fill="#20a8e0"/><path d="m15.3056465.0967504c1.24855.02554322 2.4533722.66578141 3.1233715 1.79290732l.5201655.87506359c.240993.88382413.1362147 1.85678335-.3716439 2.71114331l-3.2718931 5.50423778-3.271893-5.50423778c-.5078586-.85435996-.6126369-1.82731918-.3716439-2.71114331l.5201655-.87506359c.6699993-1.12712591 1.8748214-1.7673641 3.1233714-1.79290732z" fill="#223c73"/></g></svg>