<svg height="44" viewBox="0 0 44 44" width="44" xmlns="http://www.w3.org/2000/svg"><path d="m20.7681542 24.1229577v-.3676352l.1603659.2758352zm0-2.8789636v-.7336724l.363822.4303924zm0-2.1268088v-.834292l.5870911-1.0094872 1.6463114.9442616-.9497766 1.63608-1.283667-.7365488zm0-8.7739856v-.83397237l1.283667-.7362292.9497766 1.63641317-1.6463115.9449008-.5871116-1.0111056zm0-2.22801997v-.7330944l.3629183.3027156zm0-3.24377v-.3673292l.1603659.0918-.1603659.2755156zm2.8343915-.5506504-1.0195945-.8502244-.8553604 1.0126424 1.0198478.8495852.8550934-1.0120032zm2.8802475 3.7650784-.666076-1.1453784-1.1522195.6612592.665453 1.14444 1.1528425-.66028zm-2.6085825-.6494-1.1000308-1.3015812-1.3113462 1.0919644 1.1003525 1.30288 1.3110519-1.0932428zm2.7070586 5.39586117 1.3100592-.2301528-.2308273-1.3009556-1.3103673.2289492.2311491 1.3021592zm-4.632566 1.0998456 1.8720521-.3289364-.3295567-1.8594124-1.8723738.3282904.3298784 1.8600516zm3.7158292-2.8249716-.5852426-1.59731997-1.6088627.58161757.5855713 1.5967556 1.6085066-.5810396zm.9167094 4.6871992-.232087 1.3021592 1.3113463.2299216.2314708-1.3031316-1.3107027-.2289492zm-2.7598704-.7702632-1.8726955-.3279708-.3311724 1.8600516 1.8736608.3276512.3302003-1.859732zm2.2605068-1.5601988h-1.7116998v1.6995512l1.7116998.0005644zm-1.4173532 7.5611784 1.1522195.66028.6667195-1.1444876-1.153486-.6615788-.665453 1.145766zm.9996925-3.5049104-1.6081781-.5812912-.5855712 1.59732 1.608178.580652.5855713-1.5966876zm-3.9365788 6.6234448.8560039 1.0126424 1.019526-.8486876-.8556822-1.0126424zm-.2647709-2.743732 1.3107027 1.0926036 1.1006743-1.3019144-1.3107027-1.0935012zm-1.8629945-19.63952877-1.2500315-.4519484-.4553423 1.24032 1.250675.4529684.4546988-1.2413332zm1.1683013 2.7437184v.3673292l-.696261 1.1969428-1.4815229-.8495852.856004-1.4718192zm0 2.8780048v.7330808l-.85916 1.01796-1.45574-1.2140856 1.2217566-1.4477676 1.0931434.910792zm0 2.127142v.83397237l-.3632401-.62530757.3632401-.2086716zm0 8.77366597v.834292l-.3638836-.2086036zm0 2.2274284v.7336724l-1.0931434.9108668-1.2217566-1.4455916 1.4563835-1.2140856zm0 3.2450008v.3676352l-1.322355.7584244-.855422-1.473356 1.4821459-.8502244.6956379 1.197514zm-12.95237117.3676352v-.3682744l.69563797-1.1968748 1.48182411.8502244-.85536038 1.4720776-1.3221017-.757146zm0-2.878644v-.7346312l.85793456-1.015138 1.45728721 1.2137524-1.22304366 1.446564-1.09217811-.91052zm0-2.1268088v-.8351896l.36421912.62628-.36421912.2089232zm0-8.7730268v-.83557717l.36421912.2089912zm0-2.22710877v-.7346448l1.09217811-.910792 1.22240016 1.4471284-1.45666425 1.2140652-.85793456-1.0157772zm0-3.2446812v-.3682744l1.3221017-.7574656.85536038 1.4718192-1.48185149.8495988-.69563798-1.1956644zm10.62085537.8886036-1.7859402-.64532-.6503913 1.774528 1.7865906.646544.6497067-1.7757384zm-1.2547965-2.8330364-1.6846366-.2958-.2974822 1.67484 1.6846367.2941952.2974821-1.6732624zm-5.7800684 22.76989517 1.6859238.2954736.2968386-1.6739016-1.6859101-.2941884-.2968386 1.6726232zm-2.41865451 1.1685256 1.25067501.452268.4557258-1.2427952-1.25041491-.4507312-.45595852 1.2412584zm2.95044871-3.35495.6500353-1.7757384-1.7874875-.6456464-.6503913 1.7750992 1.7878093.6462856zm5.9614933 2.5650008.4547604 1.2431896 1.2506751-.452268-.4553424-1.2422308-1.2501205.4513092zm-1.2443628-2.5646812 1.7865221-.6466052-.6502954-1.7750992-1.7874875.6462856zm-5.9612058-20.96267957-.4557257-1.2409524-1.24970978.4519484.45502059 1.2425504zm1.8940763 4.34112-.6500352-1.7742152-1.7878093.6450208.6503913 1.7757384 1.7874875-.646544zm1.043433 21.02287997h1.3305363v-1.322192h-1.3305363zm-.2861721-4.155548h1.9012922v-1.8881356h-1.9012717v1.8881356zm1.8588525.5619112.2968385 1.6739016 1.6849585-.2948344-.2971604-1.6732624zm-1.8151805-20.01239997-.2974821-1.67484-1.6859237.2958.2974821 1.6745408 1.6859237-.2954736zm1.5730364-3.5939632h-1.3305363v1.322192h1.3305363zm.2846044 4.15616h-1.9012923v1.8890944h1.9012923zm-7.42637991-.36516v.3682744l-.16068772-.2761548zm0 2.8783108v.7346448l-.36414381-.4313512.36414381-.30328zm0 2.1261832v.83557717l-.58678986 1.0098-1.64690026-.944826.95068036-1.63641317 1.28298238.7359096zm0 8.77340757v.8351896l-1.28298238.7362292-.95068035-1.63608 1.64689341-.9442616.58678986 1.0089364zm0 2.2273672v.7346312l-.36414381-.3035996zm0 3.2450008v.3682744l-.16068772-.0918.16068772-.2764812zm-2.83528836.5522552 1.02016953.84932.85536038-1.0126424-1.01952598-.8486876-.85600393 1.0120032zm-.27111047-3.1163584 1.10067428 1.3019144 1.31036727-1.0926036-1.09970896-1.302812-1.31134628 1.0935012zm-2.60826072-.6496788.66511066 1.1444876 1.1528425-.66028-.66545297-1.14512-1.15252073.66096zm3.01201678-2.0046876-.58550277-1.59732-1.60825332.5812912.58557123 1.5966876 1.60817802-.580652zm-3.11011633-2.7411276-1.31105189.2289492.23114906 1.3024924 1.31044258-.2299216-.23056713-1.30152zm4.63192239-1.099832-1.87205203.3289364.330522 1.859732 1.87269557-.3276512-.33117239-1.8610104zm-4.13343512.468826 1.71133692.0000136-.00064355-1.7001292h-1.71071391v1.7001292zm-.26792698-3.63324-1.31044258-.2295884-.2311696 1.3009692 1.31105189.2301528.23056714-1.30152zm2.52930322 2.072436 1.87205203.3289364.33117239-1.8600516-1.87270242-.3282904-.330522 1.8594124zm-1.84347589-2.4960624 1.60825333.5810396.58550277-1.598-1.60817802-.58097157-.58557123 1.59799997zm.99969248-3.50548837-1.15284251-.6612592-.66476835 1.1453784 1.1522195.66028.66545297-1.14444zm3.20136965-.3748636-1.3110519-1.0919644-1.10001019 1.3016084 1.31134628 1.0932428 1.09970896-1.30288zm-.2644491-2.7436708-.85536038-1.0126424-1.01953283.8502652.85536038 1.0126424z" fill="#f58220" transform="translate(8 8)"/></svg>