<svg height="44" viewBox="0 0 44 44" width="44" xmlns="http://www.w3.org/2000/svg"><g fill="none" fill-rule="evenodd" transform="translate(8 8)"><path d="m14.9592285 0c7.3888889.27222222 12.8659204 6.35444444 12.912587 13.8094444.0345501 7.6836221-6.1493641 13.9492468-13.8327778 14.0155556-7.68969882.0474746-13.96830939-6.1354785-14.03888884-13.825-.03414029-7.46181228 5.50612927-13.62989513 12.95883554-14l.0155555 3.955c-5.28409333.34928899-9.08214144 4.74942863-9.05827993 10.045.0226138 3.0133608 1.40626339 5.8549883 3.76444444 7.7311111l3.77999999-9.9555555-2.62499999.0194444s-.51722222-.105-.81277778.14l-.62222222.5988889s-.05055555-1.6411111.02333334-1.8122222c.07388888-.21.28388888-1.85500003 1.015-2.69500003.73888888-.80888889 1.91722225-.92166667 1.91722225-.92166667l8.4-.05833333-1.2133334 1.26388889 2.9166667 13.17555554c2.2189142-1.9085058 3.4872861-4.6955114 3.4688889-7.6222222-.0483608-5.27058132-3.7462699-9.60219288-9.0081426-9.9088889z" fill="#164785"/><path d="m11.9915966 8c.5462185 0 1.0084034.44639919 1.0084034.99993418 0 .54460701-.4453782.99993419-.9915966.99993419-.5546219.00892803-1.0084034-.43747121-1.0084034-.98207822 0-.56246298.4369748-1.00886217.9915966-1.01779015z" fill="#fff"/></g></svg>