<svg height="44" viewBox="0 0 44 44" width="44" xmlns="http://www.w3.org/2000/svg"><path d="m19.5200744 12.7511325v-1.7511325h4.9421347v5.7895274-3.9901621c0-.4080635 4.1857456-1.7993653 7.832286 0 3.6465403 1.7993653 5.2533883 6.4512714 4.5399427 10.2605217-.4756304 2.5395001-2.630843 5.4446031-6.4656378 8.7153088h3.9776784v2.2227282h-7.687765v-2.2227282c3.0108983-4.05119 4.8894922-6.7330212 5.6357817-8.0454937 1.1194342-1.9687089.4046051-7.6144601-3.2545373-8.2927659-3.6549057-.6775204-4.5756179 1.3478921-4.577745 1.3525831l-.0000037 17.2084047h-4.9421347v-17.2412984c-.142677-.2660299-1.1869774-1.9428863-4.5600322-1.3176133-3.6591424.6783058-4.3739715 6.324057-3.2545373 8.2927658.7462895 1.3124726 2.6248834 3.9943038 5.6357817 8.0454937v2.2227282h-7.68776498v-2.2227282h3.97767838c-3.83479477-3.2707057-5.99000735-6.1758086-6.46563776-8.7153088-.71344562-3.8092503.89340238-8.4611564 4.53994266-10.2605217 3.5085858-1.7312923 7.5163507-.5087673 7.8145695-.0503088z" fill="#fff" fill-rule="evenodd"/></svg>