<svg height="44" viewBox="0 0 44 44" width="44" xmlns="http://www.w3.org/2000/svg"><g fill="none" transform="translate(7 7)"><path d="m0 0h6v6h-6z" fill="#90d1f3"/><path d="m0 6h6v6h-6z" fill="#d3d800"/><path d="m6 6h6v6h-6z" fill="#88bd1f"/><path d="m12 0h6v6h-6z" fill="#003a69"/><path d="m18 0h6v6h-6z" fill="#90d1f3"/><path d="m18 6h6v6h-6z" fill="#009ee3"/><path d="m24 6h6v6h-6z" fill="#88bd1f"/><path d="m24 12h6v6h-6z" fill="#90d1f3"/><path d="m24 24h6v6h-6z" fill="#009ee3"/><path d="m18 18h6v6h-6zm-6-6h6v6h-6z" fill="#d3d800"/><path d="m12 24h6v6h-6z" fill="#88bd1f"/><path d="m6 12h6v6h-6z" fill="#90d1f3"/><path d="m6 18h6v6h-6z" fill="#009ee3"/><path d="m0 18h6v6h-6z" fill="#003a69"/><path d="m0 24h6v6h-6z" fill="#90d1f3"/></g></svg>