<svg height="44" viewBox="0 0 44 44" width="44" xmlns="http://www.w3.org/2000/svg"><path d="m15 30c-8.28427125 0-15-6.7157288-15-15 0-8.28427125 6.71572875-15 15-15 8.2842712 0 15 6.71572875 15 15 0 8.2842712-6.7157288 15-15 15zm0-1c7.7319865 0 14-6.2680135 14-14s-6.2680135-14-14-14-14 6.2680135-14 14 6.2680135 14 14 14zm-.9677419-15.3146973 3.8911115 3.1428463-5.3427244 5.171851h-6.89291681zm8.7096774.3469554v7.9677419h-8.7096774zm-15.48387098-4.35483875 3.12413368-2.9032258 3.1661889 2.9032258v2.90322585l-6.29032258 6.2903225zm7.74193548 0-2.9032258-2.9032258h6.7741935l3.3870968 2.9032258v3.38709675l-3.6390735 2.9032258-3.618991-2.9032258z" fill="#fff" transform="translate(7 7)"/></svg>