<svg height="44" viewBox="0 0 44 44" width="44" xmlns="http://www.w3.org/2000/svg"><g fill="none" fill-rule="evenodd" transform="translate(8 8)"><path d="m28 14c0 7.7583333-6.1967213 14-14 14-7.80327869 0-14-6.2416667-14-14 0-7.75833333 6.19672131-14 14-14 7.6885246 0 14 6.24166667 14 14" fill="#ed1d24"/><path d="m7.2 19.8333333c-.34285714 0-.68571429-.0583333-.91428571-.2333333-.91428572-.525-1.2-1.6916667-.68571429-2.5666667l4.5142857-7.87499997c.3428572-.58333333.9142857-.93333333 1.6-.93333333s1.2571429.35 1.6.93333333l2.9142857 4.95833337 2.9142857-4.95833337c.5142858-.93333333 1.7142858-1.16666666 2.5714286-.7.9142857.525 1.2 1.69166667.6857143 2.56666667l-4.5142857 7.875c-.3428572.5833333-.9142857.9333333-1.6.9333333s-1.2571429-.35-1.6-.9333333l-2.9142857-4.9583333-2.91428574 4.9583333c-.34285715.5833333-1.02857143.9333333-1.65714286.9333333" fill="#fff"/></g></svg>