<svg height="44" viewBox="0 0 44 44" width="44" xmlns="http://www.w3.org/2000/svg"><path d="m28 14c0 7.7583333-6.1967213 14-14 14-7.80327869 0-14-6.2416667-14-14 0-7.75833333 6.19672131-14 14-14 7.6885246 0 14 6.24166667 14 14zm-20.8 5.8333333c.62857143 0 1.31428571-.35 1.65714286-.9333333l2.91428574-4.9583333 2.9142857 4.9583333c.3428571.5833333.9142857.9333333 1.6.9333333s1.2571428-.35 1.6-.9333333l4.5142857-7.875c.5142857-.875.2285714-2.04166667-.6857143-2.56666667-.8571428-.46666666-2.0571428-.23333333-2.5714286.7l-2.9142857 4.95833337-2.9142857-4.95833337c-.3428571-.58333333-.9142857-.93333333-1.6-.93333333s-1.2571428.35-1.6.93333333l-4.5142857 7.87499997c-.51428571.875-.22857143 2.0416667.68571429 2.5666667.22857142.175.57142857.2333333.91428571.2333333z" fill="#fff" fill-rule="evenodd" transform="translate(8 8)"/></svg>