<svg height="44" viewBox="0 0 44 44" width="44" xmlns="http://www.w3.org/2000/svg"><path d="m29.944231 30.114496c1.786821-2.0409036 3.4741237-4.1705407 5.055769-6.3811627v9.3913387c-.1234968 1.051232-1.0392731 1.875328-2.1516942 1.875328h-17.7816391c1.3736644-1.2676907 2.854676-3.0062933 4.1988911-5.1174933 1.352765-2.108288 1.5807591-2.743104 2.5250346-4.839744.3799901-.1494827 1.4857615-.5144534 2.3036903-.7377067-.9927243 2.0481067-2.0281975 4.6077547-2.1298448 6.1054933-.1747955 2.0888747.6877822 3.32176 2.1307947 3.4683307 1.4458626.1494827 3.3904622-.9678933 5.8489984-3.764384zm-11.4108977-6.3811627s-1.7836599 3.262546-3.0370952 4.7814774c-.7017678.8114585-3.3694602 4.9606668-5.2223223 3.6209247-1.77878647-1.6869795 2.7914765-5.1760654 3.6920786-5.7767675 1.5575347-1.1716941 4.5673389-2.6247061 4.5673389-2.6247061zm-7.2923186-12.1305722c-1.64657607 1.2884955-2.2410147 2.5972389-2.2410147 2.5972389v-3.1991504c0-1.0989027.97996912-2.0008496 2.1773926-2.0008496h16.8892741s-.9847171.07362832-1.9371483 1.0630088c-.5365141.5568142-2.2723509 2.880708-4.1553729 2.4021239-1.8849213-.4749026-1.5136345-1.978761-3.3833624-2.47851323-1.8640304-.49883186-5.3632419.05706193-7.3497684 1.61614163zm18.1153625-.9353814c.9068579-.67169322.6187516-1.50143195-.0406056-1.6673797h2.6973705c1.0093386 0 1.8591554.66774212 2.1201912 1.5705769-1.5149747-.151131-4.0383213.8297387-6.0299283 3.3347595-2.0206108 2.5455199-3.7250783 5.653089-3.7250783 5.653089s-1.5633147.4593196-2.3783267.7082413c.2542683-.540318 1.3921912-2.7717225 3.3083878-5.5513473 1.6193891-2.347963 3.2716494-3.4770004 4.0479894-4.0499152zm-10.5429548 10.4866612c-3.0329416.9067984-7.7670307 3.3074279-9.8134224 6.0459591v-9.1271647c.7454575 1.1043851 1.7242924 1.7658706 3.0030461 2.0665459 1.6104968.3245384 3.2181005.0859072 4.6579039-.696803.6520594-.3495211 1.2486371-.7920652 1.7705821-1.3134259 1.0733431-1.0547497.6827735-2.323313-.1928739-2.5791256-.8823979-.2519945-1.7262211.3245384-2.1650091 1.0117961-.4407168.6891668-1.026089 1.5386938-2.9046805 1.5386938-.9450819 0-2.0618216-.5879872-2.3492037-1.9243217-.4735053-2.0360011 2.159223-4.1283191 4.5412152-4.490084 3.8478337-.58226 2.8776781 1.9329125 4.7157661 3.2005212.4628973.3369472 1.6808957.7407111 2.7899205-.0095453-.5882653.8247093-3.0898394 4.6103541-4.05228 6.2779086zm11.1847481-7.1504095c1.202923-1.2244423 3.1530853-2.056035 3.9737234-1.1620269.8155409.8967616-1.6443345 2.6710097-3.2275034 3.5567568-1.5750135.8811579-3.1051722 1.644828-4.4110572 2.134972.8135021-1.363041 2.8034221-3.6531335 3.6648372-4.5287841zm1.7937754 4.5207471c.8935152-.6060476 2.3346072-1.7184134 3.2080541-2.5910452v3.5960101c-.6880545.8361922-4.6443678 5.2799017-6.2851866 6.7959796-2.8028665 2.5824147-4.6845044 2.1930866-3.9582246-.510154.4405132-1.60407 1.0625357-3.1522778 1.8539246-4.6144001.943208-.3624778 3.3275079-1.4153896 5.1814325-2.6754315z" fill="#005191"/></svg>