<svg height="44" viewBox="0 0 44 44" width="44" xmlns="http://www.w3.org/2000/svg"><g fill="none" transform="translate(7 7)"><path d="m14.9973674 0c-8.28406122.00145387-14.99852438 6.71803353-14.9973674 15.0020948.00115698 8.2840613 6.71749599 14.9987652 15.0015573 14.9979051 8.2840613-.0008601 14.9990059-6.7169585 14.9984427-15.0010198-.0012177-8.28462994-6.7180026-14.99977959-15.0026326-14.9989801z" fill="#00bbe4"/><path d="m11.8393874 22.3602751c.3236342.1801266.5551727.4896329.6365925.8509575.078601.3454549.0210937.707912-.160575 1.0120725-.2296576.3734567-.6442142.5925006-1.082145.571785-.2529268-.003373-.5022966-.0600675-.73182-.16638l-.70140002-.33216c-3.11059947-1.7072315-5.01993953-4.9966808-4.95958503-8.5444725v-1.50459c-.05545567-3.5527434 1.85843321-6.8448285 4.97325003-8.55450007.0299325-.0102075.68775002-.323295.68775002-.323295.2284757-.10703917.4774481-.16325369.72975-.1647675.438079-.01804107.8520961.20058192 1.0842375.572535.1818884.30360653.2394201.66575532.160575 1.01078251-.0827103.37033448-.3229625.68611176-.6578175.86460751-1.8124316.8526218-2.96101065 2.68406605-2.93937003 4.68691505v5.3230275c-.01898338 2.0107059 1.13843563 3.8471313 2.96059503 4.697445zm13.3154776-6.608235c.060777 3.5477741-1.8484548 6.8373552-4.9591051 8.5444725l-.7018875.33216c-.2291299.1069666-.478486.1636951-.73134.16638-.4376149.0199494-.8516461-.1989261-1.081605-.571785-.1796003-.3049193-.2366136-.6666962-.159495-1.0120725.0803771-.3610441.3110144-.670626.63396-.8509575 1.8231177-.8499349 2.9821667-2.6860118 2.9653275-4.697445v-5.3230275c.0206924-2.0033227-1.1288698-3.83469449-2.9420025-4.68691505-.3342373-.17909974-.5741165-.49464221-.657285-.86460751-.077361-.34494893-.020324-.70641493.159495-1.01078251.2313272-.37148025.6443394-.59010343 1.081605-.572535.2529162.00060017.5026013.05685306.73134.1647675 0 0 .6593775.3130875.6866775.323295 3.1171257 1.70744246 5.032189 5.00084247 4.9743151 8.55450007z" fill="#fff"/></g></svg>