<svg height="44" viewBox="0 0 44 44" width="44" xmlns="http://www.w3.org/2000/svg"><g fill="none" fill-rule="evenodd" transform="translate(8 8)"><path d="m0 13.955963c-.00041663-7.69990697 6.23588224-13.94508966 13.935782-13.955634v5.043969c-3.606866.00661616-6.85424113 2.18629389-8.22668247 5.5218495-1.37244134 3.3355555-.59940498 7.1694641 1.95835851 9.712567 2.55776346 2.5431028 6.39605236 3.2940882 9.72366366 1.902496 3.3276114-1.3915923 5.4885864-4.651443 5.4744693-8.2582875l5.045803.005299c.009994 4.98924-2.6442608 9.604291-6.9617557 12.1046618-4.3174948 2.5003708-9.6413783 2.5056621-13.96383488.0138785-4.32245654-2.4917835-6.98587987-7.1015493-6.98580342-12.0907993" fill="#006c3f"/><g fill-rule="nonzero"><path d="m7.796803 13.955963c-.00119775-2.5043119 1.50650741-4.76267604 3.819894-5.72174967 2.3133865-.95907363 4.9767272-.42992334 6.7477907 1.34064542 1.7710635 1.77056875 2.3009578 4.43376145 1.3425305 6.74741585-.9584272 2.3136544-3.21637 3.8219905-5.7206822 3.8214924-3.417604-.0002549-6.18832332-2.7702002-6.189533-6.187804" fill="#50b848"/><path d="m18.280843 6.114038c.0026164-1.95850928 1.5918948-3.54435372 3.5504052-3.54273372 1.9585103.00162 3.5451631 1.59009143 3.5445395 3.54860236-.0006237 1.95851093-1.5882877 3.54597161-3.5467987 3.54634436-.941797.00021275-1.845022-.37409887-2.5105915-1.04043125s-1.0388461-1.56998564-1.0375545-2.51178175" fill="#006c3f"/></g></g></svg>