<svg height="44" viewBox="0 0 44 44" width="44" xmlns="http://www.w3.org/2000/svg"><path d="m10.4619545 4.07700313c-1.42499995.58365518-3.29602971 2.28890477-4.68693881 2.98956307-.68045454.3428464-1.3504481.35373041-1.87408447 0-1.02409091-.69113479-.34443122-1.99367592.4137506-2.80453485 3.71454545-3.97402508 10.37727268-5.32772414 15.71999998-3.17541066 5.385 2.17 9.1404546 7.5562257 9.1036364 12.99415051-.0095455 1.4203636-.6340909 2.1210219-2.0604546 2.1183009-2.7231818-.005442-5.4463636.0013605-8.1695454-.002721-1.1140909-.0013605-1.98-.3782194-1.9513637-1.6543699.03-1.3060815.96-1.5414483 2.0495455-1.5346458 2.2090909.0122445 4.4181818.0040815 6.6340909.0040815-.3722727-6.99842003-8.4736364-11.68398743-15.1786364-8.93441377zm-6.92249995 12.12166077c.56318181 7.9167587 10.20136365 12.2785267 17.04409095 8.0065518.6422727-.401348 1.240909-.8829655 1.8136363-1.3809091.8590909-.7496364 1.8886364-1.0679937 2.4981818-.021768.3177273.5455611.1036364 1.8829341-.3722727 2.3278181-4.1209091 3.8556615-9.015 4.8828402-14.3740909 3.2706458-5.74909091-1.7291975-9.73363636-6.9480815-10.13590909-12.9179624-.10772727-1.5890658.44590909-2.5006019 2.18590909-2.4815548 2.72181818.0340125 5.445.019047 8.1681818.0095235 1.1168182-.0040815 1.9922727.3210783 1.9663637 1.6121943-.0259091 1.285674-.9422728 1.5754608-2.0318182 1.5754608-2.22409094-.0013605-4.44681821 0-6.76227275 0zm10.92483115.9737499c.8876005 0 1.6071429.7195424 1.6071429 1.6071429v3.1995073c0 .8876005-.7195424 1.6071429-1.6071429 1.6071429s-1.6071428-.7195424-1.6071428-1.6071429v-3.1995073c0-.8876005.7195423-1.6071429 1.6071428-1.6071429zm0-11.7586207c.8876005 0 1.6071429.71954237 1.6071429 1.60714286v3.19950734c0 .8876005-.7195424 1.6071429-1.6071429 1.6071429s-1.6071428-.7195424-1.6071428-1.6071429v-3.19950734c0-.88760049.7195423-1.60714286 1.6071428-1.60714286z" fill="#fff" fill-rule="evenodd" transform="translate(7 8)"/></svg>