<svg height="44" viewBox="0 0 44 44" width="44" xmlns="http://www.w3.org/2000/svg"><path d="m0 26v-26h26v26zm23.019792-18.07749678c-.1171477-.97626381-.5801817-1.48431945-1.6738609-1.48431945h-1.3907539l-.1890884 5.51501333h1.0134782s.093568-2.55782312.0989747-2.67900115c.1109901 0 1.175232.00118948 1.2805147.00118948.0117147.11151353.2033564 2.67781167.2033564 2.67781167h1.0463696s-.3601542-3.78863516-.3889904-4.03069388zm-12.297703 7.57428168c-.1168473-.9761151-.5801816-1.4843194-1.67371057-1.4843194h-1.39090397l-.18908847 5.5150133h1.01347805s.09356798-2.5578231.099125-2.6790011c.11114016 0 1.17523202.0011895 1.28051478.0011895.01171477.1115135.20320628 2.6778116.20320628 2.6778116h1.0463694s-.3600039-3.7884864-.3889905-4.0306939zm-7.60477987-9.05861601v5.51367521h1.02429167v-4.59673662h1.26940077v4.59673662h1.02594375v-5.51367521zm10.83593947 1.92020357h-.5576532c-.2305407 0-.4016064-.05099887-.5106439-.15403738-.076897-.07151735-.1145946-.16845975-.1145946-.29484175v-1.47138394h-1.0266946v1.57427374c0 .36293937.1450829.66982462.4313439.91366758.2822059.24146396.6277917.36308804 1.0287974.36308804h.749445v2.66279455h1.0251928v-5.51382391h-1.0251928zm2.1601441-1.92020357v.91693859h.8512736v4.59673662h.0126157 1.011676.0126156v-4.59673662h.8512734v-.91693859zm-1.5039516 7.57413301v1.7625086h-1.4062233v-1.7625086h-1.0226396v5.5160542h1.0226396v-2.836607h1.4062233v2.836607h1.0226396v-5.5160542zm-9.99378248 1.8048094c-.17647253 0-.33327025.0041632-.47399772.0105566v-.8982043h1.83831817v-.9169387h-2.86260984v.9169387 4.5968852h.0693875 1.48537311c1.55010471 0 1.79025756-1.3640335 1.79025756-1.8689668 0-.5975639-.23880111-1.8402707-1.84672878-1.8402707zm6.37478878-6.81667365c-.0177223-.7887724-.1545448-1.35392298-.3664621-1.75537172-.3340212-.68617993-.86614223-.94236369-1.41553501-.9489058-.0012015 0-.00225286-.00044609-.00345436-.00044609-.00300378 0-.00600756.00014871-.00901138.00014871-.00300378 0-.00600756-.00014871-.00901134-.00014871-.00120151 0-.00225286.00044609-.00345436.00044609-.54939279.00654211-1.08136362.26272587-1.41553503.9489058-.21206744.40144874-.34873978.96659932-.36646212 1.75537172-.00015019.00118948-.00240305.17708348-.00240305.17842167l.0001502-.00014871c.00060077.49140299.05587044.96793749.16385663 1.35169269.28130475 1.1298552.93132442 1.5295197 1.60988009 1.5415631.00465591.0001487.00961216.0005948.01396764.0005948.00300378 0 .00600756-.0001487.00901134-.0001487.00300382 0 .0060076.0001487.00901138.0001487.00450567 0 .00946192-.0004461.01396763-.0005948.67855567-.0120434 1.32857534-.4117079 1.60988014-1.5415631.1081363-.3837552.163406-.8602897.1638566-1.35169269l.0001502.00014871c0-.00133819-.0024031-.17723219-.0024031-.17842167zm-2.56853897.20444149v-.00044605c.0085608-1.49249713.38118067-1.98360274.77407612-1.99088832.39289549.00728558.76551535.49839119.77407616 1.99088832v.00044605c-.00856081 1.45770496-.38118067 1.95550136-.77407616 1.96308426-.39289545-.0075829-.76536512-.5053793-.77407612-1.96308426zm12.47450567-.84658101c.0022529-.11195958.0232795-.89701488.0250817-1.00302706h.1929933c.7462914 0 .871549.13054514.9409365 1.00302706zm-12.29755253 7.57428177c.00225286-.1119596.02327936-.8968662.02508164-1.0028784l.18157897-.0113001c.74629109 0 .88281327.1418453.95235097 1.0141785zm-4.10725939 2.7421029c-.09957558 0-.34994128-.0227488-.34994128-.0227488v-1.0764773-.1128517-.7518986s.0805015-.0187342.1685125-.0187342c.51965528 0 1.1337797-.0300343 1.1337797.9903888 0 .9355242-.67480092.9923218-.95235092.9923218zm16.24362882.8520229-1.2329049-3.2321083c.2559228-.1886809.4552241-.5501334.543836-.9100991.0859083-.3498552.1990009-1.3722112.1990009-1.3722112h-1.0083718c-.0061577.1040792-.0279349.4539344-.059475.8095882-.0467086.527236-.2035064 1.0135837-.7482432 1.0135837h-.4203801c-.000751-.0441594 0-1.8231719 0-1.8231719h-1.025193v5.5160541h1.025193v-2.8006253s.5423335.0007435.6189304.0001488l1.0070199 2.798841z" fill="#fff" transform="translate(9 9)"/></svg>