<svg height="44" viewBox="0 0 44 44" width="44" xmlns="http://www.w3.org/2000/svg"><g fill="none" transform="translate(9 9)"><path d="m0 26h26v-26h-26z" fill="#cc003d"/><path d="m23.019792 7.92250322c.0288362.24205872.3889904 4.03069388.3889904 4.03069388h-1.0463696s-.1916417-2.56629814-.2033564-2.67781167c-.1052827 0-1.1695246-.00118948-1.2805147-.00118948-.0054067.12117803-.0989747 2.67900115-.0989747 2.67900115h-1.0134782l.1890884-5.51501333h1.3907539c1.0936792 0 1.5567132.50805564 1.6738609 1.48431945zm-12.297703 7.57428168c.0289866.2422075.3889905 4.0306939.3889905 4.0306939h-1.0463694s-.19149151-2.5662981-.20320628-2.6778116c-.10528276 0-1.16937462-.0011895-1.28051478-.0011895-.00555702.121178-.099125 2.6790011-.099125 2.6790011h-1.01347805l.18908847-5.5150133h1.39090397c1.09352897 0 1.55686327.5082043 1.67371057 1.4843194zm-7.60477987-9.05861601h3.31963619v5.51367521h-1.02594375v-4.59673662h-1.26940077v4.59673662h-1.02429167zm10.83593947 1.92020357v-1.92026307h1.0251928v5.51382391h-1.0251928v-2.66279455h-.749445c-.4010057 0-.7465915-.12162408-1.0287974-.36308804-.286261-.24384296-.4313439-.55072821-.4313439-.91366758v-1.57427374h1.0266946v1.47138394c0 .126382.0376976.2233244.1145946.29484175.1090375.10303851.2801032.15403738.5106439.15403738zm2.1601441-1.92020357h2.7394543v.91693859h-.8512734v4.59673662h-.0126156-1.011676-.0126157v-4.59673662h-.8512736zm-1.5039516 7.57413301h1.0226396v5.5160542h-1.0226396v-2.836607h-1.4062233v2.836607h-1.0226396v-5.5160542h1.0226396v1.7625086h1.4062233zm-9.99378248 1.8048094c1.60792767 0 1.84672878 1.2427068 1.84672878 1.8402707 0 .5049333-.24015285 1.8689668-1.79025756 1.8689668h-1.48537311-.0693875v-4.5968852-.9169387h2.86260984v.9169387h-1.83831817v.8982043c.14072747-.0063934.29752519-.0105566.47399772-.0105566zm6.37478878-6.81667365c0 .00118948.0024031.17708348.0024031.17842167l-.0001502-.00014871c-.0004506.49140299-.0557203.96793749-.1638566 1.35169269-.2813048 1.1298552-.93132447 1.5295197-1.60988014 1.5415631-.00450571.0001487-.00946196.0005948-.01396763.0005948-.00300378 0-.00600756-.0001487-.00901138-.0001487-.00300378 0-.00600756.0001487-.00901134.0001487-.00435548 0-.00931173-.0004461-.01396764-.0005948-.67855567-.0120434-1.32857534-.4117079-1.60988009-1.5415631-.10798619-.3837552-.16325586-.8602897-.16385663-1.35169269l-.0001502.00014871c0-.00133819.00225286-.17723219.00240305-.17842167.01772234-.7887724.15439468-1.35392298.36646212-1.75537172.33417141-.68617993.86614224-.94236369 1.41553503-.9489058.0012015 0 .00225285-.00044609.00345436-.00044609.00300378 0 .00600756.00014871.00901134.00014871.00300382 0 .0060076-.00014871.00901138-.00014871.0012015 0 .00225286.00044609.00345436.00044609.54939278.00654211 1.08151381.26272587 1.41553501.9489058.2119173.40144874.3487398.96659932.3664621 1.75537172zm-2.56853897.20444149c.008711 1.45770496.38118067 1.95550136.77407612 1.96308426.39289549-.0075829.76551535-.5053793.77407616-1.96308426v-.00044605c-.00856081-1.49249713-.38118067-1.98360274-.77407616-1.99088832-.39289545.00728558-.76551532.49839119-.77407612 1.99088832zm12.47450567-.84658101h1.1590115c-.0693875-.87248192-.1946451-1.00302706-.9409365-1.00302706h-.1929933c-.0018022.10601218-.0228288.89106748-.0250817 1.00302706zm-12.29755253 7.57428177h1.15901158c-.0695377-.8723332-.20605988-1.0141785-.95235097-1.0141785l-.18157897.0113001c-.00180228.1060122-.02282878.8909188-.02508164 1.0028784zm-4.10725939 2.7421029c.27755 0 .95235092-.0567976.95235092-.9923218 0-1.0204231-.61412442-.9903888-1.1337797-.9903888-.088011 0-.1685125.0187342-.1685125.0187342v.7518986.1128517 1.0764773s.2503657.0227488.34994128.0227488zm16.24362882.8520229h-1.1005878l-1.0070199-2.798841c-.0765969.0005947-.6189304-.0001488-.6189304-.0001488v2.8006253h-1.025193v-5.5160541h1.025193s-.000751 1.7790125 0 1.8231719h.4203801c.5447368 0 .7015346-.4863477.7482432-1.0135837.0315401-.3556538.0533173-.705509.059475-.8095882h1.0083718s-.1130926 1.022356-.1990009 1.3722112c-.0886119.3599657-.2879132.7214182-.543836.9100991z" fill="#fff"/></g></svg>