<svg height="44" viewBox="0 0 44 44" width="44" xmlns="http://www.w3.org/2000/svg"><path d="m26.6235741 27.9540984c-.0228136-.0229509-.8269962-.0918033-1.4144486-.1147541-1.1977187-.0516394-1.9961977-.0918033-2.3384031-.1147541-.2053232-.0114754-.5874524-.040164-.8555133-.0573771-.4562737-.0286885-.6958175-.0459016-1.5114068-.1147541-.1882129-.0172131-.5019012-.0401639-.7015209-.057377-.1939164-.0114754-.4733841-.040164-.6273765-.0516394-.1482889-.0172131-.473384-.0459016-.7243346-.0631147-.2509505-.0172131-.5589353-.040164-.6844106-.0573771-.1254753-.0114754-.4334601-.0401639-.6787072-.057377-.2509506-.0172131-.4676806-.040164-.4847909-.0516394s-.2110266-.0401639-.4334601-.057377c-.21673-.0172131-.4505703-.0459017-.5190114-.0573771-.0627376-.0114754-.2680608-.0401639-.4562738-.057377-.4619771-.0516394-1.7281368-.2065574-1.9049429-.2352459-.0798479-.0114754-.5703422-.0918033-1.0950571-.1721312-.5247148-.0745901-1.0665399-.1663934-1.1977186-.1950819-.1368821-.0286886-.3479087-.0688525-.473384-.0860656-.1939164-.0286885-.5076046-.0918033-1.19771864-.2295082-.06273765-.0172131-.23954373-.0573771-.39923955-.0918033-.15399239-.0344262-.32509505-.0745902-.37072243-.0860656-1.27756654-.2754098-2.94296578-.8032786-3.51901141-1.1131147-.44486692-.2409836-.9068441-.6483607-1.04942965-.9352459-.37072244-.7344262-.06844107-1.6352459.6730038-2.002459.25095057-.1262295.34220532-.137705 1.10076045-.1319672.76425856.0057377.92395438.0229508 2.05323194.2696721.67300381.1491803 1.59695818.3327869 2.05323194.4131147.45627375.0803279.88973385.1606558.96958175.1721312.0798479.0172131.256654.0401639.3992395.057377.1425856.0172132.296578.0459017.3422054.0573771.0855513.0286885 1.4087452.2237705 1.9106464.2868852.1596958.0229509.325095.0459017.3764258.0631148.0456274.0114754.2395437.0401639.4277567.0516393.1825095.0172131.6444867.0688525 1.0209125.1147541.8155894.097541 1.1463878.1319672 1.5684411.1663935 1.5513308.1262295 2.4524715.154918 2.4524715.0745901 0-.0516393-.4562738-1.302459-.9809886-2.6795082-.1254753-.3327868-.3022814-.8032787-.3935362-1.0442623-.43346-1.1647541-.5247148-1.4-.5703422-1.5090164-.0285171-.0631147-.1882129-.4877049-.3593155-.9467213-.1711027-.4590164-.5190115-1.359836-.7756654-2.0081967-.256654-.6483606-.553232-1.4057377-.6673004-1.6926229-.108365-.2811476-.2224335-.5680328-.2452472-.6311476-.0285171-.0631147-.2452471-.5909836-.4847909-1.1762295-.2395437-.5852459-.4562737-1.1131147-.4847908-1.1762295-.0285171-.0631147-.1825095-.4360656-.3479088-.8319672-.3935361-.96393443-.6958175-1.6237705-1.460076-3.15573771-.7129278-1.44590164-.9980989-1.84754098-1.7053232-2.40983607-1.3174905-1.0557377-2.9714829-1.33688524-4.64258556-.79180327-1.45437263.4704918-2.57224335 1.61229508-3.29657795 3.37950819-.17680608.43032787-.23954372.64262295-.3878327 1.33114754-.01711026.09180328-.03992395.39016394-.0513308.66557377-.03992395 1.00983607.26806084 1.83606555.91825095 2.49590165.19961978.195082.75285171.5278688.98669202.5852459.0513308.0114754.2851711.0745902.51901141.1377049.62737642.1721312.6730038.1778689 1.1121673.2008197.3365019.0172131.80988593-.0344262 1.02661597-.1032787.03422053-.0114754.16539924-.0516393.30228136-.0918033.13117871-.0344262.23954373-.0803279.23954373-.097541 0-.057377-.20532319-.3442623-.30798479-.4303278-.05703422-.0459017-.31368821-.1319672-.57034221-.1893443-1.04372623-.2295082-1.41444866-.3959016-1.62547528-.7401639-.4391635-.71721315.22813688-1.90491806 1.30608365-2.32377052 2.10456274-.8147541 4.5855513.66557377 5.161597 3.08688522.1882129.7745902.1026616 1.7557377-.1996198 2.352459-.1825095.3557377-.4676806.642623-.986692.992623-.91254756.6139344-1.68821296.8032787-3.26235744.8032787-.81558936-.0057377-1.07794677-.0286885-1.6539924-.1491803-1.63688213-.3442623-3.00570342-1.05-3.86692015-1.9909837-.7756654-.8434426-1.11787072-1.5778688-1.40874525-3.012295-.17110266-.86065578-.21673004-1.84754102-.10836502-2.4098361.02851711-.16065574.07984791-.41311476.10836502-.5737705.02851711-.15491803.06273764-.35.07984791-.43032786.14828897-.90655738.97528517-2.86885246 1.46577947-3.5.39923954-.50491804 1.02661597-1.09016394 1.79087452-1.65245902.99239544-.72868852 2.47528517-1.38278689 3.76425856-1.65245902 1.02661597-.21803278 3.11977188-.1204918 3.92395438.18360656 1.0494296.39590164 1.8365019 1.02131148 2.7889734 2.20901639 1.1863118 1.49180328 2.7091254 4.53852459 3.8326996 7.67704915.1140684.3213115.9923954 2.6852459 1.1749049 3.1614754.0912548.2352459.296578.8204918.4619772 1.2909837.1653993.4762295.3307985.9008196.3764259.9467213.1425855.154918.1825095-.0114754.0969582-.3729509-.0456274-.1893442-.0912548-.407377-.1083651-.4877049-.0114068-.0803278-.1197718-.5106557-.2338403-.9467213-.1140684-.4418033-.21673-.854918-.2281369-.9180328-.0114068-.0631147-.0342205-.1778688-.0513307-.2581967-.2053232-.9122951-.3650191-2.77131147-.3992396-4.60163934-.0342205-1.97377049.3250951-3.05245902 1.1463878-3.47704918.6045628-.30983607 1.1406844-.35 1.4942966-.1147541.3193917.21803279.8555133.76885246 1.2490494 1.2852459.9410647 1.23934427 2.0190115 2.28360656 2.9657795 2.85737705.4106464.24672131.6958175.56803279.9011407 1.02704918.2851711.62540979.3707224 1.45163939.2053232 2.03688529-.1197719.4245901-.5076046.7631147-.8326996.7286885-.4334601-.0516394-.5760457-.1377049-1.8079848-1.0959017-.8041825-.6254098-1.5-1.1131147-1.5969582-1.1131147-.0228137 0-.0342205.0688524-.0228137.1606557.0114069.0860656.0684411.4418033.1197719.7860656.0513308.35.1311787.7860656.1711026.9754098.0456274.1893443.0912548.4073771.1083651.487705.1368821.7459016.5190114 1.9680327 1.5912547 5.0778688.2737643.7918033.5076046 1.5491803.7585551 2.4327869.1768061.6368852.1711027 1.05-.0285171 1.4401639-.1482889.2983607-.4961977.5737705-.8612167.6827869-.1425855.0401639-.3193916.097541-.404943.1204918-.1596958.0459017-1.2661597.0344262-1.460076-.0172131l-.1254753-.0344262.1026616.2868852c.1425856.3672131.4847909.8147541.7642586 1.0040984.1254752.0803278.43346.2237705.690114.309836.4790875.1663935.5589354.1721312 2.6007605.2581968 1.3403042.057377 1.7110266.1032787 2.1615969.2581967.2908746.1032787.6387833.3270492.7927757.5163934.3136882.3672131.4448669 1.0614754.296578 1.5262295-.1996198.6196722-.9866921 1.3139345-1.6254753 1.4286886-.1254753.0229508-.2794677.057377-.3422053.0688524-.1368822.0344263-1.2661597.0688525-1.2946769.0459017z" fill="#c41230" fill-rule="evenodd" transform="matrix(1 0 0 -1 7 35.983)"/></svg>