<svg height="44" viewBox="0 0 44 44" width="44" xmlns="http://www.w3.org/2000/svg"><g fill="none" fill-rule="evenodd"><path d="m8 8h28v28h-28z" fill="#a21434"/><path d="m21.9375718 3.78450304c-1.4658398-1.11926521-3.1829171-1.54478261-4.9134254-1.93777826-.2118066.82139565-.4145635 1.60753479-.6275193 2.43351305 1.8477237-.4499087 3.6691602-.72915218 5.5409447-.49573479zm3.7451492 4.25894348c-.128779-.21737826-.244989-.41723913-.3647182-.61473478-.8681271-1.43273044-2.1452873-2.17437391-3.7580056-2.32116522-2.5688287-.23363913-4.9888397.33689565-7.3001105 1.46946522-.0642817.03148696-.1297127.06105217-.1968674.08470435-.0168784.00591304-.0425911-.01500435-.1279889-.04885652 1.1754586-1.94369131 1.8944088-4.05531305 2.2091381-6.3733.7993205.19527826 1.5562652.36032608 2.3025083.56654347 1.6714696.46188261 3.2772928 1.08718696 4.699105 2.13276087 1.5406077 1.13293913 2.5519502 2.60824348 2.7626077 4.59014783.0210442.19727391.0986851.42973043-.2256685.51443478zm-16.71095415-6.19619695c-1.7318011.39262608-3.44880663.82139565-4.91457458 1.93903478 1.88112154-.24746087 3.71103314.05750435 5.54776795.48952608-.21805525-.83647391-.42145856-1.61640434-.63319337-2.42856086zm2.99158015 4.80604782c-.605326-.25736522-1.2018177-.54030435-1.8177017-.76743913-1.91667403-.70690435-3.88017679-1.06641739-5.91679558-.71185652-1.69639226.29528261-3.04731491 1.12037391-3.84907734 2.75082174-.02018232.04094782-.05279006.07546522-.07835912.11131304-.28398895-.06496956-.23859669-.27628695-.22293923-.46934782.12202763-1.51218696.8001105-2.73899566 1.85131492-3.76372609 1.38446409-1.34965218 3.05787293-2.18309565 4.85058011-2.76819131.98606077-.32181739 2.00092265-.54976521 3.06153591-.83595652.32902213 2.34400435 1.02822103 4.4642 2.21359113 6.40663479-.0307403.01596521-.0614088.03185652-.0921491.04774782zm-8.01510335 6.72395091c1.56222652.9822304 3.29014917 1.4477347 5.00887845 1.8336347-.08432044-.8688478-.16548066-1.7056173-.24944199-2.5716565-1.51625967.6449652-3.11389503.833-4.75943646.7380218zm-3.51158011-3.72521743c.11664088.13725652.22538121.26726956.33620442.39513913 1.45829834 1.6837391 3.2918011 2.2190174 5.41654696 1.8901783 1.19714917-.1853 2.31335359-.5987696 3.37008839-1.1962826.16583978-.0937957.3321105-.1865566.60625969-.3403696.0170221.2529304.0801547.4493174.0331823.6119261-.31422652 1.088-.48732044 2.181913-.23249171 3.3096043.22811051 1.0091348.77885081 1.7516652 1.70070161 2.1979522.0855415.0414652.1211658.1921739.179989.2921043-.0892044.0534392-.1812099.1581-.2671105.153-3.05945304-.1825652-5.95012155-.9399521-8.50523204-2.7563652-1.41872376-1.0086913-2.45484531-2.3259695-2.89425967-4.0844348-.06148066-.2462043-.04876796-.40696517.25612155-.47245213zm16.60402376 5.56200083c1.7369724-.3989087 3.4615912-.8602 5.0111768-1.8361478-1.6511437.0968261-3.2491381-.0963087-4.7645359-.7382435-.0830276.8666305-.1631105 1.7026609-.2466409 2.5743913zm8.5359005-5.55559996c.2750111.102.2966299.26431304.236873.50903916-.4226078 1.729713-1.4673481 2.9873434-2.8482928 3.9831-1.8357293 1.3237826-3.909768 2.051013-6.0878785 2.4828869-.7959447.1578044-1.6089116.2276522-2.4160608.3196739-.0955967.0109392-.2035469-.0920217-.3057514-.1422087.0582487-.0997087.0931547-.2500478.1783371-.2915869 1.2489337-.6098565 1.7372596-1.6960087 1.8129613-3.0390087.0476188-.8465261-.1175028-1.6630435-.3523647-2.4706174-.0460386-.1583217.0049559-.3465783.0143647-.6108174.2691215.1462.4352486.2322348.5975691.3252913 1.4363204.8230218 2.9659392 1.3014609 4.6190221 1.2958435 1.8324254-.0062087 3.3626187-.6629261 4.4478674-2.24525653.0265745-.03865652.0624143-.07073478.1033535-.11633913zm-16.71483973-1.35815217c-1.69445304-.83277827-3.39960774-1.0925087-5.17988951-.50393914-.18896685.06238261-.37599447.1688174-.53005525.29772174-.31903867.26697392-.30905524.67534348.04050829.89493913.23859669.14989566.52007183.25477827.79558564.31065653 1.67225967.33903913 3.22213259-.08352174 4.71074033-.84578696.05358011-.02742174.09222099-.08551739.1631105-.1535913zm-3.48694476 2.37046523c-1.02168508-.0293435-1.93168508-.1436131-2.75930386-.6171739-.72239779-.4134696-1.04251381-1.07802177-.88012155-1.80429133.12324862-.55087392.47561326-.9287174.92788398-1.21283914.69690055-.43771304 1.46390055-.66957826 2.27356353-.7162913 1.98720442-.11478696 3.80971824.37983913 5.43148619 1.59881304.4542818.34147826.490768.59426087-.016663.92797826-1.30165191.85613479-2.66464087 1.54093917-4.2132928 1.76009127-.28327072.0400609-.570779.0482653-.76355249.0637131zm11.79406689-2.33149089c1.6692431.90543479 3.3903425 1.40087392 5.2675856.8466.1241105-.03666087.2458508-.1008913.3527238-.17635652.356674-.25152609.3831768-.65028696.0450331-.92398696-.1651934-.13363478-.3649337-.24945652-.5665414-.30230434-.4497569-.11803913-.9069116-.22816957-1.367442-.27599131-1.3204696-.13710869-2.5534586.1989-3.7313591.83203913zm3.554674 2.32922179c-1.6031657-.0139696-3.0182265-.5790348-4.3636188-1.37234353-.3006519-.17716956-.5916077-.37326087-.8776077-.57482174-.2839171-.20015652-.292105-.42063913-.0260718-.65161739.752348-.6533913 1.6158066-1.09701739 2.5556132-1.37914347 1.498663-.44983479 3.0107569-.61636087 4.5112873-.0385087.4281381.16482609.8584309.4034913 1.1998785.71141304.8716464.78621305.7538563 1.98397392-.2300498 2.61755652-.8513922.54828697-1.8153315.65568257-2.7694309.68746527zm-7.7237166.3453586c-.4221768.7703957-.6380773 1.4940044-.3970386 2.2819914.0611933.2002304.2579889.3565565.3925856.5330608.1361768-.1745826.3359171-.3283956.397326-.5274435.2430497-.7880608.030453-1.5137391-.392873-2.2876087zm-1.5885856 1.6617131c.0386409-1.2915565.4710884-2.4216131 1.315011-3.38322175.1614586-.18396956.3153039-.26091304.5039835-.03850869 1.1119668 1.31106954 1.6304585 2.79332174 1.2109392 4.53249564-.0678729.2814609-.1896851.5611478-.339221.8077217-.6115746 1.0086914-1.5712762 1.0116479-2.2010939.0181827-.322558-.5087435-.4460939-1.0819392-.4887569-1.6782696-.006105-.0857391-.0008619-.1722913-.0008619-.2584zm1.0087713-11.34085523c.1757513.67467826.3357016 1.28837826.4955801 1.90200435.0550884.00081305.1101768.0017.1652652.00258696.161674-.61916957.323348-1.23833913.4973038-1.90459131zm-1.2431161-1.27115652h3.6704531c-.1411326.73388261-.2520995 1.40878261-.4032155 2.07392609-.2464254 1.08415652-.6280939 2.11723913-1.196 3.07049565-.1781934.2992-.3096298.31797391-.4675691.0538087-.940453-1.57286957-1.3575303-3.31684783-1.6036685-5.19823044z" fill="#fff" transform="translate(9 14)"/></g></svg>