<svg height="44" viewBox="0 0 44 44" width="44" xmlns="http://www.w3.org/2000/svg"><path d="m8 8h28v28h-28zm22.9375718 9.784503c-1.8717845-.2334173-3.693221.0458261-5.5409447.4957348.2129558-.8259782.4157127-1.6121174.6275193-2.433513 1.7305083.3929956 3.4475856.818513 4.9134254 1.9377782zm3.7451492 4.2589435c.3243536-.0847043.2467127-.3171608.2256685-.5144348-.2106575-1.9819043-1.222-3.4572087-2.7626077-4.5901478-1.4218122-1.0455739-3.0276354-1.6708782-4.699105-2.1327609-.7462431-.2062173-1.5031878-.3712652-2.3025083-.5665434-.3147293 2.3179869-1.0336795 4.4296087-2.2091381 6.3733.0853978.0338521.1111105.0547695.1279889.0488565.0671547-.0236522.1325857-.0532174.1968674-.0847044 2.3112708-1.1325695 4.7312818-1.7031043 7.3001105-1.4694652 1.6127183.1467913 2.8898785.8884348 3.7580056 2.3211652.1197292.1974957.2359392.3973566.3647182.6147348zm-16.7109541-6.1961969c.2117348.8121565.4151381 1.5920869.6331933 2.4285608-1.8367348-.4320217-3.6666464-.7369869-5.5477679-.4895261 1.4657679-1.1176391 3.1827734-1.5464086 4.9145746-1.9390347zm2.9915801 4.8060478c.0307403-.0158913.0614088-.0317826.0921491-.0477478-1.1853701-1.9424348-1.884569-4.0626305-2.2135911-6.4066348-1.0606133.2861913-2.0754752.5141391-3.0615359.8359565-1.7927072.5850957-3.4661161 1.4185391-4.8505801 2.7681913-1.05120447 1.0247304-1.72928734 2.2515391-1.85131497 3.7637261-.01565746.1930609-.06104972.4043783.22293923.4693478.02556906-.0358478.0581768-.0703652.07835912-.111313.80176242-1.6304478 2.15268512-2.4555392 3.84907732-2.7508218 2.0366188-.3545608 4.0001216.0049522 5.9167956.7118566.615884.2271347 1.2123757.5100739 1.8177017.7674391zm-8.0151034 6.7239509c1.6455415.0949782 3.2431768-.0930566 4.7594365-.7380218.0839613.8660392.1651216 1.7028087.249442 2.5716565-1.7187293-.3859-3.4466519-.8514043-5.0088785-1.8336347zm-3.51158006-3.7252174c-.30488951.0654869-.31760221.2262478-.25612155.4724521.43941436 1.7584653 1.47553591 3.0757435 2.89425971 4.0844348 2.5551105 1.8164131 5.445779 2.5738 8.505232 2.7563652.0859006.0051.1779061-.0995608.2671105-.153-.0588232-.0999304-.0944475-.2506391-.179989-.2921043-.9218508-.446287-1.4725911-1.1888174-1.7007016-2.1979522-.2548287-1.1276913-.0817348-2.2216043.2324917-3.3096043.0469724-.1626087-.0161602-.3589957-.0331823-.6119261-.2741492.153813-.4404199.2465739-.6062597.3403696-1.0567348.597513-2.1729392 1.0109826-3.3700884 1.1962826-2.1247458.3288391-3.9582486-.2064392-5.41654694-1.8901783-.11082321-.1278696-.21956354-.2578826-.33620442-.3951391zm16.60402376 5.5620008c.0835304-.8717304.1636133-1.7077608.2466409-2.5743913 1.5153978.6419348 3.1133922.8350696 4.7645359.7382435-1.5495856.9759478-3.2742044 1.4372391-5.0111768 1.8361478zm8.5359005-5.5556c-.0409392.0456044-.076779.0776826-.1033535.1163392-1.0852487 1.5823304-2.615442 2.2390478-4.4478674 2.2452565-1.6530829.0056174-3.1827017-.4728217-4.6190221-1.2958435-.1623205-.0930565-.3284476-.1790913-.5975691-.3252913-.0094088.2642391-.0604033.4524957-.0143647.6108174.2348619.8075739.3999835 1.6240913.3523647 2.4706174-.0757017 1.343-.5640276 2.4291522-1.8129613 3.0390087-.0851824.0415391-.1200884.1918782-.1783371.2915869.1022045.050187.2101547.1531479.3057514.1422087.8071492-.0920217 1.6201161-.1618695 2.4160608-.3196739 2.1781105-.4318739 4.2521492-1.1591043 6.0878785-2.4828869 1.3809447-.9957566 2.425685-2.253387 2.8482928-3.9831.0597569-.2447261.0381381-.4070392-.236873-.5090392zm-16.7148397-1.3581521c-.0708895.0680739-.1095304.1261695-.1631105.1535913-1.4886078.7622652-3.0384807 1.1848261-4.7107404.8457869-.2755138-.0558782-.5569889-.1607608-.7955856-.3106565-.3495635-.2195956-.359547-.6279652-.0405083-.8949391.1540608-.1289044.3410884-.2353392.5300553-.2977218 1.7802817-.5885695 3.4854364-.3288391 5.1798895.5039392zm-3.4869448 2.3704652c.1927735-.0154478.4802818-.0236522.7635525-.0637131 1.5486519-.2191521 2.9116409-.9039565 4.2132928-1.7600913.507431-.3337174.4709448-.5865.016663-.9279782-1.621768-1.2189739-3.4442818-1.7136-5.4314862-1.5988131-.809663.0467131-1.576663.2785783-2.2735635.7162913-.4522707.2841218-.8046354.6619653-.927884 1.2128392-.1623923.7262695.1577238 1.3908217.8801215 1.8042913.8276188.4735608 1.7376188.5878304 2.7593039.6171739zm11.7940669-2.3314909c1.1779005-.6331391 2.4108895-.9691478 3.7313591-.8320391.4605304.0478217.9176851.1579522 1.367442.2759913.2016077.0528478.401348.1686696.5665414.3023043.3381437.2737.3116409.6724609-.0450331.923987-.106873.0754652-.2286133.1396956-.3527238.1763565-1.8772431.5542739-3.5983425.0588348-5.2675856-.8466zm3.554674 2.3292218c.9540994-.0317827 1.9180387-.1391783 2.7694309-.6874653.9839061-.6335826 1.1016962-1.8313434.2300498-2.6175565-.3414476-.3079217-.7717404-.5465869-1.1998785-.711413-1.5005304-.5778522-3.0126243-.4113261-4.5112873.0385087-.9398066.2821261-1.8032652.7257521-2.5556132 1.3791434-.2660332.2309783-.2578453.4514609.0260718.6516174.286.2015609.5769558.3976522.8776077.5748218 1.3453923.7933087 2.7604531 1.3583739 4.3636188 1.3723435zm-7.7237166.3453586c.423326.7738696.6359227 1.4995479.392873 2.2876087-.0614089.1990479-.2611492.3528609-.397326.5274435-.1345967-.1765043-.3313923-.3328304-.3925856-.5330608-.2410387-.787987-.0251382-1.5115957.3970386-2.2819914zm-1.5885856 1.6617131c0 .0861087-.0052431.1726609.0008619.2584.042663.5963304.1661989 1.1695261.4887569 1.6782696.6298177.9934652 1.5895193.9905087 2.2010939-.0181827.1495359-.2465739.2713481-.5262608.339221-.8077217.4195193-1.7391739-.0989724-3.2214261-1.2109392-4.5324956-.1886796-.2224044-.3425249-.1454609-.5039835.0385087-.8439226.9616086-1.2763701 2.0916652-1.315011 3.3832217zm1.0087713-11.3408552h1.1581491c-.1739558.6662521-.3356298 1.2854217-.4973038 1.9045913-.0550884-.000887-.1101768-.0017739-.1652652-.002587-.1598785-.6136261-.3198288-1.2273261-.4955801-1.9020043zm-1.2431161-1.2711565c.2461382 1.8813826.6632155 3.6253608 1.6036685 5.1982304.1579393.2641652.2893757.2453913.4675691-.0538087.5679061-.9532565.9495746-1.9863391 1.196-3.0704957.151116-.6651434.2620829-1.3400434.4032155-2.073926z" fill="#fff" fill-rule="evenodd"/></svg>