<svg height="44" viewBox="0 0 44 44" width="44" xmlns="http://www.w3.org/2000/svg"><path d="m31.9762764 27.8374577c.084174.542648-.0935266.772369-.2730978.772369-.1795711 0-.4414457-.2206769-.7295078-.6584129-.2880621-.4377361-.3890709-.9243105-.2487809-1.1757374.1091533-.1804118.3462559-.2451218.536843-.146515.4769859.1736474.6640392.8808986.7145435 1.2064875zm-2.643063 1.190208c.5723831.4684861.7482132 1.0256048.4433163 1.4181202-.1867919.2232446-.4721203.3474402-.768789.3346329-.3200522-.000125-.6298899-.1089601-.8754094-.3075005-.5200082-.4395449-.6733919-1.1540315-.3329549-1.5592087.1532125-.1674002.377082-.2579906.6079232-.2460004.3424923.0108196.6701858.137573.9259138.3581477zm-.9577128 4.5220669c2.4672329 0 5.1439655.8175897 8.1068896 3.3571825.2974148.2550445.6920972-.0615001.4339637-.3780448-2.9124198-3.5561534-5.6115988-4.2326546-8.2920724-4.8042439-3.2846559-.7036336-4.9756176-2.4925633-6.1596649-4.4551403-.2338167-.3907066-.3385665-.3219712-.3610129.1808827-.0193791.7453852.0389013 1.4907634.1739596 2.2248569-.1328079 0-.2656157 0-.4002941 0-4.7004539 0-8.5109248-3.684769-8.5109248-8.2301618s3.8104709-8.2301618 8.5109248-8.2301618c4.700454 0 8.5109248 3.684769 8.5109248 8.2301618.0009431.3196993-.0171688.6391855-.0542455.9568694-.8966435-.108782-1.8027-.1251532-2.70292-.0488384-.3236022.0271324-.2768389.1808827-.0336696.2152504 2.8057994.4920009 4.745542 2.1705921 5.1888583 5.2455976.0052304.0305482.0291097.0549701.0603578.0617292.0312482.0067592.0636117-.0054971.0818027-.0309791 3.0014284-4.8518531 2.2459082-11.0501473-1.8398551-15.0941865-4.0857633-4.04403915-10.4761833-4.91871043-15.5620545-2.1300136-5.0858712 2.7886967-7.59056552 8.540758-6.09947227 14.0075127 1.49109327 5.4667547 6.60368787 9.2759676 12.45027337 9.276257 1.8798856-.0036176 3.7522891-.3581477 6.4982314-.3581477z" fill="#fff"/></svg>