<svg height="44" viewBox="0 0 44 44" width="44" xmlns="http://www.w3.org/2000/svg"><g fill="#fff" transform="translate(9 9)"><path d="m0 26v-26h26v26zm1-1h24v-24h-24z"/><path d="m2 8.1837159.72777895-.73999684 3.7022021 3.76440724 1.01647579-1.033204v-2.5096134l1.08894316 1.07034541v3.02615119l1.45183579 1.476114-7.51364211 7.6761471 2.97641053 3.0261833 7.51362319-7.6392819 7.6088233 7.699032h-18.5724507zm0-1.50825077v-4.67546513h22v4.78109702c-.3098964-1.1187827-.8935651-2.14969408-1.7079832-2.99067562-.5857347-.66917582-1.4184399-1.06105919-2.2992609-1.08206616-.880821-.02100696-1.7306828.33074836-2.3466338.97126483l-3.5935137 3.65357378.9075158.88555665-1.9964589 2.029806-1.9602253-2.029806.8712947-.88555665-3.55727996-3.65357378c-.61655385-.63935425-1.46616251-.99030165-2.34658858-.96930411-.88042606.02099755-1.7129156.41206182-2.29930616 1.08010544-.79626185.80837729-1.36736211 1.80368536-1.67156 2.88504373zm22 1.51754789v15.80698698h-3.3999947l2.9626663-3.0122092-7.6226211-7.7498713 1.4880506-1.476114v-3.02615119l1.0527094-1.07034541v2.5096134l1.0527411 1.033204 3.702461-3.76440724z"/></g></svg>