<svg height="44" viewBox="0 0 44 44" width="44" xmlns="http://www.w3.org/2000/svg"><g fill="none" fill-rule="evenodd" transform="translate(10 10)"><path d="m-.5 24.5v-25h25v25z" fill="#fff200" stroke="#000"/><path d="m11.9636274 15.300968 7.6226337 7.713006 2.9764105-3.0261832-7.6226211-7.7498713 1.4880506-1.476114v-3.02615119l1.0527094-1.07034541v2.50961337l1.0527411 1.03320403 3.702461-3.76440724 1.0162106.99666622c-.0552853-1.74540264-.7551458-3.40559842-1.9602064-4.64996388-.5857347-.66917582-1.4184399-1.06105919-2.2992609-1.08206616-.880821-.02100696-1.7306828.33074836-2.3466338.97126483l-3.5935137 3.65357378.9075158.88555665-1.9964589 2.02980602-1.9602253-2.02980602.8712947-.88555665-3.55727996-3.65357378c-.61655385-.63935425-1.46616251-.99030165-2.34658858-.96930411-.88042606.02099755-1.7129156.41206182-2.29930616 1.08010544-1.21551176 1.23400626-1.90633593 2.90361201-1.92399158 4.64996388l.98021053-.99666622 3.7022021 3.76440724 1.01647579-1.03320403v-2.50961337l1.08894316 1.07034541v3.02615119l1.45183579 1.476114-7.51364211 7.6761471 2.97641053 3.0261833z" fill="#231f20"/></g></svg>