<svg height="44" viewBox="0 0 44 44" width="44" xmlns="http://www.w3.org/2000/svg"><g fill="none" transform="translate(9 8)"><path d="m18 16v-4c2.6738751 0 8 1.2661272 8 8 0 .595133-.1206836 2.8318384-1.6805023 4.7323684-.78549.9569433-1.8116498 1.7330858-3.0596442 2.2649838-1.5416812.6562115-3.6351587 1.0026478-5.4935473 1.0026478h-9.7663062v-4.0019531h6.975933c.0027904 0 .4046041.0030609 2.7903732 0 2.4283223-.0029913 3.9365191-.2354097 5.0715034-1.20404.9061737-.7762121 1.2467851-1.6868979 1.2467851-3.111878 0-2.2000732-1.4107196-3.6821289-4.0845947-3.6821289zm5-16v4h-17v-4z" fill="#b31b2c"/><path d="m16 12h-6v-6h-3.939v6h-6.061v4h6.061v6h3.939v-6h6z" fill="#cca266"/></g></svg>