<svg height="44" viewBox="0 0 44 44" width="44" xmlns="http://www.w3.org/2000/svg"><g fill="none" fill-rule="evenodd"><path d="m8 24h29l-3 8h-29z" fill="#04aac8"/><path d="m12.5591947 16.7726297c-.0116894-.0024834-.0233788-.0049224-.0350682-.0074058 0-.0589357.0048851-.1184035-.0007415-.176807-.0578801-.5968958-.4567595-.95153-.9993142-.8903326-.4042444.0455432-.632755.2996895-.634238.7081596-.0010904.295122-.007066.5905543.0050596.8851441.0035766.0868293.0414364.189224.0975717.254102.4099147.4741464 1.1787118.3554324 1.4231864-.2233259.0727971-.1722838.0970483-.365765.1435442-.5495344zm-4.20866926-2.9781375c.64557849 0 1.26961007-.0032372 1.89351076.005632.0552631.0007982.1364783.0696674.1591157.126164.0704418.1756542.1184643.3606209.1779146.5506874.1808806-.1557428.3423952-.3249667.5311705-.4525499 1.3185486-.8911308 3.0922866-.3900222 3.7218139 1.0855876.5093183 1.1938359.4818831 2.4057206-.1270133 3.5656319-.7687972 1.4645233-2.723503 1.5330377-3.6780658.7982262-.0274353-.0211087-.0563099-.0402217-.1117474-.0796009v2.6819069h-2.56669896zm24.43513506 3.2425677c.0232479.129623.0339342.2632372.0721865.3881153.0976153.3186696.3313164.4851441.6677796.4929933.3657304.0084701.6046656-.1333481.7199895-.4499335.1070803-.2940576.1175048-.6034589-.0256033-.8804878-.0740621-.1433703-.2192202-.2856319-.3653379-.3470953-.5632291-.2369845-1.0406632.1337029-1.0690144.796408zm3.459369-5.9927273c0 .6807982.0049724 1.3651885-.0073277 2.0492683-.0013521.0718847-.0920759.1603548-.1625614.2097117-.3596676.251663-.7824057.2918847-1.1986884.3596896-.3713134.0604878-.7506088.1088249-1.1053477.2275832-.5578642.1867849-.8574273.6222173-.9733182 1.2549002.1206452-.0991574.2027328-.1726386.2906215-.2380488 1.391433-1.0345898 3.318529-.2698004 3.6478391 1.4479379.1157165.6033703.1274931 1.2049668-.081477 1.7913526-.2736108.7677162-.824191 1.2592461-1.5650731 1.5247893-.9258192.3317517-1.866948.3430156-2.8010108.0306874-.919102-.3073614-1.5079781-.9663415-1.766541-1.8956098-.3528197-1.2682926-.3080685-2.5435033.1198601-3.7885144.4020635-1.1700222 1.2883219-1.8356097 2.3856003-2.2617295.6642467-.2579601 1.3662658-.3279379 2.0592126-.4482483.384006-.0666962.7615131-.1720621 1.1582117-.2637694zm-17.627599 4.7062395h1.1866501v-1.9430599h2.5504298v5.9133925h-2.5467223v-1.9426165h-1.1751788v1.9360976h-2.5623809v-5.9055876h2.5472021zm11.317862 3.9809977c-.8322602 0-1.631066.0036808-2.4296101-.0069179-.0648152-.0008426-.1594209-.0863415-.1876849-.1548115-.2183914-.5301109-.4299349-1.0632816-.629571-1.6009313-.0611077-.1645233-.1413198-.2358315-.3170099-.208337-.1135793.0177383-.2319128.0033259-.3793826.0033259v1.961153h-2.5507351v-5.9168514h2.5383914v1.9140133c.3946923.1016851.4466404.0781818.5850378-.2685145.1989382-.4984478.3922933-.9992017.5952878-1.4958758.0261268-.0639024.0952601-.1557871.1454199-.156408.7965377-.0098448 1.5932062-.0069179 2.4183132-.0069179-.2262862.6108647-.4101328 1.2103326-.6680414 1.7748115-.2635352.5768071-.2841662 1.0956541-.0205001 1.6918404.349025.7892239.5974687 1.6243902.900085 2.4704212z" fill="#323f49"/></g></svg>