<svg height="44" viewBox="0 0 44 44" width="44" xmlns="http://www.w3.org/2000/svg"><path d="m14 28c-7.7319865 0-14-6.2680135-14-14s6.2680135-14 14-14 14 6.2680135 14 14-6.2680135 14-14 14zm6.528315-19.90737767c.0478882-.11490569.0478823-.24418196-.0000165-.35908325-.0991691-.23789018-.3724095-.35034589-.6102997-.25117684l-14.36292107 5.98745666c-.09062696.0377795-.15810103.1161242-.18202549.2113511-.04186658.1666422.05928407.335672.22592587.3775403 2.45256243.6161728 4.06664004 1.4433981 5.37285349 2.7412897 1.2915649 1.2833364 2.4723773 3.2135403 3.0118165 5.5309981.0226961.0975036.0909249.1781287.1833313.21664.1586014.0660989.3407569-.0088892.4068558-.1674906z" fill="#fff" fill-rule="evenodd" transform="translate(8 8)"/></svg>