<svg height="44" viewBox="0 0 44 44" width="44" xmlns="http://www.w3.org/2000/svg"><g fill="none" fill-rule="evenodd" transform="translate(8 8)"><circle cx="14" cy="14" fill="#000" r="14"/><path d="m20.528315 8.09262233-5.9544798 14.28752517c-.0660989.1586014-.2482544.2335895-.4068558.1674906-.0924064-.0385113-.1606352-.1191364-.1833313-.21664-.5394392-2.3174578-1.7202516-4.2476617-3.0118165-5.5309981-1.30621345-1.2978916-2.92029106-2.1251169-5.37285349-2.7412897-.1666418-.0418683-.26779245-.2108981-.22592587-.3775403.02392446-.0952269.09139853-.1735716.18202549-.2113511l14.36292107-5.98745666c.2378902-.09916905.5111306.01328666.6102997.25117684.0478988.11490129.0479047.24417756.0000165.35908325z" fill="#fff"/></g></svg>