<svg height="44" viewBox="0 0 44 44" width="44" xmlns="http://www.w3.org/2000/svg"><g fill="#fff" transform="translate(8 4)"><path d="m9.79818263 23.3096585v-1.4070386l-.02187494-.075477-.13569231-.3278572-.168-.3321428-.17015384-.3-.20030769-.3-.20676923-.2828572-.23907693-.2828571-.48892307-.5378572-.52123077-.525-.52984616-.4992857-.53846154-.5078571-.52984615-.5271429-.48246154-.5442857-.23476923-.2657143-.21753846-.3-.18953846-.2914286-.17015385-.3107142-.16153846-.3214286-.15292308-.3278572-.10123077-.3471428-.08615384-.3578572-.056-.375-.028-.3985714.01713628-3.2648546c-3.77687181 4.957391-3.42686622 12.0493175 1.05001677 16.6110905 1.28608238 1.307107 2.84403153 2.3152034 4.56333727 2.9527816v-3.0089213l-.05202878-.1543819-.14215385-.3557143-.18738462-.3385714-.18092307-.3278572-.21969231-.3107142-.23476923-.3-.25415385-.3-.52984615-.5678572-.57723077-.555-.57723077-.54-.58584615-.5378571-.57723077-.5571429-.52984616-.5764286-.26492307-.2828571-.22615385-.3085714-.21969231-.3192857-.18738461-.3214286-.17230769-.345-.15938462-.3471429-.112-.375-.09476923-.375-.05815385-.3921428-.028-.4307143.00646154-3.4778572.03230769.4221429.05384616.3921429.10553846.3857142.11415385.3642858.16153846.3557142.17015384.3364286.18953846.3278572.21538462.3128571.22830769.3.25415385.3.53846154.5657143.56861538.5485714.59446154.5485714.57938462.5378572.56646153.5464286.53846154.5657142.25630769.3021429.22615385.3.21969231.3128571.18738461.3278572.18953847.3364286.14215384.3557142zm0-4.7607818v-.343843h2.41351827c.8032143-.1237966 1.5701125.3793362 1.7763941 1.1654247.2167219-.7472015.9490253-1.2220838 1.7196317-1.1151427h.5499693c.6335492-.0728248 1.252031.2274459 1.5866648.77032l-.1264862-.6328826h.0002234 8.6770451c.0064807-.1309566.0087155-.2619132.0087155-.3928699.0045834-3.3346693-1.304855-6.5368707-3.6446361-8.91287306-2.3018199-2.36503908-5.4619301-3.69914828-8.7621886-3.69914828-3.3002584 0-6.46036862 1.3341092-8.76218854 3.69914828-.37932811.38652086-.72902837.79120631-1.04910078 1.21121886l.01856311.3796281.056.3771429.09261539.3557143.1076923.3492857.14.33.16153847.3171429.17015384.3107142.19815385.2935715.20676923.2807143.23907692.2828571.49107693.5442857.52123076.51.53846154.5185714.52984616.5057143.52984615.5185715.48030769.5357142.23692308.2828572.21753846.2828571.20030769.2914286.17015385.3085714.17015385.3214286.13138461.3385714zm4.41654107-14.04715841c7.3899988.07285234 13.3297393 6.10788551 13.2850255 13.49816041-.0000334 5.4796875-3.3124215 10.415736-8.3832628 12.4925556-5.0708412 2.0768195-10.89401838.8823435-14.7377732-3.0230776-3.84375482-3.9054211-4.94543906-9.7469038-2.78823262-14.7841023 2.15720644-5.03719855 7.14528727-8.27067078 12.62424312-8.18353611zm-2.5596963 22.14689001v.0002235c.0871548 0 .1854833 0 .2835884.0087155.4500978.0628277.9075861-.0420009 1.2854219-.2945407.2228669-.282663.3248916-.6420011.2838119-.9996059v-5.3187167c.0426019-.3583494-.0595568-.7188838-.2838119-1.0016172-.2894448-.2175989-.6499108-.3188586-1.0103256-.2838139h-1.8548334v11.2982505c.4257211.1334094.8584161.243449 1.2961487.3296264zm2.3437943 3.9653491c.0283812 0 .0545277-.0020113.0806741-.004246-.1342797-.3202096-.1982931-.6655031-.1877181-1.0125675v-3.282408c-.3168594.6187659-.9889338.9710503-1.6780656.8795995v3.2866541c.590929.088412 1.1876035.1328566 1.7851096.1329679zm3.5331226-7.7452136v.0002235-2.7264011c.0380846-.3661456-.0597425-.7335171-.2748729-1.0322333-.463861-.2802994-1.0131611-.3841468-1.5473334-.2925294-.3567217-.0386858-.7141291.0666146-.9928946.2925294-.2185791.297344-.3196486.6649369-.2838118 1.0322333v9.4561421c-.0309557.3508322.0583323.7017609.2531959.9951363.9500711-.0536298 1.8905578-.2186418 2.8021394-.4916461.0302964-.1669934.0448859-.3364575.0435774-.5061719v-6.1828965h-1.2738013v6.3715098h-.5499693v-9.8315809h.5499693v2.9156848zm4.0810805 5.0762458-.0006704.0006704h.0022348v-4.313077c.1031607-.5260379-.2120766-1.0438761-.7267372-1.1938061l.7267372-3.5047661h-1.3531346l-.2181105 3.8279117h-.1550909l-.2181105-3.8279117h-1.2831872l.6348893 3.5047661c-.4997437.1674663-.8027092.6743418-.7135522 1.1938061v6.1936233c.4661621-.1769791.9209742-.3825192 1.3618501-.6154515v-5.7330403h.5810321v5.4101182c.4746133-.2833333.929594-.5983279 1.36185-.9428431zm-3.5308878-5.521409v.0008939c.1115752-.0986009.2412996-.1745081.381917-.2234755l-.381917-1.9531758zm3.9829756.355773v-3.7253365l-.6089664 3.1469819c.2787386.0928928.5018322.3047718.6089664.5783546zm4.2205283-3.0269756h.0006704-.0020113v-.8447373h-3.5901084v8.0728287l.0699474-.0654783c.5187104-.531274.9910655-1.1059094 1.4119081-1.7176327v-3.7405328h.625727v2.7302001c.5851426-1.0459975 1.0172695-2.1704988 1.2831872-3.3391708-.4389999-.3775636-1.0283855-.5299678-1.5953803-.4125358h-.3142043v-.5084067h2.0863525c.0087154-.0589975.0174309-.1177716.0239117-.1745344zm-14.6303901 5.7962839v-5.6914739h.5586848v5.6914739z"/><path d="m26.2898462 12.5494286h-7.7719385c-.0078558-.1774677-.1547571-.3173245-.3333077-.3173245s-.3254519.1398568-.3333077.3173245h-.28c-.0366944-.1634916-.1686653-.2889557-.3344923-.318-.1644413.0317395-.2951546.156008-.3344923.318h-.2164615c.1708793-.2279463.2637382-.5044256.264923-.7887857.0136384-.377171-.1303942-.7431087-.3978385-1.0107721-.2674442-.2676633-.6343974-.4131299-1.0135769-.4017994-.816707-.0315367-1.5051747.6001398-1.5395692 1.4125715.0602006.3280948.1822438.6418978.3596923.9248571-.1498175.0337899-.2538715.1693896-.2471504.3220784.006721.1526889.1222913.2787197.2745043.2993502-.1947579.3042077-.3256786.6444538-.3848923 1.0002857.0345096.8123467.7229428 1.4438957 1.5395692 1.4123571.3791407.0113272.7460586-.1341105 1.0134958-.4017262.2674373-.2676157.4114969-.6334964.3979196-1.0106309-.0008372-.2838595-.0938357-.559853-.2651385-.7868572h.2166769c.0109868.175772.1574777.3127337.3344923.3127337.1770147 0 .3235056-.1369617.3344924-.3127337h.2776307c.0100498.175828.1562926.3132861.3333077.3132861.1770152 0 .323258-.1374581.3333077-.3132861h5.7066154v.3158572h-.2672923v.6362143h.2672923l.2522154.3495-.5195077-.0773572v.8537143h.5203692v-.387h.7678462v.3872143h.5195077v-.8537143l-.5195077.0773572.2524307-.3495h.267077v-.6362143h-.267077v-.3158572h.7908923c.2040687-.0034022.367363-.1695904.3661539-.3726428v-.2239286c.0018435-.0977479-.0355142-.1922022-.1038171-.2624888s-.1619275-.1106185-.2601829-.1120826zm-10.4935385-.1002857c.258484.0707309.4376057.3045708.4376057.5712857s-.1791217.5005547-.4376057.5712857l-.1305231.3117857c.3385846 0 .7256308.0428571.7256308.4373571.0142148.2301178-.0704423.4554191-.2329006.6198275s-.387439.2524617-.6189456.242244c-.5090432.0286185-.9463048-.3559406-.9802154-.8620715 0-.3726428.1367693-.4268571.5132616-.5483571l-.1094154-.2217857.2399385-.2177143c-.139093-.0594904-.2292313-.1956569-.2292313-.3462857 0-.1506289.0901383-.2867953.2292313-.3462857l-.208277-.1568572.0777539-.2260714c-.3743385-.1234286-.5132616-.1757143-.5132616-.5505.033228-.5064643.4709233-.8914048.9802154-.8620714.2313908-.0098082.4561258.0783755.6184905.2426891.1623647.1643137.2471569.3893727.2333557.6193823 0 .3955714-.3323385.4375714-.7256308.4375714z"/><path d="m7 0h6v5h-6z" fill-opacity=".4"/><path d="m10.2652308 14.8071429 2.8947692-2.8114286v1.9178571l-2.8947692 2.8285715zm0-7.06928576 2.8947692-2.81357143v1.92l-2.8947692 2.82857143zm0 2.35714286 2.8947692-2.81357143v1.91785714l-2.8947692 2.83071429zm0 2.3571429 2.8947692-2.81571433v1.92000003l-2.8947692 2.8285714zm-.28430772 2.355v1.935l-2.89476923-2.8285715v-1.9178571zm0-7.06928576v1.935l-2.89476923-2.82857143v-1.92zm0 2.35714286v1.935l-2.89476923-2.83071429v-1.91785714zm0 2.3571429v1.9328571l-2.89476923-2.8285714v-1.92000003zm.28430772-7.07142861 2.8947692-2.81142858v1.91785715l-2.8947692 2.82857143zm-.28430772 0v1.935l-2.89476923-2.82857143v-1.91785715z"/></g></svg>