<svg height="44" viewBox="0 0 44 44" width="44" xmlns="http://www.w3.org/2000/svg"><g fill="none" fill-rule="evenodd" transform="translate(8 4)"><path d="m14.206771 5.00165465c-5.27603159-.08390746-10.07936869 3.02980654-12.15667859 7.88044215-2.07730991 4.8506356-1.01642878 10.4757671 2.68496475 14.236543s9.30889744 4.911012 14.19192974 2.9111117c4.8830324-1.9999003 8.0727394-6.7531322 8.0727716-12.0298683.0430577-7.1165611-5.6766923-12.92807445-12.7929875-12.99822855z" fill="#008b53"/><g fill-rule="nonzero"><path d="m14.2147237 4.50171829c-5.47895585-.08713467-10.46703668 3.14633756-12.62424312 8.18353611-2.15720644 5.0371985-1.0555222 10.8786812 2.78823262 14.7841023s9.666932 5.0998971 14.7377732 3.0230776c5.0708413-2.0768196 8.3832294-7.0128681 8.3832628-12.4925556.0447138-7.3902749-5.8950267-13.42530807-13.2850255-13.49816041zm-2.5596963 22.14689001v3.7385215c-.4377326-.0861774-.8704276-.196217-1.2961487-.3296264v-11.2982505h1.8548334c.3604148-.0350447.7208808.066215 1.0103256.2838139.2242551.2827334.3264138.6432678.2838119 1.0016172v5.3187167c.0410797.3576048-.060945.7169429-.2838119.9996059-.3778358.2525398-.8353241.3573684-1.2854219.2945407-.0981051-.0087155-.1964336-.0087155-.2835884-.0087155zm2.3437943 3.9653491c-.5975061-.0001113-1.1941806-.0445559-1.7851096-.1329679v-3.2866541c.6891318.0914508 1.3612062-.2608336 1.6780656-.8795995v3.282408c-.010575.3470644.0534384.6923579.1877181 1.0125675-.0261464.0022347-.0522929.004246-.0806741.004246zm3.5331226-7.7452136h-1.2738013v-2.9156848h-.5499693v9.8315809h.5499693v-6.3715098h1.2738013v6.1828965c.0013085.1697144-.013281.3391785-.0435774.5061719-.9115816.2730043-1.8520683.4380163-2.8021394.4916461-.1948636-.2933754-.2841516-.6443041-.2531959-.9951363v-9.4561421c-.0358368-.3672964.0652327-.7348893.2838118-1.0322333.2787655-.2259148.6361729-.3312152.9928946-.2925294.5341723-.0916174 1.0834724.01223 1.5473334.2925294.2151304.2987162.3129575.6660877.2748729 1.0322333v2.7264011zm4.0810805 5.0762458c-.432256.3445152-.8872367.6595098-1.36185.9428431v-5.4101182h-.5810321v5.7330403c-.4408759.2329323-.895688.4384724-1.3618501.6154515v-6.1936233c-.089157-.5194643.2138085-1.0263398.7135522-1.1938061l-.6348893-3.5047661h1.2831872l.2181105 3.8279117h.1550909l.2181105-3.8279117h1.3531346l-.7267372 3.5047661c.5146606.14993.8298979.6677682.7267372 1.1938061v4.313077h-.0022348zm-3.5308878-5.521409v-2.1757574l.381917 1.9531758c-.1406174.0489674-.2703418.1248746-.381917.2234755zm3.9829756.355773c-.1071342-.2735828-.3302278-.4854618-.6089664-.5783546l.6089664-3.1469819zm4.2205283-3.0269756c-.0064808.0567628-.0151963.1155369-.0239117.1745344h-2.0863525v.5084067h.3142043c.5669948-.117432 1.1563804.0349722 1.5953803.4125358-.2659177 1.168672-.6980446 2.2931733-1.2831872 3.3391708v-2.7302001h-.625727v3.7405328c-.4208426.6117233-.8931977 1.1863587-1.4119081 1.7176327l-.0699474.0654783v-8.0728287h3.5901084v.8447373h.0020113zm-8.5677663-1.3596249.1264862.6328826c-.3346338-.5428741-.9531156-.8431448-1.5866648-.77032h-.5499693c-.7706064-.1069411-1.5029098.3679412-1.7196317 1.1151427-.2062816-.7860885-.9731798-1.2892213-1.7763941-1.1654247h-2.41351827v11.6582695c-1.71930574-.6375782-3.27725489-1.6456746-4.56333727-2.9527816-4.85657299-4.9486626-4.85657299-12.8748489 0-17.82351146 2.30181992-2.36503908 5.46193014-3.69914828 8.76218854-3.69914828 3.3002585 0 6.4603687 1.3341092 8.7621886 3.69914828 2.3397811 2.37600236 3.6492195 5.57820376 3.6446361 8.91287306 0 .1309567-.0022348.2619133-.0087155.3928699h-8.6770451zm-6.0626238 7.1559088h.5586848v-5.6914739h-.5586848z" fill="#fff"/><path d="m4.185 10.281.019.397.056.377.093.356.108.349.14.33.161.317.17.311.198.293.207.281.239.283.491.544.522.51.538.519.53.506.53.518.48.536.237.283.218.283.2.291.17.309.17.321.132.339.103.34.095.365.047.368.028.394-.017 3.303-.02-.395-.058-.375-.094-.358-.102-.349-.135-.328-.168-.332-.171-.3-.2-.3-.207-.283-.239-.283-.489-.537-.521-.525-.53-.5-.538-.508-.53-.527-.482-.544-.235-.266-.218-.3-.189-.291-.17-.311-.162-.321-.153-.328-.101-.347-.086-.358-.056-.375-.028-.399z" fill="#fff"/><path d="m3.634 14.458.032.422.054.392.105.386.114.364.162.356.17.336.19.328.215.313.228.3.254.3.539.566.569.548.594.549.579.538.567.546.538.566.257.302.226.3.219.313.188.328.189.336.143.356.112.366.105.384.056.392.028.422-.017 3.495-.03-.42-.056-.392-.095-.386-.123-.364-.142-.356-.187-.338-.181-.328-.22-.311-.235-.3-.254-.3-.53-.568-.577-.555-.577-.54-.586-.538-.577-.557-.53-.576-.265-.283-.226-.309-.22-.319-.187-.321-.173-.345-.159-.347-.112-.375-.095-.375-.058-.393-.028-.43z" fill="#fff"/><path d="m26.2898462 12.5494286h-7.7719385c-.0078558-.1774677-.1547571-.3173245-.3333077-.3173245s-.3254519.1398568-.3333077.3173245h-.28c-.0366944-.1634916-.1686653-.2889557-.3344923-.318-.1644413.0317395-.2951546.156008-.3344923.318h-.2164615c.1708793-.2279463.2637382-.5044256.264923-.7887857.0136384-.377171-.1303942-.7431087-.3978385-1.0107721-.2674442-.2676633-.6343974-.4131299-1.0135769-.4017994-.816707-.0315367-1.5051747.6001398-1.5395692 1.4125715.0602006.3280948.1822438.6418978.3596923.9248571-.1498175.0337899-.2538715.1693896-.2471504.3220784.006721.1526889.1222913.2787197.2745043.2993502-.1947579.3042077-.3256786.6444538-.3848923 1.0002857.0345096.8123467.7229428 1.4438957 1.5395692 1.4123571.3791407.0113272.7460586-.1341105 1.0134958-.4017262.2674373-.2676157.4114969-.6334964.3979196-1.0106309-.0008372-.2838595-.0938357-.559853-.2651385-.7868572h.2166769c.0109868.175772.1574777.3127337.3344923.3127337.1770147 0 .3235056-.1369617.3344924-.3127337h.2776307c.0100498.175828.1562926.3132861.3333077.3132861.1770152 0 .323258-.1374581.3333077-.3132861h5.7066154v.3158572h-.2672923v.6362143h.2672923l.2522154.3495-.5195077-.0773572v.8537143h.5203692v-.387h.7678462v.3872143h.5195077v-.8537143l-.5195077.0773572.2524307-.3495h.267077v-.6362143h-.267077v-.3158572h.7908923c.2040687-.0034022.367363-.1695904.3661539-.3726428v-.2239286c.0018435-.0977479-.0355142-.1922022-.1038171-.2624888s-.1619275-.1106185-.2601829-.1120826zm-10.4935385-.1002857c.258484.0707309.4376057.3045708.4376057.5712857s-.1791217.5005547-.4376057.5712857l-.1305231.3117857c.3385846 0 .7256308.0428571.7256308.4373571.0142148.2301178-.0704423.4554191-.2329006.6198275s-.387439.2524617-.6189456.242244c-.5090432.0286185-.9463048-.3559406-.9802154-.8620715 0-.3726428.1367693-.4268571.5132616-.5483571l-.1094154-.2217857.2399385-.2177143c-.139093-.0594904-.2292313-.1956569-.2292313-.3462857 0-.1506289.0901383-.2867953.2292313-.3462857l-.208277-.1568572.0777539-.2260714c-.3743385-.1234286-.5132616-.1757143-.5132616-.5505.033228-.5064643.4709233-.8914048.9802154-.8620714.2313908-.0098082.4561258.0783755.6184905.2426891.1623647.1643137.2471569.3893727.2333557.6193823 0 .3955714-.3323385.4375714-.7256308.4375714z" fill="#ffcb38"/><path d="m7 0h6v5h-6z" fill="#ffcb38" fill-opacity=".4"/><path d="m10.2652308 14.8071429 2.8947692-2.8114286v1.9178571l-2.8947692 2.8285715zm0-7.06928576 2.8947692-2.81357143v1.92l-2.8947692 2.82857143zm0 2.35714286 2.8947692-2.81357143v1.91785714l-2.8947692 2.83071429zm0 2.3571429 2.8947692-2.81571433v1.92000003l-2.8947692 2.8285714zm-.28430772 2.355v1.935l-2.89476923-2.8285715v-1.9178571zm0-7.06928576v1.935l-2.89476923-2.82857143v-1.92zm0 2.35714286v1.935l-2.89476923-2.83071429v-1.91785714zm0 2.3571429v1.9328571l-2.89476923-2.8285714v-1.92000003zm.28430772-7.07142861 2.8947692-2.81142858v1.91785715l-2.8947692 2.82857143zm-.28430772 0v1.935l-2.89476923-2.82857143v-1.91785715z" fill="#ffcb38"/></g></g></svg>