<svg height="44" viewBox="0 0 44 44" width="44" xmlns="http://www.w3.org/2000/svg"><path d="m7.56829594 12.4818571c.00798252.1547174.02243513.3397436.04770406.5489524.0998017.8251071.29821909 1.5833882.5838922 2.275286 2.6643049-.5249209 5.6649387-.5673357 6.752882-.5734288v-2.2508096zm-1.14547617 0h-5.15004558c.22451613 1.6510477 1.20309678 3.2083334 2.8407742 4.5157619.65242968-.6422492 1.72478849-1.1020313 2.95514856-1.4313103-.28472448-.7362296-.48415749-1.5345572-.58818082-2.3940706-.03211143-.2651421-.04917532-.4981244-.05769636-.690381zm8.52995443 7.93966v-4.444279c-1.4807253.0096023-3.9562545.1195395-6.14087717.5121884 1.29219587 2.0418585 3.47998367 3.3470681 6.14087717 3.9320906zm-7.32930818-3.6805201c-.9121648.2268319-1.71703109.5176077-2.29804667.8888601-.05574193.0356191-.10580645.0696667-.15174193.1031905 1.51640123.9763197 3.40900489 1.755653 5.57057728 2.2397757-1.30309165-.8239111-2.3700338-1.9035921-3.12078868-3.2318263zm7.33034048-14.89771129v-1.84328571h.1372903c.1816774.56938095.5553548 1.14871429 1.1091613 1.46247619.3938064.22314286.6198709.33576191 1.0534193.41328571.2363871.04190477.4464516.02933334.6131613.04242858 7.5829678.58509523 13.787871 4.60690476 13.787871 9.88166662 0 .9161429-.2379355 1.7029048-.5300645 2.5525239h-13.1153549v5.3884285h-1.2263226v-6.6335238h13.4565162c.120258-.4363333.1889032-.8700476.1889032-1.3074286 0-4.49742853-6.0516129-8.5878571-14.2498065-8.71776186v8.08866666h-1.2247741v-2.28590476c-1.0704517-.01047619-4.032-.09533333-6.66167747-.60185714-.39690322.913-.64412903 1.9087619-.70967742 2.9542857h21.97625809v1.2445714h-13.3796129v8.0394286c5.2975484-.0701905 9.9292903-1.9522381 12.2369032-4.3481428h-9.6185806v-1.2445715h12.0670967c-3.2867096 4.947381-9.0616774 6.7791429-14.7019355 6.839381h-.288c-8.45574189 0-15.8745806-4.2156191-15.8745806-9.9680953 0-5.53876186 6.89393548-9.65904758 14.9538065-9.95657139zm0 1.36347619c-.0345807 0-.0769033-.00366666-.1821936.00576191-2.4753548.34728571-4.5630968 1.81814286-5.8792258 3.92752381 1.6882581.30695238 3.7796129.48923809 6.0614194.5007619zm-8.60025811 8.0305238c.06245161-1.1377143.31277419-2.22409522.72-3.22823808-1.24490323-.32633333-2.32154839-.77366667-2.95122581-1.38495238-1.6516129 1.33204762-2.67612903 2.93333333-2.86451613 4.61319046zm1.26916129-4.36909522c.70348387-1.25138096 2.15741935-2.66252381 3.39509682-3.45557143-2.24722585.42952381-4.39690327 1.45409524-5.86529037 2.46766666.68387097.484 2.04335484.87685715 2.34064516.95438096z" fill="#fff" fill-rule="evenodd" transform="translate(6 11)"/></svg>