<svg height="44" viewBox="0 0 44 44" width="44" xmlns="http://www.w3.org/2000/svg"><path d="m15 30c-8.28427125 0-15-6.7157288-15-15 0-8.28427125 6.71572875-15 15-15 8.2842712 0 15 6.71572875 15 15 0 8.2842712-6.7157288 15-15 15zm0-1.3548387c7.5360145 0 13.6451613-6.1091468 13.6451613-13.6451613 0-7.53601449-6.1091468-13.64516129-13.6451613-13.64516129-7.53601449 0-13.64516129 6.1091468-13.64516129 13.64516129 0 7.5360145 6.1091468 13.6451613 13.64516129 13.6451613zm-6.07006275-11.4224774c.11887362-.1469821.36685877-.3536339.69390341-.5156764.46563574-.2367727 1.79353174-.3911896 2.52933484-.3810858.4360595.0047659.728409.2041735.9316506.4085377.2028625.2041735-.1461747.2341037-.3200298.0871217-.1755613-.1445038-.3689442-.1942604-.5721859-.1942604-.2028625 0-.4184275.0796868-.5323718.1643302-.1165985.0895999-.1461747.2093207-.4360595.2937735-.3516915.0997038-.7579852-.2190433-.7579852-.2190433.2849554.54065.775238.5231112 1.04787.4560066.1983123-.0524255.260119-.1446944.5522788-.149651.4656358-.0074349.669067.2642246.669067.2642246-.5822342-.0299302-1.5681079.3362858-2.0363979.4382772-.5822343.129634-1.13451315.1469821-1.13451315.1469821.37614873.4683981.93127145.4683981 1.34002985.4683981.4062937 0 1.7142827-.0972255 2.4997586-.0299302.9858737.0821651 1.7736247.7324321 1.7736247 1.6964895 0 .9638669-.6662231 1.4894565-.6662231 1.4894565.8423532-.261365 1.1917696-.9341273 1.1917696-.9341273.448383 1.7388112-.4832677 3.1289451-1.3356693 3.6968564-.7083123.4731641-2.8341972.9615792-4.46657657.1769123-1.80585518-.869501-2.48971026-1.7163159-2.48971026-1.7163159 3.92662113.3212254 5.84661023-.7724661 5.84661023-.7724661-3.54762861.2068424-6.02236118-.695067-7.6228892-1.3998565-.63911159-1.0212489-1.10474732-2.1372451-1.3775689-3.3504668v.0024783c2.93581811 2.2218885 5.53966221 2.6029743 5.53966221 2.6029743-3.17110066-1.7260384-4.74906734-3.65911-5.79731651-5.5866531.05479183-1.1259093.27756136-2.1784229.64423054-3.1886149l.00739405-.0175387c1.17679193 3.1476277 2.4698032 4.0848052 2.4698032 4.0848052-1.28068785-2.9274405-1.27082911-5.0236984-1.15423059-6.60313612.49066176-.70002355 1.04786999-1.32016969 1.68470648-1.88579329l.00966914-.01124766c-.49521194 2.8100074.09915615 4.63613097.09915615 4.63613097 0-2.2222698 1.2412529-4.86642194 2.22978087-6.21404353.62678816-.31512499 1.23120456-.54808489 1.91752436-.74120141h.0022751c-.9016953 1.13982593-1.2981303 2.24571826-1.2981303 2.24571826 1.8507883-1.77102909 4.9151492-2.83479037 5.3807849-2.95451117.4656357-.11438294 1.8062344-.61271125 2.185227-.69849845.3467621-.08349954.515119.13821271.4929368.35001178-.0293866.27509095-.1461747.73224141-.1461747.73224141 1.0279629.25164245 1.4740708.75988395 1.4740708.75988395-.039435-.13706888-.0199071-.37117262-.0199071-.37117262 1.4171934 1.26774418 1.8035801 1.87206735 1.8433942 3.02142519.0396246 1.15088295.5424201 1.32665139.8324945 1.48221218.2921599.15594207 1.0107101.5681019 1.2410633.76236225.1732863.14698207.0989666.31150286 0 .42855476-.0965018.1157174-.0965018.1555608-.1141338.2912952-.0868327.5978414-.3518811.8393801-.7185503.9741613-.3691338.1357344-.7778922-.0773991-.7778922-.0773991-.4061042.4485717-.4830781.1557514-.5027956-.0184919-.0172528-.1757685-.2330075-.0388902-.3863867.0184919-.1560334.0585259-.2131004-.1555608-.2131004-.1555608-.7380781-.0972255-1.0601934.3412424-1.0601934.3412424.6415763.0871217.963502.5255896.9908031.7011674.0297658.1793905.3196506.0587166.3196506.0587166s.0274907-.0587166.1463643-.1159081c.1162194-.0587166.1459852-.0299302.1162194.1159081-.0295763.1454569-.0595316.2638432-.0595316.2638432l.3223048.2056987c-.1190632.790958-.4656357.7570244-.6417658.6712372-1.11745-.5616202-3.1115691-.6712372-3.1115691-.6712372.1162193-.1757684.3962454-.4011028.3962454-.4011028-5.1183908 0-5.9829262.6251027-6.2453203.9552881-.1810595.2291471-.025026.5841155-.025026.5841155-.6093458.1172425-2.1552716.509576-2.74736457 1.0555639-.56972124.5231112-.76026029 1.7512027-.78035695 2.2045404-.00473978.0947472.08683272.0922689.12626767.0375557zm12.15658105-10.21782746c-.0989666.76846268-.3789926.70002356-.5052603.66265847-.1361264-.03984339-.1732862-.0972255-.5822342-.13573442-.128922-.01239148-.7255652-.07968678-.4062938.17309951.512844.41215983.9487139 1.24925227.9487139 1.24925227.0595316-.2728033-.0790595-.66246782-.1533792-.79839288-.0767844-.13821271.0199071-.1755778.1137546-.15689525.0991562.01868254.153948.05604763.3321636.15689525.1734759.09589103.2896952.07854295.3295094-.15689525.0322305-.20322035.0223717-.61766784-.0174424-.99265323-.005119-.0274519-.0494833-.04098722-.0595316-.00133447zm-4.5211789-.93908388c-1.008435.82088819-2.6681155 2.78388996-3.4509371 4.62335814-.0595316.1370689 0 .1582298.1931933.0400341.1956581-.1183864.7579852-.3900458 1.0281526-.4683982 0 0-.2923495 1.0187707-.389041 1.5803909-.0767844.4622977.3048625.4260764.5427993.3711726.2377473-.0535693 1.223621-.0970348 1.3969072-.1181957 0 0-.9113644-.2156118-1.0080558-.5865938-.0966915-.3686943.1634275-1.1932046.3490372-1.75253716.0400037-.11953016-.0195279-.29262967-.2129108-.21675566-.195658.07739912-.4656358.13573442-.6017622.21675566 0 0 .8546767-2.10731491 2.1725244-3.62956112zm1.2806879-2.10369278c.0572565-.06462636 0-.11724251-.1533792-.01868255-.1562231.09589103-.8400782.50938533-1.3007845 1.28547353-.0566878.09817869-.0221822.24401693.2229591.15937356.2999331-.10599485.6095354-.15937356.7456618-.17939057.1365056-.02001701.1365056-.11590804.0400037-.15327313-.0966915-.04098722-.1190632-.07854295-.076974-.23524757.0369703-.15575142.3096023-.60527635.5225131-.85825327zm5.1426369 19.62878802.0113358-.0078296c-.5984472.5347617-1.2409544 1.0053206-1.9482684 1.4169618.1537825-.2607257.6959782-1.6878659-.28746-3.5730377-.9868603-1.8798868-2.322993-2.9030197-3.6137824-3.7035963-1.2886505-.8003808-3.3902737-1.4042386-3.8067056-1.5218784-.4136515-.1201843-.3914075-.2403687-.3045707-.4807374.086623-.2405644.480811-.7999893.480811-.7999893-.1762403.0180081-.6568374.1585494-.8944624.2595512-.243186.0998274-.4386759.0794705-.5058355.0191825-.4416702-.4051817.480811-1.1994946.480811-1.1994946.0250245.2787337.1311109.4194708.5894641.3580084.4611337-.0573518 1.9929701-.1802765 2.3422426-.1802765 0 0-1.6629474 1.1803121-1.9482685 1.5811876-.281899.4016585.1762403.3223838.3969685.3634892.2179477.0381693 1.8250713.1201843 3.3678159.7594711.7853817.3249284 1.8415404 1.0718722 2.4508956 1.7391498.2179477.2431091.7659183.8416819 1.0065376 1.0231329 0 0-.874999-.1201844-1.3363466-.3605531 0 0 .4752501.4987455.7967176.8542093.7879483.8722174 2.2077096 1.8773423 2.7221004 3.4530491zm1.0113358-4.3750504c-.2116904.6271887-.4640972 1.2160142-.7663642 1.7841826-1.1134881-3.5783986-4.2336358-5-4.2336358-5 2.186605.5809561 3.9791588 2.2699193 5 3.2158174zm-7.3990173 6.3135309-.0037299.0025035c-.5023872.2214605-1.0572798.3826452-1.5972528.4681482 1.9213227-1.2407564 1.8616445-5 1.8616445-5 .3223483 1.5977892.0169279 3.6614158-.2606618 4.5293483zm9.3964448-10.1551224c.0025725.0655486.0025725.0981142.0025725.1580266 0 .4937025-.0308697.9767587-.0825171 1.4485422v.0192053c-1.9548827-1.9566488-3.9174829-2.8526199-3.9174829-2.8526199.8479272.1281748 1.86168.0421683 2.5285446-.1473801 0 0-.2841595.5538237-.9927773.5947394 0 0 2.1179381.6327326 2.4616602.7794865z" fill="#fff" fill-rule="evenodd" transform="translate(7 7)"/></svg>