<svg height="44" viewBox="0 0 44 44" width="44" xmlns="http://www.w3.org/2000/svg"><path d="m8.13848143 8.19204195-5.581665-3.16877219c.29003557-.39333147.60175965-.77064645.93376286-1.13023903l4.64790214 2.63722439 10.34507567-5.9652878c.5661225.22988568 1.1155356.49793213 1.644345.80223951zm0 3.32283175-7.03275429-3.98947809c.19461631-.44145017.41361256-.8720471.65600357-1.28985366l6.37675072 3.61923171 13.36825287-7.57775073c.3824796.28800423.7490394.59601948 1.0981028.92272097zm17.13768427-4.82634199v-.00002537c2.5643744 4.86433846 1.8166785 10.78556156-1.8790429 14.88069056-3.6957213 4.095129-9.5713955 5.5130836-14.76622121 3.5634771-5.19482571-1.9496064-8.6291753-6.8615919-8.63090159-12.3443647.00050143-.2983997.01064143-.5943347.03042-.8878049l8.10806143 4.60044zm-17.13768427 8.15172289-7.91034429-4.4891917c.09295749-.49165277.21431887-.97766413.36349072-1.45565753l7.54685357 4.28055123 15.55875647-8.82710148c.3001777.35614697.5812384.72755952.8420271 1.11271122z" fill="#fff" transform="translate(9 9)"/></svg>