<svg height="44" viewBox="0 0 44 44" width="44" xmlns="http://www.w3.org/2000/svg"><g fill="none" fill-rule="evenodd" transform="translate(7 7)"><path d="m30 .57310081c-3.1035265 1.91211514-5.1724138 5.341693-5.1724138 9.2544854 0 3.91279239 2.0688873 7.34237029 5.1724138 9.25448539v.5731008h-9.8275862l-8.2758621-9.82758619 8.2758621-9.82758621h9.8275862zm-10.3448276 12.35793369c1.7139872 0 3.1034483-1.3894611 3.1034483-3.10344829 0-1.71398716-1.3894611-3.10344828-3.1034483-3.10344828-1.7139871 0-3.1034483 1.38946112-3.1034483 3.10344828 0 1.71398719 1.3894612 3.10344829 3.1034483 3.10344829z" fill="#f45e40"/><path d="m18.1034483 10.9179284c-3.1035265 1.9121151-5.1724138 5.341693-5.1724138 9.2544854s2.0688873 7.3423703 5.1724138 9.2544854v.5731008h-9.82758623l-8.27586207-9.8275862 8.27586207-9.8275862h9.82758623zm-10.34482761 12.3579337c1.71398715 0 3.10344831-1.3894612 3.10344831-3.1034483 0-1.7139872-1.38946116-3.1034483-3.10344831-3.1034483s-3.10344828 1.3894611-3.10344828 3.1034483c0 1.7139871 1.38946113 3.1034483 3.10344828 3.1034483z" fill="#00673c" transform="matrix(-1 0 0 1 18.103 0)"/></g></svg>