<svg height="44" viewBox="0 0 44 44" width="44" xmlns="http://www.w3.org/2000/svg"><g fill="#fff" transform="matrix(1 0 0 -1 7 37)"><path d="m26.9527941 28.0892647c.06.0291177.1486765.0710294.2091177.1001471-.0979412-.0472059-.1672059-.0794118-.2091177-.1001471zm2.6902941.9754412c-.1667647.18-2.4172058-.8444118-2.4172058-.8444118.0295588.0194118.0652941.042353.1014705.0666177.4425.2558823 1.1457353.6238235.8827942.9229411-.1319118.147353-.4292647.0820589-1.287353-.4041176-.4027941-.2294118-2.5094117-1.0486765-4.6875-1.9098529-1.7969117-.7283824-5.0598529-2.0475-5.3514706-2.3497059-.0088235-.0101471-.0163235-.0172059-.0238235-.0282353-.0308824-.0467647-.0595588-.105-.0895588-.1641177-.1120588-.2360294-.2254412-.5973529-.3366177-1.0517647-.0039706-.015-.0075-.0277941-.0110294-.0432353-.0066176-.0277941-.0132353-.0573529-.0198529-.0847059-.1327941-.6030882-.252353-1.3407352-.3833824-2.1564705-.3842647-2.4772059-.7769117-6.1636324-.7769117-6.1636324s-.0988236-2.5102059-.3529412-3.7080882c-.049853-.2278236-.1072059-.3876177-.1508824-.5011765-.017647-.0597794-.0392647-.1197794-.0617647-.1773088-.0008823-.0007059-.002647-.0041471-.002647-.0060441v.001897c-.0869118-.2223088-.2047059-.4316912-.3683824-.59611763-.5029412-.51494118-1.7408823-.35051471-2.0827941-.31089706-.7994118.09136765-1.5829412.61230879-1.6914706.75017649-.1041176.1402941-.65647058.831-1.36588235.8952794-.20955882.0184412-1.06764706-.1218088-1.34911764-.1137353-.28235295.0086029-.67632353.3789706-1.12102942.4232647-.45264705.0520588-1.17220588-.3713823-1.17220588-.3713823s1.76867647-.6149118 1.98485294-.8920148c.21485294-.28001466.74602941-.98024995 1.39014706-1.25439701.64411765-.27472059 2.89455879-2.6472353 2.89455879-2.6472353s.4588236-.4360147 1.2216177-1.00729411c-.6666177-.21886765-1.3694118-.3739853-2.0995588-.44858824-5.03294122-.5147647-9.33176475 2.57104412-9.89426475 7.16408826-.12529411 1.0072941-.05073529 2.0080588.21485294 2.9643529.31147059 1.1525735.78926471 2.2589559 1.6275 3.2167941 1.52735295 1.7527942 3.61808824 2.8989706 6.05735295 3.1455883 1.48676466.1535294 2.99867646-.0595589 4.38705886-.5651471-.0105883.1477941-.0216177.2938235-.0308824.439853-1.3927941.4923529-2.9047059.6767647-4.43073529.5188235-2.50367647-.2567647-4.74661765-1.3852941-6.31632353-3.1839706-1.11617647-1.2700588-1.79294117-2.7719559-1.995-4.3540147-.04147059-.2186912-.0467647-.3765441-.07323529-.6641471-.04455882-.5378823-.02955882-1.56.03838235-2.1166323.57176471-4.65992649 5.17058824-8.01441179 10.27588236-7.49223532 1.0892647.11113236 2.1158823.39030883 3.0432353.80219118.7416176-.49111765 1.6341176-1.01157353 2.6055882-1.40280882 2.4017647-.97592648 5.3488236-1.08052942 6.004853-1.1554853 1.3747058-.16372059 2.6060294-1.76902941 2.9898529-2.08954412.3758824-.3167647 2.9519118.18697059 2.9519118.18697059s-.1852941.48202941-.2929412 1.09897059c-.1076471.61575-.8439706.89320588-.9877941 1.05264706-.1451471.15767647-3.4588236 1.53891176-3.9895588 1.84517647-.5254412.30330882-1.1938236.93886765-1.8869118 2.01542647-.6833824 1.08075-.3935294 1.88589706-.2801471 2.08870588.1222059.20077941.3882353.24335294.5430883.51079412.1623529.26986765.0335294.29073529.017647.42723529-.0132353.13786765.0441177.23797059.1852941.47338236.1420589.23369115.0833824.21335295.0833824.21335295s0 0 .0304412.2921029c.0291176.2922794 0 0 .0608823.0992647.0577941.1028824.0577941.1028824.0577941.1028824s-.015.1392794.0467647.2393823c.0577942.0980736-.0719117.2032059-.0467647.3236471.0255883.1184118.0582353.1008088.1076471.3353824.0423529.2385.0198529.1215.0282353.3756617.0141176.2553971.0802941.1375147.2214706.2826618.1310294.1506176-.1411765.3339706-.1411765.3339706s.0189706.1142647.244853.5661176c.2223529.4565294 0 0 .062647.1840588.0644118.1886912-.0785294.3477795-.1085294.5304265-.0304412.1947353.0255882.1256471.0675.3601765.0419118.2381912 0 0 .0820588.2195735.0802941.2176324.0476471.3227647.0476471.3227647l-.1513235.4644706s0 0 .0798529.1321765c.0811765.1364559-.0022059.396-.0022059.396l-.2069118.5344412s.0083824.2546911.0339706.3742941c.0225.1209706-.182647.654-.182647.654l.1319117.5413235-.1923529.7867059-.1270588.6697059s-.0216177 1.0089706-.0225 1.4011764c-.0092647.39-.0092647.8655883.0683823 1.3958824.0727941.5267647 1.7377941 1.1713235 1.9191177 1.4779412.175147.2995588-1.0107353-.0233824-1.0107353-.0233824s2.0925.567353 2.2354412.8064706c.107647.1791176-1.3676471-.0855882-1.3676471-.0855882-.1310294-.0229412 0 0 0 0 .5695588.1177941 2.0775.4566176 2.5919118.8616176.5792647.4729412-1.0147059.1094118-1.2710294.0458824.2611764.0648529 2.0152941.5002941 2.2570588.9838235.1411764.2775-1.3116177.0758823-1.3116177.0758823.7261765.1716177 1.5913236.4063236 2.1211765.6516177 1.0442647.4782353 1.1051471.8408823.8947059.9423529-.2113235.1014706-1.935-.4310294-1.935-.4310294-.0397059-.0127941-.0613235-.0198529-.09-.0291176.0485294.0163235.09.0291176.09.0291176.4980882.1755883 1.0477941.3908824 1.365.5854412.6657353.4045588 1.4863235.9083824 1.2008823 1.2247059z"/><path d="m3.50558824 18.9233824 1.68397058 2.185147-2.05411764-1.8710294-.93838236 3.1530882.16455883-3.2047058-1.72235294 1.0420588 1.57191176-1.489853-2.19264706-.5527941 2.22220588.1019118-1.83705882-2.3462647 2.18514706 1.9875882.90308823-2.9147647-.15705882 2.9081471 1.65485294-.9845294-1.59529412 1.5108529 2.19705883.5722059zm21.68294116 10.7686764c-.1623529.1716177-1.2295588-.3229412-1.2295588-.3229412s-6.5047059-2.8592647-9.372353-4.2798529c-.6172058-.3048529-1.3808823-.7857353-1.3866176-1.7060294-.0141176-2.9567647.6225-7.3109559.9441176-9.6025147.3216177-2.2925735.5404412-3.2434853.5302942-3.3193235.0110294.0799853.1297058.2835.2152941.6845294.2541176 1.1978823.3529412 3.7080882.3529412 3.7080882s.392647 3.6864265.7769117 6.1636324c.2629412 1.6491176.4875 2.9805882.8470588 3.5113235.2320589.3383823 5.4816177 2.3986765 6.3975 2.7886765 1.1188236.4764705 1.2436765.6017647 1.2661765.9423529.0233824.3410294-1.1704412-.0375-1.1704412-.0375s1.0292647.5073529 1.4025.7491176c.3785295.2382353.5885295.5497059.4261765.7204412z"/></g></svg>