<svg height="44" viewBox="0 0 44 44" width="44" xmlns="http://www.w3.org/2000/svg"><path d="m9.94134295 7.93782217v-7.43782217c1.16666665-.33333333 2.33333335-.5 3.50000005-.5 1.1666666 0 2.3333333.16666667 3.5.5v7.43782217l6.4413429-3.71891108c.8720085.8436963 1.5996794 1.77072594 2.1830127 2.78108891s1.0223291 2.10405928 1.3169873 3.2810889l-6.4413429 3.7189111 6.4413429 3.7189111c-.2946582 1.1770296-.733654 2.2707259-1.3169873 3.2810889s-1.3110042 1.9373926-2.1830127 2.7810889l-6.4413429-3.7189111v7.4378222c-1.1666667.3333333-2.3333334.5-3.5.5-1.1666667 0-2.3333334-.1666667-3.50000005-.5v-7.4378222l-6.44134295 3.7189111c-.87200847-.8436963-1.59967937-1.7707259-2.1830127-2.7810889s-1.0223291-2.1040593-1.3169873-3.2810889l6.44134295-3.7189111-6.44134295-3.7189111c.2946582-1.17702962.73365397-2.27072593 1.3169873-3.2810889s1.31100423-1.93739261 2.1830127-2.78108891zm-1.94134295 6.01652353 5.4796143 3.4980469 5.6033935-3.4980469c-1.6492513-.6362305-2.8437907-.9543457-3.5836182-.9543457-1.1097412 0-2.4518838 1.2564388-3.9859619 1.4516602-1.0227187.1301475-2.19386126-.035624-3.5134277-.4973145z" fill="#fff" fill-rule="evenodd" transform="translate(9 8)"/></svg>