<svg height="44" viewBox="0 0 44 44" width="44" xmlns="http://www.w3.org/2000/svg"><g fill="none" transform="translate(7 7)"><path d="m14.9644444 24.1571429c-5.12909086 0-9.30787874-4.1571429-9.30787874-9.2614286 0-5.10428573 4.17737373-9.26285716 9.30505054-9.26285716h.5826262v-5.63285714h-.5812121c-8.24727272 0-14.9630303 6.68428571-14.9630303 14.8942857 0 8.2642857 6.71575758 14.9485714 14.9644444 14.9485714h.5812122v-5.6828571h-.5812122z" fill="#ff4b5f"/><path d="m17.9779798 8.05285714h-3.0135354c-3.8068686 0-6.87414137 3.05285716-6.87414137 6.84285716 0 3.7885714 3.06727277 6.8414286 6.87272727 6.8414286h3.0149495v7.7371428c6.8727273-1.3157143 12.0220202-7.3157143 12.0220202-14.58 0-7.20999999-5.1478788-13.20999999-12.0220202-14.57857141z" fill="#003791"/></g></svg>