<svg height="44" viewBox="0 0 44 44" width="44" xmlns="http://www.w3.org/2000/svg"><g fill="#fff" transform="translate(14 7)"><path d="m16.3395892 11.2753158c-1.544111 4.4060342-6.34564592 6.7183639-10.72459109 5.1647632-4.37894517-1.5536008-6.67712293-6.3848291-5.13315372-10.79091364 1.5439692-4.40608454 6.34542966-6.71857075 10.72442481-5.16511273 4.3783813 1.55444181 6.6762845 6.38509301 5.13332 10.79126317zm.4778831 10.9697631.0026154.8565264c.0038446 1.6248421-3.7556923 2.9577105-8.39784308 2.9759473-4.64217693.0151579-8.41327385-1.2915-8.41850462-2.9160526l-.00261538-.8560526z"/><path d="m16.8174723 22.2450789c.0052308 1.6273685-3.7542538 2.9582106-8.39899384 2.9752895-4.64217692.0164474-8.41343077-1.2882895-8.41738-2.914921-.00523077-1.6253158 3.75425385-2.9594737 8.39771231-2.9751579 4.64217693-.0159474 8.41340463 1.2894473 8.41866153 2.9147894zm-16.81367999 6.5406316c0-.2392368 3.76202154-.4743947 8.40932461-.4743947 4.64217688 0 8.40702308.2351579 8.40702308.4743947v.5091053c0 .2345-3.7648462.4710526-8.40702308.4710526-4.64730307 0-8.40932461-.2365789-8.40932461-.4710526z"/></g></svg>