<svg height="44" viewBox="0 0 44 44" width="44" xmlns="http://www.w3.org/2000/svg"><g fill="#fff" transform="translate(6 15)"><path d="m11.8685405 10.9288421 3.4724325-.0033684c.6711351 0 1.2661621-.1810526 1.7228108-.4842105.486054-.3048421.8501621-.75789478 1.0663784-1.27242109l1.7868108-4.752-3.3504865.00168421c-.6676757 0-1.260973.12042105-1.7452973.42610526-.5180541.30315789-.9548108.87578947-1.0871351 1.30105263z" fill-opacity=".8"/><path d="m20.7541622 8.21136842-.7178379 1.75578947c-.307027.66610531-.8648648 1.39284211-1.2255135 1.63536841-.7022703.5136842-1.7072432.9684211-2.803027.9709474l-6.63956758.0058947 1.79545948-5.44084208.7178378-1.75578948c.307027-.66610526.864-1.3928421 1.2220541-1.63621052.7065946-.51284211 1.7072432-.96926316 2.8038919-.96926316l6.2538378-.00673684zm10.3827027-8.11115789h-21.0170811c-1.15891894 0-2.70962164.32421052-3.99654056 1.20336842-1.18227027.848-1.40886486 1.6328421-1.86464865 2.54315789-.07697297.18021053-.22227027.42273684-.288.63578948l-2.79968074 7.84952498-.95827027 2.6652632h21.63891892c1.1563243-.0016843 2.7087568-.3233685 3.9965405-1.2033685 1.1770811-.848 1.4105946-1.6353684 1.8603244-2.5423158.0787027-.1827368.2257297-.4252631.2914594-.6357894l3.1369781-10.46510396z"/></g></svg>