<svg height="44" viewBox="0 0 44 44" width="44" xmlns="http://www.w3.org/2000/svg"><g fill="none" fill-rule="evenodd" transform="translate(7 8)"><path d="m29.2307692.02080155c-4.7263918.31843536-8.4615384 4.25316233-8.4615384 9.06027953 0 4.80711722 3.7351466 8.74184412 8.4615384 9.06027952v.0208016h-20.14968812c-5.01534259 0-9.08108108-4.0657385-9.08108108-9.08108112 0-5.01534259 4.06573849-9.08108108 9.08108108-9.08108108h20.14968812z" fill="#17599c"/><path d="m.76923077 27.8944752c4.35613011-.668496 7.69230769-4.4324231 7.69230769-8.9755563 0-4.5431331-3.33617758-8.3070602-7.69230769-8.97555625v-.10552481h20.14968813c5.0153426 0 9.0810811 4.06573846 9.0810811 9.08108106s-4.0657385 9.0810811-9.0810811 9.0810811h-20.14968813z" fill="#149645"/><path d="m20.8003136 9.83783784c.3677265 4.45738156 3.9546246 8.00196866 8.4304556 8.30352276v.0208016h-20.14968812c-.21942447 0-.43703129-.0077823-.6525595-.023086-.35621584-4.1882313-3.55504965-7.5658727-7.65929081-8.19571355v-.10552481z" fill="#fff"/></g></svg>