<svg height="44" viewBox="0 0 44 44" width="44" xmlns="http://www.w3.org/2000/svg"><path d="m1.46756346 13.2642857c.88186539 1.7359908 1.61161539 3.3940092 2.53857692 4.926083.72557693 1.1990322 1.69682693 2.2410138 2.55634616 3.3547465.28821154.3735484.48946154.3547466.83515384-.0110599 2.0895-2.2117051 3.40644232-4.8822581 4.45725002-7.7202304.0714808-.1929954.1420192-.386682.21875-.5776037.0158846-.0398157.0568077-.0691244.1754038-.2068203.5657885 1.2801844 1.1169039 2.5057604 1.6417693 3.7432258.0608461.1436406.0082115.3630415-.0456347.5289401-1.2445192 3.8369585-2.7662115 7.5363595-5.1734038 10.7832719-.40586538.5473272-.89021154 1.0323042-1.32461538 1.5582028-.23571154.2854838-.40748077.301659-.70148077.0326267-1.66896154-1.5275115-2.91873077-3.387788-3.85565385-5.4331797-.99871154-2.1801844-1.81663461-4.4481567-2.68934615-6.687788-.10042308-.2575576-.14188462-.6165899-.04819231-.8633641.43023077-1.1315668.91834615-2.2400461 1.41507692-3.4270507zm2.07260577-7.00491704c.97905769 2.03184332 1.764 4.01073734 3.40428846 5.50119814 1.54538462-1.4987557 2.36775-3.37797233 3.16723081-5.52926265.6021346 1.16668203 1.0969807 2.20271889 1.661423 3.1972811.543577.95820275.5056154 1.82751155.0581539 2.84599075-1.1116539 2.5314747-2.32480771 4.9801383-4.16890386 7.0484793-.67280769.7545622-.74348077.7847005-1.44886539.0394009-2.20109615-2.3258986-3.57403846-5.1586175-4.67303846-8.1529493-.05196154-.1417051-.08130769-.3410599-.02490384-.4683871.6641923-1.49889399 1.34682692-2.98921657 2.02461538-4.48175114zm3.45884808 3.80818894c-1.56153846-1.40516129-2.40813462-3.16617511-3.05725-5.04718894-.05855769-.16976958-.00780769-.41585253.06798077-.59225806.63767307-1.48313364 1.45559615-2.84557604 2.5471923-4.0321659.30248077-.32889401.51167308-.34645161.8163077-.03262673 1.17626923 1.21202765 1.9775 2.66447005 2.60305769 4.23069125.04698073.11778802.06703843.28341013.02436543.39705069-.69703851 1.8543318-1.52748082 3.62737327-3.00165389 5.07649769z" fill="#ff420c" fill-rule="evenodd" transform="translate(15 6)"/></svg>