<svg height="44" viewBox="0 0 44 44" width="44" xmlns="http://www.w3.org/2000/svg"><g fill="none" transform="translate(6 7)"><path d="m32.842678 12.2158802-1.4100387.044225c-.6578057-.025599-1.293103-.2437623-1.825318-.6268205.0630667.005539.1251727.014413.1897867.014413.8644831.0001699 1.654107-.4848596 2.036892-1.2511687l.6063713-1.33045475c-.4867945.00376066-.9732991-.02465016-1.4562606-.0850425-.4615306-.10792574-.8770233-.35665949-1.1876407-.7109785-.4215872-.44479989-1.0096796-.69857142-1.62624-.70174925-.2412257.00101357-.4808494.03881253-.7104167.11206325.0339849-.10808272.0607481-.21825672.0801167-.32980975.0953466-.78318123-.1261766-1.57188555-.6163227-2.19433575l-1.0611333-1.297895-.6576093 1.52543625c-.1045359.21628949-.2649599.4014723-.4650654.53684075-.1124842-.54328628-.3838157-1.04197431-.78034-1.4342095-.6653483-.6740441-1.5797675-1.05098054-2.5323833-1.043884-.1654438-.00091909-.3307058.01098806-.4942667.035612l-1.2798793.24878375c.1092764-.42991931.2842215-.84085211.518804-1.21863075l.706398-1.08781175-1.7775193.19991875-.566324-1.1888405-1.0962527.558975-1.013892-.990176-1.0108413.9901615-1.0990614-.558975-.5650626 1.1888405-1.7769107-.200564.7073367 1.08873975c.2348896.37675035.4095691.78707807.5178726 1.21649925l-1.2214693-.23802475-.041954-.0067425c-.1687466-.02589809-.3393039-.03853332-.51007-.037787-.9517997-.0072793-1.86544172.36948801-2.52989 1.043275-.39712048.39230121-.6690832.89117766-.782188 1.43481125-.19708855-.13212912-.35562524-.31310966-.45974867-.52483475l-.65888533-1.53435375-1.07700267 1.30645c-.48173185.6222388-.69864994 1.4058562-.604538 2.18389575.01953148.11107156.04609119.22082248.07952267.32860625-.22906794-.07359396-.46834785-.11140309-.70920667-.11206325-.6168902.00327746-1.20531931.25700549-1.62745.70174925-.30809586.34949953-.71717089.59721007-1.17207933.70973875-.48601671.07178493-.97753203.10065719-1.46872733.086275l.603284 1.3304547c.38315331.7658376 1.17237275 1.2506846 2.03659133 1.2511543.06522267 0 .12736533-.008874.191048-.014413-.5275626.3802283-1.15670212.5984456-1.80891333.6274222l-1.43580067-.0447905.43521867 1.3485c.31869782 1.0596695 1.24106533 1.8327496 2.35061933 1.9701658-.116714.7129163-.57585564 1.3256165-1.23170667 1.6436475l-1.06986.435493.58338134 1.0045745c.480828.7403582 1.31288974 1.1843242 2.20278666 1.1753482.2316367-.0001043.46264208-.0238802.68933334-.0709485.05758352.250491.1279761.4979346.21090666.7413778.20203409.5275515.21693957 1.1072821.04227667 1.6443l-.52843267 1.0939597 1.17890667.3071245c.26691831.0671356.5412483.1011797.81666933.1013478.1941476.0011503.3877627-.0201967.576884-.0636043.13494004-.0311882.26717193-.072885.39545734-.1247.1515443.2690188.33783316.5174108.55418.7389273.85329465.8038994 2.00555447 1.2220192 3.18227803 1.154751l.8933466-.0125643-1.9209593.82244 1.51844.7256743c.6095269.3048825 1.2344077.5787866 1.8722.820642l-.1897867.5128722.5234314.235857c.8698249.3390009 1.7918181.5286632 2.7262253.5608093 0 0 .4038247.0184295.6262667.0184295s.6212726-.0196765.6212726-.0196765c.928096-.0335601 1.8436788-.2227683 2.7076647-.5595478l.524656-.2364587-.191334-.5135103c.6446976-.2446687 1.2763316-.5217381 1.8924327-.830125l1.4901333-.715575-1.993376-.821831.9720113.0126078c1.177314.067858 2.3302372-.3508328 3.18318-1.1559908.2163773-.2208878.4024908-.4688996.5535714-.7376802.1289206.0516877.2616402.0935812.3970046.1253162.1888818.04287.3821455.0639967.575938.062959.2723932-.0005741.5437123-.0337819.8080234-.0988972l1.1841646-.309575-.515966-1.0736815c-.1841169-.5421376-.172374-1.1306215.0332274-1.6651583.0832846-.2463332.1534573-.49416.2106133-.740776.228257.0471305.4608152.0709053.6939973.0709485.8933873.0097859 1.7279095-.4394814 2.204334-1.186709l.5775294-.9938155-1.0696107-.434275c-.6563002-.317306-1.1155795-.9302648-1.2313767-1.6434082 1.1072214-.1429328 2.0269434-.9141106 2.3503334-1.9707313z" fill="#fff"/><path d="m13.469302 16.3079108c.1762937.0563321.3605423.0845257.5458127.08352.0043486-.014413.0111686-.032567.0167713-.0546505.0111802-.0354376.0205059-.0714211.02794-.1078075.0290739-.160847.0451796-.3237229.0481653-.4870913-.1103501-.0648217-.200279-.1587217-.2597246-.2711935-.0501762-.137275-.1835324-.2274415-.3311294-.2238872-.1801533.015216-.3535373.0750059-.5041813.1738622-.0503032.3609586.1316817.7147902.4563387.887255" fill="#fff"/><path d="m21.2982 17.8225083h-9.7452667v3.6239705c0 1.4821102 1.0847614 2.4099 2.685848 2.4099 1.3372994 0 1.690194.0515982 2.1875334.5396102.3132874-.3294362.7513606-.5147612 1.2087166-.5113425l.0136474-.0562165.3072666-.938527c-.0171013-.021199-.5194126-.585075-.5194126-.585075-.2095596.06243-.4285358.0882066-.647064.0761685-.3248342-.0035746-.6486472-.0366798-.9673474-.0988972-.0333123-.0075847-.0673896-.0113962-.101574-.0113608-.0435013 0-.0463026.0033713-.057794.0245703l-.0608666.099499-.1115254.18241-.210628-.0479008-.9353446-.2177465-.1283334.2091553.01925.0224025.113718.1240692-.050644.1615373c-.0848494.1964489-.2070874.3749509-.3600666.525799l-.2336107.247863-.2130993-.2659735-.1599767-.1983963c-.172399-.2188873-.2151373-.5114809-.11242-.7696455l-.0093427.0040165-.2637506.1077713-.1186314-.2548883-.0832553-.1806047c-.1659399-.3793661-.0428286-.8217774.2960393-1.0638433l.7527007-.4201157.7163493.1391275c.0170574-.0678963.0428487-.311141.06336-.3731793-.0135484-.002292-.0272179-.0038194-.040942-.0045747l-.4125146.1523007-.3985447-.271469c-.0418733-.0373614-.0669322-.0896999-.0696155-.1454008-.0026834-.0557009.0172306-.110157.0553228-.1512837l.3851834-.5773537-.9769687-1.2122 1.5013387.609638.100034-.1222278.2025393-.2398735.2302007.216224c.0602476.0585802.1020926.1331218.1205013.214658.6302206.2141997 1.0960157.7458478 1.220538 1.3930948l-.2320267.0918285v.005539c.0285157.0389932.0666997.0700771.11088.0902625l1.0717227.1041172c.0273313-.0046182.0608667-.0165807.0990953-.0276225.1824239-.0680044.3751502-.1050773.5700567-.1096562.1936472.0008262.3847069.0440336.55946.1265197.0776178-.0278246.158935-.044275.2413693-.0488287l.0515827-.0012035c.4748536.0420199.8902737.3329838 1.0878487.7619387.0382213.0586598.0761126.1136293.1158666.1683233.200068.2797847.4619414.6882135.4725014.7060412l.1180666.18241-.1444666.1664745c-.1349949.1743034-.3442709.2766699-.566324.2770153-.0651896-.0005429-.1301848-.0071159-.1941354-.019633-.0584307-.0112206-.115498-.0285161-.1702506-.0515983-.0080667.0558903-.0201887.122525-.0304187.1799668l-.1879607.9695642c1.1046705-.2192089 1.8839495-1.2002403 1.8374767-2.3131922zm-9.7452667-.2918343h7.5797334c-.3056946-.3182988-.411773-.7759354-.276782-1.194075-.102067-.0484982-.1970534-.110381-.282392-.183976-.296362.2158978-1.2003494.866694-1.4367247 1.0300728l-.050644.0334877-2.9747373-.5316207h-.0602727c-.096955.0001809-.1938376-.0052489-.2901507-.0162618-.0294086.1300304-.1457517.2227526-.280522.2235683-.0159423.0000672-.0318547-.0013725-.04752-.0042993-.1593623-.026426-.2674597-.1748188-.2423006-.3326227l.0111686-.0635608c-.3795557-.2725664-.5614711-.7403279-.4643833-1.194075l.0121-.0531642.0435013-.0306748c.0062114-.0046182.0574714-.0393095.1345154-.0823092l-.2162307-.032886c-.0802417-.0135647-.1347718-.0880875-.122694-.167678.0060126-.038443.0273128-.0729173.0591637-.0957566.031851-.0228393.0716122-.0321503.1104416-.0258622l.5150714.080475.0469333-1.7926132.7660253-.8012265.47839.9953815-.50479 1.7244342.4551214.0709485c.0807909.0129181.1357106.0881162.122694.167997-.0115554.0704305-.0735188.1218869-.145684.1209808-.00789.000155-.0157822-.0001524-.0236354-.0009208l-.369952-.0589425c.0049574.0110418.0121.0175088.0167714.0288695.0409484.0711564.1030966.128097.1779726.1630598l2.2674007.0356555c.096294-.0924738.3339673-.3227845.5790327-.566631-.4352689-.1575297-.7429814-.5448849-.794618-1.0002825-.2829202-.1060985-.5142461-.3149001-.6468-.5838208-.1062794-.2496021-.1255134-.5270742-.05467-.7886767-.3573334-.1387085-.6798766-.3525918-.9452667-.6268205h-3.4158667c.1626224.3907652.2542267.8068339.2706 1.2290707z" fill="#ffe710"/><g fill="#231f20"><path d="m19.7415031 27.9477567-.5266389.1450834c-.9066787.2497803-1.8426193.3805342-2.7837501.3889059l-.0088328.0000005c-.9419611-.008262-1.8787434-.1390101-2.7862553-.3888885l-.5270269-.145114.2326054-.6222099c-.6716516-.1879093-1.325061-.4350316-1.9523524-.7384693l-1.1144358-.5390825 1.6325135-.5358557-.4719406-1.5221566 1.0432705.5146405c.5699882.2811726 1.1625421.515283 1.7716034.6999334l.5071907.1537659-.1276697.3469751c.5835039.13116 1.1793589.2002381 1.7738926.2059134l.0386594.0000236c.5988576-.0058258 1.1951741-.0748625 1.7788103-.2058136l-.1275858-.3472447.5070445-.1536466c.6091397-.184584 1.2017587-.4186868 1.7717854-.6999053l1.0418653-.5139967-.4700772 1.5215396 1.6304765.5359148-1.1129492.5389027c-.6272107.3037025-1.2806768.5508332-1.9524494.7384683zm1.5022982-1.8108042-.9223133-.3031515.272118-.880788c-.5523432.2724945-1.1249989.502568-1.7128924.6882157l.4530628 1.2140042c.6575114-.1809703 1.2968892-.4213931 1.9100249-.7182804zm-2.8487995.0416302c-.6384769.1481893-1.2917039.2262329-1.9478018.2326156h-.0435233c-.6561739-.0062412-1.3094795-.0843547-1.947969-.2328161l-.5011341 1.3423859-.058486.1564475c.8656794.2383601 1.6319877.2966685 2.5305791.3045502.8977593-.0079859 1.6509026-.113505 2.5157486-.3517609l-.0585182-.1568026zm-6.1375405-1.2255624.273086.880788-.9235673.3031515c.6133575.2966974 1.2528264.5371716 1.9103707.7184602l.4537906-1.2138712c-.5881566-.1857531-1.161074-.4159306-1.71368-.6885285zm6.7291034-21.0954258c.1165239-.5951501.3408956-1.16457826.6622953-1.6808255l-.920436.103472-.4818-1.01132425-.924792.471424-.8974533-.876525-.8946667.876525-.9269773-.47143125-.4808687 1.01132425-.92015-.103472c.3215657.51613617.5458595 1.08561264.6620093 1.6808255.7460097-.52573689 1.6448121-.79718327 2.5606387-.77333575.9164422-.02469046 1.8160004.24682086 2.5622007.773343zm-4.8086956-.76933118c-.0347767-.10491509-.0727212-.20875325-.1137785-.3113751l.356221.0400575.4134739-.86958507.7893412.40143388.8017956-.78553713.8042766.78552108.7869273-.40114579.4141279.8692769.3563387-.04005827c-.0410624.10259185-.079021.20639696-.1138211.31127671-.6926464-.34809598-1.4648944-.5229436-2.2484707-.50402971-.7828564-.01823733-1.5542931.15661996-2.2464319.504165z"/><path d="m29.8306507 14.930679-.0700187-.0018632c-.1416604-.0048214-.2826641-.021356-.4215347-.0494305.0602727.810434.3609834 2.3082477 1.7197254 2.8659685l.4162913.1695267-.224598.3866715c-.3658449.5558594-.9946774.8871601-1.6654.8774168-.4101197.004307-.8151765-.0897959-1.180432-.2742385-.0575539.4640217-.1624664.9210929-.3131333 1.3642252-.2590184.6769943-.2640891 1.4233376-.0142927 2.1037108l.2034707.4247775-.4603794.1209807c-.2128839.050543-.4309399.0767206-.6498726.0780173-.1461097.0008195-.291826-.0150521-.4342507-.047299-.3041534-.0688606-.5869936-.2093041-.8244793-.409393-.1426605.4461416-.38674.8540726-.7135334 1.1925307-.7366171.6846763-1.7279889 1.0357865-2.7368.9692815l-.7213213-.0095555.3988747-.602533c.2000866-.4094715.3043537-.8582263.3050666-1.312975.010719-.8285119.3540097-1.6188573.9543087-2.197069-.122796-.0562074-.2367368-.1296541-.338294-.2180655-.3869192-.3234352-.6086047-.8000189-.6051393-1.30094l.0276466-.3580775.3612767-.0058652c.8384178.0418474 1.6493327-.3017509 2.1968833-.9308565.1188094-.1360797.2240863-.2831555.3143727-.4391905-.3605332.107439-.7352478.1611642-1.1117993.1594057-.1158667 0-.2391914-.0070687-.3684194-.015341-.4407419-.0435739-.8574407-.2194481-1.1941233-.5039982l-.377432-.3427438.4312-.2739195c1.3451294-.7569265 1.8664297-2.4151878 1.1922533-3.7925692-.4905046-1.317847-1.6256093-2.5115595-3.4655426-3.65560955-.5180659-.24140261-.8800441-.7225521-.9648687-1.282525 0-.67533025.57189-.9412965.9903373-1.1314205.1901276-.07260437.3659161-.17758411.5193907-.31017675.3234-.3710115.0506513-1.081671-.2500667-1.4667765l-.3833133-.499699.62128-.1219015c.1432677-.02196287.2880617-.03274307.4330407-.03224075.7840022-.00651813 1.5369474.3025861 2.0856733.856225.4597996.44604293.6981102 1.06930962.6517353 1.7045185.0580874.00457475.1180447.00706875.1801727.01044h.0677233c.6020516-.06133304 1.1226654-.44165474 1.358764-.992612l.2572167-.596675.4112973.503034c.4290274.50527543.601039 1.17665055.4670455 1.82291654s-.5593066 1.19659356-1.1548095 1.49424846c-.0573766.03583161-.1118113.07607255-.1628.12035 1.1357229.44960141 2.0989203 1.24214675 2.7523174 2.26468255l.1090393.13485c.7224973.9085226 1.8135942 1.4556736 2.98408 1.4953197l.5538573-.0171825-.16522.523914c-.273063.8762809-1.0667443 1.4936024-1.9924666 1.549731zm-.056718-.5016863.0468628.001247c.6607633-.0477472 1.2309183-.4628691 1.4759377-1.0618953-1.2694221-.0765046-2.4482794-.6855929-3.2351318-1.6750662l-.1415682-.1800045c-.5967236-.9338444-1.4768241-1.65801533-2.5150298-2.06901237l-.7651086-.30288541.6213143-.53953614c.0707428-.06143156.1462391-.11724224.2670854-.19006812.4589178-.22938449.7859343-.65252261.8887707-1.14851445.0915111-.44136866-.003258-.89810415-.2623818-1.27194583-.335115.63200158-.9722928 1.06073452-1.7423541 1.13679087l-.0948149-.0007345-.0531423-.00276246c-.0663196-.00340259-.0986744-.00529521-.1391954-.00848651l-.4956154-.03903289.0361992-.49583041c.0355851-.48741806-.1474125-.96602153-.5081881-1.31613753-.4536624-.45772424-1.0769865-.71361557-1.7322801-.7082022-.0542079-.00018782-.1083838.00154538-.1604868.00485352.4192297.62831468.5625927 1.43387377.0681539 1.9941222-.1974818.17061212-.4235322.30560793-.6394361.38703752-.531604.2415374-.6971673.38963104-.702807.6013191.0596746.39394394.3150035.73333281.7345266.93279983 1.9291366 1.19951555 3.136508 2.47214788 3.6506149 3.86040738.7669601 1.566944.2152029 3.4437354-1.23444 4.3519959.2310682.1575493.4977.255354.7653926.2820691.1584633.0101437.2500994.0143197.3388133.0143252.3274265.001529.6532385-.0451847.9666696-.1385873l1.2056164-.3592741-.6300488 1.088865c-.1064331.1839402-.2305093.3572793-.3699919.5170364-.6236258.7165119-1.5347213 1.1198601-2.4559581 1.1061518.033197.3005829.1827209.5803651.4264396.7842094.0653847.0569212.1388387.1042699.2180921.1405465l.6674562.3055147-.5286905.5092379c-.504225.4856727-.7922293 1.148734-.8011756 1.8377366-.0007503.478588-.0997861.9514315-.3141378 1.431408.8242881.0192049 1.6242962-.2815336 2.208621-.8237106.2735564-.2833209.4777233-.6245457.5969862-.9975163l.2274083-.7111734.5709992.4810841c.1762669.1485102.3864724.2528872.6127288.3041118.1052735.0238354.2130043.0355696.3208771.0349645.1394181-.0008257.2784007-.0138528.4100301-.0375614-.2602973-.7703578-.2445238-1.6065677.0406193-2.3508868.1396972-.4108686.2369641-.8346307.2903213-1.2648169l.0874427-.7049962.6341343.3202181c.2937396.1483293.6196968.2240558.9623154.2206142.4548161.006607.8832442-.1967026 1.1504946-.525996-1.2460055-.5741219-1.7955364-1.7996708-1.9023988-3.2365572l-.0489281-.6578931.6466284.1307247c.1118234.0226066.2253768.0359222.335758.0396928zm-2.281266-.1078719.0000146-.0199158c.2096497 1.3951239.2209357 1.8167815.033858 1.2649728-.147554 2.2836775-1.2748926 3.8680997-2.5929273 5.393855-.403009.4586865-.7159135.9876866-.9226507 1.5598447.1079862-.5768671.3561816-1.1191403.7232134-1.580123 1.2298146-1.4609547 2.39877-3.2793925 2.4854426-5.3818925.0687921-1.2761673-.2507248-2.5434438-.9173413-3.6383835.4234198 1.2113494-.3762506-.6067344-1.7417913-1.964025-1.059674-.79647886-2.1793987-1.51168567-3.3493827-2.13936625.2387929 0 .6655171.16841267 1.2801727.505238.2427186.11711167.4306597.21108133.5638233.281909 2.16271 1.16121075 4.106102 3.07207155 4.4375687 5.71788655z"/><path d="m27.2338 9.140916-.56573-.30098375.5253013-.3657915c.2916389-.18545474.6299566-.28651521.9766754-.29174725.4490969.00445799.8765594.19138106 1.1820233.5168815.4080568.46750236.9657208.78278498 1.580216.89339575l.571604.03348775-.236412.517766c-.2832249.5452241-.8506318.888517-1.4705973.8897418-.1559755.0008661-.311017-.023841-.4588174-.0731163-.3884717-.1677911-.7187941-.4442908-.9502533-.7954192-.3058535-.41933528-.699441-.76865475-1.15401-1.0242148zm.9437909-.45857942c-.1894979.00285955-.3755007.04471937-.5391355.11724207.4499125.28020364.8429226.64544767 1.1668153 1.09036757.1777673.26967658.4318455.48235538.6909311.59627038.0959106.0319757.1965912.04802.2996911.0474506.3804787-.0007516.7319977-.1850216.9383206-.470552-.682735-.14713547-1.2997308-.50908776-1.7467403-1.0216865-.2119677-.22587145-.5094438-.35595336-.8098823-.35909212zm-17.4665242 15.40710072.3994613.6025547-.7219153.0095193c-1.00883697.0660351-2.00011971-.285004-2.73710803-.9692815-.32652985-.3384849-.57030174-.7464134-.71261667-1.1924945-.23767984.2004769-.52101188.3409473-.825682.4093567-.14201537.032302-.28734724.0481748-.43307.047299-.21882468-.0012838-.43677289-.0274618-.64954267-.0780172l-.46161866-.1209808.20440933-.424734c.24979353-.6803709.24482194-1.4266949-.014014-2.1037542-.15101708-.4429429-.25603155-.8999341-.31341933-1.3639063-.36447081.1838382-.76849799.2778296-1.17764534.273963-.67162596.0103274-1.30156668-.3210164-1.66818666-.877453l-.224598-.386628.41506666-.1695267c1.359072-.5577643 1.660714-2.0555345 1.721918-2.866012-.138919.027853-.27991621.0443853-.42157133.0494305l-.07144133.0018487c-.92568658-.0553078-1.71932952-.673055-1.99094134-1.5496875l-.16960533-.5239502.55698133.0171825c1.16894509-.0391196 2.26082973-.5863185 2.98375734-1.4953125l.10904666-.13485c.65322606-1.0230351 1.6168906-1.81570294 2.75322667-2.26468255-.05067478-.04451021-.10501474-.08476629-.16245533-.12035-.5946927-.29829101-1.01950484-.84821771-1.15404853-1.49393587-.13454368-.64571817.03584319-1.31685968.46287453-1.82322913l.41532333-.503034.256278.596675c.23572107.55165246.75706336.93223936 1.35971733.992612h.066484c.06209867-.00337125.121154-.00582175.17955667-.01044-.04502125-.6355264.19422478-1.25858743.65449267-1.704475.54782785-.55364618 1.30012393-.86280573 2.08350263-.856225.1446803-.0005883.289179.01019256.4321314.03224075l.624404.121945-.385836.4996555c-.3007034.3850765-.5737527 1.0958085-.2497734 1.4667765.1533313.13279775.3291655.23780036.5194127.31017675.4184473.190124.98879.4560975.98879 1.1314205-.0834629.55970955-.4445427 1.0410624-.9620673 1.282525-1.842742 1.14402825-2.97632137 2.33776255-3.4668187 3.65560955-.67506474 1.3774649-.15325916 3.0364661 1.1928767 3.7925692l.4312.2739195-.3777547.3427438c-.33720726.2845-.75428979.4603494-1.195392.5039982-.12893467.0082723-.25127667.015341-.36873467.015341-.37614769.0018765-.75046679-.0518376-1.11055266-.1593622.09094676.1556093.19618898.3026118.31439466.439147.54726803.6285841 1.35744991.9721333 2.19531397.9309l.3637774.0058.02453.3580775c.0046074.5008984-.2167599.9777831-.6038927 1.3009472-.10140143.0886033-.21536466.1620692-.338272.2180655.6009569.5779403.9449171 1.3683304.9561347 2.1971125.003286.4542625.1068695.9023363.303512 1.3129098zm-2.71935484-.7236213c.59657546.5539072 1.38695094.8550705 2.22361474.8423973-.1993194-.44999-.30419624-.9356697-.30772614-1.4249189-.00940579-.6949259-.29797729-1.3580375-.80276508-1.843492l-.53053871-.5102191.66982501-.3051709c.07878201-.035893.1517446-.082928.22515441-.1469035.24266967-.2025717.39236651-.4901981.42061451-.7777154-.9403807.0057786-1.83957992-.3966554-2.45794271-1.1069008-.13835412-.1598078-.26156263-.3319057-.36805767-.5141181l-.63935472-1.093932 1.21409528.3625389c.3128508.0934198.63812029.1400954.96749055.1384585.08756367 0 .17774017-.0041151.31949813-.0129109.28635241-.0283357.55942379-.1287539.785487-.283244-1.45685648-.9243881-2.00141555-2.7907629-1.25577562-4.3068261.53409152-1.4349739 1.74139706-2.7076116 3.72400626-3.93430822.3658916-.17071484.6202942-.50985712.6734749-.82941703 0-.28706263-.1653809-.43528754-.6665759-.664096-.2448959-.09316659-.4713587-.22840302-.7182257-.44860423-.4495758-.51478044-.3020042-1.31761111.1172219-1.94447099-.0542592-.00358384-.1093514-.00527318-.165749-.00506142-.6486234-.00544872-1.2711548.25038344-1.7314038.71536156-.354377.34330507-.5382096.82205462-.50364141 1.31002418l.03504375.49468243-.49437887.03909351c-.040705.00321879-.07277338.00510376-.1386198.0084907-.02708491.00138147-.02708491.00138147-.08035184.00350526l-.11632351-.00249018c-.72527524-.07265658-1.36082664-.50271968-1.69488497-1.13653865-.25705175.37068299-.35245163.8302197-.25998138 1.27401398.10332433.49588652.43016037.91898145.92787359 1.17087793.08097682.05016411.1576121.10693698.22910748.16973497l.6147845.53999614-.76101499.30068587c-1.03863547.41037697-1.91905104 1.13456789-2.5481725 2.11405869l-.10650587.1316817c-.78335106.9849692-1.95036393 1.592352-3.23729438 1.6763487.24495288.6058445.82232214 1.0249795 1.45283876 1.0643604l.06657938-.0016992c.1146147-.0040821.22869132-.0174579.34107498-.0399907l.6465267-.1296274-.04965338.6575215c-.10842698 1.4358151-.65728957 2.659285-1.90102306 3.2343797.27930882.3376287.70344535.5345397 1.16296758.5276116.32938656.0031128.65457826-.0725386.94774444-.2204109l.6342021-.31989.08719252.7049393c.05317836.4299396.15049457.8534304.28423573 1.2467377.28619744.7486311.30635851 1.5700835.04355223 2.3675142.1362032.0248051.27445675.0377121.41318381.0385259.10741027.0006456.21452455-.0110532.32052422-.0351613.22635271-.0508244.43666048-.1550908.61284872-.3037011l.57148453-.4820326.22723494.71226c.11895462.3728591.32283085.7140261.57647836.978051zm-1.44314053-11.4464245c-.66762652 1.0945079-.98690892 2.362207-.91637333 3.638369.085734 2.1025072 1.254044 3.9212205 2.48172467 5.3818925.36860378.4605285.61829538 1.0028304.727518 1.5800867-.20826361-.5719095-.52180691-1.1007665-.92478467-1.5598447-1.31804933-1.525719-2.44509467-3.110105-2.59390267-5.393855-.28009784.8274565-.468138 1.3335432.03419534-1.2649728v.0203c.332992-2.6460977 2.27546-4.5569947 4.43879333-5.7181692.198528-.106285 1.1452173-.78711075 1.843072-.78715425-1.1694264.62763137-2.28854057 1.34284281-3.34753467 2.13936625-1.742708 1.9639815-2.16690084 3.1753984-1.742708 1.9639815z"/><path d="m3.512674 10.960753c-.14803686.0491339-.30327231.0737313-.459426.0727827-.61957563-.0017374-1.18650653-.3447613-1.46998867-.8894227l-.23454933-.51809225.57099533-.033205c.61390147-.1110253 1.17093751-.42626853 1.57864667-.893403.30585432-.3258665.733962-.51280923 1.1836-.51684525.34600487.00517102.68361298.10614193.97449733.29145l.52684867.36607425-.56754133.300701c-.45376162.25597144-.8466705.60524123-1.152184 1.02421475-.23146815.3514448-.56206483.6280998-.95089867.7957455zm-.45638869-.427208c.09468.0005751.18883402-.0132791.27912009-.041021.29040898-.1298681.5373099-.3394041.724169-.62211012.30949225-.42442988.69763922-.78586207 1.15126399-1.06989218-.16730277-.07476942-.34737508-.11522388-.5243985-.11797434-.31333421.00281253-.6112708.13291316-.81138681.34564541-.4476244.51286751-1.04686308.87072547-1.75829241 1.03019033.2146541.294278.56231771.4741018.93952464.4751619zm16.05796739-5.45318c0-.74965-1.276462-1.4240885-2.6852027-1.4240885h-.0080667c-1.4087846 0-2.6852393.67444575-2.6852393 1.4240885l.027984.18425875.5625473 3.1927695-.5650626.32431425-1.4618634.8442915h.00528s-.3289733.16675-.4815213.2696275c-.5566587.382075-.675004.940093-.3516333 1.1704472.0819726-.5469969.5651689-.9466984 1.1242366-.929972.4672056.0124897.9002794.2448362 1.1655014.625298.0798176.0968854.1533798.1986475.2202493.3046813.0845167.1372787.169642.2579405.2537993.3737375h-3.76596c.316007.5392994.5008485 1.1438543.539924 1.7659115v8.2405167c0 1.9950188 1.5513374 2.9467988 3.229754 2.9467988 1.2972667 0 1.4718587-.0586598 2.1875334.6464535.7123306-.7051205.887216-.6464535 2.1854066-.6464535 1.6793334 0 3.2288667-.95178 3.2288667-2.9467988v-8.240524c.0388052-.6222282.2239968-1.2269097.5408333-1.7659115h-3.7671993c.0838713-.115797.1687107-.2364587.2535133-.3737375.0673938-.1053845.1404963-.2070931.218988-.3046812.2660537-.3806507.6998548-.6129503 1.167694-.625298.5588474-.0160933 1.0416764.3833017 1.124244.929972.3234-.2303543.206272-.788394-.3535106-1.17044725-.1500254-.10287025-.4793214-.2696275-.4793214-.2696275h.0049574l-1.464056-.8442915-.562914-.32431425.562914-3.1927695zm-4.8258907.37068525 1.97791.663375v3.0723905l-1.4562973-.75856025zm.4097573 6.52559445c.2653583.2742662.5879104.4881554.9452667.6268205-.0708644.2617074-.0516308.5392869.05467.7889958.1324601.2689165.363833.4776438.6468.5834945.0516733.4554811.3595298.8428639.7949333 1.0002825-.2451093.2438465-.4830613.4742007-.5793333.56695l-2.267078-.035612c-.0749922-.0350822-.1372541-.092121-.1783393-.1633788-.0043487-.0113607-.0117774-.0175087-.0164487-.0285505l.369666.0589425c.0078413.0007615.015721.001069.0235987.0009208.0723138.0010041.1343858-.0506785.145684-.1212998.0128548-.0797341-.0418054-.1547741-.1223714-.167997l-.4550846-.0709485.50479-1.7241515-.47839-.9953452-.766062.8012482-.047234 1.7926495-.5150274-.0807867c-.0388699-.0062199-.078643.0031596-.1104879.0260558-.0318449.0228963-.0531258.0574142-.0591174.0958892-.0119736.0796738.0426932.1541875.1230167.167678l.215864.032567c-.077044.0432825-.1283334.0780172-.1342.082592l-.04378.03045-.012144.0531207c-.096747.4538162.085103.9214919.46442 1.1943795l-.0108827.0635608c-.0251251.1576949.0827847.3060141.242.3326227.0156976.0026525.0315948.0039816.04752.003973.1347241-.0008565.2510836-.0933863.280808-.2233.0962145.0110505.1930033.016495.2898647.0163053h.0605586l2.9744587.5313017.0506-.0331687c.236742-.163705 1.1404067-.8144578 1.4367613-1.030399.0853492.0736424.1803076.1356295.2823334.1843022-.1348541.418093-.0286459.8756131.277112 1.1937343h-7.5800194v-4.3247918c-.0163733-.4222367-.1079776-.8383054-.2706-1.229107zm3.6755767 3.956557c-.3004247.2189935-1.074524.777925-1.3556547.9720148l-2.7026266-.4803053c.0062113-.0239685.0127086-.0479007.0186413-.0712675.0467076-.1799822.071414-.3648529.07359-.550652l2.2717493.0359383.0435014-.0436088c.0344666-.034075.754248-.7217012 1.1211126-1.116964.0953067.118702.2100945.2207429.3395774.3018683-.0634995.3300141.0046294.6715188.1901166.9529835zm-4.5255027-.4625427c.0594445.1124607.1493583.2063581.259688.2711935-.0029892.163352-.0189738.3262183-.047806.4870912-.0077953.0380625-.01771.07308-.02827.1078075-.0056026.0220835-.012144.0402303-.0168153.0546505-.1852559.001005-.3694899-.0271887-.5457687-.08352-.3245638-.1725307-.5064319-.5263571-.4560526-.887255.1505978-.098948.3240063-.1587463.5041813-.1738622.1475505-.0036237.2808613.0865899.3308433.2238872zm-.2811306-.5331505.0459726-1.721382.390786-.408755.245432.5079712-.484 1.652275zm4.7817806 8.9226257c-.1478766 0-.2842546.002175-.4063473.0067425l.3215447-.9901252c.0503213-.1369598-.2038007-.3132725-.308792-.46806.2483755.1461336.5041547.2796019.7663333.399881-.0198587.0322407-.3727533 1.0515545-.3727533 1.0515545zm1.0105187-1.1249607-.210298 1.0837952c-.1345153.0187485-.2758507.028275-.42218.034075l.2215107-1.0417162c.0661613-.309256-.774752-.406-1.190112-1.014739-.2697975.2225826-.6189789.3282112-.9685647.2929942-.3067096-.0041724-.6123608-.0365552-.913-.0967295-.0516075-.0089289-.1038565-.0137488-.156244-.014413-.1275986-.0083774-.2488324.0560171-.312202.1658293l-.0608667.1019495-1.1459653-.2668943-.2848707.466813c-.0459613.0657891-.0367499.1548454.0217287.210076l.0773667.0835563c-.0741697.1527301-.1726523.2927023-.2916907.4145767l-.1702507-.2103587c-.1289135-.2098314-.1180125-.4756216.0276614-.6744458l.4544686-.7585602.9707574.1385257-.1506414-.3396915c-.2028693-.449587.1062087-1.0211625.1391427-1.3503705-.0111687.099499-.1037667.1219015-.2112.1219015-.0978413 0-.2072107-.0183932-.2798693-.0183932-.0228293-.0021989-.0458154.0021638-.066198.0125642l-.263098.157557-.2072107-.1812065c-.0327268-.0585545-.0212142-.1315846.027984-.1775162l.4799373-.5325415-.5672553-.655052.794332.394342.2426307-.2905438c.0667333.0644815.0375686.2334065.0375686.2334065.5877338.1455335.9948686.674456.9801 1.2732813.00187.0270642.00187.0574562.00187.0866085 0 0 .0064974.0110852.0186414.0291885.080571.1276238.2086335.2188442.3565906.2540037l1.0978367.1074885h.0043487c.2178955-.066058.4413001-.1128331.6675753-.1397727.1964577.0013923.3883035.0590038.552354.1658727.0771103-.0529823.1679945-.0829462.2618367-.0863257.012603-.0012559.0252708-.0017643.0379353-.0015225.4920667 0 .6967767.4401112.961136.8052575.198484.2785377.4643833.69165.4643833.69165-.0769331.1120472-.2050319.1791188-.342012.179075-.0475704.000098-.0950305-.004529-.1416653-.0138113-.528066-.0961277-.6041787-1.169483-.9055347-1.25425-.0155975-.004093-.0316684-.0061573-.047806-.0061407-.0586664.0015145-.1119678.034128-.1395093.0853615.1376393.3660742.0572.513793.2056707.7957455.1051743.1726112.2360855.328549.3883146.46255 0 0-.0220513.158485-.045364.2770152zm-5.89941-1.0241858.050644.1253163c-.03355.1096562-.413776.2644437-.413776.2644437l-.0820013-.1778352c-.1067011-.2515015-.0256012-.542527.196328-.7045188l.6163226-.3712942.653884.1372787c-.004324.1284744.0350585.2546708.111848.3584038l-.6849993-.1302173-.4097133.2800675c-.0654103.0535097-.0817544.1460977-.038544.2183483zm6.0025973 2.0487775.1882467-.9698832c.0099513-.0570938.0220513-.1237503.0301327-.1796405.0547577.0229917.1118269.0401784.1702506.051272.0639438.0126031.1289368.0192851.1941354.0199592.2220531-.0003453.4313291-.1027118.566324-.2770152l.1444226-.166431-.1180226-.1824535c-.01056-.018125-.272118-.4265828-.4725014-.7060413-.0397613-.0549695-.07733-.1096562-.115544-.1685987-.1977735-.4288861-.6132907-.7197237-1.0881713-.761656l-.0512967.001247c-.0824606.0043518-.1638075.0208082-.2413693.0488287-.1747066-.082623-.3657946-.1258516-.55946-.1265632-.19486.0046231-.3875493.0415834-.57002.1093372-.0382213.0110853-.0720867.0230478-.0990953.0279488l-1.0720527-.1040738c-.0439705-.0205582-.0820025-.0517231-.110594-.090625v-.00522l.2320707-.0918285c-.1245471-.6473304-.5904967-1.1789977-1.2208607-1.3930512-.0181938-.0816469-.0599529-.1563233-.1202153-.214977l-.2304867-.216224-.2025393.240149-.0997334.1222277-1.5013386-.6095945.976646 1.2122-.3851834.5773973c-.0379803.0411918-.0577942.095647-.0550582.1513189s.0277962.1079717.0696369.1453293l.3982587.2711935.4125146-.152337c.0137581.0008734.0274546.0025218.0410227.0049373-.0201887.0620382-.0459727.305283-.0630667.3731357l-.7166353-.1391275-.7527007.4201593c-.3388727.2420626-.4619851.6844776-.2960393 1.0638432l.0835413.1805685.1186754.2549318.2634206-.1078075.0096287-.0042993c-.1027839.2581488-.0600223.5507703.112464.769602l.1599767.1987153.2127766.2659735.2336107-.2481458c.1533054-.1505812.275589-.3291497.3600667-.525799l.050644-.161211-.113718-.1241127-.0189274-.0224025.1283334-.2091553.935.2177465.210628.0479008.111848-.1827.0608666-.0992163c.0114914-.021199.0142927-.0245702.0574714-.0245702.034303-.0000364.0684994.0037749.1019333.0113607.3187024.0621644.6425198.0951706.9673473.0986.2185275.0120152.4374997-.0137609.647064-.0761685 0 0 .5019887.5638615.5194127.5853868l-.3075673.9382442-.0136474.056492c-.457341-.0037541-.895456.1816325-1.2084306.5113425-.4976474-.488012-.850212-.5396102-2.1875334-.5396102-1.60105 0-2.686134-.927768-2.686134-2.4102408v-3.6236515h9.7452667l.0018627 3.6236515c.0465948 1.1130575-.7327033 2.0942482-1.8374767 2.3135113zm2.106742-11.7831495c-.1643713.3903038-.2566416.8065774-.2724333 1.2290708l.0012393 2.7041557c-.3516615-.0792114-.6110015-.374364-.6411533-.7296907l-.0105967-.1237938-.12298-.0107227c-.2098757-.0179622-.4060261-.1106156-.552024-.2607535-.1771915-.2032717-.276384-.4617028-.2801993-.730017-.1790327.2811288-.1610319.6429554.0450413.9053582.1581848.1987392.3889914.3281101.6427154.3602525.0727062.4648389.4473693.8262462.9191966.886675v1.3233498h-1.6861973c-.4498396-.2241355-.6408563-.7591112-.433026-1.2127655l.0658753-.142825-.148808-.0556148c-.4871647-.1682723-.7519777-.6877959-.5989353-1.175022l.0338727-.1209807-.1146567-.053766c-.4305713-.2456431-.6652971-.7267042-.5917487-1.2127655-.2340719.2257754-.2923658.5758361-.143858.863881-.0795226.090306-.1863766.1990342-.3037906.3188115-.4167646-.0896388-.7210379-.4443128-.7424634-.865447l-.00154-.100775-.094754-.03625c-.2458352-.0718536-.4514447-.239633-.5694113-.4646453-.0781691-.1856698-.0921462-.3916602-.0397613-.5859885.0799669.0182439.1611394.0308711.2429093.037787.0822389.008684.1648746.0131873.2475807.0134923h.0114913c.6569016-.0011904 1.2824725-.2777602 1.721324-.7610108zm-2.6271153-2.7330252.6659913.38237225h.0093427l.1674493.096425c-.3449655.09292625-.6577356.27717131-.904596.53287495-.00902.0076705-.0167713.0165808-.0264366.025781-.0552787.0583843-.1099414.121017-.1627414.1858248-.0096653.0122887-.0202253.0251792-.0310713.0393095-.0512551.0654095-.100144.1329722-.1466667.2026882-.0077586.0119625-.0164486.0239685-.02453.035612-.055.0813885-.1081153.168316-.1606.258303-.3686287.7248456-1.0872468 1.212384-1.903946 1.2917108-.8163932-.0793109-1.534639-.5669179-1.902692-1.2917108-.0515826-.0875292-.1037666-.1726152-.1584-.2546055-.0108826-.015341-.020834-.03132-.0308-.0445295-.0462586-.0672582-.0934926-.1329867-.14069-.1946987-.012144-.016907-.0233126-.0297903-.0354126-.0445295-.0512527-.06235-.1040967-.1243955-.157828-.1815328-.0114914-.008874-.0189274-.0199592-.0288787-.0291522-.2472001-.25527864-.5602016-.43899563-.9052487-.531338l.1689967-.096425h.0074727l.6672526-.38237225.6843467-.38759225 1.828486.98402075.00341-.0040165.00528.0040165 1.8281633-.98402075zm-.9021173-.8153785-1.4566274.75860375v-3.072405l1.9766487-.663375zm-1.6156727-2.65163675-2.1667653-.846075c.1845066-.43152 1.034154-.798225 2.1667653-.79943575 1.1344667.001247 1.9840773.36791575 2.167374.79943575z"/></g></g></svg>