<svg height="44" viewBox="0 0 44 44" width="44" xmlns="http://www.w3.org/2000/svg"><path d="m15.424386 3.13095575c1.134474.001247 1.9840847.36791575 2.167374.7997185l-2.167374.845814-2.1667653-.845814c.184514-.43180275 1.0341613-.7984715 2.1667653-.7997185zm.0227407 22.38016275h-.0000294c.7041461-.0066404 1.4050035-.0959234 2.0878514-.2659735l.5470666 1.4655295c-.8648388.2382954-1.7576368.3630368-2.6554.3710115-.8985834-.0078663-1.7922125-.1326078-2.6578713-.3710115l.5479687-1.4655295c.6824999.1702017 1.383065.2594876 2.0869126.2659735zm4.14634-1.4582215-.2721107.880788.9226213.3031153c-.6575916.3187106-1.3455157.5722012-2.0536853.756755l-.4445247-1.2106413c.6352186-.1925208 1.2532283-.4366934 1.8476994-.730017zm-8.3361374 0c.5945305.2932204 1.2125437.5373895 1.847736.730017l-.44517 1.2106413c-.7078449-.1849174-1.3955193-.4383957-2.05304-.756755l.9235674-.3031153-.273086-.880788zm4.1670567-22.32346775h.0000293c-.8122684-.00806419-1.6138691.18325178-2.3329533.5568-.0700227-.23169206-.1544708-.45888147-.2528607-.6802675l.2429094.0288695.2550533.026419.110264-.23003525.3215447-.67994125.5967426.3055585.2310954.11639875.184228-.17996675.6439766-.631475.645524.631475.1848.17996675.231132-.11639875.5936187-.3055585.325886.67994125.1080713.23003525.2553834-.026419.243848-.0288695c-.0987994.2212227-.183257.4484378-.2528607.6802675-.7197064-.37425305-1.5222888-.56560005-2.335432-.5568zm13.037376 7.86142875c-.655138-.218631-.8897093-1.19003675-2.0403093-1.79570175.2237288-.1417098.4830054-.21891291.748682-.22293025.343625.00320004.6700256.14921247.8992866.402288.4765618.53598603 1.1259545.89253763 1.8380707 1.0092-.2201593.40453567-.6458693.65824922-1.1105087.661838-.1140573.00052473-.2273882-.01796323-.3352286-.05468675zm-26.408514.054607c-.46440147-.00335378-.88991793-.25704632-1.10962133-.66155525.711624-.11679333 1.36048234-.47333495 1.83653066-1.0091565.23007652-.25347243.5573689-.39960106.90183867-.4026505.26516879.00444118.52385419.08175962.747098.2233-1.14909667.6053025-1.38611733 1.57670825-2.04281 1.79538275-.10703471.03691251-.21967846.05540937-.333036.05468675zm26.7200193 3.8933588.0000367-.0000218c-.2953679.0028221-.5855802-.0765693-.8374667-.2291 0 0-.2159006 2.897361 1.9717134 3.795375-.2899526.4342717-.7840695.6921731-1.3103347.6839215h-.0111687c-.5911822.0345573-1.1632358-.2134244-1.538042-.6667317.0143583.6875564-.0977402 1.3719726-.330836 2.0199152-.2923172.7733361-.2908814 1.6252642.0040407 2.397633-.1802273.0440959-.3650744.0670864-.5507333.068498-.1149393.0010298-.2295505-.0122849-.3411174-.0396285-.5377862-.1263325-.9707077-.5195684-1.1434866-1.038664 0 0 .0838713 2.782173-3.1971647 2.782173h-.0254687c.2494599-.4640144.3780009-.982183.374-1.507652.1562514-2.0644085 1.5700007-2.3478835 1.5700007-2.3478835-.3857564-.0434639-.7560914-.1746553-1.081982-.383293-.2954396-.2457254-.4685949-.6060243-.4746647-.9876747.9500935.0412077 1.8667911-.3507986 2.4870267-1.0635243.3718001-.4212692.622795-.9332299.7269387-1.4827555-.5234278.388775-1.1673134.5855009-1.8213434.5564738-.105314 0-.218394-.00522-.3342606-.0162618-.3539566-.0352301-.6888238-.1756077-.9605127-.4026505 1.5010833-.8554098 2.0876686-2.7060194 1.34882-4.255373-.622842-1.66858025-2.118908-2.91423175-3.6261427-3.85275875-.5011013-.30929225-.780362-.653805-.780362-.949605 0-.69716725 1.0027674-.71956975 1.413434-1.18762975.474958-.544504.177364-1.426858-.2339333-1.95847875.1178723-.0200188.2373451-.02937376.3569353-.02794875.6773758-.00701994 1.3281222.26045178 1.80081.74017425.4771798.44953581.6620115 1.12406037.4796 1.7502515l.219318.04205c.1310682.02355202.2638192.03679093.3970047.03959225.0295093 0 .0596273.001566.0882273.001566.7591982-.0654706 1.4206522-.53795097 1.72194-1.2299915.3519041.42215127.4892001.98023075.3727151 1.51500879-.116485.53477805-.4739579.98752272-.9704257 1.22905821-.320276.20608125-.4619267.39740875-.4246514.601025l.0288934.1335885.1329533.02336675c1.3494433.36207225 2.033152 1.28248875 2.866952 2.32942505.795548.9983865 1.9955953 1.5995655 3.2804127 1.6433647h.0236353c-.2239494.7112717-.8627785 1.2165154-1.6138393 1.2763698-.0204747 0-.037246 0-.0574714-.0012035zm-.6584966 3.0275202.0000073-.0000507s-1.1192867-.6667318-1.6222213-3.2652478v.0203c-.33143-2.6461412-2.2748587-4.557002-4.437576-5.71821275-.19943-.1062415-.38489-.19594575-.563508-.281909.8920702.17956993 1.8189586-.03552837 2.53704-.588758 0 0-1.252526.91089725-3.8172127.08355625 1.1698824.62768291 2.2895022 1.34288999 3.3490673 2.13936625 3.149014 2.73547575.896522 5.40369325.896522 5.40369325.9384977-.8841542 1.2688307-2.2284122.845262-3.4397117.6666748 1.0949155.9861939 2.3622107.917334 3.6383835-.0866653 2.1025072-1.255628 3.921264-2.485472 5.3818925-.3670089.4609929-.6151927 1.0032628-.723184 1.580123.2067315-.5721545.5196256-1.1011539.9226214-1.5598448 1.318064-1.5257552 2.4453953-3.110105 2.5932646-5.393855.28047.8277115.8414333 1.534287 1.5880554 2.000275zm-20.67109003 2.8902198s1.414996.283475 1.57063133 2.3479197c-.00392929.5251518.12371334 1.0430965.371536 1.5076085h-.02359867c-3.28166666 0-3.19779533-2.7821295-3.19779533-2.7821295-.17317401.5188436-.60592107.911921-1.14348667 1.038664-.11142589.0275098-.22595354.0408152-.34079466.0395923-.18514418-.0013423-.36948564-.0242162-.54922267-.06815.29331563-.7729193.29387826-1.6246547.001584-2.397952-.23239907-.6480901-.3440788-1.3324523-.329626-2.0199153-.37463691.4535238-.94673372.7016562-1.537976.667058h-.01088267c-.52636817.0080306-1.02051539-.2499507-1.31062066-.6842405 2.186624-.898043 1.9723-3.795375 1.9723-3.795375-.25229834.152679-.54296873.2320726-.83876467.2291-.02018867.001247-.03822133.001247-.05747133.001247-.75131241-.0597203-1.3904725-.5649457-1.614734-1.2763697h.024508c1.28455252-.0434792 2.4843452-.6447592 3.279166-1.6433648.83442333-1.0466535 1.51877-1.96707 2.86634333-2.32949025l.13544667-.0233305.02887866-.1335885c.03728267-.2035945-.10376666-.3949655-.42405-.601025-.4963221-.24159102-.85367316-.69427397-.97014057-1.22894864s.02073327-1.09265066.37247391-1.51479936c.30051055.69273323.96259454 1.16545837 1.72224066 1.2296725.02887134 0 .05621-.001247.08695134-.001247.13327209-.00312621.2661048-.01636252.39732733-.03959225l.219318-.042398c-.18295794-.62630686.00223383-1.30121663.48026-1.7502515.47251163-.47955785 1.12304665-.74690535 1.8001793-.73981175.1193711-.00153432.2386346.00771157.3563047.0276225-.410366.5316135-.7079453 1.41400375-.2329653 1.95847875.4103586.4679875 1.4118646.4904625 1.4118646 1.1879125 0 .29544475-.278938.64003-.7797093.949286-1.50788.93856325-3.003616 2.18453375-3.62615 3.8527588-.73853897 1.5499873-.15096172 3.4008867 1.35099067 4.255692-.27246542.2269127-.60791731.3671499-.96239.4023315-.11584711.0108701-.22768534.0163052-.33551467.0163052-.65341896.0288832-1.29664866-.1678676-1.8194-.5565172.10413175.5490144.35391663 1.0608265.7238 1.4830745.62197398.7119784 1.53915937 1.1036284 2.48985 1.063198-.00579968.3815214-.17860948.7418214-.47373333.987711-.32619011.2087322-.69685963.3399141-1.08293534.3832567zm-.52717134.5033892.00000734.0000218c.4029897.459112.7166318.9879389.92510733 1.5598085-.10920372-.5771679-.35889999-1.119373-.727518-1.579775-1.22768067-1.4609548-2.39602733-3.2796753-2.48204733-5.3821753-.0704436-1.2762356.24894157-2.5439219.91666666-3.6383835-.42435347 1.2113515-.09392342 2.5561151.845262 3.4399945 0 0-2.253108-2.6685365.89716734-5.40401225 1.05911429-.79633606 2.17820141-1.51153805 3.34749803-2.13936625-2.56373337.82736275-3.8162667-.08323725-3.8162667-.08323725.71794556.55299383 1.64453161.76807666 2.53639467.588758-.17768667.0856805-.364672.175334-.56287.281909-2.163348 1.160928-4.106124 3.07207155-4.43879334 5.71788655v-.0203c-.50233333 2.598516-1.62066666 3.2652477-1.62066666 3.2652477.74594072-.4662883 1.3062232-1.1728316 1.5862-2.000275.149094 2.283721 1.27605866 3.8681433 2.59385866 5.3938985zm6.08209067-10.6770605.000022.00000725c-.0114913-.00885225-.0189347-.01995925-.0292013-.02915225-.247101-.25540189-.5601396-.43914065-.9052487-.531338l.1689967-.096425h.0077586l.6672894-.38237225.684024-.38759225 1.828772.98402075.00341-.0040165.004994.0040165 1.8283833-.98403525.6843467.38759225.666028.38237225h.0092986l.1674494.096425c-.3449947.09285832-.6577822.27711362-.904596.532875-.00902.007656-.0171014.016588-.0264.025781-.055616.058377-.11.121017-.1628.18582475-.0099514.01228875-.0201887.02517925-.0310714.0393095-.05126.0654095-.100012.13298675-.1469453.20268825-.0074287.0119625-.0161333.0239685-.0242.035612-.0549633.081403-.108086.16832325-.1606.258303-.3686794.7248018-1.0872698 1.2123215-1.903946 1.2917107-.8163853-.0793321-1.5346218-.5669327-1.902692-1.2917107-.051546-.08752925-.10373-.17261525-.1584-.2546055-.010846-.015341-.0208047-.03132-.0310713-.0445295-.0459727-.067251-.09317-.13298675-.140404-.19469875-.0121-.016907-.0233127-.02979025-.0354127-.0445295-.0512527-.06235725-.1040527-.1243955-.157784-.18153275zm2.267672-1.0962-1.4563047-.75861825-.5216053-2.97685 1.97791.6630415zm-.424336-2.31716525-.899646-.3741c.0460796.24792141.1961961.46495698.4131673.59734925.1146439.09914612.2470909.17613984.3904634.226983l.0960153.0432825zm2.198064 1.55859775-1.4566273.75858925v-3.07239775l1.9766486-.6630415zm-1.031316-1.558605.0000367.49351475.0953333-.0432825c.1433526-.05067517.2757218-.12768868.3901333-.226983.2175045-.1320161.3680401-.34916809.4140987-.59734925zm1.14334 5.1072915 3.4170913-.0000145c-.164227.3903487-.2564916.8065962-.2724333 1.2290707l.0015547 2.7041558c-.3517351-.0791772-.6111866-.3743114-.6414687-.7296908l-.01056-.1241127-.122738-.0107228c-.2099126-.0178787-.4061457-.1104072-.55231-.2604272-.1770944-.2033288-.2762731-.4617238-.2801993-.730017-.1788765.2812113-.1607485.6430014.045364.9053582.1581801.1987446.388989.3281168.6427153.3602525.0727559.4647476.4474296.8260261.9191893.886327v1.3237123h-1.6865126c-.449807-.2241943-.6406835-.7592409-.4326667-1.212809l.0658387-.1427815-.149094-.0558903c-.4871648-.1682723-.7519778-.6877959-.5989354-1.175022l.0341954-.120698-.1146567-.053766c-.4307419-.2455316-.6656181-.726656-.5920713-1.212809-.233791.2258217-.292059.5756291-.143858.8636418-.0792.0905815-.186054.1989907-.303468.318768-.4166924-.0896187-.7210154-.4440834-.7427494-.865128l-.001584-.100775-.0944313-.03654c-.2458926-.0715839-.4515656-.2393129-.5694113-.4643625-.0783335-.1856316-.0923144-.3916765-.0397614-.5859885.0800146.0180001.1611699.0306247.2429094.037787.0822381.0086928.1648743.0131961.2475806.0134922h.0112127c.0825983-.0003215.1651257-.0048248.247258-.0134922.5656823-.0677345 1.0883542-.3328003 1.474-.7475185zm-.2096087 11.8902248.3215007-.9904443c.050336-.136677-.2037493-.3129462-.3087333-.4677337.2485124.1458791.504279.2793264.7663333.3998375-.0199027.0322407-.3724747 1.0515545-.3724747 1.0515545-.1481553 0-.284218.0018487-.406626.006786zm3.3557847-6.0445281.001892 3.623956c.0464728 1.112952-.7328062 2.0939834-1.8374767 2.3131923l.1879607-.9695643c.01023-.0574417.022352-.1240765.0304187-.1799667.0547526.0230822.1118199.0403777.1702506.0515982.0639506.0125172.1289458.0190902.1941354.019633.2220531-.0003453.4313291-.1027118.566324-.2770152l.1444666-.1664745-.1180666-.18241c-.01056-.0178278-.2724334-.4262565-.4725014-.7060413-.039754-.054694-.0776453-.1096635-.1158666-.1683232-.197575-.4289549-.6129951-.7199188-1.0878487-.7619388l-.0515827.0012035c-.0824343.0045538-.1637515.0210042-.2413693.0488288-.1747531-.0824861-.3658128-.1256935-.55946-.1265198-.1949065.004579-.3876328.0416519-.5700567.1096563-.0382286.0110417-.071764.0230042-.0990953.0276225l-1.0717227-.1041173c-.0441803-.0201853-.0823643-.0512692-.11088-.0902625v-.005539l.2320267-.0918285c-.1245223-.6472469-.5903174-1.178895-1.220538-1.3930947-.0184087-.0815362-.0602537-.1560778-.1205013-.214658l-.2302007-.216224-.2025393.2398735-.100034.1222277-1.5013387-.609638.9769687 1.2122-.3851834.5773538c-.0380922.0411267-.0580062.0955828-.0553228.1512837.0026833.0557009.0277422.1080394.0696155.1454008l.3985447.271469.4125146-.1523008c.0137241.0007554.0273936.0022828.040942.0045748-.0205113.0620382-.0463026.305283-.06336.3731792l-.7163493-.1391275-.7527007.4201158c-.3388679.2420659-.4619792.6844772-.2960393 1.0638432l.0832553.1806048.1186314.2548882.2637506-.1077712.0093427-.0040165c-.1027173.2581646-.059979.5507582.11242.7696455l.1599767.1983962.2130993.2659735.2336107-.247863c.1529792-.150848.2752172-.32935.3600666-.525799l.050644-.1615372-.113718-.1240693-.01925-.0224025.1283334-.2091552.9353446.2177465.210628.0479007.1115254-.18241.0608666-.099499c.0114914-.021199.0142927-.0245702.057794-.0245702.0341844-.0000354.0682617.0037761.101574.0113607.3187002.0622175.6425132.0953227.9673474.0988973.2185282.0120381.4375044-.0137385.647064-.0761685 0 0 .5023113.563876.5194126.585075l-.3072666.938527-.0136474.0562165c-.457356-.0034187-.8954292.1819063-1.2087166.5113425-.4973394-.488012-.850234-.5396103-2.1875334-.5396103-1.6010866 0-2.685848-.9277897-2.685848-2.4099v-3.6239705zm-9.7452667-.2918342v-4.3247555c-.0163733-.4222368-.1079776-.8383055-.2706-1.2290707h3.4158667c.2653901.2742287.5879333.488112.9452667.6268205-.0708434.2616025-.0516094.5390746.05467.7886767.1325539.2689207.3638798.4777223.6468.5838208.0516366.4553976.3593491.8427528.794618 1.0002825-.2450654.2438465-.4827387.4741572-.5790327.566631l-2.2674007-.0356555c-.074876-.0349628-.1370242-.0919034-.1779726-.1630598-.0046714-.0113607-.011814-.0178277-.0167714-.0288695l.369952.0589425c.0078532.0007684.0157454.0010758.0236354.0009208.0721652.0009061.1341286-.0505503.145684-.1209808.0130166-.0798808-.0419031-.1550789-.122694-.167997l-.4551214-.0709485.50479-1.7244342-.47839-.9953815-.7660253.8012265-.0469333 1.7926132-.5150714-.080475c-.0388294-.0062881-.0785906.0030229-.1104416.0258622-.0318509.0228393-.0531511.0573136-.0591637.0957566-.0120778.0795905.0424523.1541133.122694.167678l.2162307.032886c-.077044.0429997-.128304.077691-.1345154.0823092l-.0435013.0306748-.0121.0531642c-.0970878.4537471.0848276.9215086.4643833 1.194075l-.0111686.0635608c-.0251591.1578039.0829383.3061967.2423006.3326227.0156653.0029268.0315777.0043665.04752.0042993.1347703-.0008157.2511134-.0935379.280522-.2235683.0963131.0110129.1931957.0164427.2901507.0162618h.0602727l2.9747373.5316207.050644-.0334877c.2363753-.1633788 1.1403627-.814175 1.4367247-1.0300728.0853386.073595.180325.1354778.282392.183976-.134991.4181396-.0289126.8757762.276782 1.194075z" fill="#fff" transform="translate(7 8)"/></svg>