<svg height="44" viewBox="0 0 44 44" width="44" xmlns="http://www.w3.org/2000/svg"><g fill="none" transform="translate(7 9)"><path d="m0 8.74247934h6.62512397c2.97804118 5.17415886 7.27256033 9.46787956 12.44727273 12.44495866v6.6228099c-8.9683978-3.0580797-16.01200288-10.1016848-19.07008265-19.07008261" fill="#00afaa"/><path d="m19.0723967 8.74247934v12.44727276c-5.1741588-2.9780412-9.46787956-7.2725603-12.44495868-12.44727276z" fill="#00539b"/><path d="m19.0723967 8.74247934h-12.44727273c-1.57313414-2.73356-2.75111696-5.6761798-3.49884298-8.7401656l7.20363641.00000031c2.3184368-.00061383 4.5421266.91995138 6.1817261 2.55911686 1.6395994 1.63916548 2.5607533 3.86261148 2.5607532 6.18104843" fill="#00afaa"/><path d="m27.812562 17.4826446v7.1990083c-3.0639989-.745466-6.0067186-1.9219306-8.7401653-3.4942149v-12.44495866c4.8274343.00127777 8.7401655 3.91504486 8.7401653 8.74247936" fill="#f39a00"/><path d="m19.0006612.00231405c.9740813 4.3995107 4.410076 7.83550543 8.8095867 8.80958678v-8.80958678z" fill="#00afaa"/></g></svg>