<svg height="44" viewBox="0 0 44 44" width="44" xmlns="http://www.w3.org/2000/svg" xmlns:xlink="http://www.w3.org/1999/xlink"><linearGradient id="a" x1="99.827%" x2=".173%" y1="18.206%" y2="92.776%"><stop offset="0" stop-color="#fff" stop-opacity=".8"/><stop offset="1" stop-color="#fff" stop-opacity=".5"/></linearGradient><mask id="b" fill="#fff"><rect fill="#fff" fill-rule="evenodd" height="28" rx="1.867" width="28"/></mask><g fill="none" fill-rule="evenodd" transform="translate(8 8)"><path d="m23.1054687.07109375c-2.3520182 2.9516059-4.067041 4.9250651-5.1450683 5.9203776-1.617041 1.49296875-3.733903 3.19010417-4.1185384 3.53600261s-1.0706218.96469324-1.0706218 1.07970784c0 .0766764.0274577.1271864.0823731.15153l-5.93473309 4.1746215.06277669.0812622.25697428-.0812622c-.29787597.2583225-.50672336.4293064-.62654215.5129517-.17972819.1254679-1.89577637 1.0916707-2.31490479 1.2588094-.27941894.1114258-.30021158.1829658-.06237792.21462-.79034831.3589247-1.18552247.5668606-1.18552247.6238077 0 .0569472.0802653.0914307.2407959.1034506-.42154948.1864312-.64882541.3303941-.6818278.4318888-.03300238.1014947.02494168.2832642.1738322.5453084-.2680637.1489855-.40209554.2754123-.40209554.3792806 0 .1558024.0048706.2551799-.11287842.3512818-.11774902.0961018-.51577149.2553222-.60435384.3791381-.08858236.123816-.32490642.2098633-.38030599.2870809-.05539958.0772176-.01802979.2081543-.11632487.2081543-.09829509 0-.2174113-.041984-.28317871 0-.06576742.0419841-.61489258.2460083-.61489258.3131145 0 .0671061.16958822.3027465.13392741.3027465-.02377387 0-.25461968.1418267-.69253744.4254802v1.1008423l1.83496501-.9100342h.11834717c2.53121473-1.3378879 3.96078966-2.0967245 4.28872477-2.2765096.32793511-.1797852 1.74172092-.9482965 4.24135738-2.3055339-2.9061089 1.8263916-4.35916337 2.758766-4.35916337 2.7971232v.2260132l-5.89462891 3.662439v4.9743408h28.42485348v-16.8258626c-.3994466.0347683-.6309475.082392-.6945027.1428711-.0953329.0907186-.6111328.6269694-.7112793.8601318-.0822307.0784139-1.7092407 1.2384155-2.0336914 1.3627726s-.7242676.1741171-.8221354.2674561c-.0978679.093339-.7637736.7803507-1.0520508.9949992-.2882772.2146484-.1307373.2429606-.471281.2429606-.3405436 0-.5204711.1989542-.6103922.1989542s-.3173869.016036-.3624471.059729c-.0300402.0291287-1.7341539 1.3519966-5.1123413 3.9686036 2.8284261-2.6178603 4.4681396-4.0853936 4.9191406-4.4026001s2.7094428-2.1748251 6.7753255-5.57285567v-10.00126139h-5.1380045z" fill="url(#a)" mask="url(#b)"/><path d="m12 23v-12h-5v-5h15v5h-5v12z" fill="#fff"/></g></svg>