<svg height="44" viewBox="0 0 44 44" width="44" xmlns="http://www.w3.org/2000/svg" xmlns:xlink="http://www.w3.org/1999/xlink"><linearGradient id="a" x1="50%" x2="50%" y1="0%" y2="100%"><stop offset="0" stop-color="#e9426e"/><stop offset="1" stop-color="#d40673"/></linearGradient><path d="m3.46666667 15.2942857c-1.46351111-.7691428-2.67048889-1.9262857-3.46435556-3.3274286l-.00231111-5.69999996c.57315556-1.04971428 1.59524444-1.84171428 2.82302222-2.14971428v8.96000004c.00056146.7840523.22356238 1.5522169.64364445 2.2171428zm.29293333-12.24514284v.00057143c-1.63511111 0-3.05355556.94457142-3.7596 2.32742857v-1.23142857c0-2.11142858 1.68711111-3.83142858 3.76017778-3.832h2.66355555c.74186667 0 1.34275556.61257142 1.34275556 1.368 0 .756-.60146667 1.36742857-1.34275556 1.36742857zm20.0257778 1.97942857v.00057143c-1.4097778-1.27828572-3.2846667-2.06742857-5.3022667-2.06742857h-4.2466667v9.96400001c0 3.8954286-3.1933777 7.0628571-7.11706662 7.0628571-3.89306667 0-7.06333334-3.1154285-7.11764445-6.9657143 1.42075556 2.7211429 4.28884445 4.3085715 7.11764445 4.3085715 2.42377778 0 4.49568892-1.9765715 4.49568892-4.4057143v-12.62000001h6.6484889c2.7398222 0 5.0266666 2.03657142 5.5218222 4.72285714zm.0421778 2.92057143c1.2872888 1.19485714 1.9592444 2.60285714 2.1724444 4.07028574-.6292 1.4062857-1.7587556 2.568-3.2066667 3.2748571.5312367-.8403588.7542013-1.8358011.6315111-2.8194286-.1580776-1.2973681-.9307443-2.4429954-2.0811555-3.08571424-.6303556-.356-.6835111-1.07428572-.3091111-1.65085715.3536-.54457142.5090222-1.09885714.5148-1.75428571.0057778-.63942857-.2299556-1.40514286-.5910667-1.86685714 1.2555111.32857143 2.4416889 1.05771428 3.2032 1.76.0184889.47771428-.0670222 1.35771428-.3339555 2.072zm-4.3945778 9.31542854c3.1829778 0 5.616-1.912 6.5658666-4.3234285.0641334 3.888-2.9443555 7.0588571-6.5658666 7.0588571h-4.2512889c-.7251111 0-1.3150222-.6114286-1.3150222-1.3685714 0-.7542857.5899111-1.3668572 1.3150222-1.3668572z" fill="url(#a)" fill-rule="evenodd" transform="translate(10 12)"/></svg>