<svg height="44" viewBox="0 0 44 44" width="44" xmlns="http://www.w3.org/2000/svg"><g fill="none" fill-rule="evenodd" transform="translate(7 7)"><path d="m15.6134854 7.74690842c.008773-.01253342.0175461-.02632018.0275724-.04010695.2318586-.33714906.1353553-.58781751-.0200527-.72192513-.0977566-.08648062-2.4238626-1.4952373-2.4238626-1.4952373-.1679408-.1128008-.2794836-.30456217-.2794836-.52389706 0-.34466912.2067928-.60536431.6755232-.73445856 1.4951748-.41109625 6.7527259-.62667112 8.5399173-.62667112.6191252 0 1.6869282-.00250669 2.6456949.02506684l-.0426118-.04136029c-2.6193759-2.23721591-6.0208046-3.58831885-9.7355559-3.58831885-8.28549939 0-15.0006266 6.71415441-15.0006266 15 0 3.6422126 1.29715503 6.979863 3.45532022 9.5792948 1.88494798-2.7109793 6.53716004-9.3900401 7.55608468-10.7549298 1.1743327-1.5729445 3.8538664-5.06976941 4.3063041-5.66260029l.0225592-.02757353zm-9.75936834 19.14354948c2.53164557 1.9502005 5.70246894 3.1095421 9.14650954 3.1095421 8.2842462 0 14.9993734-6.7154078 14.9993734-15 0-2.5079378-.6153653-4.870488-1.7019677-6.94727607l.0012533.00125334c.5163555-.49757687 1.1116682-1.2846758.7206417-2.27230949-.1228224-.29328208-.7056022-.96006016-.855997-1.12174131l.0213059.05765374c.3647074 1.10168784-.3571876 1.79227942-.8760496 2.26102942-.2844968.25944184-4.0932448 3.85026737-8.5599699 7.75568177-3.9378368 3.4429312-8.3406442 6.9460228-10.8923424 8.8561164-3.58816895 2.684659-4.28625141 3.0757018-4.28625141 3.0757018-.09525004.0513871-.25316456.095254-.36846723.095254-.21932573 0-.40982579-.0977607-.53014162-.2556818l-.00375987-.00376c-.01879935.0463737-.0250658.0864806-.00877303.1140541.38475999.6241645 1.02268454 1.3448363 1.39491164 1.3448363.11530267 0 .27447049-.043867.36972052-.0940007 0 0 .28199022-.1566678 1.43000376-.9763536z" fill="#e2001a"/><path d="m15.6347913 7.70680147c.2306054-.33589572.134102-.58656417-.0200526-.72192513-.0977566-.08522728-2.4238627-1.4952373-2.4238627-1.4952373-.1679408-.1128008-.2794836-.30330883-.2794836-.52264372 0-.34592246.2067928-.6053643.6755233-.7357119 1.4939215-.41109625 6.7527259-.62541778 8.5386639-.62541778.8434641 0 2.5140996-.00626671 3.6132348.06642714 1.2332372.0802139 2.1694448.33589572 2.4013034.93248663.4574508 1.16936832-.298283 1.89129345-.8346911 2.37759024-.2832435.25818851-4.0919914 3.84901405-8.5587166 7.75442845-3.9378368 3.4429312-8.3418975 6.9447694-10.89234238 8.8561163-3.58816895 2.6846591-4.28625141 3.0757019-4.28625141 3.0757019-.09525004.051387-.25316456.095254-.36972052.095254-.37097381 0-.66299035-.2845087-.66299035-.6580047 0-.1403743.04261186-.2732286.11780925-.3797627 0 0 7.06479509-10.1796457 8.35192381-11.9017379 1.2858754-1.7195856 4.3714751-5.74782757 4.3714751-5.74782757s.0363454-.04512032.2581777-.36973596z" fill="#fefefe"/></g></svg>