<svg height="44" viewBox="0 0 44 44" width="44" xmlns="http://www.w3.org/2000/svg"><path d="m22.657 20.459c.126 5.695.504 12.83 2.393 17.649.189.5.503 1.063.755 1.564-1.196.313-2.456.563-3.715.563-1.323 0-2.581-.25-3.715-.563.315-.626.566-1.189.819-1.753 1.762-4.755 2.266-11.828 2.329-17.46h.567zm-.063-4.38c.315 0 .629 0 .881.125l-.063-8.199h1.008s-.126 2.253.315 8.386c5.415 1.19 9.508 5.946 9.508 11.703 0 4.319-2.267 8.011-5.604 10.139-.063-.063-.189-.251-.315-.376-3.589-4.568-4.471-11.39-4.723-17.335.504.125 1.008.187 1.512.25 1.007 6.509 4.029 10.827 6.485 13.518 1.134-1.501 1.827-3.192 1.827-5.07 0-2.189-.882-4.13-2.33-5.694-1.449-1.565-3.401-2.817-5.793-3.443-1.008-.25-2.079-.375-3.212-.375-1.071 0-2.141.125-3.211.375-4.66 1.19-8.123 4.82-8.123 9.137 0 1.878.692 3.569 1.763 5.07 2.518-2.691 5.478-7.009 6.485-13.518.505-.063 1.008-.125 1.575-.25-.252 5.945-1.134 12.704-4.723 17.272v-.062c-.126.187-.252.376-.378.501-3.337-2.128-5.478-5.82-5.478-10.139 0-5.757 4.03-10.513 9.509-11.703.314-6.133.251-8.386.251-8.386h1.007l-.063 8.199c.252-.125.567-.125.819-.125v-12.079h1.071z" fill="#1e388c" fill-rule="evenodd"/></svg>