<svg height="44" viewBox="0 0 44 44" width="44" xmlns="http://www.w3.org/2000/svg"><path d="m28 10.5851966c-.2022732.247142-.4299454.4778693-.6029945.7441875-1.6129836 2.4798579-3.2161749 4.9660057-4.8238033 7.4492386-.1093989.1689034-.2316503.3293693-.3938361.5585625-1.8470819-1.2011932-3.6741202-2.3891932-5.5980109-3.6402443 1.9359781-2.9927045 3.8520656-5.95472726 5.7987541-8.96399999 1.8974208 1.19689773 3.7585792 2.37124432 5.6198907 3.54543749zm-13.9234973-10.43181819c2.1966995 2.74709659 4.3935519 5.49403977 6.663082 8.33210795-1.7200874 1.39939773-3.4273224 2.78790344-5.1885683 4.22074434-2.2444372-2.77685797-4.452612-5.50907388-6.70821859-8.29973865 1.70677599-1.42885228 3.39366119-2.84098296 5.08069949-4.25311364zm8.5937815 26.72808239c-3.497858-.9413182-6.8783607-1.8510341-10.3171585-2.7763977.5855519-2.1897614 1.14953-4.298983 1.7329399-6.4806137 3.4501202.9278182 6.8471475 1.8413694 10.3151694 2.7740966-.585858 2.19375-1.148306 4.3006705-1.7309508 6.4829148zm-22.6702842-16.6030824c1.19206557-.42770454 2.39055738-.83853408 3.57481967-1.28664204 2.11591257-.80064204 4.22340984-1.62398863 6.42454645-2.47249431.80756288 2.10385227 1.59615298 4.15799995 2.40539888 6.26584095-3.33261199 1.2829602-6.6032568 2.5422954-9.94841527 3.8303181-.8288306-2.086517-1.64251366-4.1349886-2.45634973-6.1836136zm5.3705071 16.5975443c-.17626229-3.47625-.35374863-6.8382102-.49772677-10.2018579-.00734426-.1716648.2633224-.5019546.42045901-.512233 2.02808744-.1313182 4.05908197-.2181477 6.19656836-.321392.1883497 3.5600113.3747103 7.084125.5647431 10.6754318-2.23709288.1204261-4.41374861.2376307-6.6840437.3600511z" fill="#fff" fill-rule="evenodd" transform="translate(8 8)"/></svg>