<svg height="44" viewBox="0 0 44 44" width="44" xmlns="http://www.w3.org/2000/svg"><path d="m22.6974706 29.9918h-.5294118c-.0718014-.0238-.1420147-.058-.2156691-.07-1.2566912-.2036-2.183625-1.2649333-2.2251176-2.5563333-.014625-.4547334-.0280589-.9097334-.0286545-1.3646667-.00225-1.5209333.0019192-3.0418667.002978-4.5628667.0006618-.9184.0001323-1.8368666.0001323-2.769h-3.4978897c0 .1558667.0000662.2868667 0 .4178667-.0021176 2.7322-.0021176 5.4645333-.007147 8.1967333-.00225 1.1828667-.76725 2.2106-1.8980736 2.566-.1557794.049-.3124852.0949334-.4687941.1422667h-.5955882c-.0817941-.0256667-.1619338-.0606-.2455809-.0756667-1.1649044-.2092-2.1099044-1.3117333-2.1399485-2.5002666-.01125-.4432667-.0306397-.8866-.0312353-1.3298-.0031103-2.3414667-.0013897-4.6829334-.0013897-7.0244v-.3934667h-3.4799559c0 .3094.00019853.5954667 0 .8814667-.00198529 2.5636.00119118 5.1271333-.00807353 7.6907333-.00469853 1.2774-.83230147 2.3264-2.05828676 2.6458667-.12527206.0326-.24922059.0702666-.37376471.1055333h-.46323529c-.04830883-.0220667-.09476471-.0562667-.14532353-.0644667-1.43821324-.2344666-2.36031618-1.3214-2.36064706-2.7912666-.00092647-3.8096-.0008603-7.6192.00066176-11.4288667.00013236-.3438667-.02527941-.6941333.02865441-1.0304667.14419853-.8998.90105883-1.4880666 1.87180147-1.4883333 4.82902942-.0011333 9.65799264-.0016667 14.48695584-.0000667 1.6977574.0006 3.3955148.0039334 5.0932059.0137334.882.0050666 1.6505074.7674666 1.6745294 1.6462666.0138309.5102.0325589 1.0205334.0315 1.5308-.0076103 3.6312-.0181985 7.2624-.0313014 10.8936667-.0043677 1.2189333-.7844559 2.246-1.951875 2.5874-.1449265.0424-.2889927.0876667-.4334559.1316zm4.3014706-21.4c-.0373897.17133333-.0688236.34433333-.1130956.51386667-.3472941 1.32846663-1.7219118 2.12540003-3.0512647 1.68046663-.7451471-.2494-1.4445662-.6479333-2.1477574-1.0123333-2.48625-1.28833333-4.975147-2.57233333-7.4392941-3.90266667-.5404632-.29173333-.9637941-.26206666-1.4746765.0078-2.9538529 1.5604-5.9193529 3.09846667-8.87744114 4.65079997-1.16225735.6098667-2.36289705.4774-3.16297058-.37-1.00588236-1.06539997-.8828603-2.79959997.29296323-3.66619997.44106618-.32506666.93884559-.57733333 1.42656618-.832 3.16641176-1.6534 6.33686029-3.29886666 9.50684561-4.9452.3326691-.1728.6768529-.32373333 1.0048235-.5048.3598015-.1986.7133824-.20513333 1.0728529-.02053333.9610148.49346667 1.9222942.98646667 2.8802648 1.4858 2.864647 1.49313333 5.7274411 2.98966667 8.5914926 4.48386667.8059632.42053333 1.3188971 1.05386666 1.4354338 1.98106666.0050956.0406.0362647.07786667.0552574.11673334z" fill="#fff" fill-rule="evenodd" transform="translate(9 7)"/></svg>