<svg height="44" viewBox="0 0 44 44" width="44" xmlns="http://www.w3.org/2000/svg"><path d="m0 .82386689c0-.45319741.3684437-.82386689.81887681-.82386689h24.36204289c.4506366 0 .8190803.37066948.8190803.82386689v24.35266981c0 .4527938-.3684437.8234633-.8190803.8234633h-24.36204289c-.45043311 0-.81887681-.3706695-.81887681-.8234633zm11.1115875 4.39844474c.0840938 0 .1232969-.06147287.0871406-.13685272l-.1862656-.38798449c-.0361562-.0751783-.1340625-.13665116-.2181562-.13665116h-6.8652188c-.08389062 0-.12329687.06147286-.0869375.13665116l.1860625.38798449c.03635938.07537985.13446875.13685272.21835938.13685272zm.5324109.79134728c-.0359531-.07497674-.1340625-.13685271-.2181562-.13685271h-6.86521876c-.0836875 0-.12309375.06187597-.08673438.13685271l.1860625.38818605c.03615625.07497675.13426563.13665116.21815625.13665116h6.86521879c.0840937 0 .1230937-.06167441.0871406-.13665116zm.63505 1.32257365c-.0363593-.0751783-.1346718-.13665116-.2183593-.13665116h-6.86501566c-.08409375 0-.12309375.06147286-.08714063.13665116l.18626563.38798449c.03595312.0751783.1340625.13685272.21815625.13685272h6.86521871c.0838907 0 .1230938-.06167442.0869375-.13685272zm.6345829 1.32247287c-.0359532-.0751783-.1340625-.13665117-.2181563-.13665117h-6.86542187c-.0836875 0-.12289063.06147287-.0869375.13665117l.18667187.38818604c.03595313.07537985.13426563.13665117.21795313.13665117h6.86521877c.0840937 0 .1232969-.06127132.0869375-.13665117zm.6349484 1.32277519c-.0359531-.07517829-.1344688-.13665116-.2181563-.13665116h-6.86542184c-.0836875 0-.12289062.06147287-.0869375.13665116l.18646875.38798448c.03595313.0753799.1340625.1368527.21815625.1368527h6.86521874c.0836875 0 .1228906-.0614728.0869375-.1368527zm.6350703 1.32327908c-.0363594-.0753799-.1342656-.1368527-.2183594-.1368527h-6.86521872c-.08389063 0-.12289063.0614728-.0869375.1368527l.18626562.3879845c.03635938.0753798.13426563.1368527.21815625.1368527h6.86542185c.0840938 0 .1228907-.0614729.0869375-.1368527zm.6345625 1.321969c-.0359531-.0749768-.1342656-.1366512-.2181562-.1366512h-6.8652188c-.08409375 0-.12309375.0616744-.08714062.1366512l.18626562.3883876c.03635938.0751783.13446875.1366511.21815625.1366511h6.86542185c.0840938 0 .1230938-.0614728.0871407-.1366511zm-1.9641984-8.72797831c.0836875 0 .1523437-.06812403.1523437-.15136434v-.35855814c0-.08324031-.0686562-.15136434-.1523437-.15136434h-10.65167191c-.08389063 0-.15254688.06812403-.15254688.15136434v.35855814c0 .08324031.06865625.15136434.15254688.15136434zm-4.54650629 9.91396121c-.0836875 0-.1226875.0612713-.08632812.1364496l4.33834371 8.9184031c.0365625.0751783.1243125.0753799.1606719 0l3.9629688-8.2557054c.0359531-.0753798.1342656-.1368527.2183593-.1368527h6.3931563c.0838906 0 .15275-.068124.15275-.1513643v-.3595659c0-.0832403-.0688594-.1513644-.15275-.1513644zm14.98721249-10.57607439-5.4912812.00020155c-.0840938 0-.1525469.06832558-.1525469.15156589v.35855814c0 .08324031.0684531.15156589.1525469.15156589h.814125c.2023125.01209303 1.3717031.01773644.9260468 1.37255814l-3.6499531 7.74417058c-.0355469.0755814.0042656.1372558.0883594.1372558h1.248c.0838906 0 .1822031-.0614729.2181562-.1366512l3.9414375-8.17770541c.1805782-.36823256.3973125-.61835659.65-.74654264.2526875-.12798449.5825625-.19389147 1.0121719-.19389147h.2429375c.0840938.00020155.1525469-.06792248.1525469-.15136434v-.35835659c0-.08324031-.0684531-.15136434-.1525469-.15136434zm-1.5134234 9.91533179c.9195468 0 1.6660312-.7408992 1.6660312-1.6539225 0-.9126201-.7464844-1.65331782-1.6660312-1.65331782-.9209688 0-1.6664375.74069772-1.6664375 1.65331782 0 .9130233.7454687 1.6539225 1.6664375 1.6539225z" fill="#fff" fill-rule="evenodd" transform="translate(9 9)"/></svg>