<svg height="44" viewBox="0 0 44 44" width="44" xmlns="http://www.w3.org/2000/svg"><g fill="none" fill-rule="evenodd" transform="translate(9 9)"><path d="m0 .82386689c0-.45319741.3684437-.82386689.81887681-.82386689h24.36204289c.4506366 0 .8190803.37066948.8190803.82386689v24.35266981c0 .4527938-.3684437.8234633-.8190803.8234633h-24.36204289c-.45043311 0-.81887681-.3706695-.81887681-.8234633z" fill="#003874"/><path d="m11.1115875 5.22231163h-6.86501563c-.08389062 0-.182-.06147287-.21835937-.13685272l-.1860625-.38798449c-.03635938-.0751783.00304687-.13665116.0869375-.13665116h6.8652187c.0840938 0 .182.06147286.2181563.13665116l.1862656.38798449c.0361563.07537985-.0030469.13685272-.0871406.13685272zm.5324109.79134728.1864688.38818605c.0359531.07497675-.0030469.13665116-.0871406.13665116h-6.86521879c-.08389062 0-.182-.06167441-.21815625-.13665116l-.1860625-.38818605c-.03635937-.07497674.00304688-.13685271.08673438-.13685271h6.86521876c.0840937 0 .1822031.06187597.2181562.13685271zm.63505 1.32257365.1860625.38798449c.0361563.0751783-.0030468.13685272-.0869375.13685272h-6.86521871c-.08409375 0-.18220313-.06167442-.21815625-.13685272l-.18626563-.38798449c-.03595312-.0751783.00304688-.13665116.08714063-.13665116h6.86501566c.0836875 0 .182.06147286.2183593.13665116zm.6345828 1.32247287.1862657.38818604c.0363593.07537985-.0028438.13665117-.0869375.13665117h-6.86521878c-.0836875 0-.182-.06127132-.21795312-.13665117l-.18667188-.38818604c-.03595312-.0751783.00325-.13665117.0869375-.13665117h6.86542188c.0840937 0 .1822031.06147287.2181562.13665117zm.6349485 1.32277519.1862656.38798448c.0359531.0753799-.00325.1368527-.0869375.1368527h-6.86521874c-.08409375 0-.18220312-.0614728-.21815625-.1368527l-.18646875-.38798448c-.03595312-.07517829.00325-.13665116.0869375-.13665116h6.86542184c.0836875 0 .1822032.06147287.2181563.13665116zm.6350703 1.32327908.1862656.3879845c.0359531.0753798-.0028437.1368527-.0869375.1368527h-6.86542185c-.08389063 0-.18179688-.0614729-.21815625-.1368527l-.18626563-.3879845c-.03595312-.0753799.00304688-.1368527.0869375-.1368527h6.86521873c.0840938 0 .182.0614728.2183594.1368527zm.6345625 1.321969.1864687.3883876c.0359532.0751783-.0030468.1366511-.0871406.1366511h-6.86542185c-.0836875 0-.18179688-.0614728-.21815625-.1366511l-.18626563-.3883876c-.03595312-.0749768.00304688-.1366512.08714063-.1366512h6.8652187c.0838907 0 .1822032.0616744.2181563.1366512zm-1.9641984-8.72797831h-10.65167191c-.08389063 0-.15254688-.06812403-.15254688-.15136434v-.35855814c0-.08324031.06865625-.15136434.15254688-.15136434h10.65167191c.0836875 0 .1523437.06812403.1523437.15136434v.35855814c0 .08324031-.0686562.15136434-.1523437.15136434zm-4.54650629 9.91396121h14.98717189c.0838906 0 .15275.0681241.15275.1513644v.3595659c0 .0832403-.0688594.1513643-.15275.1513643h-6.3931563c-.0840937 0-.1824062.0614729-.2183593.1368527l-3.9629688 8.2557054c-.0363594.0753799-.1241094.0751783-.1606719 0l-4.33834371-8.9184031c-.03635938-.0751783.00264062-.1364496.08632812-.1364496zm14.98721249-10.57607439c.0840938 0 .1525469.06812403.1525469.15136434v.35835659c0 .08344186-.0684531.15156589-.1525469.15136434h-.2429375c-.4296094 0-.7594844.06590698-1.0121719.19389147-.2526875.12818605-.4694218.37831008-.65.74654264l-3.9414375 8.17770541c-.0359531.0751783-.1342656.1366512-.2181562.1366512h-1.248c-.0840938 0-.1239063-.0616744-.0883594-.1372558l3.6499531-7.74417058c.4456563-1.3548217-.7237343-1.36046511-.9260468-1.37255814h-.814125c-.0840938 0-.1525469-.06832558-.1525469-.15156589v-.35855814c0-.08324031.0684531-.15156589.1525469-.15156589z" fill="#fefefe"/><path d="m21.7812969 13.151969c.9195469 0 1.6660312-.7408992 1.6660312-1.6539225 0-.9126201-.7464843-1.65331782-1.6660312-1.65331782-.9209688 0-1.6664375.74069772-1.6664375 1.65331782 0 .9130233.7454687 1.6539225 1.6664375 1.6539225" fill="#ec1b35"/></g></svg>