<svg height="44" viewBox="0 0 44 44" width="44" xmlns="http://www.w3.org/2000/svg"><path d="m27.926503 14.0400624c-.0034262 7.8449621-6.2510887 13.9418735-14.2837806 13.939038-7.36388189-.002481-13.57716459-6.3908523-13.56180594-13.944.01559493-7.68499576 6.22415189-13.93360335 13.86791564-13.95782276 7.6914936-.02433756 13.981097 6.25853164 13.9776709 13.96278476zm-24.77176545-4.59120839c.60867511 0 1.06163713-.04064135 1.50396625.01063291.5165232.05989873.78033755-.13338397 1.06742616-.57216878 2.14087763-3.2732827 5.19169624-4.928 9.09645574-4.58999156 3.7524725.32489452 6.4012489 2.38968777 8.0370632 5.77780592.2067511.4280337.1196794.6358481-.24054.9071055-1.1789536.8878481-2.3193924 1.826616-3.492557 2.7223797-.331038.252827-.3797131.3876287-.0124051.6618397 1.1984473.8948185 2.3541266 1.8474093 3.5629705 2.7273418.4113755.2994936.4377215.5425147.2317975.9626329-1.6131308 3.2913586-4.2057891 5.3001519-7.8563038 5.6793924-3.831865.3979071-6.99870045-1.0077637-9.12941775-4.2441857-.67719831-1.0286751-1.33419409-1.3399831-2.43694515-1.1789536-.36967088.0541097-.48509705.0779747-.30989029.4687933 1.95031223 4.3512236 6.30815189 7.3851477 11.43829539 7.0333164 5.2296202-.3585654 8.7045738-3.2583966 10.6031392-8.1078312.1615021-.4124388.1160169-.6477806-.255308-.9195105-1.2037637-.8808777-2.3763376-1.804287-3.6039663-2.7442363 1.2519663-.9525907 2.4448608-1.8785992 3.6615022-2.7723545.29654-.2178565.3277299-.4111392.2229367-.7363881-1.8570971-5.76705489-7.6763713-9.23503801-13.6070549-8.01532493-3.93275948.80869198-6.67250632 3.1721519-8.48116455 6.92970464zm17.04709705.22924557c-1.686616-2.71458228-5.3967932-3.95225317-8.5552405-2.92605907-3.35409283 1.08975527-5.57341773 4.30372999-5.32330802 7.70921519.26747679 3.6415359 2.89746835 6.5597975 6.35056542 7.1656371 3.3943797.5954431 6.5007257-1.3578228 7.4042869-3.0935865-.6276962 0-1.2338903.0228017-1.8374852-.0069704-.4905317-.0243376-.9027342.0912067-1.3224979.3627004-.9154937.5920169-1.9552743.8286582-3.0358144.8130633-2.4265485-.0349705-4.54935018-1.6592068-5.27864976-4.0025823-.70413502-2.262211.13657384-4.8585316 2.01221936-6.21470042 1.9610633-1.41795781 4.6417384-1.42599156 6.6290296-.01783966.1440169.10207594.2716118.21572995.4696202.2139578.8014853-.00697046 1.6030886-.00283544 2.4872743-.00283544zm.3499882 8.28573162c-.2131308-.1824135-.297249-.261924-.3888101-.3316287-1.4251646-1.0827848-2.8399325-2.1797468-4.2841182-3.2364219-.4097215-.29973-.3622278-.4454009-.0096877-.7439494 1.2008101-1.0168607 2.3752742-2.0650295 3.5541097-3.1077637.1037299-.0916793.2856708-.1448439.2573164-.3792405-.6103291 0-1.2168776.0203207-1.8211814-.0073249-.3817215-.0176034-.6669199.1007764-.947865.3558481-.7719494.7004726-1.5677637 1.3747173-2.3541266 2.0592405-.376405.3276118-.7529283.6547511-1.1599325 1.0087089-.0331983-.1294853-.0506835-.1664642-.0508017-.2033249-.0025991-.6297047-.0035443-1.2592912-.0036624-1.8888777-.0004726-1.3403375-.0003544-1.3239156-1.3595949-1.3343122-.4057047-.0030717-.5341266.0949874-.5290465.5179409.0232743 1.9474768.0109874 3.8954262.0111055 5.8431393 0 1.4262278 0 1.4134683 1.4218566 1.4399325.3682531.0068523.4726919-.1005401.4631223-.4620591-.0236287-.8919831-.0077974-1.7851477-.0077974-2.7944473 1.4076793 1.0510043 2.7097384 2.0248608 4.0146329 2.9950549.1694177.1258228.3196962.2776371.567443.2739747.8205063-.0119325 1.6413671-.0044895 2.627038-.0044895z" fill="#fff" fill-rule="evenodd" transform="translate(8 8)"/></svg>