<svg height="44" viewBox="0 0 44 44" width="44" xmlns="http://www.w3.org/2000/svg"><g fill="none" fill-rule="evenodd" transform="translate(8 8)"><path d="m27.926503 14.0400624c-.0034262 7.8449621-6.2510887 13.9418735-14.2837806 13.939038-7.36388189-.002481-13.57716459-6.3908523-13.56180594-13.944.01559493-7.68499576 6.22415189-13.93360335 13.86791564-13.95782276 7.6914936-.02433756 13.981097 6.25853164 13.9776709 13.96278476" fill="#237b74"/><path d="m3.15473755 9.44885401c1.80865823-3.75755274 4.54840507-6.12101266 8.48116455-6.92970464 5.9306836-1.21971308 11.7499578 2.24827004 13.6070549 8.01532493.1047932.3252489.0736033.5185316-.2229367.7363881-1.2166414.8937553-2.4095359 1.8197638-3.6615022 2.7723545 1.2276287.9399493 2.4002026 1.8633586 3.6039663 2.7442363.3713249.2717299.4168101.5070717.255308.9195105-1.8985654 4.8494346-5.373519 7.7492658-10.6031392 8.1078312-5.1301435.3518313-9.48798316-2.6820928-11.43829539-7.0333164-.17520676-.3908186-.05978059-.4146836.30989029-.4687933 1.10275106-.1610295 1.75974684.1502785 2.43694515 1.1789536 2.1307173 3.236422 5.29755275 4.6420928 9.12941775 4.2441857 3.6505147-.3792405 6.243173-2.3880338 7.8563038-5.6793924.205924-.4201182.179578-.6631393-.2317975-.9626329-1.2088439-.8799325-2.3645232-1.8325233-3.5629705-2.7273418-.367308-.274211-.3186329-.4090127.0124051-.6618397 1.1731646-.8957637 2.3136034-1.8345316 3.492557-2.7223797.3602194-.2712574.4472911-.4790718.24054-.9071055-1.6358143-3.38811815-4.2845907-5.4529114-8.0370632-5.77780592-3.9047595-.33800844-6.95557811 1.31670886-9.09645574 4.58999156-.28708861.43878481-.55090296.63206751-1.06742616.57216878-.44232912-.05127426-.89529114-.01063291-1.50396625-.01063291zm17.04709705.22924557c-.8841857 0-1.685789-.00413502-2.4872743.00283544-.1980084.00177215-.3256033-.11188186-.4696202-.2139578-1.9872912-1.4081519-4.6679663-1.40011815-6.6290296.01783966-1.87564552 1.35616882-2.71635438 3.95248942-2.01221936 6.21470042.72929958 2.3433755 2.85210126 3.9676118 5.27864976 4.0025823 1.0805401.0155949 2.1203207-.2210464 3.0358144-.8130633.4197637-.2714937.8319662-.387038 1.3224979-.3627004.6035949.0297721 1.209789.0069704 1.8374852.0069704-.9035612 1.7357637-4.0099072 3.6890296-7.4042869 3.0935865-3.45309707-.6058396-6.08308863-3.5241012-6.35056542-7.1656371-.25010971-3.4054852 1.96921519-6.61945992 5.32330802-7.70921519 3.1584473-1.0261941 6.8686245.21147679 8.5552405 2.92605907zm.3499882 8.28573162c-.9856709 0-1.8065317-.007443-2.627038.0044895-.2477468.0036624-.3980253-.1481519-.567443-.2739747-1.3048945-.9701941-2.6069536-1.9440506-4.0146329-2.9950549 0 1.0092996-.0158313 1.9024642.0077974 2.7944473.0095696.361519-.0948692.4689114-.4631223.4620591-1.4218566-.0264642-1.4218566-.0137047-1.4218566-1.4399325-.0001181-1.9477131.0121688-3.8956625-.0111055-5.8431393-.0050801-.4229535.1233418-.5210126.5290465-.5179409 1.3592405.0103966 1.3591223-.0060253 1.3595949 1.3343122.0001181.6295865.0010633 1.259173.0036624 1.8888777.0001182.0368607.0176034.0738396.0508017.2033249.4070042-.3539578.7835275-.6810971 1.1599325-1.0087089.7863629-.6845232 1.5821772-1.3587679 2.3541266-2.0592405.2809451-.2550717.5661435-.3734515.947865-.3558481.6043038.0276456 1.2108523.0073249 1.8211814.0073249.0283544.2343966-.1535865.2875612-.2573164.3792405-1.1788355 1.0427342-2.3532996 2.090903-3.5541097 3.1077637-.3525401.2985485-.4000338.4442194.0096877.7439494 1.4441857 1.0566751 2.8589536 2.1536371 4.2841182 3.2364219.0915611.0697047.1756793.1492152.3888101.3316287z" fill="#fefefe"/></g></svg>