<svg height="44" viewBox="0 0 44 44" width="44" xmlns="http://www.w3.org/2000/svg" xmlns:xlink="http://www.w3.org/1999/xlink"><linearGradient id="a" x1="100%" x2="0%" y1="87.86%" y2="87.86%"><stop offset="0" stop-color="#fff"/><stop offset="1" stop-color="#fff" stop-opacity=".52"/></linearGradient><linearGradient id="b" x1="100%" x2="0%" y1="87.86%" y2="87.86%"><stop offset="0" stop-color="#fff"/><stop offset="1" stop-color="#fff" stop-opacity=".64"/></linearGradient><linearGradient id="c" x1="100%" x2="0%" y1="87.86%" y2="87.86%"><stop offset="0" stop-color="#fff"/><stop offset="1" stop-color="#fff" stop-opacity=".7"/></linearGradient><g fill="none" fill-rule="evenodd" transform="translate(12 5)"><path d="m2.19444444 25.3144444c7.44111112-2.9744444 12.31888886-6.7777777 14.62999996-11.4111111v13.9011111h-14.62999996c.05777778-.4622222.05777778-1.2922222 0-2.49z" fill="url(#a)"/><path d="m8.04666667 8.04888889c1.67666666 1.59555555 3.87111113 2.50666671 6.58333333 2.73666671v3.6633333c-1.7388889 2.9611111-3.9333333 5.0922222-6.58333333 6.3933333.02222222-3.0311111 0-9.5055555 0-12.79333331z" fill="url(#b)"/><path d="m18.288 11.708h-1.955v-.732h2.686v19.024h-19.019v-19.024h6.369v.732h-5.638v17.559h17.558z" fill="#fff"/><path d="m8.77777778 0c.97777778 1.39777778 2.19666662 2.41555556 3.65777782 3.05222222 0 2.27777778.0088888 4.33333334 0 5.84666667-1.3422223 0-2.56222227-.79222222-3.65777782-2.37444445z" fill="url(#c)"/></g></svg>