<svg height="44" viewBox="0 0 44 44" width="44" xmlns="http://www.w3.org/2000/svg"><path d="m24.9 19.7-2.5.5c-.4.1-.7.5-.6.9s.5.7.9.6l2.5-.5c.6-.1 1 .2 1.1.6s.1.9-.4 1.2l-3.7 2.4c-.3.2-.8.2-1.1 0-.4-.2-.6-.6-.6-1v-5.8c0-1-.5-1.8-1.4-2.3s-1.9-.4-2.7.1l-9.3 5.9c-1 .7-1.4 1.9-1 3s1.6 1.8 2.8 1.6l8.1-1.4c.4-.1.7-.5.6-.9s-.5-.7-.9-.6l-8.1 1.4c-.6.1-1-.2-1.1-.6s-.1-.9.4-1.2l9.3-5.9c.3-.2.8-.2 1.1 0 .4.2.6.6.6 1v5.8c0 1 .5 1.8 1.4 2.3.4.2.8.3 1.3.3s1-.1 1.4-.4l3.7-2.4c1-.7 1.4-1.9 1-3-.5-1.2-1.6-1.9-2.8-1.6zm12.9 1.5c-.5-1.1-1.6-1.8-2.8-1.6l-2.5.5c-.4.1-.7.5-.6.9s.5.7.9.6l2.5-.5c.6-.1 1 .2 1.1.6s.1.9-.4 1.2l-3.7 2.4c-.3.2-.8.2-1.1 0-.4-.2-.6-.6-.6-1v-7.6c0-.4-.3-.8-.8-.8-.4 0-.8.3-.8.8v7.6c0 1 .5 1.8 1.4 2.3.4.2.8.3 1.3.3s1-.1 1.4-.4l3.7-2.4c1.1-.6 1.5-1.8 1-2.9z" fill="#ffffff"/></svg>