<svg height="44" viewBox="0 0 44 44" width="44" xmlns="http://www.w3.org/2000/svg"><path d="m14.2 30.7h15.3c.1 0 .1 0 .2.1s.1.1.1.2v2.8c0 .1 0 .1-.1.2s-.1 0-.1 0h-15.4c-.1 0-.1 0-.2-.1 0 0-.1-.1-.1-.2v-2.8c0-.1 0-.1.1-.2s.2 0 .2 0zm15-6.3c0 .1 0 .3-.1.3-.2.1-2.4 1-2.5 1s-.3 0-.3-.1-1-2.8-1.1-3.1h-6.4c-.1.3-1.1 2.9-1.1 3.1 0 .1-.1.1-.1.1s-.1 0-.2 0c-.1-.1-2.4-.9-2.5-1s-.2-.2-.1-.3c.2-.5 4.4-12.4 4.7-13 .4-1.2 1-2.4 2.6-2.4 1.7 0 2.2 1.2 2.6 2.4 0 .6 4.4 12.7 4.5 13zm-9.5-4.8h4.4l-2.2-6.6z" fill="#ee3524"/></svg>