<svg height="44" viewBox="0 0 44 44" width="44" xmlns="http://www.w3.org/2000/svg"><path d="m11.4712252 35.4348992h20.4972967v-26.97000839h-20.4972967zm20.9659337.4697113h-21.4371589v-27.9046105h21.4371589zm-20.1606206-26.6935504h9.553241l.0015139 25.0168321-9.065043-.0083714-.0260559-15.4493876c.0905658-4.9910024 4.1967693-8.9708725 9.1881651-8.90547736 5.0026754-.03886523 9.1118561 3.94194696 9.2317311 8.94333696v15.8847763h-18.8835522zm9.5413816 16.1381711c.8152399-.0258146 1.6059133.2810776 2.1902618.8501289s.9121021 1.3513077.9079173 2.1669455c.0029066.812062-.326481 1.589973-.9116483 2.1530293-.5851673.5630564-1.3751827.862251-2.1865308.828083-.8375233.051825-1.6597739-.2413362-2.2755969-.8113302s-.971571-1.3671657-.9845406-2.2061907c-.0333949-1.8535568 1.4540813-2.9806658 3.2601375-2.9806658z" fill="#fff" fill-rule="evenodd"/></svg>