<svg height="44" viewBox="0 0 44 44" width="44" xmlns="http://www.w3.org/2000/svg"><path clip-rule="evenodd" d="m7 22c0-8.3 6.7-15 15-15s15 6.8 15 15c0 8.3-6.7 15-15.1 15-8.2 0-14.9-6.8-14.9-15zm27.9 1.2c.6-5.8-3-11.8-9.3-13.6-6.1-1.8-12.7 1.2-15.4 7s-.7 12.7 4.6 16.3c5.2 3.4 11.3 2.4 14.9-.4-.8-1.2-1.6-2.4-2.4-3.6.7-.6 1.3-1.2 2-1.8.8 1.2 1.6 2.4 2.4 3.6.2-.2.3-.4.5-.6-.8-1.2-1.6-2.3-2.4-3.5.7-.6 1.3-1.2 2-1.8.6 1 1.3 1.9 1.9 2.9.1-.2.2-.4.3-.6s.1-.3 0-.5c-.5-.7-1-1.5-1.4-2.2-.2-.3-.5-.7-.7-1-.1.1-.1.1-.2.1-2.2 2-4.4 4-6.6 5.9-1.4 1.3-2.9 2.3-4.8 2.9-1.7.5-3.3.5-4.9-.3-1.2-.6-2.1-1.4-2.8-2.5-1.7-2.5-2.2-5.3-1.4-8.3.6-2.4 1.9-4.2 4.2-5.3 1.7-.8 3.4-.9 5.2-.1 1.2.6 2.1 1.5 2.9 2.5.8 1.1 1.5 2.3 2.3 3.4.3.4.5.8.8 1.2-.7.6-1.3 1.2-2 1.8 0-.1-.1-.1-.1-.1-1.4-2.1-2.8-4.2-4.2-6.2-.2-.3-.5-.6-.8-.9-.9-.7-1.9-.8-2.8-.1-.3.2-.5.4-.8.7-.5.5-.8 1.2-1 1.8-.6 1.7-.8 3.5-.7 5.3.1 1.1.3 2.2.9 3.2.2.4.4.8.7 1.1.9 1.1 2 1.4 3.4.9 1.1-.4 2-1.2 2.8-1.9 2.9-2.6 5.8-5.3 8.8-7.9.5-.4 1-.9 1.5-1.3.9 1.2 1.7 2.5 2.6 3.9zm-5.5-2.6c-.7.6-1.4 1.2-2.1 1.9-.5-.8-1-1.5-1.5-2.2-1.7-2.5-3.3-5-5-7.5-.6-.8-1.2-1.5-2.2-1.9-.5-.2-1.1-.3-1.7-.2 0 0 0-.1.1-.1 1.5-.7 3.1-.9 4.7-.3.7.3 1.3.7 1.7 1.3 2 3 4 6 6 9zm-7.3-10.9c1.2-.2 2.3 0 3.4.4 1.1.5 2 1.2 2.7 2.2 1.3 1.9 2.5 3.8 3.8 5.6 0 .1.1.1.1.2-.7.6-1.3 1.2-2 1.8-.2-.4-.5-.7-.7-1-1.7-2.6-3.5-5.1-5.2-7.7-.6-.7-1.2-1.3-2.1-1.5z" fill="#ffffff" fill-rule="evenodd"/></svg>