<svg height="44" viewBox="0 0 44 44" width="44" xmlns="http://www.w3.org/2000/svg"><g clip-rule="evenodd" fill="#fff" fill-rule="evenodd"><path d="m22.8 28.3c3-4.3 3.2-8.5 0-12.6-1.5-2-3.7-3.1-6.2-3.5s-4.7.2-6.8 1.4c-.1-.1-.1-.1-.2-.2.6-.7 1.1-1.4 1.7-2 4.3-4.1 9.4-5.4 15.1-3.6 5.6 1.8 8.9 5.8 10.1 11.5.4 2.1.5 4.4-.4 6.4-1.9 4.5-7.8 6.3-12.1 3.6-.3-.3-.8-.7-1.2-1" opacity=".6"/><path d="m34.1 30.5c-1.7 2.2-3.8 4-6.5 5-2 .8-4 1.2-6.1 1.2-9.9-.3-16.1-9.4-14.1-17.8.6-2.8 2.6-4.4 5.4-5.2 2.3-.7 4.3-.4 6.4.6.5.2.9.5 1.3.8.3.3.5.6.2 1-3 4.2-2.7 9.9 2.1 13.7 3 2.3 6.6 2.7 10.2 1 .3-.2.7-.3 1-.5 0 .1 0 .1.1.2"/></g></svg>