<svg height="44" viewBox="0 0 44 44" width="44" xmlns="http://www.w3.org/2000/svg"><g fill="#fff" fill-rule="evenodd"><path d="m30.6165217 32.8757647 6.3108696-10.8438431-6.3108696-10.8455687h-2.3l6.3095653 10.8455687-6.3095653 10.8438431z"/><path d="m32.29 22.0323529-6.3113043-10.846s-12.6365218-.0043137-12.6369566 0c4.6417392.9201177 8.1382609 4.9961569 8.1382609 9.8728236 0 .3386274-.0173913.6733725-.0508696 1.0038039 2.9078261 1.7755294 4.8421739 4.9172157 4.8421739 8.4997647 0 .7838039-.0813043 1.5809804-.2565217 2.3130196z"/><path d="m26.0147826 32.8757647c-.8330435-6.1207451-6.1286956-10.8434118-12.5160869-10.8434118 2.4082608 0 3.9617391-1.694 3.9634782-3.9578431 0-1.2712549-1.3386956-4.9879608-4.1204348-6.8881569l-6.29739127 10.846 6.31130437 10.8455687z"/></g></svg>