<svg height="44" viewBox="0 0 44 44" width="44" xmlns="http://www.w3.org/2000/svg"><g clip-rule="evenodd" fill="#fff" fill-rule="evenodd"><path d="m12.1 21.2c-.9-3.2-.5-6.3 1.2-9.2.6-.9 1.3-1.8 2.1-2.5.2.2.3 0 .5-.1 4.8-2.4 9.5-1.8 14.1.7.3.2.6.3.8.7-.4 0-.7-.2-1-.3-2.2-1-4.5-1.5-6.9-1.4-.6 0-1.3.3-1.9.3-.6-.5-.6.1-.7.4-1.2.3-2.2 1-3.2 1.8-.1-.4.1-.7.1-1 0-.1.1-.3-.1-.4s-.3.1-.4.2c-.9 1-1.4 2.1-1.8 3.4 0 .1-.1.2-.1.4-.2 0-.3.2-.4.3-.5.7-.9 1.5-1.2 2.2-.5 1.5-.8 3-1.1 4.5zm9.8-.3c-1.5-1.3-2.8-2.7-3.7-4.5 1.1-.9 2.3-1.6 3.6-2.2 1.4 1.8 3.1 3.2 4.9 4.5-1 .4-2 .6-3 1-.6.4-1.4.5-1.8 1.2zm-.2 11.7c-1-.3-1.9-.9-2.7-1.5.1-.8.4-1.5.8-2.2s1.1-1.2 1.6-1.8c1.5 1 3 1.8 4.7 2.5-1.6.7-3.1 1.7-4.4 3zm12.6-17.3c-.2.7-.7.8-1.3.9s-1.2 0-1.8-.1c-2.3-.5-4.3-1.6-6.2-2.8 2.4-.5 4.7-.5 7 .4.8.3 1.4.7 2.1 1.3 0 0 .2.1.2.3zm-25.4 2.7c-.1 1.3-.3 2.6-.2 3.9.5 5 2.6 8.9 6.7 11.8.1.1.2.1.2.2 0 .7-.4.5-.8.3-1.4-.6-2.6-1.6-3.6-2.8-1.9-2-3-4.5-3.3-7.2 0-2.1.1-4.2 1-6.2zm26.8 6.8c-2.7 1.4-5.4.7-8-.3-.1 0-.2-.1-.3-.2.7-.4 1.4-.4 2.2-.6 1.6-.3 3.1-.3 4.7-.1.4.1.7.2 1 .4.1.2.5.4.4.8zm-19 4.4c-1.1-1.1-2.1-2.3-2.9-3.7.1-.1.1-.2.1-.3.1-2 .6-3.9 1.5-5.6.7 1.7 1.7 3.1 2.7 4.5-.7 1.6-1.4 3.2-1.4 5.1z" fill-opacity=".5"/><path d="m21.7 10.6c.9 1 2 1.9 3.2 2.6 1.9 1.3 4 2.3 6.2 2.8.6.1 1.2.2 1.8.1s1.1-.2 1.3-.9c.3 0 .3.3.4.5.5 1 .8 2 1 3 0 .1.1.8.2 2-1.7.6-3.3.4-4.9-.1-1.5-.4-2.9-1.2-4.3-1.9-1.8-1.3-3.6-2.7-4.9-4.5-.8-1.3-1.6-2.6-1.5-4.3.2-.3.3-.9.8-.3.1.4.4.7.7 1zm.2 10.3c1.5 1.3 3.2 2.4 5 3.2.1.1.3.1.5.1.1.1.2.2.3.2 2.6 1 5.3 1.7 8 .3-.3 1.6-1 3.1-1.8 4.6-.2.3-.4.4-.7.5-2.1.6-4.1.5-6.1-.1-.3-.1-.6-.2-.9-.2-1.6-.7-3.2-1.5-4.7-2.5-1.1-.9-2.2-1.9-3.2-2.9-1.1-1.4-2.1-2.9-2.7-4.5-.6-1.7-.9-3.5-.6-5.4 0-.1.1-.2.1-.4.3-1.3.9-2.4 1.8-3.4.1-.1.2-.3.4-.2.1.1.1.3.1.4 0 .4-.2.7-.1 1-.2 1.7.3 3.2 1.1 4.7.7 1.9 2 3.3 3.5 4.6zm-.2 11.7c1.5.8 3.1 1.1 4.8 1.2.8 0 1.6 0 2.4-.2.2 0 .4-.1.6.1-1 .7-2 1.1-3 1.5-1.8.7-3.7 1-5.7.8-1.4-.2-2.8-.8-4.1-1.5-.3-.2-.7-.4-1-.5-.1-.1-.2-.1-.2-.2-4.1-2.9-6.3-6.8-6.7-11.8-.1-1.3.1-2.6.2-3.9.6-2.4 1.5-4.6 3.2-6.4 1.1-1.2 2.4-2.1 4-2.8-.1.5-.5.6-.6.8-.9.7-1.5 1.6-2.1 2.5-1.8 2.9-2.1 5.9-1.2 9.2.3 1.5 1 2.9 1.7 4.3.8 1.4 1.7 2.6 2.9 3.7.7.7 1.4 1.4 2.3 1.9.6.4 1.5 1 2.5 1.3z"/></g></svg>