<svg height="44" viewBox="0 0 44 44" width="44" xmlns="http://www.w3.org/2000/svg"><path d="m10 36c-1.1 0-2-.9-2-2v-24c0-1.1.9-2 2-2h24c1.1 0 2 .9 2 2v24c0 1.1-.9 2-2 2zm13.8-24.9c.8.3 3.8 2 4.2 2.5-1.6.2-4.7 1.1-6.3 2 1.8-.4 4.3-.6 6-.7-.7 1-1 1.5-2.1 2.7 1.9-1.1 2.4-1.2 4.1-2.2.6 1 .8 3.2.8 4.9.6-1.1 1.2-5.3 1-6.1 1-.7 1-1 1.3-1.4-1 .1-1.6.1-2.2.3-1.4-.9-4.4-1.8-6.8-2zm-4.1 5.3c-.5.1-1.8.7-2.7 1.3 0 0-.6-.1-1.6 0-1 0-2.2.3-2.7.5.9 0 2.2.3 2.7.8 0 0-1.4 1.3-2.9 4.2 0 0 2.6-2.4 3.7-3 0 0 .6 2 1 2.9 0 0 .4-2.3 1-3.6 0 0 .2-.1 1-.2s2-.1 4.2.3c0 0-2.1-1.3-4.6-1.7.3-.3.6-1.1.9-1.5zm-7.3 7.8c-.2 1.4-.2 2.4 0 3.5-.6.2-1.1.3-1.6.6.7.5 1.3.8 2.2 1.2.4.9.9 1.6 1.6 2.3-.2-.6-.2-1.1-.1-1.8.9.3 1.7.4 2.7.4-1-.4-1.7-.8-2.5-1.5.2-.6.5-1.2.9-1.8-.8.1-1.4.2-2.1.3-.5-1-.8-1.9-1.1-3.2zm12.2 4.3c-.7.5-1.3.9-2.1 1.3 0-.4-.1-.7-.1-1.1-.5.6-.8 1.1-1.3 1.6-.9.2-1.5.3-2.4.3.5.3 1 .4 1.6.5-.5.5-1 .8-1.5 1.2.9-.2 2-.6 2.9-1.1.4 0 .9 0 1.2-.1-.1-.3-.1-.5-.2-.8.7-.6 1.3-1.1 1.9-1.8z" fill="#fff"/></svg>