<svg height="44" viewBox="0 0 44 44" width="44" xmlns="http://www.w3.org/2000/svg"><g clip-rule="evenodd" fill-rule="evenodd"><path d="m21.4 8c5.3 0 10.3 2.6 12.9 7.3 3 5.6 1.8 13-3.1 17.2-4.4 3.7-10.5 4.6-15.6 1.9-4.8-2.4-7.8-7.7-7.6-13 .2-3.3 1.6-6.6 3.9-9 2.5-2.8 5.8-4 9.5-4.4" fill="#1e5d9f"/><path d="m30 19.5c-.3.5-.6 1.1-.8 1.7-.5 1.2-1 2.5-1.5 3.7 0 .1-.1.2-.2.2-.6 0-1.2 0-1.8-.1s-.9-.6-.7-1.2c.1-.3.2-.7.3-1 .7-1.7 1.4-3.4 2-5.1.3-.7.5-1.3.8-2 .2-.5.2-.9-.2-1.3-.3-.3-.7-.5-1.2-.3-.4.1-.7.4-.9.8-1.6 2.6-3.2 5.2-4.8 7.7-.4.6-.8 1.2-1.1 1.9-.2.4-.6.5-.9.3-.4-.2-.5-.5-.3-.9.2-.5.4-1 .6-1.4.9-2.3 1.9-4.6 2.8-6.9.4-.9-.2-1.9-1.2-1.8-.2 0-.4 0-.5 0h-2c.7-1.7 1.4-3.4 2.1-5.1-.2.2-.4.4-.6.6-2 2.3-4 4.6-6.1 7-.1.1-.2.3-.2.4 0 .9 0 1.8-.1 2.7v5.1.2c.1-.1.1-.2.1-.2.7-1.7 1.4-3.3 2.1-5 .1-.2.2-.3.4-.3h1.3c.2 0 .5 0 .7.1.6.3.9 1 .6 1.7-.7 1.6-1.3 3.2-2 4.7-.4 1-.8 1.9-1.2 2.9-.3.7 0 1.3.6 1.5.6.3 1.2.1 1.6-.5.5-.7.9-1.4 1.4-2.2 1-1.7 2.1-3.3 3.1-5 .5-.8 1-1.7 1.6-2.5.3-.4.6-.5 1-.2.2.2.3.6.1.9-.8 2-1.6 4-2.4 5.9-.3.8-.6 1.5-.9 2.3s.1 1.5 1 1.6c.8.1 1.5 0 2.3.1h.4c-.7 1.6-1.3 3.1-1.9 4.7.1-.1.1-.1.2-.1 2.1-2.3 4.2-4.6 6.2-6.9.1-.1.2-.3.2-.5 0-2-.1-3.9-.1-5.9.1-.9.1-1.6.1-2.3" fill="#fff"/></g></svg>