<svg height="44" viewBox="0 0 44 44" width="44" xmlns="http://www.w3.org/2000/svg"><path clip-rule="evenodd" d="m21.4 8c5.3 0 10.3 2.6 12.9 7.3 3 5.6 1.8 13-3.1 17.2-4.4 3.7-10.5 4.6-15.6 1.9-4.8-2.4-7.8-7.7-7.6-13 .2-3.3 1.6-6.6 3.9-9 2.5-2.8 5.8-4 9.5-4.4zm8.6 11.5c-.4-.1-1.9 4.3-2.1 4.9-.4.9-.9.7-1.8.6-.7-.1-1.2-.4-1.1-1.1.1-.8.6-1.8.9-2.6.4-1 .8-1.9 1.2-2.9s2.1-3.7.5-4.4c-.8-.3-1.4.3-1.8.9-.6.9-1.1 1.8-1.7 2.7-1.1 1.7-2.1 3.5-3.2 5.2-.3.5-.8 1.7-1.4 1.9-1 .3-.9-.8-.7-1.3.7-1.8 1.5-3.6 2.2-5.4.5-1.1 2.3-4.1 0-4.3-.9-.1-1.8 0-2.7 0 .7-1.7 1.4-3.4 2.1-5.1-1.2.9-2.2 2.4-3.1 3.5-1.1 1.2-2.1 2.4-3.2 3.6-.9 1.1-.6 2.9-.6 4.3s-.3 3.2 0 4.6c.8-1.5 1.4-3.2 2-4.7.4-.9.5-.8 1.4-.8.7 0 1.5 0 1.8.8.2.7-.3 1.5-.5 2.1-.4.9-.7 1.7-1.1 2.6-.4.8-.7 1.7-1.1 2.5-.3.7-.9 1.6-.6 2.4.2.6.9.9 1.5.7.7-.2 1.1-1.2 1.5-1.8 1-1.6 2-3.2 3-4.7.5-.7.9-1.5 1.4-2.2.3-.5.8-1.8 1.5-1.8 1.5-.1-.3 3.3-.6 3.9-.4 1-.8 2-1.2 3-.3.8-.8 1.7-1 2.6-.4 2 2.5 1.5 3.7 1.5-.7 1.6-1.3 3.1-1.9 4.7 1-.7 1.9-2.1 2.8-3 1.1-1.2 2.2-2.4 3.2-3.6.6-.7.6-1 .6-1.9 0-.8 0-1.6 0-2.4.1-1.9.1-3.4.1-5z" fill="#fff" fill-rule="evenodd"/></svg>