<svg height="44" viewBox="0 0 44 44" width="44" xmlns="http://www.w3.org/2000/svg"><g fill="#fff"><path d="m15.9 27.4 1.2 1.8c-2.2 2.2-5.8 2.2-8 0s-2.2-5.8 0-8.1 5.8-2.2 8 0l-1.3 1.7c-1-1.1-2.5-1.5-3.9-1s-2.3 1.9-2.2 3.4 1 2.8 2.4 3.3 2.9.1 3.8-1.1zm2.4-7.7h2.4v11.1h-2.4zm12.9.1h2.4v11.1h-2.4zm-4 11.1c-2 0-2.5-1.8-2.6-2.8v-6.3h-2.1v-2h2.1v-2.1l2.1-1.3-.1 1.6v1.8h2.1v2h-2.1v5.6.5.1c.1.6.6 1.1 1.2 1.2s1.2-.2 1.5-.7 0 2.4-2.1 2.4z"/><path d="m26.3 12.8c-3.9 0-7.5 2-9.7 5.3h3.4c3.5-3.5 9.1-3.5 12.6 0h3.4c-2.2-3.3-5.8-5.3-9.7-5.3z"/></g></svg>