<svg height="44" viewBox="0 0 44 44" width="44" xmlns="http://www.w3.org/2000/svg"><g fill="#fff" fill-rule="evenodd"><path d="m22 36c-7.7319865 0-14-6.2680135-14-14s6.2680135-14 14-14 14 6.2680135 14 14-6.2680135 14-14 14zm0-2c6.627417 0 12-5.372583 12-12s-5.372583-12-12-12-12 5.372583-12 12 5.372583 12 12 12z"/><path d="m22 33c-6.0751322 0-11-4.9248678-11-11s4.9248678-11 11-11 11 4.9248678 11 11-4.9248678 11-11 11zm0-16.4735303-5.4735303 5.4735303 5.4735303 5.4735303 5.4735303-5.4735303z"/></g></svg>