<svg height="44" viewBox="0 0 44 44" width="44" xmlns="http://www.w3.org/2000/svg"><path clip-rule="evenodd" d="m19.12 16.96c-.55.49-1.09 1.12-1.6 1.91-.58.89-1.13 2-1.6 3.34.21-2.01.78-3.65 1.6-4.94.46-.72 1-1.33 1.6-1.83 1.04-.87 2.25-1.45 3.54-1.75 1.13-.27 2.33-.33 3.54-.21.32.03.64.06.96.13 2.68.45 5.25 1.78 7.03 3.69 1.54 1.65 2.53 3.37 2.4 5.72h-2.33-5.78c.1-1.98-.22-3.46-1.31-4.96-.29-.38-.61-.73-.96-1.05-1-.89-2.23-1.44-3.54-1.45-1.18-.03-2.4.39-3.55 1.4zm-1.59-1.43c-2.54 2.75-3.84 7.88-2.37 15.47h-8.13c0-.1 0-.49-.03-.55v-5.57c.78-8.02 5.18-11.63 10.53-12.6.52-.1 1.05-.17 1.6-.21 1.15-.09 2.34-.09 3.54.01 1.18.1 2.37.29 3.54.56.06.03.13.03.15.06-.03-.03-.09-.03-.15-.03-1.19-.15-2.38-.14-3.54.07-1.25.23-2.46.69-3.54 1.42-.58.39-1.11.84-1.6 1.37zm18.48 12.13c.64.25.99.76.99 1.55 0 .55-.22.99-.7 1.34-.45.31-1.09.47-1.89.47-.09 0-.16 0-.23 0-.22 0-.38-.03-.51-.03s-.32 0-.58 0h-2.3v-.31h.42c.22 0 .36-.07.36-.19.03-.03.03-.09.03-.13v-.16-4.23-.13c0-.06 0-.09-.03-.13 0-.13-.13-.19-.36-.19h-.42v-.35h3.39 2.24l.03 1.43h-.42v-.3c0-.13-.16-.25-.48-.38-.28-.13-.67-.23-1.09-.29-.13-.03-.19-.03-.29-.03-.28-.03-.54-.07-.7-.07-.13 0-.26.03-.29.07-.07.03-.1.09-.1.19v1.65c.42-.09.77-.13 1.09-.13h.07c.52 0 1.1.13 1.77.35zm-1.02 2.61c.19-.29.29-.64.29-1.05 0-.6-.16-1.01-.48-1.21-.19-.13-.38-.19-.61-.25-.15-.03-.32-.03-.51-.03-.22 0-.42 0-.58.03v2.7c.23.16.48.23.83.26h.25c.36-.07.61-.19.81-.45zm-5.57-2c.38.26.58.64.58 1.14-.03.48-.25.86-.67 1.17-.45.32-1.09.45-1.89.45-.1 0-.19 0-.29 0-.03 0-.07 0-.1 0-.09 0-.22 0-.35-.03-.09 0-.29 0-.51 0h-.13-2.33v-.31h.44c.23 0 .36-.07.36-.19.03-.03.03-.09.03-.13v-.16-4.23-.13c0-.06 0-.09-.03-.13 0-.13-.13-.19-.36-.19h-.44v-.35h2.2.26c.25-.03.57-.03.93-.03h.03c1.02-.03 1.69.13 2.08.41.35.32.54.64.54.99 0 .25-.07.48-.23.67s-.38.32-.64.41c-.29.09-.54.16-.83.16v.03c.52.03.97.17 1.35.45zm-3.35-2.48v1.81h.13.73.1.13.09c.29-.03.48-.13.64-.31.16-.16.25-.41.25-.67 0-.23-.06-.41-.15-.57-.1-.16-.23-.29-.39-.38-.13-.07-.29-.1-.44-.1-.07-.03-.16-.03-.23-.03-.29 0-.51.07-.73.16-.04.02-.11.06-.13.09zm1.85 4.54c.22-.25.36-.6.36-1.05 0-.79-.39-1.24-1.12-1.3-.07-.03-.16-.03-.23-.03h-.73-.13v2.48c.03.03.09.06.13.09.25.13.51.19.83.19.03 0 .09 0 .13-.03.31-.03.56-.15.76-.35zm-5.41.32h.15.43v1.75h-.43-.02v-.38c0-.19-.19-.38-.54-.51-.35-.16-.76-.29-1.25-.38-.48-.06-.9-.13-1.22-.13-.16 0-.32.03-.51.03-.22.03-.45.07-.7.13-.34.07-.64.15-.89.25-.1.04-.2.09-.29.13-.36.13-.52.29-.54.48l-.03.38h-.45l.13-1.75c.36 0 .74-.29 1.09-.89.03-.06.07-.11.1-.17.31-.57.56-1.21.76-1.89.22-.8.36-1.37.36-1.75 0-.15-.03-.28-.1-.35-.06-.03-.22-.07-.48-.07h-.45v-.35h1.5 3.54.3v.35h-.3-.15c-.22 0-.32.07-.35.19v.13.13 4.26c-.01.25.12.41.34.41zm-1.89-.41v-4.26c0-.22 0-.31-.03-.38-.03-.03-.13-.03-.25-.03h-.73c-.16 0-.29.03-.39.1-.03.03-.06.06-.09.13-.03.09-.07.15-.07.28-.03.07-.06.19-.09.41-.13.48-.29.95-.42 1.43-.16.51-.32.95-.48 1.33-.1.23-.19.48-.29.73-.1.22-.16.35-.16.38-.03.19.09.29.32.29h1.18 1.18c.16 0 .29-.07.32-.16 0-.03 0-.06 0-.13z" fill="#005a4a" fill-rule="evenodd"/></svg>