<svg height="44" viewBox="0 0 44 44" width="44" xmlns="http://www.w3.org/2000/svg"><path clip-rule="evenodd" d="m33.9 20.1c-.1.1-.3.2-.4.4-1.5 1-3.1 1.7-4.8 2-4.6 1.3-7.9 1.5-11.7 2.4-.8.2-1.5.4-2.2.7.7.4 1.5.7 2.2 1 1.5-.5 3-.8 4.5-1 .8-.1 3.4-.6 5.3-1 3.5-.8 8.4-2.4 7.1-4.5zm-2.2-4.4c-.8-.4-1.7-.7-2.6-.9-.5.4-1 .7-1.6 1 1.1.2 2.1.5 3.1.9.2-.1 1-.9 1.1-1zm-16.6 4.7c4.4-1.3 9.1-1.8 13.8-3.1-1.5-.5-3.2-.7-4.8-.5-2.9.4-5.8 1-8.6 1.8-1 .3-6.5 1.9-5 4.2 0 0 1-1.3 4.6-2.4zm-3.1 7.7c0 .4.2.8.8 1.2.1-.2.2-.4.3-.6-.4-.2-.7-.4-1.1-.6zm2.1-.2c.4-.2.8-.4 1.2-.6-.6-.3-1.3-.6-1.9-.9-.3.2-.5.4-.8.6zm17.1-9.8c-1.3.6-2.6 1-4 1.4-1.5.4-5.2.9-9.1 1.8-1.3.3-4.6 1.1-6.3 2.6.4.3.8.6 1.3.8.9-.6 1.9-1 3-1.3 2.1-.6 4.3-1 6.4-1.3 2.9-.5 5.7-1.2 8.5-2.1.7-.2 1.3-.6 1.9-1-.6-.4-1.1-.7-1.7-.9zm1.3-.8c.4.2.8.4 1.2.7.3-.5.1-.9-.5-1.4-.2.2-.4.5-.7.7zm-20.7 8.3c-.4-.2-.7-.4-1-.6-.2.4.2.8.5 1.1.2-.2.3-.4.5-.5zm18.9-12.7c-.1.3-.4.7-.6.9.7.2 1.3.4 2 .7-.1-.6-.8-1.2-1.4-1.6zm-20.9 3.9c4.7-3.2 9.8-5 18.5-3.4.5-.2.8-.6.9-1.2-2.4-.8-5-1.2-7.6-1-2.8.1-7.7 1.1-10.3 2.7l.8-1c3.2-1.6 6.7-2.5 10.3-2.7 2.3-.1 4.7.2 6.9.9-.3-.5-.9-.8-1.8-1.2-2.9-1.4-8.4-1.5-12.9.5.6-.4 1.2-.8 1.8-1.1 2.2-.9 4.5-1.4 6.9-1.3 2.6 0 5.1 1 7 2.7.3.3.4.7.5 1 1.1.5 2 1.2 2.7 2.2.2.4.3.9.2 1.4.4.3.8.6 1.1 1 .2.3.3.7.4 1 .1.5 0 1.1-.4 1.5.4.3.8.7.9 1.2.1 1.2-.4 2.3-1.3 3-1.5 1.2-3.3 2-5.1 2.5-3.6.9-6.9 1.4-9.4 1.8 1.7.5 3.5.7 5.3.7 3.6-.1 7.1-1 10.2-2.7 0 0-.1.4-.2.7-3.5 1.9-7.3 2.9-11.3 3-2.2-.1-4.3-.5-6.4-1.1-.6.2-1.2.4-1.8.6 2.4 1.2 5.1 1.8 7.8 1.9 3.6.1 7.2-.5 10.6-1.8-.2.2-.3.4-.4.6-2.5 1.1-5.1 1.9-7.8 2.1-2.2.1-4.3 0-6.5-.4-1.7-.4-3.3-.9-4.8-1.6-.3.2-.4.5-.5.8 6 3.2 11.6 3.3 18 1.3l-.6.6c-7 2.9-12.5 1.8-16.8-.3-.1-.1-.3-.1-.4-.2.4.7 3.6 3.2 7.3 3.5 2.5.2 5-.1 7.4-1l-1 .7c-2 1-4.2 1.4-6.5 1.2-2.9-.1-5.7-1.3-7.9-3.3-.5-.5-.8-1.1-.9-1.7-.9-.4-1.6-1.1-2.1-1.9-.3-.6-.3-1.3-.1-1.9-.5-.3-.8-.7-1.2-1.1-.3-.6-.3-1.4.1-2-.1-.4-.3-.7-.4-1-.1-.4-.1-.7-.1-1.1.1-.7.4-1.3.9-1.8.9-1.1 2.4-2 5-2.9 1.8-.6 3.6-1.1 5.4-1.4 2.2-.5 4.8-.7 7-1.5-6.1-1.3-12.5 0-17.7 3.6z" fill="#1f5379" fill-rule="evenodd"/></svg>