<svg height="44" viewBox="0 0 44 44" width="44" xmlns="http://www.w3.org/2000/svg" xmlns:xlink="http://www.w3.org/1999/xlink"><mask id="a" height="30" maskUnits="userSpaceOnUse" width="24.5" x="14" y="9"><path clip-rule="evenodd" d="m12.1 7h19.7c1.8 0 2.4.2 3.1.5s1.2.9 1.5 1.5.5 1.3.5 3.1v19.7c0 1.8-.2 2.4-.5 3.1s-.9 1.2-1.5 1.5-1.2.6-3 .6h-19.8c-1.8 0-2.4-.2-3.1-.5s-1.1-.9-1.5-1.5c-.3-.7-.5-1.3-.5-3.1v-19.8c0-1.8.2-2.4.5-3.1s.9-1.1 1.5-1.5c.7-.3 1.3-.5 3.1-.5z" fill="#fff" fill-rule="evenodd"/></mask><mask id="b" height="25.6" maskUnits="userSpaceOnUse" width="21" x="16.4" y="12.3"><path clip-rule="evenodd" d="m12.1 7h19.7c1.8 0 2.4.2 3.1.5s1.2.9 1.5 1.5.5 1.3.5 3.1v19.7c0 1.8-.2 2.4-.5 3.1s-.9 1.2-1.5 1.5-1.2.6-3 .6h-19.8c-1.8 0-2.4-.2-3.1-.5s-1.1-.9-1.5-1.5c-.3-.7-.5-1.3-.5-3.1v-19.8c0-1.8.2-2.4.5-3.1s.9-1.1 1.5-1.5c.7-.3 1.3-.5 3.1-.5z" fill="#fff" fill-rule="evenodd"/></mask><g clip-rule="evenodd" fill-rule="evenodd"><path d="m12.1 7h19.7c1.8 0 2.4.2 3.1.5s1.2.9 1.5 1.5.5 1.3.5 3.1v19.7c0 1.8-.2 2.4-.5 3.1s-.9 1.2-1.5 1.5-1.2.6-3 .6h-19.8c-1.8 0-2.4-.2-3.1-.5s-1.1-.9-1.5-1.5c-.3-.7-.5-1.3-.5-3.1v-19.8c0-1.8.2-2.4.5-3.1s.9-1.1 1.5-1.5c.7-.3 1.3-.5 3.1-.5z" fill="#fff"/><path d="m38.3 38.9s-.1-23.2.2-23.2c-.7-1.7-1.2-3.6-3-4.7l-.3.2c-.7.1-1.4.1-2.1.2.3-.4.8-.6 1.3-.8-.5-.4-.9-.5-1.5-.6-.4.4-1 .5-1.5.6h-.1c0-.4-.1-.9.5-1-.6-.3-1.6-.2-2.1 0-.2.4-.6.8-.6 1.3-.3.4-.6.8-1 1.1 0-.9.4-1.7.5-2.4-.5.2-1 .5-1.5.7-.8-.5-1.6-.9-2.5-1.3-.1 0-.2-.1-.2.1.7.5.4 1.5.5 2.3l-.4-.4c-.2-.6-.9-1-1-1.6-.8.1-1.3.3-2 .6l-.1.1c.5 0 1 .4 1.2.8-.8 0-1.5-.3-2.3-.3-.1-.1-.1-.2-.3-.2-.4.1-.7.4-1.1.7-.8.8-1.6 1.6-1.9 2.6.3 0 .6 0 .8.2-.4.3-.8.7-1.2.9-.1.6-.1 1.2-.2 1.9-.3.5-.8.9-1 1.5-.7 2.2-.9 4.7-.8 7.3-.2.2-.5.3-.7.5v2.3h.1c.1-.5.7-.7 1-1.1h.1c-.1.5-.1 1-.1 1.6l-.7.5c-.6.6-.1 1.4-.2 2.1 0 .2.1.5.2.5.1-.3.3-.5.5-.7.3-.1.5-.3.8-.3-.1.6-.3 1.1-.6 1.6-.1.1-.2.2-.3.3s-.2.3-.2.4c.3 1.8 1 3.7 1.9 5.8h11.4s11-.1 10.5-.1z" fill="#f60" mask="url(#a)"/><path d="m24.4 31.8c-.5-.6-.6-1.4-.5-2.2 1.8-.9 4.3-.8 6.2-.2.2.2.5.2.7.4-.2.9-.4 1.8-1.1 2.4-.2-.4-.4-.7-.6-1-.3 0-.1.2-.2.4-.1.4-.2.7-.2 1.2-.4.2-.8.3-1.3.3 0-.2-.1-.4-.1-.6-.2-.3-.2-.7-.2-1.1l-.1-.2c-.2.2-.2.5-.3.7-.1.3-.4.5-.4.9-.4 0-.8-.1-1.2-.4l.1-1.2s-.1-.1-.1-.1zm-5 2.1c-.1-.5-.2-1-.2-1.6.3.2.7.4 1.1.7v.3c.4.8 1.2 1.5 1.3 2.4-.8-.2-1.6-1.1-2.2-1.8zm2.7-1 1.2.7-.1 1.7c-.6-.8-1-1.5-1.1-2.4zm3.6 4.3c-.7-.6-1.4-1.3-1.4-2.2.3.2.8.2 1.2.4.1.6.3 1.3.2 1.8zm1.5-.8c.5-.2.8-.6 1.3-1.1 0 1-.1 1.9-.9 2.5zm4.1 1c-.5-.3-1.7-.5-1.5-1.3.3-.4.7-.7 1-1.1.1.8.2 1.6.5 2.4zm1.4-.8c-.7-1-.2-2.2.2-3.1.2.7.4 1.5.5 2.2.1.4.9.7 1.1 1.1-.5.1-1.4.3-1.8-.2zm1.6-2.3c-.4-.6-.4-1.3-.5-2 .5.5 1.6.6 1.5 1.6 0 .5.5.9.8 1.3-.7.1-1.3-.3-1.8-.9zm-17.9-11.6c0-.6.2-1.1.5-1.6l1-.3-.5.7c.1 1.2-.4 2.1-.4 3.3zm.4-3.5v-.9c.3-.3.5-.7.9-.9v1.3zm18.2 2c.1.2 0 .4 0 .6 0 .1 0 .1-.1.2.2.8-.5 1.4-1 1.9-.2.8-.9 1.7-1.8 1.9 0 .1 0 .2.1.3 1.9 0 3.5.6 5.1 1.4v.8c-1.5-.9-3.2-1.4-5-1.5 0 .3-.1.6-.1.9 1.5.6 3 1.5 4.3 2.6l-.1.9c-1.4-1.2-2.8-2.4-4.5-3-.2.3-.5.7-.8 1-.9-.6-1.9-1.1-2.9-1.4-.5.1-.5-.4-.6-.7l-.1-.6c.6-.2.9-.8 1.1-1.3.2.1.5.2.8.1.2-.2.2-.4.2-.6-.2-.8-1.2-.8-1.9-.9-.9-.1-1.9 0-2.6.4-.2.2-.1.5-.1.7.1.2.2.2.4.3.2 0 .4-.1.6-.2 0 .6.3 1.1.8 1.4.1 0 .1 0 .1.1l-.2 1c-.3.5-.9.3-1.3.5-.8.2-1.5.5-2.2 1-.4-.2-.7-.6-1-1-1.1.4-2.2 1-3.2 1.8l-1 .8c-.1-.3 0-.7-.1-1 1.1-1.1 2.6-1.5 3.9-2.2l-.1-1c-.5-.1-1.1 0-1.6 0-1.2.2-2.2.7-3.2 1.3 0-.3-.1-.8.2-1 1.4-.8 3-1.2 4.7-1.2 0-.1 0-.3-.1-.4-.1-.2-.1-.6-.3-.7-.8-.8-1.3-1.7-1.5-2.8.1.1.2 0 .3 0-.3-1.1-.3-2.4 0-3.5-.7-.3-1.5-.9-1.8-1.6-.3-.5-.5-1-.6-1.6.3-.7.6-1.3 1-2 .2-.1.5-.2.7-.3.5-.3 1.1-.9 1.8-.5.5.1.9.3 1.4.4 0 .2.1.5.3.6.7.1.8 1 1.2 1.5.3.2.8.1 1.2.2.6.2 1.1.2 1.6.6.9-.6 2.1-.7 3.2-.6.1-.5.3-.9.5-1.3.3 0 .1-.3.4-.4.6-.4 1.2-.9 2.1-.7.6.3 1.5.2 1.9.8.6.5.7 1.3 1.1 1.9-.3.8 0 1.9-.8 2.4l-.6.5c-.2.1-.5.2-.8.3.4 1 .1 2.2-.3 3 .8.3 1.1.2 1.3-.1zm-14-7.7c-1.1.2-1.4 1.4-1.6 2.3.2 1 1.3.7 1.8 1.2.7-.7 1.6-1.2 2.5-1.5-.1-1.3-1.5-1.5-2.4-1.9zm.9 5.6h-.2c.2.3.5.6.8.7.1.3.4.5.6.8.3.2.7.2 1 .1.2 0 .3-.5.4-.1 0 .5.3 1.1 0 1.6.1 1-1 .8-1.5 1.4-.3.3-.3.9-.2 1.3.4-.2.8-.4 1.2-.6.1-.5.6-.9 1-1.1.1-1.2.4-2.4.5-3.6-.1-.3-.4-.5-.7-.6-.9.2-1.9 0-2.9.1zm3.2-2c-.4.2-.8.5-1 .9h1.5c.3-.4.6-.9.9-1.3-.4-.1-.9.2-1.4.4zm4.5-.4c-.3 0-.6-.1-.8 0-.1 0 0 .2 0 .2.8-.1.5.8 1 1.1.4-.1.9 0 1.2-.2.1-.2-.1-.3-.2-.5-.6.1-.6-.7-1.2-.6zm-.4 3-.2.1c.2 1.1.2 2.2.3 3.3.4.3 1 .7 1.1 1.3.5.2 1 .4 1.4.9.3-.3.5-.6.6-1-.5-.6-1.7-.3-1.8-1.3l-.6-.6c-.1-.6-.1-1.3-.2-2l.1-.1c.1.2.3.4.4.5.5.1 1.1.3 1.5-.2.3-.2.2-.6.6-.6.2-.2.4-.2.6-.4 0-.1.2-.2.1-.3l-2.9-.1c-.3.1-.7.1-1 .5zm3.5-5.8c-.5.3-.7.8-.9 1.4 1 .5 2 1.4 2.4 2.5.2-.5.9-.2 1.2-.5.2-.8.3-1.9-.2-2.6-.5-.4-1.1-.7-1.6-1zm-9.6 12.5c0 .2-.1.6.1.7l.8-.3c.2 0 .4-.1.5-.3-.4-.2-.9 0-1.4-.1zm7.1.2c-.1 0-.2 0-.2.1l1.4.6.2-.7z" fill="#fff" mask="url(#b)"/></g></svg>