<svg height="44" viewBox="0 0 44 44" width="44" xmlns="http://www.w3.org/2000/svg"><path d="m37 7v30h-30v-30zm-2 28v-26h-26v26zm-2.4-19.7c1.2 1.1-4.5.9-5.1.5-2-.2-16.5-.2-16.5-.3 0-1.2 18.2-.2 21.6-.2zm-7.5 10.8c.1.2-.1 1 .1 1.2.1.4.1.7 0 1.1-.2 0-.3 0-.5 0-.2-.1-.1-2.4-.1-2.4.1-.3 0-.5 0-.8 0-.5-.1-1-.1-1.7-.1-.6 0-1.4-.1-2 0-.4-.3-1.1-.4-1.4 0-.1-.2-.5-.4-.6-.2-.2-.5-.2-.7-.4-.2.1-.8 0-1.1 0s-.7.1-1 .3c-1 .7-1.1 1.6-1.2 2.7-.2 1.6-.1 3.2-.1 4.8 0 .4.2 1.2 0 1.5-.4.6-.6-.7-.5-1 0-.1.1-.4 0-.6-.3-.5.2-1.2-.2-1.7.3-.1.2-.8.1-1.1.1-.2 0-.6 0-.8.1-.3.2-.7.2-1 0-.6 0-1.1.2-1.6.1-.3.9-1.8 2-1.9 1.1 0 2.3-.2 3.1 1s.6 3.1.7 4.5c0 .6.1 1.3 0 1.9zm7.4.1c.2.3 0 1 .2 1.3.1.4.1.7 0 1.1-.2-.1-.3 0-.5 0-.2-.1-.2-.8-.2-.9.1-.2 0-1.1 0-1.3 0-.1.1-.3.1-.2l-.1-.2c.1-.2.1-.7.1-.9-.2-.3-.2-.6-.1-.8-.1-.1 0-.7 0-.9-.1-.1 0-.1 0-.2 0 0-.2-1.8-.2-2 0-.3-.2-.7-.3-1-.1-.2-.3-.5-.6-.7-.2-.1-.4-.1-.5-.3-.2.1-.8 0-1.1 0-.4.1-.6.1-.9.3-1 .6-1.2 1.5-1.3 2.6-.2 1.5-.1 3.1-.1 4.6 0 .5.2 1.4 0 1.8-.4.7-.6-.7-.5-1 0-.1.1-.4 0-.6-.2-.3.1-1-.1-1.4-.1-.1-.1-.2-.2-.3.3-.1.2-.8.1-1.1.1-.2 0-.6 0-.8.1-.3.2-.7.2-1 0-.6 0-1.1.2-1.6.1-.4.6-1.7 2-1.9 1.1-.1 2.3-.2 3.1 1s.6 3.1.7 4.5c0 .6.1 1.3 0 1.9zm-15-.1c.2.3 0 1.1.1 1.3 0 .3-.1.7-.1 1-.2 0-.3 0-.5 0-.2-.1-.2-.8-.2-.9.1-.2 0-1.2 0-1.5.2 0 .1-.4.1-.6 0-.1 0-1-.1-.9.2-.7 0-1.8-.1-2.6 0-.4-.1-.8-.2-1.2-.1-.3-.2-.7-.3-.9-.3-.5-.7-.5-1-.8-.2.1-.8 0-1.1 0s-.7.1-1 .3c-1 .7-1.1 1.6-1.2 2.7-.2 1.6-.1 3.2-.1 4.8 0 .4.2 1.2 0 1.5-.4.6-.6-.7-.5-1 0-.1.1-.4 0-.6-.3-.5.2-1.2-.2-1.7.3-.1.2-.8.1-1.1.1-.2 0-.6 0-.8 0-.3.1-.7.1-1 .1-.6.1-1 .3-1.5.1-.3.5-1.2.9-1.4.8-.7 2.2-.8 3.1-.4 1.5.7 1.7 2.3 1.8 3.8.1 1.1.3 2.5.1 3.5z" fill="#fff"/></svg>