<svg height="44" viewBox="0 0 44 44" width="44" xmlns="http://www.w3.org/2000/svg"><g fill="none" fill-rule="evenodd"><path d="m20.2360938 9.5770149c1.7660035-.99030369 4.0241835-.40261348 5.0437861 1.3126428l11.0769231 18.6344777c1.0196026 1.7152563.4145251 3.908546-1.3514784 4.8988497-1.7660036.9903037-4.0241835.4026135-5.0437861-1.3126428l-11.0769231-18.6344777c-1.0196026-1.7152563-.4145251-3.908546 1.3514784-4.8988497z" fill="#0856a5"/><ellipse cx="22.263906" cy="31.032043" fill="#faae3c" rx="3.692308" ry="3.586207"/><path d="m24.0769231 9.5770149c1.7660035.9903037 2.371081 3.1835934 1.3514784 4.8988497l-11.0769231 18.6344777c-1.0196026 1.7152563-3.2777826 2.3029465-5.04378609 1.3126428-1.76600354-.9903037-2.37108103-3.1835934-1.35147842-4.8988497l11.07692311-18.6344777c1.0196026-1.71525628 3.2777825-2.30294649 5.0437861-1.3126428z" fill="#20a8e0"/><path d="m22.3056465 9.0967504c1.24855.02554322 2.4533722.66578141 3.1233715 1.7929073l.5201655.8750636c.240993.8838241.1362147 1.8567834-.3716439 2.7111433l-3.2718931 5.5042378-3.271893-5.5042378c-.5078586-.8543599-.6126369-1.8273192-.3716439-2.7111433l.5201655-.8750636c.6699993-1.12712589 1.8748214-1.76736408 3.1233714-1.7929073z" fill="#223c73"/></g></svg>