<svg height="44" viewBox="0 0 44 44" width="44" xmlns="http://www.w3.org/2000/svg"><path d="m28.8 32.1v-.4l.2.3zm0-2.9v-.7l.4.4zm0-2.1v-.8l.6-1 1.6.9-.9 1.6zm0-8.8v-.8l1.3-.7.9 1.6-1.6.9zm0-2.2v-.7l.4.3zm0-3.2v-.4l.2.1zm2.8-.6-1-.9-.9 1 1 .8zm2.9 3.8-.7-1.1-1.2.7.7 1.1zm-2.6-.7-1.1-1.3-1.3 1.1 1.1 1.3zm2.7 5.4 1.3-.2-.2-1.3-1.3.2zm-4.7 1.1 1.9-.3-.3-1.9-1.9.3c0 .1.3 1.9.3 1.9zm3.8-2.8-.6-1.6-1.6.6.6 1.6zm.9 4.7-.2 1.3 1.3.2.2-1.3zm-2.8-.8-1.9-.3-.3 1.9 1.9.3s.3-1.9.3-1.9zm2.3-1.5h-1.7v1.7h1.7zm-1.4 7.5 1.2.7.7-1.1-1.2-.7zm1-3.5-1.6-.6-.6 1.6 1.6.6s.6-1.6.6-1.6zm-4 6.6.9 1 1-.8-.9-1zm-.2-2.7 1.3 1.1 1.1-1.3-1.3-1.1zm-1.9-19.6-1.3-.5-.5 1.2 1.3.5s.5-1.2.5-1.2zm1.2 2.7v.4l-.7 1.2-1.5-.8.9-1.5zm0 2.9v.7l-.9 1-1.5-1.2 1.2-1.4zm0 2.1v.8l-.4-.6s.4-.2.4-.2zm0 8.8v.8l-.4-.2zm0 2.2v.7l-1.1.9-1.2-1.4 1.5-1.2zm0 3.3v.4l-1.3.8-.9-1.5 1.5-.9s.7 1.2.7 1.2zm-13 .3v-.4l.7-1.2 1.5.9-.9 1.5s-1.3-.8-1.3-.8zm0-2.9v-.7l.9-1 1.5 1.2-1.2 1.4zm0-2.1v-.8l.4.6zm0-8.8v-.8l.4.2zm0-2.2v-.7l1.1-.9 1.2 1.4-1.5 1.2zm0-3.2v-.4l1.3-.8.9 1.5-1.5.8zm10.6.9-1.8-.6-.6 1.7 1.8.6zm-1.2-2.9-1.7-.3-.3 1.7 1.7.3zm-5.8 22.8 1.7.3.3-1.7-1.7-.3zm-2.4 1.2 1.3.5.5-1.2-1.3-.5zm2.9-3.4.7-1.8-1.8-.6-.7 1.8zm6 2.6.5 1.2 1.3-.5-.5-1.2zm-1.2-2.6 1.8-.6-.7-1.8-1.8.6zm-6-21-.5-1.2-1.2.5.5 1.2zm1.9 4.4-.7-1.8-1.8.6.7 1.8zm1 21h1.4v-1.3h-1.3v1.3zm-.3-4.1h1.9v-1.9h-1.9zm1.9.5.3 1.7 1.7-.3-.3-1.7zm-1.8-20-.3-1.7-1.7.3.3 1.7zm1.6-3.6h-1.3v1.3h1.3zm.2 4.2h-1.9v1.9h1.9zm-7.4-.4v.4l-.2-.3zm0 2.9v.7l-.4-.4zm0 2.1v.8l-.6 1-1.6-.9 1-1.6zm0 8.8v.8l-1.3.7-1-1.6 1.6-.9zm0 2.2v.7l-.4-.3zm0 3.3v.4l-.1-.2s.1-.2.1-.2zm-2.8.5 1 .8.9-1-1-.8c-.1 0-.9 1-.9 1zm-.3-3.1 1.1 1.3 1.3-1.1-1.1-1.3zm-2.6-.7.7 1.1 1.2-.7-.7-1.1zm3-2-.6-1.6-1.6.6.6 1.6s1.6-.6 1.6-.6zm-3.1-2.7-1.3.2.2 1.3 1.3-.2zm4.6-1.1-1.8.3.3 1.9 1.9-.3s-.4-1.9-.4-1.9zm-4.1.5h1.7v-1.7h-1.7zm-.3-3.7-1.3-.2-.2 1.3 1.3.2zm2.6 2.1 1.9.3.3-1.9-1.9-.3s-.3 1.9-.3 1.9zm-1.9-2.5 1.6.6.6-1.6-1.6-.6zm1-3.5-1.2-.7-.7 1.1 1.2.7zm3.2-.4-1.3-1.1-1.1 1.3 1.3 1.1s1.1-1.3 1.1-1.3zm-.2-2.7-.9-1-1 .9.9 1z" fill="#f58220"/></svg>