<svg height="44" viewBox="0 0 44 44" width="44" xmlns="http://www.w3.org/2000/svg"><g fill="none" fill-rule="nonzero"><path d="m7 7h6v6h-6z" fill="#90d1f3"/><path d="m7 13h6v6h-6z" fill="#d3d800"/><path d="m13 13h6v6h-6z" fill="#88bd1f"/><path d="m19 7h6v6h-6z" fill="#003a69"/><path d="m25 7h6v6h-6z" fill="#90d1f3"/><path d="m25 13h6v6h-6z" fill="#009ee3"/><path d="m31 13h6v6h-6z" fill="#88bd1f"/><path d="m31 19h6v6h-6z" fill="#90d1f3"/><path d="m31 31h6v6h-6z" fill="#009ee3"/><path d="m25 25h6v6h-6zm-6-6h6v6h-6z" fill="#d3d800"/><path d="m19 31h6v6h-6z" fill="#88bd1f"/><path d="m13 19h6v6h-6z" fill="#90d1f3"/><path d="m13 25h6v6h-6z" fill="#009ee3"/><path d="m7 25h6v6h-6z" fill="#003a69"/><path d="m7 31h6v6h-6z" fill="#90d1f3"/></g></svg>