<svg height="44" viewBox="0 0 44 44" width="44" xmlns="http://www.w3.org/2000/svg"><path d="m22 37c-8.2842712 0-15-6.7157288-15-15s6.7157288-15 15-15 15 6.7157288 15 15-6.7157288 15-15 15zm0-1c7.7319865 0 14-6.2680135 14-14s-6.2680135-14-14-14-14 6.2680135-14 14 6.2680135 14 14 14zm-.9677419-15.3146973 3.8911115 3.1428463-5.3427244 5.171851h-6.8929168zm8.7096774.3469554v7.9677419h-8.7096774zm-15.483871-4.3548387 3.1241337-2.9032259 3.1661889 2.9032259v2.9032258l-6.2903226 6.2903225zm7.7419355 0-2.9032258-2.9032259h6.7741935l3.3870968 2.9032259v3.3870967l-3.6390735 2.9032258-3.618991-2.9032258z" fill="#e31513"/></svg>