<svg height="44" viewBox="0 0 44 44" width="44" xmlns="http://www.w3.org/2000/svg"><path d="m36 22c0 7.7583333-6.1967213 14-14 14s-14-6.2416667-14-14 6.1967213-14 14-14c7.6885246 0 14 6.2416667 14 14zm-20.8 5.8333333c.6285714 0 1.3142857-.35 1.6571429-.9333333l2.9142857-4.9583333 2.9142857 4.9583333c.3428571.5833333.9142857.9333333 1.6.9333333s1.2571428-.35 1.6-.9333333l4.5142857-7.875c.5142857-.875.2285714-2.0416667-.6857143-2.5666667-.8571428-.4666666-2.0571428-.2333333-2.5714286.7l-2.9142857 4.9583334-2.9142857-4.9583334c-.3428571-.5833333-.9142857-.9333333-1.6-.9333333s-1.2571428.35-1.6.9333333l-4.5142857 7.875c-.5142857.875-.2285714 2.0416667.6857143 2.5666667.2285714.175.5714286.2333333.9142857.2333333z" fill="#fff" fill-rule="evenodd"/></svg>