<svg height="44" viewBox="0 0 44 44" width="44" xmlns="http://www.w3.org/2000/svg"><g fill="none" fill-rule="evenodd"><path d="m36 22c0 7.7583333-6.1967213 14-14 14s-14-6.2416667-14-14 6.1967213-14 14-14c7.6885246 0 14 6.2416667 14 14" fill="#ed1d24"/><path d="m15.2 27.8333333c-.3428571 0-.6857143-.0583333-.9142857-.2333333-.9142857-.525-1.2-1.6916667-.6857143-2.5666667l4.5142857-7.875c.3428572-.5833333.9142857-.9333333 1.6-.9333333s1.2571429.35 1.6.9333333l2.9142857 4.9583334 2.9142857-4.9583334c.5142858-.9333333 1.7142858-1.1666666 2.5714286-.7.9142857.525 1.2 1.6916667.6857143 2.5666667l-4.5142857 7.875c-.3428572.5833333-.9142857.9333333-1.6.9333333s-1.2571429-.35-1.6-.9333333l-2.9142857-4.9583333-2.9142857 4.9583333c-.3428572.5833333-1.0285715.9333333-1.6571429.9333333" fill="#fff"/></g></svg>