<svg height="44" viewBox="0 0 44 44" width="44" xmlns="http://www.w3.org/2000/svg"><path d="m29.9 30.1c1.8-2 3.5-4.2 5.1-6.4v9.4c-.1 1.1-1 1.9-2.2 1.9h-17.7c1.4-1.3 2.9-3 4.2-5.1 1.4-2.1 1.6-2.7 2.5-4.8.4-.1 1.5-.5 2.3-.7-1 2-2 4.6-2.1 6.1-.2 2.1.7 3.3 2.1 3.5 1.4 0 3.4-1.1 5.8-3.9zm-11.4-6.4s-1.8 3.3-3 4.8c-.7.8-3.4 5-5.2 3.6-1.8-1.7 2.8-5.2 3.7-5.8 1.5-1.1 4.5-2.6 4.5-2.6zm-7.3-12.1c-1.6 1.3-2.2 2.6-2.2 2.6v-3.2c0-1.1 1-2 2.2-2h16.9s-1 .1-1.9 1.1c-.5.6-2.3 2.9-4.2 2.4s-1.5-2-3.4-2.5-5.4 0-7.4 1.6zm18.2-.9c.9-.7.6-1.5 0-1.7h2.6c1 0 1.9.7 2.1 1.6-1.5-.2-4 .8-6 3.3s-3.7 5.7-3.7 5.7-1.6.4-2.4.7c.3-.5 1.4-2.8 3.3-5.6 1.6-2.3 3.3-3.5 4.1-4zm-10.6 10.5c-3 .9-7.8 3.3-9.8 6v-9.1c.7 1.1 1.7 1.8 3 2.1 1.6.3 3.2.1 4.7-.7.7-.3 1.2-.8 1.8-1.3 1.1-1.1.7-2.3-.2-2.6s-1.7.3-2.2 1c-.4.7-1 1.5-2.9 1.5-.9 0-2.1-.6-2.3-1.9-.5-2 2.2-4.1 4.5-4.5 3.8-.6 2.9 1.9 4.7 3.2.5.3 1.7.7 2.8 0-.6.8-3.1 4.6-4.1 6.3zm11.2-7.2c1.2-1.2 3.2-2.1 4-1.2s-1.6 2.7-3.2 3.6-3.1 1.6-4.4 2.1c.7-1.3 2.7-3.6 3.6-4.5zm1.8 4.5c.9-.6 2.3-1.7 3.2-2.6v3.6c-.7.8-4.6 5.3-6.3 6.8-2.8 2.6-4.7 2.2-4-.5.4-1.6 1.1-3.2 1.9-4.6 1-.4 3.3-1.4 5.2-2.7z" fill="#005191"/></svg>