<svg height="44" viewBox="0 0 44 44" width="44" xmlns="http://www.w3.org/2000/svg"><path d="m22 7c-8.3 0-15 6.7-15 15s6.7 15 15 15 15-6.7 15-15-6.7-15-15-15z" fill="#00bbe4"/><path d="m18.8 29.4c.3.2.6.5.6.9.1.3 0 .7-.2 1-.2.4-.6.6-1.1.6-.3 0-.5-.1-.7-.2l-.7-.3c-3.1-1.7-5-5-5-8.5v-1.5c-.1-3.6 1.9-6.8 5-8.6 0 0 .7-.3.7-.3.2-.1.5-.2.7-.2.4 0 .9.2 1.1.6.2.3.2.7.2 1-.1.4-.3.7-.7.9-1.8.9-3 2.7-2.9 4.7v5.3c.1 1.9 1.2 3.7 3 4.6zm13.4-6.6c.1 3.5-1.8 6.8-5 8.5l-.7.3c-.2.1-.5.2-.7.2-.4 0-.9-.2-1.1-.6-.2-.3-.2-.7-.2-1 .1-.4.3-.7.6-.9 1.8-.8 3-2.7 3-4.7v-5.3c0-2-1.1-3.8-2.9-4.7-.3-.2-.6-.5-.7-.9-.1-.3 0-.7.2-1 .2-.4.6-.6 1.1-.6.3 0 .5.1.7.2 0 0 .7.3.7.3 3.1 1.7 5 5 5 8.6z" fill="#fff"/></svg>