<svg height="44" viewBox="0 0 44 44" width="44" xmlns="http://www.w3.org/2000/svg"><g fill="#fff"><path clip-rule="evenodd" d="m8 22c0-7.7 6.2-14 13.9-14v5c-3.6 0-6.9 2.2-8.2 5.5s-.6 7.2 2 9.7 6.4 3.3 9.7 1.9 5.5-4.7 5.5-8.3h5c0 5-2.6 9.6-7 12.1s-9.6 2.5-14 0-6.9-7-6.9-11.9" fill-opacity=".8" fill-rule="evenodd"/><path d="m15.8 22c0-2.5 1.5-4.8 3.8-5.7s5-.4 6.7 1.3c1.8 1.8 2.3 4.4 1.3 6.7s-3.2 3.8-5.7 3.8c-3.3 0-6.1-2.7-6.1-6.1"/><path d="m26.3 14.1c0-2 1.6-3.5 3.6-3.5s3.5 1.6 3.5 3.5-1.6 3.5-3.5 3.5c-.9 0-1.8-.4-2.5-1s-1.1-1.5-1.1-2.5" fill-opacity=".8"/></g></svg>