<svg height="44" viewBox="0 0 44 44" width="44" xmlns="http://www.w3.org/2000/svg"><path d="m22.388601 7c0 4.4072165 5.6636451 4.4072165 5.6636451 8.8917526v3.2474227l-13.0517578 2.7061855v-5.9536082c0-4.4845361 6.5331905-4.4845361 6.5331905-8.8917526-8.0829016.23195876-14.5336788 6.8041237-14.5336788 14.9226804 0 4.4845361 1.94300518 8.4278351 4.9740933 11.1340206 2.0984456-.4639175 3.026395-2.3195876 3.026395-4.4845361v-5.0499481l10.0324707-2.0876289v4.3540719c0 3.0927835-1.7117155 5.7989691-4.7428036 6.4175258l-7.4611399 1.6237113c2.5647669 1.9329897 5.6735752 3.1701031 9.1709845 3.1701031 8.238342 0 15-6.7268041 15-15-.0777202-8.1958763-6.5284974-14.76804124-14.611399-15z" fill="#e8bf00" fill-rule="evenodd"/></svg>