<svg height="44" viewBox="0 0 44 44" width="44" xmlns="http://www.w3.org/2000/svg"><path clip-rule="evenodd" d="m17.5 12.1c-1.4.6-3.3 2.3-4.7 3-.7.3-1.4.4-1.9 0-1-.7-.3-2 .4-2.8 3.7-4 10.4-5.4 15.7-3.2 5.4 2.2 9.1 7.6 9.1 13 0 1.4-.6 2.1-2.1 2.1-2.7 0-5.4 0-8.2 0-1.1 0-2-.4-2-1.7s1-1.5 2-1.5h6.6c-.1-7-8.2-11.7-14.9-8.9zm-7 12.1c.6 7.9 10.2 12.3 17 8 .6-.4 1.2-.9 1.8-1.4.9-.7 1.9-1.1 2.5 0 .3.5.1 1.9-.4 2.3-4.1 3.9-9 4.9-14.4 3.3-5.6-1.7-9.6-6.9-10-12.9-.1-1.6.5-2.5 2.2-2.5h8.2c1.1 0 2 .3 2 1.6s-.9 1.6-2 1.6c-2.3 0-4.5 0-6.9 0zm11 1c.9 0 1.6.7 1.6 1.6v3.2c0 .9-.7 1.6-1.6 1.6s-1.6-.7-1.6-1.6v-3.2c0-.9.7-1.6 1.6-1.6zm0-11.8c.9 0 1.6.7 1.6 1.6v3.2c0 .9-.7 1.6-1.6 1.6s-1.6-.7-1.6-1.6v-3.2c0-.9.7-1.6 1.6-1.6z" fill="#ee741d" fill-rule="evenodd"/></svg>