<svg height="44" viewBox="0 0 44 44" width="44" xmlns="http://www.w3.org/2000/svg"><path d="m9 35v-26h26v26zm23-18.1c-.1-1-.6-1.5-1.7-1.5h-1.3l-.2 5.6h1s.1-2.6.1-2.7h1.3c0 .1.2 2.7.2 2.7h1s-.4-3.8-.4-4.1zm-12.3 7.6c-.1-1-.6-1.5-1.7-1.5h-1.4l-.2 5.5h1s.1-2.6.1-2.7h1.3c0 .1.2 2.7.2 2.7h1c.1 0-.2-3.8-.3-4zm-7.6-9.1v5.6h1v-4.6h1.3v4.6h1v-5.5zm10.9 2h-.6c-.2 0-.4-.1-.5-.2s-.1-.2-.1-.3v-1.5h-1v1.6c0 .4.1.7.4.9s.6.4 1 .4h.8v2.7h1v-5.5h-1zm2.1-2v.9h.9v4.7h1v-4.6h.9v-.9zm-1.5 7.6v1.8h-1.4v-1.8h-1v5.5h1v-2.8h1.4v2.8h1v-5.5zm-10 1.8c-.2 0-.3 0-.5 0v-.9h1.9v-.9h-2.9v.9 4.6h.1 1.5c1.6 0 1.8-1.4 1.8-1.9s-.3-1.8-1.9-1.8zm6.4-6.8c0-.8-.2-1.4-.4-1.8-.3-.7-.9-.9-1.4-.9s0 0 0 0c-.5 0-1.1.3-1.4.9-.2.4-.3 1-.4 1.8v.2c0 .5.1 1 .2 1.4.3 1.1.9 1.5 1.6 1.5s0 0 0 0c.7 0 1.3-.4 1.6-1.5.1-.4.2-.9.2-1.4zm-2.6.2c0-1.5.4-2 .8-2s.8.5.8 2c0 1.5-.4 2-.8 2s-.8-.5-.8-2zm12.5-.8c0-.1 0-.9 0-1h.2c.7 0 .9.1.9 1zm-12.3 7.5c0-.1 0-.9 0-1h.2c.7 0 .9.1 1 1zm-4.1 2.8c-.1 0-.3 0-.3 0v-1.1-.1-.8h.2c.5 0 1.1 0 1.1 1-.1.9-.7 1-1 1zm16.2.8-1.2-3.2c.3-.2.5-.6.5-.9.1-.3.2-1.4.2-1.4h-1c0 .1 0 .5-.1.8 0 .5-.2 1-.7 1h-.4v-1.8h-1v5.5h1v-2.8h.6l1 2.8z" fill="#fff"/></svg>