<svg height="44" viewBox="0 0 44 44" width="44" xmlns="http://www.w3.org/2000/svg"><path d="m9 35h26v-26h-26z" fill="#cc003d"/><path d="m32 16.9c0 .2.4 4 .4 4h-1s-.2-2.6-.2-2.7c-.1 0-1.2 0-1.3 0 0 .1-.1 2.7-.1 2.7h-1l.2-5.5h1.4c1 0 1.5.5 1.6 1.5zm-12.3 7.6c0 .2.4 4 .4 4h-1s-.2-2.6-.2-2.7c-.1 0-1.2 0-1.3 0 0 .1-.1 2.7-.1 2.7h-1l.2-5.5h1.3c1.1 0 1.6.5 1.7 1.5zm-7.6-9.1h3.3v5.6h-1v-4.6h-1.3v4.6h-1zm10.9 2v-1.9h1v5.5h-1v-2.7h-.7c-.4 0-.7-.1-1-.4-.3-.2-.4-.6-.4-.9v-1.6h1v1.5c0 .1 0 .2.1.3s.3.2.5.2zm2.1-2h2.7v.9h-.8v4.7h-1v-4.6h-.9zm-1.5 7.6h1v5.5h-1v-2.8h-1.4v2.8h-1v-5.5h1v1.8h1.4zm-10 1.8c1.6 0 1.8 1.2 1.8 1.8 0 .5-.2 1.9-1.8 1.9h-1.5-.1v-4.6-.9h3v.9h-1.8v.9zm6.4-6.8v.2c0 .5-.1 1-.2 1.4-.3 1.1-.9 1.5-1.6 1.5s0 0 0 0c-.7 0-1.3-.4-1.6-1.5-.1-.4-.2-.9-.2-1.4v-.2c0-.8.2-1.4.4-1.8.3-.7.9-.9 1.4-.9s0 0 0 0c.5 0 1.1.3 1.4.9.2.4.4 1 .4 1.8zm-2.6.2c0 1.5.4 2 .8 2s.8-.5.8-2c0-1.5-.4-2-.8-2s-.8.5-.8 2zm12.5-.8h1.2c-.1-.9-.2-1-.9-1h-.2c-.1.1-.1.8-.1 1zm-12.3 7.5h1.2c-.1-.9-.2-1-1-1h-.2zm-4.1 2.8c.3 0 1-.1 1-1 0-1-.6-1-1.1-1-.1 0-.2 0-.2 0v.8.1 1.1c-.1 0 .2 0 .3 0zm16.2.8h-1.1l-1-2.8c-.1 0-.6 0-.6 0v2.8h-1v-5.5h1v1.8h.4c.5 0 .7-.5.7-1 0-.4.1-.7.1-.8h1s-.1 1-.2 1.4-.3.7-.5.9z" fill="#fff"/></svg>