<svg height="44" viewBox="0 0 44 44" width="44" xmlns="http://www.w3.org/2000/svg"><path clip-rule="evenodd" d="m33.6 8c-.2.2-1.2.1-1.4.1-.7 0-1.4.1-2.1.1-1.1.1-2.1.2-3.2.3-2.1.2-4.3.4-6.4.7-2.2.3-4.5.7-6.7 1.3-1 .3-2.6.7-2.9 1.8-.4 1.4.9 1.9 2 1.9 2.1 0 4.2-.7 6.2-1.1 2.2-.4 4.5-.7 6.7-.7.3 0 .5-.1.5.1.1.2-.5 1.4-.6 1.6-.4 1.1-.8 2.3-1.3 3.4-.8 2.1-1.6 4.2-2.5 6.3-.9 2.3-1.8 4.8-3.2 6.9-1.5 2.3-4.8 2.8-6.9 1.1-1.8-1.3-3.2-4.6-1.9-6.7.6-1 1.9-1.4 3-1.5.3 0 1.2 0 1.4.2.3.4-.3.6-.7.7-.9.3-2.1.5-1.6 1.8.4 1.1 1.8 1.6 2.9 1.5 2.5-.2 4.6-3.3 3.4-5.6-1.2-2.4-5.1-2-7.2-1.3-2.7 1-4.1 3.3-4.2 6.1 0 2.3 1 4.9 2.7 6.5 2.2 1.9 5 2.8 7.8 2.3 2.7-.5 4.2-3.2 5.3-5.5 1.2-2.3 2-4.8 2.9-7.3.1-.4 1.1-2.9 1.1-2.8.3.2-.6 2.8-.7 3.2-.2 1.3-.3 2.7-.4 4 0 1-.1 2.4.5 3.3.7 1 1.8 1 2.6.2 1.1-1 1.9-2.3 3.1-3.3 1.1-.8 1.9-1.5 1.9-3-.2-3.3-3.4.9-4.3.9-.3 0 1.5-6.1 1.6-6.4.3-.9.6-1.8.9-2.7.2-.7.5-1.5.2-2.2-.5-.9-2-1-2.9-.8.8-2.5 3.8-1.6 5.7-2 1.3-.2 2.3-1.4 1.4-2.7-.4-.6-1-.9-1.7-1 .1.3-.8.2-1 .3z" fill="#ffffff" fill-rule="evenodd"/></svg>