<svg height="44" viewBox="0 0 44 44" width="44" xmlns="http://www.w3.org/2000/svg"><path clip-rule="evenodd" d="m8 8h28v28h-28zm22.9 9.8c-1.9-.2-3.7 0-5.5.5.2-.8.4-1.6.6-2.4 1.8.3 3.5.8 4.9 1.9zm3.8 4.2c.7-.2-.2-2.4-.4-2.8-.5-.9-1.2-1.7-2.1-2.3-2.1-1.5-4.6-2.1-7-2.7-.3 2.3-1 4.4-2.2 6.4.3.1 1.1-.4 1.4-.5l1.8-.6c1.2-.3 2.3-.5 3.5-.4 2.3 0 3.8.9 5 2.9zm-16.7-6.2c.2.8.4 1.6.6 2.4-1.8-.4-3.7-.7-5.5-.5 1.4-1 3.1-1.5 4.9-1.9zm3 4.9c0-.1 0-.1 0 0-1.1-2-1.8-4.1-2.1-6.5-2.3.6-4.6 1.2-6.6 2.5-1 .7-1.8 1.5-2.4 2.5-.2.3-1.2 2.7-.6 2.7.2 0 .5-.7.7-.9.3-.4.7-.7 1.1-1 .8-.6 1.8-.8 2.8-1 2.4-.2 4.7.7 7.1 1.7zm-8.1 6.7c1.6.1 3.2-.1 4.8-.7.1.9.2 1.7.2 2.6-1.7-.5-3.4-.9-5-1.9zm-3.5-3.7c-.9.2.6 2.5.9 2.9.8 1 1.9 1.8 3 2.5 1.2.6 2.4 1.1 3.7 1.4.9.2 2.9.9 3.7.4-.2-.4-.7-.6-1-.9-.4-.4-.6-.8-.8-1.3-.4-1.5.2-2.8.1-4.2-1.6.9-3.4 1.7-5.3 1.6-1.7-.1-3.1-1.1-4.3-2.4zm16.6 5.5c.1-.9.2-1.7.2-2.6 1.5.6 3.1.8 4.8.7-1.5 1.1-3.2 1.5-5 1.9zm8.6-5.5c-1.2 1.3-2.3 2.2-4.1 2.3-2.1.1-3.9-.6-5.6-1.6 0 1.3.5 2.5.2 3.9-.1.5-.3 1-.6 1.4-.4.4-1 .6-1.2 1.1.9.4 2.7-.2 3.7-.4 1.3-.3 2.6-.8 3.8-1.5 1.1-.6 2.1-1.3 2.9-2.3.2-.3 1.7-2.6.9-2.9zm-16.7-1.4c-.7.7-2.2 1-3.1 1.1-.6.1-2.6.1-2.8-.7-.2-.9 1.8-1.1 2.3-1.2 1.2-.1 2.4.3 3.6.8zm-3.5 2.4c.9-.1 1.7-.2 2.5-.5s2-.8 2.6-1.4c1-1.1-3.1-2.3-3.9-2.4-1.5-.2-4.1-.1-4.7 1.6-.9 2.1 2.1 2.6 3.5 2.7zm11.8-2.4c1-.6 2.2-.9 3.4-.9.6 0 2.7.2 2.5 1.2-.2.8-1.9.8-2.5.8-1.2-.1-2.4-.5-3.4-1.1zm3.5 2.4c1.3 0 3.8-.4 3.6-2.3-.3-1.9-3.2-2.2-4.7-2-.7.1-5.1 1.3-4.1 2.4.5.6 1.6 1 2.4 1.3s1.8.6 2.8.6zm-7.7.3c.5 1 .7 1.9 0 2.8-.7-.9-.5-1.8 0-2.8zm-1.6 1.7c0 .9.4 2.8 1.7 2.7 1.3-.2 1.5-2.1 1.5-3.1-.1-.6-.8-3.3-1.7-3.1-.4.1-.8 1.1-1 1.4-.3.6-.5 1.4-.5 2.1zm1-11.4h1.2c-.1.3-.4 1.9-.6 1.9s-.5-1.7-.6-1.9zm-1.2-1.2c.1 1 .3 1.9.6 2.9.1.4.8 2.5 1.2 2.5.5-.1 1-1.9 1.2-2.3.3-1 .5-2 .7-3h-3.7z" fill="#fff" fill-rule="evenodd"/></svg>