<svg height="44" viewBox="0 0 44 44" width="44" xmlns="http://www.w3.org/2000/svg"><g clip-rule="evenodd" fill-rule="evenodd"><path d="m8 8h28v28h-28z" fill="#a21434"/><path d="m30.9 17.8c-1.5-1.1-3.2-1.5-4.9-1.9-.2.8-.4 1.6-.6 2.4 1.8-.5 3.7-.7 5.5-.5zm3.8 4.2c-1.2-2-2.6-2.9-5-3-1.2 0-2.4.1-3.5.4-.6.1-1.1.3-1.6.5-.4.1-1.2.7-1.6.6 1.2-1.9 1.9-4.1 2.2-6.4 2.5.6 4.9 1.2 7 2.7.8.6 1.6 1.4 2.1 2.3.1.6 1.1 2.8.4 2.9zm-16.7-6.2c-1.7.4-3.4.8-4.9 1.9 1.9-.2 3.7.1 5.5.5-.2-.8-.4-1.5-.6-2.4zm3 4.9c-2.3-1-4.5-1.8-7-1.6-1 .1-1.9.3-2.8.8-.9.6-1.3 1.3-1.9 2.1-.7-.2.3-2.4.5-2.8.6-1 1.4-1.8 2.3-2.4 2-1.5 4.4-2 6.8-2.6.3 2.3 1 4.5 2.1 6.5 0-.1 0-.1 0 0zm-8.1 6.7c1.6 1 3.3 1.4 5 1.8-.1-.9-.2-1.7-.2-2.6-1.5.7-3.1.9-4.8.8zm-3.5-3.7c1.2 1.3 2.6 2.3 4.5 2.3 1.9.1 3.7-.7 5.3-1.6.1 1.4-.6 2.7-.1 4.2.2.5.4 1 .8 1.3.3.3.8.5 1 .9-.8.5-2.7-.1-3.6-.3-1.4-.3-2.7-.8-3.9-1.5-1.1-.6-2.2-1.4-2.9-2.3-.4-.4-2-2.9-1.1-3zm16.6 5.5c1.7-.4 3.5-.9 5-1.8-1.7.1-3.2-.1-4.8-.7 0 .8-.1 1.6-.2 2.5zm8.6-5.5c.8.3-.6 2.5-.9 2.9-.8 1-1.9 1.8-3 2.4-1.2.6-2.4 1.1-3.7 1.4-1 .3-2.9.9-3.9.4.3-.4.8-.6 1.2-1s.6-.9.7-1.5c.3-1.4-.3-2.6-.2-3.9 1.8 1 3.6 1.7 5.6 1.6 1.9-.1 3-1 4.2-2.3zm-16.7-1.4c-1.1-.5-2.2-.9-3.4-.8-.6 0-2.7.2-2.5 1.2.2.8 2.1.8 2.6.7 1-.1 2.5-.4 3.3-1.1zm-3.5 2.4c-1.4 0-4.2-.5-3.6-2.6.6-1.8 3.3-1.9 4.8-1.8.8.1 4.7 1.1 4 2.3-.3.6-1.9 1.2-2.6 1.4-.8.4-1.7.6-2.6.7zm11.8-2.4c1 .5 2.1 1 3.2 1.1.6 0 2.5.1 2.7-.7.2-.9-1.8-1.1-2.3-1.2-1.3-.1-2.5.3-3.6.8zm3.5 2.4c-1.7 0-3.8-.7-5.1-1.8-.8-.7.5-1.3 1.2-1.7.9-.4 1.8-.7 2.8-.8 1.5-.2 4.3.1 4.7 1.9.4 1.9-2.3 2.3-3.6 2.4zm-7.7.3c-.5 1-.7 1.9 0 2.8.7-.9.5-1.8 0-2.8zm-1.6 1.7c0-.7.2-1.4.5-2.1.2-.3.6-1.3 1-1.4.9-.2 1.6 2.4 1.7 3.1.1 1-.2 3-1.5 3.1s-1.7-1.8-1.7-2.7zm1-11.4c.2.7.3 1.3.5 1.9h.2c.2-.6.3-1.2.5-1.9zm-1.2-1.2h3.7c-.2 1-.3 1.9-.6 2.9-.1.4-.7 2.4-1.2 2.5s-1.1-2-1.2-2.3c-.4-1.1-.6-2.1-.7-3.1z" fill="#fff"/></g></svg>