<svg height="44" viewBox="0 0 44 44" width="44" xmlns="http://www.w3.org/2000/svg"><g fill="none" fill-rule="nonzero"><path d="m27.1240865 18.961666c.8815477.0892435 1.5443285.8444577 1.518374 1.730131 0 .899977-.5371665 2.0490665-2.8513745 2.0490665h-1.500928c.1440283.3130847.2139434.6551578.2043145.999648 0 1.1481535-.88946 2.1099-2.7576835 2.1099h-4.000464l-.5925335-.591994v3.174275h-1.462552v-7.2853885h2.147756c2.6301145 0 2.7965665 1.889602 2.7965665 2.3600265-.0017342.4069506-.11034.806306-.3149445 1.1580855h1.482c.7962825 0 1.16506-.481377 1.16506-.8800285 0-.760422-.7953205-.963768-1.4610765-1.2976405-1.093313-.5441605-1.686308-.998608-1.686308-2.0251335 0-.722553.389701-2.046109 2.2783345-2.046109h1.405274v-2.945059h2.3894c1.4077505 0 2.407379.56511 2.407379 1.79595.0594727.7631382-.4292896 1.4617125-1.166594 1.66738zm-9.295091 5.70375v-.0000195c.3337194.0211848.6605287-.1015944.8977462-.3372748.2372176-.2356804.3621187-.5616847.3431038-.8955347.0149861-.3255404-.1143983-.6411132-.3535983-.8624377-.2391999-.2213245-.5638524-.3258583-.8872517-.2856833h-.6851975v2.38095zm5.664893-4.517747.575055-.5840055h-1.646918c-.8884915 0-1.073878.4425135-1.073878.739492 0 .5850325.499291.8441485.962741 1.0474425.4058162.1629432.8009361.3513546 1.183.564109zm1.463059-3.5370335v1.8058625h.7225465c.9627345 0 1.1297-.5840055 1.1297-.89895 0-.2122705-.0553085-.9069125-1.185522-.9069125zm.8341515 4.9811645-.0000065-.0000195c.925899 0 1.2956515-.499304 1.295658-1.0185435 0-.518232-.27755-1.00958-1.2956515-1.00958h-.8341515v2.028143zm9.208901-6.2838165v8.911916c-.0085484 2.827799-1.8935562 5.3061504-4.616391 6.069492v-10.222472c0-4.5227325-1.7590235-6.450197-5.9020585-6.450197h-10.77115c.7587972-2.7267885 3.2411301-4.61420246 6.0715265-4.616417h8.910395c1.672934-.00011034 3.2773807.66441125 4.4603237 1.8473543 1.1829431 1.182943 1.8474646 2.7873897 1.8473543 4.4603237z" fill="#0d4ba0"/><path d="m9.076583 28.598111c-.00002586 1.6729099.66452224 3.2773095 1.8474464 4.4602373 1.1829241 1.1829278 2.7873217 1.8474809 4.4602316 1.8474602h8.910889c2.8303375-.0023552 5.31258-1.8897166 6.0714745-4.616417h-10.7715595c-4.143035 0-5.902052-1.9274905-5.902052-6.45021v-10.222459c-2.7228506.7633212-4.60787683 3.2416769-4.6164235 6.0694855z" fill="#f26522"/></g></svg>