<svg height="44" viewBox="0 0 44 44" width="44" xmlns="http://www.w3.org/2000/svg"><path d="m32 27.8c.1.5-.1.8-.3.8s-.4-.2-.7-.6-.4-.9-.2-1.2c.1-.2.3-.2.5-.1.4.1.6.8.7 1.1zm-2.7 1.2c.6.5.7 1 .4 1.4-.2.2-.5.3-.8.3s-.6-.1-.9-.3c-.5-.4-.7-1.2-.3-1.6.2-.2.4-.3.6-.2.4.1.8.2 1 .4zm-.9 4.5c2.5 0 5.1.8 8.1 3.4.3.3.7-.1.4-.4-2.9-3.6-5.6-4.2-8.3-4.8-3.3-.7-5-2.5-6.2-4.5-.2-.4-.3-.3-.4.2 0 .7 0 1.5.2 2.2-.1 0-.3 0-.4 0-4.7 0-8.5-3.7-8.5-8.2s3.8-8.2 8.5-8.2 8.5 3.7 8.5 8.2c0 .3 0 .6-.1 1-.9-.1-1.8-.1-2.7 0-.3 0-.3.2 0 .2 2.8.5 4.7 2.2 5.2 5.2 0 0 0 .1.1.1h.1c3-4.9 2.2-11.1-1.8-15.1s-10.5-4.9-15.6-2.1-7.6 8.5-6.1 14 6.6 9.3 12.5 9.3c1.9-.1 3.7-.5 6.5-.5z" fill="#ffffff"/></svg>