<svg height="44" viewBox="0 0 44 44" width="44" xmlns="http://www.w3.org/2000/svg"><g clip-rule="evenodd" fill-rule="evenodd"><path d="m8 24h29l-3 8h-29z" fill="#04aac8"/><path d="m12.56 16.77c-.01 0-.02 0-.04-.01 0-.06 0-.12 0-.18-.06-.6-.46-.95-1-.89-.4.05-.63.3-.63.71 0 .3-.01.59.01.89 0 .09.04.19.1.25.41.47 1.18.36 1.42-.22.07-.17.09-.36.14-.55zm-4.21-2.98c.65 0 1.27 0 1.89.01.06 0 .14.07.16.13.07.18.12.36.18.55.18-.16.34-.32.53-.45 1.32-.89 3.09-.39 3.72 1.09.51 1.19.48 2.41-.13 3.57-.77 1.46-2.72 1.53-3.68.8-.03-.02-.06-.04-.11-.08v2.68h-2.56zm24.44 3.25c.02.13.03.26.07.39.1.32.33.49.67.49.37.01.6-.13.72-.45.11-.29.12-.6-.03-.88-.07-.14-.22-.29-.37-.35-.56-.24-1.04.13-1.06.8zm3.46-6c0 .68 0 1.37-.01 2.05 0 .07-.09.16-.16.21-.36.25-.78.29-1.2.36-.37.06-.75.11-1.11.23-.56.19-.86.62-.97 1.25.12-.1.2-.17.29-.24 1.39-1.03 3.32-.27 3.65 1.45.12.6.13 1.2-.08 1.79-.27.77-.82 1.26-1.57 1.52-.93.33-1.87.34-2.8.03-.92-.31-1.51-.97-1.77-1.9-.35-1.27-.31-2.54.12-3.79.4-1.17 1.29-1.84 2.39-2.26.66-.26 1.37-.33 2.06-.45.38-.05.76-.15 1.16-.25zm-17.63 4.71h1.19v-1.94h2.55v5.91h-2.55v-1.94h-1.18v1.94h-2.56v-5.91h2.55zm11.32 3.98c-.83 0-1.63 0-2.43-.01-.06 0-.16-.09-.19-.15-.22-.53-.43-1.06-.63-1.6-.06-.16-.14-.24-.32-.21-.11.02-.23 0-.38 0v1.96h-2.55v-5.92h2.54v1.91c.39.1.45.08.59-.27.2-.5.39-1 .6-1.5.03-.06.1-.16.15-.16.8-.01 1.59-.01 2.42-.01-.23.61-.41 1.21-.67 1.77-.26.58-.28 1.1-.02 1.69.33.82.58 1.66.89 2.5z" fill="#323f49"/></g></svg>