<svg height="44" viewBox="0 0 44 44" width="44" xmlns="http://www.w3.org/2000/svg"><path d="m22 36c-7.7319865 0-14-6.2680135-14-14s6.2680135-14 14-14 14 6.2680135 14 14-6.2680135 14-14 14zm6.528315-19.9073777c.0478882-.1149057.0478823-.2441819-.0000165-.3590832-.0991691-.2378902-.3724095-.3503459-.6102997-.2511769l-14.3629211 5.9874567c-.0906269.0377795-.158101.1161242-.1820255.2113511-.0418665.1666422.0592841.335672.2259259.3775403 2.4525624.6161728 4.06664 1.4433981 5.3728535 2.7412897 1.2915649 1.2833364 2.4723773 3.2135403 3.0118165 5.5309981.0226961.0975036.0909249.1781287.1833313.21664.1586014.0660989.3407569-.0088892.4068558-.1674906z" fill="#fff" fill-rule="evenodd"/></svg>