<svg height="44" viewBox="0 0 44 44" width="44" xmlns="http://www.w3.org/2000/svg"><path clip-rule="evenodd" d="m22.2 9c-5.3-.1-10.1 3-12.2 7.9s-1 10.5 2.7 14.2 9.3 4.9 14.2 2.9 8.1-6.7 8.1-12c0-7.1-5.7-12.9-12.8-13z" fill="#008b53" fill-rule="evenodd"/><g fill="#fff"><path d="m22.2 8.5c-5.5-.1-10.5 3.1-12.6 8.2s-1.1 10.9 2.8 14.8 9.7 5.1 14.7 3c5.1-2.1 8.4-7 8.4-12.5 0-7.4-5.9-13.4-13.3-13.5zm-2.5 22.1v3.7c-.4-.1-.9-.2-1.3-.3v-11.2h1.9c.4 0 .7.1 1 .3.2.3.3.6.3 1v5.3c0 .4-.1.7-.3 1-.4.3-.8.4-1.3.3-.2-.1-.3-.1-.3-.1zm2.3 4c-.6 0-1.2 0-1.8-.1v-3.3c.7.1 1.4-.3 1.7-.9v3.3c0 .3 0 .7.1 1zm3.5-7.7h-1.3v-2.9h-.5v9.8h.5v-6.4h1.3v6.2.5c-.9.3-1.9.4-2.8.5-.2-.3-.3-.6-.3-1v-9.5c0-.4.1-.7.3-1 .3-.2.6-.3 1-.3.5-.1 1.1 0 1.5.3.2.3.3.7.3 1zm4.1 5c-.4.3-.9.7-1.4.9v-5.4h-.6v5.7c-.4.2-.9.4-1.4.6v-6.2c-.1-.5.2-1 .7-1.2l-.6-3.5h1.3l.2 3.8h.2l.2-3.8h1.4l-.7 3.5c.5.1.8.7.7 1.2zm-3.5-5.5v-2.2l.4 2c-.2 0-.3.1-.4.2zm4 .4c-.1-.3-.3-.5-.6-.6l.6-3.1zm4.2-3v.2h-2.1v.5h.3c.6-.1 1.2 0 1.6.4-.3 1.2-.7 2.3-1.3 3.3v-2.7h-.6v3.7c-.4.6-.9 1.2-1.4 1.7l-.1.1v-8.1h3.6zm-8.6-1.4.1.6c-.3-.5-1-.8-1.6-.8h-.5c-.8-.1-1.5.4-1.7 1.1-.2-.8-1-1.3-1.8-1.2h-2.4v11.7c-1.7-.6-3.3-1.6-4.6-3-4.8-4.8-4.8-12.8 0-17.7 2.3-2.4 5.5-3.7 8.8-3.7s6.5 1.3 8.8 3.7 3.6 5.6 3.6 8.9v.4zm-6 7.1h.6v-5.7h-.6z"/><path d="m12.2 14.3v.4l.1.4.1.4.1.3.1.3.2.3.2.3.2.3.2.3.2.3.5.5.5.5.5.5.5.5.5.5.5.5.2.3.2.3.2.3.2.3.2.3.1.3.1.3.1.4v.4.4 3.3-.4l.1-.3-.1-.4-.1-.3-.1-.3-.2-.3-.2-.3-.2-.3-.2-.3-.2-.3-.5-.5-.5-.5-.5-.5-.5-.5-.7-.6-.5-.5-.2-.3-.2-.3-.2-.3-.2-.3-.2-.3-.1-.4-.1-.3-.1-.4v-.3-.4z"/><path d="m11.6 18.5v.4l.1.4.1.4.1.4.2.4.2.3.2.3.2.3.2.3.3.3.5.6.6.5.6.5.6.5.6.5.5.6.3.3.2.3.2.3.2.3.2.3.1.4.1.4.1.5.1.4v.4 3.5-.4l-.1-.5-.1-.4-.1-.4-.1-.4-.3-.2-.2-.3-.2-.3-.2-.3-.3-.3-.5-.6-.6-.6-.6-.5-.6-.5-.5-.6-.5-.6-.3-.3-.2-.3-.2-.3-.2-.3-.2-.3-.2-.3-.1-.4-.1-.4-.1-.4v-.4z"/></g><path d="m34.3 16.5h-7.8c0-.2-.2-.3-.3-.3s-.3.1-.3.3h-.3c0-.2-.2-.3-.3-.3-.2 0-.3.2-.3.3h-.2c.2-.2.3-.5.3-.8 0-.4-.1-.7-.4-1s-.6-.4-1-.4c-.8 0-1.5.6-1.5 1.4.1.3.2.6.4.9-.1 0-.3.2-.2.3s.1.3.3.3c-.2.3-.3.6-.4 1 0 .8.7 1.4 1.5 1.4.4 0 .7-.1 1-.4s.4-.6.4-1c0-.3-.1-.6-.3-.8h.2c0 .2.2.3.3.3.2 0 .3-.1.3-.3h.3c0 .2.2.3.3.3s.3-.1.3-.3h5.7v.3h-.3v.6h.3l.3.3-.6.1v.9h.5v-.4h.8v.4h.5v-.9l-.5.1.3-.3h.3v-.6h-.3v-.3h.8c.2 0 .4-.2.4-.4v-.2c0-.1 0-.2-.1-.3s-.3-.1-.4-.2zm-10.5-.1c.3.1.4.3.4.6s-.2.5-.4.6l-.1.3c.3 0 .7 0 .7.4 0 .2-.1.5-.2.6s-.4.3-.6.2c-.5 0-.9-.4-1-.9 0-.4.1-.4.5-.5l-.1-.1.2-.2c-.1-.1-.2-.2-.2-.4s.1-.3.2-.3l-.2-.2.1-.2c-.4-.1-.5-.2-.5-.6 0-.5.5-.9 1-.9.2 0 .5.1.6.2s.2.4.2.6c0 .4-.3.4-.7.4z" fill="#ffcb38"/><path d="m15 4h6v5h-6z" fill="#ffcb38" fill-opacity=".4"/><path d="m18.3 18.8 2.9-2.8v1.9l-2.9 2.8zm0-7.1 2.9-2.8v1.9l-2.9 2.8zm0 2.4 2.9-2.8v1.9l-2.9 2.8zm0 2.4 2.9-2.8v1.9l-2.9 2.8zm-.3 2.3v1.9l-2.9-2.8v-1.9zm0-7.1v1.9l-2.9-2.8v-1.9zm0 2.4v1.9l-2.9-2.8v-1.9zm0 2.4v1.9l-2.9-2.8v-1.9zm.3-7.1 2.9-2.8v1.9l-2.9 2.8zm-.3 0v1.9l-2.9-2.8v-1.9z" fill="#ffcb38"/></svg>