<svg height="44" viewBox="0 0 44 44" width="44" xmlns="http://www.w3.org/2000/svg"><g fill="#fff"><path d="m17.8 27.3c0-.6.1-1.2-.2-1.8-.2-.5-.6-1.1-1-1.5-.8-.9-1.8-1.7-2.6-2.6s-1.6-1.9-1.8-3.1c-.2-1.3-.1-2.7-.1-4-5 6.6-2.2 16.7 5.6 19.6 0-1.1.3-2.4-.2-3.4-.5-1.1-1.3-1.9-2.1-2.7-1.6-1.5-3.6-3-3.9-5.4-.1-1.3 0-2.6 0-3.9.4 4.1 5.1 5.2 6.3 8.8zm0-4.8v-.3c1.3 0 3.8-.5 4.2 1.2.4-1.5 3.1-1.6 3.9-.3l-.1-.6h8.7c.4-8-7.4-14.5-15.2-12.7-1.8.4-3.6 1.3-5 2.5-.6.5-1.4 1.1-1.8 1.8-.3.4-.2.8 0 1.3.4 1.4 1.4 2.5 2.5 3.5.9 1 2.3 2.1 2.8 3.6zm4.4-14c5.2.1 10 3.2 12.1 8 2.2 5 1.1 11.1-2.7 15-4.1 4.1-10.6 5.2-15.8 2.5s-8.2-8.7-7-14.5c1.2-6.4 6.9-11.1 13.4-11zm-2.5 22.1c1.1 0 1.8-.1 1.9-1.3 0-.2 0-.4 0-.6 0-1.1 0-2.2 0-3.3 0-.6.2-1.9-.3-2.4-.6-.6-2.1-.3-2.9-.3v11.3c.4.1.9.2 1.3.3zm2.3 4s.1 0 0 0c-.4-1.2-.1-3-.1-4.3-.3.6-1 1-1.7.9v3.3c.6.1 1.2.1 1.8.1zm3.5-7.7c0-.7 0-1.3 0-2 0-1 .1-1.9-1.2-2-1.2-.1-1.9.2-1.9 1.4v1.5 5.3c0 .9-.3 2.8.3 3.6 1-.1 1.9-.2 2.8-.5.2-1.1 0-2.3 0-3.4s0-2.2 0-3.3h-1.3v6.4h-.5v-9.9h.5v2.9zm4.1 5c0-.9 0-1.8 0-2.7 0-.8.3-2.5-.7-2.8l.7-3.5h-1.4l-.2 3.9h-.2l-.2-3.8h-1.3l.6 3.5c-1.1.4-.7 2.8-.7 3.7v3.7c.5-.2.9-.4 1.4-.6v-5.7h.6v5.4c.5-.4 1-.7 1.4-1.1zm-3.5-5.5c.1-.1.2-.2.4-.2l-.4-2zm4 .4v-3.7l-.6 3.1c.2.1.5.3.6.6zm4.2-3v-.8h-3.6v8c.5-.4 1.3-1.2 1.5-1.8.1-.3 0-.7 0-1 0-.9 0-1.8 0-2.7h.6v2.7c.6-1 1-2.2 1.3-3.3-.6-.5-1.2-.4-1.9-.4v-.5h2.1c0-.1 0-.2 0-.2zm-14.6 5.7v-5.7h.6v5.7z"/><path d="m34.3 16.5h-7.8c0-.2-.2-.3-.3-.3s-.3.1-.3.3h-.3c0-.2-.2-.3-.3-.3-.2 0-.3.2-.3.3h-.2c.2-.2.3-.5.3-.8 0-.4-.1-.7-.4-1s-.6-.4-1-.4c-.8 0-1.5.6-1.5 1.4.1.3.2.6.4.9-.1 0-.3.2-.2.3s.1.3.3.3c-.2.3-.3.6-.4 1 0 .8.7 1.4 1.5 1.4.4 0 .7-.1 1-.4s.4-.6.4-1c0-.3-.1-.6-.3-.8h.2c0 .2.2.3.3.3.2 0 .3-.1.3-.3h.3c0 .2.2.3.3.3s.3-.1.3-.3h5.7v.3h-.3v.6h.3l.3.3-.6.1v.9h.5v-.4h.8v.4h.5v-.9l-.5.1.3-.3h.3v-.6h-.3v-.3h.8c.2 0 .4-.2.4-.4v-.2c0-.1 0-.2-.1-.3s-.3-.1-.4-.2zm-10.5-.1c.3.1.4.3.4.6s-.2.5-.4.6l-.1.3c.3 0 .7 0 .7.4 0 .2-.1.5-.2.6s-.4.3-.6.2c-.5 0-.9-.4-1-.9 0-.4.1-.4.5-.5l-.1-.1.2-.2c-.1-.1-.2-.2-.2-.4s.1-.3.2-.3l-.2-.2.1-.2c-.4-.1-.5-.2-.5-.6 0-.5.5-.9 1-.9.2 0 .5.1.6.2s.2.4.2.6c0 .4-.3.4-.7.4z"/><path d="m15 4h6v5h-6z" fill-opacity=".4"/><path d="m18.3 18.8 2.9-2.8v1.9l-2.9 2.8zm0-7.1 2.9-2.8v1.9l-2.9 2.8zm0 2.4 2.9-2.8v1.9l-2.9 2.8zm0 2.4 2.9-2.8v1.9l-2.9 2.8zm-.3 2.3v1.9l-2.9-2.8v-1.9zm0-7.1v1.9l-2.9-2.8v-1.9zm0 2.4v1.9l-2.9-2.8v-1.9zm0 2.4v1.9l-2.9-2.8v-1.9zm.3-7.1 2.9-2.8v1.9l-2.9 2.8zm-.3 0v1.9l-2.9-2.8v-1.9z"/></g></svg>