<svg height="44" viewBox="0 0 44 44" width="44" xmlns="http://www.w3.org/2000/svg"><g clip-rule="evenodd" fill-rule="evenodd"><path d="m13.6 23.5v.5c.1.8.3 1.6.6 2.3 2.7-.5 5.7-.6 6.8-.6v-2.3h-7.4zm-1.2 0h-5.1c.2 1.7 1.2 3.2 2.8 4.5.7-.6 1.7-1.1 3-1.4-.3-.7-.5-1.5-.6-2.4-.1-.3-.1-.5-.1-.7zm8.6 7.9v-4.4c-1.5 0-4 .1-6.1.5 1.2 2 3.4 3.3 6.1 3.9zm-7.4-3.7c-.9.2-1.7.5-2.3.9-.1 0-.1.1-.2.1 1.5 1 3.4 1.8 5.6 2.2-1.3-.8-2.3-1.8-3.1-3.2zm-1.2-5.5c.1-1.1.3-2.2.7-3.2-1.2-.3-2.3-.8-3-1.4-1.7 1.3-2.7 2.9-2.9 4.6zm1.2-4.3c.7-1.3 2.2-2.7 3.4-3.5-2.2.4-4.4 1.5-5.9 2.5.7.5 2 .9 2.3 1zm8.6 14.9h-.3c-8.5 0-15.9-4.2-15.9-10 0-5.5 6.9-9.7 15-10v1.4s-.1 0-.2 0c-2.5.3-4.6 1.8-5.9 3.9 1.7.3 3.8.5 6.1.5v1.2c-1.1 0-4-.1-6.7-.6-.4.9-.6 1.9-.7 3h22v1.2h-13.4v8c5.3-.1 9.9-2 12.2-4.3h-9.6v-1.2h12.1c-3.3 5-9.1 6.8-14.7 6.9z" fill="#005aaa"/><path d="m22.8 30.7v-6.6h13.5c.1-.4.2-.9.2-1.3 0-4.5-6.1-8.6-14.2-8.7v8.1h-1.3v-11.2h.1c.2.6.6 1.1 1.1 1.5.4.2.6.3 1.1.4h.6c7.6.6 13.8 4.6 13.8 9.9 0 .9-.2 1.7-.5 2.6h-13.2v5.4h-1.2z" fill="#d91e48"/></g></svg>