<svg height="44" viewBox="0 0 44 44" width="44" xmlns="http://www.w3.org/2000/svg"><path clip-rule="evenodd" d="m22 37c-8.3 0-15-6.7-15-15s6.7-15 15-15 15 6.7 15 15-6.7 15-15 15zm0-1.4c7.5 0 13.6-6.1 13.6-13.6s-6.1-13.6-13.6-13.6-13.6 6.1-13.6 13.6 6.1 13.6 13.6 13.6zm-6.1-11.4c.1-.1.4-.4.7-.5.5-.2 1.8-.4 2.5-.4.4 0 .7.2.9.4s-.1.2-.3.1-.4-.2-.6-.2-.4.1-.5.2-.1.2-.4.3c-.4.1-.8-.2-.8-.2.3.5.8.5 1 .5.2-.1.3-.1.6-.1.5 0 .7.3.7.3-.6 0-1.6.3-2 .4-.6 0-1.1 0-1.1 0 .4.5.9.5 1.3.5s1.7-.1 2.5 0c1 .1 1.8.7 1.8 1.7s-.7 1.5-.7 1.5c.8-.3 1.2-.9 1.2-.9.4 1.7-.5 3.1-1.3 3.7-.7.5-2.8 1-4.5.2-1.8-.9-2.5-1.7-2.5-1.7 3.9.3 5.8-.8 5.8-.8-3.5.2-6-.7-7.6-1.4-.6-1-1.1-2.1-1.4-3.4 2.9 2.2 5.5 2.6 5.5 2.6-3.2-1.7-4.7-3.7-5.8-5.6.1-1.1.3-2.2.6-3.2 1.2 3.1 2.5 4.1 2.5 4.1-1.3-2.9-1.3-5-1.2-6.6.5-.7 1-1.3 1.7-1.9-.5 2.8.1 4.6.1 4.6 0-2.2 1.2-4.9 2.2-6.2.6-.3 1.2-.5 1.9-.7-.9 1.1-1.3 2.2-1.3 2.2 1.9-1.8 4.9-2.8 5.4-3 .5-.1 1.8-.6 2.2-.7.3-.1.5.1.5.4s-.1.7-.1.7c1 .3 1.5.8 1.5.8 0-.1 0-.4 0-.4 1.4 1.3 1.8 1.9 1.8 3 0 1.2.5 1.3.8 1.5s1 .6 1.2.8c.2.1.1.3 0 .4s-.1.2-.1.3c-.1.6-.4.8-.7 1-.4.1-.8-.1-.8-.1-.4.4-.5.2-.5 0s-.2 0-.4 0c-.2.1-.2-.2-.2-.2-.7-.1-1.1.3-1.1.3.6.1 1 .5 1 .7s.3.1.3.1 0-.1.1-.1c.1-.1.1 0 .1.1s-.1.3-.1.3l.3.2c-.1.8-.5.8-.6.7-1.1-.6-3.1-.7-3.1-.7.1-.2.4-.4.4-.4-5.1 0-6 .6-6.2 1-.2.2 0 .6 0 .6-.6.1-2.2.5-2.7 1.1-.6.5-.8 1.8-.8 2.2.2 0 .3 0 .3-.1zm12.2-10.2c-.1.8-.4.7-.5.7s-.2-.1-.6-.1c-.1 0-.7-.1-.4.2.5.4.9 1.2.9 1.2.1-.3-.1-.7-.2-.8s0-.2.1-.2.2.1.3.2c.2.1.3.1.3-.2.2-.2.2-.6.1-1zm-4.5-.9c-1 .8-2.7 2.8-3.5 4.6-.1.1 0 .2.2 0 .2-.1.8-.4 1-.5 0 0-.3 1-.4 1.6-.1.5.3.4.5.4.2-.1 1.2-.1 1.4-.1 0 0-.9-.2-1-.6s.2-1.2.3-1.8c0-.1 0-.3-.2-.2s-.5.1-.6.2c.1.1 1-2.1 2.3-3.6zm1.2-2.1c.1-.1 0-.1-.2 0s-.8.5-1.3 1.3c-.1.1 0 .2.2.2.3-.1.6-.2.7-.2s.1-.1 0-.2c-.1 0-.1-.1-.1-.2.3-.2.5-.7.7-.9zm5.2 19.6c-.6.5-1.2 1-1.9 1.4.2-.3.7-1.7-.3-3.6s-2.3-2.9-3.6-3.7-3.4-1.4-3.8-1.5c-.5-.1-.4-.2-.4-.5.1-.2.5-.8.5-.8-.2 0-.7.2-.9.3s-.4.1-.5 0c-.4-.4.5-1.2.5-1.2 0 .3.1.4.6.4.5-.1 2-.2 2.3-.2 0 0-1.7 1.2-1.9 1.6-.3.4.2.3.4.4.2 0 1.8.1 3.4.8.8.3 1.8 1.1 2.5 1.7l1 1s-.9-.1-1.3-.4c0 0 .5.5.8.9.7.8 2.1 1.8 2.6 3.4zm1-4.4c-.2.6-.5 1.2-.8 1.8-1.1-3.6-4.2-5-4.2-5 2.2.6 4 2.3 5 3.2zm-7.4 6.3c-.5.2-1.1.4-1.6.5 1.9-1.2 1.9-5 1.9-5 .3 1.6 0 3.7-.3 4.5zm9.4-10.1v.2c0 .5 0 1-.1 1.4-2-2-3.9-2.9-3.9-2.9.8.1 1.9 0 2.5-.1 0 0-.3.6-1 .6 0 0 2.2.6 2.5.8z" fill-rule="evenodd"/></svg>