<svg height="44" viewBox="0 0 44 44" width="44" xmlns="http://www.w3.org/2000/svg"><g clip-rule="evenodd" fill-rule="evenodd"><path d="m37 7.6c-3.1 1.9-5.2 5.3-5.2 9.3s2.1 7.3 5.2 9.3v.6h-9.8l-8.3-9.8 8.3-10h9.8zm-10.3 12.3c1.7 0 3.1-1.4 3.1-3.1s-1.4-3.1-3.1-3.1-3.1 1.4-3.1 3.1 1.3 3.1 3.1 3.1z" fill="#f45e40"/><path d="m7 17.9c3.1 1.9 5.2 5.3 5.2 9.3s-2.1 7.3-5.2 9.3v.5h9.8l8.3-9.8-8.3-9.8h-9.8zm10.3 12.4c-1.7 0-3.1-1.4-3.1-3.1s1.4-3.1 3.1-3.1 3.1 1.4 3.1 3.1-1.3 3.1-3.1 3.1z" fill="#00673c"/></g></svg>