<svg height="44" viewBox="0 0 44 44" width="44" xmlns="http://www.w3.org/2000/svg"><path d="m33.95 8.91c.06-.03.15-.07.21-.1-.1.05-.17.08-.21.1zm2.69-.97c-.17-.18-2.42.84-2.42.84.18-.12 1.43-.72.93-1.03-.32-.2-1.06.37-1.31.49-1.37.66-2.83 1.16-4.24 1.72-1.25.49-2.49 1-3.72 1.53-.75.32-1.84.56-2.19 1.36-.57 1.28-.64 2.89-.83 4.26-.19 1.35-.35 2.71-.5 4.06-.07.61-.11 1.2-.15 1.81-.04.66-.09 1.32-.17 1.98-.06.49-.36 1.11-.36 1.58-.7 1.8-3.38.83-4.37-.1-.87-.82-1.39-.42-2.41-.52-.47-.05-.82-.42-1.3-.42-.37 0-.75.19-1.07.37.62.22 1.4.41 1.92.83.37.3.6.75.99 1.04.33.24.69.4 1.01.65 1.27 1.02 2.26 2.3 3.57 3.27-4.88 1.6-10.9-.82-11.91-6.19-1.31-6.92 6.16-11.49 12.21-9.28-.01-.15-.02-.29-.03-.44-3.13-1.11-6.81-.59-9.45 1.44-2.55 1.97-3.63 4.98-3.35 8.13.57 6.3 7.96 9.31 13.34 6.92 1.56 1.04 3.24 1.75 5.08 2.12 1.27.25 2.68.16 3.91.52.72.21 1.33.73 1.86 1.25.31.3.57.71.99.84.77.24 1.94-.12 2.71-.27-.24-.65-.22-1.32-.77-1.8-.26-.23-.57-.4-.88-.55-1.04-.54-2.17-.93-3.22-1.45-1.19-.58-2.47-1.89-2.69-3.23-.04-.27-.07-.62.04-.88.12-.28.37-.36.53-.6.18-.28.26-.87.38-1.22 0-.1-.01-.34.05-.43-.07.11.15-.1.1-.07.1-.36 0-.71.13-1.08.09-.25.34-.63.08-.81.09-.26.22-.51.34-.76-.02.01-.03.02-.04.05.03-.04-.04-.87-.01-1.05.07-.41.08-.48-.05-.89.27-.36-.04-.65-.11-1.01-.06-.3-.16-.83-.16-1.14 0-.46.07-.63-.04-1.12-.06-.29-.14-.58-.17-.87-.11-1.12-.33-2.71.68-3.4.15-.1 1.33-.64 1.29-.87s-.86.02-1.02.06c.26-.07 2.25-.82 2.23-.84-.24-.2-1.12.08-1.41.13.63-.11 2.27-.3 2.64-.87.31-.48-1-.11-1.27-.05.47-.12 2.01-.37 2.18-.88.15-.45-.92-.22-1.24-.18.29-.07 3.65-.99 3.05-1.57-.29-.28-1.69.32-2.05.44.35-.1 3.2-1.24 2.67-1.82z" fill="#0d4d84"/><path d="m10.51 18.08 1.68-2.19-2.05 1.87-.94-3.15.16 3.2-1.72-1.04 1.57 1.49-2.19.55 2.22-.1-1.84 2.35 2.19-1.99.9 2.91-.16-2.91 1.65.98-1.6-1.51 2.2-.57zm21.68-10.77c-.16-.17-1.23.32-1.23.32s-6.5 2.86-9.37 4.28c-.62.3-1.38.79-1.39 1.71-.01 2.96.62 7.31.94 9.6s.54 3.24.53 3.32c.01-.08.13-.28.22-.68.25-1.2.35-3.71.35-3.71s.39-3.69.78-6.16c.26-1.65.49-2.98.85-3.51.23-.34 5.48-2.4 6.4-2.79 1.12-.48 1.24-.6 1.27-.94.02-.34-1.17.04-1.17.04s1.03-.51 1.4-.75c.37-.25.58-.56.42-.73z" fill="#00adef"/></svg>