<svg height="44" viewBox="0 0 44 44" width="44" xmlns="http://www.w3.org/2000/svg"><path clip-rule="evenodd" d="m18.9 15.9v-7.4c1.2-.3 2.4-.5 3.5-.5s2.3.2 3.5.5v7.4l6.4-3.7c.9.8 1.6 1.8 2.2 2.8s1 2.1 1.3 3.3l-6.4 3.7 6.4 3.7c-.3 1.2-.7 2.3-1.3 3.3s-1.3 1.9-2.2 2.8l-6.4-3.7v7.4c-1.2.3-2.3.5-3.5.5s-2.3-.2-3.5-.5v-7.4l-6.4 3.7c-.9-.8-1.6-1.8-2.2-2.8s-1-2.1-1.3-3.3l6.4-3.7-6.4-3.7c.3-1.2.7-2.3 1.3-3.3s1.3-1.9 2.2-2.8zm-1.9 6.1 5.5 3.5 5.6-3.5c-1.6-.6-2.8-1-3.6-1-1.1 0-2.5 1.3-4 1.5-1 .1-2.2-.1-3.5-.5z" fill="#fff" fill-rule="evenodd"/></svg>