<svg height="44" viewBox="0 0 44 44" width="44" xmlns="http://www.w3.org/2000/svg"><g fill="none" fill-rule="nonzero"><path d="m21.9644444 31.1571429c-5.1290909 0-9.3078787-4.1571429-9.3078787-9.2614286s4.1773737-9.2628572 9.3050505-9.2628572h.5826262v-5.6328571h-.5812121c-8.2472727 0-14.9630303 6.6842857-14.9630303 14.8942857 0 8.2642857 6.7157576 14.9485714 14.9644444 14.9485714h.5812122v-5.6828571h-.5812122z" fill="#ff4b5f"/><path d="m24.9779798 15.0528571h-3.0135354c-3.8068686 0-6.8741414 3.0528572-6.8741414 6.8428572 0 3.7885714 3.0672728 6.8414286 6.8727273 6.8414286h3.0149495v7.7371428c6.8727273-1.3157143 12.0220202-7.3157143 12.0220202-14.58 0-7.21-5.1478788-13.20999999-12.0220202-14.57857141z" fill="#003791"/></g></svg>