<svg height="44" viewBox="0 0 44 44" width="44" xmlns="http://www.w3.org/2000/svg" xmlns:xlink="http://www.w3.org/1999/xlink"><linearGradient id="a"><stop offset="0" stop-color="#e31837"/><stop offset="1" stop-color="#f15d22"/></linearGradient><linearGradient id="b" gradientTransform="matrix(16.8187 0 0 -16.9234 4364.1406 7103.2007)" gradientUnits="userSpaceOnUse" x1="-258.2695" x2="-257.8114" xlink:href="#a" y1="418.6494" y2="419.272"/><linearGradient id="c" gradientTransform="matrix(16.8164 0 0 -5.8904 4363.5063 2236.1179)" gradientUnits="userSpaceOnUse" x1="-258.2115" x2="-257.6561" xlink:href="#a" y1="374.6408" y2="374.7386"/><path d="m30.3 18.3c-1.5 4.4-6.3 6.7-10.7 5.2s-6.7-6.4-5.1-10.8 6.3-6.7 10.7-5.2 6.7 6.4 5.1 10.8z" fill="url(#b)"/><path d="m30.8 29.2v.9c0 1.6-3.8 3-8.4 3s-8.4-1.3-8.4-2.9v-.9z" fill="#c41230"/><path d="m30.8 29.2c0 1.6-3.8 3-8.4 3s-8.4-1.3-8.4-2.9 3.8-3 8.4-3 8.4 1.3 8.4 2.9z" fill="url(#c)"/><path d="m14 35.8c0-.2 3.8-.5 8.4-.5s8.4.2 8.4.5v.5c0 .2-3.8.5-8.4.5s-8.4-.2-8.4-.5z" fill="#c41230"/></svg>