<svg height="44" viewBox="0 0 44 44" width="44" xmlns="http://www.w3.org/2000/svg"><g fill="#fff"><path d="m17.9 25.9h3.5c.7 0 1.3-.2 1.7-.5.5-.3.9-.8 1.1-1.3l1.8-4.8h-3.4c-.7 0-1.3.1-1.7.4-.5.3-1 .9-1.1 1.3z" fill-opacity=".8"/><path d="m26.8 23.2-.8 1.8c-.3.7-.9 1.4-1.2 1.6-.7.5-1.7 1-2.8 1h-6.6l1.8-5.4.7-1.8c.3-.7.9-1.4 1.2-1.6.7-.5 1.7-1 2.8-1h6.3zm10.3-8.1h-21c-1.2 0-2.7.3-4 1.2-1.2.8-1.4 1.6-1.9 2.5 0 .2-.2.5-.2.7l-2.8 7.8-1 2.7h21.6c1.2 0 2.7-.3 4-1.2 1.2-.8 1.4-1.6 1.9-2.5.1-.2.2-.4.3-.6z"/></g></svg>