<svg height="44" viewBox="0 0 44 44" width="44" xmlns="http://www.w3.org/2000/svg"><g clip-rule="evenodd" fill="#fff" fill-rule="evenodd"><path d="m26.2 26.2h-10.1c-.2 0-.4 0-.7 0-.4-4.2-3.6-7.6-7.7-8.2v-.1h20c.4 4.5 4 8 8.4 8.3h-9.9-10.1c-5 0-9.1-4.1-9.1-9.1s4.1-9.1 9.1-9.1h20.1c-4.7.3-8.5 4.3-8.5 9.1s3.7 8.7 8.5 9.1z" opacity=".8"/><path d="m7.8 17.9 20-.1c.4 4.5 4 8 8.4 8.3h-20.1c-.2 0-.4 0-.7 0-.3-4.1-3.5-7.5-7.6-8.2l20.1-.1c5 0 9.1 4.1 9.1 9.1s-4.1 9.1-9.1 9.1h-20.1v-.1c4.4-.7 7.7-4.4 7.7-9s-3.4-8.3-7.7-9z"/></g></svg>