<svg height="44" viewBox="0 0 44 44" width="44" xmlns="http://www.w3.org/2000/svg"><path clip-rule="evenodd" d="m16.5 19.3c.9 1.7 1.6 3.4 2.5 4.9.7 1.2 1.7 2.2 2.6 3.4.3.4.5.4.8 0 2.1-2.2 3.4-4.9 4.5-7.7.1-.2.1-.4.2-.6 0 0 .1-.1.2-.2.6 1.3 1.1 2.5 1.6 3.7.1.1 0 .4 0 .5-1.2 3.8-2.8 7.5-5.2 10.8-.4.5-.9 1-1.3 1.6-.2.3-.4.3-.7 0-1.7-1.5-2.9-3.4-3.9-5.4-1-2.2-1.8-4.4-2.7-6.7-.1-.3-.1-.6 0-.9.4-1.1.9-2.2 1.4-3.4zm2-7c1 2 1.8 4 3.4 5.5 1.5-1.5 2.4-3.4 3.2-5.5.6 1.2 1.1 2.2 1.7 3.2.5 1 .5 1.8.1 2.8-1.1 2.5-2.3 5-4.2 7-.7.8-.7.8-1.4 0-2.2-2.3-3.6-5.2-4.7-8.2-.1-.1-.1-.3 0-.5.6-1.4 1.3-2.8 1.9-4.3zm3.5 3.8c-1.6-1.4-2.4-3.2-3.1-5-.1-.2 0-.4.1-.6.6-1.5 1.5-2.8 2.5-4 .3-.3.5-.3.8 0 1.2 1.2 2 2.7 2.6 4.2 0 .1.1.3 0 .4-.6 1.7-1.4 3.5-2.9 5z" fill="#ffffff" fill-rule="evenodd"/></svg>