<svg height="44" viewBox="0 0 44 44" width="44" xmlns="http://www.w3.org/2000/svg"><path d="m22.42 11.13c1.13 0 1.98.37 2.17.8l-2.17.85-2.17-.85c.19-.43 1.04-.8 2.17-.8zm.03 22.38c.7-.01 1.4-.1 2.09-.27l.55 1.47c-.86.24-1.76.36-2.66.37-.9-.01-1.79-.13-2.66-.37l.55-1.47c.68.17 1.38.26 2.09.27zm4.14-1.46-.27.88.92.3c-.66.32-1.35.57-2.05.76l-.44-1.21c.63-.19 1.25-.43 1.84-.73zm-8.33 0c.59.29 1.21.54 1.85.73l-.45 1.21c-.71-.18-1.4-.44-2.05-.76l.92-.3s-.27-.88-.27-.88zm4.16-22.32c-.81-.01-1.61.18-2.33.56-.07-.23-.15-.46-.25-.68l.24.03.26.03.11-.23.32-.68.6.31.23.12.18-.18.64-.63.65.63.18.18.23-.12.59-.31.33.68.11.23.26-.03.24-.03c-.1.22-.18.45-.25.68-.72-.38-1.52-.57-2.34-.56zm13.04 7.86c-.66-.22-.89-1.19-2.04-1.8.22-.14.48-.22.75-.22.34 0 .67.15.9.4.48.54 1.13.89 1.84 1.01-.22.4-.65.66-1.11.66-.12.01-.23-.01-.34-.05zm-26.41.06c-.46 0-.89-.26-1.11-.66.71-.12 1.36-.47 1.84-1.01.23-.25.56-.4.9-.4.27 0 .52.08.75.22-1.15.61-1.39 1.58-2.04 1.8-.11.03-.22.05-.34.05zm26.72 3.89c-.3 0-.59-.08-.84-.23 0 0-.22 2.9 1.97 3.8-.29.43-.78.69-1.31.68h-.01c-.59.03-1.16-.21-1.54-.67.01.69-.1 1.37-.33 2.02-.29.77-.29 1.63 0 2.4-.18.04-.37.07-.55.07-.11 0-.23-.01-.34-.04-.54-.13-.97-.52-1.14-1.04 0 0 .08 2.78-3.2 2.78h-.03c.25-.46.38-.98.37-1.51.16-2.06 1.57-2.35 1.57-2.35-.39-.04-.76-.17-1.08-.38-.3-.25-.47-.61-.47-.99.95.04 1.87-.35 2.49-1.06.37-.42.62-.93.73-1.48-.52.39-1.17.59-1.82.56-.11 0-.22-.01-.33-.02-.35-.04-.69-.18-.96-.4 1.5-.86 2.09-2.71 1.35-4.26-.62-1.67-2.12-2.91-3.63-3.85-.5-.31-.78-.65-.78-.95 0-.7 1-.72 1.41-1.19.47-.54.18-1.43-.23-1.96.12-.02.24-.03.36-.03.68-.01 1.33.26 1.8.74.48.45.66 1.12.48 1.75l.22.04c.13.02.26.04.4.04h.09c.76-.07 1.42-.54 1.72-1.23.35.42.49.98.37 1.52-.12.53-.47.99-.97 1.23-.32.21-.46.4-.42.6l.03.13.13.02c1.35.36 2.03 1.28 2.87 2.33.8 1 2 1.6 3.28 1.64h.02c-.22.71-.86 1.22-1.61 1.28-.03.01-.05.01-.07.01zm-.66 3.03s-1.12-.67-1.62-3.27v.02c-.33-2.65-2.27-4.56-4.44-5.72-.2-.11-.38-.2-.56-.28.89.18 1.82-.04 2.54-.59 0 0-1.25.91-3.82.08 1.17.63 2.29 1.34 3.35 2.14 3.15 2.74.9 5.4.9 5.4.94-.88 1.27-2.23.85-3.44.67 1.09.99 2.36.92 3.64-.09 2.1-1.26 3.92-2.49 5.38-.37.46-.62 1-.72 1.58.21-.57.52-1.1.92-1.56 1.32-1.53 2.45-3.11 2.59-5.39.28.83.84 1.54 1.58 2.01zm-20.67 2.89s1.41.28 1.57 2.35c0 .53.12 1.04.37 1.51h-.02c-3.28 0-3.2-2.78-3.2-2.78-.17.52-.61.91-1.14 1.04-.11.03-.23.04-.34.04-.19 0-.37-.02-.55-.07.29-.77.29-1.62 0-2.4-.23-.65-.34-1.33-.33-2.02-.37.45-.95.7-1.54.67h-.01c-.53.01-1.02-.25-1.31-.68 2.19-.9 1.97-3.8 1.97-3.8-.25.15-.54.23-.84.23-.02 0-.04 0-.06 0-.75-.06-1.39-.56-1.61-1.28h.02c1.28-.04 2.48-.64 3.28-1.64.83-1.05 1.52-1.97 2.87-2.33l.14-.02.03-.13c.04-.2-.1-.39-.42-.6-.5-.24-.85-.69-.97-1.23s.02-1.09.37-1.51c.3.69.96 1.17 1.72 1.23h.09c.13 0 .27-.02.4-.04l.22-.04c-.18-.63 0-1.3.48-1.75.47-.48 1.12-.75 1.8-.74.12 0 .24.01.36.03-.41.53-.71 1.41-.23 1.96.41.47 1.41.49 1.41 1.19 0 .3-.28.64-.78.95-1.51.94-3 2.18-3.63 3.85-.74 1.55-.15 3.4 1.35 4.26-.27.23-.61.37-.96.4-.12.01-.23.02-.34.02-.65.03-1.3-.17-1.82-.56.1.55.35 1.06.72 1.48.62.71 1.54 1.1 2.49 1.06-.01.38-.18.74-.47.99-.33.18-.7.31-1.09.36zm-.52.5c.4.46.72.99.93 1.56-.11-.58-.36-1.12-.73-1.58-1.23-1.46-2.4-3.28-2.48-5.38-.07-1.28.25-2.54.92-3.64-.42 1.21-.09 2.56.85 3.44 0 0-2.25-2.67.9-5.4 1.06-.8 2.18-1.51 3.35-2.14-2.56.83-3.82-.08-3.82-.08.72.55 1.64.77 2.54.59-.18.09-.36.18-.56.28-2.16 1.16-4.11 3.07-4.44 5.72v-.03c-.5 2.6-1.62 3.27-1.62 3.27.75-.47 1.31-1.17 1.59-2 .12 2.28 1.25 3.86 2.57 5.39zm6.08-10.68c-.01-.01-.02-.02-.03-.03-.25-.26-.56-.44-.91-.53l.17-.1h.01l.67-.38.68-.39 1.83.98 1.83-.98.68.39.67.38h.01l.17.1c-.34.09-.66.28-.9.53-.01.01-.02.02-.03.03-.06.06-.11.12-.16.19-.01.01-.02.03-.03.04-.05.07-.1.13-.15.2-.01.01-.02.02-.02.04-.05.08-.11.17-.16.26-.37.72-1.09 1.21-1.9 1.29-.82-.08-1.53-.57-1.9-1.29-.05-.09-.1-.17-.16-.25-.01-.02-.02-.03-.03-.04-.05-.07-.09-.13-.14-.19-.01-.02-.02-.03-.04-.04-.05-.09-.11-.15-.16-.21zm2.27-1.09-1.46-.76-.52-2.98 1.98.66zm-.43-2.32-.9-.37c.05.25.2.46.41.6.11.1.25.18.39.23l.1.04zm2.2 1.56-1.46.76v-3.07l1.98-.66zm-1.03-1.56v.49l.1-.04c.14-.05.28-.13.39-.23.22-.13.37-.35.41-.6zm1.14 5.11h3.42c-.16.39-.26.81-.27 1.23v2.7c-.35-.08-.61-.37-.64-.73l-.01-.12-.12-.01c-.21-.02-.41-.11-.55-.26-.18-.2-.28-.46-.28-.73-.18.28-.16.64.05.91.16.2.39.33.64.36.07.46.45.83.92.89v1.32h-1.69c-.45-.22-.64-.76-.43-1.21l.07-.14-.15-.06c-.49-.17-.75-.69-.6-1.18l.03-.12-.11-.05c-.43-.25-.67-.73-.59-1.21-.23.23-.29.58-.14.86-.08.09-.19.2-.3.32-.42-.09-.72-.44-.74-.87v-.1l-.09-.04c-.25-.07-.45-.24-.57-.46-.08-.19-.09-.39-.04-.59.08.02.16.03.24.04s.16.01.25.01h.01c.08 0 .17 0 .25-.01.53-.07 1.06-.34 1.44-.75zm-.21 11.89.32-.99c.05-.14-.2-.31-.31-.47.25.15.5.28.77.4-.02.03-.37 1.05-.37 1.05-.15 0-.29 0-.41.01zm3.36-6.05v3.62c.05 1.11-.73 2.09-1.84 2.31l.19-.97c.01-.06.02-.12.03-.18.05.02.11.04.17.05s.13.02.19.02c.22 0 .43-.1.57-.28l.14-.17-.12-.18c-.01-.02-.27-.43-.47-.71-.04-.05-.08-.11-.12-.17-.2-.43-.61-.72-1.09-.76h-.05c-.08 0-.16.02-.24.05-.17-.08-.37-.13-.56-.13s-.39.04-.57.11c-.04.01-.07.02-.1.03l-1.07-.1c-.04-.02-.08-.05-.11-.09v-.01l.23-.09c-.12-.65-.59-1.18-1.22-1.39-.02-.08-.06-.16-.12-.21l-.23-.22-.2.24-.1.12-1.5-.61.98 1.21-.39.58c-.04.04-.06.1-.06.15s.03.11.07.15l.4.27.41-.15h.04c-.02.06-.05.31-.06.37l-.72-.14-.75.42c-.34.24-.46.68-.3 1.06l.08.18.12.25.26-.11h.01c-.1.26-.06.55.11.77l.16.2.21.27.23-.25c.15-.15.28-.33.36-.53l.05-.16-.11-.12-.02-.02.13-.21.94.22.21.05.11-.18.06-.1c.01-.02.01-.02.06-.02.03 0 .07 0 .1.01.32.06.64.1.97.1.22.01.44-.01.65-.08 0 0 .5.56.52.59l-.31.94-.01.06c-.46 0-.9.18-1.21.51-.5-.49-.85-.54-2.19-.54-1.6 0-2.69-.93-2.69-2.41v-3.62zm-9.75-.29v-4.32c-.02-.42-.11-.84-.27-1.23h3.42c.27.27.59.49.95.63-.07.26-.05.54.05.79.13.27.36.48.65.58.05.46.36.84.79 1-.25.24-.48.47-.58.57l-2.27-.04c-.07-.03-.14-.09-.18-.16 0-.01-.01-.02-.02-.03l.37.06h.02c.07 0 .13-.05.15-.12.01-.08-.04-.16-.12-.17l-.46-.07.5-1.72-.48-1-.77.8-.05 1.79-.52-.08c-.04-.01-.08 0-.11.03s-.05.06-.06.1c-.01.08.04.15.12.17l.22.03c-.08.04-.13.08-.13.08l-.04.03-.01.05c-.1.45.08.92.46 1.19l-.01.06c-.03.16.08.31.24.33h.05c.13 0 .25-.09.28-.22.1.01.19.02.29.02h.06l2.97.53.05-.03c.24-.16 1.14-.81 1.44-1.03.09.07.18.14.28.18-.13.42-.03.88.28 1.19z" fill="#fff"/></svg>