<svg height="44" viewBox="0 0 44 44" width="44" xmlns="http://www.w3.org/2000/svg"><path d="m38.84 19.22-1.41.04c-.66-.03-1.29-.24-1.83-.63.06.01.13.01.19.01.86 0 1.65-.48 2.04-1.25l.61-1.33c-.49 0-.97-.02-1.46-.09-.46-.11-.88-.36-1.19-.71-.42-.44-1.01-.7-1.63-.7-.24 0-.48.04-.71.11.03-.11.06-.22.08-.33.1-.78-.13-1.57-.62-2.19l-1.06-1.3-.66 1.53c-.1.22-.26.4-.47.54-.11-.54-.38-1.04-.78-1.43-.67-.67-1.58-1.05-2.53-1.04-.17 0-.33.01-.49.04l-1.28.25c.11-.43.28-.84.52-1.22l.71-1.09-1.78.2-.57-1.19-1.1.56-1-1-1.01.99-1.1-.56-.57 1.19-1.78-.2.71 1.09c.23.38.41.79.52 1.22l-1.22-.24-.04-.01c-.17-.03-.34-.04-.51-.04-.95-.01-1.87.37-2.53 1.04-.4.39-.67.89-.78 1.43-.2-.13-.36-.31-.46-.52l-.66-1.53-1.08 1.31c-.48.62-.7 1.41-.6 2.18.02.11.05.22.08.33-.23-.07-.47-.11-.71-.11-.62 0-1.21.26-1.63.7-.31.35-.72.6-1.17.71-.49.07-.98.1-1.47.09l.6 1.33c.38.77 1.17 1.25 2.04 1.25.07 0 .13-.01.19-.01-.53.38-1.16.6-1.81.63l-1.43-.05.44 1.35c.32 1.06 1.24 1.83 2.35 1.97-.12.71-.58 1.33-1.23 1.64l-1.07.44.58 1c.48.74 1.31 1.18 2.2 1.18.23 0 .46-.02.69-.07.06.25.13.5.21.74.2.53.22 1.11.04 1.64l-.53 1.09 1.18.31c.27.07.54.1.82.1.19 0 .39-.02.58-.06.13-.03.27-.07.4-.12.15.27.34.52.55.74.85.8 2.01 1.22 3.18 1.15l.89-.01-1.92.82 1.52.73c.61.3 1.23.58 1.87.82l-.19.51.52.24c.87.34 1.79.53 2.73.56 0 0 .4.02.63.02s.62-.02.62-.02c.93-.03 1.84-.22 2.71-.56l.52-.24-.19-.51c.64-.24 1.28-.52 1.89-.83l1.49-.72-1.99-.82.97.01c1.18.07 2.33-.35 3.18-1.16.22-.22.4-.47.55-.74.13.05.26.09.4.13.19.04.38.06.58.06.27 0 .54-.03.81-.1l1.18-.31-.52-1.07c-.18-.54-.17-1.13.03-1.67.08-.25.15-.49.21-.74.23.05.46.07.69.07.89.01 1.73-.44 2.2-1.19l.58-.99-1.07-.43c-.66-.32-1.12-.93-1.23-1.64 1.11-.14 2.03-.91 2.35-1.97z" fill="#fff"/><path d="m27.3 24.82h-9.75v3.62c0 1.48 1.08 2.41 2.69 2.41 1.34 0 1.69.05 2.19.54.31-.33.75-.51 1.21-.51l.01-.06.31-.94c-.02-.02-.52-.59-.52-.59-.21.06-.43.09-.65.08-.32 0-.65-.04-.97-.1-.03-.01-.07-.01-.1-.01-.04 0-.05 0-.06.02l-.06.1-.11.18-.21-.05-.94-.22-.13.21.02.02.11.12-.05.16c-.08.2-.21.37-.36.53l-.23.27-.21-.27-.16-.2c-.17-.22-.22-.51-.11-.77h-.01l-.26.11-.12-.25-.08-.18c-.17-.38-.04-.82.3-1.06l.75-.42.72.14c.02-.07.04-.31.06-.37-.01 0-.03 0-.04 0l-.41.15-.4-.27c-.04-.04-.07-.09-.07-.15s.02-.11.06-.15l.39-.58-.98-1.21 1.5.61.1-.12.2-.24.23.22c.06.06.1.13.12.21.63.21 1.1.75 1.22 1.39l-.23.09v.01c.03.04.07.07.11.09l1.07.1c.03 0 .06-.02.1-.03.18-.07.38-.11.57-.11s.38.04.56.13c.08-.03.16-.04.24-.05h.05c.47.04.89.33 1.09.76.04.06.08.11.12.17.2.28.46.69.47.71l.12.18-.14.17c-.13.17-.34.28-.57.28-.07 0-.13-.01-.19-.02s-.12-.03-.17-.05c-.01.06-.02.12-.03.18l-.19.97c1.1-.22 1.88-1.2 1.84-2.31z" fill="#ffe710"/><path d="m17.55 24.53h7.58c-.31-.32-.41-.78-.28-1.19-.1-.05-.2-.11-.28-.18-.3.22-1.2.87-1.44 1.03l-.05.03-2.97-.53h-.06c-.1 0-.19-.01-.29-.02-.03.13-.15.22-.28.22-.02 0-.03 0-.05 0-.16-.03-.27-.17-.24-.33l.01-.06c-.38-.27-.56-.74-.46-1.19l.01-.05.04-.03c.01 0 .06-.04.13-.08l-.22-.03c-.08-.01-.13-.09-.12-.17.01-.04.03-.07.06-.1s.07-.03.11-.03l.52.08.05-1.79.77-.8.48 1-.5 1.72.46.07c.08.01.14.09.12.17-.01.07-.07.12-.15.12-.01 0-.02 0-.02 0l-.37-.06c0 .01.01.02.02.03.04.07.1.13.18.16l2.27.04c.1-.09.33-.32.58-.57-.44-.16-.74-.54-.79-1-.28-.11-.51-.31-.65-.58-.11-.25-.13-.53-.05-.79-.36-.14-.68-.35-.95-.63h-3.42c.16.39.25.81.27 1.23z" fill="#ffe710"/><g fill="#231f20"><path d="m25.74 34.95-.53.15c-.91.25-1.84.38-2.78.39h-.01c-.94-.01-1.88-.14-2.79-.39l-.53-.15.23-.62c-.67-.19-1.33-.44-1.95-.74l-1.11-.54 1.63-.54-.47-1.52 1.04.51c.57.28 1.16.52 1.77.7l.51.15-.13.35c.58.13 1.18.2 1.77.21h.04c.6-.01 1.2-.07 1.78-.21l-.13-.35.51-.15c.61-.18 1.2-.42 1.77-.7l1.04-.51-.47 1.52 1.63.54-1.11.54c-.63.3-1.28.55-1.95.74zm1.5-1.81-.92-.3.27-.88c-.55.27-1.12.5-1.71.69l.45 1.21c.66-.19 1.3-.43 1.91-.72zm-2.84.04c-.64.15-1.29.23-1.95.23h-.05c-.66-.01-1.31-.08-1.95-.23l-.5 1.34-.06.16c.87.24 1.63.3 2.53.3.9-.01 1.65-.11 2.52-.35l-.06-.16zm-6.14-1.23.27.88-.92.3c.61.3 1.25.54 1.91.72l.45-1.21c-.59-.18-1.16-.41-1.71-.69z"/><path d="m24.99 10.86c.12-.6.34-1.16.66-1.68l-.92.1-.48-1.01-.92.47-.9-.88-.89.88-.94-.47-.48 1.01-.92-.1c.32.52.55 1.09.66 1.68.75-.53 1.64-.8 2.56-.77.92-.03 1.82.24 2.57.77zm-4.81-.77c-.03-.1-.07-.21-.11-.31l.36.04.41-.87.79.4.8-.79.8.79.79-.4.41.87.36-.04c-.04.1-.08.21-.11.31-.69-.35-1.46-.52-2.25-.5-.79-.02-1.56.15-2.25.5z"/><path d="m35.83 21.93h-.07c-.14 0-.28-.02-.42-.05.06.81.36 2.31 1.72 2.87l.42.17-.22.39c-.37.56-.99.89-1.67.88-.41 0-.82-.09-1.18-.27-.06.46-.16.92-.31 1.36-.26.68-.26 1.42-.01 2.1l.2.42-.46.12c-.22.05-.44.08-.66.08-.15 0-.29-.02-.43-.05-.3-.07-.59-.21-.82-.41-.14.45-.39.85-.71 1.19-.74.68-1.73 1.04-2.74.97l-.72-.01.4-.6c.2-.41.3-.86.31-1.31.01-.83.35-1.62.95-2.2-.12-.06-.24-.13-.34-.22-.39-.32-.61-.8-.61-1.3l.03-.36.36-.01c.84.04 1.65-.3 2.2-.93.12-.14.22-.28.31-.44-.36.11-.74.16-1.11.16-.12 0-.24-.01-.37-.02-.44-.04-.86-.22-1.19-.5l-.38-.34.43-.27c1.35-.76 1.87-2.42 1.19-3.79-.49-1.32-1.63-2.51-3.47-3.66-.52-.24-.88-.72-.96-1.28 0-.68.57-.94.99-1.13.19-.07.37-.18.52-.31.32-.37.05-1.08-.25-1.47l-.38-.5.62-.12c.14-.02.29-.03.43-.03.78-.01 1.54.3 2.09.86.46.45.7 1.07.65 1.7.06 0 .12.01.18.01h.07c.6-.06 1.12-.44 1.36-.99l.26-.6.41.5c.43.51.6 1.18.47 1.82s-.56 1.2-1.15 1.49c-.06.04-.11.08-.16.12 1.14.45 2.1 1.24 2.75 2.26l.11.13c.72.91 1.81 1.46 2.98 1.5l.55-.02-.17.52c-.28.9-1.07 1.51-2 1.57zm-.06-.5h.05c.66-.05 1.23-.46 1.48-1.06-1.27-.08-2.45-.69-3.24-1.68l-.14-.18c-.6-.93-1.48-1.66-2.52-2.07l-.77-.3.62-.54c.07-.06.15-.12.27-.19.46-.23.79-.65.89-1.15.09-.44 0-.9-.26-1.27-.34.63-.97 1.06-1.74 1.14h-.09-.05c-.07 0-.1-.01-.14-.01l-.5-.04.04-.5c.04-.49-.15-.97-.51-1.32-.45-.46-1.08-.71-1.73-.71-.05 0-.11 0-.16 0 .42.63.56 1.43.07 1.99-.2.17-.42.31-.64.39-.53.24-.7.39-.7.6.06.39.32.73.73.93 1.93 1.2 3.14 2.47 3.65 3.86.77 1.57.22 3.44-1.23 4.35.23.16.5.26.77.28.16.01.25.01.34.01.33 0 .65-.05.97-.14l1.21-.36-.63 1.09c-.11.18-.23.36-.37.52-.62.72-1.53 1.12-2.46 1.11.03.3.18.58.43.78.07.06.14.1.22.14l.67.31-.53.51c-.5.49-.79 1.15-.8 1.84 0 .48-.1.95-.31 1.43.82.02 1.62-.28 2.21-.82.27-.28.48-.62.6-1l.23-.71.57.48c.18.15.39.25.61.3.11.02.21.04.32.03.14 0 .28-.01.41-.04-.26-.77-.24-1.61.04-2.35.14-.41.24-.83.29-1.26l.09-.7.63.32c.29.15.62.22.96.22.45.01.88-.2 1.15-.53-1.25-.57-1.8-1.8-1.9-3.24l-.05-.66.65.13c.08.05.19.07.3.07zm-2.28-.11v-.02c.21 1.4.22 1.82.03 1.26-.15 2.28-1.27 3.87-2.59 5.39-.4.46-.72.99-.92 1.56.11-.58.36-1.12.72-1.58 1.23-1.46 2.4-3.28 2.49-5.38.07-1.28-.25-2.54-.92-3.64.42 1.21-.38-.61-1.74-1.96-1.06-.8-2.18-1.51-3.35-2.14.24 0 .67.17 1.28.51.24.12.43.21.56.28 2.17 1.16 4.11 3.08 4.44 5.72z"/><path d="m33.23 16.14-.57-.3.53-.37c.29-.19.63-.29.98-.29.45 0 .88.19 1.18.52.41.47.97.78 1.58.89l.57.03-.24.52c-.28.55-.85.89-1.47.89-.16 0-.31-.02-.46-.07-.39-.17-.72-.44-.95-.8-.3-.41-.69-.76-1.15-1.02zm.95-.46c-.19 0-.38.04-.54.12.45.28.84.65 1.17 1.09.18.27.43.48.69.6.1.03.2.05.3.05.38 0 .73-.19.94-.47-.68-.15-1.3-.51-1.75-1.02-.21-.23-.51-.36-.81-.37z"/><path d="m16.71 31.09.4.6-.72.01c-1.01.07-2-.29-2.74-.97-.33-.34-.57-.75-.71-1.19-.24.2-.52.34-.83.41-.14.03-.28.05-.43.05-.22 0-.44-.03-.65-.08l-.46-.12.2-.42c.25-.68.24-1.43-.01-2.1-.15-.44-.26-.9-.31-1.36-.36.18-.77.28-1.18.27-.67.01-1.3-.32-1.67-.88l-.22-.39.42-.17c1.36-.56 1.66-2.06 1.72-2.87-.14.03-.28.04-.42.05h-.07c-.93-.06-1.72-.67-1.99-1.55l-.17-.52.56.02c1.17-.04 2.26-.59 2.98-1.5l.11-.13c.65-1.02 1.62-1.82 2.75-2.26-.05-.04-.11-.08-.16-.12-.59-.3-1.02-.85-1.15-1.49-.13-.65.04-1.32.46-1.82l.42-.5.26.6c.24.55.76.93 1.36.99h.07c.06 0 .12-.01.18-.01-.05-.64.19-1.26.65-1.7.55-.55 1.3-.86 2.08-.86.14 0 .29.01.43.03l.62.12-.39.5c-.3.39-.57 1.1-.25 1.47.15.13.33.24.52.31.42.19.99.46.99 1.13-.08.56-.44 1.04-.96 1.28-1.84 1.14-2.98 2.34-3.47 3.66-.68 1.38-.15 3.04 1.19 3.79l.43.27-.38.34c-.34.28-.75.46-1.2.5-.13.01-.25.02-.37.02-.38 0-.75-.05-1.11-.16.09.16.2.3.31.44.55.63 1.36.97 2.2.93l.36.01.02.36c0 .5-.22.98-.6 1.3-.1.09-.22.16-.34.22.6.58.94 1.37.96 2.2.01.43.11.88.31 1.29zm-2.72-.72c.6.55 1.39.86 2.22.84-.2-.45-.3-.94-.31-1.42-.01-.69-.3-1.36-.8-1.84l-.53-.51.67-.31c.08-.04.15-.08.23-.15.24-.2.39-.49.42-.78-.94.01-1.84-.4-2.46-1.11-.14-.16-.26-.33-.37-.51l-.64-1.09 1.21.36c.31.09.64.14.97.14.09 0 .18 0 .32-.01.29-.03.56-.13.79-.28-1.46-.92-2-2.79-1.26-4.31.53-1.43 1.74-2.71 3.72-3.93.37-.17.62-.51.67-.83 0-.29-.17-.44-.67-.66-.24-.09-.47-.23-.72-.45-.45-.51-.3-1.32.12-1.94-.05 0-.11-.01-.17-.01-.65-.01-1.27.25-1.73.72-.35.34-.54.82-.5 1.31l.04.49-.49.04c-.04 0-.07.01-.14.01-.03 0-.03 0-.08 0h-.12c-.73-.07-1.36-.5-1.69-1.14-.26.37-.35.83-.26 1.27.1.5.43.92.93 1.17.08.05.16.11.23.17l.61.54-.76.3c-1.04.41-1.92 1.13-2.55 2.11l-.11.13c-.78.98-1.95 1.59-3.24 1.68.24.61.82 1.02 1.45 1.06h.07c.11 0 .23-.02.34-.04l.65-.13-.05.66c-.11 1.44-.66 2.66-1.9 3.23.28.34.7.53 1.16.53.33 0 .65-.07.95-.22l.63-.32.09.7c.05.43.15.85.28 1.25.29.75.31 1.57.04 2.37.14.02.27.04.41.04.11 0 .21-.01.32-.04.23-.05.44-.16.61-.3l.57-.48.23.71c.14.37.35.71.6.98zm-1.44-11.45c-.67 1.09-.99 2.36-.92 3.64.09 2.1 1.25 3.92 2.48 5.38.37.46.62 1 .73 1.58-.21-.57-.52-1.1-.92-1.56-1.32-1.53-2.45-3.11-2.59-5.39-.28.83-.47 1.33.03-1.26v.02c.33-2.65 2.28-4.56 4.44-5.72.2-.11 1.15-.79 1.84-.79-1.17.63-2.29 1.34-3.35 2.14-1.74 1.96-2.17 3.17-1.74 1.96z"/><path d="m9.51 17.96c-.15.05-.3.07-.46.07-.62 0-1.19-.34-1.47-.89l-.23-.52.57-.03c.61-.11 1.17-.43 1.58-.89.31-.33.73-.51 1.18-.52.35.01.68.11.97.29l.53.37-.57.3c-.45.26-.85.61-1.15 1.02-.23.36-.56.63-.95.8zm-.45-.43c.09 0 .19-.01.28-.04.29-.13.54-.34.72-.62.31-.42.7-.79 1.15-1.07-.17-.07-.35-.12-.52-.12-.31 0-.61.13-.81.35-.45.51-1.05.87-1.76 1.03.21.29.56.47.94.47z"/><path d="m25.11 12.08c0-1.98-5.27-1.96-5.36.09-.05 1.03.4 2.26.58 3.28-.68.39-1.35.78-2.03 1.17h.01c-.37.19-1.51.96-.83 1.44.1-.68.77-1.03 1.4-.9.68.14.99.75 1.36 1.27h-3.77c.66 1.13.54 2.36.54 3.61v4.71c0 1.11-.17 2.44.51 3.4.57.79 1.52 1.16 2.47 1.22.99.07 1.68-.09 2.44.65.76-.75 1.44-.59 2.44-.65.94-.06 1.91-.43 2.47-1.22.68-.96.51-2.28.51-3.4 0-1.57 0-3.14 0-4.71 0-1.25-.12-2.48.54-3.61h-3.77c.38-.52.67-1.13 1.36-1.27.63-.13 1.3.22 1.4.9.68-.48-.45-1.25-.83-1.44-.68-.39-1.35-.78-2.03-1.17.2-1.12.43-2.24.59-3.37zm-4.82.37 1.98.66v3.07c-.62-.33-1.31-.47-1.52-1.12-.27-.81-.31-1.76-.46-2.61zm.41 6.53c.27.27.59.49.95.63-.15.57.14 1.16.7 1.37.05.46.36.84.79 1-.62.62-.76.56-1.62.55-.31 0-1.26.17-1.42-.21.64.21.61-.27-.04-.3.14-.47.45-1.09.46-1.57.01-.4-.25-.77-.43-1.14-.29.3-.66.58-.77.96-.14.47-.03 1.14-.04 1.64-.1-.02-.52-.15-.63-.05-.2.18.13.3.28.3-.51.29-.09 1.1.27 1.36-.06.35.46.6.56.18.87.1 1.72.26 2.58.41.24.04.57.16.79.1.48-.13 1.03-.74 1.44-1.03.09.07.18.14.28.18-.13.42-.03.88.28 1.19h-7.58c0-.85 0-1.7 0-2.55 0-.99.12-2.07-.27-3h3.42zm3.67 3.95c-.35.26-.81.75-1.23.88-.26.08-.44.03-.74-.02-.69-.12-1.39-.25-2.08-.37.05-.2.09-.41.09-.62.62.01 1.31.11 1.91.03.67-.09 1.04-.63 1.52-1.15.1.12.21.22.34.3-.06.33.01.67.19.95zm-4.52-.46c.06.11.15.21.26.27 0 .22-.03.44-.09.65-.4 0-.99-.2-1-.7-.01-.4.66-.68.83-.22zm-.28-.53c.02-.83-.14-1.52.44-2.13.37.76-.01 1.37-.24 2.16zm4.78 8.92c-.15 0-.28 0-.41.01.22-.68.41-.87.01-1.46.25.15.5.28.77.4-.02.03-.37 1.05-.37 1.05zm1.01-1.12-.21 1.08c-.13.02-.28.03-.42.03.06-.26.29-.79.22-1.04-.12-.45-.91-.61-1.19-1.01-.6.5-2.13-.17-2.41.45l-1.15-.27c-.14.23-.42.5-.19.76-.07.15-.17.29-.29.41-.54-.52.01-1.15.31-1.64l.97.14c-.33-.62-.08-1.05-.01-1.69-.02.14-.64.11-.82.27-.48-.24.1-.67.3-.89l-.57-.66.79.39.24-.29c.07.06.04.23.04.23 1.04.26.62 1.38 1.45 1.65.69.23 1.66-.25 2.23.12.73-.5 1.44.96 1.73 1.41-.54.79-.99-.6-1.18-.83-.1-.11-.21-.42-.4-.18-.2.25.43 1.11.59 1.26.01.02-.01.18-.03.3zm-5.9-1.03c.06.23-.14.32-.36.39-.29-.48.03-.92.5-1.11.35-.14.49-.09.89 0 0 .13.04.25.11.36-.13-.03-1.48-.21-1.14.36zm6 2.05c.07-.38.16-.76.22-1.15.43.18.82-.01 1.08-.37-.67-1.04-1.07-1.81-2.36-1.86-.6-.03-1.59.32-2.14-.1l.23-.09c-.12-.65-.59-1.18-1.22-1.39-.04-.16-.22-.34-.35-.43-.1.12-.2.24-.3.36l-1.5-.61.98 1.21c-.19.28-.52.58-.34.9.26.44.52.05.82.1-.02.06-.05.31-.06.37-1.22-.24-2.16.51-1.56 1.78.09-.04.18-.07.27-.11-.2.5.2.88.49 1.23.27-.27.55-.56.64-.94-.05-.05-.09-.1-.13-.15l.13-.21c.38.09.76.18 1.15.27.19-.64 1.43-.12 1.95-.27 0 0 .5.56.52.59-.11.33-.22.66-.32.99-.46 0-.9.18-1.21.51-.82-.8-1.97-.39-2.98-.62-1.17-.27-1.84-1.15-1.89-2.33-.06-1.2 0-2.42 0-3.62h9.75c-.03 1.89.65 5.4-1.87 5.94zm2.11-11.78c-.5 1.18-.27 2.68-.27 3.93-.4-.09-.64-.46-.65-.85-.56.01-.95-.47-.96-1-.35.55.1 1.19.69 1.27.07.46.45.83.92.89v1.32c-.82 0-2.9.18-2.05-1.36-.6-.18-.93-.74-.71-1.35-.49-.19-.78-.75-.71-1.27-.23.23-.29.58-.14.86-.08.09-.19.2-.3.32-.46-.1-.75-.51-.74-.97-.48-.14-.85-.55-.7-1.09.8.18 1.36-.15 2.02-.52.37-.2.5-.19.97-.19.87.01 1.75.01 2.63.01zm-2.63-2.74c.28.16.56.32.84.48-1.5.4-1.63 2.57-3.36 2.57s-1.86-2.17-3.36-2.57c.51-.28 1.02-.58 1.53-.87l1.83.98h.01l1.83-.98zm-.9-.81-1.46.76v-3.07l1.98-.66zm-1.62-2.65-2.17-.85c.49-1.16 3.84-1.16 4.33 0z"/></g></svg>