<svg height="44" viewBox="0 0 44 44" width="44" xmlns="http://www.w3.org/2000/svg" xmlns:xlink="http://www.w3.org/1999/xlink"><mask id="a" height="28.7" maskUnits="userSpaceOnUse" width="28.7" x="7.7" y="7.8"><path clip-rule="evenodd" d="m9.9 8h24.3c1 0 1.9.8 1.9 1.9v24.3c0 1-.8 1.9-1.9 1.9h-24.3c-1 0-1.9-.8-1.9-1.9v-24.3c0-1.1.8-1.9 1.9-1.9z" fill="#fff" fill-rule="evenodd"/></mask><linearGradient id="b" gradientTransform="matrix(28.6545 0 0 -28.7041 7612.6846 12321.5879)" gradientUnits="userSpaceOnUse" x1="-264.2848" x2="-265.2813" y1="428.6471" y2="427.9014"><stop offset="0" stop-color="#fff" stop-opacity=".8"/><stop offset="1" stop-color="#fff" stop-opacity=".5"/></linearGradient><mask id="c" height="17" maskUnits="userSpaceOnUse" width="15" x="15" y="14"><path clip-rule="evenodd" d="m9.9 8h24.3c1 0 1.9.8 1.9 1.9v24.3c0 1-.8 1.9-1.9 1.9h-24.3c-1 0-1.9-.8-1.9-1.9v-24.3c0-1.1.8-1.9 1.9-1.9z" fill="#fff" fill-rule="evenodd"/></mask><g clip-rule="evenodd" fill-rule="evenodd"><path d="m31.1 8.1c-1.6 2-3.2 4.1-5.1 5.9-1 1-2.1 1.9-3.2 2.8-.3.2-2.2 1.8-1.9 2l-5.9 4.2.3-.1c-.5.4-.9.7-1.4 1-.3.1-1.7.7-1.7.9.1 0 .1.1.2.1-.3.1-1.4.4-1.4.6.1 0 .2.1.2.1-.6.2-.8.4-.5 1-.4.2-.5.6-.8.9-.2.2-.6.6-.8.7s-.6 0-.8.2c-.2.1.1.3 0 .4-.2.2-.5.3-.7.4v1.1l1.8-.9h.1c2.9-1.5 5.7-3 8.5-4.6-1.2.7-2.3 1.5-3.5 2.2-.3.2-.9.4-.9.8l-5.9 3.7v5h28.4v-16.8c-.8.1-.9.5-1.4 1-.4.4-1 .8-1.5 1-.5.3-1 .4-1.4.6-.4.3-.7.9-1.2 1.1-.7.3-1.2.3-1.8.8-1.5 1.2-3 2.3-4.5 3.5 3.8-3.5 7.8-6.7 11.7-10v-10h-5.1z" fill="url(#b)" mask="url(#a)"/><path d="m20 31v-12h-5v-5h15v5h-5v12z" fill="#fff" mask="url(#c)"/></g></svg>