<svg height="44" viewBox="0 0 44 44" width="44" xmlns="http://www.w3.org/2000/svg"><path clip-rule="evenodd" d="m13.5 27.3c-1.5-.8-2.7-1.9-3.5-3.3v-5.7c.6-1 1.6-1.8 2.8-2.1v9c0 .7.2 1.4.7 2.1zm.3-12.3c-1.6 0-3.1.9-3.8 2.3v-1.2c0-2.1 1.7-3.8 3.8-3.8h2.7c.7 0 1.3.6 1.3 1.4s-.6 1.4-1.3 1.4zm20 2c-1.4-1.3-3.3-2.1-5.3-2.1h-4.2v10c0 3.9-3.2 7.1-7.1 7.1s-7.1-3.1-7.1-7c1.4 2.7 4.3 4.3 7.1 4.3 2.4 0 4.5-2 4.5-4.4v-12.6h6.6c2.7 0 5 2 5.5 4.7zm0 2.9c1.3 1.2 2 2.6 2.2 4.1-.6 1.4-1.8 2.6-3.2 3.3.5-.8.8-1.8.6-2.8-.2-1.3-.9-2.4-2.1-3.1-.6-.4-.7-1.1-.3-1.7.4-.5.5-1.1.5-1.8 0-.6-.2-1.4-.6-1.9 1.3.3 2.4 1.1 3.2 1.8.1.6 0 1.4-.3 2.1zm-4.4 9.4c3.2 0 5.6-1.9 6.6-4.3.1 3.9-2.9 7.1-6.6 7.1h-4.3c-.7 0-1.3-.6-1.3-1.4s.6-1.4 1.3-1.4z" fill="#fff" fill-rule="evenodd"/></svg>