<svg height="44" viewBox="0 0 44 44" width="44" xmlns="http://www.w3.org/2000/svg"><g clip-rule="evenodd" fill="#fff" fill-rule="evenodd"><path d="m22.6 14.7c.3-.4.2-.6 0-.8-.1-.1-2.4-1.5-2.4-1.5-.2-.1-.3-.3-.3-.5 0-.3.2-.6.7-.7 1.5-.4 6.8-.6 8.5-.6h2.6c-2.6-2.2-6-3.6-9.7-3.6-8.3 0-15 6.7-15 15 0 3.6 1.3 7 3.5 9.6 1.9-2.7 6.5-9.4 7.6-10.8 1.2-1.6 3.9-5.1 4.3-5.7z"/><path d="m12.9 33.9c2.5 2 5.7 3.1 9.1 3.1 8.3 0 15-6.7 15-15 0-2.5-.6-4.9-1.7-6.9.5-.5 1.1-1.3.7-2.3-.1-.3-.7-1-.9-1.1v.1c.4 1.1-.4 1.8-.9 2.3-.3.3-4.1 3.9-8.6 7.8-3.9 3.4-8.3 6.9-10.9 8.9-3.6 2.7-4.3 3.1-4.3 3.1-.1.1-.3.1-.4.1-.2 0-.4-.1-.5-.3v.1c.4.6 1 1.3 1.4 1.3.1 0 .3 0 .4-.1s.4-.3 1.6-1.1z"/></g></svg>