<svg height="44" viewBox="0 0 44 44" width="44" xmlns="http://www.w3.org/2000/svg"><path clip-rule="evenodd" d="m22.7 20.5c.1 5.7.5 12.8 2.4 17.6.2.5.5 1.1.8 1.6-1.2.3-2.5.6-3.7.6-1.3 0-2.6-.2-3.7-.6.3-.6.6-1.2.8-1.8 1.8-4.8 2.3-11.8 2.3-17.5h.6zm-.1-4.4c.3 0 .6 0 .9.1l-.1-8.2h1s-.1 2.3.3 8.4c5.4 1.2 9.5 5.9 9.5 11.7 0 4.3-2.3 8-5.6 10.1-.1-.1-.2-.3-.3-.4-3.6-4.6-4.5-11.4-4.7-17.3.5.1 1 .2 1.5.2 1 6.5 4 10.8 6.5 13.5 1.1-1.5 1.8-3.2 1.8-5.1 0-2.2-.9-4.1-2.3-5.7s-3.4-2.8-5.8-3.4c-1-.2-2.1-.4-3.2-.4s-2.1.1-3.2.4c-4.7 1.2-8.1 4.8-8.1 9.1 0 1.9.7 3.6 1.8 5.1 2.5-2.7 5.5-7 6.5-13.5.5-.1 1-.1 1.6-.2-.3 5.9-1.1 12.7-4.7 17.3v-.1c-.1.2-.3.4-.4.5-3.3-2.1-5.5-5.8-5.5-10.1 0-5.8 4-10.5 9.5-11.7.3-6.1.3-8.4.3-8.4h1l-.1 8.2c.3-.1.6-.1.8-.1v-12.1h1.1z" fill="#1e388c" fill-rule="evenodd"/></svg>