<svg height="44" viewBox="0 0 44 44" width="44" xmlns="http://www.w3.org/2000/svg"><path clip-rule="evenodd" d="m36 18.6c-2.2 2.7-3.8 5.9-5.8 8.8-1.8-1.2-3.7-2.4-5.6-3.6 1.9-3 3.9-6 5.8-9 1.9 1.2 3.8 2.4 5.6 3.5zm-13.9-10.4c2.2 2.7 4.4 5.5 6.7 8.3-1.7 1.4-3.4 2.8-5.2 4.2-2.2-2.8-4.5-5.5-6.7-8.3 1.7-1.4 3.4-2.8 5.1-4.3zm-14.1 10.1c3.4-1.2 6.7-2.5 10-3.8.8 2.1 1.6 4.2 2.4 6.3-3.3 1.3-6.6 2.5-9.9 3.8-.8-2.1-1.6-4.1-2.5-6.2zm5.4 16.6c-.2-3-.3-6.1-.4-9.1 0-.5-.3-1.3.2-1.6.4-.3 1.5-.1 1.9-.2 1.5-.1 2.9-.1 4.4-.2.2 3.6.4 7.1.6 10.7-2.3.1-4.5.3-6.7.4zm17.3 0c-3.5-.9-6.9-1.9-10.3-2.8.6-2.2 1.1-4.3 1.7-6.5 3.5.9 6.8 1.8 10.3 2.8-.6 2.2-1.1 4.3-1.7 6.5z" fill="#fff" fill-rule="evenodd"/></svg>