<svg height="44" viewBox="0 0 44 44" width="44" xmlns="http://www.w3.org/2000/svg"><path clip-rule="evenodd" d="m31.7 37c-2 .2-3-1.6-3-3.3-.1-2.7 0-5.3 0-8h-3.5v8.1c0 1.7-.9 3.5-2.9 3.3-2.4-.2-2.5-2.6-2.5-4.4 0-2.3 0-4.6 0-6.9h-3.5v8c0 1.6-.9 3.4-2.8 3.3s-2.6-1.8-2.6-3.4c0-2.7 0-5.4 0-8.2 0-1.8-.7-4.9 1.7-5.2 2.6-.3 5.4 0 8 0h8.2c1.9 0 5-.7 5.2 1.9.3 2.9 0 6 0 8.9.1 2.4.6 5-2.3 5.9zm4.3-21.4c0 .2-.1.3-.1.5-.3 1.3-1.7 2.1-3.1 1.7-.7-.2-1.4-.6-2.1-1-2.5-1.3-5-2.6-7.4-3.9-.5-.3-1-.3-1.5 0-3 1.6-5.9 3.1-8.9 4.7-1.2.6-2.4.5-3.2-.4-1-1.1-.9-2.8.3-3.7.4-.3.9-.6 1.4-.8 3.2-1.7 6.3-3.3 9.5-4.9.3-.2.7-.3 1-.5.4-.3.8-.3 1.1-.1 1 .5 1.9 1 2.9 1.5 2.9 1.5 5.7 3 8.6 4.5.8.4 1.3 1.1 1.4 2 0 0 0 .1.1.1z" fill="#fff" fill-rule="evenodd"/></svg>