<svg height="44" viewBox="0 0 44 44" width="44" xmlns="http://www.w3.org/2000/svg"><g clip-rule="evenodd" fill-rule="evenodd"><path d="m31.7 37h-.5c-2.1-.7-2.5-1.9-2.5-4 0-2.4 0-4.9 0-7.3h-3.5v7.1c0 2.1-.1 3.6-2.4 4.3h-.6c-.9-.3-1.7-.6-2.1-1.5s-.3-2-.3-3c0-2.3 0-4.6 0-6.8h-3.5v7c0 2.1-.2 3.6-2.4 4.3h-.5c-.6-.3-1.2-.3-1.7-.8s-.7-1.1-.8-1.8c-.2-2.1 0-4.3 0-6.4 0-2-.2-4.2 0-6.2.3-2.1 2.7-1.7 4.2-1.7h12.5 3.1c.8 0 1.8-.2 2.5.3s.7 1.3.7 2.1v3.3 7c.2 2.1-.1 3.4-2.2 4.1" fill="#00549e"/><path d="m36 15.6c0 .2-.1.3-.1.5-.3 1.3-1.7 2.1-3.1 1.7-.7-.2-1.4-.6-2.1-1-2.5-1.3-5-2.6-7.4-3.9-.5-.3-1-.3-1.5 0-3 1.6-5.9 3.1-8.9 4.7-1.2.6-2.4.5-3.2-.4-1-1.1-.9-2.8.3-3.7.4-.3.9-.6 1.4-.8 3.2-1.7 6.3-3.3 9.5-4.9.3-.2.7-.3 1-.5.4-.3.8-.3 1.1-.1 1 .5 1.9 1 2.9 1.5 2.9 1.5 5.7 3 8.6 4.5.8.4 1.3 1.1 1.4 2 0 0 0 .1.1.1z" fill="#e31818"/></g></svg>