<svg height="44" viewBox="0 0 44 44" width="44" xmlns="http://www.w3.org/2000/svg"><path clip-rule="evenodd" d="m9 9.8c0-.4.4-.8.8-.8h24.4c.4 0 .8.4.8.8v24.4c0 .5-.4.8-.8.8h-24.4c-.4 0-.8-.4-.8-.8zm11.1 4.4c.1 0 .1-.1.1-.1l-.2-.4c0-.1-.1-.1-.2-.1h-6.9c-.1 0-.1.1-.1.1l.2.4c0 .1.1.1.2.1zm.5.8c0-.1-.1-.1-.2-.1h-6.9c-.1 0-.1.1-.1.1l.2.4c0 .1.1.1.2.1h6.9c.1 0 .1-.1.1-.1zm.7 1.3c0-.1-.1-.1-.2-.1h-6.9c-.1 0-.1.1-.1.1l.2.4c0 .1.1.1.2.1h6.9c.1 0 .1-.1.1-.1zm.6 1.4c0-.1-.1-.1-.2-.1h-6.9c-.1 0-.1.1-.1.1l.2.4c0 .1.1.1.2.1h6.9c.1 0 .1-.1.1-.1zm.6 1.3c0-.1-.1-.1-.2-.1h-6.9c-.1 0-.1.1-.1.1l.2.4c0 .1.1.1.2.1h6.9c.1 0 .1-.1.1-.1zm.7 1.3c0-.1-.1-.1-.2-.1h-6.9c-.1 0-.1.1-.1.1l.2.4c0 .1.1.1.2.1h6.9c.1 0 .1-.1.1-.1zm.6 1.3c0-.1-.1-.1-.2-.1h-6.9c-.1 0-.1.1-.1.1l.2.4c0 .1.1.1.2.1h6.9c.1 0 .1-.1.1-.1zm-1.9-8.7c.1 0 .2-.1.2-.2v-.4c0-.1-.1-.2-.2-.2h-10.7c-.1 0-.2.1-.2.2v.4c0 .1.1.2.2.2zm-4.6 9.9c-.1 0-.1.1-.1.1l4.3 8.9c0 .1.1.1.2 0l4-8.3c0-.1.1-.1.2-.1h6.4c.1 0 .2-.1.2-.2v-.2c0-.1-.1-.2-.2-.2zm15-10.6h-5.5c-.1 0-.2.1-.2.2v.4c0 .1.1.2.2.2h.8c.2 0 1.4 0 .9 1.4l-3.6 7.6c0 .1 0 .1.1.1h1.2c.1 0 .2-.1.2-.1l3.9-8.2c.2-.4.4-.6.6-.7.3-.1.6-.2 1-.2h.2c.1 0 .2-.1.2-.2v-.4c.1 0 .1-.1 0-.1zm-1.5 10c.9 0 1.7-.7 1.7-1.7 0-.9-.7-1.7-1.7-1.7-.9 0-1.7.7-1.7 1.7 0 .9.8 1.7 1.7 1.7z" fill="#fff" fill-rule="evenodd"/></svg>