<svg height="44" viewBox="0 0 44 44" width="44" xmlns="http://www.w3.org/2000/svg"><g clip-rule="evenodd" fill-rule="evenodd"><path d="m9 9.8c0-.4.4-.8.8-.8h24.4c.4 0 .8.4.8.8v24.4c0 .5-.4.8-.8.8h-24.4c-.4 0-.8-.4-.8-.8z" fill="#003874"/><path d="m20.1 14.2h-6.9c-.1 0-.2-.1-.2-.1l-.2-.4c0-.1 0-.1.1-.1h6.9c.1 0 .2.1.2.1l.2.4c0 .1 0 .1-.1.1zm.5.8.2.4c0 .1 0 .1-.1.1h-6.9c-.1 0-.2-.1-.2-.1l-.1-.4c0-.1 0-.1.1-.1h6.9s.1 0 .1.1zm.7 1.3.2.4c0 .1 0 .1-.1.1h-6.9c-.1 0-.2-.1-.2-.1l-.2-.4c0-.1 0-.1.1-.1h6.9s.1.1.2.1zm.6 1.4.2.4c0 .1 0 .1-.1.1h-6.9c-.1 0-.2-.1-.2-.1l-.2-.4c0-.1 0-.1.1-.1h6.9c.1-.1.2 0 .2.1zm.6 1.3.2.4c0 .1 0 .1-.1.1h-6.9c-.1 0-.2-.1-.2-.1l-.1-.4c0-.1 0-.1.1-.1h6.9c0-.1.1 0 .1.1zm.7 1.3.2.4c0 .1 0 .1-.1.1h-6.9c-.1 0-.2-.1-.2-.1l-.2-.4c0-.1 0-.1.1-.1h6.9s.1 0 .2.1zm.6 1.3.2.4c0 .1 0 .1-.1.1h-6.9c-.1 0-.2-.1-.2-.1l-.2-.4c0-.1 0-.1.1-.1h6.9c.1 0 .2.1.2.1zm-1.9-8.7h-10.7c-.1 0-.2-.1-.2-.2v-.4c0-.1.1-.2.2-.2h10.7c.1 0 .2.1.2.2v.4c-.1.1-.2.2-.2.2zm-4.6 9.9h15c.1 0 .2.1.2.2v.4c0 .1-.1.2-.2.2h-6.4c-.1 0-.2.1-.2.1l-4 8.3c0 .1-.1.1-.2 0l-4.3-8.9c0-.2 0-.3.1-.3zm15-10.6c.1 0 .2.1.2.2v.4c0 .1-.1.2-.2.2h-.2c-.4 0-.8.1-1 .2-.3.1-.5.4-.6.7l-4.1 8.1c0 .1-.1.1-.2.1h-1.2c-.1 0-.1-.1-.1-.1l3.6-7.7c.4-1.4-.7-1.4-.9-1.4h-.8c-.1 0-.2-.1-.2-.2v-.4c0-.1.1-.2.2-.2z" fill="#fefefe"/><path d="m30.8 22.2c.9 0 1.7-.7 1.7-1.7 0-.9-.7-1.7-1.7-1.7-.9 0-1.7.7-1.7 1.7 0 .9.8 1.7 1.7 1.7" fill="#ec1b35"/></g></svg>