<svg height="44" viewBox="0 0 44 44" width="44" xmlns="http://www.w3.org/2000/svg"><g clip-rule="evenodd" fill-rule="evenodd"><path d="m35.9 22c0 7.8-6.3 13.9-14.3 13.9-7.3.1-13.5-6.3-13.5-13.9 0-7.7 6.2-13.9 13.9-14 7.6.1 13.9 6.3 13.9 14" fill="#237b74"/><path d="m11.2 17.4c1.8-3.8 4.5-6.1 8.5-6.9 5.9-1.2 11.7 2.2 13.6 8 .1.3.1.5-.2.7-1.2.9-2.4 1.8-3.7 2.8 1.2.9 2.4 1.9 3.6 2.7.4.3.4.5.3.9-1.9 4.8-5.4 7.7-10.6 8.1-5.1.4-9.5-2.7-11.4-7-.2-.4-.1-.4.3-.5 1.1-.2 1.8.2 2.4 1.2 2.1 3.2 5.3 4.6 9.1 4.2 3.7-.4 6.2-2.4 7.9-5.7.2-.4.2-.7-.2-1-1.2-.9-2.4-1.8-3.6-2.7-.4-.3-.3-.4 0-.7 1.2-.9 2.3-1.8 3.5-2.7.4-.3.4-.5.2-.9-1.6-3.4-4.3-5.5-8-5.8-3.9-.3-7 1.3-9.1 4.6-.3.4-.6.6-1.1.6-.5.1-.9.1-1.5.1zm17 .3c-.9 0-1.7 0-2.5 0-.2 0-.3-.1-.5-.2-2-1.4-4.7-1.4-6.6 0s-2.7 4-2 6.2c.7 2.3 2.9 4 5.3 4 1.1 0 2.1-.2 3-.8.4-.3.8-.4 1.3-.4h1.8c-.9 1.7-4 3.7-7.4 3.1-3.5-.6-6.1-3.5-6.4-7.2-.3-3.4 2-6.6 5.3-7.7 3.3-1 7 .3 8.7 3zm.4 8.3c-1 0-1.8 0-2.6 0-.2 0-.4-.1-.6-.3-1.3-1-2.6-1.9-4-3v2.8c0 .4-.1.5-.5.5-1.4 0-1.4 0-1.4-1.4 0-1.9 0-3.9 0-5.8 0-.4.1-.5.5-.5 1.4 0 1.4 0 1.4 1.3v1.9s0 .1.1.2c.4-.4.8-.7 1.2-1 .8-.7 1.6-1.4 2.4-2.1.3-.3.6-.4.9-.4h1.8c0 .2-.2.3-.3.4-1.2 1-2.4 2.1-3.6 3.1-.4.3-.4.4 0 .7 1.4 1.1 2.9 2.2 4.3 3.2.1.1.1.2.4.4z" fill="#fefefe"/></g></svg>