<svg height="44" viewBox="0 0 44 44" width="44" xmlns="http://www.w3.org/2000/svg"><path clip-rule="evenodd" d="m35.9 22c0 7.8-6.3 13.9-14.3 13.9-7.3.1-13.5-6.3-13.5-13.9 0-7.7 6.2-13.9 13.9-14 7.6.1 13.9 6.3 13.9 14zm-24.7-4.6h1.5c.5.1.8-.1 1.1-.6 2.1-3.3 5.2-4.9 9.1-4.6 3.8.3 6.4 2.4 8 5.8.2.4.1.6-.2.9-1.2.9-2.3 1.8-3.5 2.7-.3.3-.4.4 0 .7 1.2.9 2.4 1.8 3.6 2.7.4.3.4.5.2 1-1.6 3.3-4.2 5.3-7.9 5.7-3.8.4-7-1-9.1-4.2-.7-1-1.3-1.3-2.4-1.2-.4.1-.5.1-.3.5 2 4.4 6.3 7.4 11.4 7 5.2-.4 8.7-3.3 10.6-8.1.2-.4.1-.6-.3-.9-1.2-.9-2.4-1.8-3.6-2.7 1.3-1 2.4-1.9 3.7-2.8.3-.2.3-.4.2-.7-1.9-5.8-7.7-9.2-13.6-8-4 .7-6.7 3.1-8.5 6.8zm17 .3c-1.7-2.7-5.4-4-8.6-2.9-3.4 1.1-5.6 4.3-5.3 7.7.3 3.6 2.9 6.6 6.4 7.2 3.4.6 6.5-1.4 7.4-3.1-.6 0-1.2 0-1.8 0-.5 0-.9.1-1.3.4-.9.6-2 .8-3 .8-2.4 0-4.5-1.7-5.3-4-.7-2.3.1-4.9 2-6.2 2-1.4 4.6-1.4 6.6 0 .1.1.3.2.5.2.7-.1 1.5-.1 2.4-.1zm.4 8.3c-.2-.2-.3-.3-.4-.3-1.4-1.1-2.8-2.2-4.3-3.2-.4-.3-.4-.4 0-.7 1.2-1 2.4-2.1 3.6-3.1.1-.1.3-.1.3-.4-.6 0-1.2 0-1.8 0-.4 0-.7.1-.9.4-.8.7-1.6 1.4-2.4 2.1-.4.3-.8.7-1.2 1 0-.1-.1-.2-.1-.2 0-.6 0-1.3 0-1.9 0-1.3 0-1.3-1.4-1.3-.4 0-.5.1-.5.5v5.8c0 1.4 0 1.4 1.4 1.4.4 0 .5-.1.5-.5 0-.9 0-1.8 0-2.8 1.4 1.1 2.7 2 4 3 .2.1.3.3.6.3.7-.1 1.6-.1 2.6-.1z" fill="#fff" fill-rule="evenodd"/></svg>