<svg height="44" viewBox="0 0 44 44" width="44" xmlns="http://www.w3.org/2000/svg" xmlns:xlink="http://www.w3.org/1999/xlink"><linearGradient id="a"><stop offset="0" stop-color="#b8f6f7"/><stop offset="1" stop-color="#00ccd5"/></linearGradient><linearGradient id="b" gradientTransform="matrix(14.63 0 0 -13.9011 3762.4446 5776.5635)" gradientUnits="userSpaceOnUse" x1="-255.203" x2="-256.203" xlink:href="#a" y1="413.687" y2="413.687"/><linearGradient id="c" gradientTransform="matrix(6.5833 0 0 -12.7933 1555.4635 5280.085)" gradientUnits="userSpaceOnUse" x1="-232.2279" x2="-233.2279" xlink:href="#a" y1="411.2016" y2="411.2016"/><linearGradient id="d" gradientTransform="matrix(3.6617 0 0 -8.8989 752.7529 3547.2271)" gradientUnits="userSpaceOnUse" x1="-198.8988" x2="-199.8988" xlink:href="#a" y1="397.5527" y2="397.5527"/><g clip-rule="evenodd" fill-rule="evenodd"><path d="m14.2 30.3c7.4-3 12.3-6.8 14.6-11.4v13.9h-14.6c.1-.5.1-1.3 0-2.5z" fill="url(#b)"/><path d="m20 13c1.7 1.6 3.9 2.5 6.6 2.7v3.7c-1.7 3-3.9 5.1-6.6 6.4.1-3 0-9.5 0-12.8z" fill="url(#c)"/><path d="m30.3 16.7h-2v-.7h2.7v19h-19v-19h6.4v.7h-5.6v17.6h17.6z" fill="#10c8d2"/><path d="m20.8 5c1 1.4 2.2 2.4 3.7 3.1v5.8c-1.3 0-2.6-.8-3.7-2.4z" fill="url(#d)"/></g></svg>