<?xml version="1.0" encoding="UTF-8"?>
<svg width="44px" height="44px" viewBox="0 0 44 44" version="1.1" xmlns="http://www.w3.org/2000/svg" xmlns:xlink="http://www.w3.org/1999/xlink">
    <!-- Generator: Sketch 54.1 (76490) - https://sketchapp.com -->
    <title>icons/banks/44/absolut</title>
    <desc>Created with Sketch.</desc>
    <g id="icons/banks/44/absolut" stroke="none" stroke-width="1" fill="none" fill-rule="evenodd">
        <path d="M20.9849946,15.3531599 C21.0171215,13.7980074 21.6478702,12.3138361 22.7481243,11.204461 L28,6 L28,10.3345725 C27.961418,11.9331123 27.3374175,13.4631739 26.244373,14.6394052 L20.9924973,19.8438662 L20.9924973,15.3828996 L20.9849946,15.3531599 Z M27.9699893,36 L22.7181136,30.795539 C21.5326508,29.709071 19.9882941,29.0879185 18.3740622,29.0483271 L14,29.0483271 L19.2518757,34.2527881 C20.3727994,35.3454978 21.8737821,35.9708045 23.4458735,36 L27.9474812,36 L27.9699893,36 Z M17.9689175,26.0743494 L20.9699893,29.1152416 L20.9699893,22.1561338 C20.9012231,20.6942293 20.3078937,19.3047154 19.2968917,18.2379182 L16.2958199,15.2639405 L16.2958199,22.1858736 C16.3716098,23.6373932 16.9644524,25.0152292 17.9689175,26.0743494 L17.9689175,26.0743494 Z" id="Shape" fill="#FF6701"></path>
    </g>
</svg>