<?xml version="1.0" encoding="UTF-8"?>
<svg width="44px" height="44px" viewBox="0 0 44 44" version="1.1" xmlns="http://www.w3.org/2000/svg" xmlns:xlink="http://www.w3.org/1999/xlink">
    <!-- Generator: Sketch 54.1 (76490) - https://sketchapp.com -->
    <title>icons/banks/44/akbars-mono</title>
    <desc>Created with Sketch.</desc>
    <g id="icons/banks/44/akbars-mono" stroke="none" stroke-width="1" fill="none" fill-rule="evenodd">
        <path d="M24.8615645,19.6503661 L22.3599441,20.1026281 C21.9509557,20.1836583 21.6732098,20.5710961 21.7384496,20.9751168 C21.8204762,21.3787606 22.2126777,21.6535097 22.6216662,21.5886855 L25.1232866,21.1364235 C25.7119705,21.0233581 26.0877668,21.3787606 26.2350331,21.7503692 C26.3822995,22.1216009 26.3494889,22.622481 25.84245,22.9454714 L22.1638433,25.3036407 C21.8204762,25.5297717 21.4114877,25.5297717 21.0517153,25.3522589 C20.6961032,25.1646719 20.4755517,24.7973387 20.4794367,24.3991168 L20.4794367,18.6011183 C20.4794367,17.6317702 19.9727794,16.7920704 19.1059681,16.3236024 C18.2559436,15.8547575 17.242629,15.9026219 16.4246521,16.420085 L7.1701444,22.347355 C6.12363763,23.0099188 5.73105452,24.2212271 6.18887739,25.3680881 C6.64670026,26.514949 7.77485211,27.1285178 9.00143587,26.9185928 L17.0785758,25.4815304 C17.4871827,25.4005002 17.7653101,25.0130624 17.7000703,24.6090417 C17.6180438,24.2053979 17.2258422,23.9306488 16.8168537,23.995473 L8.7397138,25.4329123 C8.13462458,25.5459778 7.77485211,25.1905752 7.62796727,24.8193435 C7.48070091,24.4477349 7.51351155,23.9468548 8.02016886,23.6238644 L17.2746766,17.6965944 C17.6180438,17.4704634 18.0270322,17.4704634 18.3868046,17.6479762 C18.7424167,17.8355632 18.9629682,18.2028964 18.9590832,18.6011183 L18.9590832,24.3994937 C18.9590832,25.3688418 19.4657405,26.2085416 20.3325518,26.6770096 C20.7189428,26.8853289 21.1513893,26.9962698 21.5915647,27 C22.0818167,27 22.5724502,26.8548993 23.0138678,26.5801501 L26.692856,24.2219808 C27.7393628,23.5597939 28.1315644,22.3481087 27.6737415,21.2016247 C27.2159186,20.0547637 26.0877668,19.440818 24.8615645,19.650743 L24.8615645,19.6503661 Z M37.8114659,21.2012478 C37.353643,20.0543868 36.2254912,19.4404412 34.9989074,19.6503661 L32.4972869,20.1026281 C32.08868,20.1836583 31.8105526,20.5710961 31.8761739,20.9751168 C31.957819,21.3787606 32.3504021,21.6535097 32.759009,21.5886855 L35.2606295,21.1364235 C35.8493134,21.0233581 36.2254912,21.3787606 36.372376,21.7503692 C36.5196423,22.1216009 36.4868317,22.622481 35.9801744,22.9454714 L32.3011861,25.3036407 C31.957819,25.5297717 31.5492121,25.5297717 31.1894396,25.3522589 C30.8338275,25.1646719 30.613276,24.7973387 30.617161,24.3991168 L30.617161,16.7592814 C30.617161,16.3394316 30.2737939,16.0002351 29.8484001,16.0002351 C29.4233879,16.0002351 29.0800208,16.3394316 29.0800208,16.7592814 L29.0800208,24.3991168 C29.0800208,25.3684649 29.5870596,26.2081647 30.4534894,26.6766327 C30.8398803,26.884952 31.2723268,26.9958929 31.7125022,26.9996231 C32.2031357,26.9996231 32.6937692,26.8545224 33.1351868,26.5797733 L36.8141751,24.221604 C37.8767056,23.543211 38.2692887,22.3319027 37.8114659,21.2012478 L37.8114659,21.2012478 Z" id="Shape" fill="#FFFFFF" fill-rule="nonzero"></path>
    </g>
</svg>