<?xml version="1.0" encoding="UTF-8"?>
<svg width="44px" height="44px" viewBox="0 0 44 44" version="1.1" xmlns="http://www.w3.org/2000/svg" xmlns:xlink="http://www.w3.org/1999/xlink">
    <!-- Generator: Sketch 54.1 (76490) - https://sketchapp.com -->
    <title>icons/banks/44/alfa</title>
    <desc>Created with Sketch.</desc>
    <g id="icons/banks/44/alfa" stroke="none" stroke-width="1" fill="none" fill-rule="evenodd">
        <path d="M14.2444062,30.6637 L29.5590277,30.6637 C29.6243976,30.664701 29.6866902,30.6920723 29.7321655,30.7397765 C29.7776407,30.7874806 29.8025625,30.8515985 29.8014338,30.9179875 L29.8014338,33.7461938 C29.8026135,33.81258 29.7777027,33.8767082 29.7322114,33.924394 C29.6867201,33.9720798 29.6243973,33.9993935 29.5590277,34.0002938 L14.2444062,34.0002938 C14.1787724,33.9996618 14.1160907,33.9724994 14.0702244,33.924814 C14.0243582,33.8771286 13.999087,33.8128496 14,33.7461938 L14,30.9179875 C13.999138,30.8513292 14.0244201,30.7870607 14.0702702,30.7393569 C14.1161203,30.6916531 14.1787717,30.6644329 14.2444062,30.6637 Z M29.2150585,24.4267937 C29.2634952,24.5566852 29.2007349,24.7020649 29.0738523,24.7538875 C28.9196185,24.8134625 26.6572,25.70705 26.5324554,25.7546687 C26.4058148,25.8001041 26.2667503,25.7336204 26.2205292,25.6055437 C26.1741785,25.4799687 25.2365908,22.840925 25.1306831,22.5453 L18.6807077,22.5453 C18.5746092,22.8409562 17.6272554,25.4847562 17.5836123,25.6055437 C17.5624044,25.6676755 17.5174463,25.7185106 17.4588892,25.7465707 C17.4003322,25.7746309 17.333114,25.7775499 17.2724123,25.7546687 C17.1397231,25.7009875 14.8673538,24.8068312 14.7330215,24.7538875 C14.6056076,24.7025858 14.5418545,24.557331 14.5894585,24.4267937 C14.7496615,23.9722812 19.0364554,12.0596187 19.2560308,11.4400062 C19.6800185,10.2389937 20.2263938,9.00029375 21.9017108,9.00029375 C23.5777415,9.00029375 24.1045538,10.2195062 24.5448431,11.4400062 C24.7316738,11.9561187 29.0850646,24.063475 29.2150585,24.4267937 Z M19.7073662,19.6051062 L24.1045538,19.6051062 L21.9158338,12.9541375 L21.8886769,12.9541375 L19.7073662,19.6051062 Z" id="Combined-Shape" fill="#EE3524" fill-rule="nonzero"></path>
    </g>
</svg>