<?xml version="1.0" encoding="UTF-8"?>
<svg width="44px" height="44px" viewBox="0 0 44 44" version="1.1" xmlns="http://www.w3.org/2000/svg" xmlns:xlink="http://www.w3.org/1999/xlink">
    <!-- Generator: Sketch 54.1 (76490) - https://sketchapp.com -->
    <title>icons/banks/44/atb</title>
    <desc>Created with Sketch.</desc>
    <g id="icons/banks/44/atb" stroke="none" stroke-width="1" fill="none" fill-rule="evenodd">
        <path d="M31.3426854,8 L12.6573146,8 C10.0761523,8 8,10.0761523 8,12.6573146 L8,31.3426854 C8,33.9238477 10.0761523,36 12.6573146,36 L31.3426854,36 C33.9238477,36 36,33.9238477 36,31.3426854 L36,12.6573146 C36,10.0761523 33.9238477,8 31.3426854,8 M34.5410822,30.8376754 C34.4849699,30.8937876 34.4288577,30.8937876 34.3727455,30.8937876 C30.7815631,28.7054108 26.5170341,27.4709419 22.0280561,27.4709419 C17.5390782,27.4709419 13.2745491,28.7054108 9.62725451,30.8937876 C9.57114228,30.9498998 9.45891784,30.8937876 9.45891784,30.8376754 C9.40280561,30.7815631 9.40280561,30.6693387 9.51503006,30.6693387 L9.51503006,30.6693387 C12.7695391,28.1442886 15.6312625,24.9458918 17.7635271,21.1302605 C19.9519038,17.3707415 21.2985972,13.3306613 21.8597194,9.23446894 C21.8597194,9.17835671 21.9158317,9.12224449 22.0280561,9.12224449 C22.0841683,9.12224449 22.1402806,9.17835671 22.1963928,9.23446894 C22.757515,13.3306613 24.1042084,17.3707415 26.2925852,21.1302605 C28.4809619,24.8897796 31.2865731,28.0881764 34.5971944,30.6132265 L34.5971944,30.6132265 C34.5971944,30.6693387 34.5971944,30.7815631 34.5410822,30.8376754" id="Shape" fill="#FE5000" fill-rule="nonzero"></path>
    </g>
</svg>