<?xml version="1.0" encoding="UTF-8"?>
<svg width="44px" height="44px" viewBox="0 0 44 44" version="1.1" xmlns="http://www.w3.org/2000/svg" xmlns:xlink="http://www.w3.org/1999/xlink">
    <!-- Generator: Sketch 54.1 (76490) - https://sketchapp.com -->
    <title>icons/banks/44/avangard</title>
    <desc>Created with Sketch.</desc>
    <g id="icons/banks/44/avangard" stroke="none" stroke-width="1" fill="none" fill-rule="evenodd">
        <path d="M11.4712252,35.4348992 L31.9685219,35.4348992 L31.9685219,8.46489081 L11.4712252,8.46489081 L11.4712252,35.4348992 Z M32.4371589,35.9046105 L11,35.9046105 L11,8 L32.4371589,8 L32.4371589,35.9046105 Z M12.2765383,9.2110601 L21.8297793,9.2110601 L21.8312932,34.2278922 L12.7662502,34.2195208 L12.7401943,18.7701332 C12.8307601,13.7791308 16.9369636,9.7992607 21.9283594,9.86465584 C26.9310348,9.82579061 31.0402155,13.8066028 31.1600905,18.8079928 L31.1600905,34.6927691 L12.2765383,34.6927691 L12.2765383,9.2110601 Z M21.8179199,25.3492312 C22.6331598,25.3234166 23.4238332,25.6303088 24.0081817,26.1993601 C24.5925302,26.7684114 24.9202838,27.5506678 24.916099,28.3663056 C24.9190056,29.1783676 24.589618,29.9562786 24.0044507,30.5193349 C23.4192834,31.0823913 22.629268,31.3815859 21.8179199,31.3474179 C20.9803966,31.3992429 20.158146,31.1060817 19.542323,30.5360877 C18.9265,29.9660937 18.570752,29.168922 18.5577824,28.329897 C18.5243875,26.4763402 20.0118637,25.3492312 21.8179199,25.3492312 Z" id="Shape" fill="#144733"></path>
    </g>
</svg>