<?xml version="1.0" encoding="UTF-8"?>
<svg width="44px" height="44px" viewBox="0 0 44 44" version="1.1" xmlns="http://www.w3.org/2000/svg" xmlns:xlink="http://www.w3.org/1999/xlink">
    <!-- Generator: Sketch 54.1 (76490) - https://sketchapp.com -->
    <title>icons/banks/44/aversbank-mono</title>
    <desc>Created with Sketch.</desc>
    <g id="icons/banks/44/aversbank-mono" stroke="none" stroke-width="1" fill="none" fill-rule="evenodd">
        <path d="M7.00000131,21.9981836 C7.0033824,13.7154069 13.7353202,6.99778076 22.0299743,7.00000055 C30.2850142,7.00227079 37.0059004,13.7503685 36.9999961,22.0306732 C36.9940918,30.3041672 30.2575618,37.0029755 21.9463051,36.999999 C13.7199792,36.9970729 6.99656977,30.2486725 7.00000131,21.9981836 Z M34.9420079,23.1591214 C35.5083722,17.3466088 31.8921271,11.3560483 25.5921396,9.51259837 C19.4852737,7.72564854 12.9048829,10.7394241 10.2075118,16.549667 C7.50337469,22.3745903 9.46643914,29.280598 14.8417532,32.8408313 C19.9983797,36.2562891 26.1826199,35.248655 29.7484099,32.3956875 C28.9359557,31.19349 28.1226799,29.9901818 27.3048129,28.7799198 C27.9796752,28.1696217 28.6339495,27.5779155 29.3047522,26.9711908 C30.1207827,28.1852196 30.9243444,29.3806563 31.7448211,30.6012526 C31.9337864,30.374093 32.0915314,30.1844071 32.2537709,29.9893126 C31.4620981,28.8081699 30.6805743,27.6422387 29.8969724,26.4731204 C30.5598491,25.8610355 31.2027178,25.2673494 31.8648697,24.6558922 C32.5005857,25.6088613 33.1249928,26.5448804 33.7773823,27.522864 C33.8806608,27.2873502 33.9476927,27.1061634 34.0375841,26.9370976 C34.1323568,26.7589048 34.1034562,26.6207934 33.9913336,26.4544318 C33.501232,25.7273668 33.0272722,24.9894845 32.5461114,24.2564314 C32.3224944,23.9156921 32.0957843,23.576981 31.8639998,23.2275493 C31.7918933,23.2855948 31.7403749,23.3231167 31.6932544,23.3655159 C29.4980187,25.342876 27.3022998,27.3195601 25.1087074,29.2987553 C23.7081409,30.5624751 22.1752021,31.6079692 20.3501645,32.1636989 C18.6967905,32.6671296 17.0648745,32.6566022 15.4832687,31.8890695 C14.3181598,31.3236818 13.3874452,30.4722198 12.6679755,29.4111761 C10.9438966,26.8684282 10.5042018,24.0788664 11.2345455,21.117776 C11.820483,18.7423072 13.1821931,16.9360894 15.4177832,15.8617174 C17.1067272,15.0500953 18.835349,14.9350185 20.5707368,15.7275175 C21.7849477,16.2820881 22.7025168,17.1848349 23.4432512,18.2752393 C24.2163175,19.4132102 24.9759483,20.5602597 25.7418136,21.7031079 C26.0094581,22.1025204 26.2781175,22.5012086 26.5536395,22.9110519 C25.8895062,23.5117402 25.2375517,24.1014665 24.5770914,24.698871 C24.5290043,24.6315054 24.5003454,24.5934041 24.4738129,24.5539022 C23.0761462,22.4786568 21.6841339,20.3995964 20.275545,18.3318361 C20.0562292,18.0098818 19.7931276,17.7017388 19.4958576,17.451786 C18.6431456,16.7349102 17.5725677,16.6990785 16.6651959,17.345981 C16.3871125,17.5442144 16.136673,17.7941672 15.9150375,18.0555166 C15.4580894,18.5943927 15.147094,19.2227516 14.9006176,19.8815336 C14.2604069,21.5925221 14.0698468,23.362715 14.2369675,25.1735205 C14.3396177,26.2852694 14.5808747,27.3674645 15.0994419,28.3658269 C15.3059022,28.7633078 15.5433413,29.1540763 15.8235995,29.5021075 C16.7473064,30.6492053 17.856354,30.9232551 19.2238153,30.3689742 C20.3083602,29.9293355 21.2087243,29.2087897 22.0656892,28.4379249 C24.9923318,25.8053563 27.9076654,23.1602803 30.8276869,20.5203232 C31.3092343,20.0849824 31.7924249,19.6514766 32.2867311,19.2064293 C33.1676671,20.5178121 34.0352644,21.8093957 34.9420079,23.1591214 Z M29.4242424,20.5623353 C28.7326202,21.1882703 28.0540323,21.8023838 27.362107,22.4285714 C26.8579654,21.673711 26.3630691,20.933097 25.8685769,20.1922809 C24.2062586,17.701979 22.5440415,15.2115256 20.8817232,12.7212237 C20.3277687,11.8912915 19.6399861,11.2189797 18.6862143,10.861353 C18.1489315,10.6599323 17.5910364,10.610878 17,10.655234 C17.0264726,10.6194663 17.0350611,10.595217 17.0514296,10.5875381 C18.5936107,9.86319131 20.1722169,9.67925028 21.7921991,10.3016489 C22.484377,10.5675829 23.0535382,11.0139721 23.4669959,11.631925 C25.4498651,14.5956945 27.4254088,17.5643138 29.4242424,20.5623353 Z M22.0505051,9.68647547 C23.248247,9.52294832 24.3702017,9.67147667 25.4539354,10.1124815 C26.573624,10.5681832 27.4643391,11.3068488 28.1386198,12.3090502 C29.4023295,14.1870202 30.6674995,16.064034 31.9318135,17.9416518 C31.9687252,17.9965635 32.0020616,18.0538911 32.0505051,18.1315526 C31.3755698,18.735531 30.7029509,19.3373954 30.0093835,19.9579832 C29.7704897,19.6064175 29.5406099,19.2691459 29.3117372,18.93122 C27.5675207,16.3560072 25.8188728,13.7838144 24.0824113,11.2034175 C23.600847,10.4878541 23.0036629,9.94840075 22.1465863,9.74007855 C22.1244292,9.73469307 22.1050921,9.71747969 22.0505051,9.68647547 Z" id="Shape" fill="#FFFFFF"></path>
    </g>
</svg>