<?xml version="1.0" encoding="UTF-8"?>
<svg width="44px" height="44px" viewBox="0 0 44 44" version="1.1" xmlns="http://www.w3.org/2000/svg" xmlns:xlink="http://www.w3.org/1999/xlink">
    <!-- Generator: Sketch 54.1 (76490) - https://sketchapp.com -->
    <title>icons/banks/44/bank-soyuz-mono</title>
    <desc>Created with Sketch.</desc>
    <g id="icons/banks/44/bank-soyuz-mono" stroke="none" stroke-width="1" fill="none" fill-rule="evenodd">
        <path d="M22,22.3846154 C17.581722,22.3846154 14,18.9406519 14,14.6923077 C14,10.4439635 17.581722,7 22,7 C26.418278,7 30,10.4439635 30,14.6923077 C30,18.9406519 26.418278,22.3846154 22,22.3846154 Z M22,29.3076923 C17.581722,29.3076923 14,28.2745033 14,27 C14,25.7254967 17.581722,24.6923077 22,24.6923077 C26.418278,24.6923077 30,25.7254967 30,27 C30,28.2745033 26.418278,29.3076923 22,29.3076923 Z M22,33.9230769 C17.581722,33.9230769 14,33.2342842 14,32.3846154 C14,31.5349465 17.581722,30.8461538 22,30.8461538 C26.418278,30.8461538 30,31.5349465 30,32.3846154 C30,33.2342842 26.418278,33.9230769 22,33.9230769 Z M22,37 C17.581722,37 14,36.6556037 14,36.2307692 C14,35.8059348 17.581722,35.4615385 22,35.4615385 C26.418278,35.4615385 30,35.8059348 30,36.2307692 C30,36.6556037 26.418278,37 22,37 Z" id="Combined-Shape" fill="#FFFFFF"></path>
    </g>
</svg>