<?xml version="1.0" encoding="UTF-8"?>
<svg width="44px" height="44px" viewBox="0 0 44 44" version="1.1" xmlns="http://www.w3.org/2000/svg" xmlns:xlink="http://www.w3.org/1999/xlink">
    <!-- Generator: Sketch 54.1 (76490) - https://sketchapp.com -->
    <title>icons/banks/44/bbr</title>
    <desc>Created with Sketch.</desc>
    <g id="icons/banks/44/bbr" stroke="none" stroke-width="1" fill="none" fill-rule="evenodd">
        <path d="M22.7681065,28.2892694 C25.7466272,24.0195636 25.9552071,19.7982106 22.7949112,15.6689753 C21.2714793,13.6782106 19.1281657,12.5683871 16.6310651,12.1656812 C14.176213,11.7698577 11.9171598,12.3569753 9.78627219,13.6083283 C9.7347929,13.5340341 9.68331361,13.45974 9.63183432,13.3854459 C10.2115976,12.7136224 10.7349112,11.9821518 11.3801775,11.3793283 C15.7298225,7.31609296 20.824142,5.9754459 26.5142012,7.79926943 C32.1062722,9.59185767 35.4178107,13.5963283 36.6013018,19.2829165 C37.0473964,21.4261518 37.0892899,23.6419165 36.2430769,25.7133283 C34.3857396,30.2606224 28.4656213,31.9669165 24.1172189,29.2663871 C23.6510651,28.9769753 23.2253846,28.6227988 22.7681065,28.2892694" id="Fill-1" fill="#1CAAE2"></path>
        <path d="M34.054497,30.5175636 C32.3114793,32.7174459 30.2794675,34.4697988 27.5586982,35.5344459 C25.5671598,36.3135636 23.5830769,36.7651518 21.4915976,36.69474 C11.577574,36.3597988 5.41727811,27.2489753 7.35591716,18.8613283 C8.00491124,16.0529753 9.95065089,14.4755047 12.7997633,13.6561518 C15.1110059,12.9913871 17.1394675,13.2973871 19.1966864,14.2381518 C19.6594675,14.4499165 20.0906509,14.7493871 20.4948521,15.06174 C20.8397633,15.3278577 20.9911834,15.6387988 20.6592308,16.0969165 C17.6279882,20.2801518 17.926213,26.03874 22.7400592,29.7943871 C25.7228402,32.1218577 29.3304734,32.4465636 32.9162722,30.7545636 C33.2473373,30.5982106 33.5823077,30.4499753 33.915503,30.2982106 C33.9618343,30.3712694 34.0079882,30.4445047 34.054497,30.5175636" id="Fill-4" fill="#0852A0"></path>
    </g>
</svg>