<?xml version="1.0" encoding="UTF-8"?>
<svg width="44px" height="44px" viewBox="0 0 44 44" version="1.1" xmlns="http://www.w3.org/2000/svg" xmlns:xlink="http://www.w3.org/1999/xlink">
    <!-- Generator: Sketch 54.1 (76490) - https://sketchapp.com -->
    <title>icons/banks/44/binbank</title>
    <desc>Created with Sketch.</desc>
    <g id="icons/banks/44/binbank" stroke="none" stroke-width="1" fill="none" fill-rule="evenodd">
        <polyline id="Fill-3" fill="#E7792B" points="30.6165217 32.8757647 36.9273913 22.0319216 30.6165217 11.1863529 28.3165217 11.1863529 34.626087 22.0319216 28.3165217 32.8757647 30.6165217 32.8757647"></polyline>
        <path d="M32.29,22.0323529 L25.9786957,11.1863529 C25.9786957,11.1863529 13.3421739,11.1820392 13.3417391,11.1863529 C17.9834783,12.1064706 21.48,16.1825098 21.48,21.0591765 C21.48,21.3978039 21.4626087,21.732549 21.4291304,22.0629804 C24.3369565,23.8385098 26.2713043,26.9801961 26.2713043,30.5627451 C26.2713043,31.346549 26.19,32.1437255 26.0147826,32.8757647 L32.29,22.0323529" id="Fill-8" fill="#6AA4CD"></path>
        <path d="M26.0147826,32.8757647 C25.1817391,26.7550196 19.886087,22.0323529 13.4986957,22.0323529 C15.9069565,22.0323529 17.4604348,20.3383529 17.4621739,18.0745098 C17.4621739,16.8032549 16.1234783,13.086549 13.3417391,11.1863529 L7.04434783,22.0323529 L13.3556522,32.8779216 L26.0147826,32.8757647" id="Fill-9" fill="#1D2F6A"></path>
    </g>
</svg>