<?xml version="1.0" encoding="UTF-8"?>
<svg width="44px" height="44px" viewBox="0 0 44 44" version="1.1" xmlns="http://www.w3.org/2000/svg" xmlns:xlink="http://www.w3.org/1999/xlink">
    <!-- Generator: Sketch 54.1 (76490) - https://sketchapp.com -->
    <title>icons/banks/44/bks-mono</title>
    <desc>Created with Sketch.</desc>
    <g id="icons/banks/44/bks-mono" stroke="none" stroke-width="1" fill="none" fill-rule="evenodd">
        <path d="M12.1073604,21.2470888 C11.2393604,18.0250798 11.5931441,14.9629094 13.3462973,12.0969901 C13.9245856,11.1517704 14.603018,10.2782457 15.4620631,9.55966278 C15.6488559,9.80450583 15.8041171,9.57887354 15.9453784,9.50881076 C20.7896306,7.10658655 25.4734505,7.73526816 30.0537207,10.248739 C30.3536486,10.4133489 30.6824595,10.5838601 30.8479369,10.9931874 C30.4505135,11.0044879 30.1510901,10.8187839 29.8499009,10.6772771 C27.6688018,9.65207534 25.3874324,9.15460448 22.9673243,9.30326816 C22.3176486,9.34307085 21.7049279,9.61290045 21.0468018,9.56455964 C20.4548919,9.01510673 20.4456847,9.61490942 20.2977387,9.9411157 C19.0913423,10.2625507 18.0766577,10.9286493 17.1182252,11.6958242 C17.065,11.3340843 17.2324955,10.9999677 17.2506577,10.6472682 C17.257973,10.5056359 17.3230541,10.3265865 17.1787658,10.24447 C16.9844054,10.1336 16.8750541,10.326461 16.7717568,10.4432323 C15.8959369,11.4316448 15.3291261,12.5795193 15.0177207,13.8565955 C14.9888378,13.9749991 14.9493604,14.0908915 14.9148018,14.2079139 C14.7185495,14.2228556 14.648045,14.3780484 14.5508018,14.515035 C14.0532342,15.2152861 13.6763694,15.9798242 13.332045,16.7614386 C12.7004054,18.1959677 12.3755045,19.7139946 12.1073604,21.2470888 Z M21.888782,20.8723785 C20.4115928,19.5826206 19.0868901,18.1689345 18.2154847,16.3872305 C19.3207279,15.532791 20.5042955,14.804791 21.7663135,14.2028538 C23.1373045,16.0057776 24.8675027,17.4208448 26.6972144,18.7283067 C25.7215027,19.1390152 24.6517009,19.2793919 23.6981874,19.7487372 C23.0594847,20.0632664 22.3345117,20.2473381 21.888782,20.8723785 Z M21.6893135,32.5629937 C20.6763946,32.2664197 19.8155838,31.7005184 18.9986649,31.0568951 C19.1039802,30.2408771 19.4137459,29.5086081 19.8454757,28.8076036 C20.2780883,28.1050924 20.9225928,27.6012179 21.4428631,26.9833345 C22.8979802,27.9922135 24.4539982,28.8150117 26.0945207,29.4817381 C24.4598,30.2731462 22.9905568,31.2991013 21.6893135,32.5629937 Z M34.2697135,15.2656861 C34.1010829,15.932287 33.5482721,16.0810762 32.983227,16.1802691 C32.3746685,16.2872466 31.7663622,16.185417 31.1776054,16.0424036 C28.9165423,15.4924484 26.8592991,14.4889686 24.9339838,13.2024753 C27.313227,12.7013632 29.6673712,12.6639462 31.9777495,13.5558027 C32.7526685,13.8548879 33.4246685,14.3052735 34.0296955,14.862009 C34.1461099,14.9692377 34.3196595,15.0552466 34.2697135,15.2656861 Z M8.89810631,17.9660915 C8.79834054,19.2755623 8.61936757,20.5738583 8.74347568,21.9009076 C9.20661081,26.8546475 11.3754757,30.8231139 15.4835297,33.7046027 C15.566773,33.7629883 15.6425748,33.83167 15.721782,33.8955803 C15.7196378,34.5855354 15.3016559,34.3665578 14.9579622,34.2230422 C13.5126829,33.6184682 12.3817099,32.5946475 11.3491153,31.4593291 C9.49127748,29.4168359 8.3796018,27.0069525 8.09644865,24.2773919 C7.87370991,22.1318135 7.99605225,19.9894996 8.89810631,17.9660915 Z M35.6556883,24.7519982 C32.9230396,26.1773614 30.2683369,25.4745991 27.6268775,24.4565543 C27.516391,24.4141148 27.4245712,24.3234601 27.3240486,24.2552807 C27.9901207,23.868052 28.7521748,23.820339 29.4819405,23.698922 C31.0332919,23.4408951 32.5978865,23.3491103 34.1614721,23.6257202 C34.534427,23.6918906 34.8998144,23.8136843 35.2057964,24.0358009 C35.439382,24.2053076 35.7582288,24.3581148 35.6556883,24.7519982 Z M16.7096018,29.1673345 C15.5782505,28.0821148 14.6258721,26.8581507 13.8442685,25.5019713 C13.9705207,25.4231193 13.9650973,25.294922 13.9695117,25.1704915 C14.0390072,23.1862583 14.5341784,21.3179175 15.5037099,19.5786529 C16.1753315,21.2312807 17.1940523,22.674348 18.2532595,24.0930565 C17.3990072,25.6820251 16.7098541,27.3208413 16.7096018,29.1673345 Z" id="Combined-Shape" fill-opacity="0.5" fill="#FFFFFF"></path>
        <path d="M21.7386541,10.6444556 C22.6682036,11.6623749 23.7446901,12.5036305 24.9339333,13.2025004 C26.8592486,14.4889937 28.916618,15.492348 31.1776811,16.0423031 C31.7664378,16.1854422 32.374618,16.2872717 32.9831766,16.1802942 C33.5483477,16.0811013 34.1010324,15.9321865 34.2696631,15.2657112 C34.5284739,15.3148054 34.5516811,15.5548771 34.6374468,15.7338009 C35.0993207,16.6987336 35.4346901,17.7062314 35.6697892,18.7498906 C35.7007321,18.8870027 35.7787201,19.5488741 35.9037532,20.7355049 C34.2499874,21.3672 32.6100955,21.1045274 30.9729784,20.6595408 C29.4438252,20.2438099 28.0858252,19.4525274 26.6971766,18.7282942 C24.8674649,17.4208323 23.1372667,16.005765 21.7662757,14.2028413 C20.9247622,12.9024108 20.1522396,11.578626 20.2977892,9.94119103 C20.4457351,9.61498475 20.4548162,9.0150565 21.0468523,9.56463498 C21.1197532,10.0241865 21.4494468,10.3276664 21.7386541,10.6444556 Z M21.888782,20.8723785 C23.3759351,22.205078 25.0488721,23.256522 26.8503315,24.1114637 C26.9976468,24.1814009 27.1656468,24.2082709 27.3240613,24.2552305 C27.4245838,24.3234099 27.5164036,24.4140646 27.6268901,24.4566296 C30.2683495,25.4745489 32.9230523,26.1773112 35.6557009,24.751948 C35.3418991,26.3888807 34.6826378,27.8861901 33.8214486,29.3057776 C33.655845,29.5787462 33.4273045,29.7076969 33.135827,29.7948359 C31.0826198,30.4075713 29.0406378,30.2771139 27.0024396,29.7226386 C26.7002414,29.6403964 26.3971604,29.5619211 26.0944577,29.4816879 C24.4539351,28.815087 22.8979171,27.9921632 21.4429261,26.9832843 C20.3004757,26.1064951 19.2869261,25.0888269 18.2533225,24.0930063 C17.1939892,22.6744233 16.1753946,21.2312305 15.503773,19.5786027 C14.8827279,17.8345668 14.6056288,16.0529883 14.9148901,14.2078762 C14.9493225,14.0908538 14.9888,13.9749614 15.0176829,13.8565578 C15.3292144,12.5794816 15.8958991,11.4317327 16.7717189,10.4431946 C16.8751423,10.3265489 16.9843676,10.1336879 17.1787279,10.2444323 C17.3230162,10.3266744 17.2579351,10.5057238 17.2507459,10.6472305 C17.2324577,11.0000556 17.0649622,11.3340466 17.1181874,11.6957865 C16.9523315,13.3829435 17.3768721,14.9331139 18.2156108,16.3872305 C19.0868901,18.1689345 20.4115928,19.5826206 21.888782,20.8723785 Z M21.6893135,32.5629937 C23.1662505,33.3937022 24.7825568,33.6900251 26.4491874,33.7728951 C27.2685027,33.8135767 28.0845387,33.7531821 28.8892234,33.5742583 C29.063782,33.5353345 29.2479261,33.4900072 29.4858,33.6287516 C28.5268631,34.2958547 27.5115477,34.7652 26.4583946,35.1455229 C24.6199802,35.8097381 22.7086649,36.1188682 20.7670793,35.9011462 C19.3215477,35.738922 17.9925568,35.1217919 16.7102324,34.4410027 C16.3778901,34.2645901 16.0510973,34.0776305 15.721782,33.8955677 C15.6425748,33.8316574 15.566773,33.7629758 15.4835297,33.7045901 C11.3754757,30.8232269 9.20661081,26.854635 8.74347568,21.9008951 C8.61936757,20.5738457 8.79834054,19.2755498 8.89810631,17.9660789 C9.45255676,15.593487 10.3701243,13.3999444 12.0631153,11.5860969 C13.1875297,10.3814691 14.4930613,9.43938834 16.0958721,8.7382583 C16.0034216,9.20170224 15.6365207,9.30516413 15.4619622,9.55967534 C14.6030432,10.2782583 13.9246108,11.151783 13.3463225,12.0970027 C11.5931694,14.962922 11.2393856,18.0250924 12.1072595,21.2471013 C12.4028991,22.78007 13.0629171,24.1656305 13.8442685,25.5020969 C14.6258721,26.8581507 15.5782505,28.0821148 16.7096018,29.1673345 C17.4075838,29.8753704 18.1288991,30.5552807 18.9986649,31.0568951 C19.8155838,31.7005184 20.6763946,32.2664197 21.6893135,32.5629937 Z" id="Combined-Shape" fill="#FFFFFF"></path>
    </g>
</svg>