<?xml version="1.0" encoding="UTF-8"?>
<svg width="44px" height="44px" viewBox="0 0 44 44" version="1.1" xmlns="http://www.w3.org/2000/svg" xmlns:xlink="http://www.w3.org/1999/xlink">
    <!-- Generator: Sketch 54.1 (76490) - https://sketchapp.com -->
    <title>icons/banks/44/bnp-paribas-mono</title>
    <desc>Created with Sketch.</desc>
    <g id="icons/banks/44/bnp-paribas-mono" stroke="none" stroke-width="1" fill="none" fill-rule="evenodd">
        <path d="M10,36 C8.8954305,36 8,35.1045695 8,34 L8,10 C8,8.8954305 8.8954305,8 10,8 L34,8 C35.1045695,8 36,8.8954305 36,10 L36,34 C36,35.1045695 35.1045695,36 34,36 L10,36 Z M23.8230968,11.0869677 C24.5837419,11.4025806 27.6501935,13.0789677 28.0345806,13.6014194 C26.4072258,13.8172903 23.308,14.7372903 21.7379355,15.564 C23.5369032,15.1698065 26.0433548,14.9597419 27.7686452,14.8689032 C27.0981935,15.86 26.7301935,16.3669677 25.6425806,17.5469677 C27.5069677,16.4274839 28.0263226,16.3498065 29.7517419,15.3390968 C30.3976774,16.3007742 30.5654194,18.5242581 30.5898065,20.2864516 C31.1540645,19.1669677 31.8369032,14.9588387 31.5507097,14.1943226 C32.5891613,13.5140645 32.5891613,13.244129 32.8590968,12.7837419 C31.8123871,12.8770323 31.2236129,12.8940645 30.6512258,13.0699355 C29.212129,12.1851613 26.2436129,11.2749677 23.8230968,11.0869677 Z M19.7345806,16.4227097 C19.2685161,16.4914839 17.951871,17.0818065 17.0769032,17.772 C17.0769032,17.772 16.4962581,17.7009032 15.5230968,17.7310968 C14.5500645,17.7736774 13.2743226,18.0189677 12.7837419,18.2216774 C13.7323871,18.2658065 15.0243871,18.5029677 15.5230968,18.9985806 C15.5230968,18.9985806 14.0757419,20.3028387 12.6610323,23.1486452 C12.6610323,23.1486452 15.2614194,20.7264516 16.3816774,20.1229677 C16.3816774,20.1229677 16.9541935,22.092129 17.3629677,23.0668387 C17.3629677,23.0668387 17.7268387,20.796 18.3237419,19.4891613 C18.3237419,19.4891613 18.4913548,19.3852903 19.3255484,19.3051613 C20.1513548,19.2316129 21.3167742,19.1784516 23.5572903,19.5709677 C23.5572903,19.5709677 21.5007742,18.2650323 18.9575484,17.9150968 C19.0557419,17.5667097 19.4156129,16.8192258 19.7345806,16.4227097 Z M12.4157419,24.1501935 C12.252129,25.5494194 12.1989677,26.5690323 12.3953548,27.6869677 C11.7575484,27.8603871 11.3036129,28.0059355 10.7802581,28.2388387 C11.516129,28.6910968 12.1214194,29.0468387 12.9472258,29.4245161 C13.3806452,30.3665806 13.8263226,30.992 14.5623226,31.7141935 C14.3905806,31.0984516 14.3538065,30.6043871 14.4192258,29.956 C15.3433548,30.2251613 16.112,30.3723871 17.1585806,30.4058065 C16.1610323,30.0378065 15.4495484,29.6060645 14.6645161,28.8725161 C14.9016774,28.2298065 15.1716129,27.7153548 15.6049032,27.0734194 C14.8036129,27.188129 14.2148387,27.2854194 13.5197419,27.4209032 C12.9554839,26.4309677 12.7019355,25.4717419 12.4157419,24.1501935 Z M24.6409032,28.5047742 C23.9376774,28.9994839 23.3243871,29.3852903 22.5147097,29.772129 C22.4739355,29.3927742 22.4492903,29.0730323 22.4329032,28.6477419 C21.9749677,29.2562581 21.5907097,29.7230968 21.0836129,30.2832258 C20.2250323,30.5171613 19.5463226,30.6070968 18.7122581,30.6103226 C19.2192258,30.8744516 19.7344516,31.0347097 20.2659355,31.1418065 C19.7344516,31.6283871 19.2683871,31.9767742 18.7530323,32.3070968 C19.628,32.0994839 20.7646452,31.7232258 21.6152258,31.2237419 C22.0567742,31.2383226 22.4983226,31.2187097 22.8007742,31.1621935 C22.7272258,30.8989677 22.6699355,30.7019355 22.5963871,30.3649032 C23.4061935,29.7411613 23.9785806,29.1809032 24.6409032,28.5047742 Z" id="Combined-Shape" fill="#FFFFFF" fill-rule="nonzero"></path>
    </g>
</svg>