<?xml version="1.0" encoding="UTF-8"?>
<svg width="44px" height="44px" viewBox="0 0 44 44" version="1.1" xmlns="http://www.w3.org/2000/svg" xmlns:xlink="http://www.w3.org/1999/xlink">
    <!-- Generator: Sketch 54.1 (76490) - https://sketchapp.com -->
    <title>icons/banks/44/cetelem</title>
    <desc>Created with Sketch.</desc>
    <g id="icons/banks/44/cetelem" stroke="none" stroke-width="1" fill="none" fill-rule="evenodd">
        <circle id="Oval" fill="#3BB9B5" cx="22" cy="22" r="15"></circle>
        <path d="M25.8214406,25.4783526 C24.896166,26.4076895 23.6042046,26.9855245 22.173708,26.9855245 C21.1923725,26.9855245 20.2762617,26.7132918 19.4986861,26.242688 C19.4276666,26.2037788 19.3562428,26.1615722 19.2844148,26.1131665 C19.2732296,26.1043295 18.6445657,25.6614238 18.5019877,25.5109309 C18.3288188,25.3282554 17.897581,24.7086095 17.897581,24.7086095 C17.894212,24.7034656 17.8915167,24.6984535 17.8882825,24.6933096 C17.3775352,23.9164441 17.0799811,22.9925149 17.0799811,22 C17.0799811,19.246546 19.3605552,17.0144755 22.1738427,17.0144755 C23.5804865,17.0144755 24.8539856,17.5725261 25.7757564,18.4746925 L27.9536419,16.3431266 C26.4744963,14.8954397 24.4309683,14 22.1738427,14 C17.6595917,14 14,17.5816269 14,22 C14,26.4182412 17.6594569,30 22.1738427,30 C24.4548211,30 26.5172158,29.0851716 28,27.6104461 L25.8215754,25.4783526 L25.8214406,25.4783526 Z" id="Path" fill="#FFFFFF"></path>
    </g>
</svg>