<?xml version="1.0" encoding="UTF-8"?>
<svg width="44px" height="44px" viewBox="0 0 44 44" version="1.1" xmlns="http://www.w3.org/2000/svg" xmlns:xlink="http://www.w3.org/1999/xlink">
    <!-- Generator: Sketch 54.1 (76490) - https://sketchapp.com -->
    <title>icons/banks/44/chelindbank</title>
    <desc>Created with Sketch.</desc>
    <g id="icons/banks/44/chelindbank" stroke="none" stroke-width="1" fill="none" fill-rule="evenodd">
        <path d="M21.3665222,7.99999367 L22.6968389,7.99999367 C23.0463955,8.04509774 23.3955086,8.09438281 23.7456353,8.1346724 C25.6218887,8.3504371 27.3736624,8.94914299 28.994305,9.90621086 C31.5812643,11.4339213 33.5059158,13.5658489 34.7411466,16.3146 C35.8044498,18.68079 36.1275267,21.1601837 35.8422054,23.7181294 C35.6434181,25.5002471 35.0861421,27.1818941 34.2159249,28.7554688 C33.3736443,30.2786814 32.3011557,31.6207176 30.9450561,32.7074597 C30.2023593,33.3027448 29.3992914,33.8357584 28.5746217,34.3124552 C27.1029113,35.1631611 25.4966489,35.6467629 23.8098072,35.8589167 C23.4387756,35.9056045 23.0678072,35.9529891 22.6968389,35.9999937 L21.3031738,35.9999937 C21.1930742,35.9749077 21.0834814,35.9313873 20.9726217,35.9275231 C19.7099611,35.883876 18.4934814,35.6069801 17.3112733,35.1813421 C14.8143321,34.2823647 12.7353638,32.8032425 11.0740516,30.7211068 C9.44289321,28.6767267 8.47112851,26.36679 8.13215113,23.7819213 C8.08476652,23.4207086 8.04390679,23.0585457 8.00000633,22.6968262 L8.00000633,21.3665095 C8.02959005,21.0763738 8.0535991,20.7855412 8.08970769,20.496229 C8.25466697,19.176048 8.57007873,17.8997674 9.07680271,16.6616226 C9.82279367,14.8386452 10.916124,13.2608896 12.3211919,11.8999756 C13.3012552,10.9506995 14.4051014,10.160048 15.6304498,9.54480814 C17.080305,8.81687149 18.5974995,8.31540543 20.2146579,8.13429231 C20.5988027,8.09127873 20.9825674,8.04484434 21.3665222,7.99999367" id="Path" fill="#1E5D9F"></path>
        <path d="M30.0026217,19.4957041 C29.9729113,19.4916498 29.9432643,19.4875321 29.9135538,19.4834778 C29.6741602,20.03841 29.4258344,20.5896045 29.1973367,21.148971 C28.6928299,22.3843919 28.2000425,23.6246271 27.6952824,24.8599213 C27.665762,24.9322018 27.5722597,25.0300751 27.5099249,25.0290615 C26.9103321,25.0191792 26.3028842,25.0433149 25.7137439,24.95279 C25.1086398,24.8597946 24.8173005,24.3298217 24.9742145,23.7437222 C25.0633457,23.4106995 25.1843412,23.0846452 25.3116715,22.7636588 C25.9832281,21.0707991 26.6625765,19.3810434 27.3366036,17.6891339 C27.605391,17.0144733 27.8814633,16.3420932 28.1276986,15.6591339 C28.2958253,15.1928896 28.3174905,14.7106814 27.9356262,14.3286271 C27.6052643,13.9981385 27.1911557,13.8484462 26.7211104,14.0027629 C26.3173276,14.1352244 26.0652643,14.4475955 25.8517167,14.7948715 C24.2674362,17.3708715 22.6836624,19.9471249 21.099952,22.5234416 C20.7197348,23.1420389 20.3422416,23.7623466 19.9594905,24.3793602 C19.7234543,24.7598308 19.4005041,24.8704371 19.0507575,24.7006 C18.6935357,24.5270887 18.5758344,24.2178217 18.7353457,23.7966181 C18.9178525,23.3148534 19.1192371,22.8401837 19.3155538,22.3636769 C20.2610923,20.0687538 21.2038434,17.7726905 22.15559,15.4803014 C22.5486036,14.5336226 21.9457167,13.5840932 20.9404407,13.6841837 C20.7627484,13.7018579 20.581762,13.6866543 20.4022326,13.6866543 L18.4203774,13.6866543 C19.1458434,11.9457131 19.8541421,10.2460118 20.5624407,8.54624706 C20.3200063,8.72229231 20.1422507,8.93577647 19.9599973,9.14533303 C17.9398163,11.4687629 15.9173548,13.790229 13.9031919,16.1189167 C13.8117167,16.2247086 13.7528027,16.392962 13.7483683,16.5342923 C13.7199882,17.4302923 13.7037077,18.3268624 13.6976896,19.2233059 C13.6862235,20.9333964 13.683943,22.6435502 13.6798887,24.3537674 C13.6798253,24.409324 13.7018706,24.4650706 13.7270833,24.5849258 C13.7907484,24.4641204 13.8276805,24.4052063 13.8542235,24.3419846 C14.5552371,22.6738941 15.2592914,21.0070072 15.9499158,19.3346724 C16.0312552,19.1377222 16.1264679,19.0549891 16.3400787,19.0620842 C16.772495,19.0763376 17.2061149,19.0570796 17.6384045,19.0732968 C17.8660154,19.0817855 18.1136443,19.0878036 18.3147122,19.1783285 C18.9511104,19.4649167 19.1713729,20.1423014 18.8686308,20.8737855 C18.213038,22.4577493 17.5405946,24.0346814 16.8762597,25.614971 C16.4727303,26.5747629 16.0627394,27.5318941 15.6723231,28.4969439 C15.4025855,29.1636226 15.6376715,29.7657493 16.243409,30.0371339 C16.8234905,30.2969891 17.4415176,30.1005457 17.8342145,29.5064009 C18.3103412,28.7859394 18.7737348,28.0569258 19.2353548,27.3270887 C20.2827575,25.6708443 21.3255357,24.011686 22.3705946,22.354048 C22.893219,21.5251339 23.414133,20.6952063 23.9409385,19.8690163 C24.2182145,19.4342561 24.5851285,19.3610887 24.9522326,19.6231611 C25.1692643,19.7781113 25.2277982,20.1853783 25.0793095,20.5542561 C24.2816896,22.5357946 23.4806489,24.515876 22.6827756,26.4972878 C22.3799701,27.2491068 22.0666489,27.9973149 21.7869023,28.757686 C21.4883412,29.5689891 21.8925674,30.2833692 22.7497348,30.37079 C23.5125131,30.4486452 24.2868208,30.4126633 25.056124,30.4260932 C25.1757258,30.4282471 25.2952643,30.42641 25.4519882,30.42641 C24.8000063,31.9920661 24.1724769,33.4991249 23.5110561,35.0875231 C23.619952,35.0181566 23.6566308,35.0042833 23.6800697,34.9784371 C25.7606217,32.6831339 27.8426308,30.3890977 29.9133005,28.0849891 C30.0318253,27.9530977 30.1189928,27.7366995 30.1166489,27.5610977 C30.090486,25.5988805 30.0397439,23.6370434 30.0047122,21.6749529 C29.9917258,20.9487267 30.0026217,20.2221204 30.0026217,19.4957041" id="Path" fill="#FFFFFF"></path>
    </g>
</svg>