<?xml version="1.0" encoding="UTF-8"?>
<svg width="44px" height="44px" viewBox="0 0 44 44" version="1.1" xmlns="http://www.w3.org/2000/svg" xmlns:xlink="http://www.w3.org/1999/xlink">
    <!-- Generator: Sketch 54.1 (76490) - https://sketchapp.com -->
    <title>icons/banks/44/citi</title>
    <desc>Created with Sketch.</desc>
    <g id="icons/banks/44/citi" stroke="none" stroke-width="1" fill="none" fill-rule="evenodd">
        <path d="M15.9067665,27.4097476 L17.1311226,29.2337257 C14.9329868,31.4617617 11.3721593,31.4621526 9.1735486,29.2345994 C6.97493786,27.0070462 6.96929381,23.3932347 9.16093553,21.1586192 C11.3525772,18.9240037 14.913388,18.9129386 17.1184723,21.1338914 L15.7986065,22.8374719 C14.8227631,21.7048364 13.252378,21.3139156 11.870876,21.85973 C10.4893741,22.4055443 9.5927662,23.7711435 9.62834712,25.2752651 C9.66392805,26.7793867 10.6240739,28.0997463 12.0297926,28.5776503 C13.4355112,29.0555543 14.9856029,28.5886035 15.9067665,27.4097476 Z M18.2594477,19.7028962 L20.6360516,19.7028962 L20.6360516,30.7794876 L18.2594477,30.7794876 L18.2594477,19.7028962 Z M31.2194787,19.7609605 L33.5960206,19.7609605 L33.5960206,30.8374262 L31.2194787,30.8374262 L31.2194787,19.7609605 Z M27.1531923,30.8921538 C25.1101987,30.8921538 24.6215794,29.1198181 24.571649,28.1229562 L24.5566813,28.1229562 L24.5566813,21.7925505 L22.467551,21.7925505 L22.467551,19.762139 L24.5566813,19.762139 L24.5566813,17.61276 L26.6745548,16.3059286 L26.6172129,17.9530476 L26.6172129,19.7621338 L28.7624774,19.7621338 L28.7624774,21.7925452 L26.6172129,21.7925452 L26.6172129,27.4107429 C26.5905875,27.5707074 26.5905875,27.7340712 26.6172129,27.8940357 L26.6172129,28.020541 C26.7187791,28.6313785 27.1920761,29.1089215 27.79454,29.2084299 C28.3970039,29.3079382 28.9950822,29.0073533 29.2822606,28.4607243 L29.2848413,28.4582467 C29.2848413,28.4582467 29.3271742,30.8921538 27.1531923,30.8921538 Z" id="Shape" fill="#1B2452" fill-rule="nonzero"></path>
        <path d="M26.3154426,12.8489114 C22.4299759,12.8465346 18.8010363,14.8173359 16.6473755,18.0994367 L20.0087794,18.0994367 C23.5139692,14.6191802 29.1168747,14.6191802 32.6220645,18.0994367 L35.9835303,18.0994367 C33.8298725,14.8173218 30.2009191,12.8465172 26.3154426,12.8489114 Z" id="Shape" fill="#ED1C24" fill-rule="nonzero"></path>
    </g>
</svg>