<?xml version="1.0" encoding="UTF-8"?>
<svg width="44px" height="44px" viewBox="0 0 44 44" version="1.1" xmlns="http://www.w3.org/2000/svg" xmlns:xlink="http://www.w3.org/1999/xlink">
    <!-- Generator: Sketch 54.1 (76490) - https://sketchapp.com -->
    <title>icons/banks/44/crediteurope-mono</title>
    <desc>Created with Sketch.</desc>
    <g id="icons/banks/44/crediteurope-mono" stroke="none" stroke-width="1" fill="none" fill-rule="evenodd">
        <path d="M22,36 C14.2680135,36 8,29.7319865 8,22 C8,14.2680135 14.2680135,8 22,8 C29.7319865,8 36,14.2680135 36,22 C36,29.7319865 29.7319865,36 22,36 Z M22,34 C28.627417,34 34,28.627417 34,22 C34,15.372583 28.627417,10 22,10 C15.372583,10 10,15.372583 10,22 C10,28.627417 15.372583,34 22,34 Z" id="Combined-Shape" fill="#FFFFFF"></path>
        <path d="M22,33 C15.9248678,33 11,28.0751322 11,22 C11,15.9248678 15.9248678,11 22,11 C28.0751322,11 33,15.9248678 33,22 C33,28.0751322 28.0751322,33 22,33 Z M22,16.5264697 L16.5264697,22 L22,27.4735303 L27.4735303,22 L22,16.5264697 Z" id="Shape" fill="#FFFFFF"></path>
    </g>
</svg>