<?xml version="1.0" encoding="UTF-8"?>
<svg width="44px" height="44px" viewBox="0 0 44 44" version="1.1" xmlns="http://www.w3.org/2000/svg" xmlns:xlink="http://www.w3.org/1999/xlink">
    <!-- Generator: Sketch 54.1 (76490) - https://sketchapp.com -->
    <title>icons/banks/44/dvb</title>
    <desc>Created with Sketch.</desc>
    <g id="icons/banks/44/dvb" stroke="none" stroke-width="1" fill="none" fill-rule="evenodd">
        <path d="M19.1220851,16.9611783 C18.5720042,17.4546964 18.0286146,18.0816074 17.5254981,18.8685189 C16.9418535,19.7622156 16.3984818,20.86927 15.922184,22.2097795 C16.1301505,20.1956892 16.7003589,18.5550989 17.5254981,17.2679464 C17.9816683,16.5476959 18.52504,15.9408115 19.1220851,15.4339542 C20.1619,14.5603195 21.3694085,13.9867657 22.6574271,13.6799976 C23.7911526,13.40656 24.9919519,13.3465155 26.1927524,13.466569 C26.5080478,13.4998995 26.8300525,13.5265781 27.1520572,13.5932745 C29.8354233,14.0401229 32.3980422,15.3739097 34.1824683,17.2812857 C35.7187085,18.9352508 36.7118051,20.6524983 36.5776395,23 L34.2430968,23 L28.4604492,23 C28.5642269,21.015564 28.2388184,19.5354478 27.1520571,18.0415541 C26.8635984,17.6614376 26.5415937,17.3146516 26.1927524,16.9945088 C25.1932093,16.1075349 23.9588641,15.5540077 22.6574271,15.540633 C21.4901557,15.5339811 20.2692289,15.9541155 19.1220851,16.9611783 Z M17.525498,15.5339811 C14.9897158,18.2883132 13.6815697,23.4105668 15.1574274,31 L7.03354587,31 C7.03354587,30.8999731 7.03354587,30.506124 7,30.446115 L7,24.8774063 C7.78488411,16.861116 12.1788932,13.2464885 17.525498,12.2794789 C18.0487421,12.1794166 18.5787134,12.1127556 19.122085,12.0660504 C20.275938,11.9726754 21.4633369,11.9793627 22.6574271,12.0793897 C23.8380989,12.1794166 25.0254977,12.3661666 26.1927523,12.6396042 C26.2531349,12.6729347 26.3202267,12.6729347 26.3470455,12.6996133 C26.3202267,12.6729347 26.2531349,12.6729347 26.1927523,12.6729347 C25.0053702,12.5195506 23.81128,12.5328899 22.6574271,12.7463185 C21.4029543,12.9797029 20.202155,13.4398905 19.122085,14.166793 C18.5518766,14.5469449 18.0152142,15.0004805 17.525498,15.5339811 Z M36.0071672,27.6649431 C36.6511765,27.9183718 37,28.4252292 37,29.2188459 C37,29.7657034 36.778633,30.2058644 36.295626,30.5593377 C35.8461649,30.8727755 35.2088648,31.0328469 34.4105623,31.0328469 C34.3166517,31.0328469 34.24956,31.0328469 34.1824682,31.0328469 C33.9611012,31.0328469 33.8000989,30.9994987 33.6726424,30.9994987 C33.545186,30.9994987 33.3573469,30.9994987 33.095707,30.9994987 L30.7947281,30.9994987 L30.7947281,30.6860432 L31.2106433,30.6860432 C31.4320282,30.6860432 31.5661938,30.6193645 31.5661938,30.4926413 C31.5930305,30.4592931 31.5930305,30.399284 31.5930305,30.3659358 L31.5930305,30.2058644 L31.5930305,25.9776653 L31.5930305,25.8509421 C31.5930305,25.790933 31.5930305,25.7575848 31.5661938,25.7242366 C31.5661938,25.5975134 31.4320282,25.5308347 31.2106433,25.5308347 L30.7947281,25.5308347 L30.7947281,25.184031 L34.1824683,25.184031 L36.4230825,25.184031 L36.4566284,26.6178979 L36.0407131,26.6178979 L36.0407131,26.2977727 C36.0407131,26.1710672 35.8797108,26.044344 35.5577062,25.9176385 C35.2759387,25.790933 34.8868601,25.6908884 34.4709449,25.6308616 C34.3434706,25.5975134 34.2831059,25.5975134 34.1824682,25.5975134 C33.9007186,25.5641829 33.6390966,25.5308347 33.4848034,25.5308347 C33.357347,25.5308347 33.2231813,25.5641829 33.1963446,25.5975134 C33.1292529,25.6308616 33.095707,25.6908884 33.095707,25.790933 L33.095707,27.438193 C33.5116401,27.344818 33.8671727,27.3114875 34.1824682,27.3114875 L34.24956,27.3114875 C34.7594037,27.3114875 35.3363212,27.438193 36.0071672,27.6649431 Z M34.9874799,30.2725608 C35.1753189,29.9857839 35.2759386,29.6323283 35.2759386,29.2188458 C35.2759386,28.6186311 35.1149363,28.2051487 34.7929495,28.0117291 C34.5984013,27.8850236 34.4105623,27.8249968 34.1824682,27.7583181 C34.0281751,27.7249699 33.8671727,27.7249699 33.6726424,27.7249699 C33.4512575,27.7249699 33.2567093,27.7249699 33.095707,27.7583181 L33.095707,30.4592931 C33.3238011,30.6193645 33.5787139,30.6860432 33.9275553,30.7193914 C33.9946471,30.7193914 34.0885576,30.7193914 34.1824682,30.7193914 C34.5380188,30.652695 34.7929495,30.5259895 34.9874799,30.2725608 Z M29.4195081,28.2651581 C29.8018774,28.5252564 29.9964256,28.9053906 29.9964256,29.412248 C29.9628797,29.8924269 29.7415127,30.2725611 29.3255796,30.5860165 C28.8761185,30.906124 28.2388184,31.0328472 27.4405159,31.0328472 C27.3398962,31.0328472 27.2459856,31.0328472 27.1520571,31.0328472 C27.1185113,31.0328472 27.0849833,31.0328472 27.0514374,31.0328472 C26.9575268,31.0328472 26.8300525,31.0328472 26.702596,30.9994989 C26.6086855,30.9994989 26.4141373,30.9994989 26.1927524,30.9994989 L26.0652959,30.9994989 L23.73077,30.9994989 L23.73077,30.6860435 L24.1735219,30.6860435 C24.401616,30.6860435 24.5290724,30.6193647 24.5290724,30.4926415 C24.5559091,30.4592933 24.5559091,30.3992843 24.5559091,30.365936 L24.5559091,30.2058646 L24.5559091,25.9776655 L24.5559091,25.8509423 C24.5559091,25.7909332 24.5559091,25.757585 24.5290724,25.7242368 C24.5290724,25.5975136 24.401616,25.5308349 24.1735219,25.5308349 L23.73077,25.5308349 L23.73077,25.1840312 L25.9311303,25.1840312 C25.998222,25.1840312 26.0921326,25.1840312 26.1927523,25.1840312 C26.4476831,25.150683 26.7629786,25.150683 27.1185112,25.150683 L27.1520571,25.150683 C28.1717445,25.1173348 28.8425726,25.2774062 29.231669,25.5641831 C29.5805104,25.8842905 29.7750586,26.2044156 29.7750586,26.5512016 C29.7750586,26.8046303 29.7079668,27.0313805 29.5469645,27.2181127 C29.3859622,27.4115147 29.1645773,27.5382379 28.9096644,27.6315952 C28.6212056,27.7249702 28.3662927,27.7916489 28.077816,27.7916489 L28.077816,27.8249971 C28.5876597,27.8516757 29.0371208,27.9850685 29.4195081,28.2651581 Z M26.0652959,25.7909333 L26.0652959,27.598247 L26.1927523,27.598247 L26.9239809,27.598247 L27.0246007,27.598247 L27.1520571,27.598247 L27.2459856,27.598247 C27.5344444,27.5715684 27.7222834,27.4715415 27.8832857,27.2848092 C28.0442881,27.1247378 28.1381986,26.8713268 28.1381986,26.6178981 C28.1381986,26.391148 28.077816,26.2044157 27.9839055,26.0443443 C27.8832857,25.8842906 27.7558114,25.7575851 27.5948091,25.6642101 C27.4673526,25.5975137 27.3063503,25.5641832 27.1520571,25.5641832 C27.0849833,25.5308349 26.9910548,25.5308349 26.9239809,25.5308349 C26.6355221,25.5308349 26.4141372,25.5975137 26.1927523,25.6908887 C26.1592243,25.7242369 26.0921326,25.7575851 26.0652959,25.7909333 Z M27.9168137,30.3325879 C28.1381986,30.0791592 28.2723642,29.7323732 28.2723642,29.2855426 C28.2723642,28.4919083 27.8832857,28.0450776 27.1520571,27.9850685 C27.0849832,27.9517203 26.9910548,27.9517203 26.9239809,27.9517203 L26.1927523,27.9517203 L26.0652958,27.9517203 L26.0652958,30.4326148 C26.0921326,30.4592934 26.1592243,30.4926416 26.1927523,30.5259898 C26.4476831,30.6526953 26.702596,30.7193917 27.0246006,30.7193917 C27.0514374,30.7193917 27.1185112,30.7193917 27.1520571,30.6860435 C27.4673526,30.6526953 27.7222834,30.5259898 27.9168137,30.3325879 Z M22.5098431,30.652695 L22.657427,30.652695 L23.0867605,30.652695 L23.0867605,32.3999997 L22.657427,32.3999997 L22.6372994,32.3999997 L22.6372994,32.0198655 C22.6372994,31.8264635 22.4494604,31.6397312 22.0939278,31.5130257 C21.7450864,31.3529543 21.3291533,31.2262489 20.8461463,31.1328739 C20.3698664,31.0661951 19.9539333,30.9994987 19.6319286,30.9994987 C19.4709263,30.9994987 19.3166332,31.0328469 19.122085,31.0328469 C18.9007179,31.0661952 18.6726239,31.0995257 18.417711,31.1595525 C18.0755788,31.2329185 17.7804108,31.3129365 17.5254979,31.4129811 C17.4248603,31.452999 17.3242406,31.4996865 17.2370392,31.5396867 C16.8814886,31.6730795 16.7204863,31.8264636 16.6936496,32.0198655 L16.6601037,32.3999997 L16.2106426,32.3999997 L16.3380991,30.6526951 C16.6936496,30.6526951 17.0760369,30.3659359 17.4248603,29.7657035 C17.4584062,29.7056944 17.4919521,29.6523372 17.525498,29.5923105 C17.8340843,29.025444 18.0889972,28.3852114 18.2902546,27.6982914 C18.5116216,26.8980051 18.6458051,26.331121 18.6458051,25.9443171 C18.6458051,25.790933 18.6122592,25.6642098 18.5451675,25.5975134 C18.4848028,25.5641829 18.3238004,25.5308347 18.0688697,25.5308347 L17.6194086,25.5308347 L17.6194086,25.184031 L19.122085,25.184031 L22.6574271,25.184031 L22.9593042,25.184031 L22.9593042,25.5308347 L22.6574271,25.5308347 L22.5098431,25.5308347 C22.2884582,25.5308347 22.1945476,25.5975134 22.1610017,25.7242366 L22.1610017,25.8509421 L22.1610017,25.9776653 L22.1610017,30.2392126 C22.1610017,30.4926413 22.2884582,30.652695 22.5098431,30.652695 Z M20.6247794,30.2392126 L20.6247794,25.9776653 C20.6247794,25.7575848 20.6247794,25.6642098 20.5912335,25.5975134 C20.5643968,25.5641829 20.4637771,25.5641829 20.3363206,25.5641829 L19.605092,25.5641829 C19.4440897,25.5641829 19.3166333,25.5975134 19.2160135,25.6642099 C19.1891768,25.6908884 19.1556309,25.7242366 19.1220851,25.790933 C19.0885571,25.8842903 19.0550112,25.9443171 19.0550112,26.0710226 C19.0281745,26.1377191 18.9946286,26.2644246 18.9611006,26.484505 C18.8336263,26.9646839 18.672624,27.4381931 18.5451675,27.9183719 C18.3841652,28.4252293 18.2298721,28.8720599 18.0688697,29.2521941 C17.96825,29.4789443 17.8743215,29.732373 17.780411,29.985784 C17.6797912,30.2058645 17.6194086,30.3325876 17.6194086,30.3659359 C17.5858627,30.5593378 17.7133192,30.6526951 17.9414133,30.6526951 L19.1220851,30.6526951 L20.3027748,30.6526951 C20.4637771,30.6526951 20.5912335,30.5860163 20.6247794,30.4926413 C20.6247794,30.4592931 20.6247794,30.4326146 20.6247794,30.3659358 L20.6247794,30.2392126 Z" id="Combined-Shape" fill="#005A4A"></path>
    </g>
</svg>