<?xml version="1.0" encoding="UTF-8"?>
<svg width="44px" height="44px" viewBox="0 0 44 44" version="1.1" xmlns="http://www.w3.org/2000/svg" xmlns:xlink="http://www.w3.org/1999/xlink">
    <!-- Generator: Sketch 54.1 (76490) - https://sketchapp.com -->
    <title>icons/banks/44/expobank-mono</title>
    <desc>Created with Sketch.</desc>
    <g id="icons/banks/44/expobank-mono" stroke="none" stroke-width="1" fill="none" fill-rule="evenodd">
        <path d="M16,19 C16,15.6862915 18.6862915,13 22,13 C25.3137085,13 28,15.6862915 28,19 C28,22.3137085 25.3137085,25 22,25 C18.6862915,25 16,22.3137085 16,19 Z M6,27 L38,27 L38,31 L6,31 L6,27 Z M8.18200342,13.000002 C10.5293655,13.0003523 12.646635,14.4550627 13.5508335,16.6887589 C14.4550321,18.9224551 13.9690546,21.4976242 12.3185245,23.2187 C10.6679944,24.9397757 8.17620027,25.4696518 6,24.5623242 L6,13.4374953 C6.69316642,13.1479279 7.43411332,12.9993675 8.18200342,13.000002 Z M35.8179966,13.000002 C36.5658867,12.9993675 37.3068336,13.1479279 38,13.4374953 L38,24.5623242 C35.8237997,25.4696518 33.3320056,24.9397757 31.6814755,23.2187 C30.0309454,21.4976242 29.5449679,18.9224551 30.4491665,16.6887589 C31.353365,14.4550627 33.4706345,13.0003523 35.8179966,13.000002 Z" id="Combined-Shape" fill="#FFFFFF" fill-rule="nonzero"></path>
    </g>
</svg>