<?xml version="1.0" encoding="UTF-8"?>
<svg width="44px" height="44px" viewBox="0 0 44 44" version="1.1" xmlns="http://www.w3.org/2000/svg" xmlns:xlink="http://www.w3.org/1999/xlink">
    <!-- Generator: Sketch 54.1 (76490) - https://sketchapp.com -->
    <title>icons/banks/44/forabank</title>
    <desc>Created with Sketch.</desc>
    <g id="icons/banks/44/forabank" stroke="none" stroke-width="1" fill="none" fill-rule="evenodd">
        <path d="M8,8 L36,8 L36,22 C31.3208008,15.7777778 26.6499566,12.6666667 21.9874674,12.6666667 C17.3249783,12.6666667 12.6624891,15.7777778 8,22 L8,8 Z" id="Rectangle" fill="#000000"></path>
        <path d="M8,33.6666667 C12.6648438,32.4222222 17.3309028,31.8 21.9981771,31.8 C26.6654514,31.8 31.3327257,32.4222222 36,33.6666667 L36,36 L8,36 L8,33.6666667 Z" id="Rectangle" fill="#E92314"></path>
        <path d="M8,29 C12.3380172,25.8888889 17.0040762,24.3333333 21.9981771,24.3333333 C26.992278,24.3333333 31.6595523,25.8888889 36,29 L36,31.3333333 C31.3333333,29.4666667 26.6666667,28.5333333 22,28.5333333 C17.3333333,28.5333333 12.6666667,29.4666667 8,31.3333333 L8,29 Z M8,23.8666667 C12.3121094,19.2 16.9781684,16.8666667 21.9981771,16.8666667 C27.0181858,16.8666667 31.6854601,19.2 36,23.8666667 L36,26.6666667 C30.5776152,22.6222222 25.9109485,20.6 22,20.6 C18.0890515,20.6 13.4223848,22.6222222 8,26.6666667 L8,23.8666667 Z" id="Shape" fill="#E92314"></path>
    </g>
</svg>