<?xml version="1.0" encoding="UTF-8"?>
<svg width="44px" height="44px" viewBox="0 0 44 44" version="1.1" xmlns="http://www.w3.org/2000/svg" xmlns:xlink="http://www.w3.org/1999/xlink">
    <!-- Generator: Sketch 54.1 (76490) - https://sketchapp.com -->
    <title>icons/banks/44/gazprom</title>
    <desc>Created with Sketch.</desc>
    <g id="icons/banks/44/gazprom" stroke="none" stroke-width="1" fill="none" fill-rule="evenodd">
        <path d="M33.9213669,20.079171 C33.7841476,20.1980262 33.6362303,20.3167366 33.4728455,20.445691 C32.0180243,21.425309 30.3907014,22.1202895 28.6770441,22.4938331 C24.1061793,23.7608138 20.7899945,23.950229 17.0144648,24.9060331 C16.2590581,25.0972988 15.5192175,25.3454864 14.8012869,25.6484676 C15.5140414,26.0120814 16.2691145,26.3547628 17.0496193,26.658891 C18.518663,26.2037105 20.0183239,25.8539708 21.5371697,25.6123379 C22.3824028,25.4650097 24.9835159,24.9927752 26.8725021,24.5792828 C30.2659186,23.8314993 35.2442028,22.2068621 33.9213766,20.0792097 L33.9213669,20.079171 Z M31.7331283,15.6610897 C30.8972269,15.2815479 30.0321377,14.96989 29.1462372,14.7291338 C28.6526942,15.1327888 28.0973417,15.454293 27.5015269,15.6812883 C28.5528979,15.906279 29.5895415,16.1952914 30.6056648,16.5467103 L30.6056648,16.5467103 C30.7880221,16.6406262 31.6029476,15.847589 31.7331186,15.6610993 L31.7331283,15.6610897 Z M15.0804662,20.3618841 C19.5187462,19.0159531 24.184029,18.6024607 28.9014883,17.2981338 C27.3611013,16.7584599 25.7151811,16.5895406 24.0972869,16.8050828 C21.181649,17.1593063 18.3014782,17.7612159 15.4880014,18.6042855 C14.4448276,18.9244703 8.94030759,20.5347986 10.5286897,22.7901407 L10.5286897,22.7901407 C10.5286897,22.8187297 11.4742786,21.4524745 15.0804662,20.3618648 L15.0804662,20.3618841 Z M12.0165517,28.1069738 C12.0094841,28.5268966 12.2542524,28.9018359 12.7970469,29.3568069 C12.8671043,29.1345406 12.9779068,28.9272501 13.1237972,28.7455186 L13.1237972,28.7455186 C12.7460772,28.5495186 12.3777228,28.3315434 12.0165421,28.1069738 L12.0165517,28.1069738 Z M14.1027159,27.8920207 C14.4840672,27.6606633 14.8837731,27.4610121 15.2978041,27.29508 C14.665223,27.0264795 14.019749,26.733223 13.3613821,26.4153103 C13.0821548,26.5883394 12.8226394,26.7913174 12.5874428,27.0206414 L12.5874428,27.0206414 C13.0887586,27.3205117 13.5888676,27.6157379 14.1027159,27.8920207 L14.1027159,27.8920207 Z M31.1723269,18.137989 C29.8758741,18.7102527 28.5295939,19.1622146 27.1504552,19.4881779 C25.6440648,19.8795214 21.9648841,20.4261007 18.0160055,21.3129283 C16.760331,21.5938166 13.3756717,22.4212648 11.711371,23.8837531 C12.1066541,24.1869803 12.5322206,24.4485384 12.9812869,24.6642579 C13.9132759,24.0843038 14.9307814,23.6547359 15.9964138,23.3913393 C18.1058827,22.8265518 20.2473195,22.3887602 22.4091959,22.0803214 C25.2880549,21.607153 28.1265154,20.9145282 30.8997517,20.0085048 C31.5909539,19.7649624 32.2407933,19.4170268 32.8266828,18.9767917 C32.3176705,18.6203922 31.7606856,18.3379826 31.1723655,18.1379986 L31.1723269,18.137989 Z M32.4839531,17.3082331 C32.9088888,17.4986554 33.3178504,17.7228866 33.7068966,17.9787655 C33.9854772,17.4312014 33.8150345,17.075389 33.2370855,16.5674883 L33.2370855,16.5674883 C33.0109503,16.8385028 32.7587009,17.0866127 32.4839821,17.3082331 L32.4839531,17.3082331 Z M11.8057697,25.5997669 C11.4119931,25.3675407 11.1410786,25.2065986 10.8084869,24.9701048 C10.6278386,25.3739807 10.9617628,25.8158979 11.3234359,26.0279738 L11.3234359,26.0279738 C11.4742786,25.8723807 11.6477531,25.7435421 11.8057793,25.5997669 L11.8057697,25.5997669 Z M30.7054317,12.9227476 C30.5630675,13.2701128 30.3489075,13.5834743 30.0769862,13.8422966 C30.7512702,14.0367961 31.4150675,14.2659639 32.0657297,14.5288855 C31.9867697,13.9171048 31.2929972,13.3218634 30.7054317,12.9227379 L30.7054317,12.9227476 Z M9.80997793,16.8341545 C14.4627283,13.6783034 19.6055172,11.8434731 28.3241379,13.3997228 C28.78391,13.1799724 29.1088469,12.7512326 29.1961255,12.2491738 C26.7568181,11.4178487 24.1804109,11.0633306 21.6072276,11.2049283 C18.8570869,11.2797462 13.9197793,12.3365145 11.2848828,13.9467945 L12.084331,12.9126483 C15.2806679,11.3184128 18.7737625,10.4067073 22.3415131,10.2355007 C24.6712788,10.137644 26.9998957,10.4546048 29.2187476,11.1715986 C28.9585407,10.6370593 28.3271793,10.3708952 27.4165034,9.9480469 C24.4916717,8.58956414 19.0305614,8.46308138 14.5554372,10.4969338 C15.1416409,10.0894813 15.7588886,9.72861736 16.4015062,9.41765931 C18.5762656,8.46828561 20.9356972,8.01691044 23.3073103,8.09653241 C25.9069638,8.09235291 28.41447,9.05916803 30.3384097,10.8075021 C30.589803,11.1089975 30.7719062,11.4620305 30.8718483,11.8416483 C31.9525804,12.3048841 32.8741189,13.0742732 33.52284,14.0549517 C33.7182192,14.481388 33.7811163,14.9566481 33.7033917,15.4192276 C34.1527196,15.6824043 34.5394241,16.0401694 34.8366869,16.4677117 C35.0453815,16.7837188 35.1824397,17.1415445 35.2382552,17.516109 C35.3560252,18.0575451 35.2267347,18.6233087 34.8854745,19.0598455 C35.3300803,19.3405992 35.6545752,19.7764671 35.7960248,20.2829145 C35.8859742,21.4341692 35.3778227,22.5508284 34.4507021,23.239251 C32.9329391,24.4081448 31.1963475,25.2610712 29.3434731,25.7476648 C25.6957972,26.6962952 22.4769366,27.100171 19.9161628,27.5872552 C21.6315028,28.0427493 23.4001113,28.266504 25.1748428,28.2525545 C28.7466691,28.1431167 32.2484701,27.233946 35.4224083,25.5919848 C35.4224083,25.5919848 35.3107366,25.9430566 35.2050221,26.2430524 C31.7446143,28.1538474 27.8629449,29.1731066 23.910189,29.20888 C21.7534733,29.1269729 19.6174647,28.7563716 17.5592097,28.1069738 C16.9548191,28.266697 16.3644141,28.4752921 15.793829,28.7306979 C18.2381516,29.8847017 20.8897213,30.5349787 23.5906124,30.6427986 C27.1925606,30.7189381 30.7756374,30.102907 34.1453283,28.8281476 C33.9807366,28.99748 33.8940041,29.2719283 33.7247876,29.4322621 C31.2696636,30.5742564 28.6373465,31.2880433 25.9416276,31.5427669 C23.7792971,31.651789 21.6115695,31.5164686 19.4795848,31.1393738 C17.819739,30.7854862 16.2082457,30.2340961 14.6795255,29.4969807 C14.4230068,29.6875289 14.2540865,29.9733994 14.2109214,30.2900179 C20.2019559,33.5254662 25.8157241,33.5960841 32.1976,31.546909 L31.6130759,32.1254759 C24.5831448,35.0704869 19.0870248,33.9311283 14.8346262,31.8087862 C14.6874427,31.7460438 14.544379,31.674046 14.4062938,31.5932248 C14.7953297,32.3047531 18.0481283,34.7556414 21.6779228,35.0626855 C24.1768442,35.2592529 26.689072,34.9246411 29.0494248,34.080851 L27.9891228,34.6546772 C25.9857703,35.638058 23.755017,36.065168 21.5301021,35.8913503 C18.5938764,35.763537 15.8015078,34.5841657 13.6626331,32.5684841 C13.1875751,32.0982093 12.8720023,31.490763 12.7603572,30.8316924 C11.8943575,30.4079274 11.1648929,29.7492992 10.6551724,28.9309366 C10.3930617,28.3304856 10.3745227,27.6516803 10.603469,27.0378179 C10.1516569,26.7473009 9.76083931,26.371458 9.45290069,25.9313352 C9.12201873,25.2857485 9.17268382,24.5105567 9.58478069,23.9135297 C9.33125446,23.6471206 9.12712648,23.3377477 8.98193103,22.9998607 C8.87584488,22.6424589 8.84091889,22.2677139 8.87913241,21.8968634 C8.98932663,21.2186702 9.29295497,20.5867048 9.7535531,20.0768634 C10.7027917,18.9469669 12.1877669,18.0697559 14.7431434,17.1959531 C16.5055073,16.6037011 18.3037614,16.124158 20.1270124,15.760229 C22.3248579,15.2345821 24.9515186,15.0658483 27.1564221,14.2711117 C21.0126845,13.0161775 14.6227767,14.3145544 9.456,17.8676924 L9.80997793,16.8341545 Z" id="Shape" fill="#1F5379"></path>
    </g>
</svg>