<?xml version="1.0" encoding="UTF-8"?>
<svg width="44px" height="44px" viewBox="0 0 44 44" version="1.1" xmlns="http://www.w3.org/2000/svg" xmlns:xlink="http://www.w3.org/1999/xlink">
    <!-- Generator: Sketch 54.1 (76490) - https://sketchapp.com -->
    <title>icons/banks/44/homecredit-mono</title>
    <desc>Created with Sketch.</desc>
    <g id="icons/banks/44/homecredit-mono" stroke="none" stroke-width="1" fill="none" fill-rule="evenodd">
        <path d="M21.96625,10.8842222 L21.96625,10.8829444 C29.9375,10.8829444 36.375,17.1683333 36.37625,24.927 C36.37625,27.6755 35.51125,30.2297778 34.16625,32.3892222 L27.25,32.3892222 C29.36375,30.7204444 30.70875,28.1674444 30.70875,25.2208889 C30.70875,20.3103889 26.77,16.2853889 21.96625,16.2853889 C17.1625,16.2853889 13.225,20.3103889 13.225,25.2208889 C13.225,28.1674444 14.57,30.7204444 16.6825,32.3892222 L9.76625,32.3892222 C8.325,30.2297778 7.55625,27.6755 7.55625,24.927 C7.55625,17.1683333 13.9925,10.8842222 21.96625,10.8842222 Z M17.25875,27.2832222 L26.67375,27.2832222 C26.00125,29.3455556 24.17625,30.8188333 21.96625,30.8188333 C19.7575,30.8188333 17.93125,29.3455556 17.25875,27.2832222 Z" id="Combined-Shape" fill="#FFFFFF" fill-rule="nonzero"></path>
    </g>
</svg>