<?xml version="1.0" encoding="UTF-8"?>
<svg width="44px" height="44px" viewBox="0 0 44 44" version="1.1" xmlns="http://www.w3.org/2000/svg" xmlns:xlink="http://www.w3.org/1999/xlink">
    <!-- Generator: Sketch 54.1 (76490) - https://sketchapp.com -->
    <title>icons/banks/44/ing</title>
    <desc>Created with Sketch.</desc>
    <defs>
        <path d="M12.1277704,7 L31.8722296,7 C33.6552671,7 34.3018396,7.18565122 34.9536914,7.53426541 C35.6055433,7.88287959 36.1171204,8.39445674 36.4657346,9.04630859 C36.8143488,9.69816044 37,10.3447329 37,12.1277704 L37,31.8722296 C37,33.6552671 36.8143488,34.3018396 36.4657346,34.9536914 C36.1171204,35.6055433 35.6055433,36.1171204 34.9536914,36.4657346 C34.3018396,36.8143488 33.6552671,37 31.8722296,37 L12.1277704,37 C10.3447329,37 9.69816044,36.8143488 9.04630859,36.4657346 C8.39445674,36.1171204 7.88287959,35.6055433 7.53426541,34.9536914 C7.18565122,34.3018396 7,33.6552671 7,31.8722296 L7,12.1277704 C7,10.3447329 7.18565122,9.69816044 7.53426541,9.04630859 C7.88287959,8.39445674 8.39445674,7.88287959 9.04630859,7.53426541 C9.69816044,7.18565122 10.3447329,7 12.1277704,7 Z" id="path-1"></path>
    </defs>
    <g id="icons/banks/44/ing" stroke="none" stroke-width="1" fill="none" fill-rule="evenodd">
        <mask id="mask-2" fill="white">
            <use xlink:href="#path-1"></use>
        </mask>
        <use id="Mask" fill="#FFFFFF" xlink:href="#path-1"></use>
        <path d="M43.7313608,38.9798142 L43.7313608,29 C43.4994029,28.5445819 43.3682151,28.0752691 43.3377975,27.5920615 L43.3954309,27.5359394 C43.7544389,27.6469896 44.0690212,27.8261028 44.393209,28.0171568 C44.2467241,27.1454727 44.0798274,26.2845353 43.6415735,25.5250955 C43.2369391,25.3567291 42.8299032,25.2241853 42.4492827,25.0211904 C42.0110288,24.7310271 41.730066,24.2056284 41.6652285,23.724411 C42.0566552,24.1065191 42.7422525,23.9715872 43.0460285,24.3739948 C42.5189231,22.8204865 42.5069161,21.0436838 41.6412145,19.6239133 C41.2029606,18.573116 40.0562963,18.0930927 39.2698406,17.3205178 C38.9660646,16.9527388 38.8435937,16.439281 38.2924744,16.3819648 C37.8434142,16.2709146 37.808594,15.7670095 37.7305488,15.4446058 C38.0115116,15.4768462 38.2468479,15.6679002 38.4845857,15.7120815 C37.8314073,13.9902068 37.2586754,12.0808603 35.4948535,10.9858818 L35.1910775,11.1745477 C34.506681,11.2772392 33.7754573,11.3202264 33.0898601,11.342914 C33.3936361,10.8951311 33.9327485,10.7064652 34.3601961,10.5034703 C33.8643088,10.1356912 33.4584737,10.0461346 32.8389147,9.94463717 C32.4799067,10.3040576 31.8315311,10.4807826 31.370464,10.581086 L31.315232,10.5380988 C31.303225,10.1368853 31.2095707,9.64253294 31.8171227,9.54342365 C31.2335847,9.26400709 30.2670247,9.37505726 29.6702789,9.54342365 C29.5009808,9.97926571 29.0219033,10.3697324 29.0531214,10.8831902 C28.707321,11.2426107 28.4599777,11.7214399 28.0985683,11.9793629 C28.0889628,11.1184255 28.4551749,10.3243571 28.6136667,9.59954578 C28.1081739,9.78821166 27.5942761,10.0556873 27.1007902,10.2921167 C26.3023276,9.833587 25.4618407,9.37505726 24.6093468,9.02996587 C24.5301008,8.99533732 24.3608028,8.96190286 24.3944222,9.10638749 C25.1244452,9.63178615 24.8422817,10.6145205 24.9203269,11.3644076 L24.4592598,10.9858818 C24.2347297,10.4151078 23.5851534,10.0019534 23.4746894,9.37505726 C22.7098462,9.52073598 22.2211631,9.72253683 21.5127527,10.0246411 L21.4142956,10.0795691 C21.941401,10.0795691 22.3904612,10.4927235 22.6498115,10.9058779 C21.8525495,10.9512532 21.1441391,10.6372081 20.3588842,10.5607865 C20.2796382,10.4819767 20.2136,10.3924201 20.0875269,10.404361 C19.6936988,10.5500397 19.3587047,10.8294563 19.0093022,11.098126 C18.2348536,11.8563718 17.4471972,12.6970097 17.0773829,13.7012376 C17.3367332,13.7466129 17.6621217,13.7358661 17.8530323,13.8922916 C17.4279861,14.1490205 17.0557704,14.5848626 16.639129,14.8308447 C16.4938449,15.4123654 16.5154574,16.0715019 16.4818379,16.7091449 C16.1564494,17.199915 15.7181955,17.635757 15.5044716,18.1826493 C14.8080682,20.4287285 14.6279638,22.9207899 14.730023,25.4689733 C14.5042922,25.6803269 14.2113224,25.817647 14,25.9836252 L14.0228132,28.2631389 L14.0780452,28.2631389 C14.181305,27.7819215 14.7540369,27.5144458 15.1010379,27.190848 L15.2139033,27.190848 C15.1586713,27.7043058 15.0902316,28.2177636 15.0794254,28.7443563 L14.4274477,29.2805018 C13.7778713,29.8500817 14.3277899,30.7086308 14.2701565,31.4238895 C14.3169837,31.6149435 14.3482017,31.8943601 14.4862817,31.9397354 C14.5631263,31.6603189 14.8104696,31.458518 14.96656,31.21373 C15.2475228,31.1444729 15.4936654,30.9223726 15.751815,30.8889381 C15.6089322,31.4465771 15.4168209,31.9946635 15.1898894,32.5308089 C15.0830275,32.6012601 14.9557537,32.6979812 14.8476911,32.8102255 C14.733625,32.9332165 14.6423722,33.0741189 14.6207597,33.225768 C14.9569544,34.9914259 15.5773139,36.9094413 16.4818379,38.9798142 L27.8411609,38.9798142 L43.7313608,38.9798142 Z" id="path157" fill="#FF6600" mask="url(#mask-2)"></path>
        <path d="M24.3800139,31.7510695 C23.8949328,31.145667 23.7376417,30.3074173 23.8613134,29.5503656 C25.7043812,28.6010658 28.1525996,28.7240568 30.0617057,29.337818 C30.2886372,29.5061844 30.5804062,29.5061844 30.7701161,29.7617192 C30.6164271,30.6572851 30.3438692,31.5170283 29.6930921,32.1761648 C29.5346003,31.8167444 29.2548382,31.471653 29.0963464,31.1361143 C28.8153836,31.1241734 29.0423151,31.3713496 28.9390553,31.5062815 C28.8742177,31.8955542 28.7265321,32.2418396 28.7493454,32.6657408 C28.3687248,32.8460481 27.918464,32.9797859 27.4225767,32.9570983 C27.4009641,32.7994787 27.3697461,32.5773783 27.3469328,32.3982652 C27.1548215,32.0758614 27.1764341,31.662707 27.0995895,31.2925398 L27.0203436,31.2161182 C26.774201,31.3820964 26.8522462,31.7283819 26.7285746,31.9624231 C26.5820897,32.2525864 26.3239401,32.4890158 26.28912,32.8233604 C25.8616723,32.7994787 25.4594393,32.7003694 25.1340508,32.3982652 L25.1892828,31.1576079 C25.156864,31.1146207 25.1124382,31.1038739 25.0548048,31.1038739 L24.3800139,31.7510695 L24.3800139,31.7510695 Z M19.4463555,33.8968454 C19.3466977,33.3917462 19.2002129,32.8794826 19.2542442,32.3433371 C19.5916396,32.5093153 19.9854678,32.7230571 20.3108563,33.0359081 L20.3336696,33.3045778 C20.7503109,34.1070049 21.5595798,34.7553946 21.6592375,35.6951417 C20.7959374,35.4587123 19.9518483,34.6335976 19.4463555,33.8968454 Z M22.063872,32.8794826 L23.2441558,33.6281756 L23.1108786,35.2939282 C22.6053857,34.5452351 22.2331701,33.7523608 22.063872,32.8794826 Z M25.7476062,37.2259623 C25.074016,36.6563824 24.3800139,35.9064953 24.3572007,35.0264525 C24.7066031,35.2473588 25.1772758,35.2258652 25.5146713,35.4503537 C25.5807095,36.0175454 25.8160459,36.6671292 25.7476062,37.2259623 Z M27.2304654,36.3662191 C27.7719791,36.120237 28.0325301,35.807386 28.4815902,35.2939282 C28.5044034,36.2766625 28.3423095,37.2044688 27.5558539,37.8397235 L27.2304654,36.3662191 Z M31.3332424,37.3608943 C30.8385558,37.0468492 29.6486664,36.8450483 29.7951513,36.0187395 C30.1109342,35.6079733 30.4603367,35.3500503 30.7953307,34.9476427 C30.8877843,35.7500698 31.0174594,36.6348889 31.3332424,37.3608943 Z M32.7020354,36.5990662 C32.005632,35.5733448 32.4811074,34.4437376 32.8737349,33.4956319 C33.1222789,34.1965615 33.2807707,34.9476427 33.3576153,35.7190235 C33.4920932,36.1512833 34.2533342,36.3877127 34.4898713,36.7901203 C33.9951847,36.9477399 33.1090713,37.1268531 32.7020354,36.5990662 Z M34.3361822,34.2980589 C33.9531603,33.7057914 33.9771742,32.9570983 33.7970699,32.2860209 C34.3361822,32.7994787 35.4372201,32.8794826 35.3243547,33.8741577 C35.3459673,34.3983623 35.7866226,34.788829 36.1672431,35.1601904 C35.4252132,35.3058691 34.7732354,34.8688329 34.3361822,34.2980589 L34.3361822,34.2980589 Z M37.0545572,33.2269621 C37.3247137,32.9905327 37.6609085,32.7111162 37.9754907,32.6120069 L39.0993419,33.5505599 L39.0993419,33.6293697 C38.3693189,33.6066821 37.5708563,33.863411 37.0545572,33.2269621 Z M16.3689725,22.6879427 C16.390585,22.0729875 16.6151151,21.5583356 16.884071,21.0448778 L17.9070636,20.7308327 L17.4255847,21.4472855 C17.5384501,22.6079388 17.0077426,23.5596269 17.0197496,24.6999808 L16.3689725,22.6879427 L16.3689725,22.6879427 Z M16.8072264,19.2012062 L16.828839,18.2829526 C17.120608,17.9844307 17.3211242,17.6023226 17.6945405,17.3790281 L17.6945405,18.6877484 L16.8072264,19.2012062 Z M35.0325857,21.2347378 C35.0974233,21.4162392 35.046994,21.6216223 34.98816,21.8138704 C34.964146,21.8819334 34.9413328,21.9499964 34.9221217,22.0156713 C35.0794128,22.7966047 34.4166288,23.3673787 33.954361,23.8915833 C33.7394365,24.6987867 33.1006664,25.6253989 32.2013454,25.7698835 C32.1893384,25.8701869 32.2109509,26.0158656 32.2805913,26.116169 C34.1332647,26.1376625 35.8298476,26.6845548 37.3799457,27.5120577 L37.4027589,28.3156788 C35.9319067,27.4571296 34.2353238,26.9090433 32.4498894,26.8075458 C32.4378824,27.1323377 32.3706434,27.4236952 32.31301,27.7257994 C33.8198831,28.3622482 35.267922,29.1766161 36.5718775,30.3289109 L36.5178462,31.268658 C35.1442504,30.1163633 33.7082184,28.8769001 32.0428535,28.3156788 C31.8195241,28.6404707 31.5733815,28.998697 31.2575986,29.310354 C30.3258587,28.7192805 29.3809113,28.1723882 28.3134928,27.9132712 C27.8524257,28.0147686 27.8284118,27.5347453 27.7515673,27.2433879 L27.6747228,26.5961923 C28.2918803,26.4170791 28.5956563,25.8033179 28.77456,25.2540375 C29.0002907,25.355535 29.2800528,25.5012137 29.5273961,25.3674759 C29.7639332,25.2122445 29.7423207,24.9543215 29.7759401,24.7190862 C29.5382024,23.914271 28.5488292,23.9488995 27.8644327,23.8581488 C26.9434991,23.7912799 25.9985516,23.8139676 25.2697294,24.2617505 C25.0427979,24.4277287 25.156864,24.7632674 25.1676702,24.9853678 C25.2457155,25.165675 25.4162142,25.2110504 25.5939172,25.2540375 C25.8088417,25.2456789 26.0093579,25.1883627 26.1894622,25.1000002 C26.1438358,25.7137614 26.4932382,26.2379659 27.0203436,26.5400701 C27.0767763,26.5293234 27.1007902,26.5746987 27.1320083,26.5973864 L26.9422984,27.6147492 C26.6733426,28.1055193 26.0093579,27.8822249 25.5939172,28.128207 C24.8074615,28.3288138 24.0642309,28.6524116 23.3798344,29.0894477 C22.9752,28.8673474 22.6606177,28.4852393 22.355641,28.128207 C21.2221843,28.5413614 20.1883854,29.1778102 19.2002129,29.9276974 L18.1760195,30.7540062 C18.075161,30.4626487 18.1424,30.0614352 18.1207875,29.7163438 C19.2650504,28.5759899 20.7274977,28.1747764 22.0626713,27.4810114 L22.0074393,26.5173825 C21.5223582,26.3836446 20.9508271,26.5090239 20.4453342,26.5400701 C19.2650504,26.7538119 18.1988327,27.2326411 17.2094595,27.8822249 C17.2430789,27.5347453 17.0857878,27.0439752 17.4447958,26.864862 C18.8496097,26.0719877 20.4117148,25.6361456 22.1659311,25.6910737 C22.1995506,25.6015171 22.1875436,25.3901635 22.1082977,25.2886661 C21.9858268,25.0665657 22.0542664,24.7190862 21.7612967,24.6187828 C20.9448236,23.8175498 20.4405315,22.881385 20.2796382,21.8138704 L20.2940466,21.8138704 C20.3816974,21.8676044 20.4993656,21.8473049 20.6050268,21.8473049 C20.6050268,21.8473049 20.6410476,21.8174527 20.6410476,21.8138704 C20.6410476,21.8174527 20.6590581,21.8019295 20.6590581,21.8019295 C20.3336696,20.6842633 20.3336696,19.3671844 20.6590581,18.2614591 C19.9746616,17.9701016 19.1653927,17.3993276 18.9072431,16.6733222 C18.6142734,16.1909107 18.3681308,15.6893938 18.2876842,15.1198139 C18.5494358,14.427243 18.9300563,13.7907941 19.3334901,13.163898 C19.5580202,13.0301602 19.826976,12.9955316 20.0647137,12.8964223 C20.6038261,12.5513309 21.1765579,12.035485 21.8957746,12.3602769 C22.3652466,12.4605803 22.7938949,12.6826806 23.2777753,12.7626845 C23.2777753,13.0086666 23.3318066,13.2880832 23.5899562,13.3788338 C24.3211798,13.5006308 24.4136334,14.373509 24.8398803,14.8523382 C25.1316494,15.0756327 25.5915158,14.929954 25.9961502,15.0099578 C26.5472695,15.1663833 27.1176,15.2320582 27.5918748,15.5795377 C28.4791888,14.9538357 29.6810852,14.8308447 30.7929294,14.9872702 C30.9057947,14.5287404 31.097906,14.0809575 31.2551972,13.6678031 C31.53616,13.679744 31.3776681,13.3453994 31.6358177,13.300024 C32.2325634,12.9203041 32.8725342,12.3507242 33.705817,12.6301407 C34.3349815,12.9203041 35.1658629,12.8522411 35.62693,13.4337619 L35.5933106,13.4564495 C36.1780493,13.9818482 36.301721,14.7424822 36.7051547,15.3669901 C36.4013787,16.1610585 36.7171617,17.2214085 35.8970866,17.7802417 L35.2787283,18.3163871 L35.3015415,18.3402689 C35.0662052,18.4740067 34.7960486,18.519382 34.549906,18.6077445 C34.920921,19.5809261 34.6963909,20.7774022 34.2233168,21.6359513 C34.4934733,21.5822174 34.8188619,21.5129603 35.0325857,21.2347378 L35.0325857,21.2347378 Z M21.0312737,13.4576436 C19.9626546,13.6904908 19.6384668,14.8308447 19.467968,15.7383514 C19.649273,16.6983981 20.7395047,16.3974879 21.2774163,16.9443802 C21.9858268,16.2291215 22.8395214,15.7610391 23.7292368,15.4135595 C23.6475895,14.1514087 22.2319694,13.9281142 21.3578629,13.4922722 L21.0312737,13.4576436 Z M21.8753628,19.1247846 L21.7060647,19.1653836 C21.8645565,19.4901755 22.2331701,19.7349635 22.548953,19.891389 C22.6185934,20.2245395 22.907961,20.4263403 23.1444981,20.6723224 C23.460281,20.8514356 23.8300953,20.8287479 24.1891033,20.7523263 C24.3680069,20.7642672 24.4808723,20.2711089 24.592537,20.6412762 C24.5841322,21.1320463 24.8638942,21.7362547 24.5721252,22.2043372 C24.6621774,23.1763247 23.5263193,23.0330341 23.0880654,23.6467953 C22.7722824,23.9608404 22.7410643,24.5316144 22.9175666,24.9101402 C23.322201,24.7202803 23.6944167,24.4754922 24.1098574,24.3525012 C24.2227228,23.8509843 24.6729836,23.4688762 25.1340508,23.2802103 C25.1892828,22.0407471 25.559097,20.8884523 25.5939172,19.6812295 C25.4690448,19.4233065 25.200089,19.2012062 24.9431401,19.090156 C23.886528,19.1785185 22.8983555,19.0340339 21.8753628,19.1247846 L21.8753628,19.1247846 Z M25.0764174,17.078118 C24.7066031,17.2799188 24.2803562,17.6130694 24.1110581,18.0166711 L25.6503499,18.0501055 C25.9313127,17.6023226 26.2230817,17.1234933 26.592896,16.7533261 C26.0765968,16.5992888 25.5578963,16.9216925 25.0764174,17.078118 L25.0764174,17.078118 Z M29.5826281,16.7103389 C29.3256793,16.6757104 28.9978894,16.6422759 28.7505461,16.7306384 C28.6400821,16.7748197 28.7289335,16.9085575 28.7733593,16.9766205 C29.5718219,16.9204984 29.244032,17.7921825 29.7507255,18.0715991 C30.1325467,17.9844307 30.6260327,18.0489114 30.9646288,17.9151736 C31.0222622,17.7133727 30.8757774,17.5903817 30.7725175,17.4566438 C30.1877787,17.4255976 30.2225989,16.5992888 29.5826281,16.7103389 Z M29.1779937,19.7027231 L29.0459172,19.7600393 C29.2248208,20.8215834 29.2464334,21.9392496 29.3496932,23.0354223 C29.7183067,23.3363324 30.3810907,23.6957529 30.4267172,24.2963791 C30.9418156,24.4766863 31.4268967,24.744162 31.8531436,25.1573164 C32.1220994,24.8444654 32.3694427,24.5328085 32.4931144,24.1626412 C31.966009,23.5918672 30.7521057,23.8712838 30.7412994,22.8443682 L30.044896,22.3858385 C29.9200236,21.7493897 29.9644494,21.0568187 29.7951513,20.4299226 L29.9296292,20.2961848 C30.0100758,20.4860447 30.2009864,20.653217 30.3690838,20.7774022 C30.8517634,20.843077 31.4593154,21.0341311 31.8759568,20.6209767 C32.1449127,20.4299226 32.1112932,19.9821397 32.4931144,19.9713929 C32.6504055,19.8161614 32.9097558,19.7707861 33.0886594,19.6024197 C33.0886594,19.4686819 33.3251965,19.3683785 33.2015248,19.2549402 L30.2910386,19.2012062 C29.8864041,19.2788219 29.4589565,19.3110623 29.1779937,19.7027231 L29.1779937,19.7027231 Z M32.6612118,13.938861 C32.1220994,14.250518 31.9528014,14.7759166 31.7955102,15.3132562 C32.7728765,15.7908913 33.8294887,16.7318325 34.1993029,17.7814357 L34.24613,17.7814357 C34.4922726,17.2452903 35.1550566,17.5796349 35.4588326,17.2452903 C35.650944,16.3962938 35.7169822,15.3681842 35.3015415,14.6087443 C34.7732354,14.2278303 34.2353238,13.8934857 33.6613913,13.62601 L32.6612118,13.938861 L32.6612118,13.938861 Z M23.1108786,26.4075264 C23.1216848,26.5985805 22.9643937,27.0463634 23.2441558,27.1120382 L23.9981927,26.7669468 C24.1891033,26.7215715 24.426841,26.6558967 24.5144918,26.4982771 C24.0990511,26.2618477 23.5911568,26.4767835 23.1108786,26.4075264 L23.1108786,26.4075264 Z M30.2346059,26.5985805 C30.15536,26.5878337 30.032889,26.6212681 30.0641071,26.7323183 L31.4148897,27.3018982 L31.5841878,26.5985805 L30.2346059,26.5985805 L30.2346059,26.5985805 Z M36.59349,24.1077132 L37.0545572,21.4031042 C37.3247137,21.9953718 37.875833,22.5542049 37.6176834,23.3040921 L37.5144236,23.8163558 L36.59349,24.1077132 L36.59349,24.1077132 Z M38.9192375,27.6481837 C38.9312445,27.2350293 38.8760125,26.7215715 38.9636632,26.307223 C39.1569752,26.5758928 39.2338198,26.9114315 39.5375958,27.1120382 C39.9410295,26.8768029 40.0106699,27.5478803 40.2123867,27.7819215 C40.3228507,28.0720849 40.5029551,28.3407546 40.5605885,28.6655465 C39.7849391,28.8995877 39.3574914,28.1294011 38.9192375,27.6481837 L38.9192375,27.6481837 Z M39.0765286,30.9223726 C39.5387965,30.8232633 40.0106699,30.521159 40.4501245,30.8650564 C40.8199387,31.1910423 41.0552751,31.6376312 41.4479025,31.8836133 C41.134521,32.0949668 40.9195965,31.7271878 40.5846024,31.8059976 C40.2123867,31.838238 39.7621259,31.8716724 39.4583499,31.6722597 C39.2926539,31.4597121 39.2458267,31.1564138 39.0765286,30.9223726 L39.0765286,30.9223726 Z" id="Shape" fill="#FFFFFF" mask="url(#mask-2)"></path>
    </g>
</svg>