<?xml version="1.0" encoding="UTF-8"?>
<svg width="44px" height="44px" viewBox="0 0 44 44" version="1.1" xmlns="http://www.w3.org/2000/svg" xmlns:xlink="http://www.w3.org/1999/xlink">
    <!-- Generator: Sketch 54.1 (76490) - https://sketchapp.com -->
    <title>icons/banks/44/intesa-mono</title>
    <desc>Created with Sketch.</desc>
    <g id="icons/banks/44/intesa-mono" stroke="none" stroke-width="1" fill="none" fill-rule="evenodd">
        <path d="M37,7 L37,37 L7,37 L7,7 L37,7 Z M35,35 L35,9 L9,9 L9,35 L35,35 Z M32.6,15.3 C33.8,16.4 28.1,16.2 27.5,15.8 C25.5,15.6 11,15.6 11,15.5 C11,14.3 29.2,15.3 32.6,15.3 Z M25.1,26.1 C25.2,26.3 25,27.1 25.2,27.3 C25.3,27.7 25.3,28 25.2,28.4 C25,28.4 24.9,28.4 24.7,28.4 C24.5,28.3 24.6,26 24.6,26 C24.7,25.7 24.6,25.5 24.6,25.2 C24.6,24.7 24.5,24.2 24.5,23.5 C24.4,22.9 24.5,22.1 24.4,21.5 C24.4,21.1 24.1,20.4 24,20.1 C24,20 23.8,19.6 23.6,19.5 C23.4,19.3 23.1,19.3 22.9,19.1 C22.7,19.2 22.1,19.1 21.8,19.1 C21.5,19.1 21.1,19.2 20.8,19.4 C19.8,20.1 19.7,21 19.6,22.1 C19.4,23.7 19.5,25.3 19.5,26.9 C19.5,27.3 19.7,28.1 19.5,28.4 C19.1,29 18.9,27.7 19,27.4 C19,27.3 19.1,27 19,26.8 C18.7,26.3 19.2,25.6 18.8,25.1 C19.1,25 19,24.3 18.9,24 C19,23.8 18.9,23.4 18.9,23.2 C19,22.9 19.1,22.5 19.1,22.2 C19.1,21.6 19.1,21.1 19.3,20.6 C19.4,20.3 20.2,18.8 21.3,18.7 C22.4,18.7 23.6,18.5 24.4,19.7 C25.2,20.9 25,22.8 25.1,24.2 C25.1,24.8 25.2,25.5 25.1,26.1 Z M32.5,26.2 C32.7,26.5 32.5,27.2 32.7,27.5 C32.8,27.9 32.8,28.2 32.7,28.6 C32.5,28.5 32.4,28.6 32.2,28.6 C32,28.5 32,27.8 32,27.7 C32.1,27.5 32,26.6 32,26.4 C32,26.3 32.1,26.1 32.1,26.2 C32.1,26.2 32,26 32,26 C32.1,25.8 32.1,25.3 32.1,25.1 C31.9,24.8 31.9,24.5 32,24.3 C31.9,24.2 32,23.6 32,23.4 C31.9,23.3 32,23.3 32,23.2 C32,23.2 31.8,21.4 31.8,21.2 C31.8,20.9 31.6,20.5 31.5,20.2 C31.4,20 31.2,19.7 30.9,19.5 C30.7,19.4 30.5,19.4 30.4,19.2 C30.2,19.3 29.6,19.2 29.3,19.2 C28.9,19.3 28.7,19.3 28.4,19.5 C27.4,20.1 27.2,21 27.1,22.1 C26.9,23.6 27,25.2 27,26.7 C27,27.2 27.2,28.1 27,28.5 C26.6,29.2 26.4,27.8 26.5,27.5 C26.5,27.4 26.6,27.1 26.5,26.9 C26.3,26.6 26.6,25.9 26.4,25.5 C26.3,25.4 26.3,25.3 26.2,25.2 C26.5,25.1 26.4,24.4 26.3,24.1 C26.4,23.9 26.3,23.5 26.3,23.3 C26.4,23 26.5,22.6 26.5,22.3 C26.5,21.7 26.5,21.2 26.7,20.7 C26.8,20.3 27.3,19 28.7,18.8 C29.8,18.7 31,18.6 31.8,19.8 C32.6,21 32.4,22.9 32.5,24.3 C32.5,24.9 32.6,25.6 32.5,26.2 Z M17.5,26.1 C17.7,26.4 17.5,27.2 17.6,27.4 C17.6,27.7 17.5,28.1 17.5,28.4 C17.3,28.4 17.2,28.4 17,28.4 C16.8,28.3 16.8,27.6 16.8,27.5 C16.9,27.3 16.8,26.3 16.8,26 C17,26 16.9,25.6 16.9,25.4 C16.9,25.3 16.9,24.4 16.8,24.5 C17,23.8 16.8,22.7 16.7,21.9 C16.7,21.5 16.6,21.1 16.5,20.7 C16.4,20.4 16.3,20 16.2,19.8 C15.9,19.3 15.5,19.3 15.2,19 C15,19.1 14.4,19 14.1,19 C13.8,19 13.4,19.1 13.1,19.3 C12.1,20 12,20.9 11.9,22 C11.7,23.6 11.8,25.2 11.8,26.8 C11.8,27.2 12,28 11.8,28.3 C11.4,28.9 11.2,27.6 11.3,27.3 C11.3,27.2 11.4,26.9 11.3,26.7 C11,26.2 11.5,25.5 11.1,25 C11.4,24.9 11.3,24.2 11.2,23.9 C11.3,23.7 11.2,23.3 11.2,23.1 C11.2,22.8 11.3,22.4 11.3,22.1 C11.4,21.5 11.4,21.1 11.6,20.6 C11.7,20.3 12.1,19.4 12.5,19.2 C13.3,18.5 14.7,18.4 15.6,18.8 C17.1,19.5 17.3,21.1 17.4,22.6 C17.5,23.7 17.7,25.1 17.5,26.1 Z" id="Combined-Shape" fill="#FFFFFF" fill-rule="nonzero"></path>
    </g>
</svg>