<?xml version="1.0" encoding="UTF-8"?>
<svg width="44px" height="44px" viewBox="0 0 44 44" version="1.1" xmlns="http://www.w3.org/2000/svg" xmlns:xlink="http://www.w3.org/1999/xlink">
    <!-- Generator: Sketch 54.1 (76490) - https://sketchapp.com -->
    <title>icons/banks/44/intesa</title>
    <desc>Created with Sketch.</desc>
    <g id="icons/banks/44/intesa" stroke="none" stroke-width="1" fill="none" fill-rule="evenodd">
        <path d="M37,7 L7,7 L7,37 L37,37 L37,7 Z M35,35 L9,35 L9,9 L35,9 L35,35 Z" id="Shape" fill="#E98A42" fill-rule="nonzero"></path>
        <path d="M32.6,15.3 C29.2,15.3 11,14.3 11,15.5 C11,15.6 25.5,15.6 27.5,15.8 C28.1,16.2 33.8,16.4 32.6,15.3" id="Path" fill="#DEB630" fill-rule="nonzero"></path>
        <path d="M25.1,26.1 C25.2,25.5 25.1,24.8 25.1,24.2 C25,22.8 25.2,20.9 24.4,19.7 C23.6,18.5 22.4,18.7 21.3,18.7 C20.2,18.8 19.4,20.3 19.3,20.6 C19.1,21.1 19.1,21.6 19.1,22.2 C19.1,22.5 19,22.9 18.9,23.2 C18.9,23.4 19,23.8 18.9,24 C19,24.3 19.1,25 18.8,25.1 C19.2,25.6 18.7,26.3 19,26.8 L19,26.8 C19.1,27 19,27.3 19,27.4 L19,27.4 C18.9,27.7 19.1,29 19.5,28.4 C19.7,28.1 19.5,27.3 19.5,26.9 C19.5,25.3 19.4,23.7 19.6,22.1 C19.7,21 19.8,20.1 20.8,19.4 C21.1,19.2 21.5,19.1 21.8,19.1 C22.1,19.1 22.7,19.2 22.9,19.1 C23.1,19.3 23.4,19.3 23.6,19.5 C23.8,19.6 24,20 24,20.1 C24.1,20.4 24.4,21.1 24.4,21.5 C24.5,22.1 24.4,22.9 24.5,23.5 C24.5,24.2 24.6,24.7 24.6,25.2 C24.6,25.5 24.7,25.7 24.6,26 C24.6,26 24.5,28.3 24.7,28.4 C24.9,28.4 25,28.4 25.2,28.4 C25.3,28 25.3,27.7 25.2,27.3 C25,27.1 25.2,26.3 25.1,26.1" id="Path" fill="#008652" fill-rule="nonzero"></path>
        <path d="M32.5,26.2 C32.6,25.6 32.5,24.9 32.5,24.3 C32.4,22.9 32.6,21 31.8,19.8 C31,18.6 29.8,18.7 28.7,18.8 C27.3,19 26.8,20.3 26.7,20.7 C26.5,21.2 26.5,21.7 26.5,22.3 C26.5,22.6 26.4,23 26.3,23.3 C26.3,23.5 26.4,23.9 26.3,24.1 C26.4,24.4 26.5,25.1 26.2,25.2 C26.3,25.3 26.3,25.4 26.4,25.5 C26.4,25.5 26.4,25.5 26.4,25.5 L26.4,25.5 C26.6,25.9 26.3,26.6 26.5,26.9 L26.5,26.9 C26.6,27.1 26.5,27.4 26.5,27.5 L26.5,27.5 C26.4,27.8 26.6,29.2 27,28.5 C27.2,28.1 27,27.2 27,26.7 C27,25.2 26.9,23.6 27.1,22.1 C27.2,21 27.4,20.1 28.4,19.5 C28.7,19.3 28.9,19.3 29.3,19.2 C29.6,19.2 30.2,19.3 30.4,19.2 C30.5,19.4 30.7,19.4 30.9,19.5 C31.2,19.7 31.4,20 31.5,20.2 C31.6,20.5 31.8,20.9 31.8,21.2 C31.8,21.4 32,23.2 32,23.2 C32,23.3 31.9,23.3 32,23.4 C32,23.6 31.9,24.2 32,24.3 C31.9,24.5 31.9,24.8 32.1,25.1 L32.1,25.1 C32.1,25.3 32.1,25.8 32,26 L32,26 C32,26 32.1,26.2 32.1,26.2 C32.1,26.1 32,26.3 32,26.4 C32,26.6 32.1,27.5 32,27.7 L32,27.7 C32,27.8 32,28.5 32.2,28.6 C32.4,28.6 32.5,28.5 32.7,28.6 C32.8,28.2 32.8,27.9 32.7,27.5 C32.5,27.2 32.7,26.5 32.5,26.2" id="Path" fill="#E98A42" fill-rule="nonzero"></path>
        <path d="M17.5,26.1 C17.7,25.1 17.5,23.7 17.4,22.6 C17.3,21.1 17.1,19.5 15.6,18.8 C14.7,18.4 13.3,18.5 12.5,19.2 C12.1,19.4 11.7,20.3 11.6,20.6 C11.4,21.1 11.4,21.5 11.3,22.1 C11.3,22.4 11.2,22.8 11.2,23.1 C11.2,23.3 11.3,23.7 11.2,23.9 C11.3,24.2 11.4,24.9 11.1,25 C11.5,25.5 11,26.2 11.3,26.7 L11.3,26.7 C11.4,26.9 11.3,27.2 11.3,27.3 L11.3,27.3 C11.2,27.6 11.4,28.9 11.8,28.3 C12,28 11.8,27.2 11.8,26.8 C11.8,25.2 11.7,23.6 11.9,22 C12,20.9 12.1,20 13.1,19.3 C13.4,19.1 13.8,19 14.1,19 C14.4,19 15,19.1 15.2,19 C15.5,19.3 15.9,19.3 16.2,19.8 C16.3,20 16.4,20.4 16.5,20.7 C16.6,21.1 16.7,21.5 16.7,21.9 C16.8,22.7 17,23.8 16.8,24.5 C16.9,24.4 16.9,25.3 16.9,25.4 C16.9,25.6 17,26 16.8,26 C16.8,26.3 16.9,27.3 16.8,27.5 C16.8,27.6 16.8,28.3 17,28.4 C17.2,28.4 17.3,28.4 17.5,28.4 C17.5,28.1 17.6,27.7 17.6,27.4 C17.5,27.2 17.7,26.4 17.5,26.1" id="Path" fill="#006CA5" fill-rule="nonzero"></path>
    </g>
</svg>