<?xml version="1.0" encoding="UTF-8"?>
<svg width="44px" height="44px" viewBox="0 0 44 44" version="1.1" xmlns="http://www.w3.org/2000/svg" xmlns:xlink="http://www.w3.org/1999/xlink">
    <!-- Generator: Sketch 54.1 (76490) - https://sketchapp.com -->
    <title>icons/banks/44/lockobank</title>
    <desc>Created with Sketch.</desc>
    <g id="icons/banks/44/lockobank" stroke="none" stroke-width="1" fill="none" fill-rule="evenodd">
        <path d="M20.2360938,9.5770149 C22.0020973,8.58671121 24.2602773,9.17440142 25.2798799,10.8896577 L36.356803,29.5241354 C37.3764056,31.2393917 36.7713281,33.4326814 35.0053246,34.4229851 C33.239321,35.4132888 30.9811411,34.8255986 29.9615385,33.1103423 L18.8846154,14.4758646 C17.8650128,12.7606083 18.4700903,10.5673186 20.2360938,9.5770149 Z" id="Rectangle" fill="#0856A5"></path>
        <ellipse id="Oval" fill="#FAAE3C" cx="22.2639062" cy="31.0320427" rx="3.69230769" ry="3.5862069"></ellipse>
        <path d="M24.0769231,9.5770149 C25.8429266,10.5673186 26.4480041,12.7606083 25.4284015,14.4758646 L14.3514784,33.1103423 C13.3318758,34.8255986 11.0736958,35.4132888 9.30769231,34.4229851 C7.54168877,33.4326814 6.93661128,31.2393917 7.95621389,29.5241354 L19.033137,10.8896577 C20.0527396,9.17440142 22.3109195,8.58671121 24.0769231,9.5770149 Z" id="Rectangle" fill="#20A8E0"></path>
        <path d="M22.3056465,9.0967504 C23.5541965,9.12229362 24.7590187,9.76253181 25.429018,10.8896577 L25.9491835,11.7647213 C26.1901765,12.6485454 26.0853982,13.6215047 25.5775396,14.4758646 L22.3056465,19.9801024 L19.0337535,14.4758646 C18.5258949,13.6215047 18.4211166,12.6485454 18.6621096,11.7647213 L19.1822751,10.8896577 C19.8522744,9.76253181 21.0570965,9.12229362 22.3056465,9.0967504 L22.3056465,9.0967504 Z" id="Path" fill="#223C73"></path>
    </g>
</svg>