<?xml version="1.0" encoding="UTF-8"?>
<svg width="44px" height="44px" viewBox="0 0 44 44" version="1.1" xmlns="http://www.w3.org/2000/svg" xmlns:xlink="http://www.w3.org/1999/xlink">
    <!-- Generator: Sketch 54.1 (76490) - https://sketchapp.com -->
    <title>icons/banks/44/mdm</title>
    <desc>Created with Sketch.</desc>
    <g id="icons/banks/44/mdm" stroke="none" stroke-width="1" fill="none" fill-rule="evenodd">
        <path d="M28.7681542,32.1229577 L28.7681542,31.7553225 L28.9285201,32.0311577 L28.7681542,32.1229577 Z M28.7681542,29.2439941 L28.7681542,28.5103217 L29.1319762,28.9407141 L28.7681542,29.2439941 L28.7681542,29.2439941 Z M28.7681542,27.1171853 L28.7681542,26.2828933 L29.3552453,25.2734061 L31.0015567,26.2176677 L30.0517801,27.8537477 L28.7681131,27.1171989 L28.7681542,27.1171853 Z M28.7681542,18.3431997 L28.7681542,17.5092273 L30.0518212,16.7729981 L31.0015978,18.4094113 L29.3552863,19.3543121 L28.7681747,18.3432065 L28.7681542,18.3431997 Z M28.7681542,16.1151797 L28.7681542,15.3820853 L29.1310725,15.6848009 L28.7681542,16.1151797 Z M28.7681542,12.8714097 L28.7681542,12.5040805 L28.9285201,12.5958805 L28.7681542,12.8713961 L28.7681542,12.8714097 Z M31.6025457,12.3207593 L30.5829512,11.4705349 L29.7275908,12.4831773 L30.7474386,13.3327625 L31.602532,12.3207593 L31.6025457,12.3207593 Z M34.4827932,16.0858377 L33.8167172,14.9404593 L32.6644977,15.6017185 L33.3299507,16.7461585 L34.4827932,16.0858785 L34.4827932,16.0858377 Z M31.8742107,15.4364377 L30.7741799,14.1348565 L29.4628337,15.2268209 L30.5631862,16.5297009 L31.8742381,15.4364581 L31.8742107,15.4364377 Z M34.5812693,20.8322989 L35.8913285,20.6021461 L35.6605012,19.3011905 L34.3501339,19.5301397 L34.581283,20.8322989 L34.5812693,20.8322989 Z M29.9487033,21.9321445 L31.8207554,21.6032081 L31.4911987,19.7437957 L29.6188249,20.0720861 L29.9487033,21.9321377 L29.9487033,21.9321445 Z M33.6645325,19.1071729 L33.0792899,17.5098529 L31.4704272,18.0914705 L32.0559985,19.6882261 L33.6645051,19.1071865 L33.6645325,19.1071729 Z M34.5812419,23.7943721 L34.3491549,25.0965313 L35.6605012,25.3264529 L35.891972,24.0233213 L34.5812693,23.7943721 L34.5812419,23.7943721 Z M31.8213715,23.0241089 L29.948676,22.6961381 L29.6175036,24.5561897 L31.4911644,24.8838409 L31.8213647,23.0241089 L31.8213715,23.0241089 Z M34.0818783,21.4639101 L32.3701785,21.4639101 L32.3701785,23.1634613 L34.0818783,23.1640257 L34.0818783,21.4639101 L34.0818783,21.4639101 Z M32.6645251,29.0250885 L33.8167446,29.6853685 L34.4834641,28.5408809 L33.3299781,27.8793021 L32.6645251,29.0250681 L32.6645251,29.0250885 Z M33.6642176,25.5201781 L32.0560395,24.9388869 L31.4704683,26.5362069 L33.0786463,27.1168589 L33.6642176,25.5201713 L33.6642176,25.5201781 Z M29.7276388,32.1436229 L30.5836427,33.1562653 L31.6031687,32.3075777 L30.7474865,31.2949353 L29.7276388,32.1436229 L29.7276388,32.1436229 Z M29.4628679,29.3998909 L30.7735706,30.4924945 L31.8742449,29.1905801 L30.5635422,28.0970789 L29.4628679,29.3998909 Z M27.5998734,9.76036213 L26.3498419,9.30841373 L25.8944996,10.5487337 L27.1451746,11.0017021 L27.5998734,9.76036893 L27.5998734,9.76036213 Z M28.7681747,12.5040805 L28.7681747,12.8714097 L28.0719137,14.0683525 L26.5903908,13.2187673 L27.4463948,11.7469481 L28.7681747,12.5040805 L28.7681747,12.5040805 Z M28.7681747,15.3820853 L28.7681747,16.1151661 L27.9090147,17.1331261 L26.4532747,15.9190405 L27.6750313,14.4712729 L28.7681747,15.3820649 L28.7681747,15.3820853 Z M28.7681747,17.5092273 L28.7681747,18.3431997 L28.4049346,17.7178921 L28.7681747,17.5092205 L28.7681747,17.5092273 Z M28.7681747,26.2828933 L28.7681747,27.1171853 L28.4042911,26.9085817 L28.7681747,26.2828933 Z M28.7681747,28.5103217 L28.7681747,29.2439941 L27.6750313,30.1548609 L26.4532747,28.7092693 L27.9096582,27.4951837 L28.7681747,28.5103217 L28.7681747,28.5103217 Z M28.7681747,31.7553225 L28.7681747,32.1229577 L27.4458197,32.8813821 L26.5903977,31.4080261 L28.0725436,30.5578017 L28.7681815,31.7553157 L28.7681747,31.7553225 Z M15.8158035,32.1229577 L15.8158035,31.7546833 L16.5114415,30.5578085 L17.9932656,31.4080329 L17.1379052,32.8801105 L15.8158035,32.1229645 L15.8158035,32.1229577 Z M15.8158035,29.2443137 L15.8158035,28.5096825 L16.6737381,27.4945445 L18.1310253,28.7082969 L16.9079816,30.1548609 L15.8158035,29.2443409 L15.8158035,29.2443137 Z M15.8158035,27.1175049 L15.8158035,26.2823153 L16.1800226,26.9085953 L15.8158035,27.1175185 L15.8158035,27.1175049 Z M15.8158035,18.3444781 L15.8158035,17.5089009 L16.1800226,17.7178921 L15.8158035,18.3444781 Z M15.8158035,16.1173693 L15.8158035,15.3827245 L16.9079816,14.4719325 L18.1303818,15.9190609 L16.6737176,17.1331261 L15.815783,16.1173489 L15.8158035,16.1173693 Z M15.8158035,12.8726881 L15.8158035,12.5044137 L17.1379052,11.7469481 L17.9932656,13.2187673 L16.5114141,14.0683661 L15.8157761,12.8727017 L15.8158035,12.8726881 Z M26.4366589,13.7612917 L24.6507187,13.1159717 L24.0003274,14.8904997 L25.786918,15.5370437 L26.4366247,13.7613053 L26.4366589,13.7612917 Z M25.1818624,10.9282553 L23.4972258,10.6324553 L23.1997436,12.3072953 L24.8843803,12.6014905 L25.1818624,10.9282281 L25.1818624,10.9282553 Z M19.401794,33.6981505 L21.0877178,33.9936241 L21.3845564,32.3197225 L19.6986463,32.0255341 L19.4018077,33.6981573 L19.401794,33.6981505 Z M16.9831395,34.8666761 L18.2338145,35.3189441 L18.6895403,34.0761489 L17.4391254,33.6254177 L16.9831669,34.8666761 L16.9831395,34.8666761 Z M19.9335882,31.5117261 L20.5836235,29.7359877 L18.796136,29.0903413 L18.1457447,30.8654405 L19.933554,31.5117261 L19.9335882,31.5117261 Z M25.8950815,34.0767269 L26.3498419,35.3199165 L27.600517,34.8676485 L27.1451746,33.6254177 L25.8950541,34.0767269 L25.8950815,34.0767269 Z M24.6507187,31.5120457 L26.4372408,30.8654405 L25.7869454,29.0903413 L23.9994579,29.7366269 L24.6507187,31.5120457 Z M18.6895129,10.5493661 L18.2337872,9.30841373 L16.9840774,9.76036213 L17.439098,11.0029125 L18.6895129,10.5493661 Z M20.5835892,14.8904861 L19.933554,13.1162709 L18.1457447,13.7612917 L18.796136,15.5370301 L20.5836235,14.8904861 L20.5835892,14.8904861 Z M21.6270222,35.9133661 L22.9575585,35.9133661 L22.9575585,34.5911741 L21.6270222,34.5911741 L21.6270222,35.9133661 Z M21.3408501,31.7578181 L23.2421423,31.7578181 L23.2421423,29.8696825 L21.3408706,29.8696825 L21.3408706,31.7578181 L21.3408501,31.7578181 Z M23.1997026,32.3197293 L23.4965411,33.9936309 L25.1814996,33.6987965 L24.8843392,32.0255341 L23.1997026,32.3197293 Z M21.3845221,12.3073293 L21.08704,10.6324893 L19.4011163,10.9282893 L19.6985984,12.6028301 L21.3845221,12.3073565 L21.3845221,12.3073293 Z M22.9575585,8.71336613 L21.6270222,8.71336613 L21.6270222,10.0355581 L22.9575585,10.0355581 L22.9575585,8.71336613 L22.9575585,8.71336613 Z M23.2421629,12.8695261 L21.3408706,12.8695261 L21.3408706,14.7586205 L23.2421629,14.7586205 L23.2421629,12.8695261 Z M15.815783,12.5043661 L15.815783,12.8726405 L15.6550953,12.5964857 L15.815783,12.5043661 Z M15.815783,15.3826769 L15.815783,16.1173217 L15.4516392,15.6859705 L15.815783,15.3826905 L15.815783,15.3826769 Z M15.815783,17.5088601 L15.815783,18.3444373 L15.2289931,19.3542373 L13.5820929,18.4094113 L14.5327732,16.7729981 L15.8157556,17.5089077 L15.815783,17.5088601 Z M15.815783,26.2822677 L15.815783,27.1174573 L14.5328006,27.8536865 L13.5821203,26.2176065 L15.2290137,25.2733449 L15.8158035,26.2822813 L15.815783,26.2822677 Z M15.815783,28.5096349 L15.815783,29.2442661 L15.4516392,28.9406665 L15.815783,28.5096349 Z M15.815783,31.7546357 L15.815783,32.1229101 L15.6550953,32.0311101 L15.815783,31.7546289 L15.815783,31.7546357 Z M12.9804946,32.3068909 L14.0006642,33.1562109 L14.8560245,32.1435685 L13.8364986,31.2948809 L12.9804946,32.3068841 L12.9804946,32.3068909 Z M12.7093842,29.1905325 L13.8100584,30.4924469 L15.1204257,29.3998433 L14.0207168,28.0970313 L12.7093705,29.1905325 L12.7093842,29.1905325 Z M10.1011234,28.5408537 L10.7662341,29.6853413 L11.9190766,29.0250613 L11.2536236,27.8799413 L10.1011029,28.5409013 L10.1011234,28.5408537 Z M13.1131402,26.5361661 L12.5276375,24.9388461 L10.9193841,25.5201373 L11.5049554,27.1168249 L13.1131334,26.5361729 L13.1131402,26.5361661 Z M10.0030239,23.7950385 L8.691972,24.0239877 L8.92312106,25.3264801 L10.2335636,25.0965585 L10.0029965,23.7950385 L10.0030239,23.7950385 Z M14.6349463,22.6952065 L12.7628942,23.0241429 L13.0934163,24.8838749 L14.9661118,24.5562237 L14.6349394,22.6952133 L14.6349463,22.6952065 Z M10.5015112,23.1640325 L12.2128481,23.1640461 L12.2122045,21.4639169 L10.5014906,21.4639169 L10.5014906,23.1640461 L10.5015112,23.1640325 Z M10.2335842,19.5307925 L8.9231416,19.3012041 L8.691972,20.6021733 L10.0030239,20.8323261 L10.233591,19.5308061 L10.2335842,19.5307925 Z M12.7628874,21.6032285 L14.6349394,21.9321649 L14.9661118,20.0721133 L13.0934094,19.7438229 L12.7628874,21.6032353 L12.7628874,21.6032285 Z M10.9194115,19.1071661 L12.5276648,19.6882057 L13.1131676,18.0902057 L11.5049896,17.5092341 L10.9194184,19.1072341 L10.9194115,19.1071661 Z M11.919104,15.6016777 L10.7662615,14.9404185 L10.1014931,16.0857969 L11.2537126,16.7460769 L11.9191656,15.6016369 L11.919104,15.6016777 Z M15.1204736,15.2268141 L13.8094217,14.1348497 L12.7094115,15.4364581 L14.0207578,16.5297009 L15.1204668,15.2268209 L15.1204736,15.2268141 Z M14.8560245,12.4831433 L14.0006642,11.4705009 L12.9811313,12.3207661 L13.8364917,13.3334085 L14.8560245,12.4831433 Z" id="Shape" fill="#F58220" fill-rule="nonzero"></path>
    </g>
</svg>