<?xml version="1.0" encoding="UTF-8"?>
<svg width="44px" height="44px" viewBox="0 0 44 44" version="1.1" xmlns="http://www.w3.org/2000/svg" xmlns:xlink="http://www.w3.org/1999/xlink">
    <!-- Generator: Sketch 54.1 (76490) - https://sketchapp.com -->
    <title>icons/banks/44/metallinvestbank-mono</title>
    <desc>Created with Sketch.</desc>
    <g id="icons/banks/44/metallinvestbank-mono" stroke="none" stroke-width="1" fill="none" fill-rule="evenodd">
        <path d="M22.9592285,8 C30.3481174,8.27222222 35.8251489,14.3544444 35.8718155,21.8094444 C35.9063656,29.4930665 29.7224514,35.7586912 22.0390377,35.825 C14.3493389,35.8724746 8.07072831,29.6895215 8.00014886,22 C7.96600857,14.5381877 13.5062781,8.37010487 20.9589844,8 L20.9745399,11.955 C15.6904466,12.304289 11.8923985,16.7044286 11.91626,22 C11.9388738,25.0133608 13.3225234,27.8549883 15.6807044,29.7311111 L19.4607044,19.7755556 L16.8357044,19.795 C16.8357044,19.795 16.3184822,19.69 16.0229266,19.935 L15.4007044,20.5338889 C15.4007044,20.5338889 15.3501489,18.8927778 15.4240377,18.7216667 C15.4979266,18.5116667 15.7079266,16.8666667 16.4390377,16.0266667 C17.1779266,15.2177778 18.35626,15.105 18.35626,15.105 L26.75626,15.0466667 L25.5429266,16.3105556 L28.4595933,29.4861111 C30.6785075,27.5776053 31.9468794,24.7905997 31.9284822,21.8638889 C31.8801214,16.5933076 28.1822123,12.261696 22.9203396,11.955 L22.9592285,8 Z M19.9915966,16 C19.4369748,16.008928 19,16.4553272 19,17.0177902 C19,17.5623972 19.4537815,18.0087964 20.0084034,17.9998684 C20.5546218,17.9998684 21,17.5445412 21,16.9999342 C21,16.4463992 20.5378151,16 19.9915966,16 Z" id="Combined-Shape" fill="#FFFFFF"></path>
    </g>
</svg>