<?xml version="1.0" encoding="UTF-8"?>
<svg width="44px" height="44px" viewBox="0 0 44 44" version="1.1" xmlns="http://www.w3.org/2000/svg" xmlns:xlink="http://www.w3.org/1999/xlink">
    <!-- Generator: Sketch 54.1 (76490) - https://sketchapp.com -->
    <title>icons/banks/44/metcom-mono</title>
    <desc>Created with Sketch.</desc>
    <g id="icons/banks/44/metcom-mono" stroke="none" stroke-width="1" fill="none" fill-rule="evenodd">
        <path d="M19.5200744,12.7511325 L19.5200744,11 L24.4622091,11 L24.4622091,16.7895274 L24.4622091,12.7993653 C24.4622091,12.3913018 28.6479547,11 32.2944951,12.7993653 C35.9410354,14.5987306 37.5478834,19.2506367 36.8344378,23.059887 C36.3588074,25.5993871 34.2035948,28.5044901 30.3688,31.7751958 L34.3464784,31.7751958 L34.3464784,33.997924 L26.6587134,33.997924 L26.6587134,31.7751958 C29.6696117,27.7240058 31.5482056,25.0421746 32.2944951,23.7297021 C33.4139293,21.7609932 32.6991002,16.115242 29.0399578,15.4369362 C25.3850521,14.7594158 24.4643399,16.7848283 24.4622128,16.7895193 L24.4622091,33.997924 L19.5200744,33.997924 L19.5200744,16.7566256 C19.3773974,16.4905957 18.333097,14.8137393 14.9600422,15.4390123 C11.3008998,16.1173181 10.5860707,21.7630693 11.7055049,23.7317781 C12.4517944,25.0442507 14.3303883,27.7260819 17.3412866,31.7772718 L17.3412866,34 L9.65352162,34 L9.65352162,31.7772718 L13.6312,31.7772718 C9.79640523,28.5065661 7.64119265,25.6014632 7.16556224,23.061963 C6.45211662,19.2527127 8.05896462,14.6008066 11.7055049,12.8014413 C15.2140907,11.070149 19.2218556,12.292674 19.5200744,12.7511325 Z" id="Path" fill="#FFFFFF"></path>
    </g>
</svg>