<?xml version="1.0" encoding="UTF-8"?>
<svg width="44px" height="44px" viewBox="0 0 44 44" version="1.1" xmlns="http://www.w3.org/2000/svg" xmlns:xlink="http://www.w3.org/1999/xlink">
    <!-- Generator: Sketch 54.1 (76490) - https://sketchapp.com -->
    <title>icons/banks/44/minbank-mono</title>
    <desc>Created with Sketch.</desc>
    <g id="icons/banks/44/minbank-mono" stroke="none" stroke-width="1" fill="none" fill-rule="evenodd">
        <path d="M20.3998458,10 L16.6664492,22.7818727 L16.6664492,10 L14.1063448,10.0064826 L14.1063448,29.7258103 L17.1998932,29.7258103 L22.2663662,12.912485 L31.3865156,12.912485 L31.3865156,31.1948379 L22.4798861,31.1948379 L21.653208,33.9726291 L34,33.9726291 L34,10 L20.3998458,10 Z M10,10 L10,34 L20.18597,33.9452581 L25.3599146,16.4714286 L27.4395991,16.4714286 L27.4395991,27.3121248 L23.5464184,27.285114 L22.7998102,29.9282113 L29.9726576,29.9552221 L29.9726576,14.422569 L23.4400142,14.422569 L18.3995196,31.1818727 L12.5462256,31.1541417 L12.5462256,10 L10,10 Z" id="Fill-1" fill="#FFFFFF"></path>
    </g>
</svg>