<?xml version="1.0" encoding="UTF-8"?>
<svg width="44px" height="44px" viewBox="0 0 44 44" version="1.1" xmlns="http://www.w3.org/2000/svg" xmlns:xlink="http://www.w3.org/1999/xlink">
    <!-- Generator: Sketch 54.1 (76490) - https://sketchapp.com -->
    <title>icons/banks/44/mosoblbank</title>
    <desc>Created with Sketch.</desc>
    <g id="icons/banks/44/mosoblbank" stroke="none" stroke-width="1" fill="none" fill-rule="evenodd">
        <path d="M22,37 C13.7157288,37 7,30.2842712 7,22 C7,13.7157288 13.7157288,7 22,7 C30.2842712,7 37,13.7157288 37,22 C37,30.2842712 30.2842712,37 22,37 Z M22,36 C29.7319865,36 36,29.7319865 36,22 C36,14.2680135 29.7319865,8 22,8 C14.2680135,8 8,14.2680135 8,22 C8,29.7319865 14.2680135,36 22,36 Z M21.0322581,20.6853027 L24.9233696,23.828149 L19.5806452,29 L12.6877284,29 L21.0322581,20.6853027 Z M29.7419355,21.0322581 L29.7419355,29 L21.0322581,29 L29.7419355,21.0322581 Z M14.2580645,16.6774194 L17.3821982,13.7741935 L20.5483871,16.6774194 L20.5483871,19.5806452 L14.2580645,25.8709677 L14.2580645,16.6774194 Z M22,16.6774194 L19.0967742,13.7741935 L25.8709677,13.7741935 L29.2580645,16.6774194 L29.2580645,20.0645161 L25.618991,22.9677419 L22,20.0645161 L22,16.6774194 Z" id="Combined-Shape" fill="#E31513" fill-rule="nonzero"></path>
    </g>
</svg>