<?xml version="1.0" encoding="UTF-8"?>
<svg width="44px" height="44px" viewBox="0 0 44 44" version="1.1" xmlns="http://www.w3.org/2000/svg" xmlns:xlink="http://www.w3.org/1999/xlink">
    <!-- Generator: Sketch 54.1 (76490) - https://sketchapp.com -->
    <title>icons/banks/44/mts</title>
    <desc>Created with Sketch.</desc>
    <g id="icons/banks/44/mts" stroke="none" stroke-width="1" fill="none" fill-rule="evenodd">
        <path d="M32.3862434,9 C33.8077601,9 35,10.1901408 35,11.6091549 L35,32.3908451 C35,33.8556338 33.8077601,35 32.3862434,35 L11.6137566,35 C10.1463845,35 9,33.8098592 9,32.3908451 L9,11.6091549 C9,10.1443662 10.1922399,9 11.6137566,9 L32.3862434,9 Z M21.9770723,31.6126761 C26.8377425,31.6126761 28.9929453,27.7676056 28.9929453,23.9225352 C28.9929453,18.5211268 25.2786596,12.3873239 21.9770723,12.3873239 C18.7213404,12.3873239 14.9611993,18.5211268 14.9611993,23.9225352 C14.9611993,27.7676056 17.1164021,31.6126761 21.9770723,31.6126761 Z" id="Combined-Shape" fill="#ED1C24"></path>
    </g>
</svg>