<?xml version="1.0" encoding="UTF-8"?>
<svg width="44px" height="44px" viewBox="0 0 44 44" version="1.1" xmlns="http://www.w3.org/2000/svg" xmlns:xlink="http://www.w3.org/1999/xlink">
    <!-- Generator: Sketch 54.1 (76490) - https://sketchapp.com -->
    <title>icons/banks/44/neyva-mono</title>
    <desc>Created with Sketch.</desc>
    <g id="icons/banks/44/neyva-mono" stroke="none" stroke-width="1" fill="none" fill-rule="evenodd">
        <path d="M36,22 C36,29.7583333 29.8032787,36 22,36 C14.1967213,36 8,29.7583333 8,22 C8,14.2416667 14.1967213,8 22,8 C29.6885246,8 36,14.2416667 36,22 Z M15.2,27.8333333 C15.8285714,27.8333333 16.5142857,27.4833333 16.8571429,26.9 L19.7714286,21.9416667 L22.6857143,26.9 C23.0285714,27.4833333 23.6,27.8333333 24.2857143,27.8333333 C24.9714286,27.8333333 25.5428571,27.4833333 25.8857143,26.9 L30.4,19.025 C30.9142857,18.15 30.6285714,16.9833333 29.7142857,16.4583333 C28.8571429,15.9916667 27.6571429,16.225 27.1428571,17.1583333 L24.2285714,22.1166667 L21.3142857,17.1583333 C20.9714286,16.575 20.4,16.225 19.7142857,16.225 C19.0285714,16.225 18.4571429,16.575 18.1142857,17.1583333 L13.6,25.0333333 C13.0857143,25.9083333 13.3714286,27.075 14.2857143,27.6 C14.5142857,27.775 14.8571429,27.8333333 15.2,27.8333333 Z" id="Combined-Shape" fill="#FFFFFF"></path>
    </g>
</svg>