<?xml version="1.0" encoding="UTF-8"?>
<svg width="44px" height="44px" viewBox="0 0 44 44" version="1.1" xmlns="http://www.w3.org/2000/svg" xmlns:xlink="http://www.w3.org/1999/xlink">
    <!-- Generator: Sketch 54.1 (76490) - https://sketchapp.com -->
    <title>icons/banks/44/novikom</title>
    <desc>Created with Sketch.</desc>
    <g id="icons/banks/44/novikom" stroke="none" stroke-width="1" fill="none" fill-rule="evenodd">
        <path d="M29.944231,30.114496 C31.731052,28.0735924 33.4183547,25.9439553 35,23.7333333 L35,33.124672 C34.8765032,34.175904 33.9607269,35 32.8483058,35 L15.0666667,35 C16.4403311,33.7323093 17.9213427,31.9937067 19.2655578,29.8825067 C20.6183228,27.7742187 20.8463169,27.1394027 21.7905924,25.0427627 C22.1705825,24.89328 23.2763539,24.5283093 24.0942827,24.305056 C23.1015584,26.3531627 22.0660852,28.9128107 21.9644379,30.4105493 C21.7896424,32.499424 22.6522201,33.7323093 24.0952326,33.87888 C25.5410952,34.0283627 27.4856948,32.9109867 29.944231,30.114496 Z M18.5333333,23.7333333 C18.5333333,23.7333333 16.7496734,26.9958793 15.4962381,28.5148107 C14.7944703,29.3262692 12.1267779,33.4754775 10.2739158,32.1357354 C8.49512933,30.4487559 13.0653923,26.95967 13.9659944,26.3589679 C15.5235291,25.1872738 18.5333333,23.7342618 18.5333333,23.7342618 L18.5333333,23.7333333 Z M11.2410147,11.6027611 C9.59443863,12.8912566 9,14.2 9,14.2 L9,11.0008496 C9,9.9019469 9.97996912,9 11.1773926,9 L28.0666667,9 C28.0666667,9 27.0819496,9.07362832 26.1295184,10.0630088 C25.5930043,10.619823 23.8571675,12.9437168 21.9741455,12.4651327 C20.0892242,11.9902301 20.460511,10.4863717 18.5907831,9.98661947 C16.7267527,9.48778761 13.2275412,10.0436814 11.2410147,11.6027611 Z M29.3563772,10.6673797 C30.2632351,9.99568648 29.9751288,9.16594775 29.3157716,9 L32.0131421,9 C33.0224807,9 33.8722975,9.66774212 34.1333333,10.5705769 C32.6183586,10.4194459 30.095012,11.4003156 28.103405,13.9053364 C26.0827942,16.4508563 24.3783267,19.5584254 24.3783267,19.5584254 C24.3783267,19.5584254 22.815012,20.017745 22,20.2666667 C22.2542683,19.7263487 23.3921912,17.4949442 25.3083878,14.7153194 C26.9277769,12.3673564 28.5800372,11.238319 29.3563772,10.6654042 L29.3563772,10.6673797 Z M18.8134224,21.1540409 C15.7804808,22.0608393 11.0463917,24.4614688 9,27.2 L9,18.0728353 C9.7454575,19.1772204 10.7242924,19.8387059 12.0030461,20.1393812 C13.6135429,20.4639196 15.2211466,20.2252884 16.66095,19.4425782 C17.3130094,19.0930571 17.9095871,18.650513 18.4315321,18.1291523 C19.5048752,17.0744026 19.1143056,15.8058393 18.2386582,15.5500267 C17.3562603,15.2980322 16.5124371,15.8745651 16.0736491,16.5618228 C15.6329323,17.2509896 15.0475601,18.1005166 13.1689686,18.1005166 C12.2238867,18.1005166 11.107147,17.5125294 10.8197649,16.1761949 C10.3462596,14.1401938 12.9789879,12.0478758 15.3609801,11.6861109 C19.2088138,11.1038509 18.2386582,13.6190234 20.0767462,14.8866321 C20.5396435,15.2235793 21.7576419,15.6273432 22.8666667,14.8770868 C22.2784014,15.7017961 19.7768273,19.4874409 18.8143867,21.1549954 L18.8134224,21.1540409 Z M29.9981705,14.0036314 C31.2010935,12.7791891 33.1512558,11.9475964 33.9718939,12.8416045 C34.7874348,13.7383661 32.3275594,15.5126142 30.7443905,16.3983613 C29.169377,17.2795192 27.6392183,18.0431893 26.3333333,18.5333333 C27.1468354,17.1702923 29.1367554,14.8801998 29.9981705,14.0045492 L29.9981705,14.0036314 Z M31.7919459,18.5243785 C32.6854611,17.9183309 34.1265531,16.8059651 35,15.9333333 L35,19.5293434 C34.3119455,20.3655356 30.3556322,24.8092451 28.7148134,26.325323 C25.9119469,28.9077377 24.030309,28.5184096 24.7565888,25.815169 C25.197102,24.211099 25.8191245,22.6628912 26.6105134,21.2007689 C27.5537214,20.8382911 29.9380213,19.7853793 31.7919459,18.5253374 L31.7919459,18.5243785 Z" id="Shape" fill="#005191" fill-rule="nonzero"></path>
    </g>
</svg>