<?xml version="1.0" encoding="UTF-8"?>
<svg width="44px" height="44px" viewBox="0 0 44 44" version="1.1" xmlns="http://www.w3.org/2000/svg" xmlns:xlink="http://www.w3.org/1999/xlink">
    <!-- Generator: Sketch 54.1 (76490) - https://sketchapp.com -->
    <title>icons/banks/44/open-mono</title>
    <desc>Created with Sketch.</desc>
    <g id="icons/banks/44/open-mono" stroke="none" stroke-width="1" fill="none" fill-rule="evenodd">
        <path d="M21.9973674,7 C13.7133062,7.00145387 6.99884302,13.7180335 7,22.0020948 C7.00115698,30.2861561 13.717496,37.00086 22.0015573,36.9999999 C30.2856186,36.9991398 37.0005632,30.2830414 37,21.9989801 C36.9987823,13.7143502 30.2819974,6.99920051 21.9973674,7 L21.9973674,7 Z M18.8393874,29.3602751 C19.1630216,29.5404017 19.3945601,29.849908 19.4759799,30.2112326 C19.5545809,30.5566875 19.4970736,30.9191446 19.3154049,31.2233051 C19.0857473,31.5967618 18.6711907,31.8158057 18.2332599,31.7950901 C17.9803331,31.7917171 17.7309633,31.7350226 17.5014399,31.6287101 L16.8000399,31.2965501 C13.6894404,29.5893186 11.7801003,26.2998693 11.8404548,22.7520776 L11.8404548,21.2474876 C11.7849992,17.6947442 13.6988881,14.4026591 16.8137049,12.6929875 C16.8436374,12.68278 17.5014549,12.3696925 17.5014549,12.3696925 C17.7299306,12.2626534 17.978903,12.2064388 18.2312049,12.204925 C18.6692839,12.186884 19.083301,12.4055069 19.3154424,12.77746 C19.4973308,13.0810666 19.5548625,13.4432154 19.4760174,13.7882425 C19.3933071,14.158577 19.1530549,14.4743543 18.8181999,14.65285 C17.0057683,15.5054719 15.8571893,17.3369161 15.8788299,19.3397651 L15.8788299,24.6627926 C15.8598465,26.6734985 17.0172655,28.5099239 18.8394249,29.3602376 L18.8393874,29.3602751 Z M32.154865,22.7520401 C32.215642,26.2998142 30.3064102,29.5893953 27.1957599,31.2965126 L26.4938724,31.6286726 C26.2647425,31.7356392 26.0153864,31.7923677 25.7625324,31.7950526 C25.3249175,31.815002 24.9108863,31.5961265 24.6809274,31.2232676 C24.5013271,30.9183483 24.4443138,30.5565714 24.5214324,30.2111951 C24.6018095,29.850151 24.8324468,29.5405691 25.1553924,29.3602376 C26.9785101,28.5103027 28.1375591,26.6742258 28.1207199,24.6627926 L28.1207199,19.3397651 C28.1414123,17.3364424 26.9918501,15.5050706 25.1787174,14.65285 C24.8444801,14.4737503 24.6046009,14.1582078 24.5214324,13.7882425 C24.4440714,13.4432936 24.5011084,13.0818276 24.6809274,12.77746 C24.9122546,12.4059798 25.3252668,12.1873566 25.7625324,12.204925 C26.0154486,12.2055252 26.2651337,12.2617781 26.4938724,12.3696925 C26.4938724,12.3696925 27.1532499,12.68278 27.1805499,12.6929875 C30.2976756,14.40043 32.2127389,17.69383 32.154865,21.2474876 L32.154865,22.7520401 Z" id="Shape" fill="#FFFFFF" fill-rule="nonzero"></path>
    </g>
</svg>