<?xml version="1.0" encoding="UTF-8"?>
<svg width="44px" height="44px" viewBox="0 0 44 44" version="1.1" xmlns="http://www.w3.org/2000/svg" xmlns:xlink="http://www.w3.org/1999/xlink">
    <!-- Generator: Sketch 54.1 (76490) - https://sketchapp.com -->
    <title>icons/banks/44/otp-mono</title>
    <desc>Created with Sketch.</desc>
    <g id="icons/banks/44/otp-mono" stroke="none" stroke-width="1" fill="none" fill-rule="evenodd">
        <path d="M8,21.955963 C7.99958337,14.256056 14.2358822,8.01087334 21.935782,8.000329 L21.935782,13.044298 C18.328916,13.0509142 15.0815409,15.2305919 13.7090995,18.5661475 C12.3366582,21.901703 13.1096946,25.7356116 15.667458,28.2787145 C18.2252215,30.8218173 22.0635104,31.5728027 25.3911217,30.1812105 C28.7187331,28.7896182 30.8797081,25.5297675 30.865591,21.922923 L35.911394,21.928222 C35.921388,26.917462 33.2671332,31.532513 28.9496383,34.0328838 C24.6321435,36.5332546 19.30826,36.5385459 14.9858034,34.0467623 C10.6633469,31.5549788 7.99992355,26.945213 8,21.955963" id="Shape" fill-opacity="0.8" fill="#FFFFFF"></path>
        <path d="M15.796803,21.955963 C15.7956053,19.4516511 17.3033104,17.193287 19.616697,16.2342133 C21.9300835,15.2751397 24.5934242,15.80429 26.3644877,17.5748588 C28.1355512,19.3454275 28.6654455,22.0086202 27.7070182,24.3222746 C26.748591,26.635929 24.4906482,28.1442651 21.986336,28.143767 C18.568732,28.1435121 15.7980127,25.3735668 15.796803,21.955963" id="Shape" fill="#FFFFFF" fill-rule="nonzero"></path>
        <path d="M26.280843,14.114038 C26.2834594,12.1555287 27.8727378,10.5696843 29.8312482,10.5713043 C31.7897585,10.5729243 33.3764113,12.1613957 33.3757877,14.1199066 C33.375164,16.0784176 31.7875,17.6658783 29.828989,17.666251 C28.887192,17.6664637 27.983967,17.2921521 27.3183975,16.6258198 C26.652828,15.9594874 26.2795514,15.0558341 26.280843,14.114038" id="Shape" fill-opacity="0.8" fill="#FFFFFF" fill-rule="nonzero"></path>
    </g>
</svg>