<?xml version="1.0" encoding="UTF-8"?>
<svg width="44px" height="44px" viewBox="0 0 44 44" version="1.1" xmlns="http://www.w3.org/2000/svg" xmlns:xlink="http://www.w3.org/1999/xlink">
    <!-- Generator: Sketch 54.1 (76490) - https://sketchapp.com -->
    <title>icons/banks/44/peresvet-mono</title>
    <desc>Created with Sketch.</desc>
    <g id="icons/banks/44/peresvet-mono" stroke="none" stroke-width="1" fill="none" fill-rule="evenodd">
        <path d="M22.388601,7 C22.388601,11.4072165 28.0522461,11.4072165 28.0522461,15.8917526 L28.0522461,19.1391753 L15.0004883,21.8453608 L15.0004883,15.8917526 C15.0004883,11.4072165 21.5336788,11.4072165 21.5336788,7 C13.4507772,7.23195876 7,13.8041237 7,21.9226804 C7,26.4072165 8.94300518,30.3505155 11.9740933,33.056701 C14.0725389,32.5927835 15.0004883,30.7371134 15.0004883,28.5721649 L15.0004883,23.5222168 L25.032959,21.4345879 L25.032959,25.7886598 C25.032959,28.8814433 23.3212435,31.5876289 20.2901554,32.2061856 L12.8290155,33.8298969 C15.3937824,35.7628866 18.5025907,37 22,37 C30.238342,37 37,30.2731959 37,22 C36.9222798,13.8041237 30.4715026,7.23195876 22.388601,7 Z" id="Path" fill="#FFFFFF"></path>
    </g>
</svg>