<?xml version="1.0" encoding="UTF-8"?>
<svg width="44px" height="44px" viewBox="0 0 44 44" version="1.1" xmlns="http://www.w3.org/2000/svg" xmlns:xlink="http://www.w3.org/1999/xlink">
    <!-- Generator: Sketch 54.1 (76490) - https://sketchapp.com -->
    <title>icons/banks/44/plus-bank-mono</title>
    <desc>Created with Sketch.</desc>
    <g id="icons/banks/44/plus-bank-mono" stroke="none" stroke-width="1" fill="none" fill-rule="evenodd">
        <path d="M17.4619545,12.0770031 C16.0369545,12.6606583 14.1659248,14.3659079 12.7750157,15.0665662 C12.0945611,15.4094126 11.4245676,15.4202966 10.9009312,15.0665662 C9.87684031,14.3754314 10.5565,13.0728903 11.3146818,12.2620313 C15.0292273,8.28800627 21.6919545,6.93430721 27.0346818,9.08662069 C32.4196818,11.2566207 36.1751364,16.6428464 36.1383182,22.0807712 C36.1287727,23.5011348 35.5042273,24.2017931 34.0778636,24.1990721 C31.3546818,24.1936301 28.6315,24.2004326 25.9083182,24.1963511 C24.7942273,24.1949906 23.9283182,23.8181317 23.9569545,22.5419812 C23.9869545,21.2358997 24.9169545,21.0005329 26.0065,21.0073354 C28.2155909,21.0195799 30.4246818,21.0114169 32.6405909,21.0114169 C32.2683182,14.0129969 24.1669545,9.32742947 17.4619545,12.0770031 Z M10.5394545,24.1986639 C11.1026364,32.1154226 20.7408182,36.4771906 27.5835455,32.2052157 C28.2258182,31.8038677 28.8244545,31.3222502 29.3971818,30.8243066 C30.2562727,30.0746702 31.2858182,29.7563129 31.8953636,30.8025386 C32.2130909,31.3480997 31.999,32.6854727 31.5230909,33.1303567 C27.4021818,36.9860182 22.5080909,38.0131969 17.149,36.4010025 C11.3999091,34.671805 7.41536364,29.452921 7.01309091,23.4830401 C6.90536364,21.8939743 7.459,20.9824382 9.199,21.0014853 C11.9208182,21.0354978 14.644,21.0205323 17.3671818,21.0110088 C18.484,21.0069273 19.3594545,21.3320871 19.3335455,22.6232031 C19.3076364,23.9088771 18.3912727,24.1986639 17.3017273,24.1986639 C15.0776364,24.1973034 12.8549091,24.1986639 10.5394545,24.1986639 Z M21.4642857,25.1724138 C22.3518862,25.1724138 23.0714286,25.8919562 23.0714286,26.7795567 L23.0714286,29.979064 C23.0714286,30.8666645 22.3518862,31.5862069 21.4642857,31.5862069 C20.5766852,31.5862069 19.8571429,30.8666645 19.8571429,29.979064 L19.8571429,26.7795567 C19.8571429,25.8919562 20.5766852,25.1724138 21.4642857,25.1724138 Z M21.4642857,13.4137931 C22.3518862,13.4137931 23.0714286,14.1333355 23.0714286,15.020936 L23.0714286,18.2204433 C23.0714286,19.1080438 22.3518862,19.8275862 21.4642857,19.8275862 C20.5766852,19.8275862 19.8571429,19.1080438 19.8571429,18.2204433 L19.8571429,15.020936 C19.8571429,14.1333355 20.5766852,13.4137931 21.4642857,13.4137931 Z" id="Combined-Shape" fill="#FFFFFF"></path>
    </g>
</svg>