<?xml version="1.0" encoding="UTF-8"?>
<svg width="44px" height="44px" viewBox="0 0 44 44" version="1.1" xmlns="http://www.w3.org/2000/svg" xmlns:xlink="http://www.w3.org/1999/xlink">
    <!-- Generator: Sketch 54.1 (76490) - https://sketchapp.com -->
    <title>icons/banks/44/pochta</title>
    <desc>Created with Sketch.</desc>
    <g id="icons/banks/44/pochta" stroke="none" stroke-width="1" fill="none" fill-rule="evenodd">
        <polygon id="Fill-354" fill="#CC003D" fill-rule="nonzero" points="9 35 35 35 35 9 9 9"></polygon>
        <path d="M32.019792,16.9225032 C32.0486282,17.1645619 32.4087824,20.9531971 32.4087824,20.9531971 L31.3624128,20.9531971 C31.3624128,20.9531971 31.1707711,18.386899 31.1590564,18.2753854 C31.0537737,18.2753854 29.9895318,18.274196 29.8785417,18.274196 C29.873135,18.395374 29.779567,20.9531971 29.779567,20.9531971 L28.7660888,20.9531971 L28.9551772,15.4381838 L30.3459311,15.4381838 C31.4396103,15.4381838 31.9026443,15.9462394 32.019792,16.9225032 Z M19.722089,24.4967849 C19.7510756,24.7389924 20.1110795,28.5274788 20.1110795,28.5274788 L19.0647101,28.5274788 C19.0647101,28.5274788 18.8732186,25.9611807 18.8615038,25.8496672 C18.7562211,25.8496672 17.6921292,25.8484777 17.580989,25.8484777 C17.575432,25.9696557 17.481864,28.5274788 17.481864,28.5274788 L16.468386,28.5274788 L16.6574745,23.0124655 L18.0483784,23.0124655 C19.1419074,23.0124655 19.6052417,23.5206698 19.722089,24.4967849 Z M12.1173091,15.4381689 L15.4369453,15.4381689 L15.4369453,20.9518441 L14.4110016,20.9518441 L14.4110016,16.3551075 L13.1416008,16.3551075 L13.1416008,20.9518441 L12.1173091,20.9518441 L12.1173091,15.4381689 Z M22.9532486,17.3583725 L22.9532486,15.4381094 L23.9784414,15.4381094 L23.9784414,20.9519333 L22.9532486,20.9519333 L22.9532486,18.2891387 L22.2038036,18.2891387 C21.8027979,18.2891387 21.4572121,18.1675147 21.1750062,17.9260507 C20.8887452,17.6822077 20.7436623,17.3753225 20.7436623,17.0123831 L20.7436623,15.4381094 L21.7703569,15.4381094 L21.7703569,16.9094933 C21.7703569,17.0358753 21.8080545,17.1328177 21.8849515,17.2043351 C21.993989,17.3073736 22.1650547,17.3583725 22.3955954,17.3583725 L22.9532486,17.3583725 Z M25.1133927,15.4381689 L27.852847,15.4381689 L27.852847,16.3551075 L27.0015736,16.3551075 L27.0015736,20.9518441 L26.988958,20.9518441 L25.977282,20.9518441 L25.9646663,20.9518441 L25.9646663,16.3551075 L25.1133927,16.3551075 L25.1133927,15.4381689 Z M23.6094411,23.0123019 L24.6320807,23.0123019 L24.6320807,28.5283561 L23.6094411,28.5283561 L23.6094411,25.6917491 L22.2032178,25.6917491 L22.2032178,28.5283561 L21.1805782,28.5283561 L21.1805782,23.0123019 L22.2032178,23.0123019 L22.2032178,24.7748105 L23.6094411,24.7748105 L23.6094411,23.0123019 Z M13.6156586,24.8171113 C15.2235863,24.8171113 15.4623874,26.0598181 15.4623874,26.657382 C15.4623874,27.1623153 15.2222345,28.5263488 13.6721298,28.5263488 L12.1867567,28.5263488 L12.1173692,28.5263488 L12.1173692,23.9294636 L12.1173692,23.0125249 L14.9799791,23.0125249 L14.9799791,23.9294636 L13.1416609,23.9294636 L13.1416609,24.8276679 C13.2823884,24.8212745 13.4391861,24.8171113 13.6156586,24.8171113 Z M19.9904474,18.0004376 C19.9904474,18.0016271 19.9928505,18.1775211 19.9928505,18.1788593 L19.9927003,18.1787106 C19.9922497,18.6701136 19.93698,19.1466481 19.8288437,19.5304033 C19.5475389,20.6602585 18.8975192,21.059923 18.2189636,21.0719664 C18.2144578,21.0721151 18.2095016,21.0725612 18.2049959,21.0725612 C18.2019921,21.0725612 18.1989884,21.0724125 18.1959845,21.0724125 C18.1929808,21.0724125 18.189977,21.0725612 18.1869732,21.0725612 C18.1826177,21.0725612 18.1776615,21.0721151 18.1730056,21.0719664 C17.4944499,21.059923 16.8444302,20.6602585 16.5631255,19.5304033 C16.4551393,19.1466481 16.3998696,18.6701136 16.3992688,18.1787106 L16.3991187,18.1788593 C16.3991187,18.1775211 16.4013715,18.0016271 16.4015217,18.0004376 C16.419244,17.2116652 16.5559164,16.6465147 16.7679838,16.2450659 C17.1021552,15.558886 17.6341261,15.3027022 18.1835188,15.2961601 C18.1847203,15.2961601 18.1857717,15.295714 18.1869732,15.295714 C18.189977,15.295714 18.1929808,15.2958627 18.1959845,15.2958627 C18.1989884,15.2958627 18.2019921,15.295714 18.2049959,15.295714 C18.2061974,15.295714 18.2072488,15.2961601 18.2084503,15.2961601 C18.7578431,15.3027022 19.2899641,15.558886 19.6239853,16.2450659 C19.8359026,16.6465147 19.9727251,17.2116652 19.9904474,18.0004376 Z M17.4219084,18.2048791 C17.4306194,19.6625841 17.8030891,20.1603805 18.1959845,20.1679634 C18.58888,20.1603805 18.9614999,19.6625841 18.9700607,18.2048791 L18.9700607,18.2044331 C18.9614999,16.711936 18.58888,16.2208304 18.1959845,16.2135448 C17.8030891,16.2208304 17.4304692,16.711936 17.4219084,18.2044331 L17.4219084,18.2048791 Z M29.8964141,17.3582981 L31.0554256,17.3582981 C30.9860381,16.4858162 30.8607805,16.3552711 30.1144891,16.3552711 L29.9214958,16.3552711 C29.9196936,16.4612833 29.898667,17.2463385 29.8964141,17.3582981 Z M17.5988616,24.9325799 L18.7578731,24.9325799 C18.6883355,24.0602467 18.5518133,23.9184014 17.8055222,23.9184014 L17.6239432,23.9297015 C17.6221409,24.0357137 17.6011144,24.8206203 17.5988616,24.9325799 Z M13.4916022,27.6746828 C13.7691522,27.6746828 14.4439531,27.6178852 14.4439531,26.682361 C14.4439531,25.6619379 13.8298287,25.6919722 13.3101734,25.6919722 C13.2221624,25.6919722 13.1416609,25.7107064 13.1416609,25.7107064 L13.1416609,26.462605 L13.1416609,26.5754567 L13.1416609,27.651934 C13.1416609,27.651934 13.3920266,27.6746828 13.4916022,27.6746828 Z M29.735231,28.5267057 L28.6346432,28.5267057 L27.6276233,25.7278647 C27.5510264,25.7284594 27.0086929,25.7277159 27.0086929,25.7277159 L27.0086929,28.5283412 L25.9834999,28.5283412 L25.9834999,23.0122871 L27.0086929,23.0122871 C27.0086929,23.0122871 27.0079419,24.7912996 27.0086929,24.835459 L27.429073,24.835459 C27.9738098,24.835459 28.1306076,24.3491113 28.1773162,23.8218753 C28.2088563,23.4662215 28.2306335,23.1163663 28.2367912,23.0122871 L29.245163,23.0122871 C29.245163,23.0122871 29.1320704,24.0346431 29.0461621,24.3844983 C28.9575502,24.744464 28.7582489,25.1059165 28.5023261,25.2945974 L29.735231,28.5267057 Z" id="Combined-Shape" fill="#FFFFFF" fill-rule="nonzero"></path>
    </g>
</svg>