<?xml version="1.0" encoding="UTF-8"?>
<svg width="44px" height="44px" viewBox="0 0 44 44" version="1.1" xmlns="http://www.w3.org/2000/svg" xmlns:xlink="http://www.w3.org/1999/xlink">
    <!-- Generator: Sketch 54.1 (76490) - https://sketchapp.com -->
    <title>icons/banks/44/poidem</title>
    <desc>Created with Sketch.</desc>
    <g id="icons/banks/44/poidem" stroke="none" stroke-width="1" fill="none" fill-rule="evenodd">
        <path d="M33.6235741,35.972797 C33.6007605,35.9498461 32.7965779,35.8809937 32.2091255,35.8580429 C31.0114068,35.8064035 30.2129278,35.7662396 29.8707224,35.7432888 C29.6653992,35.7318134 29.28327,35.7031248 29.0152091,35.6859117 C28.5589354,35.6572232 28.3193916,35.6400101 27.5038023,35.5711576 C27.3155894,35.5539445 27.0019011,35.5309937 26.8022814,35.5137806 C26.608365,35.5023052 26.3288973,35.4736166 26.1749049,35.4621412 C26.026616,35.4449281 25.7015209,35.4162396 25.4505703,35.3990265 C25.1996198,35.3818134 24.891635,35.3588625 24.7661597,35.3416494 C24.6406844,35.330174 24.3326996,35.3014855 24.0874525,35.2842724 C23.8365019,35.2670593 23.6197719,35.2441084 23.6026616,35.232633 C23.5855513,35.2211576 23.391635,35.1924691 23.1692015,35.175256 C22.9524715,35.1580429 22.7186312,35.1293543 22.6501901,35.1178789 C22.5874525,35.1064035 22.3821293,35.077715 22.1939163,35.0605019 C21.7319392,35.0088625 20.4657795,34.8539445 20.2889734,34.825256 C20.2091255,34.8137806 19.7186312,34.7334527 19.1939163,34.6531248 C18.6692015,34.5785347 18.1273764,34.4867314 17.9961977,34.4580429 C17.8593156,34.4293543 17.648289,34.3891904 17.5228137,34.3719773 C17.3288973,34.3432888 17.0152091,34.280174 16.3250951,34.1424691 C16.2623574,34.125256 16.0855513,34.085092 15.9258555,34.0506658 C15.7718631,34.0162396 15.6007605,33.9760757 15.5551331,33.9646002 C14.2775665,33.6891904 12.6121673,33.1613216 12.0361217,32.8514855 C11.5912548,32.6105019 11.1292776,32.2031248 10.986692,31.9162396 C10.6159696,31.1818134 10.918251,30.2809937 11.6596958,29.9137806 C11.9106464,29.7875511 12.0019011,29.7760757 12.7604563,29.7818134 C13.5247148,29.7875511 13.6844106,29.8047642 14.8136882,30.0514855 C15.486692,30.2006658 16.4106464,30.3842724 16.8669202,30.4646002 C17.3231939,30.5449281 17.756654,30.625256 17.8365019,30.6367314 C17.9163498,30.6539445 18.0931559,30.6768953 18.2357414,30.6941084 C18.378327,30.7113216 18.5323194,30.7400101 18.5779468,30.7514855 C18.6634981,30.780174 19.986692,30.975256 20.4885932,31.0383707 C20.648289,31.0613216 20.8136882,31.0842724 20.865019,31.1014855 C20.9106464,31.1129609 21.1045627,31.1416494 21.2927757,31.1531248 C21.4752852,31.170338 21.9372624,31.2219773 22.3136882,31.2678789 C23.1292776,31.3654199 23.460076,31.3998461 23.8821293,31.4342724 C25.4334601,31.5605019 26.3346008,31.5891904 26.3346008,31.5088625 C26.3346008,31.4572232 25.878327,30.2064035 25.3536122,28.8293543 C25.2281369,28.4965675 25.0513308,28.0260757 24.960076,27.785092 C24.526616,26.620338 24.4353612,26.385092 24.3897338,26.2760757 C24.3612167,26.2129609 24.2015209,25.7883707 24.0304183,25.3293543 C23.8593156,24.870338 23.5114068,23.9695183 23.2547529,23.3211576 C22.9980989,22.672797 22.7015209,21.9154199 22.5874525,21.6285347 C22.4790875,21.3473871 22.365019,21.0605019 22.3422053,20.9973871 C22.3136882,20.9342724 22.0969582,20.4064035 21.8574144,19.8211576 C21.6178707,19.2359117 21.4011407,18.7080429 21.3726236,18.6449281 C21.3441065,18.5818134 21.1901141,18.2088625 21.0247148,17.8129609 C20.6311787,16.8490265 20.3288973,16.1891904 19.5646388,14.6572232 C18.851711,13.2113216 18.5665399,12.8096822 17.8593156,12.2473871 C16.5418251,11.1916494 14.8878327,10.9105019 13.21673,11.4555839 C11.7623574,11.9260757 10.6444867,13.0678789 9.92015209,14.835092 C9.74334601,15.2654199 9.68060837,15.477715 9.53231939,16.1662396 C9.51520913,16.2580429 9.49239544,16.5564035 9.48098859,16.8318134 C9.44106464,17.8416494 9.74904943,18.6678789 10.3992395,19.327715 C10.5988593,19.522797 11.1520913,19.8555839 11.3859316,19.9129609 C11.4372624,19.9244363 11.6711027,19.9875511 11.904943,20.0506658 C12.5323194,20.222797 12.5779468,20.2285347 13.0171103,20.2514855 C13.3536122,20.2686986 13.8269962,20.2170593 14.0437262,20.1482068 C14.0779468,20.1367314 14.2091255,20.0965675 14.3460076,20.0564035 C14.4771863,20.0219773 14.5855513,19.9760757 14.5855513,19.9588625 C14.5855513,19.9014855 14.3802281,19.6146002 14.2775665,19.5285347 C14.2205323,19.482633 13.9638783,19.3965675 13.7072243,19.3391904 C12.6634981,19.1096822 12.2927757,18.9432888 12.081749,18.5990265 C11.6425856,17.8818134 12.3098859,16.6941084 13.3878327,16.275256 C15.4923954,15.4605019 17.973384,16.9408298 18.5494297,19.3621412 C18.7376426,20.1367314 18.6520913,21.1178789 18.3498099,21.7146002 C18.1673004,22.070338 17.8821293,22.3572232 17.3631179,22.7072232 C16.4505703,23.3211576 15.6749049,23.5105019 14.1007605,23.5105019 C13.2851711,23.5047642 13.0228137,23.4818134 12.4467681,23.3613216 C10.8098859,23.0170593 9.44106464,22.3113216 8.57984791,21.370338 C7.80418251,20.5268953 7.46197719,19.7924691 7.17110266,18.3580429 C7,17.4973871 6.95437262,16.5105019 7.06273764,15.9482068 C7.09125475,15.7875511 7.14258555,15.535092 7.17110266,15.3744363 C7.19961977,15.2195183 7.2338403,15.0244363 7.25095057,14.9441084 C7.39923954,14.0375511 8.22623574,12.075256 8.71673004,11.4441084 C9.11596958,10.9391904 9.74334601,10.3539445 10.5076046,9.79164943 C11.5,9.0629609 12.9828897,8.40886254 14.2718631,8.13919041 C15.2984791,7.92115762 17.391635,8.01869861 18.1958175,8.32279697 C19.2452471,8.71869861 20.0323194,9.34410844 20.9847909,10.5318134 C22.1711027,12.0236166 23.6939163,15.070338 24.8174905,18.2088625 C24.9315589,18.530174 25.8098859,20.8941084 25.9923954,21.370338 C26.0836502,21.6055839 26.2889734,22.1908298 26.4543726,22.6613216 C26.6197719,23.1375511 26.7851711,23.5621412 26.8307985,23.6080429 C26.973384,23.7629609 27.013308,23.5965675 26.9277567,23.235092 C26.8821293,23.0457478 26.8365019,22.827715 26.8193916,22.7473871 C26.8079848,22.6670593 26.6996198,22.2367314 26.5855513,21.8006658 C26.4714829,21.3588625 26.3688213,20.9457478 26.3574144,20.882633 C26.3460076,20.8195183 26.3231939,20.7047642 26.3060837,20.6244363 C26.1007605,19.7121412 25.9410646,17.8531248 25.9068441,16.022797 C25.8726236,14.0490265 26.2319392,12.970338 27.0532319,12.5457478 C27.6577947,12.2359117 28.1939163,12.1957478 28.5475285,12.4309937 C28.8669202,12.6490265 29.4030418,13.1998461 29.7965779,13.7162396 C30.7376426,14.9555839 31.8155894,15.9998461 32.7623574,16.5736166 C33.1730038,16.820338 33.4581749,17.1416494 33.6634981,17.6006658 C33.9486692,18.2260757 34.0342205,19.0523052 33.8688213,19.6375511 C33.7490494,20.0621412 33.3612167,20.4006658 33.0361217,20.3662396 C32.6026616,20.3146002 32.460076,20.2285347 31.2281369,19.270338 C30.4239544,18.6449281 29.7281369,18.1572232 29.6311787,18.1572232 C29.608365,18.1572232 29.5969582,18.2260757 29.608365,18.3178789 C29.6197719,18.4039445 29.6768061,18.7596822 29.7281369,19.1039445 C29.7794677,19.4539445 29.8593156,19.8900101 29.8992395,20.0793543 C29.9448669,20.2686986 29.9904943,20.4867314 30.0076046,20.5670593 C30.1444867,21.3129609 30.526616,22.535092 31.5988593,25.6449281 C31.8726236,26.4367314 32.1064639,27.1941084 32.3574144,28.077715 C32.5342205,28.7146002 32.5285171,29.127715 32.3288973,29.5178789 C32.1806084,29.8162396 31.8326996,30.0916494 31.4676806,30.2006658 C31.3250951,30.2408298 31.148289,30.2982068 31.0627376,30.3211576 C30.9030418,30.3670593 29.7965779,30.3555839 29.6026616,30.3039445 L29.4771863,30.2695183 L29.5798479,30.5564035 C29.7224335,30.9236166 30.0646388,31.3711576 30.3441065,31.5605019 C30.4695817,31.6408298 30.7775665,31.7842724 31.0342205,31.870338 C31.513308,32.0367314 31.5931559,32.0424691 33.634981,32.1285347 C34.9752852,32.1859117 35.3460076,32.2318134 35.7965779,32.3867314 C36.0874525,32.4900101 36.4353612,32.7137806 36.5893536,32.9031248 C36.9030418,33.270338 37.0342205,33.9646002 36.8859316,34.4293543 C36.6863118,35.0490265 35.8992395,35.7432888 35.2604563,35.8580429 C35.134981,35.8809937 34.9809886,35.9154199 34.918251,35.9268953 C34.7813688,35.9613216 33.6520913,35.9957478 33.6235741,35.972797 Z" id="Path" fill="#C41230" transform="translate(21.975565, 22.000743) scale(-1, 1) rotate(-180.000000) translate(-21.975565, -22.000743) "></path>
    </g>
</svg>