<?xml version="1.0" encoding="UTF-8"?>
<svg width="44px" height="44px" viewBox="0 0 44 44" version="1.1" xmlns="http://www.w3.org/2000/svg" xmlns:xlink="http://www.w3.org/1999/xlink">
    <!-- Generator: Sketch 54.1 (76490) - https://sketchapp.com -->
    <title>icons/banks/44/primbank-mono</title>
    <desc>Created with Sketch.</desc>
    <g id="icons/banks/44/primbank-mono" stroke="none" stroke-width="1" fill="none" fill-rule="evenodd">
        <path d="M8,8 L36,8 L36,36 L8,36 L8,8 Z M30.9375718,17.784503 C29.0657873,17.5510857 27.2443508,17.8303291 25.3966271,18.2802378 C25.6095829,17.4542596 25.8123398,16.6681204 26.0241464,15.8467248 C27.7546547,16.2397204 29.471732,16.6652378 30.9375718,17.784503 Z M34.682721,22.0434465 C35.0070746,21.9587422 34.9294337,21.7262857 34.9083895,21.5290117 C34.697732,19.5471074 33.6863895,18.071803 32.1457818,16.9388639 C30.7239696,15.89329 29.1181464,15.2679857 27.4466768,14.806103 C26.7004337,14.5998857 25.943489,14.4348378 25.1441685,14.2395596 C24.8294392,16.5575465 24.110489,18.6691683 22.9350304,20.6128596 C23.0204282,20.6467117 23.0461409,20.6676291 23.0630193,20.6617161 C23.130174,20.6380639 23.195605,20.6084987 23.2598867,20.5770117 C25.5711575,19.4444422 27.9911685,18.8739074 30.5599972,19.1075465 C32.1727155,19.2543378 33.4498757,19.9959813 34.3180028,21.4287117 C34.437732,21.6262074 34.553942,21.8260683 34.682721,22.0434465 Z M17.9717669,15.8472496 C18.1835017,16.6594061 18.386905,17.4393365 18.6049602,18.2758104 C16.7682254,17.8437887 14.9383138,17.5388235 13.0571923,17.7862843 C14.5229602,16.6686452 16.2399657,16.2398757 17.9717669,15.8472496 Z M20.963347,20.6532974 C20.9940873,20.6374061 21.0247558,20.6215148 21.0554961,20.6055496 C19.870126,18.6631148 19.1709271,16.5429191 18.841905,14.1989148 C17.7812917,14.4851061 16.7664298,14.7130539 15.7803691,15.0348713 C13.9876619,15.619967 12.314253,16.4534104 10.929789,17.8030626 C9.87858453,18.827793 9.20050166,20.0546017 9.07847403,21.5667887 C9.06281657,21.7598496 9.01742431,21.971167 9.30141326,22.0361365 C9.32698232,22.0002887 9.35959006,21.9657713 9.37977238,21.9248235 C10.1815348,20.2943757 11.5324575,19.4692843 13.2288497,19.1740017 C15.2654685,18.8194409 17.2289713,19.1789539 19.1456453,19.8858583 C19.7615293,20.112993 20.358021,20.3959322 20.963347,20.6532974 Z M12.9482436,27.3772483 C14.5937851,27.4722265 16.1914204,27.2841917 17.7076801,26.6392265 C17.7916414,27.5052657 17.8728017,28.3420352 17.9571221,29.210883 C16.2383928,28.824983 14.5104702,28.3594787 12.9482436,27.3772483 Z M9.43666354,23.6520309 C9.13177403,23.7175178 9.11906133,23.8782787 9.18054199,24.124483 C9.61995635,25.8829483 10.6560779,27.2002265 12.0748017,28.2089178 C14.6299122,30.0253309 17.5205807,30.7827178 20.5800337,30.965283 C20.6659343,30.970383 20.7579398,30.8657222 20.8471442,30.812283 C20.788321,30.7123526 20.7526967,30.5616439 20.6671552,30.5201787 C19.7453044,30.0738917 19.1945641,29.3313613 18.9664536,28.3222265 C18.7116249,27.1945352 18.8847188,26.1006222 19.1989453,25.0126222 C19.2459177,24.8500135 19.1827851,24.6536265 19.165763,24.4006961 C18.8916138,24.5545091 18.7253431,24.64727 18.5595033,24.7410657 C17.5027685,25.3385787 16.3865641,25.7520483 15.1894149,25.9373483 C13.0646691,26.2661874 11.2311663,25.7309091 9.77286796,24.04717 C9.66204475,23.9193004 9.55330442,23.7892874 9.43666354,23.6520309 Z M26.0406873,29.2140317 C26.1242177,28.3423013 26.2043006,27.5062709 26.2873282,26.6396404 C27.802726,27.2815752 29.4007204,27.47471 31.0518641,27.3778839 C29.5022785,28.3538317 27.7776597,28.815123 26.0406873,29.2140317 Z M34.5765878,23.6584317 C34.5356486,23.7040361 34.4998088,23.7361143 34.4732343,23.7747709 C33.3879856,25.3571013 31.8577923,26.0138187 30.0253669,26.0200274 C28.372284,26.0256448 26.8426652,25.5472057 25.4063448,24.7241839 C25.2440243,24.6311274 25.0778972,24.5450926 24.8087757,24.3988926 C24.7993669,24.6631317 24.7483724,24.8513883 24.794411,25.00971 C25.0292729,25.8172839 25.1943945,26.6338013 25.1467757,27.4803274 C25.071074,28.8233274 24.5827481,29.9094796 23.3338144,30.5193361 C23.248632,30.5608752 23.213726,30.7112143 23.1554773,30.810923 C23.2576818,30.86111 23.365632,30.9640709 23.4612287,30.9531317 C24.2683779,30.86111 25.0813448,30.7912622 25.8772895,30.6334578 C28.0554,30.2015839 30.1294387,29.4743535 31.965168,28.1505709 C33.3461127,27.1548143 34.390853,25.8971839 34.8134608,24.1674709 C34.8732177,23.9227448 34.8515989,23.7604317 34.5765878,23.6584317 Z M17.8617481,22.3002796 C17.7908586,22.3683535 17.7522177,22.4264491 17.6986376,22.4538709 C16.2100298,23.2161361 14.6601569,23.638697 12.9878972,23.2996578 C12.7123834,23.2437796 12.4309083,23.138897 12.1923116,22.9890013 C11.8427481,22.7694057 11.8327646,22.3610361 12.1518033,22.0940622 C12.3058641,21.9651578 12.4928917,21.858723 12.6818586,21.7963404 C14.4621403,21.2077709 16.167295,21.4675013 17.8617481,22.3002796 Z M14.3748033,24.6707448 C14.5675768,24.655297 14.8550851,24.6470926 15.1383558,24.6070317 C16.6870077,24.3878796 18.0499967,23.7030752 19.3516486,22.8469404 C19.8590796,22.513223 19.8225934,22.2604404 19.3683116,21.9189622 C17.7465436,20.6999883 15.9240298,20.2053622 13.9368254,20.3201491 C13.1271624,20.3668622 12.3601624,20.5987274 11.6632619,21.0364404 C11.2109912,21.3205622 10.8586265,21.6984057 10.7353779,22.2492796 C10.5729856,22.9755491 10.8931017,23.6401013 11.6154994,24.0535709 C12.4431182,24.5271317 13.3531182,24.6414013 14.3748033,24.6707448 Z M26.1688702,22.3392539 C27.3467707,21.7061148 28.5797597,21.3701061 29.9002293,21.5072148 C30.3607597,21.5550365 30.8179144,21.665167 31.2676713,21.7832061 C31.469279,21.8360539 31.6690193,21.9518757 31.8342127,22.0855104 C32.1723564,22.3592104 32.1458536,22.7579713 31.7891796,23.0094974 C31.6823066,23.0849626 31.5605663,23.149193 31.4364558,23.1858539 C29.5592127,23.7401278 27.8381133,23.2446887 26.1688702,22.3392539 Z M29.7235442,24.6684757 C30.6776436,24.636693 31.6415829,24.5292974 32.4929751,23.9810104 C33.4768812,23.3474278 33.5946713,22.149667 32.7230249,21.3634539 C32.3815773,21.0555322 31.9512845,20.816867 31.5231464,20.6520409 C30.022616,20.0741887 28.5105221,20.2407148 27.0118591,20.6905496 C26.0720525,20.9726757 25.2085939,21.4163017 24.4562459,22.069693 C24.1902127,22.3006713 24.1984006,22.5211539 24.4823177,22.7213104 C24.7683177,22.9228713 25.0592735,23.1189626 25.3599254,23.2961322 C26.7053177,24.0894409 28.1203785,24.6545061 29.7235442,24.6684757 Z M21.9998276,25.0138343 C22.4231536,25.7877039 22.6357503,26.5133822 22.3927006,27.301443 C22.3312917,27.5004909 22.1315514,27.6543039 21.9953746,27.8288865 C21.8607779,27.6523822 21.6639823,27.4960561 21.602789,27.2958257 C21.3617503,26.5078387 21.5776508,25.78423 21.9998276,25.0138343 Z M20.411242,26.6755474 C20.411242,26.7616561 20.4059989,26.8482083 20.4121039,26.9339474 C20.4547669,27.5302778 20.5783028,28.1034735 20.9008608,28.612217 C21.5306785,29.6056822 22.4903801,29.6027257 23.1019547,28.5940343 C23.2514906,28.3474604 23.3733028,28.0677735 23.4411757,27.7863126 C23.860695,26.0471387 23.3422033,24.5648865 22.2302365,23.253817 C22.0415569,23.0314126 21.8877116,23.1083561 21.726253,23.2923257 C20.8823304,24.2539343 20.4498829,25.3839909 20.411242,26.6755474 Z M21.4200133,15.3346922 L22.5781624,15.3346922 C22.4042066,16.0009443 22.2425326,16.6201139 22.0808586,17.2392835 C22.0257702,17.2383965 21.9706818,17.2375096 21.9155934,17.2366965 C21.7557149,16.6230704 21.5957646,16.0093704 21.4200133,15.3346922 Z M20.1768972,14.0635357 C20.4230354,15.9449183 20.8401127,17.6888965 21.7805657,19.2617661 C21.938505,19.5259313 22.0699414,19.5071574 22.2481348,19.2079574 C22.8160409,18.2547009 23.1977094,17.2216183 23.4441348,16.1374617 C23.5952508,15.4723183 23.7062177,14.7974183 23.8473503,14.0635357 L20.1768972,14.0635357 Z" id="Combined-Shape" fill="#FFFFFF"></path>
    </g>
</svg>