<?xml version="1.0" encoding="UTF-8"?>
<svg width="44px" height="44px" viewBox="0 0 44 44" version="1.1" xmlns="http://www.w3.org/2000/svg" xmlns:xlink="http://www.w3.org/1999/xlink">
    <!-- Generator: Sketch 54.1 (76490) - https://sketchapp.com -->
    <title>icons/banks/44/psb-mono</title>
    <desc>Created with Sketch.</desc>
    <g id="icons/banks/44/psb-mono" stroke="none" stroke-width="1" fill="none" fill-rule="evenodd">
        <path d="M27.1240865,18.961666 C28.0056342,19.0509095 28.668415,19.8061237 28.6424605,20.691797 C28.6424605,21.591774 28.105294,22.7408635 25.791086,22.7408635 L24.290158,22.7408635 C24.4341863,23.0539482 24.5041014,23.3960213 24.4944725,23.7405115 C24.4944725,24.888665 23.6050125,25.8504115 21.736789,25.8504115 L17.736325,25.8504115 L17.1437915,25.2584175 L17.1437915,28.4326925 L15.6812395,28.4326925 L15.6812395,21.147304 L17.8289955,21.147304 C20.45911,21.147304 20.625562,23.036906 20.625562,23.5073305 C20.6238278,23.9142811 20.515222,24.3136365 20.3106175,24.665416 L21.7926175,24.665416 C22.5889,24.665416 22.9576775,24.184039 22.9576775,23.7853875 C22.9576775,23.0249655 22.162357,22.8216195 21.496601,22.487747 C20.403288,21.9435865 19.810293,21.489139 19.810293,20.4626135 C19.810293,19.7400605 20.199994,18.4165045 22.0886275,18.4165045 L23.4939015,18.4165045 L23.4939015,15.4714455 L25.8833015,15.4714455 C27.291052,15.4714455 28.2906805,16.0365555 28.2906805,17.2673955 C28.3501532,18.0305337 27.8613909,18.729108 27.1240865,18.9347755 L27.1240865,18.961666 Z M17.8289955,24.665416 L17.8289955,24.6653965 C18.1627149,24.6865813 18.4895242,24.5638021 18.7267417,24.3281217 C18.9639593,24.0924413 19.0888604,23.766437 19.0698455,23.432587 C19.0848316,23.1070466 18.9554472,22.7914738 18.7162472,22.5701493 C18.4770473,22.3488248 18.1523948,22.244291 17.8289955,22.284466 L17.143798,22.284466 L17.143798,24.665416 L17.8289955,24.665416 Z M23.4938885,20.147669 L24.0689435,19.5636635 L22.4220255,19.5636635 C21.533534,19.5636635 21.3481475,20.006177 21.3481475,20.3031555 C21.3481475,20.888188 21.8474385,21.147304 22.3108885,21.350598 C22.7167047,21.5135412 23.1118246,21.7019526 23.4938885,21.914707 L23.4938885,20.147669 Z M24.9569475,16.6106355 L24.9569475,18.416498 L25.679494,18.416498 C26.6422285,18.416498 26.809194,17.8324925 26.809194,17.517548 C26.809194,17.3052775 26.7538855,16.6106355 25.623672,16.6106355 L24.9569475,16.6106355 Z M25.791099,21.5918 L25.7910925,21.5917805 C26.7169915,21.5917805 27.086744,21.0924765 27.0867505,20.573237 C27.0867505,20.055005 26.8092005,19.563657 25.791099,19.563657 L24.9569475,19.563657 L24.9569475,21.5918 L25.791099,21.5918 Z M35,15.3079835 L35,24.2198995 C34.9914516,27.0476985 33.1064438,29.5260499 30.383609,30.2893915 L30.383609,20.0669195 C30.383609,15.544187 28.6245855,13.6167225 24.4815505,13.6167225 L13.7104005,13.6167225 C14.4691977,10.889934 16.9515306,9.00252004 19.781927,9.0003055 L28.692322,9.0003055 C30.365256,9.00019516 31.9697027,9.66471675 33.1526457,10.8476598 C34.3355888,12.0306028 35.0001103,13.6350495 35,15.3079835 Z" id="Combined-Shape" fill-opacity="0.8" fill="#FFFFFF" fill-rule="nonzero"></path>
        <path d="M9.076583,28.598111 C9.07655714,30.2710209 9.74110524,31.8754205 10.9240294,33.0583483 C12.1069535,34.2412761 13.7113511,34.9058292 15.384261,34.9058085 L24.29515,34.9058085 C27.1254875,34.9034533 29.60773,33.0160919 30.3666245,30.2893915 L19.595065,30.2893915 C15.45203,30.2893915 13.693013,28.361901 13.693013,23.8391815 L13.693013,13.6167225 C10.9701624,14.3800437 9.08513617,16.8583994 9.0765895,19.686208 L9.076583,28.598111 Z" id="Shape" fill="#FFFFFF" fill-rule="nonzero"></path>
    </g>
</svg>