<?xml version="1.0" encoding="UTF-8"?>
<svg width="44px" height="44px" viewBox="0 0 44 44" version="1.1" xmlns="http://www.w3.org/2000/svg" xmlns:xlink="http://www.w3.org/1999/xlink">
    <!-- Generator: Sketch 54.1 (76490) - https://sketchapp.com -->
    <title>icons/banks/44/qiwi</title>
    <desc>Created with Sketch.</desc>
    <g id="icons/banks/44/qiwi" stroke="none" stroke-width="1" fill="none" fill-rule="evenodd">
        <path d="M31.9762764,27.8374577 C32.0604504,28.3801057 31.8827498,28.6098267 31.7031786,28.6098267 C31.5236075,28.6098267 31.2617329,28.3891498 30.9736708,27.9514138 C30.6856087,27.5136777 30.5845999,27.0271033 30.7248899,26.7756764 C30.8340432,26.5952646 31.0711458,26.5305546 31.2617329,26.6291614 C31.7387188,26.8028088 31.9257721,27.51006 31.9762764,27.8356489 L31.9762764,27.8374577 Z M29.3332134,29.0276657 C29.9055965,29.4961518 30.0814266,30.0532705 29.7765297,30.4457859 C29.5897378,30.6690305 29.3044094,30.7932261 29.0077407,30.7804188 C28.6876885,30.7802938 28.3778508,30.6714587 28.1323313,30.4729183 C27.6123231,30.0333734 27.4589394,29.3188868 27.7993764,28.9137096 C27.9525889,28.7463094 28.1764584,28.655719 28.4072996,28.6677092 C28.7497919,28.6785288 29.0774854,28.8052822 29.3332134,29.0258569 L29.3332134,29.0276657 Z M28.3755006,33.5497326 C30.8427335,33.5497326 33.5194661,34.3673223 36.4823902,36.9069151 C36.779805,37.1619596 37.1744874,36.845415 36.9163539,36.5288703 C34.0039341,32.9727169 31.3047551,32.2962157 28.6242815,31.7246264 C25.3396256,31.0209928 23.6486639,29.2320631 22.4646166,27.2694861 C22.2307999,26.8787795 22.1260501,26.9475149 22.1036037,27.4503688 C22.0842246,28.195754 22.142505,28.9411322 22.2775633,29.6752257 L22.2775633,29.6752257 C22.1447554,29.6752257 22.0119476,29.6752257 21.8772692,29.6752257 C17.1768153,29.6752257 13.3663444,25.9904567 13.3663444,21.4450639 C13.3663444,16.8996711 17.1768153,13.2149021 21.8772692,13.2149021 C26.5777232,13.2149021 30.388194,16.8996711 30.388194,21.4450639 C30.3891371,21.7647632 30.3710252,22.0842494 30.3339485,22.4019333 C29.437305,22.2931513 28.5312485,22.2767801 27.6310285,22.3530949 C27.3074263,22.3802273 27.3541896,22.5339776 27.5973589,22.5683453 C30.4031583,23.0603462 32.3429009,24.7389374 32.7862172,27.8139429 C32.7914476,27.8444911 32.8153269,27.868913 32.846575,27.8756721 C32.8778232,27.8824313 32.9101867,27.870175 32.9283777,27.844693 C35.9298061,22.9928399 35.1742859,16.7945457 31.0885226,12.7505065 C27.0027593,8.70646735 20.6123393,7.83179607 15.5264681,10.6204929 C10.4405969,13.4091896 7.93590258,19.1612509 9.42699583,24.6280056 C10.9180891,30.0947603 16.0306837,33.9039732 21.8772692,33.9042626 C23.7571548,33.900645 25.6295583,33.5461149 28.3755006,33.5461149 L28.3755006,33.5497326 Z" id="Shape" fill="#FF8C00" fill-rule="nonzero"></path>
    </g>
</svg>