<?xml version="1.0" encoding="UTF-8"?>
<svg width="44px" height="44px" viewBox="0 0 44 44" version="1.1" xmlns="http://www.w3.org/2000/svg" xmlns:xlink="http://www.w3.org/1999/xlink">
    <!-- Generator: Sketch 54.1 (76490) - https://sketchapp.com -->
    <title>icons/banks/44/raiffeisen</title>
    <desc>Created with Sketch.</desc>
    <g id="icons/banks/44/raiffeisen" stroke="none" stroke-width="1" fill="none" fill-rule="evenodd">
        <path d="M9.5,34.5 L9.5,9.5 L34.5,9.5 L34.5,34.5 L9.5,34.5 Z" id="Shape" stroke="#000000" fill="#FFF200"></path>
        <path d="M21.9636274,25.300968 L29.5862611,33.013974 L32.5626716,29.9877908 L24.9400505,22.2379195 L26.4281011,20.7618055 L26.4281011,17.7356543 L27.4808105,16.6653089 L27.4808105,19.1749223 L28.5335516,20.2081263 L32.2360126,16.4437191 L33.2522232,17.4403853 C33.1969379,15.6949826 32.4970774,14.0347869 31.2920168,12.7904214 C30.7062821,12.1212456 29.8735769,11.7293622 28.9927559,11.7083552 C28.1119349,11.6873483 27.2620731,12.0391036 26.6461221,12.6796201 L23.0526084,16.3331938 L23.9601242,17.2187505 L21.9636653,19.2485565 L20.00344,17.2187505 L20.8747347,16.3331938 L17.3174547,12.6796201 C16.7009009,12.0402658 15.8512922,11.6893184 14.9708662,11.710316 C14.0904401,11.7313135 13.2579506,12.1223778 12.67156,12.7904214 C11.4560482,14.0244277 10.7652241,15.6940334 10.7475684,17.4403853 L11.7277789,16.4437191 L15.4299811,20.2081263 L16.4464568,19.1749223 L16.4464568,16.6653089 L17.5354,17.7356543 L17.5354,20.7618055 L18.9872358,22.2379195 L11.4735937,29.9140666 L14.4500042,32.9402499 L21.9636274,25.300968 Z" id="Shape" fill="#231F20"></path>
    </g>
</svg>