<?xml version="1.0" encoding="UTF-8"?>
<svg width="44px" height="44px" viewBox="0 0 44 44" version="1.1" xmlns="http://www.w3.org/2000/svg" xmlns:xlink="http://www.w3.org/1999/xlink">
    <!-- Generator: Sketch 54.1 (76490) - https://sketchapp.com -->
    <title>icons/banks/44/rnkb-mono</title>
    <desc>Created with Sketch.</desc>
    <g id="icons/banks/44/rnkb-mono" stroke="none" stroke-width="1" fill="none" fill-rule="evenodd">
        <polygon id="Rectangle" fill="#FFFFFF" opacity="0.5" points="8 24 37 24 34 32 5 32"></polygon>
        <path d="M12.5591947,16.7726297 C12.5475053,16.7701463 12.5358159,16.7677073 12.5241265,16.7652239 C12.5241265,16.7062882 12.5290116,16.6468204 12.523385,16.5884169 C12.4655049,15.9915211 12.0666255,15.6368869 11.5240708,15.6980843 C11.1198264,15.7436275 10.8913158,15.9977738 10.8898328,16.4062439 C10.8887424,16.7013659 10.8827668,16.9967982 10.8948924,17.291388 C10.898469,17.3782173 10.9363288,17.480612 10.9924641,17.54549 C11.4023788,18.0196364 12.1711759,17.9009224 12.4156505,17.3221641 C12.4884476,17.1498803 12.5126988,16.9563991 12.5591947,16.7726297 Z M8.35052544,13.7944922 C8.99610393,13.7944922 9.62013551,13.791255 10.2440362,13.8001242 C10.2992993,13.8009224 10.3805145,13.8697916 10.4031519,13.9262882 C10.4735937,14.1019424 10.5216162,14.2869091 10.5810665,14.4769756 C10.7619471,14.3212328 10.9234617,14.1520089 11.112237,14.0244257 C12.4307856,13.1332949 14.2045236,13.6344035 14.8340509,15.1100133 C15.3433692,16.3038492 15.315934,17.5157339 14.7070376,18.6756452 C13.9382404,20.1401685 11.9835346,20.2086829 11.0289718,19.4738714 C11.0015365,19.4527627 10.9726619,19.4336497 10.9172244,19.3942705 L10.9172244,22.0761774 L8.35052544,22.0761774 L8.35052544,13.7944922 Z M32.7856605,17.0370599 C32.8089084,17.1666829 32.8195947,17.3002971 32.857847,17.4251752 C32.9554623,17.7438448 33.1891634,17.9103193 33.5256266,17.9181685 C33.891357,17.9266386 34.1302922,17.7848204 34.2456161,17.468235 C34.3526964,17.1741774 34.3631209,16.8647761 34.2200128,16.5877472 C34.1459507,16.4443769 34.0007926,16.3021153 33.8546749,16.2406519 C33.2914458,16.0036674 32.8140117,16.3743548 32.7856605,17.0370599 Z M36.2450295,11.0443326 C36.2450295,11.7251308 36.2500019,12.4095211 36.2377018,13.0936009 C36.2363497,13.1654856 36.1456259,13.2539557 36.0751404,13.3033126 C35.7154728,13.5549756 35.2927347,13.5951973 34.876452,13.6630022 C34.5051386,13.72349 34.1258432,13.7718271 33.7711043,13.8905854 C33.2132401,14.0773703 32.913677,14.5128027 32.7977861,15.1454856 C32.9184313,15.0463282 33.0005189,14.972847 33.0884076,14.9074368 C34.4798406,13.872847 36.4069366,14.6376364 36.7362467,16.3553747 C36.8519632,16.958745 36.8637398,17.5603415 36.6547697,18.1467273 C36.3811589,18.9144435 35.8305787,19.4059734 35.0896966,19.6715166 C34.1638774,20.0032683 33.2227486,20.0145322 32.2886858,19.702204 C31.3695838,19.3948426 30.7807077,18.7358625 30.5221448,17.8065942 C30.1693251,16.5383016 30.2140763,15.2630909 30.6420049,14.0180798 C31.0440684,12.8480576 31.9303268,12.1824701 33.0276052,11.7563503 C33.6918519,11.4983902 34.393871,11.4284124 35.0868178,11.308102 C35.4708238,11.2414058 35.8483309,11.1360399 36.2450295,11.0443326 Z M18.6174305,15.7505721 L19.8040806,15.7505721 L19.8040806,13.8075122 L22.3545104,13.8075122 L22.3545104,19.7209047 L19.8077881,19.7209047 L19.8077881,17.7782882 L18.6326093,17.7782882 L18.6326093,19.7143858 L16.0702284,19.7143858 L16.0702284,13.8087982 L18.6174305,13.8087982 L18.6174305,15.7505721 Z M29.9352925,19.7315698 C29.1030323,19.7315698 28.3042265,19.7352506 27.5056824,19.7246519 C27.4408672,19.7238093 27.3462615,19.6383104 27.3179975,19.5698404 C27.0996061,19.0397295 26.8880626,18.5065588 26.6884265,17.9689091 C26.6273188,17.8043858 26.5471067,17.7330776 26.3714166,17.7605721 C26.2578373,17.7783104 26.1395038,17.763898 25.992034,17.763898 L25.992034,19.725051 L23.4412989,19.725051 L23.4412989,13.8081996 L25.9796903,13.8081996 L25.9796903,15.7222129 C26.3743826,15.823898 26.4263307,15.8003947 26.5647281,15.4536984 C26.7636663,14.9552506 26.9570214,14.4544967 27.1600159,13.9578226 C27.1861427,13.8939202 27.255276,13.8020355 27.3054358,13.8014146 C28.1019735,13.7915698 28.898642,13.7944967 29.723749,13.7944967 C29.4974628,14.4053614 29.3136162,15.0048293 29.0557076,15.5693082 C28.7921724,16.1461153 28.7715414,16.6649623 29.0352075,17.2611486 C29.3842325,18.0503725 29.6326762,18.8855388 29.9352925,19.7315698 Z" id="Combined-Shape" fill="#FFFFFF"></path>
    </g>
</svg>