<?xml version="1.0" encoding="UTF-8"?>
<svg width="44px" height="44px" viewBox="0 0 44 44" version="1.1" xmlns="http://www.w3.org/2000/svg" xmlns:xlink="http://www.w3.org/1999/xlink">
    <!-- Generator: Sketch 54.1 (76490) - https://sketchapp.com -->
    <title>icons/banks/44/rocket-mono</title>
    <desc>Created with Sketch.</desc>
    <g id="icons/banks/44/rocket-mono" stroke="none" stroke-width="1" fill="none" fill-rule="evenodd">
        <path d="M22,36 C14.2680135,36 8,29.7319865 8,22 C8,14.2680135 14.2680135,8 22,8 C29.7319865,8 36,14.2680135 36,22 C36,29.7319865 29.7319865,36 22,36 Z M28.528315,16.0926223 C28.5762032,15.9777166 28.5761973,15.8484404 28.5282985,15.7335391 C28.4291294,15.4956489 28.155889,15.3831932 27.9179988,15.4823622 L13.5550777,21.4698189 C13.4644508,21.5075984 13.3969767,21.5859431 13.3730522,21.68117 C13.3311857,21.8478122 13.4323363,22.016842 13.5989781,22.0587103 C16.0515405,22.6748831 17.6656181,23.5021084 18.9718316,24.8 C20.2633965,26.0833364 21.4442089,28.0135403 21.9836481,30.3309981 C22.0063442,30.4285017 22.074573,30.5091268 22.1669794,30.5476381 C22.3255808,30.613737 22.5077363,30.5387489 22.5738352,30.3801475 L28.528315,16.0926223 Z" id="Combined-Shape" fill="#FFFFFF"></path>
    </g>
</svg>