<?xml version="1.0" encoding="UTF-8"?>
<svg width="44px" height="44px" viewBox="0 0 44 44" version="1.1" xmlns="http://www.w3.org/2000/svg" xmlns:xlink="http://www.w3.org/1999/xlink">
    <!-- Generator: Sketch 54.1 (76490) - https://sketchapp.com -->
    <title>icons/banks/44/rossiya</title>
    <desc>Created with Sketch.</desc>
    <g id="icons/banks/44/rossiya" stroke="none" stroke-width="1" fill="none" fill-rule="evenodd">
        <path d="M13.5682959,23.4818571 C13.5762785,23.6365745 13.5907311,23.8216007 13.616,24.0308095 C13.7158017,24.8559166 13.9142191,25.6141977 14.1998922,26.3060955 C16.8641971,25.7811746 19.8648309,25.7387598 20.9527742,25.7326667 L20.9527742,23.4818571 L13.5682959,23.4818571 Z M12.4228198,23.4818571 L7.27277419,23.4818571 C7.49729032,25.1329048 8.47587097,26.6901905 10.1135484,27.997619 C10.7659781,27.3553698 11.8383369,26.8955877 13.0686969,26.5663087 C12.7839725,25.8300791 12.5845395,25.0317515 12.4805161,24.1722381 C12.4484047,23.907096 12.4313408,23.6741137 12.4228198,23.4818571 Z M20.9527742,31.4215171 L20.9527742,26.9772381 C19.4720489,26.9868404 16.9965197,27.0967776 14.811897,27.4894265 C16.1040929,29.531285 18.2918807,30.8364946 20.9527742,31.4215171 Z M13.623466,27.740997 C12.7113012,27.9678289 11.9064349,28.2586047 11.3254194,28.6298571 C11.2696774,28.6654762 11.2196129,28.6995238 11.1736774,28.7330476 C12.6900787,29.7093673 14.5826823,30.4887006 16.7442547,30.9728233 C15.441163,30.1489122 14.3742209,29.0692312 13.623466,27.740997 Z M12.3535484,22.2372857 C12.416,21.0995714 12.6663226,20.0131905 13.0735484,19.0090476 C11.8286452,18.6827143 10.752,18.235381 10.1223226,17.6240952 C8.47070968,18.9561429 7.44619355,20.5574286 7.25780645,22.2372857 L12.3535484,22.2372857 Z M13.6227097,17.8681905 C14.3261935,16.6168095 15.780129,15.2056667 17.0178065,14.412619 C14.7705806,14.8421429 12.6209032,15.8667143 11.1525161,16.8802857 C11.8363871,17.3642857 13.195871,17.7571429 13.4931613,17.8346667 L13.6227097,17.8681905 Z M22.1625806,32.7679524 L21.8745806,32.7679524 C13.4188387,32.7679524 6,28.5523333 6,22.7998571 C6,17.2610952 12.8939355,13.1408095 20.9538065,12.8432857 L20.9538065,14.2067619 C20.9192258,14.2067619 20.8769032,14.2030952 20.7716129,14.2125238 C18.2962581,14.5598095 16.2085161,16.0306667 14.8923871,18.1400476 C16.5806452,18.447 18.672,18.6292857 20.9538065,18.6408095 L20.9538065,19.8848571 C19.8833548,19.874381 16.9218065,19.7895238 14.292129,19.283 C13.8952258,20.196 13.648,21.1917619 13.5824516,22.2372857 L35.5587097,22.2372857 L35.5587097,23.4818571 L22.1790968,23.4818571 L22.1790968,31.5212857 C27.4766452,31.4510952 32.1083871,29.5690476 34.416,27.1731429 L24.7974194,27.1731429 L24.7974194,25.9285714 L36.8645161,25.9285714 C33.5778065,30.8759524 27.8028387,32.7077143 22.1625806,32.7679524 Z" id="Combined-Shape" fill="#005AAA"></path>
        <path d="M22.7829677,30.7408095 L22.7829677,24.1072857 L36.2394839,24.1072857 C36.3597419,23.6709524 36.4283871,23.2372381 36.4283871,22.7998571 C36.4283871,18.3024286 30.3767742,14.212 22.1785806,14.0820952 L22.1785806,22.1707619 L20.9538065,22.1707619 L20.9538065,11 L21.0910968,11 C21.2727742,11.569381 21.6464516,12.1487143 22.2002581,12.4624762 C22.5940645,12.685619 22.820129,12.7982381 23.2536774,12.8757619 C23.4900645,12.9176667 23.700129,12.9050952 23.8668387,12.9181905 C31.4498065,13.5032857 37.6547097,17.5250952 37.6547097,22.7998571 C37.6547097,23.716 37.4167742,24.5027619 37.1246452,25.352381 L24.0092903,25.352381 L24.0092903,30.7408095 L22.7829677,30.7408095" id="Fill-3" fill="#D91E48"></path>
    </g>
</svg>