<?xml version="1.0" encoding="UTF-8"?>
<svg width="44px" height="44px" viewBox="0 0 44 44" version="1.1" xmlns="http://www.w3.org/2000/svg" xmlns:xlink="http://www.w3.org/1999/xlink">
    <!-- Generator: Sketch 54.1 (76490) - https://sketchapp.com -->
    <title>icons/banks/44/rosselkhoz-mono</title>
    <desc>Created with Sketch.</desc>
    <g id="icons/banks/44/rosselkhoz-mono" stroke="none" stroke-width="1" fill="none" fill-rule="evenodd">
        <path d="M17.7981826,27.3096585 L17.7981826,25.9026199 L17.7763077,25.8271429 L17.6406154,25.4992857 L17.4726154,25.1671429 L17.3024615,24.8671429 L17.1021538,24.5671429 L16.8953846,24.2842857 L16.6563077,24.0014286 L16.1673846,23.4635714 L15.6461538,22.9385714 L15.1163077,22.4392857 L14.5778462,21.9314286 L14.048,21.4042857 L13.5655385,20.86 L13.3307692,20.5942857 L13.1132308,20.2942857 L12.9236923,20.0028571 L12.7535385,19.6921429 L12.592,19.3707143 L12.4390769,19.0428571 L12.3378462,18.6957143 L12.2516923,18.3378571 L12.1956923,17.9628571 L12.1676923,17.5642857 L12.1848286,14.2994311 C8.40795678,19.2568221 8.75796237,26.3487486 13.2348454,30.9105216 C14.5209277,32.2176286 16.0788769,33.225725 17.7981826,33.8633032 L17.7981826,30.8543819 L17.7461538,30.7 L17.604,30.3442857 L17.4166154,30.0057143 L17.2356923,29.6778571 L17.016,29.3671429 L16.7812308,29.0671429 L16.5270769,28.7671429 L15.9972308,28.1992857 L15.42,27.6442857 L14.8427692,27.1042857 L14.2569231,26.5664286 L13.6796923,26.0092857 L13.1498462,25.4328571 L12.8849231,25.15 L12.6587692,24.8414286 L12.4390769,24.5221429 L12.2516923,24.2007143 L12.0793846,23.8557143 L11.92,23.5085714 L11.808,23.1335714 L11.7132308,22.7585714 L11.6550769,22.3664286 L11.6270769,21.9357143 L11.6335385,18.4578571 L11.6658462,18.88 L11.7196923,19.2721429 L11.8252308,19.6578571 L11.9393846,20.0221429 L12.1009231,20.3778571 L12.2710769,20.7142857 L12.4606154,21.0421429 L12.676,21.355 L12.9043077,21.655 L13.1584615,21.955 L13.6969231,22.5207143 L14.2655385,23.0692857 L14.86,23.6178571 L15.4393846,24.1557143 L16.0058462,24.7021429 L16.5443077,25.2678571 L16.8006154,25.57 L17.0267692,25.87 L17.2464615,26.1828571 L17.4338462,26.5107143 L17.6233846,26.8471429 L17.7655385,27.2028571 L17.7981826,27.3096585 Z M17.7981826,22.5488767 L17.7981826,22.2050337 L20.2117009,22.2050337 C21.0149152,22.0812371 21.7818134,22.5843699 21.988095,23.3704584 C22.2048169,22.6232569 22.9371203,22.1483746 23.7077267,22.2553157 L24.257696,22.2553157 C24.8912452,22.1824909 25.509727,22.4827616 25.8443608,23.0256357 L25.7178746,22.3927531 L25.718098,22.3927531 L34.3951431,22.3927531 C34.4016238,22.2617965 34.4038586,22.1308399 34.4038586,21.9998832 C34.408442,18.6652139 33.0990036,15.4630125 30.7592225,13.0870101 C28.4574026,10.7219711 25.2972924,9.38786186 21.9970339,9.38786186 C18.6967755,9.38786186 15.5366653,10.7219711 13.2348454,13.0870101 C12.8555173,13.473531 12.505817,13.8782165 12.1857446,14.298229 L12.2043077,14.6778571 L12.2603077,15.055 L12.3529231,15.4107143 L12.4606154,15.76 L12.6006154,16.09 L12.7621538,16.4071429 L12.9323077,16.7178571 L13.1304615,17.0114286 L13.3372308,17.2921429 L13.5763077,17.575 L14.0673846,18.1192857 L14.5886154,18.6292857 L15.1270769,19.1478571 L15.6569231,19.6535714 L16.1867692,20.1721429 L16.6670769,20.7078571 L16.904,20.9907143 L17.1215385,21.2735714 L17.3218462,21.565 L17.492,21.8735714 L17.6621538,22.195 L17.7935385,22.5335714 L17.7981826,22.5488767 Z M22.2147237,8.50171829 C29.6047225,8.57457063 35.544463,14.6096038 35.4997492,21.9998787 C35.4997158,27.4795662 32.1873277,32.4156147 27.1164864,34.4924343 C22.0456452,36.5692538 16.222468,35.3747778 12.3787132,31.4693567 C8.53495838,27.5639356 7.43327414,21.7224529 9.59048058,16.6852544 C11.747687,11.6480558 16.7357679,8.41458362 22.2147237,8.50171829 Z M19.6550274,30.6486083 L19.6550274,30.6488318 C19.7421822,30.6488318 19.8405107,30.6488318 19.9386158,30.6575473 C20.3887136,30.720375 20.8462019,30.6155464 21.2240377,30.3630066 C21.4469046,30.0803436 21.5489293,29.7210055 21.5078496,29.3634007 L21.5078496,24.044684 C21.5504515,23.6863346 21.4482928,23.3258002 21.2240377,23.0430668 C20.9345929,22.8254679 20.5741269,22.7242082 20.2137121,22.7592529 L18.3588787,22.7592529 L18.3588787,34.0575034 C18.7845998,34.1909128 19.2172948,34.3009524 19.6550274,34.3871298 L19.6550274,30.6486083 Z M21.9988217,34.6139574 C22.0272029,34.6139574 22.0533494,34.6119461 22.0794958,34.6097114 C21.9452161,34.2895018 21.8812027,33.9442083 21.8917777,33.5971439 L21.8917777,30.3147359 C21.5749183,30.9335018 20.9028439,31.2857862 20.2137121,31.1943354 L20.2137121,34.4809895 C20.8046411,34.5694015 21.4013156,34.6138461 21.9988217,34.6139574 Z M25.5319443,26.8687438 L25.5319443,26.8689673 L25.5319443,24.1425662 C25.5700289,23.7764206 25.4722018,23.4090491 25.2570714,23.1103329 C24.7932104,22.8300335 24.2439103,22.7261861 23.709738,22.8178035 C23.3530163,22.7791177 22.9956089,22.8844181 22.7168434,23.1103329 C22.4982643,23.4076769 22.3971948,23.7752698 22.4330316,24.1425662 L22.4330316,33.5987083 C22.4020759,33.9495405 22.4913639,34.3004692 22.6862275,34.5938446 C23.6362986,34.5402148 24.5767853,34.3752028 25.4883669,34.1021985 C25.5186633,33.9352051 25.5332528,33.765741 25.5319443,33.5960266 L25.5319443,27.4131301 L24.258143,27.4131301 L24.258143,33.7846399 L23.7081737,33.7846399 L23.7081737,23.953059 L24.258143,23.953059 L24.258143,26.8687438 L25.5319443,26.8687438 Z M29.6130248,31.9449896 L29.6123544,31.94566 L29.6145892,31.94566 L29.6145892,27.632583 C29.7177499,27.1065451 29.4025126,26.5887069 28.887852,26.4387769 L29.6145892,22.9340108 L28.2614546,22.9340108 L28.0433441,26.7619225 L27.8882532,26.7619225 L27.6701427,22.9340108 L26.3869555,22.9340108 L27.0218448,26.4387769 C26.5221011,26.6062432 26.2191356,27.1131187 26.3082926,27.632583 L26.3082926,33.8262063 C26.7744547,33.6492272 27.2292668,33.4436871 27.6701427,33.2107548 L27.6701427,27.4777145 L28.2511748,27.4777145 L28.2511748,32.8878327 C28.7257881,32.6044994 29.1807688,32.2895048 29.6130248,31.9449896 Z M26.082137,26.4235806 L26.082137,26.4244745 C26.1937122,26.3258736 26.3234366,26.2499664 26.464054,26.200999 L26.082137,24.2478232 L26.082137,26.4235806 Z M30.0651126,26.7793536 L30.0651126,23.0540171 L29.4561462,26.200999 C29.7348848,26.2938918 29.9579784,26.5057708 30.0651126,26.7793536 Z M34.2856409,23.752378 L34.2863113,23.752378 L34.2843,23.752378 L34.2843,22.9076407 L30.6941916,22.9076407 L30.6941916,30.9804694 L30.764139,30.9149911 C31.2828494,30.3837171 31.7552045,29.8090817 32.1760471,29.1973584 L32.1760471,25.4568256 L32.8017741,25.4568256 L32.8017741,28.1870257 C33.3869167,27.1410282 33.8190436,26.0165269 34.0849613,24.8478549 C33.6459614,24.4702913 33.0565758,24.3178871 32.489581,24.4353191 L32.1753767,24.4353191 L32.1753767,23.9269124 L34.2617292,23.9269124 C34.2704446,23.8679149 34.2791601,23.8091408 34.2856409,23.752378 Z M19.6552508,29.5486619 L19.6552508,23.857188 L20.2139356,23.857188 L20.2139356,29.5486619 L19.6552508,29.5486619 Z" id="Combined-Shape" fill="#FFFFFF" fill-rule="nonzero"></path>
        <path d="M34.2898462,16.5494286 L26.5179077,16.5494286 C26.5100519,16.3719609 26.3631506,16.2321041 26.1846,16.2321041 C26.0060494,16.2321041 25.8591481,16.3719609 25.8512923,16.5494286 L25.5712923,16.5494286 C25.5345979,16.385937 25.402627,16.2604729 25.2368,16.2314286 C25.0723587,16.2631681 24.9416454,16.3874366 24.9023077,16.5494286 L24.6858462,16.5494286 C24.8567255,16.3214823 24.9495844,16.045003 24.9507692,15.7606429 C24.9644076,15.3834719 24.820375,15.0175342 24.5529307,14.7498708 C24.2854865,14.4822075 23.9185333,14.3367409 23.5393538,14.3480714 C22.7226468,14.3165347 22.0341791,14.9482112 21.9997846,15.7606429 C22.0599852,16.0887377 22.1820284,16.4025407 22.3594769,16.6855 C22.2096594,16.7192899 22.1056054,16.8548896 22.1123265,17.0075784 C22.1190475,17.1602673 22.2346178,17.2862981 22.3868308,17.3069286 C22.1920729,17.6111363 22.0611522,17.9513824 22.0019385,18.3072143 C22.0364481,19.119561 22.7248813,19.75111 23.5415077,19.7195714 C23.9206484,19.7308986 24.2875663,19.5854609 24.5550035,19.3178452 C24.8224408,19.0502295 24.9665004,18.6843488 24.9529231,18.3072143 C24.9520859,18.0233548 24.8590874,17.7473613 24.6877846,17.5203571 L24.9044615,17.5203571 C24.9154483,17.6961291 25.0619392,17.8330908 25.2389538,17.8330908 C25.4159685,17.8330908 25.5624594,17.6961291 25.5734462,17.5203571 L25.8510769,17.5203571 C25.8611267,17.6961851 26.0073695,17.8336432 26.1843846,17.8336432 C26.3613998,17.8336432 26.5076426,17.6961851 26.5176923,17.5203571 L32.2243077,17.5203571 L32.2243077,17.8362143 L31.9570154,17.8362143 L31.9570154,18.4724286 L32.2243077,18.4724286 L32.4765231,18.8219286 L31.9570154,18.7445714 L31.9570154,19.5982857 L32.4773846,19.5982857 L32.4773846,19.2112857 L33.2452308,19.2112857 L33.2452308,19.5985 L33.7647385,19.5985 L33.7647385,18.7447857 L33.2452308,18.8221429 L33.4976615,18.4726429 L33.7647385,18.4726429 L33.7647385,17.8364286 L33.4976615,17.8364286 L33.4976615,17.5205714 L34.2885538,17.5205714 C34.4926225,17.5171692 34.6559168,17.350981 34.6547077,17.1479286 L34.6547077,16.924 C34.6565512,16.8262521 34.6191935,16.7317978 34.5508906,16.6615112 C34.4825877,16.5912246 34.3889631,16.5508927 34.2907077,16.5494286 L34.2907077,16.5494286 L34.2898462,16.5494286 Z M23.7963077,16.4491429 C24.0547917,16.5198738 24.2339134,16.7537137 24.2339134,17.0204286 C24.2339134,17.2871435 24.0547917,17.5209833 23.7963077,17.5917143 L23.6657846,17.9035 C24.0043692,17.9035 24.3914154,17.9463571 24.3914154,18.3408571 C24.4056302,18.5709749 24.3209731,18.7962762 24.1585148,18.9606846 C23.9960565,19.125093 23.7710758,19.2131463 23.5395692,19.2029286 C23.030526,19.2315471 22.5932644,18.846988 22.5593538,18.3408571 C22.5593538,17.9682143 22.6961231,17.914 23.0726154,17.7925 L22.9632,17.5707143 L23.2031385,17.353 C23.0640455,17.2935096 22.9739072,17.1573431 22.9739072,17.0067143 C22.9739072,16.8560854 23.0640455,16.719919 23.2031385,16.6604286 L22.9948615,16.5035714 L23.0726154,16.2775 C22.6982769,16.1540714 22.5593538,16.1017857 22.5593538,15.727 C22.5925818,15.2205357 23.0302771,14.8355952 23.5395692,14.8649286 C23.77096,14.8551204 23.995695,14.9433041 24.1580597,15.1076177 C24.3204244,15.2719314 24.4052166,15.4969904 24.3914154,15.727 C24.3914154,16.1225714 24.0590769,16.1645714 23.6657846,16.1645714 L23.7963077,16.4491429 L23.7963077,16.4491429 L23.7963077,16.4491429 Z" id="Shape" fill="#FFFFFF" fill-rule="nonzero"></path>
        <polygon id="Path" fill-opacity="0.4" fill="#FFFFFF" fill-rule="nonzero" points="15 4 21 4 21 9 15 9"></polygon>
        <path d="M18.2652308,18.8071429 L21.16,15.9957143 L21.16,17.9135714 L18.2652308,20.7421429 L18.2652308,18.8071429 Z M18.2652308,11.7378571 L21.16,8.92428571 L21.16,10.8442857 L18.2652308,13.6728571 L18.2652308,11.7378571 Z M18.2652308,14.095 L21.16,11.2814286 L21.16,13.1992857 L18.2652308,16.03 L18.2652308,14.095 Z M18.2652308,16.4521429 L21.16,13.6364286 L21.16,15.5564286 L18.2652308,18.385 L18.2652308,16.4521429 Z M17.9809231,18.8071429 L17.9809231,20.7421429 L15.0861538,17.9135714 L15.0861538,15.9957143 L17.9809231,18.8071429 Z M17.9809231,11.7378571 L17.9809231,13.6728571 L15.0861538,10.8442857 L15.0861538,8.92428571 L17.9809231,11.7378571 Z M17.9809231,14.095 L17.9809231,16.03 L15.0861538,13.1992857 L15.0861538,11.2814286 L17.9809231,14.095 Z M17.9809231,16.4521429 L17.9809231,18.385 L15.0861538,15.5564286 L15.0861538,13.6364286 L17.9809231,16.4521429 Z M18.2652308,9.38071429 L21.16,6.56928571 L21.16,8.48714286 L18.2652308,11.3157143 L18.2652308,9.38071429 Z M17.9809231,9.38071429 L17.9809231,11.3157143 L15.0861538,8.48714286 L15.0861538,6.56928571 L17.9809231,9.38071429 Z" id="Shape" fill="#FFFFFF" fill-rule="nonzero"></path>
    </g>
</svg>