<?xml version="1.0" encoding="UTF-8"?>
<svg width="44px" height="44px" viewBox="0 0 44 44" version="1.1" xmlns="http://www.w3.org/2000/svg" xmlns:xlink="http://www.w3.org/1999/xlink">
    <!-- Generator: Sketch 54.1 (76490) - https://sketchapp.com -->
    <title>icons/banks/44/rs-mono</title>
    <desc>Created with Sketch.</desc>
    <g id="icons/banks/44/rs-mono" stroke="none" stroke-width="1" fill="none" fill-rule="evenodd">
        <path d="M22,37 C13.7157288,37 7,30.2842712 7,22 C7,13.7157288 13.7157288,7 22,7 C30.2842712,7 37,13.7157288 37,22 C37,30.2842712 30.2842712,37 22,37 Z M22,35.6451613 C29.5360145,35.6451613 35.6451613,29.5360145 35.6451613,22 C35.6451613,14.4639855 29.5360145,8.35483871 22,8.35483871 C14.4639855,8.35483871 8.35483871,14.4639855 8.35483871,22 C8.35483871,29.5360145 14.4639855,35.6451613 22,35.6451613 Z M15.9299373,24.2226839 C16.0488109,24.0757018 16.296796,23.86905 16.6238407,23.7070075 C17.0894764,23.4702348 18.4173724,23.3158179 19.1531755,23.3259217 C19.589235,23.3306876 19.8815845,23.5300952 20.0848261,23.7344594 C20.2876886,23.9386329 19.9386514,23.9685631 19.7647963,23.8215811 C19.589235,23.6770773 19.3958521,23.6273207 19.1926104,23.6273207 C18.9897479,23.6273207 18.7741829,23.7070075 18.6602386,23.7916509 C18.5436401,23.8812508 18.5140639,24.0009716 18.2241791,24.0854244 C17.8724876,24.1851282 17.4661939,23.8663811 17.4661939,23.8663811 C17.7511493,24.4070311 18.2414319,24.3894923 18.5140639,24.3223877 C18.7123762,24.2699622 18.7741829,24.1776933 19.0663427,24.1727367 C19.5319785,24.1653018 19.7354097,24.4369613 19.7354097,24.4369613 C19.1531755,24.4070311 18.1673018,24.7732471 17.6990118,24.8752385 C17.1167775,25.0048725 16.5644986,25.0222206 16.5644986,25.0222206 C16.9406474,25.4906187 17.4957701,25.4906187 17.9045285,25.4906187 C18.3108222,25.4906187 19.6188112,25.3933932 20.4042871,25.4606885 C21.3901608,25.5428536 22.1779118,26.1931206 22.1779118,27.157178 C22.1779118,28.1210449 21.5116887,28.6466345 21.5116887,28.6466345 C22.3540419,28.3852695 22.7034583,27.7125072 22.7034583,27.7125072 C23.1518413,29.4513184 22.2201906,30.8414523 21.367789,31.4093636 C20.6594767,31.8825277 18.5335918,32.3709428 16.9012124,31.5862759 C15.0953572,30.7167749 14.4115022,29.86996 14.4115022,29.86996 C18.3381233,30.1911854 20.2581124,29.0974939 20.2581124,29.0974939 C16.7104838,29.3043363 14.2357512,28.4024269 12.6352232,27.6976374 C11.9961116,26.6763885 11.5304759,25.5603923 11.2576543,24.3471706 L11.2576543,24.3496489 C14.1934724,26.5715374 16.7973165,26.9526232 16.7973165,26.9526232 C13.6262159,25.2265848 12.0482492,23.2935132 11,21.3659701 C11.0547918,20.2400608 11.2775614,19.1875472 11.6442305,18.1773552 L11.6516246,18.1598165 C12.8284165,21.3074442 14.1214278,22.2446217 14.1214278,22.2446217 C12.8407399,19.3171812 12.8505987,17.2209233 12.9671972,15.6414856 C13.457859,14.941462 14.0150672,14.3213159 14.6519037,13.7556923 L14.6615728,13.7444446 C14.1663609,16.554452 14.760729,18.3805756 14.760729,18.3805756 C14.760729,16.1583058 16.0019819,13.5141537 16.9905098,12.1665321 C17.617298,11.8514071 18.2217144,11.6184472 18.9080342,11.4253307 L18.9103093,11.4253307 C18.008614,12.5651566 17.612179,13.6710489 17.612179,13.6710489 C19.4629673,11.9000198 22.5273282,10.8362585 22.9929639,10.7165377 C23.4585996,10.6021548 24.7991983,10.1038265 25.1781909,10.0180393 C25.524953,9.93453976 25.6933099,10.156252 25.6711277,10.3680511 C25.6417411,10.643142 25.524953,11.1002925 25.524953,11.1002925 C26.5529159,11.3519349 26.9990238,11.8601764 26.9990238,11.8601764 C26.9595888,11.7231076 26.9791167,11.4890038 26.9791167,11.4890038 C28.3963101,12.756748 28.7826968,13.3610712 28.8225109,14.510429 C28.8621355,15.661312 29.364931,15.8370804 29.6550054,15.9926412 C29.9471653,16.1485833 30.6657155,16.5607431 30.8960687,16.7550034 C31.069355,16.9019855 30.9950353,17.0665063 30.8960687,17.1835582 C30.7995669,17.2992756 30.7995669,17.339119 30.7819349,17.4748534 C30.6951022,18.0726948 30.4300538,18.3142335 30.0633846,18.4490147 C29.6942508,18.5847491 29.2854924,18.3716156 29.2854924,18.3716156 C28.8793882,18.8201873 28.8024143,18.527367 28.7826968,18.3531237 C28.765444,18.1773552 28.5496893,18.3142335 28.3963101,18.3716156 C28.2402767,18.4301415 28.1832097,18.2160548 28.1832097,18.2160548 C27.4451316,18.1188293 27.1230163,18.5572972 27.1230163,18.5572972 C27.7645926,18.6444189 28.0865183,19.0828868 28.1138194,19.2584646 C28.1435852,19.4378551 28.43347,19.3171812 28.43347,19.3171812 C28.43347,19.3171812 28.4609607,19.2584646 28.5798343,19.2012731 C28.6960537,19.1425565 28.7258195,19.1713429 28.6960537,19.3171812 C28.6664774,19.4626381 28.6365221,19.5810244 28.6365221,19.5810244 L28.9588269,19.7867231 C28.8397637,20.5776811 28.4931912,20.5437475 28.3170611,20.4579603 C27.1996111,19.8963401 25.205492,19.7867231 25.205492,19.7867231 C25.3217113,19.6109547 25.6017374,19.3856203 25.6017374,19.3856203 C20.4833466,19.3856203 19.6188112,20.010723 19.3564171,20.3409084 C19.1753576,20.5700555 19.3313911,20.9250239 19.3313911,20.9250239 C18.7220453,21.0422664 17.1761195,21.4345999 16.5840265,21.9805878 C16.0143053,22.503699 15.8237662,23.7317905 15.8036696,24.1851282 C15.7989298,24.2798754 15.8905023,24.2773971 15.9299373,24.2226839 Z M28.0865183,14.0048564 C27.9875517,14.7733191 27.7075257,14.70488 27.581258,14.6675149 C27.4451316,14.6276715 27.4079718,14.5702894 26.9990238,14.5317805 C26.8701018,14.519389 26.2734586,14.4520937 26.59273,14.70488 C27.105574,15.1170398 27.5414439,15.9541323 27.5414439,15.9541323 C27.6009755,15.681329 27.4623844,15.2916644 27.3880647,15.1557394 C27.3112803,15.0175267 27.4079718,14.9801616 27.5018193,14.9988441 C27.6009755,15.0175267 27.6557673,15.0548918 27.8339829,15.1557394 C28.0074588,15.2516304 28.1236781,15.2342823 28.1634923,14.9988441 C28.1957228,14.7956238 28.185864,14.3811763 28.1460499,14.0061909 C28.1409309,13.978739 28.0965666,13.9652037 28.0865183,14.0048564 Z M23.5653394,13.0657726 C22.5569044,13.8866607 20.8972239,15.8496625 20.1144023,17.6891307 C20.0548707,17.8261996 20.1144023,17.8473605 20.3075956,17.7291648 C20.5032537,17.6107784 21.0655808,17.339119 21.3357482,17.2607666 C21.3357482,17.2607666 21.0433987,18.2795373 20.9467072,18.8411575 C20.8699228,19.3034552 21.2515697,19.2672339 21.4895065,19.2123301 C21.7272538,19.1587608 22.7131275,19.1152953 22.8864137,19.0941344 C22.8864137,19.0941344 21.9750493,18.8785226 21.8783579,18.5075406 C21.7816664,18.1388463 22.0417854,17.314336 22.2273951,16.7550034 C22.2673988,16.6354733 22.2078672,16.4623738 22.0144843,16.5382478 C21.8188263,16.6156469 21.5488485,16.6739822 21.4127221,16.7550034 C21.4127221,16.7550034 22.2673988,14.6476885 23.5852465,13.1254423 L23.5653394,13.0657726 Z M24.8460273,10.9620798 C24.9032838,10.8974534 24.8460273,10.8448373 24.6926481,10.9433972 C24.536425,11.0392883 23.8525699,11.4527826 23.3918636,12.2288708 C23.3351758,12.3270494 23.3696814,12.4728877 23.6148227,12.3882443 C23.9147558,12.2822495 24.2243581,12.2288708 24.3604845,12.2088538 C24.4969901,12.1888367 24.4969901,12.0929457 24.4004882,12.0555806 C24.3037967,12.0145934 24.281425,11.9770377 24.3235142,11.8203331 C24.3604845,11.6645816 24.6331165,11.2150567 24.8460273,10.9620798 Z M29.9886642,30.5908678 L30,30.5830382 C29.4015528,31.1177999 28.7590456,31.5883588 28.0517316,32 C28.2055141,31.7392743 28.7477098,30.3121341 27.7642716,28.4269623 C26.7774113,26.5470755 25.4412786,25.5239426 24.1504892,24.723366 C22.8618387,23.9229852 20.7602155,23.3191274 20.3437836,23.2014876 C19.9301321,23.0813033 19.9523761,22.9611189 20.0392129,22.7207502 C20.1258359,22.4801858 20.5200239,21.9207609 20.5200239,21.9207609 C20.3437836,21.938769 19.8631865,22.0793103 19.6255615,22.1803121 C19.3823755,22.2801395 19.1868856,22.2597826 19.119726,22.1994946 C18.6780558,21.7943129 19.600537,21 19.600537,21 C19.6255615,21.2787337 19.7316479,21.4194708 20.1900011,21.3580084 C20.6511348,21.3006566 22.1829712,21.1777319 22.5322437,21.1777319 C22.5322437,21.1777319 20.8692963,22.358044 20.5839752,22.7589195 C20.3020762,23.160578 20.7602155,23.0813033 20.9809437,23.1224087 C21.1988914,23.160578 22.806015,23.242593 24.3487596,23.8818798 C25.1341413,24.2068082 26.1903,24.953752 26.7996552,25.6210296 C27.0176029,25.8641387 27.5655735,26.4627115 27.8061928,26.6441625 C27.8061928,26.6441625 26.9311938,26.5239781 26.4698462,26.2836094 C26.4698462,26.2836094 26.9450963,26.7823549 27.2665638,27.1378187 C28.0545121,28.0100361 29.4742734,29.015161 29.9886642,30.5908678 Z M31,26.2158174 C30.7883096,26.8430061 30.5359028,27.4318316 30.2336358,28 C29.1201477,24.4216014 26,23 26,23 C28.186605,23.5809561 29.9791588,25.2699193 31,26.2158174 Z M23.6009827,32.5293483 L23.5972528,32.5318518 C23.0948656,32.7533123 22.539973,32.914497 22,33 C23.9213227,31.7592436 23.8616445,28 23.8616445,28 C24.1839928,29.5977892 23.8785724,31.6614158 23.6009827,32.5293483 Z M32.9974275,22.3742259 C33,22.4397745 33,22.4723401 33,22.5322525 C33,23.025955 32.9691303,23.5090112 32.9174829,23.9807947 L32.9174829,24 C30.9626002,22.0433512 29,21.1473801 29,21.1473801 C29.8479272,21.2755549 30.86168,21.1895484 31.5285446,21 C31.5285446,21 31.2443851,21.5538237 30.5357673,21.5947394 C30.5357673,21.5947394 32.6537054,22.227472 32.9974275,22.3742259 Z" id="Combined-Shape" fill="#FFFFFF"></path>
    </g>
</svg>