<?xml version="1.0" encoding="UTF-8"?>
<svg width="44px" height="44px" viewBox="0 0 44 44" version="1.1" xmlns="http://www.w3.org/2000/svg" xmlns:xlink="http://www.w3.org/1999/xlink">
    <!-- Generator: Sketch 54.1 (76490) - https://sketchapp.com -->
    <title>icons/banks/44/sber-mono</title>
    <desc>Created with Sketch.</desc>
    <g id="icons/banks/44/sber-mono" stroke="none" stroke-width="1" fill="none" fill-rule="evenodd">
        <path d="M17.1384814,17.192042 L11.5568164,14.0232698 C11.846852,13.6299383 12.1585761,13.2526233 12.4905793,12.8930307 L17.1384814,15.5302551 L27.4835571,9.56496732 C28.0496796,9.794853 28.5990927,10.0628995 29.1279021,10.3672068 L17.1384814,17.192042 Z M17.1384814,20.5148737 L10.1057271,16.5253956 C10.3003434,16.0839454 10.5193397,15.6533485 10.7617307,15.235542 L17.1384814,18.8547737 L30.5067343,11.2770229 C30.8892139,11.5650272 31.2557737,11.8730424 31.6048371,12.1997439 L17.1384814,20.5148737 Z M34.2761657,15.6885317 L34.2761657,15.6885063 C36.8405401,20.5528448 36.0928442,26.4740679 32.3971228,30.5691969 C28.7014015,34.6643259 22.8257273,36.0822805 17.6309016,34.132674 C12.4360759,32.1830676 9.00172629,27.2710821 9,21.7883093 C9.00050143,21.4899096 9.01064143,21.1939746 9.03042,20.9005044 L17.1384814,25.5009444 L34.2761657,15.6885317 Z M17.1384814,23.8402546 L9.22813714,19.3510629 C9.32109463,18.8594101 9.44245601,18.3733988 9.59162786,17.8954054 L17.1384814,22.1759566 L32.6972379,13.3488551 C32.9974156,13.7050021 33.2784763,14.0764146 33.539265,14.4615663 L17.1384814,23.8402546 Z" id="Combined-Shape" fill="#FFFFFF" fill-rule="nonzero"></path>
    </g>
</svg>