<?xml version="1.0" encoding="UTF-8"?>
<svg width="44px" height="44px" viewBox="0 0 44 44" version="1.1" xmlns="http://www.w3.org/2000/svg" xmlns:xlink="http://www.w3.org/1999/xlink">
    <!-- Generator: Sketch 54.1 (76490) - https://sketchapp.com -->
    <title>icons/banks/44/skbbank-mono</title>
    <desc>Created with Sketch.</desc>
    <g id="icons/banks/44/skbbank-mono" stroke="none" stroke-width="1" fill="none" fill-rule="evenodd">
        <path d="M37,7.57310081 C33.8964735,9.48521595 31.8275862,12.9147938 31.8275862,16.8275862 C31.8275862,20.7403786 33.8964735,24.1699565 37,26.0820716 L37,26.6551724 L27.1724138,26.6551724 L18.8965517,16.8275862 L27.1724138,7 L37,7 L37,7.57310081 Z M26.6551724,19.9310345 C28.3691596,19.9310345 29.7586207,18.5415734 29.7586207,16.8275862 C29.7586207,15.1135991 28.3691596,13.7241379 26.6551724,13.7241379 C24.9411853,13.7241379 23.5517241,15.1135991 23.5517241,16.8275862 C23.5517241,18.5415734 24.9411853,19.9310345 26.6551724,19.9310345 Z M7,17.9179284 L7,17.3448276 L16.8275862,17.3448276 L25.1034483,27.1724138 L16.8275862,37 L7,37 L7,36.4268992 C10.1035265,34.5147841 12.1724138,31.0852062 12.1724138,27.1724138 C12.1724138,23.2596214 10.1035265,19.8300435 7,17.9179284 Z M17.3448276,30.2758621 C19.0588147,30.2758621 20.4482759,28.8864009 20.4482759,27.1724138 C20.4482759,25.4584266 19.0588147,24.0689655 17.3448276,24.0689655 C15.6308404,24.0689655 14.2413793,25.4584266 14.2413793,27.1724138 C14.2413793,28.8864009 15.6308404,30.2758621 17.3448276,30.2758621 Z" id="Combined-Shape" fill="#FFFFFF"></path>
    </g>
</svg>