<?xml version="1.0" encoding="UTF-8"?>
<svg width="44px" height="44px" viewBox="0 0 44 44" version="1.1" xmlns="http://www.w3.org/2000/svg" xmlns:xlink="http://www.w3.org/1999/xlink">
    <!-- Generator: Sketch 54.1 (76490) - https://sketchapp.com -->
    <title>icons/banks/44/skbbank</title>
    <desc>Created with Sketch.</desc>
    <g id="icons/banks/44/skbbank" stroke="none" stroke-width="1" fill="none" fill-rule="evenodd">
        <path d="M37,7.57310081 C33.8964735,9.48521595 31.8275862,12.9147938 31.8275862,16.8275862 C31.8275862,20.7403786 33.8964735,24.1699565 37,26.0820716 L37,26.6551724 L27.1724138,26.6551724 L18.8965517,16.8275862 L27.1724138,7 L37,7 L37,7.57310081 Z M26.6551724,19.9310345 C28.3691596,19.9310345 29.7586207,18.5415734 29.7586207,16.8275862 C29.7586207,15.1135991 28.3691596,13.7241379 26.6551724,13.7241379 C24.9411853,13.7241379 23.5517241,15.1135991 23.5517241,16.8275862 C23.5517241,18.5415734 24.9411853,19.9310345 26.6551724,19.9310345 Z" id="Combined-Shape" fill="#F45E40"></path>
        <path d="M25.1034483,17.9179284 C21.9999218,19.8300435 19.9310345,23.2596214 19.9310345,27.1724138 C19.9310345,31.0852062 21.9999218,34.5147841 25.1034483,36.4268992 L25.1034483,37 L15.2758621,37 L7,27.1724138 L15.2758621,17.3448276 L25.1034483,17.3448276 L25.1034483,17.9179284 Z M14.7586207,30.2758621 C16.4726078,30.2758621 17.862069,28.8864009 17.862069,27.1724138 C17.862069,25.4584266 16.4726078,24.0689655 14.7586207,24.0689655 C13.0446335,24.0689655 11.6551724,25.4584266 11.6551724,27.1724138 C11.6551724,28.8864009 13.0446335,30.2758621 14.7586207,30.2758621 Z" id="Combined-Shape" fill="#00673C" transform="translate(16.051724, 27.172414) scale(-1, 1) translate(-16.051724, -27.172414) "></path>
    </g>
</svg>