<?xml version="1.0" encoding="UTF-8"?>
<svg width="44px" height="44px" viewBox="0 0 44 44" version="1.1" xmlns="http://www.w3.org/2000/svg" xmlns:xlink="http://www.w3.org/1999/xlink">
    <!-- Generator: Sketch 54.1 (76490) - https://sketchapp.com -->
    <title>icons/banks/44/smpbank-mono</title>
    <desc>Created with Sketch.</desc>
    <g id="icons/banks/44/smpbank-mono" stroke="none" stroke-width="1" fill="none" fill-rule="evenodd">
        <path d="M33.9527941,35.7963649 C34.0127941,35.8254825 34.1014706,35.8673943 34.1619118,35.8965119 C34.0639706,35.849306 33.9947059,35.8171002 33.9527941,35.7963649 Z M36.6430882,36.771806 C36.4763235,36.951806 34.2258824,35.9273943 34.2258824,35.9273943 C34.2554412,35.946806 34.2911765,35.9697472 34.3273529,35.9940119 C34.7698529,36.2498943 35.4730882,36.6178355 35.2101471,36.9169531 C35.0782353,37.064306 34.7808824,36.9990119 33.9227941,36.5128355 C33.52,36.2834237 31.4133824,35.464159 29.2352941,34.6029825 C27.4383824,33.8746002 24.1754412,32.5554825 23.8838235,32.2532766 C23.875,32.2431296 23.8675,32.2360708 23.86,32.2250413 C23.8291176,32.1782766 23.8004412,32.1200413 23.7704412,32.0609237 C23.6583824,31.8248943 23.545,31.4635708 23.4338235,31.009159 C23.4298529,30.994159 23.4263235,30.9813649 23.4227941,30.9659237 C23.4161765,30.9381296 23.4095588,30.9085708 23.4029412,30.8812178 C23.2701471,30.2781296 23.1505882,29.5404825 23.0195588,28.7247472 C22.6352941,26.2475413 22.2426471,22.5611149 22.2426471,22.5611149 C22.2426471,22.5611149 22.1438235,20.050909 21.8897059,18.8530266 C21.8398529,18.6252031 21.7825,18.465409 21.7388235,18.3518502 C21.7211765,18.2920708 21.6995588,18.2320708 21.6770588,18.1745413 C21.6761765,18.1738355 21.6744118,18.1703943 21.6744118,18.1684972 C21.6744118,18.1693796 21.6744118,18.1703943 21.6744118,18.1703943 C21.5875,17.9480855 21.4697059,17.7387031 21.3060294,17.5742766 C20.8030882,17.0593355 19.5651471,17.2237619 19.2232353,17.2633796 C18.4238235,17.3547472 17.6402941,17.8756884 17.5317647,18.013556 C17.4276471,18.1538502 16.8752941,18.844556 16.1658824,18.9088355 C15.9563235,18.9272766 15.0982353,18.7870266 14.8167647,18.7951002 C14.5344118,18.8037031 14.1404412,19.1740708 13.6957353,19.2183649 C13.2430882,19.2704237 12.5235294,18.8469825 12.5235294,18.8469825 C12.5235294,18.8469825 14.2922059,18.2320708 14.5083824,17.9549678 C14.7232353,17.6749531 15.2544118,16.9747178 15.8985294,16.7005708 C16.5426471,16.4258502 18.7930882,14.0533355 18.7930882,14.0533355 C18.7930882,14.0533355 19.2519118,13.6173208 20.0147059,13.0460413 C19.3480882,12.8271737 18.6452941,12.672056 17.9151471,12.5974531 C12.8822059,12.0826884 8.58338235,15.1684972 8.02088235,19.7615413 C7.89558824,20.7688355 7.97014706,21.7696002 8.23573529,22.7258943 C8.54720588,23.8784678 9.025,24.9848502 9.86323529,25.9426884 C11.3905882,27.6954825 13.4813235,28.841659 15.9205882,29.0882766 C17.4073529,29.241806 18.9192647,29.0287178 20.3076471,28.5231296 C20.2970588,28.6709237 20.2860294,28.8169531 20.2767647,28.9629825 C18.8839706,29.4553355 17.3720588,29.6397472 15.8460294,29.481806 C13.3423529,29.2250413 11.0994118,28.0965119 9.52970588,26.2978355 C8.41352941,25.0277766 7.73676471,23.5258796 7.53470588,21.9438208 C7.49323529,21.7251296 7.48794118,21.5672766 7.46147059,21.2796737 C7.41691176,20.7417913 7.43191176,19.7196737 7.49985294,19.1630413 C8.07161765,14.5031149 12.6704412,11.1486296 17.7757353,11.670806 C18.865,11.7819384 19.8916176,12.0611149 20.8189706,12.4729972 C21.5605882,11.9818796 22.4530882,11.4614237 23.4245588,11.0701884 C25.8263235,10.0942619 28.7733824,9.98965899 29.4294118,9.9147031 C30.8041176,9.75098252 32.0354412,8.14567369 32.4192647,7.82515899 C32.7951471,7.50839428 35.3711765,8.01212957 35.3711765,8.01212957 C35.3711765,8.01212957 35.1858824,8.49415899 35.0782353,9.11110016 C34.9705882,9.72685016 34.2342647,10.004306 34.0904412,10.1637472 C33.9452941,10.3214237 30.6316176,11.702659 30.1008824,12.0089237 C29.5754412,12.3122325 28.9070588,12.9477913 28.2139706,14.0243502 C27.5305882,15.1051002 27.8204412,15.9102472 27.9338235,16.113056 C28.0560294,16.3138355 28.3220588,16.356409 28.4769118,16.6238502 C28.6392647,16.8937178 28.5104412,16.9145855 28.4945588,17.0510855 C28.4813235,17.1889531 28.5386765,17.289056 28.6798529,17.5244678 C28.8219118,17.758159 28.7632353,17.7378208 28.7632353,17.7378208 C28.7632353,17.7378208 28.7632353,17.7378208 28.7936765,18.0299237 C28.8227941,18.3222031 28.7936765,18.0299237 28.8545588,18.1291884 C28.9123529,18.2320708 28.9123529,18.2320708 28.9123529,18.2320708 C28.9123529,18.2320708 28.8973529,18.3713502 28.9591176,18.4714531 C29.0169118,18.5695266 28.8872059,18.674659 28.9123529,18.7951002 C28.9379412,18.9135119 28.9705882,18.895909 29.02,19.1304825 C29.0623529,19.3689825 29.0398529,19.2519825 29.0482353,19.5061443 C29.0623529,19.7615413 29.1285294,19.643659 29.2697059,19.788806 C29.4007353,19.9394237 29.1285294,20.1227766 29.1285294,20.1227766 C29.1285294,20.1227766 29.1475,20.2370413 29.3733824,20.6888943 C29.5957353,21.1454237 29.3733824,20.6888943 29.4360294,20.8729531 C29.5004412,21.0616443 29.3575,21.2207325 29.3275,21.4033796 C29.2970588,21.5981149 29.3530882,21.5290266 29.395,21.763556 C29.4369118,22.0017472 29.395,21.763556 29.4770588,21.9831296 C29.5573529,22.2007619 29.5247059,22.3058943 29.5247059,22.3058943 L29.3733824,22.7703649 C29.3733824,22.7703649 29.3733824,22.7703649 29.4532353,22.9025413 C29.5344118,23.0389972 29.4510294,23.2985413 29.4510294,23.2985413 L29.2441176,23.8329825 C29.2441176,23.8329825 29.2525,24.0876737 29.2780882,24.2072766 C29.3005882,24.3282472 29.0954412,24.8612766 29.0954412,24.8612766 L29.2273529,25.4026002 L29.035,26.189306 L28.9079412,26.8590119 C28.9079412,26.8590119 28.8863235,27.8679825 28.8854412,28.2601884 C28.8761765,28.6501884 28.8761765,29.1257766 28.9538235,29.6560708 C29.0266176,30.1828355 30.6916176,30.8273943 30.8729412,31.1340119 C31.0480882,31.4335708 29.8622059,31.1106296 29.8622059,31.1106296 C29.8622059,31.1106296 31.9547059,31.6779825 32.0976471,31.9171002 C32.2052941,32.0962178 30.73,31.8315119 30.73,31.8315119 C30.5989706,31.8085708 30.73,31.8315119 30.73,31.8315119 C31.2995588,31.949306 32.8075,32.2881296 33.3219118,32.6931296 C33.9011765,33.1660708 32.3072059,32.8025413 32.0508824,32.7390119 C32.3120588,32.8038649 34.0661765,33.239306 34.3079412,33.7228355 C34.4491176,34.0003355 32.9963235,33.7987178 32.9963235,33.7987178 C33.7225,33.9703355 34.5876471,34.2050413 35.1175,34.4503355 C36.1617647,34.9285708 36.2226471,35.2912178 36.0122059,35.3926884 C35.8008824,35.494159 34.0772059,34.961659 34.0772059,34.961659 C34.0375,34.9488649 34.0158824,34.941806 33.9872059,34.9325413 C34.0357353,34.9488649 34.0772059,34.961659 34.0772059,34.961659 C34.5752941,35.1372472 35.125,35.3525413 35.4422059,35.5471002 C36.1079412,35.951659 36.9285294,36.4554825 36.6430882,36.771806 L36.6430882,36.771806 Z" id="path36" fill="#FFFFFF" fill-rule="nonzero" transform="translate(22.068755, 22.353550) scale(1, -1) translate(-22.068755, -22.353550) "></path>
        <path d="M10.5055882,15.7337411 L12.1895588,17.9188882 L10.1354412,16.0478588 L9.19705882,19.200947 L9.36161765,15.9962411 L7.63926471,17.0383 L9.21117647,15.548447 L7.01852941,14.9956529 L9.24073529,15.0975647 L7.40367647,12.7513 L9.58882353,14.7388882 L10.4919118,11.8241235 L10.3348529,14.7322705 L11.9897059,13.7477411 L10.3944118,15.2585941 L12.5914706,15.8308 L10.5055882,15.7337411 L10.5055882,15.7337411 Z M32.1885294,26.5024176 C32.0261765,26.6740352 30.9589706,26.1794764 30.9589706,26.1794764 C30.9589706,26.1794764 24.4542647,23.3202117 21.5866176,21.8996235 C20.9694118,21.5947705 20.2057353,21.1138882 20.2,20.1935941 C20.1858824,17.2368294 20.8225,12.8826382 21.1441176,10.5910794 C21.4657353,8.29850583 21.6845588,7.34759407 21.6744118,7.27175583 C21.6854412,7.35174113 21.8041176,7.55525583 21.8897059,7.95628525 C22.1438235,9.1541676 22.2426471,11.6643735 22.2426471,11.6643735 C22.2426471,11.6643735 22.6352941,15.3508 23.0195588,17.8280058 C23.2825,19.4771235 23.5070588,20.8085941 23.8666176,21.3393294 C24.0986765,21.6777117 29.3482353,23.7380058 30.2641176,24.1280058 C31.3829412,24.6044764 31.5077941,24.7297705 31.5302941,25.0703588 C31.5536765,25.4113882 30.3598529,25.0328588 30.3598529,25.0328588 C30.3598529,25.0328588 31.3891176,25.5402117 31.7623529,25.7819764 C32.1408824,26.0202117 32.3508824,26.3316823 32.1885294,26.5024176 L32.1885294,26.5024176 Z" id="path38" fill="#FFFFFF" fill-rule="nonzero" transform="translate(19.631239, 16.905179) scale(1, -1) translate(-19.631239, -16.905179) "></path>
    </g>
</svg>