<?xml version="1.0" encoding="UTF-8"?>
<svg width="44px" height="44px" viewBox="0 0 44 44" version="1.1" xmlns="http://www.w3.org/2000/svg" xmlns:xlink="http://www.w3.org/1999/xlink">
    <!-- Generator: Sketch 54.1 (76490) - https://sketchapp.com -->
    <title>icons/banks/44/snbank-mono</title>
    <desc>Created with Sketch.</desc>
    <g id="icons/banks/44/snbank-mono" stroke="none" stroke-width="1" fill="none" fill-rule="evenodd">
        <path d="M18.941343,15.9378222 L18.941343,8.5 C20.1080096,8.16666667 21.2746763,8 22.441343,8 C23.6080096,8 24.7746763,8.16666667 25.941343,8.5 L25.941343,15.9378222 L32.3826859,12.2189111 C33.2546944,13.0626074 33.9823653,13.989637 34.5656986,15 C35.1490319,16.010363 35.5880277,17.1040593 35.8826859,18.2810889 L29.441343,22 L35.8826859,25.7189111 C35.5880277,26.8959407 35.1490319,27.989637 34.5656986,29 C33.9823653,30.010363 33.2546944,30.9373926 32.3826859,31.7810889 L25.941343,28.0621778 L25.941343,35.5 C24.7746763,35.8333333 23.6080096,36 22.441343,36 C21.2746763,36 20.1080096,35.8333333 18.941343,35.5 L18.941343,28.0621778 L12.5,31.7810889 C11.6279915,30.9373926 10.9003206,30.010363 10.3169873,29 C9.73365396,27.989637 9.2946582,26.8959407 9,25.7189111 L15.441343,22 L9,18.2810889 C9.2946582,17.1040593 9.73365396,16.010363 10.3169873,15 C10.9003206,13.989637 11.6279915,13.0626074 12.5,12.2189111 L18.941343,15.9378222 Z M17,21.9543457 L22.4796143,25.4523926 L28.0830078,21.9543457 C26.4337565,21.3181152 25.2392171,21 24.4993896,21 C23.3896484,21 22.0475058,22.2564388 20.5134277,22.4516602 C19.490709,22.5818077 18.3195664,22.4160362 17,21.9543457 Z" id="Combined-Shape" fill="#FFFFFF"></path>
    </g>
</svg>