<?xml version="1.0" encoding="UTF-8"?>
<svg width="44px" height="44px" viewBox="0 0 44 44" version="1.1" xmlns="http://www.w3.org/2000/svg" xmlns:xlink="http://www.w3.org/1999/xlink">
    <!-- Generator: Sketch 54.1 (76490) - https://sketchapp.com -->
    <title>icons/banks/44/sovcombank-mono</title>
    <desc>Created with Sketch.</desc>
    <g id="icons/banks/44/sovcombank-mono" stroke="none" stroke-width="1" fill="none" fill-rule="evenodd">
        <path d="M21.9644444,31.1571429 C16.8353535,31.1571429 12.6565657,27 12.6565657,21.8957143 C12.6565657,16.7914286 16.8339394,12.6328571 21.9616162,12.6328571 L22.5442424,12.6328571 L22.5442424,7 L21.9630303,7 C13.7157576,7 7,13.6842857 7,21.8942857 C7,30.1585714 13.7157576,36.8428571 21.9644444,36.8428571 L22.5456566,36.8428571 L22.5456566,31.16 L21.9644444,31.16 L21.9644444,31.1571429 Z" id="Path" fill="#FFFFFF" fill-rule="nonzero"></path>
        <path d="M24.9779798,15.0528571 L21.9644444,15.0528571 C18.1575758,15.0528571 15.090303,18.1057143 15.090303,21.8957143 C15.090303,25.6842857 18.1575758,28.7371429 21.9630303,28.7371429 L24.9779798,28.7371429 L24.9779798,36.4742857 C31.8507071,35.1585714 37,29.1585714 37,21.8942857 C37,14.6842857 31.8521212,8.68428571 24.9779798,7.31571429 L24.9779798,15.0528571 Z" id="Path" fill="#FFFFFF" fill-rule="nonzero" opacity="0.699999988"></path>
    </g>
</svg>