<?xml version="1.0" encoding="UTF-8"?>
<svg width="44px" height="44px" viewBox="0 0 44 44" version="1.1" xmlns="http://www.w3.org/2000/svg" xmlns:xlink="http://www.w3.org/1999/xlink">
    <!-- Generator: Sketch 54.1 (76490) - https://sketchapp.com -->
    <title>icons/banks/44/spb-mono</title>
    <desc>Created with Sketch.</desc>
    <g id="icons/banks/44/spb-mono" stroke="none" stroke-width="1" fill="none" fill-rule="evenodd">
        <path d="M30.3395892,18.2753158 C28.7954782,22.68135 23.9939433,24.9936797 19.6149981,23.440079 C15.2360529,21.8864782 12.9378752,17.0552499 14.4818444,12.6491654 C16.0258136,8.24308082 20.827274,5.93059461 25.2062692,7.48405263 C29.5846505,9.03849444 31.8825537,13.8691456 30.3395892,18.2753158 Z" id="Shape" fill="#FFFFFF" fill-rule="nonzero"></path>
        <path d="M30.8174723,29.2450789 L30.8200877,30.1016053 C30.8239323,31.7264474 27.0643954,33.0593158 22.4222446,33.0775526 C17.7800677,33.0927105 14.0089708,31.7860526 14.00374,30.1615 L14.0011246,29.3054474 L30.8174723,29.2450789 Z" id="Shape" fill="#FFFFFF" fill-rule="nonzero"></path>
        <path d="M30.8174723,29.2450789 C30.8227031,30.8724474 27.0632185,32.2032895 22.4184785,32.2203684 C17.7763015,32.2368158 14.0050477,30.9320789 14.0010985,29.3054474 C13.9958677,27.6801316 17.7553523,26.3459737 22.3988108,26.3302895 C27.0409877,26.3143421 30.8122154,27.6197368 30.8174723,29.2450789 Z" id="Shape" fill="#FFFFFF" fill-rule="nonzero"></path>
        <path d="M14.0037923,35.7857105 C14.0037923,35.5464737 17.7658138,35.3113158 22.4131169,35.3113158 C27.0552938,35.3113158 30.82014,35.5464737 30.82014,35.7857105 L30.82014,36.2948158 C30.82014,36.5293158 27.0552938,36.7658684 22.4131169,36.7658684 C17.7658138,36.7658684 14.0037923,36.5292895 14.0037923,36.2948158 L14.0037923,35.7857105 Z" id="Shape" fill="#FFFFFF" fill-rule="nonzero"></path>
    </g>
</svg>