<?xml version="1.0" encoding="UTF-8"?>
<svg width="44px" height="44px" viewBox="0 0 44 44" version="1.1" xmlns="http://www.w3.org/2000/svg" xmlns:xlink="http://www.w3.org/1999/xlink">
    <!-- Generator: Sketch 54.1 (76490) - https://sketchapp.com -->
    <title>icons/banks/44/surgutneftegas</title>
    <desc>Created with Sketch.</desc>
    <g id="icons/banks/44/surgutneftegas" stroke="none" stroke-width="1" fill="none" fill-rule="evenodd">
        <path d="M17.8685405,25.9288421 L21.340973,25.9254737 C22.0121081,25.9254737 22.6071351,25.7444211 23.0637838,25.4412632 C23.5498378,25.1364211 23.9139459,24.6833684 24.1301622,24.1688421 L25.916973,19.4168421 L22.5664865,19.4185263 C21.8988108,19.4185263 21.3055135,19.5389474 20.8211892,19.8446316 C20.3031351,20.1477895 19.8663784,20.7204211 19.7340541,21.1456842 L17.8685405,25.9288421 Z" id="Shape" fill="#FDB913" fill-rule="nonzero"></path>
        <path d="M26.7541622,23.2113684 L26.0363243,24.9671579 C25.7292973,25.6332632 25.1714595,26.36 24.8108108,26.6025263 C24.1085405,27.1162105 23.1035676,27.5709474 22.0077838,27.5734737 L15.3682162,27.5793684 L17.1636757,22.1385263 L17.8815135,20.3827368 C18.1885405,19.7166316 18.7455135,18.9898947 19.1035676,18.7465263 C19.8101622,18.2336842 20.8108108,17.7772632 21.9074595,17.7772632 L28.1612973,17.7705263 L26.7541622,23.2113684 Z M37.1368649,15.1002105 L16.1197838,15.1002105 C14.9608649,15.1002105 13.4101622,15.4244211 12.1232432,16.3035789 C10.940973,17.1515789 10.7143784,17.9364211 10.2585946,18.8467368 C10.1816216,19.0269474 10.0363243,19.2694737 9.97059459,19.4825263 L7.17091385,27.3320513 L6.21264358,29.9973145 L27.8515625,29.9973145 C29.0078868,29.9956302 30.5603193,29.673946 31.848103,28.793946 C33.0251841,27.945946 33.2586976,27.1585776 33.7084274,26.2516302 C33.7871301,26.0688934 33.9341571,25.8263671 33.9998868,25.6158408 L37.1368649,15.1507368 L37.1368649,15.1002105 Z" id="Shape" fill="#004282" fill-rule="nonzero"></path>
    </g>
</svg>