<?xml version="1.0" encoding="UTF-8"?>
<svg width="44px" height="44px" viewBox="0 0 44 44" version="1.1" xmlns="http://www.w3.org/2000/svg" xmlns:xlink="http://www.w3.org/1999/xlink">
    <!-- Generator: Sketch 54.1 (76490) - https://sketchapp.com -->
    <title>icons/banks/44/sviaz-bank-mono</title>
    <desc>Created with Sketch.</desc>
    <g id="icons/banks/44/sviaz-bank-mono" stroke="none" stroke-width="1" fill="none" fill-rule="evenodd">
        <path d="M26.1559252,26.1621622 L16.0810811,26.1621622 C15.8616566,26.1621622 15.6440498,26.1543799 15.4285216,26.1390762 C15.0723057,21.9508449 11.8734719,18.5732035 7.76923077,17.9433626 L7.76923077,17.8378378 L27.8003136,17.8378378 C28.1680401,22.2952194 31.7549382,25.8398065 36.2307692,26.1413606 L36.2307692,26.1621622 L26.1559252,26.1621622 L16.0810811,26.1621622 C11.0657385,26.1621622 7,22.0964237 7,17.0810811 C7,12.0657385 11.0657385,8 16.0810811,8 L36.2307692,8 L36.2307692,8.02080155 C31.5043774,8.33923691 27.7692308,12.2739639 27.7692308,17.0810811 C27.7692308,21.8881983 31.5043774,25.8229252 36.2307692,26.1413606 L36.2307692,26.1621622 L26.1559252,26.1621622 Z" id="Combined-Shape" fill="#FFFFFF" opacity="0.800000012"></path>
        <path d="M7.76923077,17.8906002 L7.76923077,17.8378378 L27.8003136,17.8378378 C28.1680401,22.2952194 31.7549382,25.8398065 36.2307692,26.1413606 L36.2307692,26.1621622 L16.0810811,26.1621622 C15.8616566,26.1621622 15.6440498,26.1543799 15.4285216,26.1390762 C15.0723057,21.9508449 11.8734719,18.5732035 7.76923077,17.9433626 L7.76923077,17.8906002 L7.76923077,17.8378378 L27.9189189,17.8378378 C32.9342615,17.8378378 37,21.9035763 37,26.9189189 C37,31.9342615 32.9342615,36 27.9189189,36 L7.76923077,36 L7.76923077,35.8944752 C12.1253609,35.2259792 15.4615385,31.4620521 15.4615385,26.9189189 C15.4615385,22.3757858 12.1253609,18.6118587 7.76923077,17.9433626 L7.76923077,17.8906002 Z" id="Combined-Shape" fill="#FFFFFF"></path>
    </g>
</svg>