<?xml version="1.0" encoding="UTF-8"?>
<svg width="44px" height="44px" viewBox="0 0 44 44" version="1.1" xmlns="http://www.w3.org/2000/svg" xmlns:xlink="http://www.w3.org/1999/xlink">
    <!-- Generator: Sketch 54.1 (76490) - https://sketchapp.com -->
    <title>icons/banks/44/tatsotsbank-mono</title>
    <desc>Created with Sketch.</desc>
    <g id="icons/banks/44/tatsotsbank-mono" stroke="none" stroke-width="1" fill="none" fill-rule="evenodd">
        <path d="M16.4675635,19.2642857 C17.3494288,21.0002765 18.0791788,22.6582949 19.0061404,24.1903687 C19.7317173,25.3894009 20.7029673,26.4313825 21.5624865,27.5451152 C21.8506981,27.9186636 22.0519481,27.8998618 22.3976404,27.5340553 C24.4871404,25.3223502 25.8040827,22.6517972 26.8548904,19.8138249 C26.9263712,19.6208295 26.9969096,19.4271429 27.0736404,19.2362212 C27.089525,19.1964055 27.1304481,19.1670968 27.2490442,19.0294009 C27.8148327,20.3095853 28.3659481,21.5351613 28.8908135,22.7726267 C28.9516596,22.9162673 28.899025,23.1356682 28.8451788,23.3015668 C27.6006596,27.1385253 26.0789673,30.8379263 23.671775,34.0848387 C23.2659096,34.6321659 22.7815635,35.1171429 22.3471596,35.6430415 C22.1114481,35.9285253 21.9396788,35.9447005 21.6456788,35.6756682 C19.9767173,34.1481567 18.7269481,32.2878802 17.790025,30.2424885 C16.7913135,28.0623041 15.9733904,25.7943318 15.1006788,23.5547005 C15.0002558,23.2971429 14.9587942,22.9381106 15.0524865,22.6913364 C15.4827173,21.5597696 15.9708327,20.4512903 16.4675635,19.2642857 Z M18.5401692,12.2593687 C19.5192269,14.291212 20.3041692,16.270106 21.9444577,17.7605668 C23.4898423,16.2618111 24.3122077,14.3825945 25.1116885,12.2313041 C25.7138231,13.3979862 26.2086692,14.434023 26.7731115,15.4285853 C27.3166885,16.386788 27.2787269,17.2560968 26.8312654,18.274576 C25.7196115,20.8060507 24.5064577,23.2547143 22.6623615,25.3230553 C21.9895538,26.0776175 21.9188808,26.1077558 21.2134962,25.3624562 C19.0124,23.0365576 17.6394577,20.2038387 16.5404577,17.2095069 C16.4884962,17.0678018 16.45915,16.868447 16.5155538,16.7411198 C17.1797462,15.2422258 17.8623808,13.7519032 18.5401692,12.2593687 Z M21.9990173,16.0675576 C20.4374788,14.6623963 19.5908827,12.9013825 18.9417673,11.0203687 C18.8832096,10.8505991 18.9339596,10.6045161 19.0097481,10.4281106 C19.6474212,8.94497696 20.4653442,7.58253456 21.5569404,6.3959447 C21.8594212,6.06705069 22.0686135,6.04949309 22.3732481,6.36331797 C23.5495173,7.57534562 24.3507481,9.02778802 24.9763058,10.5940092 C25.0232865,10.7117972 25.0433442,10.8774194 25.0006712,10.9910599 C24.3036327,12.8453917 23.4731904,14.6184332 21.9990173,16.0675576 Z" id="Combined-Shape" fill="#FFFFFF"></path>
    </g>
</svg>