<?xml version="1.0" encoding="UTF-8"?>
<svg width="44px" height="44px" viewBox="0 0 44 44" version="1.1" xmlns="http://www.w3.org/2000/svg" xmlns:xlink="http://www.w3.org/1999/xlink">
    <!-- Generator: Sketch 54.1 (76490) - https://sketchapp.com -->
    <title>icons/banks/44/tinkoff-mono</title>
    <desc>Created with Sketch.</desc>
    <g id="icons/banks/44/tinkoff-mono" stroke="none" stroke-width="1" fill="none" fill-rule="evenodd">
        <path d="M22.424386,11.1309557 C23.55886,11.1322027 24.4084707,11.4988715 24.59176,11.9306742 L22.424386,12.7764882 L20.2576207,11.9306742 C20.4421347,11.4988715 21.291782,11.1322027 22.424386,11.1309557 Z M22.4471267,33.5111185 L22.4470973,33.5111185 C23.1512434,33.5044781 23.8521008,33.4151951 24.5349487,33.245145 L25.0820153,34.7106745 C24.2171765,34.9489699 23.3243785,35.0737113 22.4266153,35.081686 C21.5280319,35.0738197 20.6344028,34.9490782 19.768744,34.7106745 L20.3167127,33.245145 C20.9992126,33.4153467 21.6997777,33.5046326 22.4036253,33.5111185 L22.4471267,33.5111185 Z M26.5934667,32.052897 L26.321356,32.933685 L27.2439773,33.2368003 C26.5863857,33.5555109 25.8984616,33.8090015 25.190292,33.9935553 L24.7457673,32.782914 C25.3809859,32.5903932 25.9989956,32.3462206 26.5934667,32.052897 Z M18.2573293,32.052897 C18.8518598,32.3461174 19.469873,32.5902865 20.1050653,32.782914 L19.6598953,33.9935553 C18.9520504,33.8086379 18.264376,33.5551596 17.6068553,33.2368003 L18.5304227,32.933685 L18.2573367,32.052897 Z M22.424386,9.72942925 L22.4244153,9.72942925 C21.6121469,9.72136506 20.8105462,9.91268103 20.091462,10.2862293 C20.0214393,10.0545372 19.9369912,9.82734778 19.8386013,9.60596175 L20.0815107,9.63483125 L20.336564,9.66125025 L20.446828,9.431215 L20.7683727,8.75127375 L21.3651153,9.05683225 L21.5962107,9.173231 L21.7804387,8.99326425 L22.4244153,8.36178925 L23.0699393,8.99326425 L23.2547393,9.173231 L23.4858713,9.05683225 L24.07949,8.75127375 L24.405376,9.431215 L24.5134473,9.66125025 L24.7688307,9.63483125 L25.0126787,9.60596175 C24.9138793,9.82718445 24.8294217,10.0543995 24.759818,10.2862293 C24.0401116,9.9119762 23.2375292,9.7206292 22.424386,9.72942925 Z M35.461762,17.590858 C34.806624,17.372227 34.5720527,16.4008213 33.4214527,15.7951563 C33.6451815,15.6534465 33.9044581,15.5762433 34.1701347,15.572226 C34.5137597,15.575426 34.8401603,15.7214385 35.0694213,15.974514 C35.5459831,16.5105 36.1953758,16.8670516 36.907492,16.983714 C36.6873327,17.3882497 36.2616227,17.6419632 35.7969833,17.645552 C35.682926,17.6460767 35.5695951,17.6275888 35.4617547,17.5908653 Z M9.053248,17.645465 C8.58884653,17.6421112 8.16333007,17.3884187 7.94362667,16.9839098 C8.65525067,16.8671164 9.30410901,16.5105748 9.78015733,15.9747533 C10.0102338,15.7212808 10.3375262,15.5751522 10.681996,15.5721028 C10.9471648,15.5765439 11.2058502,15.6538624 11.429094,15.7954028 C10.2799973,16.4007053 10.0429767,17.372111 9.386284,17.5907855 C9.27924929,17.627698 9.16660554,17.6461949 9.053248,17.6454723 Z M35.7732673,21.5388238 L35.773304,21.538802 C35.4779361,21.5416241 35.1877238,21.4622327 34.9358373,21.309702 C34.9358373,21.309702 34.7199367,24.207063 36.9075507,25.105077 C36.6175981,25.5393487 36.1234812,25.7972501 35.597216,25.7889985 L35.5860473,25.7889985 C34.9948651,25.8235558 34.4228115,25.5755741 34.0480053,25.1222668 C34.0623636,25.8098232 33.9502651,26.4942394 33.7171693,27.142182 C33.4248521,27.9155181 33.4262879,28.7674462 33.72121,29.539815 C33.5409827,29.5839109 33.3561356,29.6069014 33.1704767,29.608313 C33.0555374,29.6093428 32.9409262,29.5960281 32.8293593,29.5686845 C32.2915731,29.442352 31.8586516,29.0491161 31.6858727,28.5300205 C31.6858727,28.5300205 31.769744,31.3121935 28.488708,31.3121935 L28.4632393,31.3121935 C28.7126992,30.8481791 28.8412402,30.3300105 28.8372393,29.8045415 C28.9934907,27.740133 30.40724,27.456658 30.40724,27.456658 C30.0214836,27.4131941 29.6511486,27.2820027 29.325258,27.073365 C29.0298184,26.8276396 28.8566631,26.4673407 28.8505933,26.0856903 C29.8006868,26.126898 30.7173844,25.7348917 31.33762,25.022166 C31.7094201,24.6008968 31.960415,24.0889361 32.0645587,23.5394105 C31.5411309,23.9281855 30.8972453,24.1249114 30.2432153,24.0958843 C30.1379013,24.0958843 30.0248213,24.0906643 29.9089547,24.0796225 C29.5549981,24.0443924 29.2201309,23.9040148 28.948442,23.676972 C30.4495253,22.8215622 31.0361106,20.9709526 30.297262,19.421599 C29.67442,17.7530188 28.178354,16.5073673 26.6711193,15.5688403 C26.170018,15.259548 25.8907573,14.9150353 25.8907573,14.6192353 C25.8907573,13.922068 26.8935247,13.8996655 27.3041913,13.4316055 C27.7791493,12.8871015 27.4815553,12.0047475 27.070258,11.4731268 C27.1881303,11.4531079 27.3076031,11.443753 27.4271933,11.445178 C28.1045691,11.4381581 28.7553155,11.7056298 29.2280033,12.1853523 C29.7051831,12.6348881 29.8900148,13.3094126 29.7076033,13.9356038 L29.9269213,13.9776538 C30.0579895,14.0012058 30.1907405,14.0144447 30.323926,14.017246 C30.3534353,14.017246 30.3835533,14.018812 30.4121533,14.018812 C31.1713515,13.9533414 31.8328055,13.480861 32.1340933,12.7888205 C32.4859974,13.2109718 32.6232934,13.7690512 32.5068084,14.3038293 C32.3903234,14.8386073 32.0328505,15.291352 31.5363827,15.5328875 C31.2161067,15.7389688 31.074456,15.9302963 31.1117313,16.1339125 L31.1406247,16.267501 L31.273578,16.2908678 C32.6230213,16.65294 33.30673,17.5733565 34.14053,18.6202928 C34.936078,19.6186793 36.1361253,20.2198583 37.4209427,20.2636575 L37.444578,20.2636575 C37.2206286,20.9749292 36.5817995,21.4801729 35.8307387,21.5400273 C35.810264,21.5400273 35.7934927,21.5400273 35.7732673,21.5388238 Z M35.1147707,24.566344 L35.114778,24.5662933 C35.114778,24.5662933 33.9954913,23.8995615 33.4925567,21.3010455 L33.4925567,21.3213455 C33.1611267,18.6752043 31.217698,16.7643435 29.0549807,15.6031328 C28.8555507,15.4968913 28.6700907,15.407187 28.4914727,15.3212238 C29.3835429,15.5007937 30.3104313,15.2856954 31.0285127,14.7324658 C31.0285127,14.7324658 29.7759867,15.643363 27.2113,14.816022 C28.3811824,15.4437049 29.5008022,16.158912 30.5603673,16.9553883 C33.7093813,19.690864 31.4568893,22.3590815 31.4568893,22.3590815 C32.395387,21.4749273 32.72572,20.1306693 32.3021513,18.9193698 C32.9688261,20.0142853 33.2883452,21.2815805 33.2194853,22.5577533 C33.13282,24.6602605 31.9638573,26.4790173 30.7340133,27.9396458 C30.3670044,28.4006387 30.1188206,28.9429086 30.0108293,29.5197688 C30.2175608,28.9476143 30.5304549,28.4186149 30.9334507,27.959924 C32.2515147,26.4341688 33.378846,24.849819 33.5267153,22.566069 C33.8071853,23.3937805 34.3681486,24.100356 35.1147707,24.566344 Z M14.4436807,27.4565638 C14.4436807,27.4565638 15.8586767,27.7400388 16.014312,29.8044835 C16.0103827,30.3296353 16.1380253,30.84758 16.385848,31.312092 L16.3622493,31.312092 C13.0805827,31.312092 13.164454,28.5299625 13.164454,28.5299625 C12.99128,29.0488061 12.5585329,29.4418835 12.0209673,29.5686265 C11.9095414,29.5961363 11.7950138,29.6094417 11.6801727,29.6082188 C11.4950285,29.6068765 11.310687,29.5840026 11.13095,29.5400688 C11.4242656,28.7671495 11.4248283,27.9154141 11.132534,27.1421168 C10.9001349,26.4940267 10.7884552,25.8096645 10.802908,25.1222015 C10.4282711,25.5757253 9.85617428,25.8238577 9.264932,25.7892595 L9.25404933,25.7892595 C8.72768116,25.7972901 8.23353394,25.5393088 7.94342867,25.105019 C10.1300527,24.206976 9.91572867,21.309644 9.91572867,21.309644 C9.66343033,21.462323 9.37275994,21.5417166 9.076964,21.538744 C9.05677533,21.539991 9.03874267,21.539991 9.01949267,21.539991 C8.26818026,21.4802707 7.62902017,20.9750453 7.40475867,20.2636213 L7.42926667,20.2636213 C8.71381919,20.2201421 9.91361187,19.6188621 10.7084327,18.6202565 C11.542856,17.573603 12.2272027,16.6531865 13.574776,16.2907663 L13.7102227,16.2674358 L13.7391013,16.1338473 C13.776384,15.9302528 13.6353347,15.7388818 13.3150513,15.5328223 C12.8187292,15.2912312 12.4613782,14.8385483 12.3449108,14.3038736 C12.2284433,13.7691989 12.365644,13.2112229 12.7173847,12.7890743 C13.0178952,13.4818075 13.6799792,13.9545326 14.4396253,14.0187468 C14.4684967,14.0187468 14.4958353,14.0174998 14.5265767,14.0174998 C14.6598488,14.0143735 14.7926815,14.0011372 14.923904,13.9779075 L15.143222,13.9355095 C14.9602641,13.3092026 15.1454558,12.6342929 15.623482,12.185258 C16.0959936,11.7057002 16.7465286,11.4383526 17.4236613,11.4454463 C17.5430324,11.4439119 17.6622959,11.4531578 17.779966,11.4730688 C17.3696,12.0046823 17.0720207,12.8870725 17.5470007,13.4315475 C17.9573593,13.899535 18.9588653,13.92201 18.9588653,14.61946 C18.9588653,14.9149048 18.6799273,15.25949 18.179156,15.568746 C16.671276,16.5073093 15.17554,17.7532798 14.553006,19.4215048 C13.814467,20.9714921 14.4020443,22.8223915 15.9039967,23.6771968 C15.6315312,23.9041095 15.2960794,24.0443467 14.9416067,24.0795283 C14.8257596,24.0903984 14.7139213,24.0958335 14.606092,24.0958335 C13.952673,24.1247167 13.3094433,23.9279659 12.786692,23.5393163 C12.8908237,24.0883307 13.1406086,24.6001428 13.510492,25.0223908 C14.132466,25.7343692 15.0496514,26.1260192 16.000342,26.0855888 C15.9945423,26.4671102 15.8217325,26.8274102 15.5266087,27.0732998 C15.2004186,27.282032 14.829749,27.4132139 14.4436733,27.4565565 Z M13.9165093,27.959953 L13.9165167,27.9599748 C14.3195064,28.4190868 14.6331485,28.9479137 14.841624,29.5197833 C14.7324203,28.9426154 14.482724,28.4004103 14.114106,27.9400083 C12.8864253,26.4790535 11.7180787,24.660333 11.6320587,22.557833 C11.5616151,21.2815974 11.8810002,20.0139111 12.5487253,18.9194495 C12.1243719,20.130801 12.4548019,21.4755646 13.3939873,22.359444 C13.3939873,22.359444 11.1408793,19.6909075 14.2911547,16.9554318 C15.350269,16.1590957 16.4693561,15.4438937 17.6386527,14.8160655 C15.0749193,15.6434283 13.822386,14.7328283 13.822386,14.7328283 C14.5403316,15.2858221 15.4669176,15.5009049 16.3587807,15.3215863 C16.181094,15.4072668 15.9941087,15.4969203 15.7959107,15.6034953 C13.6325627,16.7644233 11.6897867,18.6755668 11.3571173,21.3213818 L11.3571173,21.3010818 C10.854784,23.8995978 9.73645067,24.5663295 9.73645067,24.5663295 C10.4823914,24.1000412 11.0426739,23.3934979 11.3226507,22.5660545 C11.4717447,24.8497755 12.5987093,26.4341978 13.9165093,27.959953 Z M19.9986,17.2828925 L19.998622,17.2828997 C19.9871307,17.2740475 19.9796873,17.2629405 19.9694207,17.2537475 C19.7223197,16.9983456 19.4092811,16.8146068 19.064172,16.7224095 L19.2331687,16.6259845 L19.2409273,16.6259845 L19.9082167,16.2436122 L20.5922407,15.85602 L22.4210127,16.8400407 L22.4244227,16.8360242 L22.4294167,16.8400407 L24.2578,15.8560055 L24.9421467,16.2435977 L25.6081747,16.62597 L25.6174733,16.62597 L25.7849227,16.722395 C25.439928,16.8152533 25.1271405,16.9995086 24.8803267,17.25527 C24.8713067,17.262926 24.8632253,17.271858 24.8539267,17.281051 C24.7983107,17.339428 24.7439267,17.402068 24.6911267,17.4668757 C24.6811753,17.4791645 24.670938,17.492055 24.6600553,17.5061852 C24.6087953,17.5715947 24.5600433,17.639172 24.51311,17.7088735 C24.5056813,17.720836 24.4969767,17.732842 24.48891,17.7444855 C24.4339467,17.8258885 24.380824,17.9128087 24.32831,18.0027885 C23.9596306,18.7275903 23.2410402,19.21511 22.424364,19.2944992 C21.6079787,19.2151671 20.8897422,18.7275665 20.521672,18.0027885 C20.470126,17.9152592 20.417942,17.8301732 20.363272,17.748183 C20.352426,17.732842 20.3424673,17.716863 20.3322007,17.7036535 C20.286228,17.6364025 20.2390307,17.5706667 20.1917967,17.5089547 C20.1796967,17.4920477 20.168484,17.4791645 20.156384,17.4644252 C20.1051313,17.402068 20.0523313,17.3400297 19.9986,17.2828925 Z M22.266272,16.1866925 L20.8099673,15.4280742 L20.288362,12.4512242 L22.266272,13.1142657 L22.266272,16.1866925 Z M21.841936,13.8695272 L20.94229,13.4954272 C20.9883696,13.7433487 21.1384861,13.9603842 21.3554573,14.0927765 C21.4701012,14.1919226 21.6025482,14.2689163 21.7459207,14.3197595 L21.841936,14.363042 L21.841936,13.8695272 Z M24.04,15.428125 L22.5833727,16.1867142 L22.5833727,13.1143165 L24.5600213,12.451275 L24.04,15.428125 Z M23.008684,13.86952 L23.0087207,14.3630347 L23.104054,14.3197522 C23.2474066,14.2690771 23.3797758,14.1920636 23.4941873,14.0927692 C23.7116918,13.9607531 23.8622274,13.7436012 23.908286,13.49542 L23.008684,13.86952 Z M24.152024,18.9768115 L27.5691153,18.976797 C27.4048883,19.3671457 27.3126237,19.7833932 27.296682,20.2058677 L27.2982367,22.9100235 C26.9465016,22.8308463 26.6870501,22.5357121 26.656768,22.1803327 L26.646208,22.05622 L26.52347,22.0454972 C26.3135574,22.0276185 26.1173243,21.93509 25.97116,21.78507 C25.7940656,21.5817412 25.6948869,21.3233462 25.6909607,21.055053 C25.5120842,21.3362643 25.5302122,21.6980544 25.7363247,21.9604112 C25.8945048,22.1591558 26.1253137,22.288528 26.37904,22.3206637 C26.4517959,22.7854113 26.8264696,23.1466898 27.2982293,23.2069907 L27.2982293,24.530703 L25.6117167,24.530703 C25.1619097,24.3065087 24.9710332,23.7714621 25.17905,23.317894 L25.2448887,23.1751125 L25.0957947,23.1192222 C24.6086299,22.9509499 24.3438169,22.4314263 24.4968593,21.9442002 L24.5310547,21.8235022 L24.416398,21.7697362 C23.9856561,21.5242046 23.7507799,21.0430802 23.8243267,20.5569272 C23.5905357,20.7827489 23.5322677,21.1325563 23.6804687,21.420569 C23.6012687,21.5111505 23.4944147,21.6195597 23.3770007,21.739337 C22.9603083,21.6497183 22.6559853,21.2952536 22.6342513,20.874209 L22.6326673,20.773434 L22.538236,20.736894 C22.2923434,20.6653101 22.0866704,20.4975811 21.9688247,20.2725315 C21.8904912,20.0868999 21.8765103,19.880855 21.9290633,19.686543 C22.0090779,19.7045431 22.0902332,19.7171677 22.1719727,19.72433 C22.2542108,19.7330228 22.336847,19.7375261 22.4195533,19.7378222 L22.430766,19.7378222 C22.5133643,19.7375007 22.5958917,19.7329974 22.678024,19.72433 C23.2437063,19.6565955 23.7663782,19.3915297 24.152024,18.9768115 Z M23.9424153,30.8670363 L24.263916,29.876592 C24.314252,29.739915 24.0601667,29.5636458 23.9551827,29.4088583 C24.2036951,29.5547374 24.4594617,29.6881847 24.721516,29.8086958 C24.7016133,29.8409365 24.3490413,30.8602503 24.3490413,30.8602503 C24.200886,30.8602503 24.0648233,30.862099 23.9424153,30.8670363 Z M27.2982,24.8225082 L27.300092,28.4464642 C27.3465648,29.5594162 26.5672858,30.5404476 25.4626153,30.7596565 L25.650576,29.7900922 C25.660806,29.7326505 25.672928,29.6660157 25.6809947,29.6101255 C25.7357473,29.6332077 25.7928146,29.6505032 25.8512453,29.6617237 C25.9151959,29.6742409 25.9801911,29.6808139 26.0453807,29.6813567 C26.2674338,29.6810114 26.4767098,29.5786449 26.6117047,29.4043415 L26.7561713,29.237867 L26.6381047,29.055457 C26.6275447,29.0376292 26.3656713,28.6292005 26.1656033,28.3494157 C26.1258493,28.2947217 26.087958,28.2397522 26.0497367,28.1810925 C25.8521617,27.7521376 25.4367416,27.4611737 24.961888,27.4191537 L24.9103053,27.4203572 C24.827871,27.424911 24.7465538,27.4413614 24.668936,27.469186 C24.4941829,27.3866999 24.3031232,27.3434925 24.109476,27.3426662 C23.9145695,27.3472452 23.7218432,27.3843181 23.5394193,27.4523225 C23.5011907,27.4633642 23.4676553,27.4753267 23.440324,27.479945 L22.3686013,27.3758277 C22.324421,27.3556424 22.286237,27.3245585 22.2577213,27.2855652 L22.2577213,27.2800262 L22.489748,27.1881977 C22.3652257,26.5409508 21.8994306,26.0093027 21.26921,25.795103 C21.2508013,25.7135668 21.2089563,25.6390252 21.1487087,25.580445 L20.918508,25.364221 L20.7159687,25.6040945 L20.6159347,25.7263222 L19.114596,25.1166842 L20.0915647,26.3288842 L19.7063813,26.906238 C19.6682891,26.9473647 19.6483751,27.0018208 19.6510585,27.0575217 C19.6537418,27.1132226 19.6788007,27.1655611 19.720674,27.2029225 L20.1192187,27.4743915 L20.5317333,27.3220907 C20.5454574,27.3228461 20.5591269,27.3243735 20.5726753,27.3266655 C20.552164,27.3887037 20.5263727,27.6319485 20.5093153,27.6998447 L19.792966,27.5607172 L19.0402653,27.980833 C18.7013974,28.2228989 18.5782861,28.6653102 18.744226,29.0446762 L18.8274813,29.225281 L18.9461127,29.4801692 L19.2098633,29.372398 L19.219206,29.3683815 C19.1164887,29.6265461 19.159227,29.9191397 19.331626,30.138027 L19.4916027,30.3364232 L19.704702,30.6023967 L19.9383127,30.3545337 C20.0912919,30.2036857 20.2135299,30.0251837 20.2983793,29.8287347 L20.3490233,29.6671975 L20.2353053,29.5431282 L20.2160553,29.5207257 L20.3443887,29.3115705 L21.2797333,29.529317 L21.4903613,29.5772177 L21.6018867,29.3948077 L21.6627533,29.2953087 C21.6742447,29.2741097 21.677046,29.2707385 21.7205473,29.2707385 C21.7547317,29.2707031 21.788809,29.2745146 21.8221213,29.2820992 C22.1408215,29.3443167 22.4646345,29.3774219 22.7894687,29.3809965 C23.0079969,29.3930346 23.2269731,29.367258 23.4365327,29.304828 C23.4365327,29.304828 23.938844,29.868704 23.9559453,29.889903 L23.6486787,30.82843 L23.6350313,30.8846465 C23.1776753,30.8812278 22.7396021,31.0665528 22.4263147,31.395989 C21.9289753,30.907977 21.5760807,30.8563787 20.2387813,30.8563787 C18.6376947,30.8563787 17.5529333,29.928589 17.5529333,28.4464787 L17.5529333,24.8225082 L27.2982,24.8225082 Z M17.5529333,24.530674 L17.5529333,20.2059185 C17.53656,19.7836817 17.4449557,19.367613 17.2823333,18.9768478 L20.6982,18.9768478 C20.9635901,19.2510765 21.2861333,19.4649598 21.6434667,19.6036683 C21.5726233,19.8652708 21.5918573,20.1427429 21.6981367,20.392345 C21.8306906,20.6612657 22.0620165,20.8700673 22.3449367,20.9761658 C22.3965733,21.4315634 22.7042858,21.8189186 23.1395547,21.9764483 C22.8944893,22.2202948 22.656816,22.4506055 22.560522,22.5430793 L20.2931213,22.5074238 C20.2182453,22.472461 20.1560971,22.4155204 20.1151487,22.344364 C20.1104773,22.3330033 20.1033347,22.3265363 20.0983773,22.3154945 L20.4683293,22.374437 C20.4761825,22.3752054 20.4840747,22.3755128 20.4919647,22.3753578 C20.5641299,22.3762639 20.6260933,22.3248075 20.6376487,22.254377 C20.6506653,22.1744962 20.5957456,22.0992981 20.5149547,22.08638 L20.0598333,22.0154315 L20.5646233,20.2909973 L20.0862333,19.2956158 L19.320208,20.0968423 L19.2732747,21.8894555 L18.7582033,21.8089805 C18.7193739,21.8026924 18.6796127,21.8120034 18.6477617,21.8348427 C18.6159108,21.857682 18.5946106,21.8921563 18.588598,21.9305993 C18.5765202,22.0101898 18.6310503,22.0847126 18.711292,22.0982773 L18.9275227,22.1311633 C18.8504787,22.174163 18.7992187,22.2088543 18.7930073,22.2134725 L18.749506,22.2441473 L18.737406,22.2973115 C18.6403182,22.7510586 18.8222336,23.2188201 19.2017893,23.4913865 L19.1906207,23.5549473 C19.1654616,23.7127512 19.273559,23.861144 19.4329213,23.88757 C19.4485866,23.8904968 19.464499,23.8919365 19.4804413,23.8918693 C19.6152116,23.8910536 19.7315547,23.7983314 19.7609633,23.668301 C19.8572764,23.6793139 19.954159,23.6847437 20.051114,23.6845628 L20.1113867,23.6845628 L23.086124,24.2161835 L23.136768,24.1826958 C23.3731433,24.019317 24.2771307,23.3685208 24.5734927,23.152623 C24.6588313,23.226218 24.7538177,23.2881008 24.8558847,23.336599 C24.7208937,23.7547386 24.8269721,24.2123752 25.1326667,24.530674 L17.5529333,24.530674 Z" id="Combined-Shape" fill="#FFFFFF" fill-rule="nonzero"></path>
    </g>
</svg>