<?xml version="1.0" encoding="UTF-8"?>
<svg width="44px" height="44px" viewBox="0 0 44 44" version="1.1" xmlns="http://www.w3.org/2000/svg" xmlns:xlink="http://www.w3.org/1999/xlink">
    <!-- Generator: Sketch 54.1 (76490) - https://sketchapp.com -->
    <title>icons/banks/44/tinkoff</title>
    <desc>Created with Sketch.</desc>
    <g id="icons/banks/44/tinkoff" stroke="none" stroke-width="1" fill="none" fill-rule="evenodd">
        <path d="M38.842678,19.2158802 L37.4326393,19.2601052 C36.7748336,19.2345062 36.1395363,19.0163429 35.6073213,18.6332847 C35.670388,18.6388237 35.732494,18.6476977 35.797108,18.6476977 C36.6615911,18.6478676 37.451215,18.1628381 37.834,17.396529 L38.4403713,16.0660742 C37.9535768,16.0698349 37.4670722,16.0414241 36.9841107,15.9810317 C36.5225801,15.873106 36.1070874,15.6243723 35.79647,15.2700532 C35.3748828,14.8252534 34.7867904,14.5714818 34.17023,14.568304 C33.9290043,14.5693176 33.6893806,14.6071165 33.4598133,14.6803672 C33.4937982,14.5722845 33.5205614,14.4621105 33.53993,14.3505575 C33.6352766,13.5673763 33.4137534,12.7786719 32.9236073,12.1562217 L31.862474,10.8583267 L31.2048647,12.383763 C31.1003288,12.6000525 30.9399048,12.7852353 30.7397993,12.9206037 C30.6273151,12.3773175 30.3559836,11.8786294 29.9594593,11.4863942 C29.294111,10.8123501 28.3796918,10.4354137 27.427076,10.4425102 C27.2616322,10.4415912 27.0963702,10.4534983 26.9328093,10.4781222 L25.65293,10.726906 C25.7622064,10.2969867 25.9371515,9.88605389 26.171734,9.50827525 L26.878132,8.4204635 L25.1006127,8.62038225 L24.5342887,7.43154175 L23.438036,7.99051675 L22.424144,7.00034075 L21.4133027,7.99050225 L20.3142413,7.43152725 L19.7491787,8.62036775 L17.972268,8.41980375 L18.6796047,9.5085435 C18.9144943,9.88529385 19.0891738,10.2956216 19.1974773,10.7250427 L17.976008,10.487018 L17.934054,10.4802755 C17.7653074,10.4543774 17.5947501,10.4417422 17.423984,10.4424885 C16.4721843,10.4352092 15.5585423,10.8119765 14.894094,11.4857635 C14.4969735,11.8780647 14.2250108,12.3769412 14.111906,12.9205747 C13.9148174,12.7884456 13.7562808,12.6074651 13.6521573,12.39574 L12.993272,10.8613862 L11.9162693,12.1678362 C11.4345375,12.7900751 11.2176194,13.5736924 11.3117313,14.351732 C11.3312628,14.4628036 11.3578225,14.5725545 11.391254,14.6803382 C11.1621861,14.6067443 10.9229062,14.5689352 10.6820473,14.568275 C10.0651571,14.5715525 9.47672802,14.8252805 9.05459733,15.2700242 C8.74650147,15.6195238 8.33742644,15.8672343 7.882518,15.979763 C7.39650129,16.0515479 6.90498597,16.0804202 6.41379067,16.066038 L7.01707467,17.3964927 C7.40022798,18.1623303 8.18944742,18.6471773 9.053666,18.647647 C9.11888867,18.647647 9.18103133,18.638773 9.244714,18.633234 C8.7171514,19.0134623 8.08801188,19.2316796 7.43580067,19.2606562 L6,19.2158657 L6.43521867,20.5643657 C6.75391649,21.6240352 7.676284,22.3971153 8.785838,22.5345315 C8.669124,23.2474478 8.20998236,23.860148 7.55413133,24.178179 L6.48427133,24.613672 L7.06765267,25.6182465 C7.54848067,26.3586047 8.38054241,26.8025707 9.27043933,26.7935947 C9.50207603,26.7934904 9.73308141,26.7697145 9.95977267,26.7226462 C10.0173562,26.9731372 10.0877488,27.2205808 10.1706793,27.464024 C10.3727134,27.9915755 10.3876189,28.5713061 10.212956,29.108324 L9.68452333,30.2022837 L10.86343,30.5094082 C11.1303483,30.5765438 11.4046783,30.6105879 11.6800993,30.610756 C11.8742469,30.6119063 12.067862,30.5905593 12.2569833,30.5471517 C12.3919234,30.5159635 12.5241553,30.4742667 12.6524407,30.4224517 C12.803985,30.6914705 12.9902738,30.9398625 13.2066207,31.161379 C14.0599153,31.9652784 15.2121751,32.3833982 16.3888987,32.31613 L17.2822453,32.3035657 L15.361286,33.1260057 L16.879726,33.85168 C17.4892529,34.1565625 18.1141337,34.4304666 18.751926,34.672322 L18.5621393,35.1851942 L19.0855707,35.4210512 C19.9553956,35.7600521 20.8773888,35.9497144 21.811796,35.9818605 C21.811796,35.9818605 22.2156207,36.00029 22.4380627,36.00029 C22.6605047,36.00029 23.0593353,35.9806135 23.0593353,35.9806135 C23.9874313,35.9470534 24.9030141,35.7578452 25.767,35.4210657 L26.291656,35.184607 L26.100322,34.6710967 C26.7450196,34.426428 27.3766536,34.1493586 27.9927547,33.8409717 L29.482888,33.1253967 L27.489512,32.3035657 L28.4615233,32.3161735 C29.6388373,32.3840315 30.7917605,31.9653407 31.6447033,31.1601827 C31.8610806,30.9392949 32.0471941,30.6912831 32.1982747,30.4225025 C32.3271953,30.4741902 32.4599149,30.5160837 32.5952793,30.5478187 C32.7841611,30.5906887 32.9774248,30.6118154 33.1712173,30.6107777 C33.4436105,30.6102036 33.7149296,30.5769958 33.9792407,30.5118805 L35.1634053,30.2023055 L34.6474393,29.128624 C34.4633224,28.5864864 34.4750653,27.9980025 34.6806667,27.4634657 C34.7639513,27.2171325 34.834124,26.9693057 34.89128,26.7226897 C35.119537,26.7698202 35.3520952,26.793595 35.5852773,26.7936382 C36.4786646,26.8034241 37.3131868,26.3541568 37.7896113,25.6069292 L38.3671407,24.6131137 L37.29753,24.1788387 C36.6412298,23.8615327 36.1819505,23.2485739 36.0661533,22.5354305 C37.1733747,22.3924977 38.0930967,21.6213199 38.4164867,20.5646992 L38.842678,19.2158802 Z" id="Path" fill="#FFFFFF" fill-rule="nonzero"></path>
        <path d="M19.469302,23.3079108 C19.6455957,23.3642429 19.8298443,23.3924365 20.0151147,23.3914308 C20.0194633,23.3770178 20.0262833,23.3588638 20.031886,23.3367803 C20.0430662,23.3013427 20.0523919,23.2653592 20.059826,23.2289728 C20.0888999,23.0681258 20.1050056,22.9052499 20.1079913,22.7418815 C19.9976412,22.6770598 19.9077123,22.5831598 19.8482667,22.470688 C19.7980905,22.333413 19.6647343,22.2432465 19.5171373,22.2468008 C19.336984,22.2620168 19.1636,22.3218067 19.012956,22.420663 C18.9626528,22.7816216 19.1446377,23.1354532 19.4692947,23.307918" id="Shape" fill="#FFFFFF" fill-rule="nonzero"></path>
        <path d="M27.2982,24.8225083 L17.5529333,24.8225083 L17.5529333,28.4464788 C17.5529333,29.928589 18.6376947,30.8563788 20.2387813,30.8563788 C21.5760807,30.8563788 21.9289753,30.907977 22.4263147,31.395989 C22.7396021,31.0665528 23.1776753,30.8812278 23.6350313,30.8846465 L23.6486787,30.82843 L23.9559453,29.889903 C23.938844,29.868704 23.4365327,29.304828 23.4365327,29.304828 C23.2269731,29.367258 23.0079969,29.3930346 22.7894687,29.3809965 C22.4646345,29.3774219 22.1408215,29.3443167 21.8221213,29.2820993 C21.788809,29.2745146 21.7547317,29.2707031 21.7205473,29.2707385 C21.677046,29.2707385 21.6742447,29.2741098 21.6627533,29.2953088 L21.6018867,29.3948078 L21.4903613,29.5772178 L21.2797333,29.529317 L20.3443887,29.3115705 L20.2160553,29.5207258 L20.2353053,29.5431283 L20.3490233,29.6671975 L20.2983793,29.8287348 C20.2135299,30.0251837 20.0912919,30.2036857 19.9383127,30.3545338 L19.704702,30.6023968 L19.4916027,30.3364233 L19.331626,30.138027 C19.159227,29.9191397 19.1164887,29.6265461 19.219206,29.3683815 L19.2098633,29.372398 L18.9461127,29.4801693 L18.8274813,29.225281 L18.744226,29.0446763 C18.5782861,28.6653102 18.7013974,28.2228989 19.0402653,27.980833 L19.792966,27.5607173 L20.5093153,27.6998448 C20.5263727,27.6319485 20.552164,27.3887038 20.5726753,27.3266655 C20.5591269,27.3243735 20.5454574,27.3228461 20.5317333,27.3220908 L20.1192187,27.4743915 L19.720674,27.2029225 C19.6788007,27.1655611 19.6537418,27.1132226 19.6510585,27.0575217 C19.6483751,27.0018208 19.6682891,26.9473647 19.7063813,26.906238 L20.0915647,26.3288843 L19.114596,25.1166843 L20.6159347,25.7263223 L20.7159687,25.6040945 L20.918508,25.364221 L21.1487087,25.580445 C21.2089563,25.6390252 21.2508013,25.7135668 21.26921,25.795103 C21.8994306,26.0093027 22.3652257,26.5409508 22.489748,27.1881978 L22.2577213,27.2800263 L22.2577213,27.2855653 C22.286237,27.3245585 22.324421,27.3556424 22.3686013,27.3758278 L23.440324,27.479945 C23.4676553,27.4753268 23.5011907,27.4633643 23.5394193,27.4523225 C23.7218432,27.3843181 23.9145695,27.3472452 24.109476,27.3426663 C24.3031232,27.3434925 24.4941829,27.3866999 24.668936,27.469186 C24.7465538,27.4413614 24.827871,27.424911 24.9103053,27.4203573 L24.961888,27.4191538 C25.4367416,27.4611737 25.8521617,27.7521376 26.0497367,28.1810925 C26.087958,28.2397523 26.1258493,28.2947218 26.1656033,28.3494158 C26.3656713,28.6292005 26.6275447,29.0376293 26.6381047,29.055457 L26.7561713,29.237867 L26.6117047,29.4043415 C26.4767098,29.5786449 26.2674338,29.6810114 26.0453807,29.6813568 C25.9801911,29.6808139 25.9151959,29.6742409 25.8512453,29.6617238 C25.7928146,29.6505032 25.7357473,29.6332077 25.6809947,29.6101255 C25.672928,29.6660158 25.660806,29.7326505 25.650576,29.7900923 L25.4626153,30.7596565 C26.5672858,30.5404476 27.3465648,29.5594162 27.300092,28.4464643 L27.2982,24.8225083 Z" id="Shape" fill="#FFE710" fill-rule="nonzero"></path>
        <path d="M17.5529333,24.530674 L25.1326667,24.530674 C24.8269721,24.2123752 24.7208937,23.7547386 24.8558847,23.336599 C24.7538177,23.2881008 24.6588313,23.226218 24.5734927,23.152623 C24.2771307,23.3685208 23.3731433,24.019317 23.136768,24.1826958 L23.086124,24.2161835 L20.1113867,23.6845628 L20.051114,23.6845628 C19.954159,23.6847437 19.8572764,23.6793139 19.7609633,23.668301 C19.7315547,23.7983314 19.6152116,23.8910536 19.4804413,23.8918693 C19.464499,23.8919365 19.4485866,23.8904968 19.4329213,23.88757 C19.273559,23.861144 19.1654616,23.7127512 19.1906207,23.5549473 L19.2017893,23.4913865 C18.8222336,23.2188201 18.6403182,22.7510586 18.737406,22.2973115 L18.749506,22.2441473 L18.7930073,22.2134725 C18.7992187,22.2088543 18.8504787,22.174163 18.9275227,22.1311633 L18.711292,22.0982773 C18.6310503,22.0847126 18.5765202,22.0101898 18.588598,21.9305993 C18.5946106,21.8921563 18.6159108,21.857682 18.6477617,21.8348427 C18.6796127,21.8120034 18.7193739,21.8026924 18.7582033,21.8089805 L19.2732747,21.8894555 L19.320208,20.0968423 L20.0862333,19.2956158 L20.5646233,20.2909973 L20.0598333,22.0154315 L20.5149547,22.08638 C20.5957456,22.0992981 20.6506653,22.1744962 20.6376487,22.254377 C20.6260933,22.3248075 20.5641299,22.3762639 20.4919647,22.3753578 C20.4840747,22.3755128 20.4761825,22.3752054 20.4683293,22.374437 L20.0983773,22.3154945 C20.1033347,22.3265363 20.1104773,22.3330033 20.1151487,22.344364 C20.1560971,22.4155204 20.2182453,22.472461 20.2931213,22.5074238 L22.560522,22.5430793 C22.656816,22.4506055 22.8944893,22.2202948 23.1395547,21.9764483 C22.7042858,21.8189186 22.3965733,21.4315634 22.3449367,20.9761658 C22.0620165,20.8700673 21.8306906,20.6612657 21.6981367,20.392345 C21.5918573,20.1427429 21.5726233,19.8652708 21.6434667,19.6036683 C21.2861333,19.4649598 20.9635901,19.2510765 20.6982,18.9768478 L17.2823333,18.9768478 C17.4449557,19.367613 17.53656,19.7836817 17.5529333,20.2059185 L17.5529333,24.530674 Z" id="Shape" fill="#FFE710" fill-rule="nonzero"></path>
        <path d="M25.7415031,34.9477567 L25.2148642,35.0928401 C24.3081855,35.3426204 23.3722449,35.4733743 22.4311141,35.481746 L22.4222813,35.4817465 C21.4803202,35.4734845 20.5435379,35.3427364 19.636026,35.092858 L19.1089991,34.947744 L19.3416045,34.3255341 C18.6699529,34.1376248 18.0165435,33.8905025 17.3892521,33.5870648 L16.2748163,33.0479823 L17.9073298,32.5121266 L17.4353892,30.98997 L18.4786597,31.5046105 C19.0486479,31.7857831 19.6412018,32.0198935 20.2502631,32.2045439 L20.7574538,32.3583098 L20.6297841,32.7052849 C21.213288,32.8364449 21.809143,32.905523 22.4036767,32.9111983 L22.4423361,32.9112219 C23.0411937,32.9053961 23.6375102,32.8363594 24.2211464,32.7054083 L24.0935606,32.3581636 L24.6006051,32.204517 C25.2097448,32.019933 25.8023638,31.7858302 26.3723905,31.5046117 L27.4142558,30.990615 L26.9441786,32.5121546 L28.5746551,33.0480694 L27.4617059,33.5869721 C26.8344952,33.8906746 26.1810291,34.1378053 25.5092565,34.3254404 L25.7415031,34.9477567 Z M27.2438013,33.1369525 L26.321488,32.833801 L26.593606,31.953013 C26.0412628,32.2255075 25.4686071,32.455581 24.8807136,32.6412287 L25.3337764,33.8552329 C25.9912878,33.6742626 26.6306656,33.4338398 27.2438013,33.1369525 Z M24.3950018,33.1785827 C23.7565249,33.326772 23.1032979,33.4048156 22.4472,33.4111983 L22.4036767,33.4111983 C21.7475028,33.4049571 21.0941972,33.3268436 20.4557077,33.1783822 L19.9545736,34.5207681 L19.8960876,34.6772156 C20.761767,34.9155757 21.5280753,34.9738841 22.4266667,34.9817658 C23.324426,34.9737799 24.0775693,34.8682608 24.9424153,34.6300049 L24.8838971,34.4732023 L24.3950018,33.1785827 Z M18.2574613,31.9530203 L18.5305473,32.8338083 L17.60698,33.1369598 C18.2203375,33.4336572 18.8598064,33.6741314 19.5173507,33.85542 L19.9711413,32.6415488 C19.3829847,32.4557957 18.8100673,32.2256182 18.2574613,31.9530203 Z" id="Shape" fill="#231F20" fill-rule="nonzero"></path>
        <path d="M24.9865647,10.8575945 C25.1030886,10.2624444 25.3274603,9.69301624 25.64886,9.176769 L24.728424,9.280241 L24.246624,8.26891675 L23.321832,8.74034075 L22.4243787,7.86381575 L21.529712,8.74034075 L20.6027347,8.2689095 L20.121866,9.28023375 L19.201716,9.17676175 C19.5232817,9.69289792 19.7475755,10.2623744 19.8637253,10.8575872 C20.609735,10.3318504 21.5085374,10.060404 22.424364,10.0842515 C23.3408062,10.059561 24.2403644,10.3310724 24.9865647,10.8575945 Z M20.1778691,10.0882633 C20.1430924,9.98334823 20.1051479,9.87951007 20.0640906,9.77688822 L20.4203116,9.81694572 L20.8337855,8.94736065 L21.6231267,9.34879453 L22.4249223,8.5632574 L23.2291989,9.34877848 L24.0161262,8.94763269 L24.4302541,9.81690959 L24.7865928,9.77685132 C24.7455304,9.87944317 24.7075718,9.98324828 24.6727717,10.088128 C23.9801253,9.74003205 23.2078773,9.56518443 22.424301,9.58409832 C21.6414446,9.56586099 20.8700079,9.74071828 20.1778691,10.0882633 Z" id="Path" fill="#231F20" fill-rule="nonzero"></path>
        <path d="M35.8306507,21.930679 L35.760632,21.9288158 C35.6189716,21.9239944 35.4779679,21.9074598 35.3390973,21.8793853 C35.39937,22.6898193 35.7000807,24.187633 37.0588227,24.7453538 L37.475114,24.9148805 L37.250516,25.301552 C36.8846711,25.8574114 36.2558386,26.1887121 35.585116,26.1789688 C35.1749963,26.1832758 34.7699395,26.0891729 34.404684,25.9047303 C34.3471301,26.368752 34.2422176,26.8258232 34.0915507,27.2689555 C33.8325323,27.9459498 33.8274616,28.6922931 34.077258,29.3726663 L34.2807287,29.7974438 L33.8203493,29.9184245 C33.6074654,29.9689675 33.3894094,29.9951451 33.1704767,29.9964418 C33.024367,29.9972613 32.8786507,29.9813897 32.736226,29.9491428 C32.4320726,29.8802822 32.1492324,29.7398387 31.9117467,29.5397498 C31.7690862,29.9858914 31.5250067,30.3938224 31.1982133,30.7322805 C30.4615962,31.4169568 29.4702244,31.768067 28.4614133,31.701562 L27.740092,31.6920065 L28.1389667,31.0894735 C28.3390533,30.680002 28.4433204,30.2312472 28.4440333,29.7764985 C28.4547523,28.9479866 28.798043,28.1576412 29.398342,27.5794295 C29.275546,27.5232221 29.1616052,27.4497754 29.060048,27.361364 C28.6731288,27.0379288 28.4514433,26.5613451 28.4549087,26.060424 L28.4825553,25.7023465 L28.843832,25.6964813 C29.6822498,25.7383287 30.4931647,25.3947304 31.0407153,24.7656248 C31.1595247,24.6295451 31.2648016,24.4824693 31.355088,24.3264343 C30.9945548,24.4338733 30.6198402,24.4875985 30.2432887,24.48584 C30.127422,24.48584 30.0040973,24.4787713 29.8748693,24.470499 C29.4341274,24.4269251 29.0174286,24.2510509 28.680746,23.9665008 L28.303314,23.623757 L28.734514,23.3498375 C30.0796434,22.592911 30.6009437,20.9346497 29.9267673,19.5572683 C29.4362627,18.2394213 28.301158,17.0457088 26.4612247,15.9016588 C25.9431588,15.6602561 25.5811806,15.1791067 25.496356,14.6191338 C25.496356,13.9438035 26.068246,13.6778373 26.4866933,13.4877133 C26.6768209,13.4151089 26.8526094,13.3101291 27.006084,13.1775365 C27.329484,12.806525 27.0567353,12.0958655 26.7560173,11.71076 L26.372704,11.211061 L26.993984,11.0891595 C27.1372517,11.0671966 27.2820457,11.0564164 27.4270247,11.0569188 C28.2110269,11.0504006 28.9639721,11.3595048 29.512698,11.9131438 C29.9724976,12.3591867 30.2108082,12.9824534 30.1644333,13.6176623 C30.2225207,13.622237 30.282478,13.624731 30.344606,13.6281023 L30.4123293,13.6281023 C31.0143809,13.5667692 31.5349947,13.1864475 31.7710933,12.6354903 L32.02831,12.0388153 L32.4396073,12.5418493 C32.8686347,13.0471247 33.0406463,13.7184998 32.9066528,14.3647658 C32.7726593,15.0110318 32.3473462,15.5613594 31.7518433,15.8590143 C31.6944667,15.8948459 31.640032,15.9350868 31.5890433,15.9793643 C32.7247662,16.4289657 33.6879636,17.221511 34.3413607,18.2440468 L34.4504,18.3788968 C35.1728973,19.2874194 36.2639942,19.8345704 37.43448,19.8742165 L37.9883373,19.857034 L37.8231173,20.380948 C37.5500543,21.2572289 36.756373,21.8745504 35.8306507,21.930679 Z M35.7739327,21.4289927 L35.8207955,21.4302397 C36.4815588,21.3824925 37.0517138,20.9673706 37.2967332,20.3683444 C36.0273111,20.2918398 34.8484538,19.6827515 34.0616014,18.6932782 L33.9200332,18.5132737 C33.3233096,17.5794293 32.4432091,16.8552584 31.4050034,16.4442613 L30.6398948,16.1413759 L31.2612091,15.6018398 C31.3319519,15.5404082 31.4074482,15.4845975 31.5282945,15.4117717 C31.9872123,15.1823872 32.3142288,14.7592491 32.4170652,14.2632572 C32.5085763,13.8218885 32.4138072,13.3651531 32.1546834,12.9913114 C31.8195684,13.623313 31.1823906,14.0520459 30.4123293,14.1281023 L30.3175144,14.1273678 L30.2643721,14.1246053 C30.1980525,14.1212027 30.1656977,14.1193101 30.1251767,14.1161188 L29.6295613,14.0770859 L29.6657605,13.5812555 C29.7013456,13.0938374 29.518348,12.615234 29.1575724,12.2651179 C28.70391,11.8073937 28.0805859,11.5515024 27.4252923,11.5569157 C27.3710844,11.5567279 27.3169085,11.5584611 27.2648055,11.5617693 C27.6840352,12.1900839 27.8273982,12.995643 27.3329594,13.5558915 C27.1354776,13.7265036 26.9094272,13.8614994 26.6935233,13.942929 C26.1619193,14.1844664 25.996356,14.33256 25.9907163,14.5442481 C26.0503909,14.938192 26.3057198,15.2775809 26.7252429,15.4770479 C28.6543795,16.6765635 29.8617509,17.9491958 30.3758578,19.3374553 C31.1428179,20.9043993 30.5910607,22.7811907 29.1414178,23.6894512 C29.372486,23.8470005 29.6391178,23.9448052 29.9068104,23.9715203 C30.0652737,23.981664 30.1569098,23.98584 30.2456237,23.9858455 C30.5730502,23.9873745 30.8988622,23.9406608 31.2122933,23.8472582 L32.4179097,23.4879841 L31.7878609,24.5768491 C31.6814278,24.7607893 31.5573516,24.9341284 31.417869,25.0938855 C30.7942432,25.8103974 29.8831477,26.2137456 28.9619109,26.2000373 C28.9951079,26.5006202 29.1446318,26.7804024 29.3883505,26.9842467 C29.4537352,27.0411679 29.5271892,27.0885166 29.6064426,27.1247932 L30.2738988,27.4303079 L29.7452083,27.9395458 C29.2409833,28.4252185 28.952979,29.0882798 28.9440327,29.7772824 C28.9432824,30.2558704 28.8442466,30.7287139 28.6298949,31.2086904 C29.454183,31.2278953 30.2541911,30.9271568 30.8385159,30.3849798 C31.1120723,30.1016589 31.3162392,29.7604341 31.4355021,29.3874635 L31.6629104,28.6762901 L32.2339096,29.1573742 C32.4101765,29.3058844 32.620382,29.4102614 32.8466384,29.461486 C32.9519119,29.4853214 33.0596427,29.4970556 33.1675155,29.4964505 C33.3069336,29.4956248 33.4459162,29.4825977 33.5775456,29.4588891 C33.3172483,28.6885313 33.3330218,27.8523214 33.6181649,27.1080023 C33.7578621,26.6971337 33.855129,26.2733716 33.9084862,25.8431854 L33.9959289,25.1381892 L34.6300632,25.4584073 C34.9238028,25.6067366 35.24976,25.6824631 35.5923786,25.6790215 C36.0471947,25.6856285 36.4756228,25.4823189 36.7428732,25.1530255 C35.4968677,24.5789036 34.9473368,23.3533547 34.8404744,21.9164683 L34.7915463,21.2585752 L35.4381747,21.3892999 C35.5499981,21.4119065 35.6635515,21.4252221 35.7739327,21.4289927 Z M33.4926667,21.3211208 L33.4926813,21.301205 C33.702331,22.6963289 33.713617,23.1179865 33.5265393,22.5661778 C33.3789853,24.8498553 32.2516467,26.4342775 30.933612,27.9600328 C30.530603,28.4187193 30.2176985,28.9477194 30.0109613,29.5198775 C30.1189475,28.9430104 30.3671429,28.4007372 30.7341747,27.9397545 C31.9639893,26.4787998 33.1329447,24.660362 33.2196173,22.557862 C33.2884094,21.2816947 32.9688925,20.0144182 32.302276,18.9194785 C32.7256958,20.1308279 31.9260254,18.3127441 30.5604847,16.9554535 C29.5008107,16.1589746 28.381086,15.4437678 27.211102,14.8160873 C27.4498949,14.8160873 27.8766191,14.9844999 28.4912747,15.3213253 C28.7339933,15.4384369 28.9219344,15.5324066 29.055098,15.6032343 C31.217808,16.764445 33.1612,18.6753058 33.4926667,21.3211208 Z" id="Shape" fill="#231F20" fill-rule="nonzero"></path>
        <path d="M33.2338,16.140916 L32.66807,15.8399323 L33.1933713,15.4741408 C33.4850102,15.288686 33.8233279,15.1876255 34.1700467,15.1823935 C34.6191436,15.1868515 35.0466061,15.3737746 35.35207,15.699275 C35.7601268,16.1667774 36.3177908,16.48206 36.932286,16.5926708 L37.50389,16.6261585 L37.267478,17.1439245 C36.9842531,17.6891486 36.4168462,18.0324415 35.7968807,18.0336663 C35.6409052,18.0345324 35.4858637,18.0098253 35.3380633,17.96055 C34.9495916,17.7927589 34.6192692,17.5162592 34.38781,17.1651308 C34.0819565,16.7457955 33.688369,16.3964761 33.2338,16.140916 Z M34.1775909,15.6823366 C33.988093,15.6851961 33.8020902,15.7270559 33.6384554,15.7995787 C34.0883679,16.0797823 34.481378,16.4450263 34.8052707,16.8899462 C34.983038,17.1596228 35.2371162,17.3723016 35.4962018,17.4862166 C35.5921124,17.5181923 35.692793,17.5342366 35.7958929,17.5336672 C36.1763716,17.5329156 36.5278906,17.3486456 36.7342135,17.0631152 C36.0514785,16.9159797 35.4344827,16.5540274 34.9874732,16.0414287 C34.7755055,15.8155572 34.4780294,15.6854753 34.1775909,15.6823366 Z" id="Combined-Shape" fill="#231F20" fill-rule="nonzero"></path>
        <path d="M16.7110667,31.0894373 L17.110528,31.691992 L16.3886127,31.7015113 C15.3797757,31.7675464 14.388493,31.4165073 13.6515047,30.7322298 C13.3249748,30.3937449 13.0812029,29.9858164 12.938888,29.5397353 C12.7012082,29.7402122 12.4178761,29.8806826 12.113206,29.949092 C11.9711906,29.981394 11.8258588,29.9972668 11.680136,29.996391 C11.4613113,29.9951072 11.2433631,29.9689292 11.0305933,29.9183738 L10.5689747,29.797393 L10.773384,29.372659 C11.0231775,28.6922881 11.0182059,27.9459641 10.75937,27.2689048 C10.6083529,26.8259619 10.5033385,26.3689707 10.4459507,25.9049985 C10.0814799,26.0888367 9.67745268,26.1828281 9.26830533,26.1789615 C8.59667937,26.1892889 7.96673865,25.8579451 7.60011867,25.3015085 L7.37552067,24.9148805 L7.79058733,24.7453538 C9.14965933,24.1875895 9.45130133,22.6898193 9.51250533,21.8793418 C9.37358633,21.9071948 9.23258912,21.9237271 9.090934,21.9287723 L9.01949267,21.930621 C8.09380609,21.8753132 7.30016315,21.257566 7.02855133,20.3809335 L6.858946,19.8569833 L7.41592733,19.8741658 C8.58487242,19.8350462 9.67675706,19.2878473 10.3996847,18.3788533 L10.5087313,18.2440033 C11.1619574,17.2209682 12.1256219,16.4283004 13.261958,15.9793208 C13.2112832,15.9348105 13.1569433,15.8945545 13.0995027,15.8589708 C12.50481,15.5606797 12.0799978,15.010753 11.9454541,14.3650349 C11.8109105,13.7193167 11.9812973,13.0481752 12.4083287,12.5418058 L12.823652,12.0387718 L13.07993,12.6354468 C13.3156511,13.1870992 13.8369934,13.5676861 14.4396473,13.6280588 L14.5061313,13.6280588 C14.56823,13.6246875 14.6272853,13.622237 14.685688,13.6176188 C14.6406667,12.9820924 14.8799128,12.3590313 15.3401807,11.9131438 C15.8880085,11.3594976 16.6403046,11.050338 17.4236833,11.0569188 C17.5683636,11.0563305 17.7128623,11.0671113 17.8558147,11.0891595 L18.4802187,11.2111045 L18.0943827,11.71076 C17.7936793,12.0958365 17.52063,12.8065685 17.8446093,13.1775365 C17.9979406,13.3103342 18.1737748,13.4153369 18.364022,13.4877133 C18.7824693,13.6778373 19.352812,13.9438108 19.352812,14.6191338 C19.2693491,15.1788433 18.9082693,15.6601962 18.3907447,15.9016588 C16.5480027,17.045687 15.4144233,18.2394213 14.923926,19.5572683 C14.2488613,20.9347332 14.7706668,22.5937344 16.1168027,23.3498375 L16.5480027,23.623757 L16.170248,23.9665008 C15.8330407,24.2510008 15.4159582,24.4268502 14.974856,24.470499 C14.8459213,24.4787713 14.7235793,24.48584 14.6061213,24.48584 C14.2299736,24.4877165 13.8556545,24.4340024 13.4955687,24.3264778 C13.5865154,24.4820871 13.6917576,24.6290896 13.8099633,24.7656248 C14.3572314,25.3942089 15.1674132,25.7377581 16.0052773,25.6965248 L16.3690547,25.7023248 L16.3935847,26.0604023 C16.3981921,26.5613007 16.1768248,27.0381854 15.789692,27.3613495 C15.6882906,27.4499528 15.5743273,27.5234187 15.45142,27.579415 C16.0523769,28.1573553 16.3963371,28.9477454 16.4075547,29.7765275 C16.4108407,30.23079 16.5144242,30.6788638 16.7110667,31.0894373 Z M13.9917119,30.365816 C14.5882873,30.9197232 15.3786628,31.2208865 16.2153266,31.2082133 C16.0160072,30.7582233 15.9111304,30.2725436 15.9076005,29.7832944 C15.8981947,29.0883685 15.6096232,28.4252569 15.1048354,27.9398024 L14.5742967,27.4295833 L15.2441217,27.1244124 C15.3229037,27.0885194 15.3958663,27.0414844 15.4692761,26.9775089 C15.7119458,26.7749372 15.8616426,26.4873108 15.8898906,26.1997935 C14.9495099,26.2055721 14.0503107,25.8031381 13.4319479,25.0928927 C13.2935938,24.9330849 13.1703853,24.760987 13.0638902,24.5787746 L12.4245355,23.4848426 L13.6386308,23.8473815 C13.9514816,23.9408013 14.2767511,23.9874769 14.6061213,23.98584 C14.693685,23.98584 14.7838615,23.9817249 14.9256195,23.9729291 C15.2119719,23.9445934 15.4850432,23.8441752 15.7111065,23.6896851 C14.25425,22.765297 13.7096909,20.8989222 14.4553308,19.382859 C14.9894224,17.9478851 16.1967279,16.6752474 18.1793371,15.4485508 C18.5452287,15.2778359 18.7996313,14.9386937 18.852812,14.6191338 C18.852812,14.3320711 18.6874311,14.1838462 18.1862361,13.9550378 C17.9413402,13.8618712 17.7148774,13.7266347 17.4680104,13.5064335 C17.0184346,12.9916531 17.1660062,12.1888224 17.5852323,11.5619625 C17.5309731,11.5583787 17.4758809,11.5566894 17.4194833,11.5569011 C16.7708599,11.5514524 16.1483285,11.8072845 15.6880795,12.2722627 C15.3337025,12.6155677 15.1498699,13.0943173 15.1844381,13.5822869 L15.2194818,14.0769693 L14.725103,14.1160628 C14.684398,14.1192816 14.6523296,14.1211666 14.5864832,14.1245535 C14.5593983,14.125935 14.5593983,14.125935 14.5061313,14.1280588 L14.3898078,14.1255686 C13.6645326,14.052912 13.0289812,13.6228489 12.6949228,12.9890299 C12.4378711,13.3597129 12.3424712,13.8192496 12.4349415,14.2630439 C12.5382658,14.7589304 12.8651018,15.1820254 13.3628151,15.4339218 C13.4437919,15.4840859 13.5204272,15.5408588 13.5919225,15.6036568 L14.206707,16.1436529 L13.445692,16.4443388 C12.4070566,16.8547158 11.526641,17.5789067 10.8975196,18.5583975 L10.7910137,18.6900792 C10.0076626,19.6750484 8.84064975,20.2824312 7.5537193,20.3664279 C7.79867218,20.9722724 8.37604144,21.3914074 9.00655806,21.4307883 L9.07313744,21.4290891 C9.18775214,21.425007 9.30182876,21.4116312 9.41421242,21.3890984 L10.0607391,21.259471 L10.0110857,21.9169925 C9.90265876,23.3528076 9.35379617,24.5762775 8.11006268,25.1513722 C8.3893715,25.4890009 8.81350803,25.6859119 9.27303026,25.6789838 C9.60241682,25.6820966 9.92760852,25.6064452 10.2207747,25.4585729 L10.8549768,25.1386829 L10.9421693,25.8436222 C10.9953477,26.2735618 11.0926639,26.6970526 11.226405,27.0903599 C11.5126025,27.838991 11.5327636,28.6604434 11.2699573,29.4578741 C11.4061605,29.4826792 11.544414,29.4955862 11.6831411,29.4964 C11.7905514,29.4970456 11.8976656,29.4853468 12.0036653,29.4612387 C12.230018,29.4104143 12.4403258,29.3061479 12.616514,29.1575376 L13.1879986,28.675505 L13.4152335,29.387765 C13.5341881,29.7606241 13.7380643,30.1017911 13.9917119,30.365816 Z M12.5485713,18.9193915 C11.8809448,20.0138994 11.5616624,21.2815985 11.632198,22.5577605 C11.717932,24.6602677 12.886242,26.478981 14.1139227,27.939653 C14.4825265,28.4001815 14.7322181,28.9424834 14.8414407,29.5197397 C14.6331771,28.9478302 14.3196338,28.4189732 13.916656,27.959895 C12.5986067,26.434176 11.4715613,24.84979 11.3227533,22.56604 C11.0426555,23.3934965 10.8546153,23.8995832 11.3569487,21.3010672 L11.3569487,21.3213672 C11.6899407,18.6752695 13.6324087,16.7643725 15.795742,15.603198 C15.99427,15.496913 16.9409593,14.8160873 17.638814,14.8160437 C16.4693876,15.4436751 15.3502734,16.1588866 14.2912793,16.95541 C12.5485713,18.9193915 12.1243785,20.1308084 12.5485713,18.9193915 Z" id="Shape" fill="#231F20" fill-rule="nonzero"></path>
        <path d="M9.512674,17.960753 C9.36463714,18.0098869 9.20940169,18.0344843 9.053248,18.0335357 C8.43367237,18.0317983 7.86674147,17.6887744 7.58325933,17.144113 L7.34871,16.6260207 L7.91970533,16.5928158 C8.5336068,16.4817904 9.09064284,16.1665472 9.498352,15.6994127 C9.80420632,15.3735462 10.232314,15.1866035 10.681952,15.1825675 C11.0279569,15.1877385 11.365565,15.2887094 11.6564493,15.4740175 L12.183298,15.8400917 L11.6157567,16.1407927 C11.161995,16.3967642 10.7690862,16.746034 10.4635727,17.1650075 C10.2321045,17.5164523 9.90150784,17.7931073 9.512674,17.960753 Z M9.05628531,17.533545 C9.15096531,17.5341201 9.24511933,17.5202659 9.3354054,17.492524 C9.62581438,17.3626559 9.8727153,17.1531199 10.0595744,16.8704139 C10.3690667,16.445984 10.7572136,16.0845518 11.2108384,15.8005217 C11.0435356,15.7257523 10.8634633,15.6852978 10.6864399,15.6825474 C10.3731057,15.6853599 10.0751691,15.8154605 9.87505308,16.0281928 C9.42742868,16.5410603 8.82819,16.8989182 8.11676067,17.0583831 C8.33141477,17.3526611 8.67907838,17.5324849 9.05628531,17.533545 Z" id="Shape" fill="#231F20" fill-rule="nonzero"></path>
        <path d="M25.1142527,12.080365 C25.1142527,11.330715 23.8377907,10.6562765 22.42905,10.6562765 L22.4209833,10.6562765 C21.0121987,10.6562765 19.735744,11.3307222 19.735744,12.080365 L19.763728,12.2646237 L20.3262753,15.4573932 L19.7612127,15.7817075 L18.2993493,16.625999 L18.3046293,16.625999 C18.3046293,16.625999 17.975656,16.792749 17.823108,16.8956265 C17.2664493,17.2777015 17.148104,17.8357195 17.4714747,18.0660737 C17.5534473,17.5190768 18.0366436,17.1193753 18.5957113,17.1361017 C19.0629169,17.1485914 19.4959907,17.3809379 19.7612127,17.7613997 C19.8410303,17.8582851 19.9145925,17.9600472 19.981462,18.066081 C20.0659787,18.2033597 20.151104,18.3240215 20.2352613,18.4398185 L16.4693013,18.4398185 C16.7853083,18.9791179 16.9701498,19.5836728 17.0092253,20.20573 L17.0092253,28.4462467 C17.0092253,30.4412655 18.5605627,31.3930455 20.2389793,31.3930455 C21.536246,31.3930455 21.710838,31.3343857 22.4265127,32.039499 C23.1388433,31.3343785 23.3137287,31.3930455 24.6119193,31.3930455 C26.2912527,31.3930455 27.840786,30.4412655 27.840786,28.4462467 L27.840786,20.2057227 C27.8795912,19.5834945 28.0647828,18.978813 28.3816193,18.4398112 L24.61442,18.4398112 C24.6982913,18.3240142 24.7831307,18.2033525 24.8679333,18.0660737 C24.9353271,17.9606892 25.0084296,17.8589806 25.0869213,17.7613925 C25.352975,17.3807418 25.7867761,17.1484422 26.2546153,17.1360945 C26.8134627,17.1200012 27.2962917,17.5193962 27.3788593,18.0660665 C27.7022593,17.8357122 27.5851313,17.2776725 27.0253487,16.8956192 C26.8753233,16.792749 26.5460273,16.6259917 26.5460273,16.6259917 L26.5509847,16.6259917 L25.0869287,15.7817002 L24.5240147,15.457386 L25.0869287,12.2646165 L25.1142527,12.080365 Z M20.288362,12.4510502 L22.266272,13.1144252 L22.266272,16.1868157 L20.8099747,15.4282555 L20.288362,12.4510502 Z M20.6981193,18.9766447 C20.9634776,19.2509109 21.2860297,19.4648001 21.643386,19.6034652 C21.5725216,19.8651726 21.5917552,20.1427521 21.698056,20.392461 C21.8305161,20.6613775 22.061889,20.8701048 22.344856,20.9759555 C22.3965293,21.4314366 22.7043858,21.8188194 23.1397893,21.976238 C22.89468,22.2200845 22.656728,22.4504387 22.560456,22.543188 L20.293378,22.507576 C20.2183858,22.4724938 20.1561239,22.415455 20.1150387,22.3441972 C20.11069,22.3328365 20.1032613,22.3266885 20.09859,22.3156467 L20.468256,22.3745892 C20.4760973,22.3753507 20.483977,22.3756582 20.4918547,22.37551 C20.5641685,22.3765141 20.6262405,22.3248315 20.6375387,22.2542102 C20.6503935,22.1744761 20.5957333,22.0994361 20.5151673,22.0862132 L20.0600827,22.0152647 L20.5648727,20.2911132 L20.0864827,19.295768 L19.3204207,20.0970162 L19.2731867,21.8896657 L18.7581593,21.808879 C18.7192894,21.8026591 18.6795163,21.8120386 18.6476714,21.8349348 C18.6158265,21.8578311 18.5945456,21.892349 18.588554,21.930824 C18.5765804,22.0104978 18.6312472,22.0850115 18.7115707,22.098502 L18.9274347,22.131069 C18.8503907,22.1743515 18.7991013,22.2090862 18.7932347,22.213661 L18.7494547,22.244111 L18.7373107,22.2972317 C18.6405637,22.7510479 18.8224137,23.2187236 19.2017307,23.4916112 L19.190848,23.555172 C19.1657229,23.7128669 19.2736327,23.8611861 19.432848,23.8877947 C19.4485456,23.8904472 19.4644428,23.8917763 19.480368,23.8917677 C19.6150921,23.8909112 19.7314516,23.7983814 19.761176,23.6684677 C19.8573905,23.6795182 19.9541793,23.6849627 20.0510407,23.684773 L20.1115993,23.684773 L23.086058,24.2160747 L23.136658,24.182906 C23.3734,24.019201 24.2770647,23.3684482 24.5734193,23.152507 C24.6587685,23.2261494 24.7537269,23.2881365 24.8557527,23.3368092 C24.7208986,23.7549022 24.8271068,24.2124223 25.1328647,24.5305435 L17.5528453,24.5305435 L17.5528453,20.2057517 C17.536472,19.783515 17.4448677,19.3674463 17.2822453,18.9766447 L20.6981193,18.9766447 Z M24.373696,22.9332017 C24.0732713,23.1521952 23.299172,23.7111267 23.0180413,23.9052165 L20.3154147,23.4249112 C20.321626,23.4009427 20.3281233,23.3770105 20.334056,23.3536437 C20.3807636,23.1736615 20.40547,22.9887908 20.407646,22.8029917 L22.6793953,22.83893 L22.7228967,22.7953212 C22.7573633,22.7612462 23.4771447,22.07362 23.8440093,21.6783572 C23.939316,21.7970592 24.0541038,21.8991001 24.1835867,21.9802255 C24.1200872,22.3102396 24.1882161,22.6517443 24.3737033,22.933209 L24.373696,22.9332017 Z M19.8481933,22.470659 C19.9076378,22.5831197 19.9975516,22.6770171 20.1078813,22.7418525 C20.1048921,22.9052045 20.0889075,23.0680708 20.0600753,23.2289437 C20.05228,23.2670062 20.0423653,23.3020237 20.0318053,23.3367512 C20.0262027,23.3588347 20.0196613,23.3769815 20.01499,23.3914017 C19.8297341,23.3924067 19.6455001,23.364213 19.4692213,23.3078817 C19.1446575,23.135351 18.9627894,22.7815246 19.0131687,22.4206267 C19.1637665,22.3216787 19.337175,22.2618804 19.51735,22.2467645 C19.6649005,22.2431408 19.7982113,22.3333544 19.8481933,22.4706517 L19.8481933,22.470659 Z M19.5670627,21.9375085 L19.6130353,20.2161265 L20.0038213,19.8073715 L20.2492533,20.3153427 L19.7652533,21.9676177 L19.5670627,21.9375085 Z M24.3488433,30.8601342 C24.2009667,30.8601342 24.0645887,30.8623092 23.942496,30.8668767 L24.2640407,29.8767515 C24.314362,29.7397917 24.06024,29.563479 23.9552487,29.4086915 C24.2036242,29.5548251 24.4594034,29.6882934 24.721582,29.8085725 C24.7017233,29.8408132 24.3488287,30.860127 24.3488287,30.860127 L24.3488433,30.8601342 Z M25.359362,29.7351735 L25.149064,30.8189687 C25.0145487,30.8377172 24.8732133,30.8472437 24.726884,30.8530437 L24.9483947,29.8113275 C25.014556,29.5020715 24.1736427,29.4053275 23.7582827,28.7965885 C23.4884852,29.0191711 23.1393038,29.1247997 22.789718,29.0895827 C22.4830084,29.0854103 22.1773572,29.0530275 21.876718,28.9928532 C21.8251105,28.9839243 21.7728615,28.9791044 21.720474,28.9784402 C21.5928754,28.9700628 21.4716416,29.0344573 21.408272,29.1442695 L21.3474053,29.246219 L20.20144,28.9793247 L19.9165693,29.4461377 C19.870608,29.5119268 19.8798194,29.6009831 19.938298,29.6562137 L20.0156647,29.73977 C19.941495,29.8925001 19.8430124,30.0324723 19.723974,30.1543467 L19.5537233,29.943988 C19.4248098,29.7341566 19.4357108,29.4683664 19.5813847,29.2695422 L20.0358533,28.510982 L21.0066107,28.6495077 L20.8559693,28.3098162 C20.6531,27.8602292 20.962178,27.2886537 20.995112,26.9594457 C20.9839433,27.0589447 20.8913453,27.0813472 20.783912,27.0813472 C20.6860707,27.0813472 20.5767013,27.062954 20.5040427,27.062954 C20.4812134,27.0607551 20.4582273,27.0651178 20.4378447,27.0755182 L20.1747467,27.2330752 L19.967536,27.0518687 C19.9348092,26.9933142 19.9463218,26.9202841 19.99552,26.8743525 L20.4754573,26.341811 L19.908202,25.686759 L20.702534,26.081101 L20.9451647,25.7905572 C21.011898,25.8550387 20.9827333,26.0239637 20.9827333,26.0239637 C21.5704671,26.1694972 21.9776019,26.6984197 21.9628333,27.297245 C21.9647033,27.3243092 21.9647033,27.3547012 21.9647033,27.3838535 C21.9647033,27.3838535 21.9712007,27.3949387 21.9833447,27.413042 C22.0639157,27.5406658 22.1919782,27.6318862 22.3399353,27.6670457 L23.437772,27.7745342 L23.4421207,27.7745342 C23.6600162,27.7084762 23.8834208,27.6617011 24.109696,27.6347615 C24.3061537,27.6361538 24.4979995,27.6937653 24.66205,27.8006342 C24.7391603,27.7476519 24.8300445,27.717688 24.9238867,27.7143085 C24.9364897,27.7130526 24.9491575,27.7125442 24.961822,27.712786 C25.4538887,27.712786 25.6585987,28.1528972 25.922958,28.5180435 C26.121442,28.7965812 26.3873413,29.2096935 26.3873413,29.2096935 C26.3104082,29.3217407 26.1823094,29.3888123 26.0453293,29.3887685 C25.9977589,29.3888665 25.9502988,29.3842395 25.903664,29.3749572 C25.375598,29.2788295 25.2994853,28.2054742 24.9981293,28.1207072 C24.9825318,28.1166142 24.9664609,28.1145499 24.9503233,28.1145665 C24.8916569,28.116081 24.8383555,28.1486945 24.810814,28.199928 C24.9484533,28.5660022 24.868014,28.713721 25.0164847,28.9956735 C25.121659,29.1682847 25.2525702,29.3242225 25.4047993,29.4582235 C25.4047993,29.4582235 25.382748,29.6167085 25.3594353,29.7352387 L25.359362,29.7351735 Z M19.459952,28.7109877 L19.510596,28.836304 C19.477046,28.9459602 19.09682,29.1007477 19.09682,29.1007477 L19.0148187,28.9229125 C18.9081176,28.671411 18.9892175,28.3803855 19.2111467,28.2183937 L19.8274693,27.8470995 L20.4813533,27.9843782 C20.4770293,28.1128526 20.5164118,28.239049 20.5932013,28.342782 L19.908202,28.2125647 L19.4984887,28.4926322 C19.4330784,28.5461419 19.4167343,28.6387299 19.4599447,28.7109805 L19.459952,28.7109877 Z M25.4625493,30.7597652 L25.650796,29.789882 C25.6607473,29.7327882 25.6728473,29.6661317 25.6809287,29.6102415 C25.7356864,29.6332332 25.7927556,29.6504199 25.8511793,29.6615135 C25.9151231,29.6741166 25.9801161,29.6807986 26.0453147,29.6814727 C26.2673678,29.6811274 26.4766438,29.5787609 26.6116387,29.4044575 L26.7560613,29.2380265 L26.6380387,29.055573 C26.6274787,29.037448 26.3659207,28.6289902 26.1655373,28.3495317 C26.125776,28.2945622 26.0882073,28.2398755 26.0499933,28.180933 C25.8522198,27.7520469 25.4367026,27.4612093 24.961822,27.419277 L24.9105253,27.420524 C24.8280647,27.4248758 24.7467178,27.4413322 24.669156,27.4693527 C24.4944494,27.3867297 24.3033614,27.3435011 24.109696,27.3427895 C23.914836,27.3474126 23.7221467,27.3843729 23.539676,27.4521267 C23.5014547,27.463212 23.4675893,27.4751745 23.4405807,27.4800755 L22.368528,27.3760017 C22.3245575,27.3554435 22.2865255,27.3242786 22.257934,27.2853767 L22.257934,27.2801567 L22.4900047,27.1883282 C22.3654576,26.5409978 21.899508,26.0093305 21.269144,25.795277 C21.2509502,25.7136301 21.2091911,25.6389537 21.1489287,25.5803 L20.918442,25.364076 L20.7159027,25.604225 L20.6161693,25.7264527 L19.1148307,25.1168582 L20.0914767,26.3290582 L19.7062933,26.9064555 C19.668313,26.9476473 19.6484991,27.0021025 19.6512351,27.0577744 C19.6539711,27.1134463 19.6790313,27.1657461 19.720872,27.2031037 L20.1191307,27.4742972 L20.5316453,27.3219602 C20.5454034,27.3228336 20.5590999,27.324482 20.572668,27.3268975 C20.5524793,27.3889357 20.5266953,27.6321805 20.5096013,27.7000332 L19.792966,27.5609057 L19.0402653,27.981065 C18.7013926,28.2231276 18.5782802,28.6655426 18.744226,29.0449082 L18.8277673,29.2254767 L18.9464427,29.4804085 L19.2098633,29.372601 L19.219492,29.3683017 C19.1167081,29.6264505 19.1594697,29.919072 19.331956,30.1379037 L19.4919327,30.336619 L19.7047093,30.6025925 L19.93832,30.3544467 C20.0916254,30.2038655 20.213909,30.025297 20.2983867,29.8286477 L20.3490307,29.6674367 L20.2353127,29.543324 L20.2163853,29.5209215 L20.3447187,29.3117662 L21.2797187,29.5295127 L21.4903467,29.5774135 L21.6021947,29.3947135 L21.6630613,29.2954972 C21.6745527,29.2742982 21.677354,29.270927 21.7205327,29.270927 C21.7548357,29.2708906 21.7890321,29.2747019 21.822466,29.2822877 C22.1411684,29.3444521 22.4649858,29.3774583 22.7898133,29.3808877 C23.0083408,29.3929029 23.227313,29.3671268 23.4368773,29.3047192 C23.4368773,29.3047192 23.938866,29.8685807 23.95629,29.890106 L23.6487227,30.8283502 L23.6350753,30.8848422 C23.1777343,30.8810881 22.7396193,31.0664747 22.4266447,31.3961847 C21.9289973,30.9081727 21.5764327,30.8565745 20.2391113,30.8565745 C18.6380613,30.8565745 17.5529773,29.9288065 17.5529773,28.4463337 L17.5529773,24.8226822 L27.298244,24.8226822 L27.3001067,28.4463337 C27.3467015,29.5593912 26.5674034,30.5405819 25.46263,30.759845 L25.4625493,30.7597652 Z M27.5692913,18.9766157 C27.40492,19.3669195 27.3126497,19.7831931 27.296858,20.2056865 L27.2980973,22.9098422 C26.9464358,22.8306308 26.6870958,22.5354782 26.656944,22.1801515 L26.6463473,22.0563577 L26.5233673,22.045635 C26.3134916,22.0276728 26.1173412,21.9350194 25.9713433,21.7848815 C25.7941518,21.5816098 25.6949593,21.3231787 25.691144,21.0548645 C25.5121113,21.3359933 25.5301121,21.6978199 25.7361853,21.9602227 C25.8943701,22.1589619 26.1251767,22.2883328 26.3789007,22.3204752 C26.4516069,22.7853141 26.82627,23.1467214 27.2980973,23.2071502 L27.2980973,24.5305 L25.6119,24.5305 C25.1620604,24.3063645 24.9710437,23.7713888 25.178874,23.3177345 L25.2447493,23.1749095 L25.0959413,23.1192947 C24.6087766,22.9510224 24.3439636,22.4314988 24.497006,21.9442727 L24.5308787,21.823292 L24.416222,21.769526 C23.9856507,21.5238829 23.7509249,21.0428218 23.8244733,20.5567605 C23.5904014,20.7825359 23.5321075,21.1325966 23.6806153,21.4206415 C23.6010927,21.5109475 23.4942387,21.6196757 23.3768247,21.739453 C22.9600601,21.6498142 22.6557868,21.2951402 22.6343613,20.874006 L22.6328213,20.773231 L22.5380673,20.736981 C22.2922321,20.6651274 22.0866226,20.497348 21.968656,20.2723357 C21.8904869,20.0866659 21.8765098,19.8806755 21.9288947,19.6863472 C22.0088616,19.7045911 22.0900341,19.7172183 22.171804,19.7241342 C22.2540429,19.7328182 22.3366786,19.7373215 22.4193847,19.7376265 L22.430876,19.7376265 C23.0877776,19.7364361 23.7133485,19.4598663 24.1522,18.9766157 L27.5692913,18.9766157 Z M24.942176,16.2435905 L25.6081673,16.6259627 L25.61751,16.6259627 L25.7849593,16.7223877 C25.4399938,16.815314 25.1272237,16.9995591 24.8803633,17.2552627 C24.8713433,17.2629332 24.863592,17.2718435 24.8539267,17.2810437 C24.798648,17.339428 24.7439853,17.4020607 24.6911853,17.4668685 C24.68152,17.4791572 24.67096,17.4920477 24.660114,17.506178 C24.6088589,17.5715875 24.55997,17.6391502 24.5134473,17.7088662 C24.5056887,17.7208287 24.4969987,17.7328347 24.4889173,17.7444782 C24.4339173,17.8258667 24.380802,17.9127942 24.3283173,18.0027812 C23.9596886,18.7276268 23.2410705,19.2151652 22.4243713,19.294492 C21.6079781,19.2151811 20.8897323,18.7275741 20.5216793,18.0027812 C20.4700967,17.915252 20.4179127,17.830166 20.3632793,17.7481757 C20.3523967,17.7328347 20.3424453,17.7168557 20.3324793,17.7036462 C20.2862207,17.636388 20.2389867,17.5706595 20.1917893,17.5089475 C20.1796453,17.4920405 20.1684767,17.4791572 20.1563767,17.464418 C20.105124,17.402068 20.05228,17.3400225 19.9985487,17.2828852 C19.9870573,17.2740112 19.9796213,17.262926 19.96967,17.253733 C19.7224699,16.9984544 19.4094684,16.8147374 19.0644213,16.722395 L19.233418,16.62597 L19.2408907,16.62597 L19.9081433,16.2435977 L20.59249,15.8560055 L22.420976,16.8400262 L22.424386,16.8360097 L22.429666,16.8400262 L24.2578293,15.8560055 L24.942176,16.2435905 Z M24.0400587,15.428212 L22.5834313,16.1868157 L22.5834313,13.1144107 L24.56008,12.4510357 L24.0400587,15.428212 Z M22.424386,12.7765752 L20.2576207,11.9305002 C20.4421273,11.4989802 21.2917747,11.1322752 22.424386,11.1310645 C23.5588527,11.1323115 24.4084633,11.4989802 24.59176,11.9305002 L22.424386,12.7765752 Z" id="Shape" fill="#231F20" fill-rule="nonzero"></path>
    </g>
</svg>