<?xml version="1.0" encoding="UTF-8"?>
<svg width="44px" height="44px" viewBox="0 0 44 44" version="1.1" xmlns="http://www.w3.org/2000/svg" xmlns:xlink="http://www.w3.org/1999/xlink">
    <!-- Generator: Sketch 54.1 (76490) - https://sketchapp.com -->
    <title>icons/banks/44/tkb-mono</title>
    <desc>Created with Sketch.</desc>
    <g id="icons/banks/44/tkb-mono" stroke="none" stroke-width="1" fill="none" fill-rule="evenodd">
        <path d="M7,17.7424793 L13.625124,17.7424793 C16.6031651,22.9166382 20.8976843,27.2103589 26.0723967,30.187438 L26.0723967,36.8102479 C17.1039989,33.7521682 10.0603938,26.7085631 7.00231405,17.7401653" id="Path" fill="#FFFFFF" fill-rule="nonzero"></path>
        <path d="M26.0723967,17.7424793 L26.0723967,30.1897521 C20.8982379,27.2117109 16.6045171,22.9171918 13.627438,17.7424793 L26.0723967,17.7424793 Z" id="Path" fill-opacity="0.8" fill="#FFFFFF" fill-rule="nonzero"></path>
        <path d="M26.0723967,17.7424793 L13.625124,17.7424793 C12.0519898,15.0089193 10.874007,12.0662995 10.126281,9.00231374 L17.3299174,9.00231405 C19.6483542,9.00170022 21.872044,9.92226543 23.5116435,11.5614309 C25.1512429,13.2005964 26.0723968,15.4240424 26.0723967,17.7424793" id="Path" fill="#FFFFFF" fill-rule="nonzero"></path>
        <path d="M34.812562,26.4826446 L34.812562,33.6816529 C31.7485631,32.9361869 28.8058434,31.7597223 26.0723967,30.187438 L26.0723967,17.7424793 C30.899831,17.7437571 34.8125622,21.6575242 34.812562,26.4849587" id="Path" fill-opacity="0.6" fill="#FFFFFF" fill-rule="nonzero"></path>
        <path d="M26.0006612,9.00231405 C26.9747425,13.4018248 30.4107372,16.8378195 34.8102479,17.8119008 L34.8102479,9.00231405 L26.0006612,9.00231405 Z" id="Path" fill="#FFFFFF" fill-rule="nonzero"></path>
    </g>
</svg>