<?xml version="1.0" encoding="UTF-8"?>
<svg width="44px" height="44px" viewBox="0 0 44 44" version="1.1" xmlns="http://www.w3.org/2000/svg" xmlns:xlink="http://www.w3.org/1999/xlink">
    <!-- Generator: Sketch 54.1 (76490) - https://sketchapp.com -->
    <title>icons/banks/44/tochka-mono</title>
    <desc>Created with Sketch.</desc>
    <defs>
        <rect id="path-1" x="8" y="8" width="28" height="28" rx="1.86666667"></rect>
        <linearGradient x1="99.8271917%" y1="18.205922%" x2="0.172808275%" y2="92.7760578%" id="linearGradient-3">
            <stop stop-color="#FFFFFF" stop-opacity="0.8" offset="0%"></stop>
            <stop stop-color="#FFFFFF" stop-opacity="0.5" offset="100%"></stop>
        </linearGradient>
    </defs>
    <g id="icons/banks/44/tochka-mono" stroke="none" stroke-width="1" fill="none" fill-rule="evenodd">
        <mask id="mask-2" fill="white">
            <use xlink:href="#path-1"></use>
        </mask>
        <g id="Mask"></g>
        <path d="M31.1054687,8.07109375 C28.7534505,11.0226997 27.0384277,12.9961589 25.9604004,13.9914714 C24.3433594,15.4844401 22.2264974,17.1815755 21.841862,17.527474 C21.4572266,17.8733724 20.7712402,18.4921672 20.7712402,18.6071818 C20.7712402,18.6838582 20.7986979,18.7343682 20.8536133,18.7587118 L14.9188802,22.9333333 L14.9816569,23.0145955 L15.2386312,22.9333333 C14.9407552,23.1916558 14.7319078,23.3626397 14.612089,23.446285 C14.4323608,23.5717529 12.7163127,24.5379557 12.2971842,24.7050944 C12.0177653,24.8165202 11.9969727,24.8880602 12.2348063,24.9197144 C11.444458,25.2786391 11.0492839,25.486575 11.0492839,25.5435221 C11.0492839,25.6004693 11.1295492,25.6349528 11.2900798,25.6469727 C10.8685303,25.8334039 10.6412543,25.9773668 10.608252,26.0788615 C10.5752496,26.1803562 10.6331936,26.3621257 10.7820841,26.6241699 C10.5140205,26.7731554 10.3799886,26.8995822 10.3799886,27.0034505 C10.3799886,27.1592529 10.3848592,27.2586304 10.2671102,27.3547323 C10.1493612,27.4508341 9.7513387,27.6100545 9.66275635,27.7338704 C9.57417399,27.8576864 9.33784993,27.9437337 9.28245036,28.0209513 C9.22705078,28.0981689 9.26442057,28.2291056 9.16612549,28.2291056 C9.0678304,28.2291056 8.94871419,28.1871216 8.88294678,28.2291056 C8.81717936,28.2710897 8.2680542,28.4751139 8.2680542,28.5422201 C8.2680542,28.6093262 8.43764242,28.8449666 8.40198161,28.8449666 C8.37820774,28.8449666 8.14736192,28.9867933 7.70944417,29.2704468 L7.70944417,30.3712891 L9.54440918,29.4612549 L9.66275635,29.4612549 C12.1939711,28.123367 13.623546,27.3645304 13.9514811,27.1847453 C14.2794162,27.0049601 15.693202,26.2364488 18.1928385,24.8792114 C15.2867296,26.705603 13.8336751,27.6379774 13.8336751,27.6763346 C13.8336751,27.7146918 13.8336751,27.7900296 13.8336751,27.9023478 L7.93904622,31.5647868 L7.93904622,36.5391276 L36.3638997,36.5391276 L36.3638997,19.713265 C35.9644531,19.7480333 35.7329522,19.795657 35.669397,19.8561361 C35.5740641,19.9468547 35.0582642,20.4831055 34.9581177,20.7162679 C34.875887,20.7946818 33.248877,21.9546834 32.9244263,22.0790405 C32.5999756,22.2033976 32.2001587,22.2531576 32.1022909,22.3464966 C32.004423,22.4398356 31.3385173,23.1268473 31.0502401,23.3414958 C30.7619629,23.5561442 30.9195028,23.5844564 30.5789591,23.5844564 C30.2384155,23.5844564 30.058488,23.7834106 29.9685669,23.7834106 C29.8786458,23.7834106 29.65118,23.7994466 29.6061198,23.8431396 C29.5760796,23.8722683 27.8719659,25.1951362 24.4937785,27.8117432 C27.3222046,25.1938829 28.9619181,23.7263496 29.4129191,23.4091431 C29.8639201,23.0919366 32.1223619,21.234318 36.1882446,17.8362874 L36.1882446,7.83502604 L31.0502401,7.83502604 L31.1054687,8.07109375 Z" id="Path-2" fill="url(#linearGradient-3)" mask="url(#mask-2)"></path>
        <polygon id="Path" fill="#FFFFFF" mask="url(#mask-2)" points="20 31 20 19 15 19 15 14 30 14 30 19 25 19 25 31"></polygon>
    </g>
</svg>