<?xml version="1.0" encoding="UTF-8"?>
<svg width="44px" height="44px" viewBox="0 0 44 44" version="1.1" xmlns="http://www.w3.org/2000/svg" xmlns:xlink="http://www.w3.org/1999/xlink">
    <!-- Generator: Sketch 54.1 (76490) - https://sketchapp.com -->
    <title>icons/banks/44/ubrir</title>
    <desc>Created with Sketch.</desc>
    <defs>
        <linearGradient x1="50%" y1="0%" x2="50%" y2="100%" id="linearGradient-1">
            <stop stop-color="#E9426E" offset="0%"></stop>
            <stop stop-color="#D40673" offset="100%"></stop>
        </linearGradient>
        <path d="M13.4666667,27.2942857 C12.0031556,26.5251429 10.7961778,25.368 10.0023111,23.9668571 L10,18.2668571 C10.5731556,17.2171429 11.5952444,16.4251429 12.8230222,16.1171429 L12.8230222,25.0771429 C12.8235837,25.8611952 13.0465846,26.6293598 13.4666667,27.2942857 Z M13.7596,15.0491429 L13.7596,15.0497143 C12.1244889,15.0497143 10.7060444,15.9942857 10,17.3771429 L10,16.1457143 C10,14.0342857 11.6871111,12.3142857 13.7601778,12.3137143 L16.4237333,12.3137143 C17.1656,12.3137143 17.7664889,12.9262857 17.7664889,13.6817143 C17.7664889,14.4377143 17.1650222,15.0491429 16.4237333,15.0491429 L13.7596,15.0491429 Z M33.7853778,17.0285714 L33.7853778,17.0291429 C32.3756,15.7508571 30.5007111,14.9617143 28.4831111,14.9617143 L24.2364444,14.9617143 L24.2364444,24.9257143 C24.2364444,28.8211429 21.0430667,31.9885714 17.1193778,31.9885714 C13.2263111,31.9885714 10.0560444,28.8731429 10.0017333,25.0228571 C11.4224889,27.744 14.2905778,29.3314286 17.1193778,29.3314286 C19.5431556,29.3314286 21.6150667,27.3548571 21.6150667,24.9257143 L21.6150667,12.3057143 L28.2635556,12.3057143 C31.0033778,12.3057143 33.2902222,14.3422857 33.7853778,17.0285714 Z M33.8275556,19.9491429 C35.1148444,21.144 35.7868,22.552 36,24.0194286 C35.3708,25.4257143 34.2412444,26.5874286 32.7933333,27.2942857 C33.32457,26.4539269 33.5475346,25.4584846 33.4248444,24.4748571 C33.2667668,23.177489 32.4941001,22.0318617 31.3436889,21.3891429 C30.7133333,21.0331429 30.6601778,20.3148571 31.0345778,19.7382857 C31.3881778,19.1937143 31.5436,18.6394286 31.5493778,17.984 C31.5551556,17.3445714 31.3194222,16.5788571 30.9583111,16.1171429 C32.2138222,16.4457143 33.4,17.1748571 34.1615111,17.8771429 C34.18,18.3548571 34.0944889,19.2348571 33.8275556,19.9491429 Z M29.4329778,29.2645714 C32.6159556,29.2645714 35.0489778,27.3525714 35.9988444,24.9411429 C36.0629778,28.8291429 33.0544889,32 29.4329778,32 L25.1816889,32 C24.4565778,32 23.8666667,31.3885714 23.8666667,30.6314286 C23.8666667,29.8771429 24.4565778,29.2645714 25.1816889,29.2645714 L29.4329778,29.2645714 Z" id="path-2"></path>
    </defs>
    <g id="icons/banks/44/ubrir" stroke="none" stroke-width="1" fill="none" fill-rule="evenodd">
        <mask id="mask-3" fill="white">
            <use xlink:href="#path-2"></use>
        </mask>
        <use id="Mask" fill="url(#linearGradient-1)" xlink:href="#path-2"></use>
    </g>
</svg>