<?xml version="1.0" encoding="UTF-8"?>
<svg width="44px" height="44px" viewBox="0 0 44 44" version="1.1" xmlns="http://www.w3.org/2000/svg" xmlns:xlink="http://www.w3.org/1999/xlink">
    <!-- Generator: Sketch 54.1 (76490) - https://sketchapp.com -->
    <title>icons/banks/44/unicredit-mono</title>
    <desc>Created with Sketch.</desc>
    <g id="icons/banks/44/unicredit-mono" stroke="none" stroke-width="1" fill="none" fill-rule="evenodd">
        <path d="M22.6134854,14.7469084 C22.6222584,14.734375 22.6310315,14.7205882 22.6410578,14.7068015 C22.8729164,14.3696524 22.7764131,14.118984 22.6210051,13.9848763 C22.5232485,13.8983957 20.1971425,12.489639 20.1971425,12.489639 C20.0292017,12.3768382 19.9176589,12.1850769 19.9176589,11.965742 C19.9176589,11.6210729 20.1244517,11.3603777 20.5931821,11.2312834 C22.0883569,10.8201872 27.345908,10.6046123 29.1330994,10.6046123 C29.7522246,10.6046123 30.8200276,10.6021056 31.7787943,10.6296791 L31.7361825,10.5883189 C29.1168066,8.35110294 25.7153779,7 22.0006266,7 C13.7151272,7 7,13.7141544 7,22 C7,25.6422126 8.29715503,28.979863 10.4553202,31.5792948 C12.3402682,28.8683155 16.9924803,22.1892547 18.0114049,20.824365 C19.1857376,19.2514205 21.8652713,15.7545956 22.317709,15.1617647 L22.3402682,15.1341912 L22.6134854,14.7469084 Z" id="Shape" fill="#FFFFFF"></path>
        <path d="M12.8541171,33.8904579 C15.3857626,35.8406584 18.556586,37 22.0006266,37 C30.2848728,37 37,30.2845922 37,22 C37,19.4920622 36.3846347,17.129512 35.2980323,15.0527239 L35.2992856,15.0539773 C35.8156411,14.5564004 36.4109538,13.7693015 36.0199273,12.7816678 C35.8971049,12.4883857 35.3143251,11.8216076 35.1639303,11.6599265 L35.1852362,11.7175802 C35.5499436,12.819268 34.8280486,13.5098596 34.3091866,13.9786096 C34.0246898,14.2380515 30.2159418,17.828877 25.7492167,21.7342914 C21.8113799,25.1772226 17.4085725,28.6803142 14.8568743,30.5904078 C11.2687054,33.2750668 10.5706229,33.6661096 10.5706229,33.6661096 C10.4753729,33.7174967 10.3174583,33.7613636 10.2021557,33.7613636 C9.98282993,33.7613636 9.79232987,33.6636029 9.67201404,33.5056818 L9.66825417,33.5019218 C9.64945482,33.5482955 9.64318837,33.5884024 9.65948114,33.6159759 C10.0442411,34.2401404 10.6821657,34.9608122 11.0543928,34.9608122 C11.1696955,34.9608122 11.3288633,34.9169452 11.4241133,34.8668115 C11.4241133,34.8668115 11.7061035,34.7101437 12.8541171,33.8904579 Z" id="Shape" fill="#FFFFFF"></path>
    </g>
</svg>