<?xml version="1.0" encoding="UTF-8"?>
<svg width="44px" height="44px" viewBox="0 0 44 44" version="1.1" xmlns="http://www.w3.org/2000/svg" xmlns:xlink="http://www.w3.org/1999/xlink">
    <!-- Generator: Sketch 54.1 (76490) - https://sketchapp.com -->
    <title>icons/banks/44/uralsib</title>
    <desc>Created with Sketch.</desc>
    <g id="icons/banks/44/uralsib" stroke="none" stroke-width="1" fill="none" fill-rule="evenodd">
        <path d="M22.657,20.459 C22.783,26.154 23.161,33.289 25.05,38.108 C25.239,38.608 25.553,39.171 25.805,39.672 C24.609,39.985 23.349,40.235 22.09,40.235 C20.767,40.235 19.509,39.985 18.375,39.672 C18.69,39.046 18.941,38.483 19.194,37.919 C20.956,33.164 21.46,26.091 21.523,20.459 L22.09,20.459 L22.657,20.459 Z M22.594,16.079 C22.909,16.079 23.223,16.079 23.475,16.204 L23.412,8.005 L24.42,8.005 C24.42,8.005 24.294,10.258 24.735,16.391 C30.15,17.581 34.243,22.337 34.243,28.094 C34.243,32.413 31.976,36.105 28.639,38.233 C28.576,38.17 28.45,37.982 28.324,37.857 C24.735,33.289 23.853,26.467 23.601,20.522 C24.105,20.647 24.609,20.709 25.113,20.772 C26.12,27.281 29.142,31.599 31.598,34.29 C32.732,32.789 33.425,31.098 33.425,29.22 C33.425,27.031 32.543,25.09 31.095,23.526 C29.646,21.961 27.694,20.709 25.302,20.083 C24.294,19.833 23.223,19.708 22.09,19.708 C21.019,19.708 19.949,19.833 18.879,20.083 C14.219,21.273 10.756,24.903 10.756,29.22 C10.756,31.098 11.448,32.789 12.519,34.29 C15.037,31.599 17.997,27.281 19.004,20.772 C19.509,20.709 20.012,20.647 20.579,20.522 C20.327,26.467 19.445,33.226 15.856,37.794 L15.856,37.732 C15.73,37.919 15.604,38.108 15.478,38.233 C12.141,36.105 10,32.413 10,28.094 C10,22.337 14.03,17.581 19.509,16.391 C19.823,10.258 19.76,8.005 19.76,8.005 L20.767,8.005 L20.704,16.204 C20.956,16.079 21.271,16.079 21.523,16.079 L21.523,4 L22.594,4 L22.594,16.079 Z" id="Fill-1" fill="#1E388C"></path>
    </g>
</svg>