<?xml version="1.0" encoding="UTF-8"?>
<svg width="44px" height="44px" viewBox="0 0 44 44" version="1.1" xmlns="http://www.w3.org/2000/svg" xmlns:xlink="http://www.w3.org/1999/xlink">
    <!-- Generator: Sketch 54.1 (76490) - https://sketchapp.com -->
    <title>icons/banks/44/vbrr</title>
    <desc>Created with Sketch.</desc>
    <g id="icons/banks/44/vbrr" stroke="none" stroke-width="1" fill="none" fill-rule="evenodd">
        <path d="M36,18.5851966 C35.7977268,18.8323386 35.5700546,19.0630659 35.3970055,19.3293841 C33.7840219,21.809242 32.1808306,24.2953898 30.5732022,26.7786227 C30.4638033,26.9475261 30.3415519,27.107992 30.1793661,27.3371852 C28.3322842,26.135992 26.5052459,24.947992 24.5813552,23.6969409 C26.5173333,20.7042364 28.4334208,17.7422136 30.3801093,14.7329409 C32.2775301,15.9298386 34.1386885,17.1041852 36,18.2783784 L36,18.5851966 Z M22.0765027,8.15337841 C24.2732022,10.900475 26.4700546,13.6474182 28.7395847,16.4854864 C27.0194973,17.8848841 25.3122623,19.2733898 23.5510164,20.7062307 C21.3065792,17.9293727 19.0984044,15.1971568 16.8427978,12.406492 C18.5495738,10.9776398 20.236459,9.56550909 21.9234973,8.15337841 L22.0765027,8.15337841 Z M8,18.2783784 C9.19206557,17.8506739 10.3905574,17.4398443 11.5748197,16.9917364 C13.6907322,16.1910943 15.7982295,15.3677477 17.9993661,14.519242 C18.806929,16.6230943 19.5955191,18.677242 20.404765,20.785083 C17.072153,22.0680432 13.8015082,23.3273784 10.4563497,24.6154011 C9.62751913,22.5288841 8.81383607,20.4804125 8,18.4317875 L8,18.2783784 Z M13.3705071,34.8759227 C13.1942448,31.3996727 13.0167585,28.0377125 12.8727803,24.6740648 C12.8654361,24.5024 13.1361027,24.1721102 13.2932393,24.1618318 C15.3213268,24.0305136 17.3523213,23.9436841 19.4898077,23.8404398 C19.6781574,27.4004511 19.864518,30.9245648 20.0545508,34.5158716 C17.8174579,34.6362977 15.6408022,34.7535023 13.3705071,34.8759227 Z M30.6702842,34.8814608 C27.1724262,33.9401426 23.7919235,33.0304267 20.3531257,32.1050631 C20.9386776,29.9153017 21.5026557,27.8060801 22.0860656,25.6244494 C25.5361858,26.5522676 28.9332131,27.4658188 32.401235,28.398546 C31.815377,30.592296 31.252929,32.6992165 30.6702842,34.8814608 Z" id="Combined-Shape" fill="#000000"></path>
    </g>
</svg>