<?xml version="1.0" encoding="UTF-8"?>
<svg width="44px" height="44px" viewBox="0 0 44 44" version="1.1" xmlns="http://www.w3.org/2000/svg" xmlns:xlink="http://www.w3.org/1999/xlink">
    <!-- Generator: Sketch 54.1 (76490) - https://sketchapp.com -->
    <title>icons/banks/44/vostbank</title>
    <desc>Created with Sketch.</desc>
    <g id="icons/banks/44/vostbank" stroke="none" stroke-width="1" fill="none" fill-rule="evenodd">
        <path d="M31.6974706,36.9918 L31.1680588,36.9918 C31.0962574,36.968 31.0260441,36.9338 30.9523897,36.9218 C29.6956985,36.7182 28.7687647,35.6568667 28.7272721,34.3654667 C28.7126471,33.9107333 28.6992132,33.4557333 28.6986176,33.0008 C28.6963676,31.4798667 28.7005368,29.9589333 28.7015956,28.4379333 C28.7022574,27.5195333 28.7017279,26.6010667 28.7017279,25.6689333 L25.2038382,25.6689333 C25.2038382,25.8248 25.2039044,25.9558 25.2038382,26.0868 C25.2017206,28.819 25.2017206,31.5513333 25.1966912,34.2835333 C25.1944412,35.4664 24.4294412,36.4941333 23.2986176,36.8495333 C23.1428382,36.8985333 22.9861324,36.9444667 22.8298235,36.9918 L22.2342353,36.9918 C22.1524412,36.9661333 22.0723015,36.9312 21.9886544,36.9161333 C20.82375,36.7069333 19.87875,35.6044 19.8487059,34.4158667 C19.8374559,33.9726 19.8180662,33.5292667 19.8174706,33.0860667 C19.8143603,30.7446 19.8160809,28.4031333 19.8160809,26.0616667 L19.8160809,25.6682 L16.336125,25.6682 C16.336125,25.9776 16.3363235,26.2636667 16.336125,26.5496667 C16.3341397,29.1132667 16.3373162,31.6768 16.3280515,34.2404 C16.3233529,35.5178 15.49575,36.5668 14.2697647,36.8862667 C14.1444926,36.9188667 14.0205441,36.9565333 13.896,36.9918 L13.4327647,36.9918 C13.3844559,36.9697333 13.338,36.9355333 13.2874412,36.9273333 C11.8492279,36.6928667 10.927125,35.6059333 10.9267941,34.1360667 C10.9258676,30.3264667 10.9259338,26.5168667 10.9274559,22.7072 C10.9275882,22.3633333 10.9021765,22.0130667 10.9561103,21.6767333 C11.1003088,20.7769333 11.8571691,20.1886667 12.8279118,20.1884 C17.6569412,20.1872667 22.4859044,20.1867333 27.3148676,20.1883333 C29.012625,20.1889333 30.7103824,20.1922667 32.4080735,20.2020667 C33.2900735,20.2071333 34.0585809,20.9695333 34.0826029,21.8483333 C34.0964338,22.3585333 34.1151618,22.8688667 34.1141029,23.3791333 C34.1064926,27.0103333 34.0959044,30.6415333 34.0828015,34.2728 C34.0784338,35.4917333 33.2983456,36.5188 32.1309265,36.8602 C31.986,36.9026 31.8419338,36.9478667 31.6974706,36.9918" id="Fill-1" fill="#00549E"></path>
        <path d="M35.9989412,15.5918 C35.9615515,15.7631333 35.9301176,15.9361333 35.8858456,16.1056667 C35.5385515,17.4341333 34.1639338,18.2310667 32.8345809,17.7861333 C32.0894338,17.5367333 31.3900147,17.1382 30.6868235,16.7738 C28.2005735,15.4854667 25.7116765,14.2014667 23.2475294,12.8711333 C22.7070662,12.5794 22.2837353,12.6090667 21.7728529,12.8789333 C18.819,14.4393333 15.8535,15.9774 12.8954118,17.5297333 C11.7331544,18.1396 10.5325147,18.0071333 9.73244118,17.1597333 C8.72655882,16.0943333 8.84958088,14.3601333 10.0254044,13.4935333 C10.4664706,13.1684667 10.96425,12.9162 11.4519706,12.6615333 C14.6183824,11.0081333 17.7888309,9.36266667 20.9588162,7.71633333 C21.2914853,7.54353333 21.6356691,7.3926 21.9636397,7.21153333 C22.3234412,7.01293333 22.6770221,7.0064 23.0364926,7.191 C23.9975074,7.68446667 24.9587868,8.17746667 25.9167574,8.6768 C28.7814044,10.1699333 31.6441985,11.6664667 34.50825,13.1606667 C35.3142132,13.5812 35.8271471,14.2145333 35.9436838,15.1417333 C35.9487794,15.1823333 35.9799485,15.2196 35.9989412,15.2584667 L35.9989412,15.5918 Z" id="Fill-5" fill="#E31818"></path>
    </g>
</svg>