<?xml version="1.0" encoding="UTF-8"?>
<svg width="44px" height="44px" viewBox="0 0 44 44" version="1.1" xmlns="http://www.w3.org/2000/svg" xmlns:xlink="http://www.w3.org/1999/xlink">
    <!-- Generator: Sketch 54.1 (76490) - https://sketchapp.com -->
    <title>icons/banks/44/vozrozhdenie-mono</title>
    <desc>Created with Sketch.</desc>
    <g id="icons/banks/44/vozrozhdenie-mono" stroke="none" stroke-width="1" fill="none" fill-rule="evenodd">
        <path d="M9,9.82386689 C9,9.37066948 9.3684437,9 9.81887681,9 L34.1809197,9 C34.6315563,9 35,9.37066948 35,9.82386689 L35,34.1765367 C35,34.6293305 34.6315563,35 34.1809197,35 L9.81887681,35 C9.3684437,35 9,34.6293305 9,34.1765367 L9,9.82386689 Z M20.1115875,14.2223116 C20.1956813,14.2223116 20.2348844,14.1608388 20.1987281,14.0854589 L20.0124625,13.6974744 C19.9763063,13.6222961 19.8784,13.5608233 19.7943063,13.5608233 L12.9290875,13.5608233 C12.8451969,13.5608233 12.8057906,13.6222961 12.84215,13.6974744 L13.0282125,14.0854589 C13.0645719,14.1608388 13.1626813,14.2223116 13.2465719,14.2223116 L20.1115875,14.2223116 Z M20.6439984,15.0136589 C20.6080453,14.9386822 20.5099359,14.8768062 20.4258422,14.8768062 L13.5606234,14.8768062 C13.4769359,14.8768062 13.4375297,14.9386822 13.4738891,15.0136589 L13.6599516,15.401845 C13.6961078,15.4768217 13.7942172,15.5384961 13.8781078,15.5384961 L20.7433266,15.5384961 C20.8274203,15.5384961 20.8664203,15.4768217 20.8304672,15.401845 L20.6439984,15.0136589 Z M21.2790484,16.3362326 C21.2426891,16.2610543 21.1443766,16.1995814 21.0606891,16.1995814 L14.1956734,16.1995814 C14.1115797,16.1995814 14.0725797,16.2610543 14.1085328,16.3362326 L14.2947984,16.7242171 C14.3307516,16.7993953 14.4288609,16.8610698 14.5129547,16.8610698 L21.3781734,16.8610698 C21.4620641,16.8610698 21.5012672,16.7993953 21.4651109,16.7242171 L21.2790484,16.3362326 Z M21.9136313,17.6587054 C21.8776781,17.5835271 21.7795688,17.5220543 21.695475,17.5220543 L14.8300531,17.5220543 C14.7463656,17.5220543 14.7071625,17.5835271 14.7431156,17.6587054 L14.9297875,18.0468915 C14.9657406,18.1222713 15.0640531,18.1835426 15.1477406,18.1835426 L22.0129594,18.1835426 C22.0970531,18.1835426 22.1362563,18.1222713 22.0998969,18.0468915 L21.9136313,17.6587054 Z M22.5485797,18.9814806 C22.5126266,18.9063023 22.4141109,18.8448295 22.3304234,18.8448295 L15.4650016,18.8448295 C15.3813141,18.8448295 15.3421109,18.9063023 15.3780641,18.9814806 L15.5645328,19.3694651 C15.6004859,19.444845 15.6985953,19.5063178 15.7826891,19.5063178 L22.6479078,19.5063178 C22.7315953,19.5063178 22.7707984,19.444845 22.7348453,19.3694651 L22.5485797,18.9814806 Z M23.18365,20.3047597 C23.1472906,20.2293798 23.0493844,20.167907 22.9652906,20.167907 L16.1000719,20.167907 C16.0161813,20.167907 15.9771813,20.2293798 16.0131344,20.3047597 L16.1994,20.6927442 C16.2357594,20.768124 16.3336656,20.8295969 16.4175563,20.8295969 L23.2829781,20.8295969 C23.3670719,20.8295969 23.4058688,20.768124 23.3699156,20.6927442 L23.18365,20.3047597 Z M23.8182125,21.6267287 C23.7822594,21.5517519 23.6839469,21.4900775 23.6000563,21.4900775 L16.7348375,21.4900775 C16.6507438,21.4900775 16.6117438,21.5517519 16.6476969,21.6267287 L16.8339625,22.0151163 C16.8703219,22.0902946 16.9684313,22.1517674 17.0521188,22.1517674 L23.9175406,22.1517674 C24.0016344,22.1517674 24.0406344,22.0902946 24.0046813,22.0151163 L23.8182125,21.6267287 Z M21.8540141,12.8987504 C21.9377016,12.8987504 22.0063578,12.8306264 22.0063578,12.747386 L22.0063578,12.3888279 C22.0063578,12.3055876 21.9377016,12.2374636 21.8540141,12.2374636 L11.2023422,12.2374636 C11.1184516,12.2374636 11.0497953,12.3055876 11.0497953,12.3888279 L11.0497953,12.747386 C11.0497953,12.8306264 11.1184516,12.8987504 11.2023422,12.8987504 L21.8540141,12.8987504 Z M17.3075078,22.8127116 C17.2238203,22.8127116 17.1848203,22.8739829 17.2211797,22.9491612 L21.5595234,31.8675643 C21.5960859,31.9427426 21.6838359,31.9429442 21.7201953,31.8675643 L25.6831641,23.6118589 C25.7191172,23.5364791 25.8174297,23.4750062 25.9015234,23.4750062 L32.2946797,23.4750062 C32.3785703,23.4750062 32.4474297,23.4068822 32.4474297,23.3236419 L32.4474297,22.964076 C32.4474297,22.8808357 32.3785703,22.8127116 32.2946797,22.8127116 L17.3075078,22.8127116 Z M32.2947203,12.2366372 L26.8034391,12.2368388 C26.7193453,12.2368388 26.6508922,12.3051643 26.6508922,12.3884047 L26.6508922,12.7469628 C26.6508922,12.8302031 26.7193453,12.8985287 26.8034391,12.8985287 L27.6175641,12.8985287 C27.8198766,12.9106217 28.9892672,12.9162651 28.5436109,14.2710868 L24.8936578,22.0152574 C24.8581109,22.0908388 24.8979234,22.1525132 24.9820172,22.1525132 L26.2300172,22.1525132 C26.3139078,22.1525132 26.4122203,22.0910403 26.4481734,22.015862 L30.3896109,13.8381566 C30.5701891,13.469924 30.7869234,13.2198 31.0396109,13.091614 C31.2922984,12.9636295 31.6221734,12.8977225 32.0517828,12.8977225 L32.2947203,12.8977225 C32.3788141,12.897924 32.4472672,12.8298 32.4472672,12.7463581 L32.4472672,12.3880016 C32.4472672,12.3047612 32.3788141,12.2366372 32.2947203,12.2366372 Z M30.7812969,22.151969 C31.7008437,22.151969 32.4473281,21.4110698 32.4473281,20.4980465 C32.4473281,19.5854264 31.7008437,18.8447287 30.7812969,18.8447287 C29.8603281,18.8447287 29.1148594,19.5854264 29.1148594,20.4980465 C29.1148594,21.4110698 29.8603281,22.151969 30.7812969,22.151969 Z" id="Combined-Shape" fill="#FFFFFF"></path>
    </g>
</svg>