<?xml version="1.0" encoding="UTF-8"?>
<svg width="44px" height="44px" viewBox="0 0 44 44" version="1.1" xmlns="http://www.w3.org/2000/svg" xmlns:xlink="http://www.w3.org/1999/xlink">
    <!-- Generator: Sketch 54.1 (76490) - https://sketchapp.com -->
    <title>icons/banks/44/zapsibkombank</title>
    <desc>Created with Sketch.</desc>
    <g id="icons/banks/44/zapsibkombank" stroke="none" stroke-width="1" fill="none" fill-rule="evenodd">
        <path d="M35.926503,22.0400624 C35.9230768,29.8850245 29.6754143,35.9819359 21.6427224,35.9791004 C14.2788405,35.9766194 8.06555781,29.5882481 8.08091646,22.0351004 C8.09651139,14.3501046 14.3050684,8.10149705 21.9488321,8.07727764 C29.6403257,8.05294008 35.9299291,14.3358093 35.926503,22.0400624" id="Fill-4" fill="#237B74"></path>
        <path d="M11.1547376,17.448854 C12.9633958,13.6913013 15.7031426,11.3278414 19.6359021,10.5191494 C25.5665857,9.29943629 31.3858599,12.7674194 33.242957,18.5344743 C33.3477502,18.8597232 33.3165603,19.0530059 33.0200203,19.2708624 C31.8033789,20.1646177 30.6104844,21.0906262 29.3585181,22.0432169 C30.5861468,22.9831662 31.7587207,23.9065755 32.9624844,24.7874532 C33.3338093,25.0591831 33.3792945,25.2945249 33.2177924,25.7069637 C31.319227,30.5563983 27.8442734,33.4562295 22.6146532,33.8147949 C17.4845097,34.1666262 13.12667,31.1327021 11.1763578,26.7814785 C11.0011511,26.3906599 11.1165772,26.3667949 11.4862481,26.3126852 C12.5889992,26.1516557 13.2459949,26.4629637 13.9231932,27.4916388 C16.0539105,30.7280608 19.220746,32.1337316 23.052611,31.7358245 C26.7031257,31.356584 29.295784,29.3477907 30.9089148,26.0564321 C31.1148388,25.6363139 31.0884928,25.3932928 30.6771173,25.0937992 C29.4682734,24.2138667 28.3125941,23.2612759 27.1141468,22.3664574 C26.7468388,22.0922464 26.7955139,21.9574447 27.1265519,21.7046177 C28.2997165,20.808854 29.4401553,19.8700861 30.6191089,18.982238 C30.9793283,18.7109806 31.0664,18.5031662 30.8596489,18.0751325 C29.2238346,14.6870143 26.5750582,12.6222211 22.8225857,12.2973266 C18.9178262,11.9593181 15.8670076,13.6140354 13.72613,16.8873181 C13.4390414,17.326103 13.175227,17.5193857 12.6587038,17.4594869 C12.2163747,17.4082127 11.7634127,17.448854 11.1547376,17.448854 Z M28.2018346,17.6780996 C27.3176489,17.6780996 26.5160456,17.6739646 25.7145603,17.680935 C25.5165519,17.6827072 25.388957,17.5690532 25.2449401,17.4669772 C23.2576489,16.0588253 20.5769738,16.0668591 18.6159105,17.4848169 C16.740265,18.8409857 15.8995561,21.4373063 16.6036911,23.6995173 C17.3329907,26.0428928 19.4557924,27.6671291 21.8823409,27.7020996 C22.962881,27.7176945 24.0026616,27.4810532 24.9181553,26.8890363 C25.337919,26.6175426 25.7501215,26.5019983 26.2406532,26.5263359 C26.8442481,26.556108 27.4504422,26.5333063 28.0781384,26.5333063 C27.1745772,28.26907 24.0682312,30.2223359 20.6738515,29.6268928 C17.2207544,29.0210532 14.5907629,26.1027916 14.3232861,22.4612557 C14.0731764,19.0557705 16.2925013,15.8417958 19.6465941,14.7520405 C22.8050414,13.7258464 26.5152186,14.9635173 28.2018346,17.6780996 Z M28.5518228,25.9638312 C27.5661519,25.9638312 26.7452911,25.9563882 25.9247848,25.9683207 C25.677038,25.9719831 25.5267595,25.8201688 25.3573418,25.694346 C24.0524473,24.7241519 22.7503882,23.7502954 21.3427089,22.6992911 C21.3427089,23.7085907 21.3268776,24.6017553 21.3505063,25.4937384 C21.3600759,25.8552574 21.2556371,25.9626498 20.887384,25.9557975 C19.4655274,25.9293333 19.4655274,25.9420928 19.4655274,24.515865 C19.4654093,22.5681519 19.4776962,20.6202025 19.4544219,18.6727257 C19.4493418,18.2497722 19.5777637,18.1517131 19.9834684,18.1547848 C21.3427089,18.1651814 21.3425907,18.1487595 21.3430633,19.489097 C21.3431814,20.1186835 21.3441266,20.74827 21.3467257,21.3779747 C21.3468439,21.4148354 21.3643291,21.4518143 21.3975274,21.5812996 C21.8045316,21.2273418 22.1810549,20.9002025 22.5574599,20.5725907 C23.3438228,19.8880675 24.1396371,19.2138228 24.9115865,18.5133502 C25.1925316,18.2582785 25.47773,18.1398987 25.8594515,18.1575021 C26.4637553,18.1851477 27.0703038,18.164827 27.6806329,18.164827 C27.7089873,18.3992236 27.5270464,18.4523882 27.4233165,18.5440675 C26.244481,19.5868017 25.0700169,20.6349705 23.8692068,21.6518312 C23.5166667,21.9503797 23.469173,22.0960506 23.8788945,22.3957806 C25.3230802,23.4524557 26.7378481,24.5494177 28.1630127,25.6322025 C28.2545738,25.7019072 28.338692,25.7814177 28.5518228,25.9638312 Z" id="Shape" fill="#FEFEFE"></path>
    </g>
</svg>